<?xml version="1.0" encoding="utf-8"?>
<!-- Generator: Adobe Illustrator 24.1.2, SVG Export Plug-In . SVG Version: 6.00 Build 0)  -->
<svg version="1.1" id="Layer_1" xmlns="http://www.w3.org/2000/svg" xmlns:xlink="http://www.w3.org/1999/xlink" x="0px" y="0px"
	 viewBox="0 0 2846.83 1112.54" style="enable-background:new 0 0 2846.83 1112.54;" xml:space="preserve">
<style type="text/css">
	.st0{fill:#F9DC3E;}
</style>
<path d="M1887.97,154.18l-0.56-5.36l-8.68,0.74l0.55,5.35C1879.28,154.92,1887.97,154.18,1887.97,154.18z M1946.31,294.5l0.19,2.95
	l6.09-0.55c-0.19-1.85,0.55-4.8,1.85-8.49l-0.56-5.36C1951.3,283.24,1948.71,287.12,1946.31,294.5L1946.31,294.5z M1718.65,471.2
	c-0.37-4.99-15.88-24.37-46.53-58.53c-0.55-6.27,9.97-15.69,31.57-28.06l61.67-53.73c13.85-17.54,21.97-45.98,24.38-85.49
	l-0.74-9.05c-2.4-27.32-22.15-49.3-59.63-66.1c-22.16-14.96-62.04-23.27-119.65-24.74c-47.64,4.06-109.86,21.04-186.48,51.14
	c-21.05,15.14-45.05,30.28-72.01,45.42l0.37,4.62c1.67-0.19,4.25-1.11,7.2-3.14c3.14-0.37,4.99,1.11,5.17,4.06l4.61-2.4l2.22-0.19
	l0.19,2.03c0.19,2.4-16.44,15.51-50.04,38.96l2.59,4.8l-2.22,0.19l-5.54-2.03c0.19,1.66-2.21,2.77-6.83,3.14l0.19,2.03l5.36,6.65
	c-1.66,0.19-4.25-0.55-7.75-1.85c-7.76,0.74-15.33,4.8-22.9,12.55l3.14-13.66c11.26-48.56,19.01-91.58,23.08-128.88l-0.55-2.4
	c-7.75-4.99-15.33-12-22.34-20.86c0.19-5.72,0.19-9.04,0-9.79l-0.55-2.03l-2.22,0.56c-24.37,36.56-71.27,98.96-140.88,187.22
	c-52.99,62.78-80.32,97.68-81.98,104.69c-21.6,22.34-31.94,35.82-30.83,40.43c-5.72,3.69-8.13,7.38-7.2,11.45
	c-1.66,0.37-2.77-0.18-3.14-1.85c-9.23,14.96-22.9,24.56-41.17,28.8l-19.2,4.43c-2.58,0.55-3.88,2.4-3.69,5.54l0.55,2.4l7.2-1.67
	l0.56,2.03l-16.25,6.28l-28.8,6.65l-15.14,0.92c-2.22,2.22,12-0.18,6.46,1.11l-18.83,4.43c-11.45,2.58-17.72,1.66-18.83-2.95
	l-2.22,0.55c0.37,2.03,0.55,3.51,0.19,4.8l-1.11-4.61l-15.14,3.51c-1.11-7.01-21.6-32.5-61.3-76.44
	c-0.74-8.5,13.29-20.87,41.91-36.93l80.87-71.09c18.1-23.26,28.8-60.56,32.31-111.89l-1.11-12c-3.14-36.19-29.36-65.36-78.66-87.89
	c-29.17-19.76-81.61-30.28-157.31-31.94c-62.78,5.36-144.76,27.7-245.57,66.66c-27.7,20.12-59.27,40.06-94.72,59.82l0.55,6.28
	c2.4-0.19,5.54-1.47,9.41-3.69c4.06-0.37,6.28,1.47,6.65,5.17l6.27-3.51l3.14-0.19l0.19,2.95c0.19,2.95-21.79,20.13-66.28,51.51
	l3.51,5.54l-3.13,0.19l-6.84-2.4c0.19,1.85-2.95,3.14-9.41,3.69l0.37,3.33l7.39,8.13c-2.4,0.19-5.72-0.56-9.97-2.03
	c-14.4,1.29-28.43,11.63-42.28,31.21l3.51,5.54c12-11.08,19.02-16.62,21.05-16.8l0.74,9.05c-2.03,0.19-5.17,1.47-9.41,3.69
	l7.57,11.45c14.3-15.46,30.49-29.04,48.19-40.44c8.68,2.22,13.29,4.99,13.48,7.94l6.65-0.55c47.64-35.27,94.72-60.75,141.44-76.44
	l0.55,6.27c-8.68,12.92-14.58,19.58-17.72,19.94c0.37,4.43,1.85,8.31,4.61,11.64c0.74,7.94-20.49,61.48-63.52,160.45
	c-97.67,230.06-179.65,400.29-246.3,510.34c0.18,2.21,1.47,5.17,3.88,8.86c16.43-3.88,26.77-7.94,31.2-11.82l3.51-0.37l0.55,6.28
	l6.09-0.56l6.28-3.51c0.19,1.85,2.22,2.77,6.46,2.4l0.56,6.28c0.55,6.09-2.95,15.32-10.34,28.07c-6.65,7.57-13.85,23.45-21.42,47.64
	l0.18,2.95l6.09-0.56c26.59-29.73,46.71-58.9,60.56-87.33c77.55-22.71,136.64-45.05,177.62-67.02c41.18-3.51,72.56-14.4,93.98-32.31
	l-0.37-3.32l-15.51,4.61l-3.51,0.37l-0.37-3.33c30.28-4.61,51.15-11.26,62.78-20.49c58.9-45.42,103.4-77.55,133.5-96.57
	c61.85-45.42,102.1-89.74,120.38-132.75c3.46-0.75,6.91-1.55,10.34-2.4c8.68-0.37,13.48-0.55,14.77-0.92
	c-0.37-1.66,0.37-2.58,2.03-2.95c13.85-1.47,7.2,0.92,16.06-1.11l23.26-5.35c-1.47,0.37-2.03,1.11-1.66,2.58l3.51-2.22
	c-0.74,0-1.29-0.18-1.85-0.37l3.88-0.92l-1.85,1.11c2.59,0.37,5.36,0.18,8.5-0.56l1.66,6.83L816.7,764.6l-23.45,29.36l-11.45,38.4
	l2.22-0.55l11.45-4.8l-3.69,14.96l1.11,4.43l3.13,3.88c-1.47,0.37-2.03,1.29-1.66,2.95l0.56,2.4l4.8-1.11
	c7.02-6.09,9.97-11.63,8.86-16.62c7.57,1.29,12.55,1.85,15.14,1.11l0.55,2.4c-4.61,1.11-7.02,4.8-7.39,11.08l0.56,2.4l2.58-0.56
	c38.41-41.91,132.57-185.38,208.09-282.68c-2.4-10.52,36.92-25.11,118.16-43.95l2.59-0.55c2.95,12.74-3.33,43.57-18.83,92.5
	c-9.97,29.54-14.77,45.79-14.03,48.37c-12.92,39.33-19.02,60.56-18.28,63.89l-28.8,94.35c-18.65,48.38-32.86,99.16-42.83,152.7
	c1.66-0.37,4.24-0.19,7.94,0.74l4.06-3.51c0.37,1.67,1.48,2.22,3.14,1.85l-1.66-6.83l12.55-0.37c3.69-0.92,6.83-5.54,9.42-14.03
	c-0.56-12.74,2.03-19.57,7.75-21.05c7.75-30.28,12.55-45.42,14.22-45.98c7.2-30.09,12.55-47.27,16.06-51.51
	c10.9-39.14,18.83-59.27,24-60.56l1.11,4.8l-7.94,20.49c-13.85,61.48-27.88,110.04-42.09,145.68l4.06,17.72l2.58-0.55
	c34.34-73.86,83.82-220.09,148.26-438.7c1.85-19.2,11.08-34.16,27.51-44.68l-3.7-3.88l-0.55-2.03c7.39-1.66,12.55-4.61,15.51-8.68
	c-0.37-1.67-6.83-4.06-19.38-7.39l32.13-137.74c7.01-6.28,11.07-9.6,12.37-9.6l0.56,7.02c-1.67,0.18-4.25,1.1-7.2,3.13l6.09,8.68
	c11.07-12,23.08-22.34,36.19-31.02c6.65,1.85,9.97,4.06,10.34,6.28l4.8-0.37c36.56-26.77,72.38-45.98,107.64-57.61l0.37,4.61
	c-6.46,9.79-10.89,14.77-13.3,14.96c0.37,3.33,1.29,6.28,2.95,8.86c0.56,6.09-15.32,46.71-47.82,122.05
	c-74.23,174.48-136.45,303.54-187.04,387.37c0.19,1.66,1.29,3.88,3.33,6.83c12.37-2.95,20.31-6.09,23.45-9.05l2.22-0.19l0.37,4.62
	l5.17-0.37l4.62-2.4c0.18,1.29,1.85,1.85,4.99,1.67l0.37,4.99c0.37,4.43-2.21,11.45-7.94,21.04c-5.35,5.73-10.89,17.73-16.8,36.01
	l0.19,2.4l4.8-0.37c20.13-22.52,35.45-44.68,45.98-66.47c58.9-17.35,103.76-34.16,134.79-50.78c31.57-2.77,55.39-10.89,71.64-24.56
	l-0.19-2.4l-12,3.51l-2.58,0.19l-0.19-2.4c22.9-3.32,38.96-8.49,47.64-15.32c44.68-34.35,78.47-58.9,101.37-73.3
	C1689.48,568.88,1722.71,519.03,1718.65,471.2L1718.65,471.2z M1706.47,474.34l1.66,18.65c-2.22,4.62-4.61,7.02-6.83,7.2
	l-2.77-31.76C1703.69,470.28,1706.28,472.13,1706.47,474.34L1706.47,474.34z M308.39,324.05l-3.14,0.18l-0.55-5.72l12.74-1.11
	l0.19,2.95C315.59,320.54,312.45,321.65,308.39,324.05L308.39,324.05z M246.16,946.46c-7.39-3.32-14.03-4.61-19.76-4.06l-0.74-9.05
	c-0.37-3.51,1.67-5.91,6.09-6.83c4.06-0.37,6.46,2.59,6.83,8.5c10.71-13.11,16.62-19.76,17.73-19.94l6.83,2.77
	C260.94,936.31,255.21,945.72,246.16,946.46z M911.05,250.93c-3.14,0.37-9.42-9.41-18.47-28.8l-0.55-5.72
	c5.91-0.55,12,9.05,18.46,28.8L911.05,250.93z M902.18,182.06l-2.58,6.09l-90.29-37.67C869.5,152.52,900.52,163.04,902.18,182.06z
	 M520.91,509.43l-12.74,1.11l-0.56-5.73l12.74-1.1L520.91,509.43z M510.56,312.79l3.14-0.19l0.74,9.05
	c-2.95,0.19-6.83,4.61-11.63,13.11l-0.56-6.28C507.98,321.65,510.94,316.48,510.56,312.79L510.56,312.79z M483.79,375.93l1.11,12
	l-3.14,0.19l-1.11-12L483.79,375.93z M469.76,398.46l6.09-0.56c-0.55,9.97-3.32,15.33-8.31,15.69l-3.14,0.19
	C468.28,407.14,470.13,401.97,469.76,398.46z M459.24,429.85l3.51-0.37l0.19,2.95l-5.72,9.6l-6.09,0.55l-0.19-2.95
	C457.02,439.08,459.79,435.94,459.24,429.85L459.24,429.85z M448.89,458.1l-1.85,15.14l-3.14,0.19l-1.29-14.96L448.89,458.1z
	 M345.32,752.6c-4.06,20.68-8.5,31.2-13.11,31.57l-0.19-2.95C330.91,771.06,335.34,761.46,345.32,752.6L345.32,752.6z M326.3,793.77
	l0.19,2.95c0.37,4.06-1.48,6.46-5.54,6.65l-0.18-2.95C320.39,796.91,322.23,794.69,326.3,793.77z M320.76,879.26l9.6-0.92l0.37,3.33
	c-2.4,0.18-5.54,1.47-9.41,3.69l-6.09,0.55C314.85,882.77,316.88,880.36,320.76,879.26L320.76,879.26L320.76,879.26z M594.02,794.88
	c-53.92,26.59-85.67,44.68-95.09,54.1c-58.34,20.31-87.33,32.87-86.78,37.85c-51.88,20.5-86.04,35.64-102.47,45.05
	c-3.88,0.37-9.42-1.11-16.8-4.43c-0.92-10.52,3.88-19.01,14.03-25.84c9.05-0.74,17.72,0.55,26.04,4.06
	c9.6-4.99,26.41-10.52,50.22-16.43l-0.56-6.28l-19.2,1.67c2.4-3.33,20.86-12,55.57-26.04l9.6-0.92l0.19,2.95
	c-16.44,1.47-25.48,6.28-27.51,14.96c0.37,3.88,2.59,5.54,6.65,5.17c12.37-7.76,18.46-12.37,18.28-13.67
	c23.45-4.43,88.26-38.4,194.42-101.73l0.56,5.72C621.35,773.83,612.3,781.58,594.02,794.88L594.02,794.88z M431.17,848.42
	c15.51-1.29,28.8-7.57,39.88-18.46c4.43-0.37,6.83,1.29,7.02,5.17c-7.57,0.74-22.16,7.02-43.39,19.2l-3.14,0.19L431.17,848.42
	L431.17,848.42z M693.91,646.61l-81.43,64.44c-60.56,39.7-93.06,59.63-97.67,60c-96.38,52.99-156.39,80.5-179.65,82.53l-3.51,0.37
	c2.95-10.89,45.79-98.59,128.88-263.66c36.56-3.14,94.17-20.12,172.64-51.14l19.2-1.67c39.7-3.51,69.42,4.25,89,22.71l1.1,12
	C727.7,614.67,711.45,639.41,693.91,646.61L693.91,646.61z M534.75,557.06l13.11-1.11l0.18,2.95l-13.11,1.11L534.75,557.06z
	 M718.84,525.86l9.6-0.92c8.86,4.25,13.48,7.94,13.85,11.26l0.18,2.95C733.98,539.89,726.04,535.46,718.84,525.86z M744.87,377.6
	c-8.49,10.15-31.76,27.51-69.79,51.88c-12.55,1.11-59.27,19.2-140.14,54.65c-4.04-1.85-8.5-2.61-12.92-2.21l-0.56-5.73
	c-0.92-11.63,4.25-26.22,15.69-43.94c6.28-33.24,13.11-52.26,20.68-56.87l67.39-151.59c-0.74-9.42,13.66-16.62,43.2-21.61l9.6-0.92
	l0.74,8.68c28.98-4.43,47.08-7.02,54.1-7.57c53.54-4.61,81.43,6.28,83.64,32.31l6.09-0.56l-1.29-15.32l6.65-0.56
	c15.69,8.68,24.19,19.2,25.3,31.57c0.74,8.5-3.88,19.02-13.67,31.58c-4.06,0.37-6.46-2.59-6.83-8.5l-6.65,0.56l-1.47,18.46
	c-27.14,40.62-46.9,61.48-59.09,62.59C754.47,369.84,747.64,377.41,744.87,377.6z M786.23,483.76c-5.54-3.7-9.97-5.36-13.29-5.17
	l-0.74-9.05l6.09-0.55l13.48,7.94C792.32,481.17,790.48,483.39,786.23,483.76L786.23,483.76z M829.07,534.53
	c5.91,2.4,9.42,4.99,10.16,7.39l-2.95,0.74l0.19,0.19c-0.56,0-1.29,0.19-1.85,0.37l-4.43,3.51L829.07,534.53z M833.13,560.02
	l-0.55-2.4l7.75-1.85l0.55,2.4L833.13,560.02z M851.77,580.88c7.94-1.29,11.82-1.85,26.59-5.17l0.56,2.4l-28.07,6.46
	C851.22,583.28,851.59,581.99,851.77,580.88z M879.1,592.51c-11.82,1.11-9.23-0.37-28.07,3.88l-0.56-2.4l23.45-7.57l11.26-2.58
	l1.1,4.43C881.32,589.37,885.01,589.37,879.1,592.51z M904.03,586.6c-2.77,0.74-4.99-0.55-6.28-3.69l7.2-1.67
	c3.13-0.74,5.17,0.56,5.91,3.7L904.03,586.6L904.03,586.6z M971.6,513.85l-0.55-2.4l11.63-2.77l1.11,4.43L971.6,513.85z
	 M1043.8,956.62c0.74-3.33,0.92-5.72,0.55-7.39l2.59-0.55c3.13-0.74,4.98,0.37,5.72,3.33l0.55,2.4L1043.8,956.62L1043.8,956.62z
	 M1094.39,532.87l-5.17-0.92c-8.31,3.33-15.33,5.72-21.05,7.02l-4.8,1.11c-2.77,0.74-4.99-0.37-6.09-3.33l33.79-7.75l11.08-5.17
	l3.69,4.25C1100.48,529.18,1096.6,530.84,1094.39,532.87L1094.39,532.87z M1120.42,524.56l-0.55-2.4c1.66-0.37,3.88-1.66,6.28-4.06
	l24-5.54l0.56,2.4C1137.97,518.1,1127.81,521.24,1120.42,524.56L1120.42,524.56z M1124.12,476c-1.67,0.37-3.88,1.85-6.65,4.06
	c-0.37-1.66-3.69-1.66-9.97-0.18c-1.1-4.62,16.62-11.08,53.36-19.58l5.17-1.11l1.11,4.43C1141.29,471.2,1126.89,475.45,1124.12,476
	L1124.12,476z M1188.74,406.21c-2.59,29.36-12.92,45.98-31.21,50.22l-0.55-2.4l-16.25,6.27l-7.2,1.67
	c-3.69,0.92-7.02,0.74-9.97-0.19l-1.47-6.46c-0.56-2.4,22.9-34.9,70.53-97.3l5.54,0.93
	C1200.19,367.44,1197.05,383.13,1188.74,406.21L1188.74,406.21z M1303.03,308.35l-2.21,0.19l-0.37-4.61l9.6-0.92l0.19,2.4
	C1308.57,305.77,1306.17,306.69,1303.03,308.35L1303.03,308.35z M1255.95,781.21c-5.54-2.59-10.53-3.69-14.77-3.33l-0.56-7.02
	c-0.19-2.4,1.29-4.06,4.43-4.99c3.14-0.37,4.99,1.85,5.35,6.65c7.94-10.16,12.37-15.33,13.3-15.33l4.99,2.03
	C1266.84,773.27,1262.6,780.66,1255.95,781.21L1255.95,781.21z M1760.75,253.15c-2.4,0.19-7.02-7.2-14.22-22.16l-0.37-4.61
	c4.61-0.37,9.41,6.83,14.21,21.6L1760.75,253.15L1760.75,253.15z M1754.1,200.34l-2.22,4.8l-68.32-28.62
	C1729.18,178,1752.81,185.94,1754.1,200.34z M1464.41,449.05l-9.6,0.92l-0.37-4.62l9.6-0.74L1464.41,449.05L1464.41,449.05z
	 M1456.47,299.68l2.58-0.19l0.55,7.02c-2.4,0.19-5.35,3.51-8.86,9.97l-0.37-4.61C1454.62,306.51,1456.65,302.44,1456.47,299.68
	L1456.47,299.68z M1436.34,347.68l0.74,9.05l-2.58,0.19l-0.74-9.05L1436.34,347.68z M1425.45,364.86l4.8-0.37
	c-0.55,7.75-2.58,11.82-6.09,12.19l-2.58,0.18C1424.34,371.69,1425.63,367.62,1425.45,364.86L1425.45,364.86z M1417.69,388.49
	l2.22-0.19l0.18,2.4l-4.24,7.39l-4.8,0.37l-0.18-2.4C1415.85,395.69,1418.06,393.1,1417.69,388.49L1417.69,388.49z M1409.94,409.9
	l-1.67,11.82l-2.22,0.19l-0.92-11.63L1409.94,409.9L1409.94,409.9z M1331.1,633.87c-3.14,15.51-6.46,23.45-9.97,23.82l-0.19-2.03
	C1320.39,647.9,1323.71,640.52,1331.1,633.87z M1316.51,665.08l0.18,2.03c0.37,3.32-1.1,5.17-4.43,5.35l-0.19-2.4
	C1311.89,667.66,1313.37,666,1316.51,665.08L1316.51,665.08z M1312.45,730.07l7.38-0.55l0.19,2.4c-1.66,0.19-4.25,1.11-7.2,2.77
	l-4.8,0.37C1307.83,732.47,1309.31,730.81,1312.45,730.07L1312.45,730.07z M1519.8,666c-40.62,20.13-64.81,33.79-72.38,40.81
	c-44.32,15.51-66.28,25.11-65.92,28.99c-39.33,15.69-65.18,26.95-77.36,34.16c-2.95,0.19-7.2-0.92-12.74-3.51
	c-0.74-7.94,2.95-14.4,10.71-19.2c7.02-0.55,13.66,0.37,19.76,2.95c7.39-3.69,20.13-7.75,38.22-12.37l-0.37-4.62l-15.14,1.11
	c1.85-2.58,16.06-9.23,42.47-19.94l7.38-0.55l0.19,2.03c-12.55,1.11-19.57,4.8-21.05,11.45c0.19,2.95,2.03,4.43,5.17,4.06
	c9.23-6.09,13.66-9.6,13.66-10.71c17.72-3.14,66.84-28.99,147.53-77.36l0.37,4.61C1540.48,649.93,1533.65,655.84,1519.8,666
	L1519.8,666z M1396.09,706.62c12-1.11,22.15-5.72,30.65-13.85c3.13-0.37,4.99,1.11,5.17,4.06c-5.54,0.55-16.43,5.17-32.87,14.03
	l-2.58,0.19L1396.09,706.62L1396.09,706.62z M1595.87,553.19l-61.48,49.48c-45.98,30.09-70.9,45.23-74.78,45.61
	c-73.12,40.25-118.54,61.11-136.45,62.59l-2.58,0.19c2.21-8.31,34.9-74.97,98.04-200.15c27.51-2.4,71.08-15.51,130.91-39.14
	l14.96-1.29c30.09-2.58,52.62,3.33,67.39,17.54l0.74,9.05C1621.35,528.81,1609.16,547.46,1595.87,553.19L1595.87,553.19z
	 M1475.11,485.24l9.6-0.92l0.19,2.4l-9.6,0.92L1475.11,485.24z M1614.89,461.42l7.39-0.55c6.83,3.32,10.34,6.28,10.52,8.68
	l0.19,2.03C1626.52,472.13,1620.42,468.81,1614.89,461.42z M1634.27,348.98c-6.46,7.75-24,21.04-52.62,39.51
	c-9.6,0.92-45.05,14.58-106.35,41.17c-2.95-1.11-6.28-1.47-9.79-1.29l-0.37-4.62c-0.74-8.86,3.14-19.94,11.63-33.42
	c4.8-25.48,10.16-39.7,15.69-43.02l51.51-115.21c-0.55-6.83,10.34-12.37,32.5-16.62l7.38-0.55l0.56,7.02
	c21.79-3.51,35.45-5.54,40.99-6.09c40.62-3.51,61.86,4.61,63.52,24.56l4.8-0.37l-0.92-11.08l4.8-0.37
	c11.82,6.46,18.09,14.22,18.83,23.45c0.55,6.65-2.77,14.77-9.79,24.19c-3.13,0.37-4.98-1.85-5.35-6.65l-4.8,0.37l-1.48,13.85
	c-20.49,31.21-35.45,47.27-44.87,48.01C1641.84,343.07,1636.67,348.79,1634.27,348.98L1634.27,348.98z M1655.88,425.78l-0.56-7.02
	l4.8-0.37l10.34,6.27c0.19,2.95-1.29,4.62-4.43,4.99C1661.6,426.89,1658.27,425.6,1655.88,425.78L1655.88,425.78z M796.38,874.27
	l-4.8,1.11l-4.06,3.51c0.74,2.95,2.58,4.06,5.72,3.33s4.43-2.58,3.7-5.54L796.38,874.27z M778.11,837.9l0.55,2.4
	c3.14-0.74,4.43-2.58,3.69-5.54l-0.55-2.4C778.85,833.1,777.55,834.94,778.11,837.9L778.11,837.9z M908.09,528.63l5.54-1.29
	l-1.11-4.8l-5.54,1.29L908.09,528.63L908.09,528.63z M2583.5,669.32c-56.13,12.55-63.15,10.34-74.97,11.26l0.37,4.62l5.17-0.37
	l2.77-0.19l-0.74-0.55l6.09-2.4c55.58-6.09,62.04-3.88,61.48-10.16L2583.5,669.32z M2281.24,709.39l0.37,4.62h0.74l-0.37-4.62
	H2281.24L2281.24,709.39z M2246.53,587.71l-4.99-1.66c-4.06,10.89-6.09,17.35-5.91,19.2l0.19,2.03
	C2239.7,607.1,2243.21,600.45,2246.53,587.71z M2594.94,668.4l0.37,4.61l8.12,1.47l-0.37-4.61L2594.94,668.4L2594.94,668.4z
	 M2212.93,715.11l-12.55-1.47l-2.22,4.8l0.19,2.4l74.78-6.28l-0.37-4.61L2212.93,715.11L2212.93,715.11z M2178.95,551.34l-0.18-2.4
	l-2.59,0.19l-4.61,2.95l2.58,4.43C2177.66,556.14,2179.32,554.47,2178.95,551.34L2178.95,551.34z M2630.39,634.43l3.51-0.37
	c2.03-0.19,2.95-1.85,2.77-4.8l-2.03-4.43c-12.74,1.11-18.65,1.67-28.99,7.39l-0.19-2.4l-15.32,1.47c-0.37-4.61-1.66-7.02-3.69-6.83
	l-7.94,0.74c-9.23,0.74-13.67,0.37-18.28,3.88c-0.19-1.66-0.74-2.4-1.66-2.4l-8.86,0.74l-5.17,2.95c-0.19-1.66-0.74-2.4-1.67-2.4
	l-3.13,2.77l-0.19-2.4l-12.37-0.92l-2.95,0.19l0.37,4.61l6.28,1.66l5.91-0.37c2.03,1.29,4.24,1.66,6.83,1.47l5.17-2.58l0.18,2.03
	c-28.98,7.2-28.8,5.91-48.75,9.23c-2.21-1.48-3.88-2.22-4.99-2.03l-0.37,0.37c-2.22-0.19-3.51-1.66-3.69-4.06l10.34-1.29
	c0.74,0,1.29,0.74,7.02,1.85c8.31-4.06,8.68-5.73,13.11-6.09l-0.37-4.62c-28.43,5.54-16.99,1.85-52.62,4.99l-1.66,0.19l-0.37-4.61
	c45.79-5.54,30.47-2.4,46.16-6.83c0.19,1.66,0.74,2.4,1.66,2.4c1.68-1.72,3.89-2.82,6.28-3.13l3.14-0.19
	c16.06-1.29,21.42,1.85,53.17-7.02l0.19,2.03l5.17-2.59l4.8-0.37c-0.37-4.62,6.65-5.36,9.05-5.54l-0.37-4.99
	c-55.76,11.26-70.35,8.12-85.85,12.56l-0.19-2.03c-14.58,2.58-15.14,1.47-18.83,1.66c-1.11,0.19-2.77,1.11-4.62,2.95
	c-0.18-1.66-0.74-2.4-1.85-2.4c-0.55,0-0.74,0.19-0.92,0.19l-47.27,7.75c-0.19-1.29-0.74-2.03-1.85-1.85
	c-24.56,5.17-17.91,6.09-50.78,9.05c-1.48,0.19-3.51,0.92-6.09,2.59c-0.19-1.29-0.92-2.03-2.58-1.85l-20.13,1.67l-13.48,3.32
	c-0.19-1.29-0.92-2.03-2.59-1.85c-7.57,2.03-14.21,3.33-19.57,3.7h-0.37c-3.32,0.37,1.67-0.92-0.92-2.03l-4.06,2.4
	c-5.91,0.56-2.77-0.37-23.08-0.19c-35.63,4.43-31.76,4.99-35.63,5.17l-13.3-0.92c0.19,1.29-0.55,2.22-2.03,2.22
	c-15.14-2.03-22.9-4.43-23.08-7.2c2.03-14.4,5.54-21.79,10.53-22.16l2.58-0.18l-2.22,4.8l2.59-0.19c4.8-2.58,7.02-4.99,6.83-7.2
	l-0.37-4.99l-4.8,0.37l-0.37-4.61c-0.37-3.51,0.19-6.65,1.48-9.23l10.89-17.54l0.37,4.61l5.17-0.37l-0.37-4.61l-2.95-4.25
	c3.88-3.32,6.83-5.17,9.23-5.35l-0.18-2.4l-7.02,0.56l-0.56-7.02c14.03-29.17,20.68-46.16,20.31-50.96l4.99,2.03
	c3.14-0.19,4.61-2.03,4.43-5.36l-4.8,0.37l-0.19-2.03c-0.34-3.37,0.3-6.77,1.85-9.79c7.57-7.94,11.08-15.88,10.34-24.19
	c1.48-0.19,2.22,0.56,2.4,2.22c6.46-3.69,11.45-13.48,15.14-29.73c11.45-20.68,27.7-62.04,48.93-123.89
	c40.62-109.31,38.96-120.94,44.68-146.79l-4.8,0.37c0.37,3.33-0.37,6.46-1.85,9.42c-3.33-1.29-5.91-2.03-7.75-1.85l-0.19-2.03
	c-0.74-9.42,3.14-20.68,12-33.97l2.21-0.19l4.06,15.88l4.8-0.37c-0.18-1.11,1.11-7.39,3.7-19.02c-0.19-2.4-2.03-3.88-5.73-4.06
	l-4.61,2.95c-0.37-3.33-0.19-12,0.37-25.85l-2.4,0.19c-4.06-4.06-6.09-7.39-6.28-10.16l-26.4,2.58c-0.19-1.85-1.11-4.61-2.95-8.12
	c-0.19-2.4,5.72-4.8,17.91-7.2l5.36,2.03l4.99-2.95c0.18,1.66,1.1,2.4,2.95,2.22l4.99-2.95c0.19,1.66,1.11,2.4,2.96,2.21l2.4-0.18
	l-0.37-5.36c-3.69,0.37-13.48,0.37-28.98-0.19l-4.99,3.33l-0.19-2.95c-123.89,10.15-194.24,15.88-211.04,17.54
	c-2.22,0.19-10.89,0-26.22-0.37c0.19,2.03-1.66,3.14-5.35,3.51l-5.36-2.4l-18.1,4.62c-4.25,0.37-11.45,0.18-21.42-0.92
	c-2.77,2.21-6.09,3.51-10.16,3.88c-2.22,0.18,26.4-1.48,52.99-3.33c-2.77,2.22-7.01,3.51-12.92,4.06
	c-4.06,0.37-7.57-0.19-10.53-1.85c-4.06,1.85-17.17,4.8-39.14,9.23l-5.36-2.03l-86.41,13.29c-3.33-1.66-7.2-2.22-11.63-1.85
	c-4.62,0.37-12.37,2.03-23.08,4.99l-41.73,17.35l3.14,5.17c2.03-0.19,4.99-1.29,8.49-3.32l14.78,1.29l-1.85,13.85
	c-13.66,6.09-21.6,15.14-23.82,26.59c-20.49,9.04-30.65,15.51-30.65,19.38l0.19,2.4l3.14-0.19l5.54-2.95l6.46,7.75l0.92,10.71
	c0.37,3.33-34.16,75.89-103.21,217.69c-59.82,136.63-91.21,211.41-94.17,224.89c-20.49,5.72-32.31,14.03-35.82,25.11
	c0.37,3.51,6.46,5.91,18.28,6.83l0.56,5.35l-5.36,8.86l0.92,10.71c0.56,5.54,15.51,9.79,44.87,12.74c-0.19-1.85,0.74-2.95,2.77-3.14
	c0.56,6.65-1.29,19.57-5.54,38.77l3.14-0.19c12.18-16.62,17.91-28.07,17.35-34.34l2.59-0.19c2.95-0.19,6.09,3.14,9.79,10.34
	c-3.69,1.48-16.62,30.83-38.77,88.26l3.14,5.17l3.14-0.18c27.14-68.69,44.13-106.72,51.14-113.93c35.63-3.14,97.3-9.41,184.82-18.83
	l5.54-3.32c0.19,1.85,1.29,2.77,3.33,2.58l5.72-0.55l5.54-3.33c0.18,1.85,1.29,2.77,3.32,2.58l66.28-5.72
	c17.54-1.47,25.85-6.83,25.11-15.88c-0.19-2.4,10.16-5.17,31.02-8.12c2.03-0.19,4.99,0.37,9.05,1.67
	c-0.19-1.67,10.34-3.33,31.39-5.17c0.56-11.08,4.06-16.99,10.34-17.54l-0.56-5.36c-5.91,0.55-12.55,2.03-20.31,4.61
	c-13.85-0.74-22.71-1.85-26.41-3.14c-3.69,2.03-6.46,3.14-8.49,3.33l-46.16,1.48l-5.54,2.95c-0.19-1.67-1.29-2.4-3.33-2.22
	l-2.58,0.19l-5.91,2.95c-0.19-1.67-4.99-2.95-14.59-4.25l-5.9,3.51l-11.45,0.92l-0.19-2.95c59.45-6.46,88.81-14.58,88.07-24.18
	c3.88-0.37,5.91,1.47,6.28,5.36l17.36-4.43l-0.56-5.36l-142.35,3.88c0.18,1.85-0.74,2.95-2.77,3.14l-17.36-1.47
	c-4.43,0.37-8.12,1.66-11.08,3.88l-6.46-2.4c-17.91,1.48-31.21,3.7-40.07,6.46c-12.19-0.92-25.66-0.74-40.62,0.55l-31.94,2.77
	l-14.77-1.66c-0.74-9.41,17.54-55.76,55.21-138.85c10.9-28.07,20.86-45.61,30.47-52.25c2.03-0.19,4.99,0.55,9.05,2.21l22.71-7.75
	l11.63,1.85c19.57-1.66,42.28-7.2,68.32-16.8c6.46-0.55,11.26-0.18,14.77,1.29l17.36-4.06l51.7-4.43
	c21.97-1.85,45.79-6.65,71.64-14.59l-0.55-5.35c-9.6,0.92-14.58-0.74-14.96-4.62c-0.55-7.2-7.57-10.15-21.05-9.05l-0.55-5.35
	l14.22-4.06l37.29-3.14l-0.56-5.35c-1.47,0.18-9.04,0-23.08-0.56l-0.56-5.72l14.4-1.29c3.88-0.37,5.54-2.22,5.17-5.91
	c-19.39,0.56-29.17-0.37-29.36-2.95c-135.16,6.65-202.92,7.94-203.29,3.69c-2.03,0.19-4.8,1.48-8.49,3.7l-3.51-5.54
	c35.82-76.07,56.87-114.47,62.96-115.03c0.18,2.95-1.29,7.75-4.62,14.22l0.19,2.4l5.72-0.55c14.22-33.97,26.22-51.51,36.19-52.25
	c42.47-3.7-5.91-6.46,84.93-20.68c3.7,1.66,6.28,2.4,8.12,2.21c35.63-7.2,85.3-14.77,149-22.52l-0.37-5.36l-33.97,3.14l-0.37-5.35
	c4.06-0.37,7.38-1.67,10.16-3.88l0.18,2.95c1.85-0.19,4.43-1.48,7.76-3.7c5.91-0.55,10.34,0,13.48,1.67
	c11.82-3.14,21.42-4.99,28.43-5.73l21.24-2.03c5.17-3.32,7.57-6.27,7.39-9.04l-0.19-2.4c-5.36,0.55-11.45,0.19-18.65-1.11
	c-0.19-2.95,1.29-4.99,4.8-5.91l39.51-3.69l18.1-4.62c0.18,2.03,1.11,2.77,2.58,2.77c1.85-0.19,4.43-1.48,7.75-3.7
	c0.92,0.19,2.03,0.19,2.95,0.37c-2.4,4.99-5.17,12.19-7.94,21.6l-5.17,0.37c-0.37-3.51-1.29-6.65-2.95-9.42l-2.58,0.19
	c-48.01,133.68-69.42,195.9-113.74,298.56c-8.12,26.22-14.96,40.81-20.86,43.95c0.19,2.95,2.03,4.43,5.17,4.06
	c1.1,12.92-1.85,25.66-9.05,38.22c-20.5,59.09-34.16,91.4-41.18,97.3l4.61,27.88c0.19,2.95-1.29,4.61-4.43,4.99l-4.8,0.37
	c-0.74-7.76-3.51-11.45-8.5-10.89l-2.58,0.19c-6.28,9.79-11.08,21.04-14.22,34.16l4.8-0.37c6.46-4.24,9.42-9.23,8.86-14.96l9.6-0.92
	l5.54,2.03c-4.43,7.02-6.46,12.56-6.09,16.8l2.59,4.43l-6.28,14.77l0.19,2.4c5.54-0.56,11.63,1.29,18.1,5.17
	c4.43-0.37,9.23-2.4,14.58-5.91c5.54-0.55,26.22-0.74,61.86-0.74l17.91-6.09c21.79-0.19,25.3,0.37,44.13-1.29l7.75-0.74l4.06-2.77
	l0.19,2.4c19.76-1.67,21.05-0.37,36.56,1.47l0.19,2.4l-10.89,0.92l0.37,4.61c3.33-0.37,6.28-1.29,8.68-3.32
	c2.77-0.19,4.43,1.29,4.61,4.61c-4.43,0.37-9.41,1.47-14.96,3.33l-4.8-1.67c-7.57,2.03-5.91,2.59-11.08,2.95l-7.57-1.47
	c0.19,1.29-0.56,2.21-1.85,2.21c0.18,2.96,1.85,4.43,4.61,4.25l7.75-0.74l40.43-3.51l15.33-3.32c0.19,1.29,0.74,2.03,2.03,1.85
	l7.38-2.77l13.85-1.11c10.71-0.92,10.52-1.66,33.78-5.36c-0.18-1.47,0.37-2.03,1.48-2.21l0.19,2.03
	c37.85-6.46,40.25-6.83,46.34-8.86l0.55,1.11c9.42-2.21,4.06-1.66,6.65-3.51c0.19,1.66,0.74,2.4,1.66,2.4l6.65-0.55l-0.37-4.99
	l-13.48-0.19l-0.18-0.37c-0.56,0.18-0.93,0.18-1.48,0.37h-1.85v0.37c-9.05,1.85-9.23,0.55-15.14,1.11l-33.79,1.85l-0.19-2.4
	l18.83-2.58l6.83-0.56l3.88-2.77l0.18,2.4c26.59-2.22,36.01,4.43,158.97-21.79c6.65-0.56,6.09-6.09,10.34-17.54
	c-2.25,0.15-4.5-0.36-6.46-1.47c-10.15,3.88-15.51,2.03-35.08,5.17c-1.67,0.19-2.95-1.29-3.51-4.25l-0.19-2.03l18.83,0.55
	c3.51-0.37,10.34-0.92,20.5-6.65C2631.87,633.69,2628.18,634.61,2630.39,634.43L2630.39,634.43z M1721.24,649.01l-8.68,0.74
	c-0.37-3.51,4.25-16.8,13.85-39.51l5.73-0.55C1732.32,615.04,1728.81,628.15,1721.24,649.01z M1731.76,606.92l-0.19-2.4
	c-0.19-2.95,1.67-4.99,5.73-5.91l0.18,2.4C1737.67,604.51,1735.82,606.55,1731.76,606.92z M1847.16,696.1l0.19,2.4l-14.4,1.29
	l-0.19-2.4L1847.16,696.1L1847.16,696.1z M1829.8,694.62c0.19,2.95-4.24,6.28-13.85,9.6l-17.72-1.29l-5.72,0.55l-0.55-5.35
	L1829.8,694.62L1829.8,694.62z M1946.5,157.51l-8.68,0.74l-0.18-2.95c-0.19-2.95,1.47-4.99,5.17-5.91l3.14-0.19l5.91,2.4
	C1952.03,155.1,1950.37,157.14,1946.5,157.51z M2078.51,131.66l2.77-0.19l0.37,5.35l-7.94,0.74
	C2073.53,134.61,2075,132.58,2078.51,131.66z M2045.28,143.29l-13.11-1.48l-0.19-2.4c17.17-1.48,22.9-3.33,33.42-6.28
	c0.19,2.03,2.03,2.77,5.35,2.4l0.37,5.35l-5.17,0.56c-4.06,0.37-7.57-0.19-10.52-1.85C2052.29,141.63,2048.97,142.92,2045.28,143.29
	L2045.28,143.29z M2061.71,191.11l-0.19-2.4l21.23-2.03l0.19,2.4L2061.71,191.11z M2084.42,172.64l-0.19-2.95l10.34-0.92l0.19,2.95
	L2084.42,172.64z M2086.82,136.46l-2.77,0.19l2.4-5.73l23.63-2.21l0.19,2.95C2104.18,132.21,2096.24,133.87,2086.82,136.46z
	 M2098.82,187.41l-0.37-5.35l10.34-0.92c3.51-0.37,5.36,1.29,5.54,4.99L2098.82,187.41L2098.82,187.41z M2161.41,102.11l-13.3,3.7
	l-2.4,0.18c-6.28,0.56-14.4,0.37-24-0.55C2138.89,104.33,2155.32,103.03,2161.41,102.11L2161.41,102.11z M2147.19,161.2l0.19,2.4
	l-18.28,1.67l-0.19-2.4C2128.92,162.86,2147.19,161.2,2147.19,161.2z M2177.11,175.41c-0.19-2.21-3.69-3.69-10.89-4.43l-18.28,5.17
	l-14.03,0.55c-3.14-2.22-4.8-3.69-4.99-4.8l16.25,0.92l36.56-5.91l18.65,0.74l0.19,2.95
	C2191.33,171.54,2183.57,173.2,2177.11,175.41z M2365.26,126.85c2.21,0.19,3.69,0.19,4.24,0.19c6.46-6.27,13.67-11.26,21.97-14.77
	c-6.65,29.17-16.99,50.78-31.2,64.81l-10.34-6.28C2358.61,148.83,2363.78,134.24,2365.26,126.85L2365.26,126.85z M2333.5,181.33
	l2.58-0.19c-3.51,6.65-6.65,10.15-9.23,10.34l-0.55-7.02C2327.96,184.46,2330.36,183.35,2333.5,181.33z M2313,230.25
	c4.99-19.94,9.79-31.2,14.22-34.16l0.19,2.4c-2.59,18.47-6.65,28.25-12,28.99l0.92,11.63c-4.43,6.28-6.46,11.08-6.28,14.77
	l-2.58,0.19l-1.48-16.06C2308.94,237.64,2311.34,235.05,2313,230.25L2313,230.25z M2305.06,256.84c0.19,2.77-1.66,9.23-5.35,19.2
	l-2.59,0.19l-0.55-7.02C2300.08,261.09,2303.03,257.02,2305.06,256.84L2305.06,256.84z M2156.06,689.26l-0.19-2.03l4.8-0.37
	l0.55,7.02C2158.65,694.06,2156.8,692.59,2156.06,689.26z M2368.95,694.8c-0.19-1.66-0.92-2.4-2.58-2.22l-12,1.11l-0.19-2.4h1.11
	l28.43-2.4l0.19,2.4C2375.59,691.66,2370.61,692.96,2368.95,694.8z M2354.73,688.89c1.11,0.55,0.56,1.11,0,1.47
	C2354.18,690.19,2353.44,689.63,2354.73,688.89z M2356.21,655.66l-15.88,1.29l-0.19-2.4l14.4-1.29l12.56-3.14
	c0.19,1.47,0.92,2.03,2.58,1.85c14.96-2.58,13.48-3.32,20.68-3.88c2.4-0.19,3.88,1.29,4.06,4.25L2356.21,655.66L2356.21,655.66z
	 M2411.78,650.86c-8.86-0.92-9.42-1.66-15.69-1.11l-0.19-2.03l14.21-1.29l0.19,2.03C2408.83,648.64,2414.18,649.01,2411.78,650.86
	L2411.78,650.86z M2412.89,648.27l-0.19-2.03l7.75-0.74l0.19,2.03L2412.89,648.27z M2430.06,646.79l-0.18-2.03
	c1.29-0.18,3.13-1.1,5.54-2.95c3.88-0.37,5.91,2.22,6.28,5.17L2430.06,646.79L2430.06,646.79z M2452.03,644.03l-0.19-2.4l9.42-0.74
	l0.19,2.4L2452.03,644.03z M2465.14,642.92c-0.19-2.77,0.92-4.43,3.33-4.8l3.13,4.06c-0.18-1.29,0.37-2.03,1.48-2.22l2.4,4.43
	L2465.14,642.92L2465.14,642.92z M2325.74,703.11l-0.37-4.62l-1.48,0.19l0.37,4.61L2325.74,703.11z M2650.15,619.1
	c1.47-0.92,2.21-1.85-1.29-2.4c-1.67,1.85,1.85,2.4-1.85,2.58l0.18,1.66c0.37-0.37,1.29-0.92,2.03-1.47l-2.03,1.66v0.19l-3.88,4.99
	l7.75-2.77h0.93l-0.37-4.62L2650.15,619.1z M2663.63,629.63l-1.48,0.19l0.37,4.61l10.89-0.92
	C2673.23,630.55,2666.03,629.63,2663.63,629.63L2663.63,629.63z M2646.83,621.5l0.19-0.19v-0.19
	C2647.01,621.13,2646.83,621.32,2646.83,621.5L2646.83,621.5z"/>
<path class="st0" d="M1938,279.73l0.19,2.95l6.09-0.55c-0.19-1.85,0.55-4.8,1.85-8.5l-0.55-5.35
	C1942.99,268.47,1940.4,272.35,1938,279.73L1938,279.73z M1879.66,139.41l-0.55-5.36l-8.68,0.74l0.56,5.36L1879.66,139.41z
	 M1710.34,456.43c-0.37-4.99-15.88-24.37-46.53-58.53c-0.56-6.27,9.97-15.69,31.57-28.06l61.67-53.73
	c13.85-17.54,21.97-45.98,24.37-85.49l-0.74-9.05c-2.4-27.33-22.16-49.3-59.64-66.1c-22.16-14.96-62.04-23.27-119.64-24.75
	c-47.64,4.06-109.86,21.05-186.48,51.15c-21.05,15.14-45.05,30.28-72.01,45.42l0.37,4.62c1.66-0.19,4.24-1.11,7.2-3.14
	c3.13-0.37,4.99,1.11,5.17,4.06l4.62-2.4l2.21-0.19l0.19,2.03c0.19,2.4-16.43,15.51-50.03,38.96l2.58,4.8l-2.22,0.19l-5.54-2.03
	c0.19,1.66-2.22,2.77-6.83,3.14l0.19,2.03l5.35,6.65c-1.66,0.19-4.24-0.55-7.75-1.85c-7.75,0.74-15.33,4.8-22.9,12.55l3.14-13.66
	c11.26-48.56,19.02-91.58,23.08-128.88l-0.56-2.4c-7.75-4.99-15.32-12-22.34-20.86c0.19-5.72,0.19-9.05,0-9.79l-0.56-2.03
	l-2.21,0.56c-24.38,36.56-71.27,98.96-140.88,187.22c-52.99,62.78-80.32,97.67-81.98,104.69c-21.6,22.34-31.94,35.82-30.84,40.44
	c-5.72,3.69-8.12,7.38-7.2,11.45c-1.67,0.37-2.77-0.19-3.14-1.85c-9.23,14.96-22.9,24.56-41.18,28.8l-19.2,4.43
	c-2.58,0.56-3.88,2.4-3.69,5.54l0.56,2.4l7.2-1.66l0.56,2.03l-16.25,6.28l-28.8,6.65l-15.14,0.92c-2.22,2.22,12-0.19,6.46,1.11
	l-18.83,4.43c-11.45,2.58-17.72,1.66-18.83-2.95l-2.22,0.55c0.37,2.03,0.56,3.51,0.19,4.8l-1.11-4.61l-15.14,3.51
	c-1.1-7.02-21.6-32.5-61.3-76.44c-0.74-8.49,13.3-20.86,41.91-36.92l80.87-71.09c18.1-23.26,28.8-60.56,32.31-111.89l-1.11-12
	c-3.14-36.19-29.36-65.36-78.66-87.89c-29.17-19.76-81.61-30.28-157.31-31.94c-62.78,5.35-144.76,27.7-245.57,66.66
	c-27.7,20.12-59.27,40.06-94.72,59.82l0.55,6.28c2.4-0.19,5.54-1.47,9.42-3.69c4.06-0.37,6.28,1.47,6.65,5.17l6.28-3.51l3.14-0.19
	l0.18,2.95c0.19,2.95-21.79,20.13-66.28,51.51l3.51,5.54l-3.14,0.19l-6.83-2.4c0.19,1.85-2.95,3.14-9.42,3.69l0.37,3.33l7.38,8.12
	c-2.4,0.19-5.72-0.56-9.97-2.03c-14.4,1.29-28.44,11.63-42.29,31.2l3.51,5.54c12-11.08,19.01-16.62,21.04-16.8l0.74,9.05
	c-2.03,0.18-5.17,1.47-9.42,3.69l7.57,11.45c14.3-15.45,30.49-29.04,48.19-40.43c8.68,2.22,13.3,4.99,13.48,7.94l6.65-0.55
	c47.64-35.27,94.72-60.75,141.43-76.44l0.56,6.27c-8.68,12.92-14.59,19.58-17.73,19.94c0.37,4.43,1.85,8.31,4.62,11.64
	c0.74,7.94-20.5,61.48-63.52,160.45c-97.68,230.06-179.65,400.29-246.31,510.34c0.19,2.22,1.48,5.17,3.88,8.86
	c16.44-3.88,26.77-7.93,31.21-11.82l3.51-0.37l0.56,6.27l6.09-0.55l6.28-3.51c0.19,1.85,2.22,2.77,6.46,2.4l0.55,6.28
	c0.55,6.09-2.95,15.32-10.34,28.06c-6.65,7.57-13.85,23.45-21.42,47.64l0.19,2.95l6.09-0.55c26.59-29.73,46.71-58.9,60.56-87.33
	c77.55-22.71,136.63-45.05,177.62-67.02c41.17-3.51,72.56-14.4,93.98-32.31l-0.37-3.32l-15.51,4.61l-3.51,0.37l-0.37-3.33
	c30.28-4.61,51.14-11.26,62.78-20.49c58.9-45.42,103.39-77.55,133.49-96.57c61.86-45.42,102.1-89.74,120.39-132.75
	c3.32-0.74,6.65-1.48,10.34-2.4c8.68-0.37,13.48-0.55,14.77-0.92c-0.37-1.66,0.37-2.58,2.03-2.95c13.85-1.47,7.2,0.92,16.06-1.11
	l23.27-5.35l3.88-0.93l-1.85,1.11c2.58,0.37,5.35,0.19,8.49-0.55l1.66,6.83l-105.8,168.2l-23.45,29.36l-11.45,38.4l2.22-0.55
	l11.45-4.8l-3.69,14.96l1.11,4.43l3.14,3.88c-1.48,0.37-2.03,1.29-1.67,2.95l0.56,2.4l4.8-1.11c7.02-6.09,9.97-11.63,8.86-16.62
	c7.57,1.29,12.55,1.85,15.14,1.11l0.55,2.4c-4.61,1.11-7.02,4.8-7.38,11.08l0.55,2.4l2.59-0.55
	c38.4-41.91,132.57-185.38,208.09-282.68c-2.4-10.52,36.93-25.11,118.17-43.95l2.58-0.55c2.95,12.74-3.32,43.57-18.83,92.5
	c-9.97,29.54-14.77,45.79-14.03,48.37c-12.92,39.33-19.02,60.56-18.28,63.88l-28.8,94.35c-18.65,48.38-32.87,99.15-42.84,152.7
	c1.66-0.37,4.25-0.18,7.94,0.74l4.06-3.51c0.37,1.67,1.47,2.22,3.14,1.85l-1.67-6.83l12.56-0.37c3.69-0.92,6.83-5.54,9.41-14.03
	c-0.55-12.74,2.03-19.57,7.75-21.05c7.75-30.28,12.56-45.42,14.22-45.98c7.2-30.09,12.55-47.27,16.06-51.51
	c10.89-39.14,18.83-59.27,24-60.56l1.11,4.8l-7.94,20.5c-13.85,61.48-27.88,110.04-42.1,145.68l4.06,17.72l2.58-0.55
	c34.35-73.86,83.83-220.09,148.27-438.7c1.85-19.2,11.08-34.16,27.51-44.68l-3.69-3.88l-0.56-2.03c7.39-1.67,12.56-4.61,15.51-8.68
	c-0.37-1.67-6.83-4.06-19.39-7.39l32.13-137.74c7.02-6.28,11.08-9.6,12.37-9.6l0.56,7.01c-1.66,0.19-4.25,1.11-7.2,3.14l6.09,8.68
	c11.08-12,23.08-22.34,36.19-31.02c6.65,1.85,9.97,4.06,10.34,6.27l4.8-0.37c36.56-26.77,72.38-45.98,107.65-57.61l0.37,4.61
	c-6.46,9.79-10.89,14.77-13.29,14.96c0.37,3.33,1.29,6.28,2.95,8.86c0.55,6.09-15.33,46.71-47.82,122.05
	c-74.22,174.48-136.45,303.54-187.04,387.37c0.19,1.66,1.29,3.88,3.33,6.83c12.37-2.95,20.31-6.09,23.45-9.05l2.21-0.19l0.37,4.61
	l5.17-0.37l4.61-2.4c0.19,1.29,1.85,1.85,4.99,1.67l0.37,4.99c0.37,4.43-2.22,11.45-7.94,21.04c-5.36,5.73-10.89,17.73-16.8,36.01
	l0.18,2.4l4.8-0.37c20.12-22.52,35.45-44.68,45.97-66.47c58.9-17.35,103.77-34.16,134.79-50.78c31.58-2.77,55.39-10.89,71.64-24.56
	l-0.19-2.4l-12,3.51l-2.58,0.19l-0.19-2.4c22.9-3.33,38.96-8.49,47.64-15.32c44.68-34.35,78.47-58.9,101.37-73.31
	C1681.17,554.11,1714.41,504.25,1710.34,456.43L1710.34,456.43z M1698.16,459.57l1.66,18.65c-2.21,4.62-4.61,7.02-6.83,7.2
	l-2.77-31.76C1695.39,455.51,1697.97,457.36,1698.16,459.57L1698.16,459.57z M300.08,309.28l-3.13,0.18l-0.56-5.72l12.74-1.11
	l0.19,2.95C307.28,305.77,304.14,306.88,300.08,309.28L300.08,309.28z M237.85,931.69c-7.38-3.33-14.03-4.61-19.76-4.06l-0.74-9.05
	c-0.37-3.51,1.66-5.91,6.09-6.83c4.06-0.37,6.46,2.59,6.83,8.5c10.71-13.11,16.62-19.76,17.72-19.94l6.83,2.77
	C252.62,921.54,246.9,930.95,237.85,931.69z M902.74,236.16c-3.14,0.37-9.42-9.41-18.46-28.8l-0.56-5.72
	c5.91-0.55,12,9.05,18.46,28.8L902.74,236.16z M893.87,167.29l-2.59,6.09L801,135.72C861.19,137.75,892.21,148.27,893.87,167.29z
	 M512.6,494.66l-12.74,1.11l-0.55-5.73l12.74-1.11L512.6,494.66z M502.25,298.01l3.14-0.19l0.74,9.05
	c-2.95,0.19-6.83,4.61-11.64,13.11l-0.55-6.28C499.67,306.88,502.62,301.71,502.25,298.01L502.25,298.01z M475.48,361.16l1.11,12
	l-3.13,0.19l-1.11-12L475.48,361.16z M461.45,383.69l6.09-0.56c-0.56,9.97-3.33,15.33-8.31,15.69l-3.14,0.19
	C459.97,392.37,461.82,387.19,461.45,383.69z M450.93,415.08l3.51-0.37l0.18,2.95l-5.72,9.6l-6.09,0.55l-0.18-2.95
	C448.71,424.31,451.48,421.17,450.93,415.08L450.93,415.08z M440.59,443.33l-1.85,15.14l-3.14,0.19l-1.29-14.96L440.59,443.33z
	 M337,737.82c-4.06,20.68-8.49,31.2-13.11,31.57l-0.18-2.95C322.61,756.29,327.03,746.69,337,737.82L337,737.82z M317.99,779
	l0.19,2.95c0.37,4.06-1.47,6.46-5.54,6.65l-0.19-2.95C312.08,782.14,313.92,779.92,317.99,779z M312.45,864.48l9.6-0.92l0.37,3.33
	c-2.4,0.18-5.54,1.47-9.42,3.69l-6.09,0.55C306.54,867.99,308.57,865.59,312.45,864.48L312.45,864.48z M585.71,780.1
	c-53.91,26.59-85.67,44.68-95.09,54.1c-58.34,20.31-87.33,32.87-86.78,37.85c-51.88,20.5-86.04,35.63-102.48,45.05
	c-3.88,0.37-9.41-1.11-16.8-4.43c-0.92-10.52,3.88-19.02,14.03-25.85c9.05-0.74,17.72,0.56,26.04,4.06
	c9.6-4.99,26.4-10.52,50.22-16.43l-0.55-6.28l-19.2,1.66c2.4-3.32,20.86-12,55.58-26.03l9.6-0.92l0.19,2.95
	c-16.43,1.47-25.48,6.27-27.51,14.96c0.37,3.88,2.58,5.54,6.65,5.17c12.37-7.75,18.46-12.37,18.28-13.66
	c23.45-4.43,88.26-38.4,194.42-101.73l0.55,5.72C613.04,759.05,603.99,766.81,585.71,780.1z M422.86,833.65
	c15.51-1.29,28.8-7.57,39.88-18.46c4.43-0.37,6.84,1.29,7.02,5.17c-7.57,0.74-22.15,7.02-43.39,19.2l-3.14,0.19L422.86,833.65
	L422.86,833.65z M685.6,631.84l-81.43,64.62c-60.56,39.7-93.06,59.64-97.86,60.01c-96.38,52.99-156.39,80.5-179.65,82.53l-3.51,0.37
	c2.95-10.89,45.79-98.59,128.88-263.66c36.56-3.14,94.17-20.13,172.64-51.14l19.2-1.67c39.7-3.51,69.42,4.25,88.99,22.71l1.11,12
	C719.39,599.9,703.14,624.64,685.6,631.84L685.6,631.84z M526.44,542.29l13.11-1.11l0.19,2.95l-13.11,1.11L526.44,542.29z
	 M710.53,511.09l9.6-0.92c8.86,4.25,13.48,7.94,13.85,11.26l0.19,2.95C725.67,525.12,717.73,520.69,710.53,511.09z M736.56,362.82
	c-8.49,10.15-31.76,27.51-69.79,51.88c-12.56,1.11-59.27,19.2-140.14,54.65c-4.04-1.85-8.5-2.61-12.92-2.22l-0.55-5.72
	c-0.92-11.63,4.24-26.22,15.69-43.94c6.27-33.24,13.11-52.26,20.68-56.87l67.39-151.59c-0.74-9.42,13.66-16.62,43.2-21.61l9.6-0.92
	l0.74,8.68c28.99-4.43,47.08-7.02,54.1-7.57c53.55-4.61,81.43,6.28,83.64,32.31l6.09-0.56L813,204.04l6.65-0.56
	c15.69,8.68,24.18,19.2,25.29,31.57c0.74,8.5-3.88,19.02-13.66,31.58c-4.06,0.37-6.46-2.59-6.83-8.5l-6.65,0.56l-1.47,18.46
	c-27.14,40.62-46.9,61.48-59.08,62.59C746.16,355.07,739.33,362.64,736.56,362.82L736.56,362.82z M777.92,468.99
	c-5.54-3.7-9.97-5.36-13.3-5.17l-0.74-9.05l6.09-0.56l13.48,7.94C784.02,466.4,782.17,468.62,777.92,468.99L777.92,468.99z
	 M820.76,519.76c5.91,2.4,9.41,4.99,10.15,7.39l-2.95,0.74l0.19,0.19c-0.55,0-1.29,0.19-1.85,0.37l-4.43,3.51L820.76,519.76
	L820.76,519.76z M824.82,545.25l-0.55-2.4l7.75-1.85l0.56,2.4L824.82,545.25L824.82,545.25z M843.47,566.11
	c7.94-1.29,11.82-1.85,26.59-5.17l0.55,2.4l-28.06,6.46C842.91,568.51,843.28,567.22,843.47,566.11L843.47,566.11z M870.79,577.74
	c-11.82,1.11-9.23-0.37-28.07,3.88l-0.55-2.4l23.63-7.57l11.26-2.58l1.11,4.43C873.01,574.6,876.7,574.6,870.79,577.74z
	 M895.72,571.83c-2.77,0.74-4.99-0.55-6.28-3.69l7.2-1.67c3.14-0.74,5.17,0.56,5.91,3.7L895.72,571.83L895.72,571.83z M963.3,499.08
	l-0.56-2.4l11.64-2.77l1.11,4.43L963.3,499.08z M1035.49,941.85c0.74-3.33,0.92-5.72,0.55-7.39l2.59-0.55
	c3.14-0.74,4.99,0.37,5.72,3.33l0.56,2.4L1035.49,941.85L1035.49,941.85z M1086.08,518.1l-5.17-0.92
	c-8.31,3.33-15.32,5.72-21.05,7.02l-4.8,1.11c-2.77,0.74-4.99-0.37-6.09-3.33l33.79-7.75l11.08-5.17l3.7,4.25
	C1092.18,514.41,1088.3,516.07,1086.08,518.1L1086.08,518.1z M1112.12,509.79l-0.56-2.4c1.67-0.37,3.88-1.66,6.28-4.06l24-5.54
	l0.55,2.4C1129.66,503.33,1119.5,506.47,1112.12,509.79z M1115.81,461.23c-1.66,0.37-3.88,1.85-6.65,4.06
	c-0.37-1.66-3.69-1.66-9.97-0.19c-1.11-4.61,16.62-11.07,53.36-19.57l5.17-1.11l1.11,4.43
	C1132.98,456.43,1118.58,460.68,1115.81,461.23L1115.81,461.23z M1180.43,391.44c-2.58,29.36-12.92,45.97-31.21,50.22l-0.55-2.4
	l-16.25,6.27l-7.2,1.67c-3.7,0.92-7.02,0.74-9.97-0.19l-1.48-6.46c-0.55-2.4,22.9-34.9,70.53-97.3l5.54,0.92
	C1191.88,352.67,1188.74,368.36,1180.43,391.44L1180.43,391.44z M1294.72,293.58l-2.22,0.19l-0.37-4.61l9.6-0.92l0.18,2.4
	C1300.26,291,1297.86,291.92,1294.72,293.58z M1247.64,766.44c-5.54-2.59-10.52-3.7-14.77-3.33l-0.55-7.02
	c-0.19-2.4,1.29-4.06,4.43-4.99c3.14-0.37,4.99,1.85,5.36,6.65c7.94-10.15,12.37-15.32,13.29-15.32l4.99,2.03
	C1258.53,758.5,1254.29,765.89,1247.64,766.44z M1752.44,238.38c-2.4,0.19-7.02-7.2-14.21-22.16l-0.37-4.61
	c4.61-0.37,9.42,6.83,14.22,21.6L1752.44,238.38L1752.44,238.38z M1745.79,185.57l-2.22,4.8l-68.32-28.62
	C1720.87,163.23,1744.5,171.17,1745.79,185.57z M1456.1,434.28l-9.6,0.92l-0.37-4.62l9.6-0.92L1456.1,434.28z M1448.16,284.9
	l2.58-0.19l0.56,7.02c-2.4,0.19-5.36,3.51-8.86,9.97l-0.37-4.61C1446.31,291.74,1448.34,287.67,1448.16,284.9L1448.16,284.9z
	 M1428.03,332.91l0.74,9.05l-2.59,0.19l-0.74-9.05L1428.03,332.91z M1417.14,350.08l4.8-0.37c-0.55,7.75-2.58,11.82-6.09,12.18
	l-2.59,0.19C1416.03,356.92,1417.32,352.85,1417.14,350.08L1417.14,350.08z M1409.38,373.72l2.22-0.19l0.19,2.4l-4.25,7.39
	l-4.8,0.37l-0.19-2.4C1407.54,380.92,1409.75,378.33,1409.38,373.72L1409.38,373.72z M1401.63,395.13l-1.66,11.82l-2.22,0.19
	l-0.92-11.63L1401.63,395.13L1401.63,395.13z M1322.79,619.1c-3.13,15.51-6.46,23.45-9.97,23.82l-0.18-2.03
	C1312.08,633.13,1315.4,625.74,1322.79,619.1L1322.79,619.1z M1308.2,650.3l0.19,2.03c0.37,3.32-1.11,5.17-4.43,5.35l-0.18-2.4
	C1303.59,652.89,1305.06,651.23,1308.2,650.3L1308.2,650.3z M1304.14,715.3l7.39-0.55l0.18,2.4c-1.66,0.19-4.24,1.11-7.2,2.77
	l-4.8,0.37C1299.52,717.7,1301,716.04,1304.14,715.3L1304.14,715.3z M1511.49,651.23c-40.62,20.13-64.81,33.79-72.38,40.81
	c-44.31,15.51-66.28,25.11-65.91,28.98c-39.33,15.7-65.18,26.96-77.36,34.16c-2.95,0.19-7.2-0.92-12.74-3.51
	c-0.74-7.94,2.95-14.4,10.71-19.2c7.02-0.55,13.66,0.37,19.76,2.95c7.38-3.69,20.12-7.75,38.22-12.37l-0.37-4.61l-14.96,1.29
	c1.85-2.59,16.06-9.23,42.47-19.94l7.38-0.56l0.19,2.03c-12.55,1.11-19.57,4.8-21.05,11.45c0.19,2.95,2.03,4.43,5.17,4.06
	c9.23-6.09,13.66-9.6,13.66-10.71c17.73-3.14,66.84-28.99,147.53-77.36l0.37,4.61C1532.17,635.16,1525.33,641.07,1511.49,651.23
	L1511.49,651.23z M1387.78,691.85c12-1.11,22.16-5.72,30.65-13.85c3.14-0.19,4.99,1.11,5.17,4.06c-5.54,0.55-16.44,5.17-32.87,14.03
	l-2.58,0.18L1387.78,691.85L1387.78,691.85z M1587.56,538.42l-61.48,49.48c-45.98,30.09-70.9,45.23-74.78,45.61
	c-73.12,40.25-118.54,61.11-136.45,62.59l-2.58,0.18c2.22-8.31,34.9-74.96,98.04-200.15c27.51-2.4,71.09-15.51,130.91-39.14
	l14.96-1.29c30.1-2.58,52.62,3.33,67.39,17.54l0.74,9.05C1613.04,514.04,1600.85,532.69,1587.56,538.42L1587.56,538.42z
	 M1466.8,470.47l9.6-0.92l0.18,2.4l-9.6,0.92L1466.8,470.47z M1606.57,446.65l7.39-0.55c6.83,3.32,10.34,6.27,10.52,8.68l0.19,2.03
	C1618.21,457.36,1612.12,454.04,1606.57,446.65z M1625.96,334.2c-6.46,7.76-24,21.05-52.62,39.52
	c-9.6,0.92-45.05,14.58-106.35,41.17c-2.95-1.11-6.28-1.47-9.79-1.29l-0.37-4.61c-0.74-8.86,3.14-19.94,11.64-33.42
	c4.8-25.48,10.15-39.7,15.69-43.02l51.51-115.21c-0.56-6.83,10.34-12.37,32.5-16.62l7.39-0.55l0.55,7.01
	c21.79-3.51,35.45-5.54,40.99-6.09c40.62-3.51,61.85,4.61,63.52,24.56l4.8-0.37l-0.92-11.08l4.8-0.37
	c11.82,6.46,18.1,14.21,18.83,23.45c0.55,6.65-2.77,14.77-9.79,24.19c-3.14,0.37-4.99-1.85-5.36-6.65l-4.8,0.37l-1.47,13.85
	c-20.5,31.21-35.45,47.27-44.87,48.01C1633.53,328.29,1628.36,334.02,1625.96,334.2L1625.96,334.2z M1647.57,411.01l-0.55-7.02
	l4.8-0.37l10.34,6.27c0.19,2.95-1.29,4.62-4.43,4.99C1653.29,412.12,1649.97,410.83,1647.57,411.01L1647.57,411.01z M788.07,859.5
	l-4.8,1.11l-4.06,3.51c0.74,2.95,2.59,4.06,5.73,3.33c3.13-0.74,4.43-2.58,3.69-5.54L788.07,859.5L788.07,859.5z M769.8,823.13
	l0.55,2.4c3.14-0.74,4.43-2.58,3.7-5.54l-0.56-2.4C770.53,818.32,769.24,820.17,769.8,823.13L769.8,823.13z M900.52,577.56
	l3.51-2.22c-0.74,0-1.29-0.19-1.85-0.37C900.89,575.34,900.33,576.26,900.52,577.56z M899.78,513.85l5.54-1.29l-1.11-4.8l-5.54,1.29
	L899.78,513.85z M2204.62,700.34l-12.56-1.47l-2.22,4.8l0.19,2.4l74.78-6.28l-0.37-4.61L2204.62,700.34z M2272.94,694.62l0.37,4.61
	h0.74l-0.37-4.61H2272.94z M2586.63,653.63l0.37,4.62l8.12,1.47l-0.37-4.61L2586.63,653.63z M2575.19,654.55
	c-56.13,12.56-63.14,10.34-74.96,11.26l0.37,4.61l5.17-0.37l2.77-0.19l-0.74-0.55l6.09-2.4c55.58-6.09,62.04-3.88,61.48-10.16
	L2575.19,654.55z M2238.23,572.94l-4.99-1.66c-4.06,10.89-6.09,17.35-5.91,19.2l0.18,2.03
	C2231.39,592.33,2234.9,585.68,2238.23,572.94z M2170.65,536.57l-0.19-2.4l-2.58,0.19l-4.62,2.95l2.59,4.43
	C2169.35,541.37,2171.01,539.7,2170.65,536.57L2170.65,536.57z M2317.43,688.34l-0.37-4.61l-1.47,0.19l0.37,4.61L2317.43,688.34
	L2317.43,688.34z M2622.09,619.66l3.51-0.37c2.03-0.19,2.95-1.85,2.77-4.8l-2.03-4.43c-12.74,1.11-18.65,1.67-28.98,7.39l-0.19-2.4
	l-15.33,1.48c-0.37-4.62-1.66-7.02-3.69-6.83l-7.94,0.74c-9.23,0.74-13.66,0.37-18.28,3.88c-0.18-1.66-0.74-2.4-1.66-2.4l-8.86,0.74
	l-5.17,2.95c-0.19-1.67-0.74-2.4-1.66-2.4l-3.14,2.77l-0.19-2.4l-12.37-0.92l-2.95,0.19l0.37,4.61l6.28,1.66l5.91-0.37
	c2.03,1.29,4.25,1.66,6.83,1.47l5.17-2.58l0.19,2.03c-28.99,7.2-28.8,5.91-48.75,9.23c-2.22-1.47-3.88-2.21-4.99-2.03l-0.37,0.37
	c-2.21-0.19-3.51-1.66-3.69-4.06l10.34-1.29c0.74,0,1.29,0.74,7.01,1.85c8.31-4.06,8.68-5.73,13.11-6.09l-0.37-4.62
	c-28.44,5.54-16.99,1.85-52.62,4.99l-1.67,0.19l-0.37-4.61c45.79-5.54,30.46-2.4,46.16-6.83c0.19,1.66,0.74,2.4,1.67,2.4
	c1.68-1.72,3.89-2.82,6.27-3.14l3.14-0.18c16.06-1.29,21.42,1.85,53.18-7.02l0.18,2.03l5.17-2.59l4.8-0.37
	c-0.37-4.62,6.65-5.36,9.05-5.54l-0.37-4.99c-55.76,11.26-70.35,8.12-85.86,12.56l-0.19-2.03c-14.58,2.58-15.14,1.47-18.83,1.66
	c-1.11,0.19-2.77,1.11-4.61,2.95c-0.19-1.66-0.74-2.4-1.85-2.4c-0.56,0-0.74,0.19-0.92,0.19l-47.27,7.75
	c-0.18-1.29-0.74-2.03-1.85-1.85c-24.56,5.17-17.91,6.09-50.78,9.05c-1.47,0.19-3.51,0.92-6.09,2.58c-0.19-1.29-0.93-2.03-2.59-1.85
	l-20.13,1.67l-13.48,3.32c-0.19-1.29-0.92-2.03-2.58-1.85c-7.57,2.03-14.22,3.33-19.58,3.69h-0.37c-3.33,0.37,1.66-0.92-0.92-2.03
	l-4.06,2.4c-5.91,0.56-2.77-0.37-23.08-0.19c-35.63,4.43-31.76,4.99-35.63,5.17l-13.3-0.92c0.19,1.29-0.55,2.22-2.03,2.22
	c-15.14-2.03-22.89-4.43-23.08-7.2c2.03-14.4,5.54-21.79,10.52-22.16l2.59-0.18l-2.22,4.8l2.58-0.19c4.8-2.59,7.02-4.99,6.83-7.2
	l-0.37-4.99l-4.8,0.37l-0.37-4.62c-0.37-3.51,0.19-6.65,1.47-9.23l10.89-17.54l0.37,4.62l5.17-0.37l-0.37-4.61l-2.95-4.25
	c3.88-3.33,6.83-5.17,9.23-5.36l-0.19-2.4l-7.02,0.55l-0.55-7.02c14.03-29.17,20.68-46.16,20.31-50.96l4.99,2.03
	c3.14-0.19,4.61-2.03,4.43-5.36l-4.8,0.37l-0.18-2.03c-0.34-3.37,0.3-6.77,1.85-9.79c7.57-7.94,11.08-15.88,10.34-24.19
	c1.48-0.19,2.22,0.56,2.4,2.22c6.46-3.69,11.45-13.48,15.14-29.73c11.45-20.68,27.7-62.04,48.93-123.89
	c40.62-109.31,38.96-120.94,44.68-146.79l-4.8,0.37c0.37,3.33-0.37,6.46-1.85,9.42c-3.33-1.29-5.91-2.03-7.75-1.85l-0.19-2.03
	c-0.74-9.42,3.14-20.68,12-33.97l2.22-0.19l4.06,15.88l4.8-0.37c-0.19-1.11,1.11-7.39,3.69-19.02c-0.19-2.4-2.03-3.88-5.72-4.06
	l-4.61,2.95c-0.37-3.33-0.19-12,0.37-25.85l-2.4,0.19c-4.06-4.06-6.09-7.39-6.27-10.16l-26.41,2.58c-0.18-1.85-1.1-4.61-2.95-8.12
	c-0.18-2.4,5.73-4.8,17.91-7.2l5.36,2.03l4.99-2.95c0.19,1.66,1.11,2.4,2.95,2.21l4.99-2.95c0.19,1.67,1.11,2.4,2.95,2.22l2.4-0.19
	l-0.37-5.35c-3.69,0.37-13.48,0.37-28.99-0.19l-4.99,3.33l-0.19-2.95c-123.89,10.15-194.24,15.88-211.04,17.54
	c-2.22,0.19-10.89,0-26.22-0.37c0.18,2.03-1.67,3.14-5.36,3.51l-5.36-2.4l-18.09,4.62c-4.25,0.37-11.45,0.18-21.42-0.93
	c-2.77,2.22-6.09,3.51-10.16,3.88c-2.21,0.18,26.41-1.48,52.99-3.33c-2.77,2.22-7.02,3.51-12.92,4.06
	c-4.06,0.37-7.57-0.19-10.52-1.85c-4.06,1.85-17.17,4.8-39.15,9.23l-5.35-2.03l-86.41,13.3c-3.33-1.66-7.2-2.22-11.64-1.85
	c-4.61,0.37-12.37,2.03-23.08,4.99l-41.73,17.35l3.13,5.17c2.03-0.19,4.99-1.29,8.5-3.33l14.77,1.29l-1.85,13.85
	c-13.66,6.09-21.6,15.14-23.82,26.59c-20.49,9.05-30.65,15.51-30.65,19.39l0.19,2.4l3.13-0.18l5.54-2.95l6.46,7.75l0.92,10.71
	c0.37,3.33-34.16,75.88-103.21,217.69c-59.82,136.63-91.21,211.41-94.17,224.89c-20.49,5.72-32.31,14.03-35.82,25.11
	c0.37,3.51,6.46,5.91,18.28,6.83l0.55,5.35l-5.35,8.86l0.92,10.71c0.55,5.54,15.51,9.79,44.87,12.74c-0.19-1.85,0.74-2.95,2.77-3.14
	c0.55,6.65-1.29,19.57-5.54,38.77l3.14-0.19c12.19-16.62,17.91-28.07,17.36-34.34l2.58-0.19c2.95-0.19,6.09,3.14,9.79,10.34
	c-3.69,1.48-16.62,30.83-38.77,88.26l3.14,5.17l3.14-0.19c27.14-68.68,44.13-106.72,51.14-113.92c35.64-3.14,97.3-9.41,184.82-18.83
	l5.54-3.33c0.18,1.85,1.29,2.77,3.32,2.59l5.73-0.56l5.54-3.32c0.19,1.85,1.29,2.77,3.33,2.58l66.28-5.72
	c17.54-1.48,25.85-6.83,25.11-15.88c-0.18-2.4,10.16-5.17,31.02-8.12c2.03-0.19,4.99,0.37,9.05,1.66
	c-0.19-1.66,10.34-3.32,31.39-5.17c0.55-11.08,4.06-16.99,10.34-17.54l-0.55-5.35c-5.91,0.55-12.56,2.03-20.31,4.61
	c-13.85-0.74-22.71-1.85-26.4-3.14c-3.7,2.03-6.46,3.14-8.5,3.33l-46.16,1.47l-5.54,2.95c-0.19-1.66-1.29-2.4-3.32-2.21l-2.59,0.18
	l-5.91,2.96c-0.19-1.67-4.99-2.96-14.58-4.25l-5.91,3.51l-11.45,0.92l-0.19-2.95c59.45-6.46,88.81-14.58,88.07-24.18
	c3.88-0.37,5.91,1.47,6.27,5.35l17.36-4.43l-0.55-5.36l-142.36,3.88c0.19,1.85-0.74,2.95-2.77,3.14l-17.36-1.47
	c-4.43,0.37-8.12,1.66-11.07,3.88l-6.46-2.4c-17.91,1.48-31.21,3.69-40.07,6.46c-12.18-0.92-25.66-0.74-40.62,0.55l-31.94,2.77
	l-14.77-1.66c-0.74-9.42,17.54-55.76,55.21-138.85c10.89-28.07,20.86-45.61,30.46-52.25c2.03-0.19,4.99,0.55,9.05,2.21l22.71-7.75
	l11.63,1.85c19.58-1.66,42.29-7.2,68.32-16.8c6.46-0.55,11.26-0.18,14.77,1.29l17.35-4.06l51.7-4.43
	c21.97-1.85,45.79-6.65,71.64-14.58l-0.56-5.35c-9.6,0.92-14.58-0.74-14.95-4.62c-0.56-7.2-7.57-10.16-21.05-9.05l-0.56-5.35
	l14.22-4.06l37.29-3.14l-0.55-5.35c-1.48,0.18-9.05,0-23.08-0.56l-0.55-5.72l14.4-1.29c3.88-0.37,5.54-2.22,5.17-5.91
	c-19.38,0.55-29.17-0.37-29.36-2.95c-135.16,6.65-202.92,7.94-203.29,3.69c-2.03,0.19-4.8,1.48-8.5,3.7l-3.51-5.54
	c35.82-76.07,56.87-114.48,62.96-115.03c0.19,2.95-1.29,7.75-4.43,14.22l0.19,2.4l5.73-0.55c14.21-33.97,26.22-51.51,36.19-52.25
	c42.47-3.7-5.91-6.46,84.94-20.68c3.69,1.67,6.27,2.4,8.12,2.22c35.63-7.2,85.3-14.77,149-22.52l-0.37-5.36l-33.97,3.14l-0.37-5.36
	c4.06-0.37,7.39-1.66,10.16-3.88l0.19,2.95c1.85-0.18,4.43-1.47,7.75-3.69c5.91-0.55,10.34,0,13.48,1.66
	c11.82-3.13,21.42-4.99,28.44-5.72l21.23-2.03c5.17-3.32,7.57-6.27,7.39-9.05l-0.19-2.4c-5.36,0.55-11.45,0.19-18.65-1.11
	c-0.19-2.95,1.29-4.99,4.8-5.91l39.51-3.69l18.1-4.62c0.19,2.03,1.11,2.77,2.58,2.77c1.85-0.18,4.43-1.47,7.75-3.69
	c0.93,0.19,2.03,0.19,2.95,0.37c-2.4,4.99-5.17,12.19-7.94,21.6l-5.17,0.37c-0.37-3.51-1.29-6.65-2.95-9.42l-2.59,0.19
	c-48,133.68-69.42,195.9-113.74,298.56c-8.12,26.22-14.96,40.81-20.86,43.95c0.19,2.95,2.03,4.43,5.17,4.06
	c1.11,12.92-1.85,25.66-9.05,38.22c-20.5,59.09-34.16,91.4-41.18,97.3l4.62,27.88c0.18,2.95-1.29,4.61-4.43,4.99l-4.8,0.37
	c-0.74-7.76-3.51-11.45-8.49-10.89l-2.59,0.18c-6.28,9.79-11.08,21.05-14.21,34.16l4.8-0.37c6.46-4.24,9.41-9.23,8.86-14.96
	l9.6-0.92l5.54,2.03c-4.43,7.02-6.46,12.56-6.09,16.8l2.58,4.43l-6.28,14.77l0.19,2.4c5.54-0.56,11.63,1.29,18.1,5.17
	c4.43-0.37,9.23-2.4,14.58-5.91c5.54-0.55,26.22-0.74,61.86-0.74l17.91-6.09c21.79-0.19,25.29,0.37,44.13-1.29l7.75-0.74l4.06-2.77
	l0.19,2.4c19.76-1.67,21.05-0.37,36.56,1.47l0.19,2.4l-10.89,0.92l0.37,4.61c3.32-0.37,6.27-1.29,8.68-3.33
	c2.77-0.18,4.43,1.29,4.61,4.62c-4.43,0.37-9.41,1.47-14.96,3.32l-4.8-1.66c-7.57,2.03-5.91,2.58-11.08,2.95l-7.57-1.47
	c0.19,1.29-0.55,2.21-1.85,2.21c0.19,2.95,1.85,4.43,4.61,4.25l7.75-0.74l40.44-3.51l15.32-3.32c0.19,1.29,0.74,2.03,2.03,1.85
	l7.39-2.77l13.85-1.11c10.71-0.92,10.52-1.67,33.79-5.36c-0.19-1.47,0.37-2.03,1.47-2.22l0.19,2.03
	c37.85-6.46,40.25-6.83,46.34-8.86l0.56,1.11c9.41-2.22,4.06-1.66,6.65-3.51c0.19,1.66,0.74,2.4,1.66,2.4l6.65-0.55l-0.37-4.99
	l-13.48-0.19l-0.19-0.37c-0.56,0.19-0.92,0.19-1.48,0.37h-1.85v0.37c-9.05,1.85-9.23,0.55-15.14,1.11l-33.79,1.85l-0.18-2.4
	l18.83-2.58l6.83-0.56l3.88-2.77l0.19,2.4c26.59-2.22,36,4.43,158.97-21.79c6.65-0.56,6.09-6.09,10.34-17.54
	c-2.25,0.15-4.5-0.36-6.46-1.47c-10.16,3.88-15.51,2.03-35.08,5.17c-1.66,0.19-2.95-1.29-3.51-4.25l-0.19-2.03l18.83,0.55
	c3.51-0.37,10.34-0.92,20.5-6.65C2623.75,618.91,2619.87,619.84,2622.09,619.66L2622.09,619.66L2622.09,619.66z M1712.93,634.24
	l-8.68,0.74c-0.37-3.51,4.25-16.8,13.85-39.51l5.72-0.55C1724.01,600.27,1720.5,613.38,1712.93,634.24z M1723.45,592.14l-0.19-2.4
	c-0.19-2.95,1.66-4.99,5.72-5.91l0.19,2.4C1729.36,589.74,1727.51,591.77,1723.45,592.14z M1838.85,681.32l0.19,2.4l-14.4,1.29
	l-0.19-2.4L1838.85,681.32z M1821.5,679.85c0.19,2.95-4.25,6.28-13.85,9.6l-17.73-1.29l-5.72,0.55l-0.55-5.36L1821.5,679.85z
	 M1938.19,142.73l-8.68,0.74l-0.19-2.95c-0.19-2.95,1.48-4.99,5.17-5.91l3.14-0.19l5.91,2.4
	C1943.72,140.33,1942.06,142.37,1938.19,142.73z M2070.2,116.88l2.77-0.18l0.37,5.35l-7.94,0.74
	C2065.22,119.84,2066.69,117.81,2070.2,116.88L2070.2,116.88z M2036.97,128.52l-13.11-1.48l-0.19-2.4
	c17.17-1.48,22.9-3.33,33.42-6.28c0.19,2.03,2.03,2.77,5.36,2.4l0.37,5.35l-5.17,0.56c-4.06,0.37-7.57-0.19-10.53-1.85
	C2043.98,126.85,2040.66,128.15,2036.97,128.52z M2053.4,176.34l-0.19-2.4l21.24-2.03l0.19,2.4L2053.4,176.34z M2076.11,157.87
	l-0.19-2.95l10.34-0.92l0.19,2.95L2076.11,157.87z M2078.51,121.69l-2.77,0.18l2.4-5.72l23.63-2.22l0.19,2.95
	C2095.87,117.44,2087.93,119.1,2078.51,121.69z M2090.52,172.64l-0.37-5.35l10.34-0.92c3.51-0.37,5.35,1.29,5.54,4.99
	L2090.52,172.64L2090.52,172.64z M2153.1,87.34l-13.29,3.7l-2.4,0.18c-6.27,0.56-14.4,0.37-24-0.55
	C2130.58,89.56,2147.01,88.26,2153.1,87.34L2153.1,87.34z M2138.89,146.43l0.19,2.4l-18.28,1.67l-0.19-2.4
	C2120.61,148.09,2138.89,146.43,2138.89,146.43z M2168.8,160.64c-0.19-2.21-3.7-3.69-10.89-4.43l-18.28,5.17l-14.03,0.55
	c-3.14-2.22-4.8-3.69-4.99-4.8l16.25,0.92l36.56-5.91l18.65,0.74l0.19,2.95C2183.02,156.76,2175.26,158.43,2168.8,160.64
	L2168.8,160.64z M2356.95,112.08c2.22,0.19,3.69,0.19,4.25,0.19c6.46-6.28,13.66-11.26,21.97-14.77
	c-6.65,29.17-16.99,50.78-31.21,64.81l-10.34-6.28C2350.3,134.05,2355.47,119.47,2356.95,112.08z M2325.19,166.55l2.58-0.18
	c-3.51,6.65-6.65,10.15-9.23,10.34l-0.56-7.02C2319.65,169.69,2322.05,168.58,2325.19,166.55L2325.19,166.55z M2304.7,215.48
	c4.99-19.94,9.79-31.2,14.21-34.16l0.19,2.4c-2.58,18.46-6.65,28.25-12,28.99l0.92,11.63c-4.43,6.28-6.46,11.08-6.28,14.77
	l-2.58,0.19l-1.47-16.06C2300.63,222.87,2303.03,220.28,2304.7,215.48z M2296.76,242.07c0.18,2.77-1.67,9.23-5.36,19.2l-2.58,0.19
	l-0.56-7.02C2291.77,246.32,2294.72,242.25,2296.76,242.07L2296.76,242.07L2296.76,242.07z M2147.75,674.49l-0.19-2.03l4.8-0.37
	l0.56,7.02C2150.34,679.29,2148.49,677.81,2147.75,674.49L2147.75,674.49z M2360.64,680.03c-0.19-1.67-0.92-2.4-2.58-2.22l-12,1.11
	l-0.19-2.4h1.11l28.43-2.4l0.19,2.4C2367.29,676.89,2362.3,678.19,2360.64,680.03z M2346.42,674.12c1.11,0.55,0.55,1.11,0,1.47
	C2345.87,675.41,2345.13,674.86,2346.42,674.12z M2347.9,640.89l-15.88,1.29l-0.19-2.4l14.4-1.29l12.55-3.14
	c0.19,1.47,0.92,2.03,2.59,1.85c14.96-2.58,13.48-3.33,20.68-3.88c2.4-0.19,3.88,1.29,4.06,4.25L2347.9,640.89L2347.9,640.89z
	 M2403.47,636.09c-8.86-0.92-9.41-1.66-15.69-1.11l-0.19-2.03l14.22-1.29l0.19,2.03C2400.52,633.87,2405.88,634.24,2403.47,636.09z
	 M2404.58,633.5l-0.19-2.03l7.75-0.74l0.19,2.03L2404.58,633.5z M2421.76,632.02l-0.19-2.03c1.29-0.18,3.14-1.11,5.54-2.95
	c3.88-0.37,5.91,2.22,6.28,5.17L2421.76,632.02L2421.76,632.02z M2443.73,629.26l-0.19-2.4l9.41-0.74l0.19,2.4L2443.73,629.26z
	 M2456.83,628.15c-0.18-2.77,0.92-4.43,3.33-4.8l3.14,4.06c-0.19-1.29,0.37-2.03,1.47-2.22l2.4,4.43L2456.83,628.15L2456.83,628.15z
	 M2638.52,606.73l0.19-0.19v-0.19C2638.7,606.36,2638.52,606.55,2638.52,606.73L2638.52,606.73z M2641.84,604.33
	c1.47-0.92,2.22-1.85-1.29-2.4c-1.66,1.85,1.85,2.4-1.85,2.58l0.19,1.66c0.37-0.37,1.29-0.92,2.03-1.47l-2.03,1.66v0.19l-3.88,4.99
	l7.75-2.77h0.92l-0.37-4.62L2641.84,604.33z M2655.32,614.86l-1.47,0.18l0.37,4.62l10.89-0.92
	C2664.92,615.78,2657.72,614.86,2655.32,614.86z"/>
</svg>
