<?xml version="1.0" encoding="utf-8"?>
<!-- Generator: Adobe Illustrator 24.1.2, SVG Export Plug-In . SVG Version: 6.00 Build 0)  -->
<svg version="1.1" id="Layer_1" xmlns="http://www.w3.org/2000/svg" xmlns:xlink="http://www.w3.org/1999/xlink" x="0px" y="0px"
	 viewBox="0 0 1631.6 414.87" style="enable-background:new 0 0 1631.6 414.87;" xml:space="preserve">
<style type="text/css">
	.st0{fill:#FDFDFD;}
	.st1{fill:#03D1B2;}
	.st2{fill:#FDFEFE;}
	.st3{fill:#FEFEFE;}
	.st4{fill:#030303;}
	.st5{fill:#020202;}
</style>
<g>
	<path class="st0" d="M260.76,39c413.37,0,826.74,0,1240.12,0c0,112.29,0,224.58,0,336.87c-413.37,0-826.74,0-1240.12,0
		c2.59-2.19,5-4.65,7.8-6.53c35.55-23.79,71.16-47.49,106.74-71.24c3.02-2.02,5.88-4.26,11.1-8.06c-28.94-28.53-56.57-55.77-85-83.8
		c20.67-20.57,41.23-41.03,62.19-61.89c-2.76-2.95-5.04-5.52-7.47-7.95c-29.76-29.79-59.56-59.54-89.27-89.38
		C264.5,44.67,262.77,41.69,260.76,39z M1219.24,175.97c0.76,0.12,1.51,0.25,2.27,0.37c0,3.35,0,6.71,0,10.06
		c0,41.75-0.03,83.49,0.02,125.24c0.02,14.02,6.65,19.94,22.05,19.99c15.43,0.05,22.13-5.83,22.14-19.72
		c0.04-62.44,0.02-124.89,0.01-187.33c0-6.66,0.17-13.34-0.13-19.99c-0.63-14.02-7.96-20.95-21.85-21.42
		c-13.05-0.43-23.28,4.33-29.87,15.79c-7.67,13.34-15.16,26.79-22.65,40.23c-7.89,14.15-15.69,28.35-24.04,43.43
		c-13.63-24.87-26.44-48.56-39.6-72.06c-3.74-6.68-7.92-13.3-12.94-19.04c-7.3-8.36-22.51-10.78-33.14-6.53
		c-11.21,4.49-12.48,13.77-12.46,24.16c0.11,67.71,0.04,135.41,0.07,203.12c0,13.47,6.31,19.12,21.36,19.33
		c15.48,0.22,22.82-5.86,22.83-19.17c0.05-43.15,0.02-86.3,0.02-129.45c0-3.33,0-6.67,0-10c13.53,21.57,25.41,43.53,36.98,65.65
		c3.65,6.98,8.2,12.44,16.61,12.48c8.36,0.04,13.06-5.22,16.88-12.15C1195.42,217.87,1207.4,196.96,1219.24,175.97z M636.29,197.56
		c27.31-16.43,30.88-40.91,27.13-67.58c-3.58-25.44-18.68-41.99-44.58-44.28c-30.27-2.67-60.87-2.17-91.32-2.04
		c-11.87,0.05-16.2,6.25-16.2,18.59c-0.02,69.44-0.01,138.87-0.01,208.31c0,16.07,4.94,21.01,21.5,21.09
		c22.79,0.11,45.59,0.1,68.38,0.01c44.15-0.17,66.9-21.32,69.47-65.31C672.32,237.89,669.94,210.87,636.29,197.56z M864.69,182.16
		c0.03,0,0.06,0,0.09,0c0-26.66,0.04-53.32-0.02-79.99c-0.03-13.7-6.62-19.11-22.76-18.94c-15.58,0.17-21.43,5.28-21.44,18.95
		c-0.03,49.11,0.06,98.23-0.1,147.34c-0.02,6.97-0.58,14.05-1.95,20.87c-2.25,11.12-9.14,18.7-20.03,22.33
		c-29.44,9.82-51.45-5.17-52.96-36.04c-0.17-3.5-0.09-7.01-0.1-10.52c-0.01-48.06,0.02-96.12-0.02-144.19
		c-0.01-12.32-3.29-16.79-15.38-18.1c-6.41-0.69-13.7-0.34-19.44,2.17c-4.11,1.8-8.95,7.93-8.99,12.17
		c-0.47,55.42-1.42,110.89,0.43,166.26c1.26,37.61,19.19,58.39,53.49,65.8c14.43,3.12,30.15,3.82,44.76,1.82
		c42.65-5.82,63.33-30.01,64.29-73.11C865.16,233.39,864.69,207.77,864.69,182.16z M1422.85,277.74
		c4.1,14.05,7.98,27.83,12.15,41.52c3.54,11.62,11.32,14.98,24.83,11.08c15.22-4.4,20.93-11.76,17.36-23.47
		c-21.14-69.21-42.4-138.38-63.75-207.53c-3.86-12.5-13.67-18.24-29.65-18.2c-15.97,0.04-25.36,5.76-29.32,18.62
		c-21.22,68.82-42.34,137.67-63.4,206.54c-3.76,12.31,1.31,19.43,16.41,23.89c14.11,4.17,22.06,0.81,25.7-11.18
		c4.15-13.7,8.04-27.47,12.06-41.28C1371.05,277.74,1396.27,277.74,1422.85,277.74z M948.8,293.1c0-5.29,0-9.12,0-12.96
		c0-58.95,0.02-117.9-0.01-176.85c-0.01-14.77-6.26-20.23-22.73-20.06c-15.92,0.16-21.47,5.28-21.47,19.99
		c-0.02,69.48-0.02,138.95,0,208.43c0,14.52,4.68,19.78,19.34,19.91c35.09,0.31,70.18,0.25,105.26-0.07
		c3.71-0.03,8.74-1.84,10.85-4.59c5.96-7.8,5.66-16.79,2.17-25.88c-3.32-8.65-10.48-7.93-17.53-7.92
		C999.83,293.12,974.98,293.1,948.8,293.1z"/>
	<path class="st1" d="M260.76,39c2.02,2.69,3.74,5.67,6.09,8.02c29.71,29.84,59.51,59.59,89.27,89.38c2.42,2.43,4.7,5,7.47,7.95
		c-20.96,20.86-41.52,41.32-62.19,61.89c28.44,28.03,56.07,55.27,85,83.8c-5.21,3.8-8.08,6.05-11.1,8.06
		c-35.57,23.75-71.19,47.45-106.74,71.24c-2.8,1.88-5.21,4.34-7.8,6.53c-1.4,0-2.81,0-4.21,0c-1.02-1.69-1.75-3.67-3.11-5.03
		c-31.62-31.73-63.3-63.41-95.03-95.03c-1.36-1.36-3.34-2.09-5.03-3.11c0-4.91,0-9.83,0-14.74c0.79-1.76,2.05-3.45,2.31-5.29
		c5.65-38.75,11.3-77.5,16.67-116.3c1.18-8.56,3.8-15.56,10.4-21.91c22.95-22.08,45.25-44.85,67.71-67.45
		c2.34-2.36,4.07-5.32,6.08-8.01C257.95,39,259.35,39,260.76,39z"/>
	<path class="st2" d="M256.55,39c-2.01,2.68-3.74,5.65-6.08,8.01c-22.46,22.6-44.76,45.37-67.71,67.47
		c-6.59,6.35-9.21,13.34-10.4,21.91c-5.37,38.79-11.02,77.54-16.67,116.3c-0.27,1.84-1.52,3.53-2.31,5.29c0-73,0-145.99,0-218.98
		C187.77,39,222.16,39,256.55,39z"/>
	<path class="st3" d="M153.38,272.71c1.69,1.02,3.67,1.75,5.03,3.11c31.73,31.62,63.41,63.3,95.03,95.03
		c1.36,1.36,2.09,3.34,3.11,5.03c-34.39,0-68.78,0-103.17,0C153.38,341.48,153.38,307.1,153.38,272.71z"/>
	<path class="st4" d="M1219.24,175.97c-11.84,20.99-23.82,41.9-35.44,63.01c-3.82,6.93-8.53,12.19-16.88,12.15
		c-8.41-0.04-12.96-5.5-16.61-12.48c-11.57-22.12-23.45-44.08-36.98-65.65c0,3.33,0,6.67,0,10c0,43.15,0.03,86.3-0.02,129.45
		c-0.02,13.32-7.35,19.39-22.83,19.17c-15.05-0.21-21.35-5.86-21.36-19.33c-0.02-67.71,0.04-135.41-0.07-203.12
		c-0.02-10.4,1.25-19.68,12.46-24.16c10.63-4.25,25.85-1.83,33.14,6.53c5.01,5.74,9.2,12.36,12.94,19.04
		c13.16,23.49,25.97,47.19,39.6,72.06c8.34-15.09,16.15-29.28,24.04-43.43c7.49-13.44,14.98-26.89,22.65-40.23
		c6.59-11.47,16.82-16.23,29.87-15.79c13.89,0.46,21.22,7.39,21.85,21.42c0.3,6.65,0.13,13.33,0.13,19.99
		c0.01,62.44,0.02,124.89-0.01,187.33c-0.01,13.89-6.71,19.77-22.14,19.72c-15.41-0.05-22.03-5.97-22.05-19.99
		c-0.05-41.75-0.02-83.49-0.02-125.24c0-3.35,0-6.71,0-10.06C1220.75,176.22,1219.99,176.1,1219.24,175.97z"/>
	<path class="st5" d="M636.29,197.56c33.65,13.3,36.03,40.33,34.37,68.8c-2.57,43.99-25.32,65.13-69.47,65.31
		c-22.79,0.09-45.59,0.1-68.38-0.01c-16.56-0.08-21.5-5.03-21.5-21.09c-0.01-69.44-0.01-138.87,0.01-208.31
		c0-12.34,4.33-18.54,16.2-18.59c30.45-0.13,61.05-0.64,91.32,2.04c25.9,2.29,41,18.83,44.58,44.28
		C667.17,156.65,663.6,181.13,636.29,197.56z M555.73,293.1c12.58,0,24.75,0.23,36.91-0.06c13.74-0.33,26.35-3.86,30.73-18.75
		c5.25-17.87,6.78-36-6.01-51.79c-2.61-3.23-7.6-5.95-11.71-6.3c-16.56-1.43-33.21-1.83-49.92-2.62
		C555.73,241.08,555.73,266.57,555.73,293.1z M556.07,122.27c0,19.35,0,38.29,0,57.51c13.33,0,25.91,0.43,38.44-0.11
		c16.37-0.71,25.58-11.03,26.03-28.08c0.44-16.51-7.99-27.82-23.61-29.09C583.48,121.4,569.87,122.27,556.07,122.27z"/>
	<path class="st4" d="M864.69,182.16c0,25.61,0.46,51.23-0.1,76.83c-0.96,43.1-21.64,67.28-64.29,73.11
		c-14.61,2-30.33,1.29-44.76-1.82c-34.31-7.41-52.24-28.19-53.49-65.8c-1.85-55.37-0.9-110.84-0.43-166.26
		c0.04-4.24,4.87-10.37,8.99-12.17c5.74-2.51,13.03-2.86,19.44-2.17c12.09,1.31,15.37,5.78,15.38,18.1
		c0.04,48.06,0.01,96.12,0.02,144.19c0,3.51-0.08,7.02,0.1,10.52c1.51,30.87,23.52,45.86,52.96,36.04
		c10.89-3.63,17.78-11.21,20.03-22.33c1.38-6.81,1.93-13.9,1.95-20.87c0.16-49.11,0.07-98.23,0.1-147.34
		c0.01-13.67,5.87-18.78,21.44-18.95c16.13-0.18,22.72,5.24,22.76,18.94c0.06,26.66,0.02,53.32,0.02,79.99
		C864.75,182.16,864.72,182.16,864.69,182.16z"/>
	<path class="st4" d="M1422.85,277.74c-26.58,0-51.8,0-77.62,0c-4.02,13.81-7.91,27.58-12.06,41.28c-3.64,12-11.59,15.35-25.7,11.18
		c-15.1-4.46-20.18-11.59-16.41-23.89c21.06-68.87,42.18-137.72,63.4-206.54c3.96-12.86,13.35-18.59,29.32-18.62
		c15.99-0.04,25.79,5.7,29.65,18.2c21.35,69.14,42.61,138.32,63.75,207.53c3.58,11.71-2.13,19.07-17.36,23.47
		c-13.52,3.9-21.3,0.55-24.83-11.08C1430.83,305.57,1426.94,291.79,1422.85,277.74z M1354.37,242.8c20.1,0,38.93,0,58.99,0
		c-9.7-34.33-19.24-68.05-29.48-104.29C1373.65,174.68,1364.09,208.43,1354.37,242.8z"/>
	<path class="st4" d="M948.8,293.1c26.18,0,51.03,0.01,75.88-0.01c7.05-0.01,14.21-0.73,17.53,7.92c3.49,9.09,3.78,18.08-2.17,25.88
		c-2.1,2.75-7.13,4.55-10.85,4.59c-35.09,0.33-70.18,0.38-105.26,0.07c-14.66-0.13-19.34-5.39-19.34-19.91
		c-0.02-69.48-0.02-138.95,0-208.43c0-14.71,5.55-19.83,21.47-19.99c16.47-0.16,22.72,5.3,22.73,20.06
		c0.03,58.95,0.01,117.9,0.01,176.85C948.8,283.98,948.8,287.82,948.8,293.1z"/>
</g>
</svg>
