<?xml version="1.0" encoding="utf-8"?>
<!-- Generator: Adobe Illustrator 24.1.2, SVG Export Plug-In . SVG Version: 6.00 Build 0)  -->
<svg version="1.1" id="Layer_1" xmlns="http://www.w3.org/2000/svg" xmlns:xlink="http://www.w3.org/1999/xlink" x="0px" y="0px"
	 viewBox="0 0 2468.81 2854.77" style="enable-background:new 0 0 2468.81 2854.77;" xml:space="preserve">
<style type="text/css">
	.st0{fill:#A1070C;}
	.st1{fill:url(#SVGID_1_);}
</style>
<path class="st0" d="M246.9,1999.13l987.48,570.13l987.53-570.13V858.89l-987.53-570.12L246.9,858.89V1999.13z M1234.38,2677.2
	L153.4,2053.09V804.92L1234.38,180.8L2315.4,804.92v1248.17L1234.38,2677.2z"/>
<linearGradient id="SVGID_1_" gradientUnits="userSpaceOnUse" x1="551.7054" y1="1811.3098" x2="551.7054" y2="1810.7621" gradientTransform="matrix(2000.2047 0 0 -2309.6323 -1102289.25 4184778.5)">
	<stop  offset="0" style="stop-color:#F7F6F3"/>
	<stop  offset="1" style="stop-color:#FEF6D5"/>
</linearGradient>
<path class="st1" d="M234.3,851.6L1234.4,274.2l1000.1,577.41v1154.82l-1000.1,577.41L234.3,2006.42V851.6"/>
<path class="st0" d="M1693.26,1006.49c0,45.37-8.95,90.43-26.86,135.19c-17.89,44.74-42.17,86.66-72.07,124.45
	c-29.99,38.06-65.09,71.8-104.3,100.28c-39.41,28.65-80.29,49.24-122.67,61.78l-18.8-31.33c25.23-12.65,48.46-28.94,68.94-48.35
	c20.87-19.67,38.94-42.12,53.71-66.7c14.87-24.65,26.46-51.14,34.47-78.79c8.02-27.49,12.09-55.97,12.09-84.61
	c0-32.83-4.77-63.86-14.32-93.11c-9.54-29.25-23.57-54.77-42.07-76.56c-18.5-21.79-41.34-38.94-68.49-51.47
	c-27.16-12.54-58.36-18.81-93.57-18.81c-42.98,0-82.37,8.36-118.18,25.07c-35.81,16.71-68.04,39.25-96.7,67.6
	c-28.65,28.35-53.57,60.88-74.76,97.59c-21.21,36.75-38.89,75.42-52.82,115.5c-13.9,39.8-24.53,80.68-31.79,122.21
	c-7.16,41.19-10.74,79.98-10.74,116.39c0,37.01,3.88,75.21,11.64,114.6c7.86,39.73,19.25,78.68,34.03,116.39
	c14.77,37.9,33.37,74.2,55.51,108.33c22.08,34.03,47.6,63.87,76.55,89.54c28.72,25.52,61.37,46.23,96.7,61.33
	c35.51,15.22,74.15,22.83,115.94,22.83c28.66,0,56.56-3.88,83.71-11.64c27.12-7.74,53.37-18.24,78.35-31.33
	c25.17-13.2,49-28.79,71.18-46.56c22.22-17.75,43.03-37.21,62.22-58.2l29.54,28.65c-26.26,34.63-57.45,67.9-93.56,99.82
	c-36.17,31.98-75.3,60.46-116.84,85.06c-41.35,24.58-85.36,44.4-131.16,59.09c-45.66,14.63-90.87,21.93-135.64,21.93
	c-43.58,0-84.61-7.6-123.11-22.83c-38.29-15.1-74.07-35.93-106.1-61.78c-32.23-25.96-61.03-56.41-86.4-91.32
	c-25.31-34.82-46.91-72.18-64.46-111.48c-17.52-39.12-31.02-79.91-40.29-121.76c-9.25-41.78-13.88-82.67-13.88-122.66
	c0-57.9,9.7-117.44,29.09-178.62c19.4-61.18,46.11-120.57,80.14-178.17c34.02-57.6,74.16-112.07,120.41-163.39
	c46.26-51.33,96.11-96.11,149.52-134.3c53.42-38.21,109.23-68.49,167.42-90.87c58.2-22.39,116.25-33.58,174.14-33.58
	c35.81,0,69.24,5.22,100.28,15.67c31.04,10.45,57.89,25.51,80.58,45.22c22.68,19.69,40.59,44.17,53.72,73.42
	C1686.69,935.46,1693.25,968.88,1693.26,1006.49L1693.26,1006.49z"/>
</svg>
