<?xml version="1.0" encoding="utf-8"?>
<!-- Generator: Adobe Illustrator 24.1.2, SVG Export Plug-In . SVG Version: 6.00 Build 0)  -->
<svg version="1.1" id="Layer_1" xmlns="http://www.w3.org/2000/svg" xmlns:xlink="http://www.w3.org/1999/xlink" x="0px" y="0px"
	 viewBox="0 0 155.5 155.5" style="enable-background:new 0 0 155.5 155.5;" xml:space="preserve">
<style type="text/css">
	.st0{fill:#0071CE;}
	.st1{fill:#DC8327;}
	.st2{fill:#F4B21B;}
	.st3{fill:#F2D864;}
	.st4{fill:#0E2F5A;}
</style>
<g>
	<path class="st0" d="M122.47,99.13c-1.61,0-3.11-1.02-3.64-2.64c-0.66-2.01,0.44-4.17,2.45-4.83c7.28-2.38,11.98-8.76,11.98-16.25
		c0-9.49-7.72-17.21-17.21-17.21c-0.66,0-1.37,0.05-2.23,0.16l-3.74,0.49l-0.54-3.74c-2.3-16.02-16.25-28.09-32.45-28.09
		c-13.4,0-25.32,8.02-30.38,20.43l-0.95,2.33l-2.52,0.05c-11.58,0.21-21,9.8-21,21.38c0,8.45,4.91,16.16,12.5,19.63
		c1.92,0.88,2.77,3.15,1.89,5.07c-0.88,1.92-3.15,2.76-5.07,1.89c-10.31-4.72-16.97-15.15-16.97-26.59
		c0-14.88,11.47-27.35,26.03-28.88c6.71-14.03,20.77-22.97,36.48-22.97c18.8,0,35.13,13.18,39.37,31.18
		c13.52,0.22,24.45,11.28,24.45,24.85c0,10.69-6.93,20.15-17.25,23.52C123.26,99.07,122.86,99.13,122.47,99.13z"/>
	<path class="st1" d="M64,100.91C64,100.91,64,100.91,64,100.91C64,100.91,64,100.91,64,100.91L64,100.91L64,100.91L64,100.91
		C63.99,100.91,63.99,100.91,64,100.91L64,100.91l-0.01-0.01c0,0,0,0,0,0l0,0h0l0,0c0,0,0,0,0,0s0,0,0,0l0,0h0c0,0,0,0,0,0l0,0
		c0,0,0,0,0,0c0,0,0,0,0,0l0,0c0,0,0,0,0,0l0,0c0,0,0,0,0,0s0,0,0,0c0,0,0,0,0,0h0c0,0,0,0,0,0c0,0,0,0,0,0c0,0,0,0,0,0l0,0
		c0,0,0,0,0,0h0c-0.06-0.02-0.12-0.03-0.19-0.04h0h0c0,0,0,0,0,0c0,0,0,0,0,0h0h0c0,0,0,0,0,0c0,0,0,0,0,0c0,0,0,0,0,0h0h0h0
		c0,0,0,0,0,0h0h0h0h0c0,0,0,0,0,0h0h0h0h0c0,0,0,0,0,0c-1.66,0-3.01-1.35-3.02-3V64.18h2.57c0,0,0.01,0,0.01,0
		c0.39,0.02,0.66-0.28,0.66-0.65c0-0.27-0.17-0.5-0.4-0.6l-12.38-8.54c-0.22-0.15-0.51-0.15-0.74,0L37.96,63
		c-0.23,0.16-0.33,0.46-0.25,0.73c0.08,0.27,0.33,0.46,0.62,0.46h2.58l0,33.67c0.01,2.33,1.88,4.23,4.26,4.29c0.03,0,0.05,0,0.08,0
		h18.48c0,0,0.01,0,0.01,0c0.17,0,0.32-0.07,0.44-0.18c0,0,0,0,0,0c0,0,0,0,0,0s0,0,0,0l0,0l0,0l0,0l0,0l0,0c0,0,0,0,0,0
		c0,0,0,0,0,0c0,0,0,0,0,0l0,0c0,0,0,0,0,0c0.11-0.12,0.18-0.27,0.18-0.45v0v0v0v0v0v0v0v0C64.38,101.24,64.22,101.01,64,100.91z"/>
	<path class="st2" d="M90.77,100.91C90.77,100.91,90.77,100.91,90.77,100.91C90.77,100.91,90.77,100.91,90.77,100.91L90.77,100.91
		C90.76,100.91,90.76,100.91,90.77,100.91L90.77,100.91L90.77,100.91L90.77,100.91l-0.01-0.01c0,0,0,0,0,0l0,0h0c0,0,0,0,0,0
		c0,0,0,0,0,0l0,0l0,0h0l0,0l0,0c0,0,0,0,0,0c0,0,0,0,0,0l0,0l0,0c0,0,0,0,0,0s0,0,0,0c0,0,0,0,0,0c0,0,0,0,0,0s0,0,0,0c0,0,0,0,0,0
		c0,0,0,0,0,0c0,0,0,0,0,0c0,0,0,0,0,0l0,0h0c-0.06-0.02-0.12-0.03-0.19-0.04h0c0,0,0,0,0,0c0,0,0,0,0,0h0h0h0l0,0c0,0,0,0,0,0
		c0,0,0,0,0,0h0c0,0,0,0,0,0h0c0,0,0,0,0,0s0,0,0,0h0h0h0c0,0,0,0,0,0h0h0h0h0c0,0,0,0,0,0c-1.65,0-3.01-1.35-3.02-3V71.72h2.58
		c0.01,0,0.02,0,0.03,0c0.36,0,0.65-0.29,0.65-0.65c0-0.27-0.17-0.5-0.4-0.6l-12.38-8.54c-0.22-0.15-0.51-0.15-0.74,0l-12.48,8.61
		c-0.23,0.16-0.33,0.46-0.25,0.73c0.08,0.27,0.33,0.46,0.62,0.46h2.57l0,26.14c0.01,2.33,1.88,4.23,4.26,4.29c0.03,0,0.05,0,0.08,0
		H90.5c0,0,0.01,0,0.01,0c0.17,0,0.32-0.07,0.44-0.18c0,0,0,0,0,0c0,0,0.01,0,0,0c0,0,0,0,0,0c0,0,0,0,0,0l0,0l0,0c0,0,0,0,0,0l0,0
		c0,0,0,0,0,0c0,0,0,0,0,0c0,0,0,0,0,0c0,0,0,0,0,0c0,0,0,0,0,0c0.11-0.12,0.18-0.27,0.18-0.45v0v0v0v0v0v0v0v0
		C91.15,101.24,90.99,101.01,90.77,100.91z"/>
	<path class="st3" d="M117.55,100.91L117.55,100.91C117.55,100.91,117.55,100.91,117.55,100.91L117.55,100.91
		C117.54,100.91,117.54,100.91,117.55,100.91L117.55,100.91C117.54,100.91,117.54,100.91,117.55,100.91L117.55,100.91l-0.01-0.01
		c0,0,0,0,0,0s0,0,0,0h0l0,0c0,0,0,0,0,0c0,0,0,0,0,0l0,0c0,0,0,0,0,0c0,0,0,0,0,0l0,0c0,0,0,0,0,0c0,0,0,0,0,0l0,0c0,0,0,0,0,0
		c0,0,0,0,0,0c0,0,0,0,0,0s0,0,0,0l0,0c0,0,0,0,0,0l0,0c0,0,0,0,0,0c0,0,0,0,0,0c0,0,0,0,0,0c0,0,0,0,0,0h0
		c-0.06-0.02-0.12-0.03-0.19-0.04h0c0,0,0,0,0,0c0,0,0,0,0,0h0h0h0c0,0,0,0,0,0c0,0,0,0,0,0c0,0,0,0,0,0h0h0h0c0,0,0,0,0,0h0
		c0,0,0,0,0,0h0h0h0h0h0h0h0h0c-1.65,0-3.01-1.35-3.02-3V79.25h2.57c0,0,0.01,0,0.01,0c0.36-0.01,0.66-0.29,0.66-0.65
		c0-0.27-0.17-0.5-0.4-0.6l-12.38-8.54c-0.22-0.15-0.51-0.15-0.74,0l-12.48,8.61c-0.23,0.16-0.33,0.46-0.25,0.73
		c0.08,0.27,0.33,0.46,0.62,0.46h2.57l0,18.6c0.01,2.33,1.89,4.23,4.26,4.29c0.03,0,0.05,0,0.08,0h18.48c0,0,0.01,0,0.01,0
		c0.17,0,0.32-0.07,0.44-0.18l0,0c0,0,0,0,0,0c0,0,0,0,0,0l0,0l0,0l0,0l0,0l0,0l0,0c0,0,0,0,0,0c0,0,0,0,0,0l0,0c0,0,0,0,0,0
		c0.11-0.12,0.18-0.27,0.18-0.45v0v0v0v0v0v0v0v0C117.93,101.24,117.77,101.01,117.55,100.91z"/>
</g>
<g>
	<path class="st4" d="M46.94,118.86c-0.62-0.67-1.39-1.2-2.3-1.58c-0.93-0.38-2.01-0.58-3.21-0.58c-1.2,0-2.28,0.2-3.21,0.58
		c-0.91,0.38-1.69,0.91-2.31,1.58c-0.63,0.69-1.09,1.47-1.41,2.38c-0.32,0.91-0.48,1.91-0.48,2.98c0,0.81,0.08,1.6,0.25,2.35
		c0.16,0.73,0.42,1.42,0.79,2.06c0.35,0.62,0.82,1.17,1.39,1.64c0.56,0.47,1.27,0.83,2.08,1.09c0.82,0.26,1.79,0.4,2.89,0.4
		c1.1-0.01,2.07-0.14,2.89-0.4c0.82-0.26,1.52-0.63,2.08-1.09c0.57-0.46,1.04-1.01,1.4-1.64c0.36-0.64,0.62-1.33,0.78-2.06
		c0.17-0.74,0.25-1.51,0.25-2.35c0-1.07-0.16-2.07-0.48-2.98C48.04,120.33,47.58,119.55,46.94,118.86z M45.04,126.1
		c-0.14,0.59-0.36,1.13-0.67,1.61c-0.31,0.48-0.71,0.86-1.2,1.14c-0.49,0.28-1.08,0.42-1.74,0.42c-0.67-0.01-1.25-0.15-1.74-0.42
		c-0.49-0.28-0.9-0.67-1.2-1.14c-0.3-0.46-0.53-1-0.67-1.61c-0.14-0.58-0.21-1.22-0.21-1.88c0-0.7,0.08-1.35,0.22-1.95
		c0.14-0.6,0.38-1.13,0.69-1.6c0.32-0.46,0.72-0.83,1.21-1.09c0.48-0.25,1.06-0.39,1.71-0.39h0.01c0.65,0,1.22,0.14,1.71,0.39
		c0.48,0.26,0.89,0.62,1.2,1.09c0.31,0.46,0.54,1,0.69,1.6c0.15,0.6,0.22,1.26,0.22,1.95C45.26,124.88,45.18,125.51,45.04,126.1z"/>
	<path class="st4" d="M58.08,131.44c0.59-0.21,1.11-0.51,1.56-0.87c0.46-0.38,0.89-0.82,1.25-1.31l0.09-0.12h0.44l0.06,0.29v0.54
		c0,0.38,0.06,0.7,0.17,0.99c0.11,0.25,0.27,0.45,0.5,0.58c0.23,0.14,0.54,0.21,0.92,0.22c0.38,0,0.69-0.08,0.91-0.22
		c0.23-0.14,0.39-0.33,0.5-0.59c0.11-0.28,0.17-0.6,0.17-0.98v-11.49c0-0.34-0.05-0.65-0.16-0.93c-0.1-0.26-0.27-0.46-0.52-0.61
		c-0.26-0.16-0.63-0.24-1.11-0.25c-0.47,0-0.84,0.09-1.1,0.25c-0.25,0.16-0.42,0.36-0.52,0.61c-0.11,0.28-0.16,0.59-0.16,0.93v6.87
		c-0.01,0.57-0.11,1.07-0.32,1.51c-0.21,0.44-0.48,0.82-0.81,1.12c-0.33,0.3-0.71,0.54-1.11,0.7c-0.42,0.16-0.82,0.24-1.22,0.24
		c-0.65-0.01-1.2-0.15-1.63-0.41c-0.44-0.28-0.76-0.66-0.98-1.15c-0.2-0.46-0.31-1-0.31-1.61v-7.27c0-0.34-0.05-0.65-0.16-0.93
		c-0.1-0.26-0.27-0.46-0.52-0.61c-0.26-0.16-0.63-0.24-1.11-0.25c-0.47,0-0.85,0.09-1.11,0.25c-0.25,0.16-0.42,0.36-0.52,0.61
		c-0.11,0.28-0.16,0.59-0.16,0.93v8.1c0.01,1.01,0.16,1.86,0.44,2.52c0.28,0.66,0.67,1.19,1.13,1.57c0.48,0.39,0.99,0.67,1.58,0.84
		c0.57,0.17,1.14,0.25,1.74,0.25h0.05C56.82,131.76,57.49,131.65,58.08,131.44z"/>
	<path class="st4" d="M30.68,111.28c-0.28-0.14-0.59-0.2-0.97-0.2c-0.37,0-0.69,0.07-0.97,0.2c-0.26,0.13-0.45,0.32-0.59,0.58
		c-0.15,0.26-0.22,0.6-0.23,1.01v17.1c0,0.41,0.08,0.75,0.23,1.01c0.14,0.25,0.34,0.44,0.6,0.57c0.27,0.14,0.6,0.21,0.97,0.21
		c0.37,0,0.69-0.07,0.97-0.21c0.26-0.13,0.46-0.32,0.6-0.57c0.15-0.26,0.22-0.6,0.23-1.01v-17.1c0-0.41-0.08-0.75-0.23-1.01
		C31.14,111.6,30.94,111.41,30.68,111.28z"/>
	<path class="st4" d="M147.62,117.86c-0.06-0.17-0.16-0.35-0.3-0.53c-0.14-0.17-0.32-0.32-0.56-0.44c-0.24-0.12-0.54-0.19-0.9-0.19
		c-0.32,0-0.59,0.07-0.8,0.2c-0.23,0.14-0.41,0.33-0.55,0.56c-0.15,0.25-0.27,0.54-0.36,0.87l-2.6,9.65h-0.45l-0.12-0.21l-2.68-9.72
		c-0.12-0.42-0.33-0.74-0.64-0.98c-0.33-0.25-0.72-0.37-1.22-0.37c-0.32,0-0.61,0.08-0.87,0.22c-0.26,0.15-0.47,0.35-0.62,0.6
		c-0.16,0.25-0.23,0.54-0.24,0.88c0,0.13,0.02,0.28,0.05,0.43c0.04,0.17,0.09,0.36,0.16,0.57c0.08,0.23,0.17,0.51,0.28,0.84
		l4.36,12.43l-0.02,0.09c-0.11,0.45-0.27,0.8-0.45,1.03c-0.2,0.23-0.42,0.38-0.67,0.45c-0.18,0.04-0.36,0.06-0.53,0.06l-0.11,0
		h-0.41c-0.34,0-0.62,0.05-0.87,0.16c-0.24,0.1-0.42,0.25-0.55,0.45c-0.13,0.2-0.2,0.46-0.2,0.77c0,0.29,0.07,0.54,0.23,0.78
		c0.15,0.24,0.39,0.43,0.73,0.59c0.34,0.16,0.81,0.24,1.38,0.25c0.62,0,1.16-0.09,1.61-0.26c0.46-0.17,0.84-0.42,1.18-0.76
		c0.35-0.35,0.66-0.78,0.93-1.28c0.28-0.54,0.54-1.15,0.77-1.84l4.82-13.66c0.1-0.26,0.17-0.5,0.23-0.71
		c0.05-0.19,0.07-0.36,0.07-0.51C147.7,118.22,147.69,118.09,147.62,117.86z"/>
	<path class="st4" d="M120.86,129.55c-0.06-0.21-0.11-0.45-0.16-0.77c-0.04-0.29-0.06-0.64-0.07-1.12v-6.99
		c0-0.69-0.16-1.29-0.45-1.78c-0.3-0.5-0.72-0.9-1.29-1.23c-0.57-0.33-1.25-0.58-2.04-0.74c-0.8-0.16-1.7-0.24-2.68-0.24
		c-0.13,0-0.26,0-0.39,0.01l-0.1,0.01c-0.4,0.02-0.76,0.05-1.09,0.09l-0.16,0.03c-0.39,0.06-0.73,0.13-1.01,0.21
		c-0.79,0.22-1.46,0.51-1.99,0.86c-0.53,0.36-0.93,0.74-1.19,1.13c-0.26,0.4-0.39,0.77-0.39,1.13c0,0.24,0.06,0.45,0.18,0.64
		c0.12,0.2,0.29,0.35,0.51,0.48c0.22,0.12,0.49,0.18,0.79,0.19c0.25,0,0.49-0.07,0.68-0.19c0.21-0.14,0.42-0.31,0.64-0.53
		c0.24-0.24,0.49-0.48,0.76-0.69c0.3-0.24,0.66-0.44,1.11-0.61c0.19-0.07,0.41-0.13,0.68-0.17c0.05-0.01,0.11-0.02,0.17-0.02
		l0.07-0.01c0.21-0.03,0.45-0.05,0.71-0.05c0.51,0,0.97,0.06,1.39,0.19c0.45,0.14,0.81,0.35,1.08,0.64c0.29,0.3,0.44,0.7,0.45,1.17
		c0,0.46-0.1,0.82-0.3,1.08c-0.2,0.26-0.46,0.44-0.79,0.55c-0.28,0.1-0.61,0.16-0.97,0.2l-2.53,0.29c-0.76,0.08-1.51,0.22-2.21,0.41
		c-0.67,0.19-1.27,0.45-1.76,0.78c-0.49,0.33-0.88,0.76-1.15,1.29c-0.28,0.53-0.42,1.21-0.43,2.02c0,0.6,0.13,1.15,0.37,1.64
		c0.24,0.49,0.57,0.89,0.99,1.24c0.41,0.34,0.89,0.61,1.42,0.79c0.54,0.19,1.07,0.28,1.64,0.28h0.07c0.68,0,1.34-0.07,1.96-0.22
		c0.12-0.03,0.23-0.06,0.35-0.09c0.09-0.03,0.17-0.06,0.26-0.09l0.23-0.09c0.06-0.02,0.11-0.04,0.16-0.06
		c0.31-0.13,0.57-0.26,0.82-0.4c0.57-0.34,1.12-0.8,1.64-1.37l0.48-0.53l0.02,0.72c0.01,0.39,0.09,0.75,0.24,1.09
		c0.14,0.31,0.35,0.56,0.66,0.75s0.73,0.29,1.27,0.3c0.29,0,0.56-0.06,0.81-0.18c0.24-0.11,0.43-0.27,0.57-0.47
		c0.14-0.19,0.21-0.41,0.21-0.67c0-0.12-0.02-0.25-0.06-0.39L120.86,129.55z M117.06,126.3c0,0.42-0.09,0.84-0.28,1.24
		c-0.19,0.4-0.45,0.74-0.8,1.06c-0.34,0.31-0.76,0.55-1.25,0.73c-0.2,0.07-0.43,0.13-0.71,0.18l-0.12,0.02
		c-0.27,0.04-0.54,0.07-0.81,0.07c-0.53-0.01-0.98-0.09-1.35-0.26c-0.39-0.17-0.7-0.41-0.92-0.71c-0.22-0.31-0.33-0.65-0.33-1.03
		c0-0.48,0.12-0.88,0.37-1.21c0.24-0.32,0.58-0.57,1.03-0.75c0.43-0.17,0.94-0.3,1.54-0.38l1.51-0.23c0.16-0.03,0.35-0.06,0.56-0.11
		c0.2-0.04,0.41-0.11,0.61-0.19c0.18-0.07,0.34-0.17,0.47-0.29l0.49-0.44V126.3z"/>
	<path class="st4" d="M15.49,114.64c0.68-0.33,1.43-0.49,2.2-0.49c0.76,0,1.36,0.1,1.86,0.3c0.49,0.18,0.91,0.43,1.24,0.74
		c0.32,0.29,0.59,0.61,0.82,0.94c0.22,0.31,0.43,0.61,0.64,0.88c0.19,0.25,0.42,0.46,0.67,0.61c0.25,0.15,0.57,0.23,0.95,0.23
		c0.61,0,1.07-0.16,1.36-0.47c0.3-0.31,0.45-0.76,0.45-1.34c0-0.35-0.11-0.75-0.32-1.2c-0.22-0.45-0.55-0.9-0.98-1.35
		c-0.43-0.45-0.98-0.87-1.62-1.25c-0.64-0.38-1.39-0.68-2.24-0.92c-0.85-0.23-1.81-0.35-2.85-0.36c-1.27,0-2.45,0.19-3.49,0.54
		c-1.02,0.36-1.94,0.86-2.72,1.5c-0.78,0.65-1.44,1.42-1.95,2.27c-0.53,0.88-0.93,1.85-1.19,2.87c-0.27,1.04-0.4,2.14-0.4,3.27
		c0.01,2.31,0.41,4.26,1.19,5.8c0.78,1.53,1.91,2.7,3.36,3.48c1.48,0.78,3.28,1.18,5.36,1.18c1.11-0.01,2.15-0.17,3.09-0.49
		c0.95-0.32,1.79-0.76,2.5-1.29c0.71-0.54,1.27-1.15,1.65-1.81c0.39-0.66,0.59-1.34,0.59-2.03c-0.01-0.31-0.1-0.57-0.27-0.79
		c-0.19-0.23-0.43-0.4-0.73-0.52c-0.31-0.13-0.65-0.19-0.99-0.19c-0.31,0-0.57,0.08-0.8,0.24c-0.24,0.17-0.46,0.39-0.67,0.67
		c-0.22,0.29-0.45,0.61-0.68,0.94c-0.24,0.34-0.52,0.68-0.84,0.98c-0.32,0.32-0.72,0.59-1.18,0.79c-0.47,0.2-1.03,0.31-1.67,0.32
		c-1.05-0.01-1.97-0.21-2.71-0.6c-0.74-0.39-1.36-0.93-1.82-1.62c-0.45-0.68-0.78-1.46-0.99-2.32c-0.2-0.86-0.31-1.78-0.3-2.74
		c0.01-1.14,0.15-2.16,0.44-3.06c0.29-0.9,0.7-1.67,1.21-2.29C14.21,115.45,14.81,114.96,15.49,114.64z"/>
	<path class="st4" d="M81.09,112.87c0-0.4-0.08-0.74-0.22-1.01c-0.14-0.26-0.34-0.45-0.6-0.58c-0.54-0.26-1.38-0.27-1.93,0
		c-0.26,0.13-0.45,0.32-0.6,0.58c-0.14,0.26-0.22,0.6-0.22,1.01v5.93h-0.45l-0.14-0.14c-0.39-0.62-0.91-1.11-1.56-1.45
		c-0.17-0.09-0.35-0.17-0.57-0.24c-0.04-0.01-0.07-0.02-0.11-0.03l-0.08-0.02c-0.14-0.04-0.28-0.08-0.43-0.11l-0.07-0.02
		c-0.07-0.01-0.13-0.02-0.18-0.03l-0.27-0.04c-0.19-0.02-0.39-0.03-0.59-0.03c-0.84,0-1.59,0.14-2.24,0.4
		c-0.65,0.26-1.22,0.62-1.71,1.09c-0.49,0.47-0.88,1-1.21,1.64c-0.33,0.64-0.57,1.32-0.72,2.03c-0.16,0.72-0.24,1.49-0.24,2.28
		c0.01,1.31,0.18,2.46,0.52,3.42c0.33,0.96,0.79,1.75,1.37,2.37c0.57,0.62,1.23,1.09,1.98,1.39c0.74,0.3,1.54,0.46,2.37,0.46
		c0.32,0,0.62-0.02,0.91-0.06c0.32-0.05,0.61-0.12,0.88-0.21c0.54-0.18,1.01-0.45,1.41-0.81c0.39-0.35,0.7-0.8,0.92-1.35l0.07-0.18
		h0.49l0.06,0.29v0.66c0,0.56,0.14,0.99,0.4,1.26c0.26,0.27,0.66,0.41,1.19,0.41c0.55,0,0.95-0.14,1.21-0.41
		c0.25-0.27,0.38-0.7,0.38-1.26L81.09,112.87L81.09,112.87z M77.55,126.04c-0.12,0.57-0.33,1.09-0.62,1.54
		c-0.28,0.45-0.66,0.83-1.13,1.1c-0.12,0.07-0.24,0.13-0.37,0.18c-0.04,0.01-0.07,0.02-0.11,0.04l-0.09,0.03
		c-0.07,0.02-0.14,0.05-0.21,0.06c-0.04,0.01-0.09,0.02-0.14,0.03l-0.06,0.01c-0.12,0.02-0.18,0.04-0.24,0.04
		c-0.05,0.01-0.1,0.01-0.15,0.01l-0.13,0.01c-0.06,0.01-0.12,0.01-0.19,0.01c-0.62-0.02-1.15-0.16-1.6-0.43
		c-0.45-0.26-0.83-0.62-1.13-1.07c-0.29-0.44-0.51-0.95-0.65-1.52c-0.14-0.55-0.21-1.16-0.21-1.81c0-0.42,0.03-0.84,0.09-1.27
		c0.06-0.43,0.17-0.87,0.32-1.29c0.16-0.43,0.37-0.82,0.64-1.17c0.28-0.36,0.63-0.65,1.04-0.86c0.41-0.21,0.91-0.32,1.49-0.32h0
		c0.08,0,0.15,0,0.22,0.01l0.13,0.01c0.05,0,0.1,0,0.14,0.01c0.08,0.01,0.15,0.03,0.23,0.04l0.1,0.02c0.04,0.01,0.08,0.01,0.12,0.02
		c0.09,0.02,0.17,0.05,0.25,0.08l0.07,0.03c0.03,0.01,0.07,0.02,0.1,0.04c0.13,0.06,0.26,0.12,0.38,0.2c0.47,0.3,0.85,0.7,1.12,1.19
		c0.27,0.47,0.47,1,0.59,1.57c0.12,0.59,0.17,1.14,0.17,1.69C77.74,124.91,77.68,125.49,77.55,126.04z"/>
	<path class="st4" d="M132.77,119.49c0.17-0.26,0.26-0.62,0.26-1.07c0-0.33-0.09-0.63-0.25-0.89c-0.16-0.26-0.4-0.46-0.69-0.61
		c-0.3-0.15-0.64-0.23-1.05-0.24c-0.45,0-0.85,0.1-1.19,0.28s-0.63,0.42-0.89,0.73c-0.25,0.32-0.47,0.68-0.64,1.06
		c-0.18,0.4-0.33,0.81-0.45,1.25l-0.06,0.22h-0.52l-0.06-0.29v-1.6c0-0.36-0.08-0.67-0.21-0.92c-0.14-0.24-0.32-0.42-0.55-0.54
		c-0.24-0.13-0.52-0.19-0.82-0.19s-0.58,0.06-0.82,0.19c-0.24,0.12-0.42,0.3-0.56,0.54c-0.14,0.24-0.21,0.55-0.21,0.92v11.63
		c0,0.34,0.05,0.65,0.16,0.93c0.1,0.25,0.27,0.45,0.53,0.61c0.25,0.16,0.62,0.24,1.1,0.25c0.48-0.01,0.85-0.09,1.11-0.25
		c0.25-0.16,0.42-0.36,0.52-0.61c0.11-0.28,0.16-0.59,0.16-0.93v-4.85c0-1.18,0.1-2.1,0.31-2.81c0.22-0.74,0.55-1.28,0.98-1.61
		c0.43-0.33,0.95-0.49,1.54-0.49l0.79,0c0.32,0,0.61-0.06,0.87-0.17C132.4,119.93,132.61,119.75,132.77,119.49z"/>
	<path class="st4" d="M102.91,117.79c-0.48-0.39-1-0.67-1.58-0.84c-0.57-0.17-1.15-0.25-1.74-0.25c-0.81,0-1.48,0.11-2.05,0.32
		c-0.59,0.22-1.11,0.51-1.56,0.87c-0.47,0.38-0.89,0.82-1.25,1.31l-0.09,0.12h-0.44l-0.06-0.29v-0.54c0-0.38-0.06-0.71-0.17-0.99
		c-0.11-0.25-0.27-0.45-0.5-0.58c-0.23-0.14-0.54-0.22-0.92-0.22s-0.68,0.07-0.92,0.22c-0.23,0.14-0.39,0.33-0.5,0.59
		c-0.11,0.27-0.17,0.6-0.17,0.98v11.49c0,0.34,0.05,0.65,0.16,0.93c0.1,0.25,0.27,0.45,0.52,0.61c0.26,0.16,0.63,0.24,1.11,0.25
		c0.47,0,0.85-0.09,1.11-0.25c0.25-0.16,0.42-0.36,0.52-0.61c0.11-0.28,0.16-0.59,0.16-0.93v-6.87c0.01-0.57,0.11-1.07,0.32-1.52
		c0.21-0.44,0.48-0.82,0.81-1.12c0.33-0.3,0.7-0.54,1.11-0.7c0.4-0.16,0.8-0.24,1.21-0.24c0.65,0,1.2,0.14,1.63,0.42
		c0.43,0.28,0.76,0.66,0.98,1.14c0.2,0.46,0.31,1,0.31,1.61v7.27c0,0.34,0.05,0.65,0.16,0.93c0.1,0.25,0.27,0.45,0.53,0.61
		c0.26,0.16,0.63,0.24,1.1,0.25c0.48-0.01,0.85-0.09,1.11-0.25c0.25-0.16,0.42-0.36,0.52-0.61c0.11-0.28,0.17-0.6,0.16-0.93v-8.1
		c-0.01-1.01-0.16-1.86-0.44-2.52C103.75,118.69,103.37,118.16,102.91,117.79z"/>
	<path class="st4" d="M87.13,116.94c-0.26-0.16-0.64-0.24-1.11-0.25c-0.47,0-0.85,0.09-1.1,0.25c-0.25,0.16-0.42,0.36-0.52,0.61
		c-0.11,0.28-0.16,0.59-0.16,0.93v11.49c0,0.34,0.05,0.65,0.16,0.93c0.1,0.25,0.27,0.45,0.53,0.61c0.25,0.16,0.62,0.24,1.1,0.25
		c0.48-0.01,0.85-0.09,1.11-0.25c0.25-0.16,0.42-0.35,0.52-0.61c0.11-0.28,0.16-0.59,0.16-0.93v-11.49c0-0.34-0.05-0.65-0.16-0.93
		C87.55,117.3,87.38,117.1,87.13,116.94z"/>
	<path class="st4" d="M86.94,111.33c-0.27-0.16-0.58-0.24-0.92-0.25c-0.34,0-0.64,0.09-0.92,0.25c-0.27,0.16-0.49,0.38-0.65,0.65
		c-0.16,0.27-0.24,0.58-0.25,0.92c0,0.34,0.09,0.64,0.25,0.91c0.16,0.27,0.38,0.49,0.65,0.65c0.27,0.16,0.58,0.24,0.92,0.25
		c0.34,0,0.64-0.09,0.92-0.25c0.27-0.16,0.49-0.38,0.65-0.65c0.16-0.27,0.24-0.58,0.25-0.91c0-0.34-0.09-0.64-0.25-0.92
		C87.43,111.71,87.21,111.49,86.94,111.33z"/>
</g>
</svg>
