<?xml version="1.0" encoding="utf-8"?>
<!-- Generator: Adobe Illustrator 24.1.2, SVG Export Plug-In . SVG Version: 6.00 Build 0)  -->
<svg version="1.1" id="Layer_1" xmlns="http://www.w3.org/2000/svg" xmlns:xlink="http://www.w3.org/1999/xlink" x="0px" y="0px"
	 viewBox="0 0 2500 2500" style="enable-background:new 0 0 2500 2500;" xml:space="preserve">
<style type="text/css">
	.st0{fill:none;}
	.st1{fill:#2062AF;}
	.st2{fill:#3C9CD7;}
	.st3{fill:#FFFFFF;}
	.st4{fill:url(#SVGID_1_);}
	.st5{fill:url(#SVGID_2_);}
	.st6{fill:url(#SVGID_3_);}
	.st7{opacity:5.000000e-02;enable-background:new    ;}
	.st8{fill:url(#SVGID_4_);}
</style>
<path class="st0" d="M0,0h2500v2500H0V0z"/>
<path class="st1" d="M1882.3,2169.8L1250,2340.1l-632.3-170.2L471.8,589.2h1556.3L1882.3,2169.8z"/>
<path class="st2" d="M1250,717.2v1487.1l1.4,0.4l511.7-137.8l118.1-1349.7L1250,717.2L1250,717.2z"/>
<path d="M891.2,357v-94.1h137.3V159.9H788.2v291h240.2V357H891.2z M1275.3,262.9h96V159.9h-240.2v102.9c32.1,32.1,48.9,47.5,95.4,94
	c-27.2,0-95.4,0.1-95.4,0.1v93.9h240.2V357L1275.3,262.9L1275.3,262.9z M1615.8,262.9h96V159.9h-240.2v102.9
	c32.1,32.1,48.9,47.5,95.4,94c-27.2,0-95.4,0.1-95.4,0.1v93.9h240.2V357L1615.8,262.9L1615.8,262.9z"/>
<path class="st3" d="M1249.4,1112.4l-452.5,188.5l15,186.6l437.5-187.1l465.4-199l19.3-190.9L1249.4,1112.4L1249.4,1112.4z"/>
<linearGradient id="SVGID_1_" gradientUnits="userSpaceOnUse" x1="-380.6589" y1="109.1325" x2="-380.6589" y2="28.3315" gradientTransform="matrix(4.6418 0 0 4.6418 2790.0984 980.9287)">
	<stop  offset="0.387" style="stop-color:#D1D3D4;stop-opacity:0"/>
	<stop  offset="1" style="stop-color:#D1D3D4"/>
</linearGradient>
<path class="st4" d="M796.9,1300.9l15,186.6l437.5-187.1v-188L796.9,1300.9z"/>
<linearGradient id="SVGID_2_" gradientUnits="userSpaceOnUse" x1="-279.7019" y1="68.8315" x2="-279.7019" y2="-15.1575" gradientTransform="matrix(4.6418 0 0 4.6418 2790.0984 980.9287)">
	<stop  offset="0.387" style="stop-color:#D1D3D4;stop-opacity:0"/>
	<stop  offset="1" style="stop-color:#D1D3D4"/>
</linearGradient>
<path class="st5" d="M1734.1,910.6l-484.7,201.9v188l465.4-199L1734.1,910.6z"/>
<linearGradient id="SVGID_3_" gradientUnits="userSpaceOnUse" x1="-429.2539" y1="145.1705" x2="-235.1889" y2="145.1705" gradientTransform="matrix(4.6418 0 0 4.6418 2790.0984 980.9287)">
	<stop  offset="0" style="stop-color:#E8E7E5"/>
	<stop  offset="1" style="stop-color:#FFFFFF"/>
</linearGradient>
<path class="st6" d="M797.6,1300.9l15,186.6l671.3,2.1l-15,248.8l-220.9,62.2l-212.4-53.6l-12.9-154.4H825.5l25.7,298.1l398.9,118
	l396.8-115.8l51.5-591.9H797.6z"/>
<path class="st7" d="M1249.4,1300.9H796.9l15,186.6l437.5,1.4L1249.4,1300.9L1249.4,1300.9z M1249.4,1800l-2.1,0.6L1035,1747
	l-12.9-154.4H824.8l25.7,298.1l398.9,118V1800z"/>
<linearGradient id="SVGID_4_" gradientUnits="userSpaceOnUse" x1="-438.1829" y1="5.4035" x2="-227.4909" y2="5.4035" gradientTransform="matrix(4.6418 0 0 4.6418 2790.0984 980.9287)">
	<stop  offset="0" style="stop-color:#E8E7E5"/>
	<stop  offset="1" style="stop-color:#FFFFFF"/>
</linearGradient>
<path class="st8" d="M756.1,910.6h978l-19.3,190.9H779.7L756.1,910.6L756.1,910.6z"/>
<path class="st7" d="M1249.4,910.6H756.1l23.6,190.9h469.7L1249.4,910.6L1249.4,910.6z"/>
</svg>
