<?xml version="1.0" encoding="utf-8"?>
<!-- Generator: Adobe Illustrator 24.1.2, SVG Export Plug-In . SVG Version: 6.00 Build 0)  -->
<svg version="1.1" id="Layer_1" xmlns="http://www.w3.org/2000/svg" xmlns:xlink="http://www.w3.org/1999/xlink" x="0px" y="0px"
	 viewBox="0 0 3069.05 3069.05" style="enable-background:new 0 0 3069.05 3069.05;" xml:space="preserve">
<style type="text/css">
	.st0{fill:url(#SVGID_1_);}
	.st1{fill:url(#SVGID_2_);}
	.st2{fill:url(#SVGID_3_);}
	.st3{fill:url(#SVGID_4_);}
	.st4{fill:url(#SVGID_5_);}
	.st5{fill:url(#SVGID_6_);}
</style>
<linearGradient id="SVGID_1_" gradientUnits="userSpaceOnUse" x1="849.9995" y1="1920.9663" x2="851.8635" y2="1918.9777" gradientTransform="matrix(805.5508 0 0 -795.1891 -683402.8125 1528059.625)">
	<stop  offset="0" style="stop-color:#F9A03C"/>
	<stop  offset="1" style="stop-color:#F7974E"/>
</linearGradient>
<path class="st0" d="M2779.79,2063.02c1.12-10.89,1.92-21.87,2.55-32.92c0.76-13.08-786.72-760.24-786.72-760.24h-18.83
	C1976.79,1269.86,2774.97,2111.79,2779.79,2063.02L2779.79,2063.02z"/>
<linearGradient id="SVGID_2_" gradientUnits="userSpaceOnUse" x1="847.491" y1="1923.5475" x2="851.0565" y2="1920.0701" gradientTransform="matrix(392.6758 0 0 -394.6426 -332714.3438 759934.25)">
	<stop  offset="0" style="stop-color:#F9A03C"/>
	<stop  offset="1" style="stop-color:#F7974E"/>
</linearGradient>
<path class="st1" d="M1099.67,1803.83c-1.04,2.29-2.08,4.59-3.15,6.87c-1.11,2.4-2.27,4.79-3.41,7.17
	c-25.1,52.34,351.43,420.43,381.71,375.72c1.38-1.97,2.76-4.06,4.14-6.03c1.53-2.34,3.05-4.59,4.56-6.93
	C1507.73,2143.85,1110.42,1779.92,1099.67,1803.83L1099.67,1803.83z"/>
<linearGradient id="SVGID_3_" gradientUnits="userSpaceOnUse" x1="847.8704" y1="1923.6956" x2="851.0424" y2="1920.059" gradientTransform="matrix(400.7761 0 0 -389.963 -339087.6562 751472.6875)">
	<stop  offset="0" style="stop-color:#F9A03C"/>
	<stop  offset="1" style="stop-color:#F7974E"/>
</linearGradient>
<path class="st2" d="M1631.73,2321.45c-1.06,2.34-8.64,15.16-15.57,21.92c-1.17,2.34,367.57,368.04,367.57,368.04h33.2
	C2016.96,2711.41,1670.8,2336.91,1631.73,2321.45z"/>
<linearGradient id="SVGID_4_" gradientUnits="userSpaceOnUse" x1="851.4246" y1="1919.3918" x2="852.1362" y2="1918.4525" gradientTransform="matrix(2498.3396 0 0 -2363.3909 -2126546.75 4536554)">
	<stop  offset="0" style="stop-color:#F26D58"/>
	<stop  offset="1" style="stop-color:#F9A03C"/>
</linearGradient>
<path class="st3" d="M2782.86,2023.46c-17.25,382.29-333.51,687.96-719.91,687.96h-52.24l-385.87-380.15
	c31.74-44.76,61.25-91.14,87.52-139.5h350.6c110.88,0,201.11-90.18,201.11-201.12c0-110.89-90.23-201.12-201.11-201.12h-207.48
	c15.81-83.56,24.45-169.73,24.45-257.89c0-89.5-8.8-176.89-25.18-261.79h128.87l796.96,785.28
	C2781.54,2044.6,2782.29,2034.08,2782.86,2023.46L2782.86,2023.46z M494.16,348.02H284.52v519.65h209.63
	c366.14,0,664.05,297.84,664.05,663.97c0,99.61-22.22,194.17-61.7,279.06l382.44,376.85c125.57-187.89,198.98-413.46,198.98-655.9
	C1677.93,879,1146.88,348.02,494.16,348.02z"/>
<linearGradient id="SVGID_5_" gradientUnits="userSpaceOnUse" x1="851.3167" y1="1919.4474" x2="852.3596" y2="1918.7621" gradientTransform="matrix(1569.598 0 0 -1707.1244 -1334770.75 3277163.25)">
	<stop  offset="0" style="stop-color:#B84E51"/>
	<stop  offset="1" style="stop-color:#F68E48"/>
</linearGradient>
<path class="st4" d="M2062.96,348.02h-848.89c207.34,126.59,379.03,306.09,496.01,519.65h352.88
	c110.88,0,201.11,90.18,201.11,201.12c0,110.91-90.23,201.09-201.11,201.09h-79.3l796.96,785.27c1.87-21.3,3.05-42.73,3.05-64.5
	c0-175.18-62.86-335.88-167.23-460.96c104.37-125.02,167.23-285.75,167.23-460.9C2783.67,671.38,2460.39,348.02,2062.96,348.02z"/>
<linearGradient id="SVGID_6_" gradientUnits="userSpaceOnUse" x1="851.6663" y1="1919.6768" x2="851.7152" y2="1918.4375" gradientTransform="matrix(1726.1868 0 0 -904.572 -1469039.5 1738508.875)">
	<stop  offset="0" style="stop-color:#F9A03C"/>
	<stop  offset="1" style="stop-color:#F7974E"/>
</linearGradient>
<path class="st5" d="M2010.71,2711.41h-790.58c159.14-98.28,296.71-228.02,404.71-380.15L2010.71,2711.41L2010.71,2711.41z
	 M1478.95,2187.55l-382.41-376.85c-105.65,227.06-335.88,384.97-602.38,384.97H284.52v519.6h209.63
	C904.41,2715.27,1266.51,2505.43,1478.95,2187.55z"/>
</svg>
