<?xml version="1.0" encoding="utf-8"?>
<!-- Generator: Adobe Illustrator 24.1.2, SVG Export Plug-In . SVG Version: 6.00 Build 0)  -->
<svg version="1.1" id="Layer_1" xmlns="http://www.w3.org/2000/svg" xmlns:xlink="http://www.w3.org/1999/xlink" x="0px" y="0px"
	 viewBox="0 0 3004.91 3004.91" style="enable-background:new 0 0 3004.91 3004.91;" xml:space="preserve">
<style type="text/css">
	.st0{fill:#2BA977;}
</style>
<g>
	<path class="st0" d="M1404.23,254.92h408.53v1872.45c-209.26,39.58-363.31,55.16-529.99,55.16
		c-498.97-0.52-758.71-223.44-758.71-651.56c0-412.5,275.51-680.21,702.45-680.21c66.25,0,116.72,5.21,177.71,20.83L1404.23,254.92
		L1404.23,254.92z M1418.55,1209.02c-47.85-15.63-87.28-20.83-137.76-20.83c-206.63,0-325.98,126.04-325.98,346.92
		c0,215.06,114.1,333.8,323.36,333.8c45.21,0,82.02-2.55,140.38-10.36L1418.55,1209.02L1418.55,1209.02z"/>
	<path class="st0" d="M2480.84,901.03v937.51c0,322.86-24.18,478.12-95.17,611.98c-66.25,128.69-153.53,209.84-333.87,299.47
		l-379.09-178.64c180.34-83.81,267.62-157.87,323.36-270.89c58.35-115.57,76.76-249.43,76.76-601.51V901.03L2480.84,901.03
		L2480.84,901.03z M2031.65,254.92h408.53v415.11h-408.53V254.92z"/>
</g>
</svg>
