<?xml version="1.0" encoding="utf-8"?>
<!-- Generator: Adobe Illustrator 24.1.2, SVG Export Plug-In . SVG Version: 6.00 Build 0)  -->
<svg version="1.1" id="Layer_1" xmlns="http://www.w3.org/2000/svg" xmlns:xlink="http://www.w3.org/1999/xlink" x="0px" y="0px"
	 viewBox="0 0 3023.85 880.54" style="enable-background:new 0 0 3023.85 880.54;" xml:space="preserve">
<style type="text/css">
	.st0{fill:#222222;}
</style>
<path class="st0" d="M278.19,641.1V362.87h347.38V346.6H278.19V92.77h369.35V76.5H261.92v580.86h388.87V641.1H278.19L278.19,641.1z
	 M964.01,239.21L820.01,428.76L679.27,239.21h-21.15l152.13,201.76L643.47,657.36h19.53L820,453.16l157.83,204.2h20.34
	l-167.59-216.4L983.52,239.2L964.01,239.21L964.01,239.21z M1046.99,800.55V540.22h1.63c9.77,37.96,29.02,68.47,57.76,91.52
	c28.75,23.05,65.35,34.58,109.82,34.58c28.74,0,54.24-5.83,76.47-17.49s40.81-27.52,55.73-47.59c14.91-20.07,26.3-43.39,34.17-69.97
	c7.86-26.57,11.8-54.51,11.8-83.79c0-31.46-4.07-60.48-12.21-87.05c-8.13-26.58-19.93-49.63-35.39-69.15
	c-15.46-19.53-34.17-34.72-56.14-45.56c-21.96-10.85-46.78-16.27-74.44-16.27c-21.15,0-40.81,3.12-58.98,9.36
	c-18.17,6.24-34.3,15.05-48.4,26.44c-14.18,11.48-26.53,25.06-36.61,40.27c-10.3,15.46-18.17,32.41-23.59,50.85h-1.63V239.21h-16.27
	v561.34H1046.99L1046.99,800.55z M1216.2,650.86c-50.98,0-91.93-17.49-122.84-52.47c-30.91-34.98-46.37-85.29-46.37-150.91
	c0-27.12,3.8-52.88,11.39-77.29c7.59-24.4,18.57-45.83,32.94-64.27c14.38-18.44,32.14-33.09,53.29-43.93
	c21.15-10.85,45.02-16.27,71.59-16.27c27.12,0,50.85,5.42,71.19,16.27c20.34,10.84,37.15,25.62,50.44,44.34s23.32,40.14,30.1,64.27
	c6.78,24.14,10.17,49.76,10.17,76.88c0,24.41-3.12,48.68-9.36,72.81c-6.24,24.14-15.86,45.83-28.88,65.09
	c-13.01,19.25-29.69,34.98-50.03,47.18C1269.49,644.76,1244.95,650.86,1216.2,650.86L1216.2,650.86z M1483.86,657.37V420.63
	c0-22.78,3.25-45.02,9.77-66.71c6.5-21.69,16.54-40.82,30.1-57.35c13.56-16.54,30.78-29.56,51.66-39.05
	c20.88-9.49,45.69-13.42,74.44-11.8v-16.27c-24.95-0.54-46.78,2.17-65.49,8.13c-18.72,5.97-34.85,14.1-48.41,24.41
	c-13.56,10.3-24.4,22.37-32.54,36.2c-8.13,13.81-14.16,28.75-17.9,44.34h-1.63V239.21h-16.27v418.16L1483.86,657.37L1483.86,657.37z
	 M1670.16,451.54h349.82c1.09-28.75-1.76-56.4-8.54-82.98c-6.78-26.58-17.63-50.17-32.54-70.78
	c-14.92-20.61-34.17-37.15-57.76-49.63c-23.59-12.48-51.66-18.71-84.2-18.71c-23.33,0-46.1,4.88-68.34,14.65
	c-22.24,9.76-41.76,23.99-58.57,42.71s-30.37,41.63-40.67,68.75c-10.3,27.11-15.46,58.03-15.46,92.74
	c0,30.91,3.53,59.79,10.58,86.64c7.05,26.85,17.9,50.17,32.54,69.97c14.65,19.79,33.5,35.12,56.54,45.96
	c23.05,10.85,50.84,16,83.39,15.46c47.72,0,87.86-13.43,120.4-40.27c32.54-26.85,51.8-64.68,57.76-113.49h-16.27
	c-7.05,46.1-25.09,80.68-54.1,103.73c-29.02,23.05-65.49,34.58-109.42,34.58c-29.83,0-55.05-5.15-75.66-15.45
	c-20.61-10.3-37.42-24.41-50.44-42.3c-13.01-17.9-22.64-38.92-28.88-63.05C1674.09,505.92,1670.7,479.74,1670.16,451.54
	L1670.16,451.54z M2003.71,435.27h-333.54c1.62-29.29,7.05-55.59,16.26-78.91c9.22-23.33,21.29-43.26,36.21-59.79
	c14.91-16.54,32.27-29.15,52.07-37.83c19.79-8.68,41.08-13.02,63.86-13.02c27.12,0,50.98,5.02,71.59,15.05
	c20.61,10.03,37.83,23.73,51.66,41.08c13.83,17.35,24.27,37.56,31.32,60.61C2000.18,385.51,2003.71,409.78,2003.71,435.27
	L2003.71,435.27z M2357.6,362.87h16.27c0-46.65-13.56-80.54-40.67-101.69c-27.12-21.15-64-31.73-110.64-31.73
	c-26.04,0-48,3.26-65.9,9.77c-17.9,6.5-32.54,14.91-43.93,25.21c-11.39,10.3-19.52,21.69-24.4,34.17s-7.32,24.41-7.32,35.8
	c0,22.78,4.07,40.95,12.21,54.51c8.13,13.56,20.88,24.14,38.23,31.73c11.93,5.42,25.49,10.3,40.68,14.65
	c15.19,4.34,32.81,8.95,52.88,13.82c17.9,4.35,35.52,8.68,52.88,13.02c17.35,4.34,32.68,10.17,45.96,17.49
	c13.29,7.32,24.14,16.68,32.54,28.07c8.4,11.39,12.61,26.3,12.61,44.74c0,17.9-4.2,33.09-12.61,45.56
	c-8.34,12.41-19.31,22.83-32.13,30.51c-13.02,7.86-27.53,13.55-43.53,17.08c-16,3.53-31.59,5.29-46.78,5.29
	c-49.36,0-87.19-10.98-113.49-32.94c-26.3-21.97-39.45-56.54-39.45-103.73h-16.27c0,52.61,14.24,91.12,42.71,115.53
	c28.48,24.4,70.64,36.61,126.51,36.61c17.9,0,35.93-2.04,54.1-6.1c18.16-4.07,34.44-10.71,48.81-19.93
	c14.25-9.09,26.22-21.34,34.98-35.79c8.95-14.65,13.43-32.54,13.43-53.7c0-20.07-3.94-36.34-11.8-48.81
	c-7.87-12.47-18.17-22.78-30.92-30.91c-12.74-8.13-27.11-14.51-43.12-19.12c-16.09-4.64-32.23-9.11-48.41-13.43
	c-19.91-5.22-39.84-10.38-59.79-15.45c-17.08-4.34-32.94-9.49-47.59-15.46c-14.1-5.97-25.36-14.51-33.76-25.62
	s-12.61-26.98-12.61-47.59c0-3.79,1.08-10.58,3.25-20.34c2.17-9.77,7.32-19.66,15.46-29.7c8.13-10.03,20.61-18.98,37.42-26.85
	c16.81-7.86,39.86-11.8,69.15-11.8c20.07,0,38.37,2.17,54.91,6.51c16.54,4.34,30.78,11.25,42.71,20.75
	c11.93,9.49,21.15,21.56,27.66,36.2C2354.34,323.82,2357.6,341.72,2357.6,362.87L2357.6,362.87z M2734.26,362.87h16.27
	c0-46.65-13.55-80.54-40.67-101.69s-64-31.73-110.64-31.73c-26.03,0-48,3.26-65.89,9.77c-17.9,6.5-32.54,14.91-43.93,25.21
	c-11.39,10.3-19.53,21.69-24.41,34.17s-7.32,24.41-7.32,35.8c0,22.78,4.07,40.95,12.21,54.51c8.13,13.56,20.88,24.14,38.23,31.73
	c11.93,5.42,25.49,10.3,40.67,14.65c15.19,4.34,32.81,8.95,52.88,13.82c17.9,4.35,35.53,8.68,52.88,13.02
	c17.36,4.34,32.68,10.17,45.97,17.49c13.29,7.32,24.14,16.68,32.54,28.07c8.41,11.39,12.61,26.3,12.61,44.74
	c0,17.9-4.2,33.09-12.61,45.56c-8.34,12.41-19.31,22.83-32.13,30.51c-13.02,7.86-27.53,13.55-43.53,17.08
	c-16,3.53-31.59,5.29-46.78,5.29c-49.36,0-87.18-10.98-113.49-32.94c-26.31-21.97-39.46-56.54-39.46-103.73h-16.27
	c0,52.61,14.23,91.12,42.71,115.53c28.47,24.4,70.64,36.61,126.5,36.61c17.9,0,35.93-2.04,54.1-6.1
	c18.16-4.07,34.44-10.71,48.81-19.93c14.25-9.09,26.22-21.34,34.98-35.79c8.95-14.65,13.42-32.54,13.42-53.7
	c0-20.07-3.93-36.34-11.8-48.81c-7.86-12.47-18.16-22.78-30.91-30.91c-12.74-8.13-27.12-14.51-43.12-19.12
	c-16.09-4.64-32.23-9.11-48.41-13.43c-19.91-5.22-39.84-10.38-59.79-15.45c-17.08-4.34-32.95-9.49-47.59-15.46
	c-14.1-5.97-25.36-14.51-33.76-25.62c-8.41-11.12-12.61-26.98-12.61-47.59c0-3.79,1.08-10.58,3.26-20.34
	c2.17-9.77,7.32-19.66,15.45-29.7c8.13-10.03,20.61-18.98,37.42-26.85c16.82-7.86,39.86-11.8,69.16-11.8
	c20.07,0,38.37,2.17,54.91,6.51c16.54,4.34,30.78,11.25,42.71,20.75c11.93,9.49,21.15,21.56,27.66,36.2
	C2731.01,323.82,2734.27,341.72,2734.26,362.87L2734.26,362.87z"/>
</svg>
