<?xml version="1.0" encoding="utf-8"?>
<!-- Generator: Adobe Illustrator 24.1.3, SVG Export Plug-In . SVG Version: 6.00 Build 0)  -->
<svg version="1.1" id="Layer_1" xmlns="http://www.w3.org/2000/svg" xmlns:xlink="http://www.w3.org/1999/xlink" x="0px" y="0px"
	 viewBox="0 0 180 184" style="enable-background:new 0 0 180 184;" xml:space="preserve">
<style type="text/css">
	.st0{fill:#FECA2C;}
	.st1{fill:#FECA2E;}
	.st2{fill:#FECB2F;}
	.st3{fill:#FEA50F;}
	.st4{fill:#F4820B;}
	.st5{fill:#FEA816;}
	.st6{fill:#FDA310;}
	.st7{fill:#FCD44C;}
	.st8{fill:#EE7006;}
</style>
<g>
	<path class="st0" d="M135,57.9c1.3,6.6,2.9,13.2,4,19.9c2.7,15.5,5.2,31,7.7,46.5c1,5.9,2,11.8,2.8,17.7c0.1,1.2-0.6,3.2-1.6,3.8
		c-17.5,9.9-35.1,19.6-52.6,29.3c-3.6,2-7.3,2-10.9,0c-11.8-6.7-23.6-13.3-35.5-20c2.7-0.9,6.2-1,8-2.7c25-24.6,49.8-49.5,74.5-74.4
		c1.4-1.5,2.2-3.9,2.5-6.1C134.6,67.3,134.7,62.6,135,57.9z"/>
	<path class="st1" d="M135,57.9c-0.3,4.7-0.5,9.4-1.1,14c-0.3,2.1-1.1,4.6-2.5,6.1c-24.7,24.9-49.5,49.8-74.5,74.4
		c-1.8,1.8-5.3,1.9-8,2.7H49c-0.6-0.4-1.2-0.7-1.9-1.1l-0.1-0.1c-0.4-0.3-0.9-0.6-1.3-0.8c-1.9-1-3.8-2.1-5.7-3.1
		c1.6-0.8,3.5-1.2,4.7-2.3c28.1-28,56.2-56,84.1-84.1c1.7-1.7,3.4-4.1,3.7-6.3c0.3-2.1-1.2-4.5-1.9-6.7c-1.7,0.8-3.6,1.2-4.9,2.3
		c-4,3.7-7.8,7.8-11.8,11.6c-1.1,1.1-2.7,1.7-4.1,2.6c0-0.7,0-1.3,0-2c5.5-5.7,10.9-11.5,16.6-16.9c3.8-3.6,6.5-2.6,7.5,2.7
		C134.5,53.1,134.7,55.5,135,57.9z"/>
	<path class="st2" d="M110,67c1.4-0.9,2.9-1.5,4.1-2.6c4-3.8,7.7-7.9,11.8-11.6c1.3-1.2,3.2-1.6,4.9-2.3c0.7,2.3,2.2,4.6,1.9,6.7
		c-0.3,2.3-2,4.6-3.7,6.3c-28,28.1-56,56.2-84.1,84.1c-1.2,1.2-3.1,1.6-4.7,2.3h-0.1c-0.5-0.3-0.9-0.6-1.4-0.9
		c-1.2-0.7-2.4-1.3-3.6-2c0.3-2,0.7-4.1,1-6.1c0-0.7,0-1.3,0-2l0,0c0.3-0.3,0.7-0.7,1-1l0,0c0.3-0.3,0.7-0.7,1-1l0,0
		c0.3-0.3,0.7-0.7,1-1l0,0c0.3-0.3,0.7-0.7,1-1l0,0c0.3-0.3,0.7-0.7,1-1l0,0c0.3-0.3,0.7-0.7,1-1l0,0c0.3-0.3,0.7-0.7,1-1l0,0
		c0.3-0.3,0.7-0.7,1-1l0,0c0.3-0.3,0.7-0.7,1-1l0,0c0.3-0.3,0.7-0.7,1-1l0,0c0.3-0.3,0.7-0.7,1-1l0,0c0.3-0.3,0.7-0.7,1-1l0,0
		c0.3-0.3,0.7-0.7,1-1l0,0c0.3-0.3,0.7-0.7,1-1l0,0c0.3-0.3,0.7-0.7,1-1l0,0c0.3-0.3,0.7-0.7,1-1l0,0c0.3-0.3,0.7-0.7,1-1l0,0
		c0.3-0.3,0.7-0.7,1-1l0,0c0.3-0.3,0.7-0.7,1-1l0,0c0.3-0.3,0.7-0.7,1-1l0,0c0.3-0.3,0.7-0.7,1-1l0,0c0.3-0.3,0.7-0.7,1-1l0,0
		c0.3-0.3,0.7-0.7,1-1l0,0c0.3-0.3,0.7-0.7,1-1l0,0c0.3-0.3,0.7-0.7,1-1l0,0c0.3-0.3,0.7-0.7,1-1l0,0c0.3-0.3,0.7-0.7,1-1l0,0
		c0.3-0.3,0.7-0.7,1-1l0,0c0.3-0.3,0.7-0.7,1-1l0,0c0.3-0.3,0.7-0.7,1-1l0,0c0.3-0.3,0.7-0.7,1-1l0,0c0.3-0.3,0.7-0.7,1-1l0,0
		c0.3-0.3,0.7-0.7,1-1l0,0c0.3-0.3,0.7-0.7,1-1l0,0c0.3-0.3,0.7-0.7,1-1l0,0c0.3-0.3,0.7-0.7,1-1l0,0c0.3-0.3,0.7-0.7,1-1l0,0
		c0.3-0.3,0.7-0.7,1-1l0,0c0.3-0.3,0.7-0.7,1-1l0,0c0.3-0.3,0.7-0.7,1-1l0,0c0.3-0.3,0.7-0.7,1-1l0,0c0.3-0.3,0.7-0.7,1-1l0,0
		c0.3-0.3,0.7-0.7,1-1l0,0c0.3-0.3,0.7-0.7,1-1l0,0c0.3-0.3,0.7-0.7,1-1l0,0c0.3-0.3,0.7-0.7,1-1l0,0c0.3-0.3,0.7-0.7,1-1l0,0
		c0.3-0.3,0.7-0.7,1-1l0,0c0.3-0.3,0.7-0.7,1-1l0,0c0.3-0.3,0.7-0.7,1-1l0,0c0.3-0.3,0.7-0.7,1-1l0,0c0.3-0.3,0.7-0.7,1-1l0,0
		c0.3-0.3,0.7-0.7,1-1l0,0c0.3-0.3,0.7-0.7,1-1l0,0c0.3-0.3,0.7-0.7,1-1l0,0c0.3-0.3,0.7-0.7,1-1l0,0c0.3-0.3,0.7-0.7,1-1l0,0
		c0.3-0.3,0.7-0.7,1-1l0,0c0.3-0.3,0.7-0.7,1-1l0,0c0.3-0.4,0.7-0.7,1-1.1l0,0c0.3-0.3,0.7-0.7,1-1H97c0.4-0.3,0.7-0.7,1.1-1l0,0
		c0.3-0.3,0.7-0.7,1-1l0,0c0.3-0.3,0.7-0.7,1-1l0,0c0.3-0.3,0.7-0.7,1-1l0,0c0.3-0.3,0.7-0.7,1-1l0,0c0.3-0.3,0.7-0.7,1-1l0,0
		c0.3-0.3,0.7-0.7,1-1l0,0c0.3-0.3,0.7-0.7,1-1l0,0c0.3-0.3,0.7-0.7,1-1l0,0c0.3-0.3,0.7-0.7,1-1l0,0c0.3-0.3,0.7-0.7,1-1l0,0
		C108.6,67,109.3,67,110,67z"/>
	<path class="st3" d="M31,141c1.7-11.8,3.3-23.6,5.1-35.4c3.3-21.3,6.7-42.6,10-63.9c0.1-0.6,0.4-1.2,0.6-1.9c0.7,0.6,2,1.2,2,1.7
		c-0.6,6.8-1.5,13.6-2.3,20.4c-0.3,2.5-0.3,5-0.5,7.5c8.4-6.3,15.4-13,22.5-19.5c2.4-2.2,2.7-4.2,1-6.9c-2.4-4.1-4.8-8.3-6.8-12.7
		c-0.5-1.1,0.6-2.9,0.9-4.4c4,7.7,8.1,15.4,12.1,23C76.2,50,77,51,77.7,52c-4.9,9.7-9.8,19.5-14.9,29.1c-9,17.2-18.1,34.3-26.9,51.6
		c-0.5,1,0.6,2.9,0.9,4.4c-0.1,0.3-0.1,0.5-0.1,0.8l0,0c-0.3,0.3-0.7,0.7-1,1l0,0c-0.5,0.3-1.1,0.6-1.6,1
		C33.3,140.3,32.1,140.7,31,141z"/>
	<path class="st4" d="M37.2,137.2c-0.4-1.5-1.5-3.4-0.9-4.4c8.9-17.2,18-34.4,26.9-51.6c5-9.7,9.9-19.4,14.9-29.1
		c0.3-0.1,0.6-0.2,1-0.2c1.7,2.4,3.6,4.6,5,7.2c2.7,4.7,5,9.7,7.9,14.3c1,1.6,3.4,2.4,5.2,3.6c-0.1,0.3-0.1,0.6-0.1,1h0.1
		c-0.3,0.3-0.7,0.7-1,1l0,0c-0.3,0.4-0.7,0.7-1,1.1l0,0c-0.3,0.3-0.7,0.7-1,1l0,0c-0.3,0.3-0.7,0.7-1,1l0,0c-0.3,0.3-0.7,0.7-1,1
		l0,0c-0.3,0.3-0.7,0.7-1,1l0,0c-0.3,0.3-0.7,0.7-1,1l0,0c-0.3,0.3-0.7,0.7-1,1l0,0c-0.3,0.3-0.7,0.7-1,1l0,0c-0.3,0.3-0.7,0.7-1,1
		l0,0c-0.3,0.3-0.7,0.7-1,1l0,0c-0.3,0.3-0.7,0.7-1,1l0,0c-0.3,0.3-0.7,0.7-1,1l0,0c-0.3,0.3-0.7,0.7-1,1l0,0c-0.3,0.3-0.7,0.7-1,1
		l0,0c-0.3,0.3-0.7,0.7-1,1l0,0c-0.3,0.3-0.7,0.7-1,1l0,0c-0.3,0.3-0.7,0.7-1,1l0,0c-0.3,0.3-0.7,0.7-1,1l0,0c-0.3,0.3-0.7,0.7-1,1
		l0,0c-0.3,0.3-0.7,0.7-1,1l0,0c-0.3,0.3-0.7,0.7-1,1l0,0c-0.3,0.3-0.7,0.7-1,1l0,0c-0.3,0.3-0.7,0.7-1,1l0,0c-0.3,0.3-0.7,0.7-1,1
		l0,0c-0.3,0.3-0.7,0.7-1,1l0,0c-0.3,0.3-0.7,0.7-1,1l0,0c-0.3,0.3-0.7,0.7-1,1l0,0c-0.3,0.3-0.7,0.7-1,1l0,0c-0.3,0.3-0.7,0.7-1,1
		l0,0c-0.3,0.3-0.7,0.7-1,1l0,0c-0.3,0.3-0.7,0.7-1,1l0,0c-0.3,0.3-0.7,0.7-1,1l0,0c-0.3,0.3-0.7,0.7-1,1l0,0c-0.3,0.3-0.7,0.7-1,1
		l0,0c-0.3,0.3-0.7,0.7-1,1l0,0c-0.3,0.3-0.7,0.7-1,1l0,0c-0.3,0.3-0.7,0.7-1,1l0,0c-0.3,0.3-0.7,0.7-1,1l0,0c-0.3,0.3-0.7,0.7-1,1
		l0,0c-0.3,0.3-0.7,0.7-1,1l0,0c-0.3,0.3-0.7,0.7-1,1l0,0c-0.3,0.3-0.7,0.7-1,1l0,0c-0.3,0.3-0.7,0.7-1,1l0,0c-0.3,0.3-0.7,0.7-1,1
		l0,0c-0.3,0.3-0.7,0.7-1,1l0,0c-0.3,0.3-0.7,0.7-1,1l0,0c-0.3,0.3-0.7,0.7-1,1l0,0c-0.3,0.3-0.7,0.7-1,1l0,0c-0.3,0.3-0.7,0.7-1,1
		l0,0c-0.3,0.3-0.7,0.7-1,1l0,0c-0.3,0.3-0.7,0.7-1,1l0,0c-0.3,0.3-0.7,0.7-1,1l0,0c-0.3,0.3-0.7,0.7-1,1l0,0c-0.3,0.3-0.7,0.7-1,1
		l0,0c-0.3,0.3-0.7,0.7-1,1l0,0c-0.3,0.3-0.7,0.7-1,1l0,0c-0.3,0.3-0.7,0.7-1,1l0,0c-0.3,0.3-0.7,0.7-1,1l0,0
		C37.7,137,37.4,137.1,37.2,137.2z"/>
	<path class="st5" d="M63.7,26c-0.3,1.5-1.4,3.3-0.9,4.4c2,4.4,4.3,8.6,6.8,12.7c1.6,2.8,1.4,4.7-1,6.9C61.4,56.6,54.4,63.3,46,69.5
		c0.2-2.5,0.2-5,0.5-7.5c0.7-6.8,1.6-13.6,2.3-20.4c0-0.5-1.3-1.1-2-1.7c1.1-8.2,2.2-16.4,3.6-24.5c0.3-1.4,2-3.2,3.4-3.7
		c1-0.3,3,1.2,3.8,2.4C59.8,18,61.7,22.1,63.7,26z"/>
	<path class="st6" d="M97.1,77c-1.8-1.2-4.2-2-5.2-3.6c-2.9-4.6-5.1-9.6-7.9-14.3c-1.5-2.5-3.3-4.8-5-7.2c2.4-4.6,4.6-9.2,7.1-13.7
		c2.5-4.6,5.5-4.7,7.9-0.1C98.8,47,103.4,56,108,65c0,0.6,0,1.3,0,1.9l0,0c-0.3,0.3-0.7,0.7-1,1l0,0c-0.3,0.3-0.7,0.7-1,1l0,0
		c-0.3,0.3-0.7,0.7-1,1l0,0c-0.3,0.3-0.7,0.7-1,1l0,0c-0.3,0.3-0.7,0.7-1,1l0,0c-0.3,0.3-0.7,0.7-1,1l0,0c-0.3,0.3-0.7,0.7-1,1l0,0
		c-0.3,0.3-0.7,0.7-1,1l0,0c-0.3,0.3-0.7,0.7-1,1l0,0c-0.3,0.3-0.7,0.7-1,1l0,0C97.7,77,97.4,77,97.1,77z"/>
	<path class="st1" d="M36,141c-0.3,2-0.7,4.1-1,6.1c-1-0.5-1.9-0.9-2.9-1.4c0.3-1.3,0.6-2.5,0.9-3.8l0,0c0.3-0.3,0.7-0.7,1-1h-0.1
		C34.6,141,35.3,141,36,141z"/>
	<path class="st7" d="M33,141.9c-0.3,1.3-0.6,2.5-0.9,3.8c-0.5-0.9-1.1-1.8-1.6-2.8C31.3,142.6,32.1,142.3,33,141.9z"/>
	<path class="st8" d="M33,141.9c-0.9,0.3-1.7,0.7-2.6,1c0.2-0.6,0.4-1.3,0.6-1.9c1.1-0.4,2.2-0.7,3.4-1.1c-0.1,0.3-0.3,0.7-0.4,1
		h0.1C33.6,141.3,33.3,141.6,33,141.9L33,141.9z"/>
	<path class="st7" d="M108,67c0-0.6,0-1.3,0-1.9c0.7,0,1.3-0.1,2-0.1c0,0.7,0,1.3,0,2C109.3,67,108.6,67,108,67z"/>
	<path class="st0" d="M47.1,154c0.6,0.4,1.2,0.7,1.9,1.1C48.3,154.7,47.7,154.4,47.1,154z"/>
	<path class="st1" d="M38.6,149.1c0.5,0.3,0.9,0.6,1.4,0.9C39.5,149.7,39,149.4,38.6,149.1z"/>
	<path class="st0" d="M45.7,153.1c0.4,0.3,0.9,0.6,1.3,0.8C46.5,153.7,46.1,153.4,45.7,153.1z"/>
	<path class="st7" d="M33.9,141c0.1-0.3,0.3-0.7,0.4-1c0.5-0.3,1.1-0.6,1.6-1c0,0.7,0,1.3,0,2C35.3,141,34.6,141,33.9,141z"/>
	<path class="st7" d="M102,73c0.3-0.3,0.7-0.7,1-1C102.7,72.3,102.3,72.7,102,73z"/>
	<path class="st7" d="M101,74c0.3-0.3,0.7-0.7,1-1C101.7,73.3,101.3,73.7,101,74z"/>
	<path class="st7" d="M100,75c0.3-0.3,0.7-0.7,1-1C100.7,74.3,100.3,74.7,100,75z"/>
	<path class="st7" d="M99,76c0.3-0.3,0.7-0.7,1-1C99.7,75.3,99.3,75.7,99,76z"/>
	<path class="st7" d="M98,77c0.3-0.3,0.7-0.7,1-1C98.7,76.3,98.3,76.7,98,77z"/>
	<path class="st7" d="M97.1,77c0.3,0,0.6,0,0.9-0.1c-0.4,0.3-0.7,0.7-1.1,1C96.9,77.7,97,77.3,97.1,77z"/>
	<path class="st7" d="M95.9,79c0.3-0.3,0.7-0.7,1-1C96.6,78.3,96.3,78.6,95.9,79z"/>
	<path class="st7" d="M94.9,80c0.3-0.3,0.7-0.7,1-1.1C95.6,79.3,95.3,79.6,94.9,80z"/>
	<path class="st7" d="M93.9,81c0.3-0.3,0.7-0.7,1-1C94.6,80.3,94.3,80.6,93.9,81z"/>
	<path class="st7" d="M93,82c0.3-0.3,0.7-0.7,1-1C93.6,81.3,93.3,81.6,93,82z"/>
	<path class="st7" d="M92,83c0.3-0.3,0.7-0.7,1-1C92.6,82.3,92.3,82.6,92,83z"/>
	<path class="st7" d="M91,84c0.3-0.3,0.7-0.7,1-1C91.6,83.3,91.3,83.6,91,84z"/>
	<path class="st7" d="M90,85c0.3-0.3,0.7-0.7,1-1C90.6,84.3,90.3,84.6,90,85z"/>
	<path class="st7" d="M89,86c0.3-0.3,0.7-0.7,1-1C89.6,85.3,89.3,85.6,89,86z"/>
	<path class="st7" d="M88,87c0.3-0.3,0.7-0.7,1-1C88.6,86.3,88.3,86.6,88,87z"/>
	<path class="st7" d="M87,88c0.3-0.3,0.7-0.7,1-1C87.6,87.3,87.3,87.6,87,88z"/>
	<path class="st7" d="M86,89c0.3-0.3,0.7-0.7,1-1C86.6,88.3,86.3,88.6,86,89z"/>
	<path class="st7" d="M85,90c0.3-0.3,0.7-0.7,1-1C85.6,89.3,85.3,89.6,85,90z"/>
	<path class="st7" d="M84,91c0.3-0.3,0.7-0.7,1-1C84.6,90.3,84.3,90.6,84,91z"/>
	<path class="st7" d="M83,92c0.3-0.3,0.7-0.7,1-1C83.6,91.3,83.3,91.6,83,92z"/>
	<path class="st7" d="M82,93c0.3-0.3,0.7-0.7,1-1C82.6,92.3,82.3,92.6,82,93z"/>
	<path class="st7" d="M81,94c0.3-0.3,0.7-0.7,1-1C81.6,93.3,81.3,93.6,81,94z"/>
	<path class="st7" d="M80,95c0.3-0.3,0.7-0.7,1-1C80.6,94.3,80.3,94.6,80,95z"/>
	<path class="st7" d="M79,96c0.3-0.3,0.7-0.7,1-1C79.6,95.3,79.3,95.6,79,96z"/>
	<path class="st7" d="M78,97c0.3-0.3,0.7-0.7,1-1C78.6,96.3,78.3,96.6,78,97z"/>
	<path class="st7" d="M77,98c0.3-0.3,0.7-0.7,1-1C77.6,97.3,77.3,97.6,77,98z"/>
	<path class="st7" d="M76,99c0.3-0.3,0.7-0.7,1-1C76.6,98.3,76.3,98.6,76,99z"/>
	<path class="st7" d="M75,100c0.3-0.3,0.7-0.7,1-1C75.6,99.3,75.3,99.6,75,100z"/>
	<path class="st7" d="M74,101c0.3-0.3,0.7-0.7,1-1C74.6,100.3,74.3,100.6,74,101z"/>
	<path class="st7" d="M73,102c0.3-0.3,0.7-0.7,1-1C73.6,101.3,73.3,101.6,73,102z"/>
	<path class="st7" d="M103,72c0.3-0.3,0.7-0.7,1-1C103.7,71.3,103.3,71.7,103,72z"/>
	<path class="st7" d="M71,104c0.3-0.3,0.7-0.7,1-1C71.6,103.3,71.3,103.6,71,104z"/>
	<path class="st7" d="M70,105c0.3-0.3,0.7-0.7,1-1C70.6,104.3,70.3,104.6,70,105z"/>
	<path class="st7" d="M69,106c0.3-0.3,0.7-0.7,1-1C69.6,105.3,69.3,105.6,69,106z"/>
	<path class="st7" d="M68,107c0.3-0.3,0.7-0.7,1-1C68.6,106.3,68.3,106.6,68,107z"/>
	<path class="st7" d="M67,108c0.3-0.3,0.7-0.7,1-1C67.6,107.3,67.3,107.6,67,108z"/>
	<path class="st7" d="M66,109c0.3-0.3,0.7-0.7,1-1C66.6,108.3,66.3,108.6,66,109z"/>
	<path class="st7" d="M65,110c0.3-0.3,0.7-0.7,1-1C65.6,109.3,65.3,109.6,65,110z"/>
	<path class="st7" d="M64,111c0.3-0.3,0.7-0.7,1-1C64.6,110.3,64.3,110.6,64,111z"/>
	<path class="st7" d="M63,112c0.3-0.3,0.7-0.7,1-1C63.6,111.3,63.3,111.6,63,112z"/>
	<path class="st7" d="M62,113c0.3-0.3,0.7-0.7,1-1C62.6,112.3,62.3,112.6,62,113z"/>
	<path class="st7" d="M61,114c0.3-0.3,0.7-0.7,1-1C61.6,113.3,61.3,113.6,61,114z"/>
	<path class="st7" d="M60,115c0.3-0.3,0.7-0.7,1-1C60.6,114.3,60.3,114.6,60,115z"/>
	<path class="st7" d="M59,116c0.3-0.3,0.7-0.7,1-1C59.6,115.3,59.3,115.6,59,116z"/>
	<path class="st7" d="M58,117c0.3-0.3,0.7-0.7,1-1C58.6,116.3,58.3,116.6,58,117z"/>
	<path class="st7" d="M57,118c0.3-0.3,0.7-0.7,1-1C57.6,117.3,57.3,117.6,57,118z"/>
	<path class="st7" d="M56,119c0.3-0.3,0.7-0.7,1-1C56.6,118.3,56.3,118.6,56,119z"/>
	<path class="st7" d="M55,120c0.3-0.3,0.7-0.7,1-1C55.7,119.3,55.3,119.7,55,120z"/>
	<path class="st7" d="M54,121c0.3-0.3,0.7-0.7,1-1C54.7,120.3,54.3,120.7,54,121z"/>
	<path class="st7" d="M53,122c0.3-0.3,0.7-0.7,1-1C53.7,121.3,53.3,121.7,53,122z"/>
	<path class="st7" d="M52,123c0.3-0.3,0.7-0.7,1-1C52.7,122.3,52.3,122.7,52,123z"/>
	<path class="st7" d="M51,124c0.3-0.3,0.7-0.7,1-1C51.7,123.3,51.3,123.7,51,124z"/>
	<path class="st7" d="M50,125c0.3-0.3,0.7-0.7,1-1C50.7,124.3,50.3,124.7,50,125z"/>
	<path class="st7" d="M49,126c0.3-0.3,0.7-0.7,1-1C49.7,125.3,49.3,125.7,49,126z"/>
	<path class="st7" d="M48,127c0.3-0.3,0.7-0.7,1-1C48.7,126.3,48.3,126.7,48,127z"/>
	<path class="st7" d="M47,128c0.3-0.3,0.7-0.7,1-1C47.7,127.3,47.3,127.7,47,128z"/>
	<path class="st7" d="M46,129c0.3-0.3,0.7-0.7,1-1C46.7,128.3,46.3,128.7,46,129z"/>
	<path class="st7" d="M45,130c0.3-0.3,0.7-0.7,1-1C45.7,129.3,45.3,129.7,45,130z"/>
	<path class="st7" d="M44,131c0.3-0.3,0.7-0.7,1-1C44.7,130.3,44.3,130.7,44,131z"/>
	<path class="st7" d="M43,132c0.3-0.3,0.7-0.7,1-1C43.7,131.3,43.3,131.7,43,132z"/>
	<path class="st7" d="M42,133c0.3-0.3,0.7-0.7,1-1C42.7,132.3,42.3,132.7,42,133z"/>
	<path class="st7" d="M41,134c0.3-0.3,0.7-0.7,1-1C41.7,133.3,41.3,133.7,41,134z"/>
	<path class="st7" d="M40,135c0.3-0.3,0.7-0.7,1-1C40.7,134.3,40.3,134.7,40,135z"/>
	<path class="st7" d="M39,136c0.3-0.3,0.7-0.7,1-1C39.7,135.3,39.3,135.7,39,136z"/>
	<path class="st7" d="M38,137c0.3-0.3,0.7-0.7,1-1C38.7,136.3,38.3,136.7,38,137z"/>
	<path class="st7" d="M37.2,137.2c0.3-0.1,0.5-0.2,0.8-0.3c-0.3,0.3-0.7,0.7-1,1C37.1,137.7,37.1,137.5,37.2,137.2z"/>
	<path class="st7" d="M36,139c0.3-0.3,0.7-0.7,1-1C36.7,138.3,36.3,138.7,36,139z"/>
	<path class="st7" d="M104,71c0.3-0.3,0.7-0.7,1-1C104.7,70.3,104.3,70.7,104,71z"/>
	<path class="st7" d="M105,70c0.3-0.3,0.7-0.7,1-1C105.7,69.3,105.3,69.7,105,70z"/>
	<path class="st7" d="M106,69c0.3-0.3,0.7-0.7,1-1C106.7,68.3,106.3,68.7,106,69z"/>
	<path class="st7" d="M107,68c0.3-0.3,0.7-0.7,1-1C107.7,67.3,107.3,67.7,107,68z"/>
	<path class="st7" d="M72,103c0.3-0.3,0.7-0.7,1-1C72.6,102.3,72.3,102.6,72,103z"/>
	<path class="st7" d="M32.9,142c0.3-0.3,0.7-0.7,1-1C33.6,141.3,33.3,141.6,32.9,142z"/>
</g>
</svg>
