<?xml version="1.0" encoding="utf-8"?>
<!-- Generator: Adobe Illustrator 24.1.2, SVG Export Plug-In . SVG Version: 6.00 Build 0)  -->
<svg version="1.1" id="Layer_1" xmlns="http://www.w3.org/2000/svg" xmlns:xlink="http://www.w3.org/1999/xlink" x="0px" y="0px"
	 viewBox="0 0 1999.66 2718.41" style="enable-background:new 0 0 1999.66 2718.41;" xml:space="preserve">
<style type="text/css">
	.st0{fill:#F6D2A2;}
	.st1{fill:#69D7E2;}
	.st2{fill:#FFFFFF;}
	.st3{fill:#231F20;}
</style>
<path class="st0" d="M106.81,1460.9c3.58,73.7,77.28,39.36,110.2,16.46c31.49-22.18,40.79-3.58,43.65-46.51
	c2.15-28.62,5.01-56.53,3.58-85.15c-47.94-4.3-99.46,7.15-138.82,35.77C104.66,1395.79,67.45,1443.02,106.81,1460.9
	 M1575.86,2366.81c56.53,35.06,160.29,140.97,75.13,192.49c-81.58,74.42-127.37-82.3-198.93-103.76
	C1482.83,2413.32,1521.47,2374.68,1575.86,2366.81z M564.05,2486.31c-66.55,10.02-103.76,70.13-159.57,100.9
	c-52.24,30.77-72.27-10.02-76.57-18.61c-7.87-3.58-7.15,3.58-20.04-9.3c-48.65-76.57,50.09-132.38,101.61-170.31
	C481.05,2374.68,526.13,2436.93,564.05,2486.31L564.05,2486.31z M1889.99,1451.6c-3.58,73.7-77.28,39.36-110.2,16.46
	c-31.49-22.18-40.79-3.58-43.65-46.51c-2.16-28.62-5.01-56.53-3.58-85.15c47.94-4.3,99.46,7.15,138.82,35.77
	C1891.43,1386.48,1929.35,1433.71,1889.99,1451.6"/>
<path class="st1" d="M1694.64,552.86c255.46-90.16,55.82-440.07-166.73-285.51c-145.97-125.22-347.04-148.13-558.14-148.13
	c-206.79,16.47-403.57,54.39-540.96,174.6C206.98,150.7,2.33,494.17,262.79,580.76c-72.99,283.36,10.01,572.45-1.44,860.82
	c-10.73,259.04-78.71,606.08,65.12,838.64c122.37,198.93,385.69,269.77,602.51,277.65c276.92,10.01,612.52-57.96,747.04-326.3
	c128.8-255.46,93.03-573.88,76.57-849.37C1736.14,1103.84,1766.91,821.19,1694.64,552.86L1694.64,552.86z"/>
<path d="M1909.31,1407.95c-7.15-15.03-20.75-32.2-33.63-41.51c-32.92-23.61-75.14-36.49-118.79-37.92
	c-1.43-44.37-2.86-93.03-2.86-154.56v-55.82c-0.72-176.03-2.87-253.31-12.88-349.91c-7.87-75.84-20.04-145.97-37.21-211.8
	c57.96-22.18,95.89-58.68,110.91-105.91c14.31-43.65,7.15-93.02-17.17-136.67c-25.05-42.94-65.12-75.14-111.63-88.01
	c-50.09-13.6-104.47-3.58-156.71,31.48c-46.51-39.35-100.18-69.41-160.29-92.31c-106.62-39.34-230.41-54.37-398.57-54.37v7.15
	l-0.72-7.15c-179.6,14.31-312.7,42.22-422.9,95.89c-44.37,21.46-83.72,47.22-118.06,77.28c-52.96-32.92-108.06-40.79-158.86-25.04
	c-47.22,14.31-88.01,47.94-112.34,91.59s-30.06,93.74-13.6,136.68c16.46,42.93,54.38,76.56,110.91,97.32
	c-17.89,72.27-27.19,148.84-28.62,233.27c-1.44,82.29,2.14,148.13,15.02,296.96c9.3,110.91,12.88,161.72,14.32,223.26
	c-48.66-2.15-97.32,10.73-133.82,37.21c-12.88,9.3-27.19,25.76-33.63,41.5c-9.3,20.04-5.73,37.93,12.88,48.66
	c2.86,34.34,22.18,50.08,51.52,47.22c21.46-2.15,47.22-13.6,69.41-29.34c4.69-3.39,9.72-6.27,15.03-8.58
	c2.15-0.72,3.58-1.44,5.73-2.16c0,0,4.29-1.42,5.73-2.14c2.14-0.72,4.29-1.44,5.72-2.87c-1.43,33.63-4.29,68.7-10.73,148.84
	c-7.15,90.15-10.73,139.53-12.16,194.63c-6.44,204.65,17.89,353.48,90.87,471.55c22.9,37.21,50.81,70.13,83.72,100.18
	c-6.44,4.29-33.63,24.33-42.22,30.77c-30.06,22.9-50.8,42.22-62.97,63.68c-15.74,27.91-15.74,55.82,2.15,85.15l0.72,0.72l0.72,0.72
	c7.87,7.87,12.16,10.01,17.89,10.01h2.13c0.72,1.44,1.44,2.15,2.16,3.58c2.14,3.58,4.29,6.44,6.44,9.3
	c17.89,20.75,42.93,25.76,76.56,5.73c17.89-9.3,30.77-20.04,57.96-42.94l1.44-1.44c43.65-37.2,65.11-50.8,97.32-55.81l11.45-2.15
	c4.29,2.16,8.58,3.58,13.59,5.73c101.61,40.79,219.67,62.97,339.18,67.27c154.56,5.73,303.4-13.6,429.33-59.39
	c33.63-12.16,65.12-26.48,95.18-42.22c18.61,7.16,34.34,22.18,64.4,57.25c1.43,1.44,1.43,1.44,2.14,2.86
	c1.44,1.44,1.44,2.16,2.16,2.87c1.42,2.15,3.57,3.58,5,5.73c23.62,27.9,39.37,41.5,57.25,49.37c23.61,10.01,46.51,5.01,70.12-16.46
	c41.51-25.76,44.37-65.83,17.17-111.63c-19.32-32.2-52.94-65.83-84.43-87.29c37.21-36.49,69.41-80.14,94.45-129.52
	c68.7-137.39,95.18-297.67,93.75-503.76c-0.72-72.99-3.58-136.67-11.45-258.32v-3.57c3.58,1.43,7.15,3.58,10.73,6.44
	c22.18,15.03,47.94,27.19,69.41,29.34c29.34,2.87,48.66-12.88,51.52-47.22C1915.03,1445.88,1918.6,1428,1909.31,1407.95
	L1909.31,1407.95z M1681.77,240.86c42.94,11.45,80.15,41.51,103.04,81.58c22.9,40.07,29.34,85.15,16.46,125.22
	c-13.59,42.22-47.94,75.85-101.61,95.89c-10.7-38.31-23.36-76.05-37.92-113.06c20.75-17.89,30.77-40.07,14.31-71.55
	c-16.45-31.49-45.08-35.07-74.42-25.77c-18.61-24.33-39.35-45.8-60.82-65.83C1588.03,237.29,1636.69,228.7,1681.77,240.86
	L1681.77,240.86z M156.19,482.73c-15.03-38.65-10.02-84.44,12.88-124.51c22.89-40.08,60.11-71.56,104.47-84.44
	c45.8-13.6,95.17-7.16,143.83,21.46c-28.14,25.29-53.13,53.88-74.42,85.15c-37.21-19.32-75.13-22.9-96.6,16.45
	c-22.18,42.23,3.58,68.7,40.07,88.73c-5.01,12.17-10.02,25.05-14.31,37.93c-5.01,15.74-10.02,32.2-14.31,48.65
	C205.56,552.14,171.22,521.37,156.19,482.73L156.19,482.73z M242.77,1458.05c-0.72,0-5.01,1.43-5.01,2.14
	c-2.14,0.72-4.29,1.44-6.44,2.87c-5.73,2.15-11.45,5.73-17.17,10.01c-20.04,14.32-44.37,25.05-62.98,26.48
	c-21.46,2.15-33.63-7.15-35.77-32.92c15.03-5.01,21.46-8.58,27.19-17.17l-11.45-8.59c-4.29,5.73-8.58,7.87-21.46,12.16
	c-0.72,0-0.72,0-1.44,0.72c-11.44-6.44-13.59-16.46-7.15-30.77c5.73-12.88,18.61-27.91,29.34-35.77
	c34.34-25.05,80.14-37.21,125.94-34.35c0,17.89,0.72,35.77,0,52.94c0,2.16,0,3.58-0.72,5.73c-0.71,10.01-0.71,14.31-1.43,19.32
	C252.08,1451.6,250.64,1454.46,242.77,1458.05L242.77,1458.05z M458.87,2537.83l-1.44,1.44c-26.47,22.89-39.35,32.2-55.81,41.5
	c-27.19,16.46-45.8,12.88-58.68-2.86c-2.15-2.16-3.58-5.01-5.01-7.16c-0.72-0.72-1.44-2.14-2.15-2.86v-0.72
	c1.44-12.88,6.44-22.18,19.32-42.22c0.72-0.72,0.72-0.72,0.72-1.43c7.87-11.45,11.44-17.89,15.02-25.76l-12.88-5.73
	c-2.86,6.44-6.44,12.17-13.6,23.61c-0.72,0.72-0.72,0.72-0.72,1.44c-12.87,18.61-18.61,30.05-21.46,42.93h-0.72h-2.15
	c-1.44-0.72-3.58-2.15-6.44-5.01c-27.91-44.37-5.73-82.29,57.24-129.52c7.87-5.72,34.35-24.32,41.51-30.05
	c1.44,0,2.86-0.72,4.3-1.44c38.63,32.92,83.72,61.54,133.81,85.15c0,0.72,0.72,1.44,1.43,2.16
	C521.83,2488.45,498.93,2503.48,458.87,2537.83L458.87,2537.83z M1660.3,2459.83c22.18,37.21,21.46,67.26-6.44,88.01
	c-2.14-4.3-3.58-9.3-6.44-16.46c0-0.72,0-0.72-0.72-1.44c-10.01-27.19-16.45-38.63-28.62-51.51l-10.02,10.01
	c10.73,10.02,15.75,20.75,25.76,45.8c0,0.72,0,0.72,0.72,1.44c3.58,9.3,5.73,15.02,7.87,20.04c-18.61,15.74-35.06,18.61-52.24,10.73
	c-15.03-6.44-29.34-20.04-52.24-45.8c-1.43-1.44-2.86-3.58-4.29-5.73c-0.72-0.72-1.44-1.44-2.16-2.87
	c-1.42-1.43-1.42-1.43-2.14-2.86c-26.48-30.77-42.22-47.22-59.39-56.53c40.08-22.89,75.86-48.65,108.06-78.71
	C1608.06,2396.14,1641.7,2429.06,1660.3,2459.83L1660.3,2459.83z M1670.32,2227.99c-61.53,123.79-170.3,211.09-316.28,264.04
	c-124.51,45.08-271.91,63.69-424.33,57.96c-262.61-9.3-490.16-100.89-596.78-274.06c-71.56-115.21-95.18-261.9-88.73-463.69
	c2.15-55.1,5.01-104.47,12.16-194.63c7.87-101.61,10.02-130.95,12.17-176.75c1.43-32.92,1.43-66.55,0.72-102.32
	c-1.44-62.97-5.01-113.06-14.32-225.41c-12.88-148.84-16.46-213.96-15.03-295.53c2.16-107.32,16.46-201.79,46.51-291.22
	c48.64-145.27,138.1-243.31,266.9-306.98c108.05-52.94,239-80.14,417.17-94.46c166.73,0,288.37,15.03,393.56,53.67
	c125.94,46.51,219.67,128.08,284.08,253.32c41.51,101.6,65.84,211.09,78.72,337.03c10.01,95.89,12.16,173.17,12.88,348.48v55.82
	c0.72,86.58,2.14,147.41,5.73,208.23c1.43,23.61,2.14,33.63,5.72,90.16c7.87,121.65,10.74,184.62,11.45,257.6
	C1764.06,1934.61,1738.29,2092.74,1670.32,2227.99L1670.32,2227.99z M1889.28,1444.45c-0.72,0-1.43-0.72-2.14-0.72
	c-12.88-4.29-17.18-7.15-21.47-12.16l-11.45,8.58c6.44,8.59,12.88,12.17,27.2,17.17c-2.87,25.77-15.03,35.07-35.77,32.92
	c-18.61-1.44-42.94-12.88-62.98-26.48c-5.73-4.29-11.44-7.15-17.17-10.01c-0.72,0-1.44-0.72-2.16-0.72
	c-2.86-39.35-2.86-49.37-4.29-70.13l-2.15-38.64c40.08,0.72,79.43,12.88,109.48,35.06c10.74,7.87,23.62,22.9,29.35,35.77
	C1902.88,1427.27,1901.45,1438,1889.28,1444.45L1889.28,1444.45z"/>
<path class="st2" d="M1078.26,857.18c0.72,36.49,7.87,76.56,1.43,115.2c-10.02,18.61-28.62,20.76-45.08,27.91
	c-22.9-3.58-42.23-18.61-51.52-40.07c-5.73-43.65,1.43-85.15,3.58-128.8c0-1.44,27.19,0.72,51.52,7.87
	C1058.94,845.73,1078.26,856.46,1078.26,857.18L1078.26,857.18z M875.76,860.04c-20.04,75.86,26.48,199.65,103.04,98.03
	c-5.73-42.94,0.72-84.44,2.86-126.65C982.37,827.84,876.47,855.03,875.76,860.04L875.76,860.04z"/>
<path d="M1086.85,890.81c-1.44-21.47-2.15-30.06-2.15-40.79v-5.01l-5.01-1.44l-90.16-27.9v-5.01l-9.3,2.16h-0.72v0.71l-101.6,25.76
	l-3.58,0.72l-1.44,3.57c-15.74,37.93-12.16,95.18,7.87,130.24c22.9,40.07,60.11,40.78,98.03-5.01
	c10.72,20.69,30.64,35.04,53.66,38.65h2.16l2.14-0.72c2.87-1.44,5.73-2.16,10.74-4.3c0.72,0,0.72,0,1.43-0.72
	c20.75-7.15,29.34-12.88,36.49-26.47l0.72-0.72v-1.43c2.14-12.88,2.86-26.48,2.86-41.5
	C1088.99,920.86,1088.27,910.84,1086.85,890.81L1086.85,890.81z M972.35,864.34c-0.72,12.88-1.43,17.89-2.14,25.04
	c-1.44,26.48-1.44,46.51,0.72,66.55c-33.64,42.94-60.11,42.94-78,10.73c-17.18-30.05-20.76-80.86-7.87-114.48l90.15-22.9
	C974.5,838.58,973.79,847.88,972.35,864.34z M1072.54,970.24c-5.01,8.58-11.45,12.88-28.63,18.61c-0.72,0-0.72,0-1.43,0.71
	c-4.29,1.44-7.15,2.86-9.3,3.58c-19.32-3.58-35.77-16.46-43.65-34.34c-2.15-19.32-2.15-39.36-0.72-65.83
	c0.72-7.16,0.72-12.17,2.16-25.05c1.42-16.45,2.14-26.47,2.14-35.77l78,23.61c0,9.3,0.72,17.89,2.15,36.49
	c1.43,19.32,2.14,29.34,2.14,40.79C1075.39,946.62,1074.68,958.79,1072.54,970.24z"/>
<g transform="translate(48.476 21.976)">
	<path class="st2" d="M396.54,523.45c65.83,256.17,475.85,190.34,460.11-66.55C838.04,149.21,333.57,208.6,396.54,523.45"/>
	<path d="M863.81,456.18c-4.3-74.42-37.21-132.38-91.59-168.87c-48.66-32.92-113.06-45.8-176.75-37.93
		c-63.68,8.6-122.37,37.22-161.01,82.3c-42.93,50.08-59.39,115.91-44.36,191.77l6.44-1.44l-6.44,1.44
		C457.37,786.77,879.55,723.09,863.81,456.18z M402.98,522.02c-14.31-72.27,1.44-133.81,41.51-180.32
		c36.49-42.22,91.59-70.12,152.41-77.99s121.65,4.3,167.45,35.77c50.8,34.35,81.57,88.02,85.86,158.86
		C865.24,708.07,466.67,768.18,402.98,522.02L402.98,522.02z"/>
	<ellipse cx="509.61" cy="481.23" rx="69.41" ry="75.13"/>
	<ellipse class="st2" cx="541.08" cy="498.4" rx="16.46" ry="19.32"/>
</g>
<g transform="translate(129.618 18.098)">
	<path class="st2" d="M890.42,479.44c50.81,294.1,531.66,216.1,462.26-80.15C1290.42,133.1,873.24,206.8,890.42,479.44"/>
	<path d="M1359.11,397.86c-63.68-274.06-493.01-198.93-475.84,82.29v0.72c23.61,138.82,147.41,209.66,284.08,186.76
		c62.25-10.73,118.06-40.78,154.56-85.15C1361.97,533.1,1376.28,469.42,1359.11,397.86L1359.11,397.86z M1311.18,573.89
		c-34.35,41.51-86.58,70.13-145.98,80.15c-129.52,21.46-245.44-45.08-268.34-175.32c-15.75-264.76,389.26-335.6,449.37-78
		C1361.98,468.7,1349.1,528.09,1311.18,573.89z"/>
	<ellipse cx="1008.49" cy="466.56" rx="67.98" ry="75.13"/>
	<ellipse class="st2" cx="1039.97" cy="483.72" rx="15.74" ry="19.32"/>
</g>
<g>
	<path class="st0" d="M890.53,705.46c-56.53,5.01-102.33,71.56-72.99,124.51c38.63,70.13,125.22-6.44,178.89,0.72
		c62.25,1.44,113.06,65.83,162.44,11.45c55.1-60.11-23.61-118.79-85.87-144.55L890.53,705.46L890.53,705.46z"/>
	<path class="st3" d="M1166.02,753.4c-19.32-24.33-52.95-46.51-89.45-61.54l-1.43-0.72h-1.43l-183.18,7.16
		c-63.69,5.73-109.48,79.43-78.72,135.24c12.17,21.47,28.63,32.2,50.81,33.63c16.45,0.72,33.63-2.86,60.11-12.16
		c2.15-0.72,5.01-1.44,8.58-2.87c35.78-12.16,50.09-15.74,64.4-13.59h0.72c17.17,0,31.49,5.01,58.68,15.74
		c30.06,12.16,39.36,15.75,54.38,17.17c20.76,1.44,38.65-5.72,55.1-23.61C1192.49,817.08,1191.06,784.17,1166.02,753.4
		L1166.02,753.4z M1153.85,837.84c-13.59,15.03-27.19,20.04-43.65,19.32c-12.88-0.72-21.46-4.3-50.09-15.75
		c-28.62-12.16-44.36-16.45-62.96-17.17c-17.89-2.16-32.92,1.43-70.84,14.31c-3.58,1.43-6.44,2.15-8.58,2.86
		c-52.24,17.89-77.28,16.46-94.46-15.03c-25.76-46.51,13.6-109.48,67.27-114.48l181.03-7.16c34.35,14.32,65.12,35.06,83.01,57.25
		C1176.04,787.74,1176.75,813.5,1153.85,837.84L1153.85,837.84z"/>
	<path d="M1087.31,674.69c-22.18-81.58-208.23-69.41-203.94,27.91C892.67,774.86,1108.78,755.54,1087.31,674.69z"/>
</g>
</svg>
