<?xml version="1.0" encoding="utf-8"?>
<!-- Generator: Adobe Illustrator 24.1.2, SVG Export Plug-In . SVG Version: 6.00 Build 0)  -->
<svg version="1.1" id="Layer_1" xmlns="http://www.w3.org/2000/svg" xmlns:xlink="http://www.w3.org/1999/xlink" x="0px" y="0px"
	 viewBox="0 0 883.31 883.31" style="enable-background:new 0 0 883.31 883.31;" xml:space="preserve">
<style type="text/css">
	.st0{fill:#430098;}
</style>
<g id="Page-1">
	<g id="main" transform="translate(-25 -23)">
		<g id="nav" transform="translate(25 23)">
			<path id="logo" class="st0" d="M692.69,92.16H191.16c-34.95,0-62.91,27.96-62.91,62.91v573.18c0,34.95,27.96,62.91,62.91,62.91
				h501.53c34.95,0,62.91-27.96,62.91-62.91V155.07C755.6,120.12,727.64,92.16,692.69,92.16z M720.65,728.25
				c0,15.73-12.23,27.96-27.96,27.96H191.16c-15.73,0-27.96-12.23-27.96-27.96V155.07c0-15.73,12.23-27.96,27.96-27.96h501.53
				c15.73,0,27.96,12.23,27.96,27.96V728.25L720.65,728.25z M285.52,686.31l78.64-69.9l-78.64-69.9V686.31z M568.62,403.21
				c-13.98-13.98-40.19-31.46-83.88-31.46c-47.18,0-96.11,12.23-131.06,24.46V197.01h-68.15v302.32l48.93-22.72
				c0,0,80.38-36.7,150.29-36.7c34.95,0,43.69,19.22,43.69,36.7v209.7h69.9v-209.7C598.33,471.36,598.33,432.92,568.62,403.21z
				 M476,310.59h69.9c31.46-36.7,47.18-73.39,52.42-113.59h-69.9C521.44,237.2,503.96,273.9,476,310.59z"/>
		</g>
	</g>
</g>
</svg>
