<?xml version="1.0" encoding="utf-8"?>
<!-- Generator: Adobe Illustrator 24.1.2, SVG Export Plug-In . SVG Version: 6.00 Build 0)  -->
<svg version="1.1" id="Layer_1" xmlns="http://www.w3.org/2000/svg" xmlns:xlink="http://www.w3.org/1999/xlink" x="0px" y="0px"
	 viewBox="0 0 2003.04 2824.36" style="enable-background:new 0 0 2003.04 2824.36;" xml:space="preserve">
<style type="text/css">
	.st0{fill:#E44D26;}
	.st1{fill:#F16529;}
	.st2{fill:#EBEBEB;}
	.st3{fill:#FFFFFF;}
</style>
<path class="st0" d="M1884.79,652.25L1723.84,2455.3l-723.48,200.57l-721.48-200.29L118.1,652.25H1884.79L1884.79,652.25z"/>
<path class="st1" d="M1001.44,2502.55l584.61-162.07l137.53-1540.79h-722.14V2502.55z"/>
<path class="st2" d="M688.56,1242.04h312.88v-221.17H446.85l5.29,59.34l54.36,609.49h494.94v-221.17H708.78L688.56,1242.04z
	 M738.41,1800.28H516.39l30.98,347.27l453.05,125.76l1.02-0.28v-230.11l-0.97,0.26l-246.32-66.51L738.41,1800.28L738.41,1800.28z"/>
<path d="M282.47,162.18h112.4v111.05h102.82V162.18h112.4v336.27h-112.4v-112.6H394.87v112.6h-112.4L282.47,162.18L282.47,162.18z
	 M757.88,273.7h-98.93V162.18H969.3V273.7h-99v224.76h-112.4V273.7h-0.01H757.88z M1018.55,162.18h117.2l72.09,118.16l72.02-118.16
	h117.24v336.27h-111.94V331.78l-77.33,119.56h-1.94l-77.38-119.56v166.68h-109.97V162.18z M1453.04,162.18h112.43V387.3h158.06
	v111.15h-270.5L1453.04,162.18L1453.04,162.18z"/>
<path class="st3" d="M1000.68,1689.69h272.35l-25.68,286.84l-246.68,66.58v230.1l453.41-125.66l3.32-37.37l51.98-582.27l5.39-59.39
	h-514.11V1689.69L1000.68,1689.69z M1000.68,1241.5v0.54h534.23l4.43-49.71l10.08-112.13l5.28-59.34h-554.03V1241.5L1000.68,1241.5z
	"/>
</svg>
