<?xml version="1.0" encoding="utf-8"?>
<!-- Generator: Adobe Illustrator 24.1.2, SVG Export Plug-In . SVG Version: 6.00 Build 0)  -->
<svg version="1.1" id="Layer_1" xmlns="http://www.w3.org/2000/svg" xmlns:xlink="http://www.w3.org/1999/xlink" x="0px" y="0px"
	 viewBox="0 0 3000 3000" style="enable-background:new 0 0 3000 3000;" xml:space="preserve">
<style type="text/css">
	.st0{fill:url(#SVGID_1_);}
	.st1{fill:#FF7F18;}
</style>
<radialGradient id="SVGID_1_" cx="633.0626" cy="1555.4633" r="0.76" gradientTransform="matrix(2291.6716 0 0 -2218.7549 -1449662.5 3452076.75)" gradientUnits="userSpaceOnUse">
	<stop  offset="0" style="stop-color:#423325;stop-opacity:0.98"/>
	<stop  offset="1" style="stop-color:#1C0A00"/>
</radialGradient>
<path class="st0" d="M354.16,385.41h2291.67v2229.17H354.16V385.41z"/>
<path class="st1" d="M354.16,385.41h2291.67v2229.17H354.16V385.41z M250,2718.75h2500V281.24H250V2718.75z M1887.5,1150
	c0-8.33,3.12-12.5,12.5-12.5h163.54c8.33,0,12.5,3.12,12.5,12.5v821.88c0,8.33-2.08,12.5-12.5,12.5h-161.46
	c-10.42,0-13.54-5.21-13.54-13.54V1150L1887.5,1150L1887.5,1150z M1876.04,913.54c0-66.67,46.87-106.25,106.25-106.25
	c63.54,0,106.25,42.71,106.25,106.25c0,68.75-44.79,106.25-108.33,106.25C1919.79,1019.79,1876.04,982.28,1876.04,913.54z
	 M1407.29,1492.71c-29.16-115.63-97.91-367.71-123.96-489.59h-2.08c-21.88,121.88-77.08,328.12-120.83,489.59H1407.29z
	 M1117.71,1661.46l-82.29,312.5c-2.08,8.33-5.21,10.41-15.62,10.41H866.67c-10.42,0-12.5-3.12-10.42-15.62l295.83-1035.42
	c5.21-18.75,8.33-35.42,10.42-86.46c0-7.29,3.12-10.42,8.33-10.42h218.75c7.29,0,10.42,2.08,12.5,10.42l331.25,1123.96
	c2.08,8.33,0,13.54-8.33,13.54h-172.92c-8.33,0-13.54-2.08-15.62-9.37l-85.42-313.54H1117.71L1117.71,1661.46z"/>
</svg>
