<?xml version="1.0" encoding="utf-8"?>
<!-- Generator: Adobe Illustrator 24.1.2, SVG Export Plug-In . SVG Version: 6.00 Build 0)  -->
<svg version="1.1" id="Layer_1" xmlns="http://www.w3.org/2000/svg" xmlns:xlink="http://www.w3.org/1999/xlink" x="0px" y="0px"
	 viewBox="0 0 559.46 559.46" style="enable-background:new 0 0 559.46 559.46;" xml:space="preserve">
<style type="text/css">
	.st0{fill:#F7F7F7;}
	.st1{fill:#DBDBDE;}
	.st2{fill:#EDEDEE;}
	.st3{fill:#E2E2E4;}
	.st4{fill:#E3E2E4;}
	.st5{fill:#FDFDFE;}
	.st6{fill:#5849BD;}
</style>
<g>
	<path class="st0" d="M280.78,529.73C142.86,531.04,33.47,416.91,31.59,285.95c-0.75-52.4,13.32-100.85,43.01-143.47
		c43.08-61.84,102.7-99.24,178.15-107.56c69.58-7.67,132.34,11.54,185.78,56.9c60.3,51.19,90.36,117.27,89.04,196.43
		C525.43,416.58,417.07,529.94,280.78,529.73z M81.61,423.71c1,1.33,2,2.67,3,4s2,2.67,3,4c1.34,1.66,2.67,3.33,4.01,4.99
		c0.33,0.33,0.67,0.67,1,1c1.33,1.67,2.66,3.34,3.99,5.01c1.33,1.33,2.67,2.67,4,4c3.55,4.38,7,8.85,10.73,13.06
		c0.95,1.07,2.83,1.32,4.28,1.94c0.67,0.67,1.33,1.33,2,2c2.33,2,4.67,4,7,6c1.66,1.34,3.33,2.67,4.99,4.01c2.67,2,5.33,4,8,6
		c2.33,1.67,4.67,3.33,7,5c1,0.67,2,1.33,3,2c0.54,0.77,0.92,1.79,1.65,2.27c18,11.87,37.57,20.41,58.03,26.98
		c0.6,0.19,1.58-0.78,2.38-1.21c0.33-0.32,0.67-0.64,1-0.97c0.64,0.31,1.29,0.63,1.93,0.94c0,0.33,0,0.66,0,0.99
		c-0.12,0.52-0.25,1.04-0.37,1.55c0.81-0.18,1.61-0.36,2.42-0.54c1.32,0.01,2.65,0.02,3.97,0.03c0.94,1.12,1.68,2.87,2.84,3.22
		c2.97,0.91,6.12,1.19,9.2,1.72c0.66,0,1.33-0.01,1.99-0.01c5.48,2.18,11,4.07,16.99,2.03c0.67,0.32,1.34,0.64,2.01,0.97
		c2.01,0.34,4.01,0.67,6.02,1.01c1.33,0,2.66-0.01,3.99-0.01c4.61,1.26,9.26,2.86,13.02-1.86c0.3-0.01,0.6-0.02,0.9-0.04
		c2.8,2.76,6.38,2.76,9.17,0c0.96,0.02,1.91,0.03,2.87,0.05c2.33,3.75,6.12,4.09,10.07,0.91c1-0.01,1.99-0.02,2.99-0.02
		c5.14,1.69,10.12,1.17,14.99-1.03c0.66,0,1.33,0.01,1.99,0.01c7.34-1.67,14.68-3.34,22.02-5.01c0.66,0,1.33,0.01,1.99,0.01
		c7.89-2.43,15.81-4.74,23.63-7.38c1.98-0.67,3.61-2.36,5.41-3.59c0.99-0.34,1.98-0.67,2.97-1.01c0.87,0.2,1.96,0.85,2.57,0.54
		c9.37-4.79,18.74-9.59,27.95-14.67c2.75-1.51,5.02-3.89,7.51-5.88c1-0.67,2-1.33,3-2c2.66-1.67,5.33-3.34,7.99-5.02
		c0.67-0.66,1.34-1.32,2.01-1.99c1.66-1.34,3.32-2.68,4.99-4.02c1.67-1.33,3.33-2.67,5-4c0.33-0.33,0.67-0.67,1-1
		c1.67-1.33,3.33-2.67,5-4c0.67-0.67,1.33-1.33,2-2c0.33-0.33,0.67-0.67,1-1c2.98-2.14,6.27-3.97,8.84-6.52
		c2.45-2.43,4.14-5.63,6.17-8.49c0.67-0.67,1.33-1.33,2-2s1.33-1.33,2-2c1.33-1.67,2.67-3.33,4-5c0.33-0.33,0.67-0.67,1-1
		c1.33-1.67,2.67-3.33,4-5c4-1.17,5.45-4.25,6-8c1.67-2.33,3.33-4.67,5-7c1.67-2.67,3.33-5.34,5-8c2.33-4,4.67-8,7-12
		c1.14-1.29,2.69-2.39,3.36-3.89c4.65-10.47,9.82-20.79,13.43-31.63c3.86-11.58,6.18-23.68,9.18-35.55
		c-0.01-0.65-0.01-1.31-0.02-1.96c0.34-1.35,0.68-2.7,1.02-4.04c-0.01-0.65-0.01-1.31-0.02-1.96c0.02-1.67,0.04-3.34,0.05-5.01
		c0.01-0.66,0.01-1.33,0.02-1.99c3.37-1.91,2.28-4.45,0.98-7.01c0.01-1.33,0.01-2.66,0.02-3.99c3.78-4.08,2.04-8.57,0.98-13.01
		c0-1.67,0-3.33,0-5c0.22-6.36,0.47-12.72,0.59-19.08c0.01-0.3-1.04-0.61-1.59-0.92c0-1,0-2,0-3c1.1-2.24,2.48-4.52-0.98-6.01
		c-0.01-0.66-0.01-1.33-0.02-1.99c0.3-1.55,1.06-3.18,0.82-4.65c-0.96-5.86-2.13-11.68-3.39-17.49
		c-4.19-19.33-11.12-37.71-19.8-55.42c-2.33-4.76-5.72-9.01-8.62-13.49c-0.48-1.57-0.58-3.4-1.48-4.66
		c-8.21-11.44-15.8-23.44-25.01-34.03c-25.58-29.42-56.6-51.56-92.7-66.54C347.31,44.3,322,38.63,295.99,36.76
		c-19.38-1.4-38.9-0.52-58.07,3.03c-21.39,3.96-42.05,10.43-61.81,19.74c-20.97,9.87-40.04,22.64-57.51,37.72
		c-15.76,13.6-29.43,29.22-41.24,46.36c-3.43,4.97-5.86,10.63-8.75,15.98c-2,3.67-4,7.34-6,11c-0.75,0.54-1.87,0.92-2.19,1.65
		c-3.61,8.05-7.11,16.14-10.54,24.27c-0.21,0.51,0.47,1.4,0.73,2.11c-0.34,0.99-0.67,1.99-1.01,2.98c-3.74,1.65-3.37,4.83-2.99,8.02
		c0,0.66-0.01,1.32-0.01,1.98c-0.99,1.09-2.57,2.03-2.87,3.28c-2.35,9.92-4.71,19.85-6.53,29.87c-0.82,4.51-0.43,9.25-0.59,13.88
		c0,1.33,0,2.66,0.01,3.99c-0.66,1.13-1.88,2.24-1.91,3.38c-0.45,18.88-0.54,37.77,3.11,56.42c0.49,2.5,1.84,4.83,2.8,7.24
		c0,0.66,0,1.33-0.01,1.99c-0.09,1.19-0.46,2.45-0.22,3.57c4.95,23.06,13.61,44.74,24.92,65.36c2.56,4.67,6.18,8.75,9.31,13.11
		c1.33,2,2.67,4,4,6C79.61,421.04,80.61,422.37,81.61,423.71z"/>
	<path class="st1" d="M521.73,250.63c0.01,0.66,0.01,1.33,0.02,1.99c0.33,2,0.65,4.01,0.98,6.01c0,1,0,2,0,3
		c0.33,6.67,0.67,13.34,1,20.01c0,1.67,0,3.33,0,5c-0.33,4.34-0.65,8.68-0.98,13.01c-0.01,1.33-0.01,2.66-0.02,3.99
		c-0.33,2.34-0.65,4.67-0.98,7.01c-0.01,0.66-0.01,1.33-0.02,1.99c-0.02,1.67-0.04,3.34-0.05,5.01c0.01,0.65,0.01,1.31,0.02,1.96
		c-0.34,1.35-0.68,2.7-1.02,4.04c0.01,0.65,0.01,1.31,0.02,1.96c-0.66,0.96-1.63,1.82-1.95,2.89c-4.04,13.45-7.55,27.07-12.11,40.34
		c-3.27,9.52-7.89,18.57-11.91,27.83c-2.33,4-4.67,8-7,12c-1.67,2.67-3.33,5.34-5,8c-1.67,2.33-3.33,4.67-5,7c-2,2.67-4,5.34-6,8
		c-1.33,1.67-2.67,3.33-4,5c-0.33,0.33-0.67,0.67-1,1c-1.33,1.67-2.67,3.33-4,5c-0.67,0.67-1.33,1.33-2,2s-1.33,1.33-2,2
		c-5,5-10,10-15,15.01c-0.33,0.33-0.67,0.67-1,1c-0.67,0.67-1.33,1.33-2,2c-1.67,1.33-3.33,2.67-5,4c-0.33,0.33-0.67,0.67-1,1
		c-1.67,1.33-3.33,2.67-5,4c-1.67,0.67-3.33,1.34-5,2.01c-2,1.34-4,2.67-5.99,4.01v0.01c-1,0.67-2,1.33-3,2v0.01c-3,2-6,4-9,6v0.01
		c-1.67,1-3.33,2-5,3v0.01c-1.67,1-3.34,2-5,3c-0.33,0.01-0.65,0.02-0.98,0.02c-4.34,2.33-8.69,4.66-13.03,6.99
		c-0.66,0.33-1.32,0.66-1.99,0.99c-5.67,2.34-11.34,4.68-17.02,7.02c-0.99,0.34-1.98,0.67-2.97,1.01c-7.35,2.33-14.69,4.66-22.04,7
		c-6,1.33-12.01,2.66-18.01,3.99c-0.33,0-0.65,0-0.98,0c-0.66,0.01-1.32,0.02-1.98,0.02c-1.01,0.33-2.02,0.66-3.04,0.99
		c-1.66,0-3.31,0-4.97,0.01c-1.34,0.33-2.69,0.66-4.03,0.99c-1.33,0-2.65,0-3.98,0.01c-1.68,0.33-3.35,0.66-5.03,0.99
		c-0.33-0.01-0.67-0.01-1-0.02c-0.33,0-0.65,0-0.98,0c-2.35,0.04-4.71,0.08-7.06,0.11c-0.96-0.02-1.91-0.03-2.87-0.05
		c-3.06,0-6.11,0-9.17,0c-0.3,0.02-0.6,0.04-0.9,0.04c-2.68-0.04-5.35-0.07-8.03-0.1c-0.33,0-0.65,0-0.98,0c-0.34,0-0.68,0-1.02,0
		c-0.33,0-0.65,0-0.98,0c-0.33,0.01-0.67,0.01-1,0.02c-1.68-0.33-3.36-0.66-5.04-0.99c-1.33-0.01-2.65-0.02-3.98-0.02
		c-0.33,0-0.65,0-0.98,0c-0.33,0.01-0.67,0.02-1,0.02c-1.01-0.33-2.02-0.66-3.03-1c-4.99-0.67-9.98-1.34-14.98-2.01
		c-1.01-0.33-2.02-0.66-3.04-0.99c-0.66,0-1.31-0.01-1.97-0.01c-0.68-0.33-1.35-0.66-2.03-0.99c-0.66,0-1.31-0.01-1.97-0.01
		c-1.34-0.34-2.68-0.67-4.02-1.01c-0.33,0-0.66-0.01-0.98-0.02c-2.35-0.66-4.69-1.32-7.04-1.98c-0.64-0.31-1.29-0.63-1.93-0.94
		c-2.44-0.9-4.88-1.8-7.32-2.7c-7.58-2.79-15.15-5.58-22.73-8.37c-0.66-0.33-1.32-0.66-1.99-0.99c-3.34-1.67-6.68-3.34-10.02-5.02
		c-0.66-0.33-1.32-0.66-1.99-0.98c-0.67-0.34-1.34-0.67-2.02-1.01l0,0c-2.33-1.33-4.67-2.66-7-4l0,0c-1.67-1-3.33-2-5-3l0,0
		c-3-2-6-4-9-6l0,0c-1-0.67-2-1.33-3-2l0,0c-1.33-1-2.67-2-4-3l0,0c-1-0.67-2-1.33-3-2c-0.33-0.33-0.66-0.67-1-1
		c-1.34-1-2.67-2-4.01-3c-0.33-0.33-0.66-0.67-1-1c-1.67-1.33-3.34-2.67-5.01-4c-0.67-0.67-1.33-1.33-2-2
		c-1.32-2.02-2.64-4.04-3.96-6.06c1.36,0.87,2.82,1.63,4.06,2.65c4.85,4,9.42,8.38,14.48,12.1c20.96,15.39,43.6,27.54,68.33,35.89
		c20.37,6.88,41.21,11.13,62.57,12.27c18.89,1,37.73-0.26,56.44-3.73c33.65-6.24,64.39-19.41,92.59-38.48
		c20.06-13.56,37.41-30.2,52.59-49.11c17-21.17,30.19-44.43,39.03-70.14c10.46-30.44,16.14-61.59,12.91-93.85
		c-1.41-14.13-2.86-28.39-6.17-42.15c-3.4-14.12-9.08-27.68-13.77-41.49c1.43,1.89,3.45,3.57,4.19,5.7
		c4.1,11.73,8.27,23.46,11.67,35.39C518.21,231.86,519.73,241.31,521.73,250.63z"/>
	<path class="st2" d="M68.61,159.59c2.89-5.34,5.32-11,8.75-15.98c11.81-17.14,25.48-32.76,41.24-46.36
		c17.47-15.08,36.54-27.85,57.51-37.72c19.76-9.3,40.43-15.77,61.81-19.74c19.17-3.55,38.69-4.43,58.07-3.03
		c26.01,1.87,51.32,7.54,75.56,17.6c36.1,14.98,67.12,37.12,92.7,66.54c9.21,10.59,16.8,22.59,25.01,34.03
		c0.9,1.26,1.01,3.09,1.48,4.66l-0.03,0.02c-1-0.67-2.01-1.33-3.01-2c-0.51-0.41-1.2-0.72-1.52-1.25
		c-14.07-23.38-31.46-43.85-52.45-61.38C414.16,78.65,392.71,65.43,369.15,56c-34.33-13.75-70-20.35-107.08-16.36
		c-13.95,1.5-28.07,2.95-41.61,6.39c-28.22,7.17-54.35,19.38-78.27,36.2c-20.94,14.72-39.1,32.27-54.42,52.73
		c-5.55,7.41-10.74,15.08-16.09,22.64c-1.02,0.67-2.03,1.33-3.05,2C68.63,159.6,68.61,159.59,68.61,159.59z"/>
	<path class="st3" d="M36.61,262.63c0-1.33,0-2.66-0.01-3.99c0.32-0.55,0.81-1.07,0.93-1.66c3.04-15.12,6.05-30.25,9.06-45.37
		c0-0.66,0.01-1.32,0.01-1.98c1-2.67,1.99-5.35,2.99-8.02c0.34-0.99,0.67-1.99,1.01-2.98c0.71-1.64,1.29-3.35,2.15-4.91
		c2.23-4.07,4.57-8.07,6.87-12.09c-10.09,23.25-16.66,47.4-19.49,72.66c-2.14,19.09-1.98,38.1,0.71,57.02
		c3.9,27.46,12.1,53.67,24.76,78.41c-0.33,1-0.66,2-0.99,3c-1.06-1.14-2.43-2.13-3.12-3.46c-1.97-3.84-3.9-7.72-5.42-11.75
		c-3.36-8.94-6.54-17.94-9.61-26.98c-2.11-6.23-3.92-12.56-5.87-18.84c0-0.66,0-1.33,0.01-1.99c-0.15-1.65-0.28-3.3-0.46-4.94
		c-1.17-10.35-2.8-20.67-3.4-31.05C36.16,283.36,36.61,272.98,36.61,262.63z"/>
	<path class="st2" d="M521.73,250.63c-2-9.32-3.52-18.77-6.12-27.92c-3.41-11.94-7.57-23.67-11.67-35.39
		c-0.74-2.13-2.76-3.81-4.19-5.7c-0.02-0.32-0.03-0.64-0.02-0.95c-1.67-3.36-3.34-6.71-5.01-10.07l0.01,0.01
		c-0.34-1.01-0.68-2.01-1.02-3.02l0.02,0.03c-0.65-0.66-1.3-1.33-1.96-1.99c-0.03-0.32-0.04-0.65-0.04-0.98
		c-0.33-0.35-0.66-0.69-0.99-1.04c-0.02-0.32-0.03-0.64-0.02-0.96c0-1.02-0.01-2.04-0.01-3.06l0.03-0.02
		c2.9,4.48,6.29,8.73,8.62,13.49c8.67,17.71,15.61,36.09,19.8,55.42c1.26,5.8,2.43,11.63,3.39,17.49
		C522.79,247.45,522.03,249.08,521.73,250.63z"/>
	<path class="st2" d="M40.6,331.66c1.94,6.28,3.75,12.61,5.87,18.84c3.07,9.04,6.26,18.04,9.61,26.98
		c1.51,4.03,3.45,7.92,5.42,11.75c0.69,1.34,2.06,2.32,3.12,3.46c0.35,0.05,0.71,0.09,1.06,0.14c0.03,0.21,0.03,0.41-0.01,0.62
		c-0.02,0.41-0.04,0.83-0.06,1.24c0.98,2.59,1.76,5.28,2.97,7.76c1.86,3.82,4.02,7.5,6.05,11.23l-0.02,0.02
		c-3.13-4.35-6.75-8.44-9.31-13.11c-11.31-20.62-19.97-42.3-24.92-65.36C40.14,334.11,40.51,332.86,40.6,331.66z"/>
	<path class="st2" d="M494.72,396.68c4.02-9.26,8.65-18.31,11.91-27.83c4.55-13.27,8.07-26.9,12.11-40.34
		c0.32-1.06,1.29-1.93,1.95-2.89c-3,11.87-5.32,23.96-9.18,35.55c-3.61,10.83-8.79,21.15-13.43,31.63
		C497.42,394.29,495.86,395.4,494.72,396.68z"/>
	<path class="st2" d="M178.65,501.75c0.66,0.33,1.32,0.66,1.99,0.99c0.75,0.73,1.37,1.78,2.26,2.12c8.9,3.37,17.85,6.63,26.79,9.91
		c-0.8,0.43-1.78,1.4-2.38,1.21c-20.46-6.57-40.03-15.11-58.03-26.98c-0.73-0.48-1.11-1.5-1.65-2.27l0.02-0.02
		c1.66,0.34,3.32,0.68,4.99,1.01l0,0c1.67,1,3.33,2,5,3l0,0c2.33,1.33,4.67,2.66,7,4l0,0c0.67,0.34,1.34,0.67,2.01,1.01
		c0.66,0.33,1.32,0.66,1.99,0.98C171.98,498.4,175.31,500.07,178.65,501.75z"/>
	<path class="st2" d="M36.61,262.63c0,10.35-0.45,20.73,0.14,31.05c0.59,10.38,2.23,20.7,3.4,31.05c0.19,1.64,0.31,3.29,0.46,4.94
		c-0.95-2.41-2.31-4.74-2.8-7.24c-3.65-18.65-3.56-37.53-3.11-56.42C34.73,264.87,35.95,263.75,36.61,262.63z"/>
	<path class="st2" d="M395.73,493.75c0.33,0,0.65-0.01,0.98-0.02c1.67-1,3.34-2,5-3v-0.01c1.67-1,3.33-2,5-3v-0.01
		c1.66-0.34,3.32-0.68,4.99-1.01l0.02,0.02c-2.49,1.98-4.76,4.36-7.51,5.87c-9.21,5.08-18.58,9.88-27.95,14.67
		c-0.61,0.31-1.7-0.34-2.57-0.54c2.34-1.67,4.68-3.34,7.02-5.01c0.66-0.33,1.32-0.66,1.99-0.99
		C388.08,500.36,392.7,498.54,395.73,493.75z"/>
	<path class="st2" d="M46.59,211.6c-3.01,15.13-6.02,30.25-9.06,45.37c-0.12,0.59-0.61,1.11-0.93,1.66
		c0.16-4.63-0.23-9.37,0.59-13.88c1.82-10.02,4.18-19.95,6.53-29.87C44.02,213.63,45.61,212.69,46.59,211.6z"/>
	<path class="st2" d="M317.71,520.76c0.66-0.01,1.32-0.02,1.98-0.02h0.49h0.49c6-1.33,12-2.66,18.01-3.99c0.33,0.65,0.67,1.3,1,1.95
		c-7.34,1.67-14.68,3.34-22.01,5.01C317.68,522.73,317.7,521.75,317.71,520.76z"/>
	<path class="st2" d="M360.72,509.76c0.99-0.34,1.98-0.67,2.97-1.01c2.34-0.33,4.68-0.67,7.03-1c-1.79,1.22-3.43,2.92-5.41,3.59
		c-7.82,2.63-15.75,4.94-23.63,7.38c1.69-1,3.31-2.16,5.09-2.96C351.38,513.67,356.06,511.74,360.72,509.76z"/>
	<path class="st2" d="M59.62,181.61c-2.3,4.03-4.64,8.03-6.87,12.09c-0.85,1.56-1.44,3.27-2.15,4.91c-0.27-0.71-0.95-1.6-0.73-2.11
		c3.43-8.13,6.94-16.22,10.54-24.27c0.33-0.73,1.44-1.11,2.19-1.65l0.02,0.02c0,1.01,0.01,2.01,0.01,3.02l0.01-0.02
		c-0.34,1.01-0.68,2.01-1.02,3.02l0.01-0.01c-0.67,1.36-1.34,2.71-2.01,4.07C59.64,180.99,59.64,181.3,59.62,181.61z"/>
	<path class="st3" d="M209.69,514.77c-8.94-3.29-17.88-6.54-26.79-9.91c-0.89-0.34-1.52-1.4-2.26-2.12
		c7.58,2.79,15.15,5.58,22.73,8.37c2.44,0.9,4.88,1.8,7.32,2.7C210.36,514.13,210.02,514.45,209.69,514.77z"/>
	<path class="st2" d="M115.63,461.71c-1.45-0.62-3.33-0.87-4.28-1.94c-3.74-4.21-7.18-8.68-10.73-13.06l0.02-0.02
		c0.99,0.34,1.99,0.68,2.98,1.02c0.67,0.67,1.33,1.33,2,2s1.33,1.33,2,2s1.33,1.33,2,2s1.33,1.33,2,2s1.33,1.33,2,2
		C114.29,459.05,114.96,460.38,115.63,461.71z"/>
	<path class="st2" d="M233.67,519.75c4.99,0.67,9.98,1.34,14.98,2.01c0.34,0.66,0.67,1.32,1.01,1.98
		c-5.99,2.04-11.51,0.15-16.99-2.03C233,521.05,233.33,520.4,233.67,519.75z"/>
	<path class="st2" d="M443.71,461.71c5-5,10-10,15-15.01c-2.03,2.86-3.72,6.05-6.17,8.49C449.98,457.74,446.69,459.56,443.71,461.71
		z"/>
	<path class="st4" d="M360.72,509.76c-4.66,1.99-9.34,3.91-13.96,5.99c-1.78,0.8-3.4,1.97-5.09,2.96c-0.66,0-1.33-0.01-1.99-0.01
		c-0.33-0.65-0.67-1.3-1-1.95C346.03,514.42,353.37,512.09,360.72,509.76z"/>
	<path class="st2" d="M523.73,281.64c-0.33-6.67-0.67-13.34-1-20.01c0.55,0.31,1.6,0.63,1.59,0.92
		C524.19,268.92,523.95,275.28,523.73,281.64z"/>
	<path class="st2" d="M301.7,522.76c1.33,0,2.65,0,3.98-0.01c1.34-0.33,2.69-0.66,4.03-0.99c1.66,0,3.31,0,4.97-0.01
		c0.33,0.65,0.67,1.3,1,1.95c-4.87,2.21-9.86,2.72-14.99,1.03C301.02,524.08,301.36,523.42,301.7,522.76z"/>
	<path class="st2" d="M264.66,523.74c0.34,0,0.68,0,1.02,0h0.49h0.49c2.68,0.03,5.35,0.07,8.03,0.1c-3.75,4.72-8.41,3.13-13.02,1.86
		c0.33-0.65,0.67-1.3,1-1.95c0.33-0.01,0.67-0.01,1-0.02h0.49L264.66,523.74z"/>
	<path class="st4" d="M370.72,507.75c-2.34,0.33-4.68,0.67-7.03,1c5.67-2.34,11.34-4.68,17.02-7.02c-2.34,1.67-4.68,3.34-7.02,5.01
		C372.7,507.08,371.71,507.41,370.72,507.75z"/>
	<path class="st2" d="M228.66,518.75c0.66,0,1.31,0.01,1.97,0.01c0.01,0.98,0.03,1.97,0.04,2.95c-3.08-0.53-6.24-0.81-9.2-1.72
		c-1.17-0.36-1.91-2.11-2.84-3.22c0.34-0.01,0.69-0.03,1.03-0.04c0.33,0.01,0.66,0.01,0.98,0.02c1.34,0.34,2.68,0.67,4.02,1.01
		c0.66,0,1.31,0.01,1.97,0.01C227.31,518.09,227.99,518.42,228.66,518.75z"/>
	<path class="st2" d="M295.67,523.74c0.33,0.01,0.67,0.01,1,0.02c0.34,0.33,0.68,0.67,1.03,1c-3.95,3.18-7.74,2.84-10.07-0.91
		c2.35-0.04,4.71-0.07,7.06-0.11h0.49L295.67,523.74z"/>
	<path class="st2" d="M62.61,170.59c2-3.67,4-7.34,6-11l0.02,0.02c0,1.34,0,2.67,0,4.01l0.01-0.01c-0.34,0.36-0.67,0.72-1.01,1.07
		c0.01,0.31,0,0.63-0.02,0.94c-0.66,0.67-1.31,1.34-1.97,2.01l0.01-0.02c-1.01,1-2.02,2-3.02,3L62.61,170.59z"/>
	<path class="st2" d="M522.75,299.66c0.33-4.34,0.65-8.68,0.98-13.01C524.78,291.09,526.53,295.58,522.75,299.66z"/>
	<path class="st2" d="M487.72,408.69c2.33-4,4.67-8,7-12C492.39,400.68,490.06,404.69,487.72,408.69z"/>
	<path class="st2" d="M120.63,463.72c0.67,0.67,1.33,1.33,2,2c0.67,1.33,1.35,2.65,2.02,3.98l-0.01,0.02c-2.33-2-4.67-4-7-6
		C118.63,463.72,119.63,463.72,120.63,463.72z"/>
	<path class="st2" d="M132.63,473.72c0.33,0.33,0.66,0.67,1,1c1,0.67,2,1.33,3,2l0,0c0.34,0.99,0.68,1.99,1.01,2.98l-0.02,0.02
		c-2.67-2-5.33-4-8-6l0.02-0.02C130.64,473.71,131.64,473.72,132.63,473.72z"/>
	<path class="st2" d="M422.71,479.71c-2.66,1.67-5.33,3.34-7.99,5.02l-0.02-0.02c0.34-0.99,0.68-1.99,1.01-2.98v-0.01
		c1-0.67,2-1.33,3-2v-0.01c1.32-0.01,2.65-0.02,3.97-0.03L422.71,479.71z"/>
	<path class="st2" d="M251.68,522.76c0.33,0,0.67,0,1-0.02h0.49h0.49c1.33,0.01,2.65,0.02,3.98,0.02c0.01,0.98,0.03,1.97,0.04,2.95
		c-2.01-0.34-4.01-0.67-6.02-1.01C251.67,524.05,251.67,523.41,251.68,522.76z"/>
	<path class="st2" d="M471.72,431.7c2-2.67,4-5.34,6-8C477.17,427.45,475.72,430.53,471.72,431.7z"/>
	<path class="st3" d="M120.63,463.72c-1,0-2,0-3,0c-0.67-0.67-1.33-1.33-2-2c-0.67-1.33-1.34-2.66-2.01-3.99l0.02-0.02
		c1.01-0.01,2.02-0.02,3.04-0.03v-0.02C117.99,459.68,119.31,461.7,120.63,463.72z"/>
	<path class="st4" d="M275.59,523.8c3.06,0,6.11,0,9.17,0C281.98,526.56,278.39,526.56,275.59,523.8z"/>
	<path class="st2" d="M144.63,484.73c-2.33-1.67-4.67-3.33-7-5l0.02-0.02c1,0,1.99,0.01,2.99,0.01l0,0c1,0.67,2,1.33,3,2l0,0
		c0.34,0.99,0.68,1.99,1.01,2.98C144.64,484.71,144.63,484.73,144.63,484.73z"/>
	<path class="st2" d="M482.72,416.69c1.67-2.67,3.33-5.34,5-8C486.05,411.36,484.39,414.02,482.72,416.69z"/>
	<path class="st3" d="M92.62,437.71c-0.33-0.33-0.67-0.67-1-1c0-1,0-2,0-3c0.71-0.02,1.43-0.04,2.14-0.05
		c0.63,0.65,1.27,1.3,1.9,1.94c-0.01,1.04-0.03,2.08-0.04,3.11C94.62,438.38,93.62,438.04,92.62,437.71z"/>
	<path class="st2" d="M477.72,423.69c1.67-2.33,3.33-4.67,5-7C481.05,419.02,479.39,421.36,477.72,423.69z"/>
	<path class="st4" d="M257.68,525.71c-0.01-0.98-0.03-1.97-0.04-2.95c1.68,0.33,3.36,0.66,5.04,0.99c-0.33,0.65-0.67,1.3-1,1.95
		C260.34,525.71,259.01,525.71,257.68,525.71z"/>
	<path class="st2" d="M49.6,201.6c-1,2.67-1.99,5.35-2.99,8.02C46.22,206.43,45.86,203.25,49.6,201.6z"/>
	<path class="st2" d="M127.63,469.72c0.33,0.33,0.66,0.67,1,1c0.34,1,0.68,1.99,1.01,2.99l-0.02,0.02
		c-1.66-1.34-3.33-2.67-4.99-4.01l0.01-0.02C125.64,469.71,126.64,469.71,127.63,469.72z"/>
	<path class="st2" d="M521.75,310.66c0.33-2.34,0.65-4.67,0.98-7.01C524.02,306.22,525.11,308.75,521.75,310.66z"/>
	<path class="st2" d="M92.62,437.71c1,0.34,2,0.67,3,1.01c0.33,0.33,0.67,0.66,1,0.99c0.01,1,0.01,1.99,0.02,2.99l-0.02,0.02
		C95.28,441.05,93.95,439.38,92.62,437.71z"/>
	<path class="st2" d="M91.62,433.71c0,1,0,2,0,3c-1.34-1.66-2.67-3.33-4.01-4.99l0.02-0.02c1,0.34,1.99,0.68,2.99,1.01
		C90.95,433.04,91.28,433.37,91.62,433.71z"/>
	<path class="st2" d="M78.61,419.71c-1.33-2-2.67-4-4-6l0.02-0.02c0.99,0.34,1.99,0.68,2.98,1.02c0.34,1.66,0.68,3.32,1.02,4.98
		L78.61,419.71z"/>
	<path class="st2" d="M522.73,258.63c-0.33-2-0.65-4.01-0.98-6.01C525.21,254.11,523.83,256.4,522.73,258.63z"/>
	<path class="st2" d="M462.72,442.7c1.33-1.67,2.67-3.33,4-5C465.38,439.37,464.05,441.03,462.72,442.7z"/>
	<path class="st2" d="M424.71,475.72c1.67-0.67,3.33-1.34,5-2.01c-1.66,1.34-3.32,2.68-4.99,4.02l-0.02-0.02
		C424.71,477.05,424.71,476.38,424.71,475.72z"/>
	<path class="st2" d="M429.71,473.71c1.67-1.33,3.33-2.67,5-4C433.04,471.04,431.38,472.38,429.71,473.71z"/>
	<path class="st2" d="M435.71,468.71c1.67-1.33,3.33-2.67,5-4C439.04,466.04,437.38,467.37,435.71,468.71z"/>
	<path class="st2" d="M467.72,436.7c1.33-1.67,2.67-3.33,4-5C470.38,433.36,469.05,435.03,467.72,436.7z"/>
	<path class="st2" d="M521.67,317.66c0.02-1.67,0.04-3.34,0.05-5.01C521.71,314.32,521.69,315.99,521.67,317.66z"/>
	<path class="st3" d="M219.66,516.73c-0.34,0.01-0.69,0.03-1.03,0.04c-1.32-0.01-2.65-0.02-3.97-0.03
		c-0.68-0.34-1.36-0.67-2.04-1.01c0-0.33,0-0.66,0-0.99C214.97,515.41,217.31,516.07,219.66,516.73z"/>
	<path class="st2" d="M100.62,446.72c-1.33-1.33-2.67-2.67-4-4l0.02-0.02c1.33,1.33,2.67,2.67,4,4
		C100.63,446.7,100.62,446.72,100.62,446.72z"/>
	<path class="st2" d="M87.61,431.71c-1-1.33-2-2.67-3-4l0.02-0.02c0.99,0.34,1.99,0.68,2.98,1.02c0.01,0.99,0.01,1.99,0.02,2.98
		L87.61,431.71z"/>
	<path class="st4" d="M297.7,524.76c-0.34-0.33-0.68-0.67-1.03-1c1.68-0.33,3.35-0.66,5.03-0.99c-0.34,0.66-0.68,1.32-1.01,1.98
		C299.69,524.74,298.69,524.75,297.7,524.76z"/>
	<path class="st2" d="M84.61,427.71c-1-1.33-2-2.67-3-4l0.02-0.02c0.99,0.34,1.99,0.68,2.98,1.02c0.01,0.99,0.01,1.99,0.02,2.98
		L84.61,427.71z"/>
	<path class="st4" d="M230.67,521.71c-0.01-0.98-0.03-1.97-0.04-2.95c1.01,0.33,2.02,0.66,3.04,0.99c-0.33,0.65-0.67,1.3-1,1.95
		C232,521.71,231.34,521.71,230.67,521.71z"/>
	<path class="st4" d="M315.68,523.7c-0.33-0.65-0.67-1.3-1-1.95c1.01-0.33,2.02-0.66,3.04-0.99c-0.01,0.98-0.03,1.97-0.04,2.95
		C317.01,523.71,316.34,523.71,315.68,523.7z"/>
	<path class="st2" d="M81.61,423.71c-1-1.33-2-2.67-3-4l0.02-0.02c1,1.33,2,2.67,3,4L81.61,423.71z"/>
	<path class="st2" d="M520.67,323.67c0.34-1.35,0.68-2.7,1.02-4.04C521.35,320.97,521.01,322.32,520.67,323.67z"/>
	<path class="st4" d="M251.68,522.76c0,0.65-0.01,1.3-0.01,1.95c-0.67-0.32-1.34-0.64-2.01-0.97c-0.34-0.66-0.67-1.32-1.01-1.98
		C249.66,522.09,250.67,522.42,251.68,522.76z"/>
	<path class="st2" d="M212.62,515.73c0.68,0.34,1.36,0.67,2.04,1.01c-0.81,0.18-1.61,0.36-2.42,0.54
		C212.37,516.77,212.49,516.25,212.62,515.73z"/>
	<path class="st2" d="M147.63,486.73c-1-0.67-2-1.33-3-2l0.02-0.02c1,0.67,2,1.33,3,2C147.65,486.71,147.63,486.73,147.63,486.73z"
		/>
	<path class="st2" d="M414.72,484.73c-1,0.67-2,1.33-3,2l-0.02-0.02c1-0.67,2-1.33,3-2L414.72,484.73z"/>
	<path class="st2" d="M440.71,464.71c0.67-0.67,1.33-1.33,2-2C442.04,463.37,441.38,464.04,440.71,464.71z"/>
	<path class="st2" d="M460.71,444.7c0.67-0.67,1.33-1.33,2-2C462.05,443.37,461.38,444.03,460.71,444.7z"/>
	<path class="st2" d="M424.72,477.73c-0.67,0.66-1.34,1.32-2.01,1.99l-0.02-0.02c0.67-0.66,1.34-1.32,2.02-1.99
		C424.7,477.71,424.72,477.73,424.72,477.73z"/>
	<path class="st5" d="M95.66,435.6c-0.63-0.65-1.27-1.3-1.9-1.94c-1.03-1.34-2.06-2.67-3.09-4.01v0.02c-1-1.36-2.01-2.71-3.01-4.07
		c-0.31-0.31-0.62-0.62-0.92-0.93c-0.69-1.02-1.38-2.04-2.08-3.07c-0.34-0.63-0.68-1.26-1.02-1.89c-0.33-0.37-0.66-0.74-0.99-1.11
		c-0.34-0.64-0.69-1.27-1.03-1.91c-0.32-0.37-0.64-0.74-0.97-1.11c-0.31-0.31-0.61-0.61-0.92-0.92c-0.69-1.02-1.38-2.04-2.08-3.07
		c0-0.3-0.02-0.6-0.04-0.91c-0.32-0.37-0.64-0.74-0.97-1.11c-0.34-0.63-0.69-1.26-1.03-1.89c-0.32-0.36-0.65-0.73-0.97-1.09
		c-0.34-0.63-0.67-1.26-1.01-1.89c-0.32-0.39-0.65-0.78-0.97-1.16c0.02-0.28,0.01-0.56-0.02-0.83c-0.33-0.35-0.66-0.7-0.99-1.05
		l0.02-0.01c-0.64-1.03-1.27-2.06-1.91-3.09c-0.37-0.95-0.75-1.9-1.12-2.86c-0.66-0.35-1.32-0.7-1.98-1.05l-0.01-0.01
		c-0.33-0.39-0.66-0.78-0.99-1.17c0.03-0.21,0.03-0.41,0.01-0.62c-0.02-1.05-0.05-2.09-0.07-3.13
		c-12.66-24.75-20.86-50.95-24.76-78.41c-2.69-18.92-2.85-37.93-0.71-57.02c2.83-25.26,9.4-49.4,19.49-72.66
		c0.02-0.31,0.02-0.62,0.01-0.93c0.67-1.36,1.34-2.71,2.01-4.07l-0.01,0.01c0.34-1.01,0.68-2.01,1.02-3.02l-0.01,0.02
		c1-2.01,2.01-4.01,3.01-6.02l-0.01,0.02c0.66-0.67,1.31-1.34,1.97-2.01c0.02-0.31,0.03-0.63,0.02-0.94
		c0.34-0.36,0.67-0.72,1.01-1.07l-0.01,0.01c1.02-2,2.03-4.01,3.05-6.01c5.35-7.55,10.54-15.23,16.09-22.64
		c15.32-20.47,33.47-38.01,54.42-52.73c23.92-16.82,50.05-29.03,78.27-36.2c13.54-3.44,27.66-4.89,41.61-6.39
		c37.08-3.99,72.76,2.61,107.08,16.36c23.56,9.43,45.02,22.66,64.59,38.99c21,17.52,38.38,38,52.45,61.38
		c0.32,0.53,1,0.84,1.52,1.25c1.01,1.68,2.01,3.37,3.02,5.05c-0.01,0.32,0,0.64,0.02,0.96c0.33,0.35,0.66,0.7,0.99,1.04
		c0,0.33,0.01,0.65,0.04,0.97c0.65,0.66,1.3,1.33,1.96,1.99l-0.02-0.03c0.34,1.01,0.68,2.01,1.02,3.02l-0.01-0.01
		c1.67,3.36,3.34,6.71,5.01,10.07c-0.01,0.32,0,0.64,0.02,0.95c4.68,13.81,10.37,27.37,13.77,41.49
		c3.31,13.75,4.76,28.02,6.17,42.15c3.23,32.26-2.45,63.41-12.91,93.85c-8.84,25.71-22.03,48.97-39.03,70.14
		c-15.18,18.9-32.53,35.54-52.59,49.11c-28.2,19.07-58.94,32.23-92.59,38.48c-18.71,3.47-37.56,4.74-56.44,3.73
		c-21.35-1.13-42.2-5.39-62.57-12.27c-24.74-8.36-47.37-20.5-68.33-35.89c-5.06-3.72-9.63-8.1-14.48-12.1
		c-1.24-1.02-2.7-1.77-4.06-2.65v0.02c-0.99-0.67-1.99-1.34-2.98-2.02l-0.01-0.01c-0.66-0.66-1.32-1.32-1.99-1.99l-0.01-0.01
		c-0.66-0.66-1.32-1.32-1.99-1.99l-0.01-0.01c-0.66-0.66-1.32-1.32-1.99-1.99l-0.01-0.01c-0.66-0.66-1.32-1.32-1.99-1.99l-0.01-0.01
		c-0.67-1.01-1.34-2.03-2.01-3.04c-0.98-0.98-1.95-1.96-2.93-2.93C99.05,439.64,97.35,437.62,95.66,435.6z M236.71,73.66
		c38.33,58.79,38.67,114.19-13.27,165.25c-46.71,36.58-94.94,35.92-144.42,6.17c-9.89,53.87,8.66,138.85,83,192.29
		c77.22,55.51,184.96,48.99,255.01-15.76c72.96-67.44,85.69-173.83,36.92-253.96C402.18,82.57,311.45,57.15,236.71,73.66z"/>
	<path class="st4" d="M395.73,493.75c-3.02,4.79-7.65,6.61-13.03,6.99C387.04,498.42,391.38,496.08,395.73,493.75z"/>
	<path class="st3" d="M178.65,501.75c-3.34-1.67-6.68-3.34-10.02-5.02C171.98,498.4,175.31,500.07,178.65,501.75z"/>
	<path class="st4" d="M414.7,484.71c-1,0.67-2,1.33-3,2c-1.66,0.34-3.32,0.68-4.99,1.01c3-2,6-4,9-6
		C415.38,482.72,415.04,483.72,414.7,484.71z"/>
	<path class="st3" d="M147.65,486.71c-1-0.67-2-1.33-3-2c-0.34-0.99-0.68-1.99-1.01-2.98c3,2,6,4,9,6
		C150.97,487.39,149.31,487.05,147.65,486.71z"/>
	<path class="st3" d="M164.63,494.73c-2.33-1.33-4.67-2.67-7-4C159.97,492.06,162.3,493.4,164.63,494.73z"/>
	<path class="st4" d="M424.7,477.71c-0.67,0.66-1.34,1.32-2.02,1.99c-1.32,0.01-2.65,0.02-3.97,0.03c2-1.34,4-2.67,5.99-4.01
		C424.71,476.38,424.71,477.05,424.7,477.71z"/>
	<path class="st3" d="M127.63,469.72c-1-0.01-1.99-0.01-2.99-0.02c-0.67-1.33-1.35-2.65-2.02-3.98
		C124.29,467.05,125.96,468.39,127.63,469.72z"/>
	<path class="st3" d="M157.63,490.73c-1.67-1-3.33-2-5-3C154.3,488.73,155.97,489.73,157.63,490.73z"/>
	<path class="st4" d="M406.71,487.73c-1.67,1-3.33,2-5,3C403.38,489.73,405.05,488.73,406.71,487.73z"/>
	<path class="st4" d="M401.71,490.73c-1.67,1-3.34,2-5,3C398.38,492.73,400.04,491.73,401.71,490.73z"/>
	<path class="st3" d="M129.64,473.71c-0.34-1-0.68-1.99-1.01-2.99c1.34,1,2.67,2,4.01,3C131.64,473.72,130.64,473.71,129.64,473.71z
		"/>
	<path class="st4" d="M309.71,521.76c-1.34,0.33-2.69,0.66-4.03,0.99C307.02,522.42,308.36,522.09,309.71,521.76z"/>
	<path class="st3" d="M140.63,479.72c-1,0-1.99-0.01-2.99-0.01c-0.34-0.99-0.68-1.99-1.01-2.98
		C137.96,477.73,139.3,478.73,140.63,479.72z"/>
	<path class="st4" d="M224.66,517.75c-1.34-0.34-2.68-0.67-4.02-1.01C221.98,517.08,223.32,517.42,224.66,517.75z"/>
	<path class="st4" d="M418.72,479.73c-1,0.66-2,1.33-3,2C416.72,481.06,417.72,480.39,418.72,479.73z"/>
	<path class="st3" d="M143.63,481.72c-1-0.67-2-1.33-3-2C141.63,480.39,142.63,481.06,143.63,481.72z"/>
	<path class="st3" d="M136.63,476.72c-1-0.67-2-1.33-3-2C134.63,475.39,135.63,476.06,136.63,476.72z"/>
	<path class="st3" d="M166.65,495.74c-0.67-0.34-1.34-0.67-2.01-1.01C165.31,495.07,165.98,495.41,166.65,495.74z"/>
	<path class="st4" d="M228.66,518.75c-0.68-0.33-1.35-0.66-2.03-0.99C227.31,518.09,227.99,518.42,228.66,518.75z"/>
	<path class="st4" d="M320.67,520.74h-0.49h-0.49C320.02,520.74,320.35,520.74,320.67,520.74z"/>
	<path class="st4" d="M253.66,522.74h-0.49h-0.49C253,522.74,253.33,522.74,253.66,522.74z"/>
	<path class="st4" d="M264.66,523.74h-0.49h-0.49C264.01,523.74,264.33,523.74,264.66,523.74z"/>
	<path class="st4" d="M266.66,523.74h-0.49h-0.49C266.01,523.74,266.33,523.74,266.66,523.74z"/>
	<path class="st4" d="M295.67,523.74h-0.49h-0.49C295.01,523.74,295.34,523.74,295.67,523.74z"/>
	<path class="st1" d="M490.72,162.66c-1.01-1.68-2.01-3.37-3.02-5.05c1,0.67,2.01,1.33,3.01,2
		C490.71,160.63,490.72,161.65,490.72,162.66z"/>
	<path class="st3" d="M71.67,157.6c-1.02,2-2.03,4.01-3.05,6.01c0-1.34,0-2.67,0-4.01C69.64,158.93,70.66,158.27,71.67,157.6z"/>
	<path class="st1" d="M65.6,389.7c0.02,1.04,0.05,2.09,0.07,3.13c-0.35-0.04-0.71-0.09-1.06-0.14
		C64.94,391.7,65.27,390.7,65.6,389.7z"/>
	<path class="st1" d="M499.72,180.67c-1.67-3.36-3.34-6.71-5.01-10.07C496.38,173.96,498.05,177.31,499.72,180.67z"/>
	<path class="st1" d="M494.72,170.62c-0.34-1.01-0.68-2.01-1.02-3.02C494.04,168.6,494.38,169.61,494.72,170.62z"/>
	<path class="st1" d="M493.72,167.63c-0.65-0.66-1.3-1.33-1.96-1.99C492.42,166.3,493.07,166.96,493.72,167.63z"/>
	<path class="st1" d="M491.73,164.66c-0.33-0.35-0.66-0.7-0.99-1.04C491.07,163.97,491.4,164.32,491.73,164.66z"/>
	<path class="st3" d="M68.64,395.69c0.37,0.95,0.75,1.9,1.12,2.86c0.64,1.03,1.27,2.06,1.91,3.09l-0.02,0.01
		c0.33,0.35,0.66,0.7,0.99,1.05c0.03,0.28,0.04,0.55,0.02,0.83c0.32,0.39,0.65,0.77,0.97,1.16c0.34,0.63,0.67,1.26,1.01,1.89
		c0.32,0.37,0.65,0.73,0.97,1.09c0.34,0.63,0.69,1.26,1.03,1.89c0.32,0.37,0.64,0.74,0.97,1.11c0.02,0.3,0.04,0.6,0.04,0.91
		c-0.01,1.03-0.02,2.07-0.03,3.1l-0.02,0.02c-0.99-0.34-1.99-0.68-2.98-1.02c-2.03-3.74-4.18-7.41-6.05-11.23
		c-1.21-2.48-2-5.17-2.97-7.76c0.35-0.02,0.7-0.04,1.04-0.07l0.01,0.01C67.32,394.99,67.98,395.34,68.64,395.69z"/>
	<path class="st1" d="M66.66,394.63c-0.35,0.02-0.7,0.04-1.04,0.07c0.02-0.41,0.04-0.82,0.06-1.24
		C66,393.85,66.33,394.24,66.66,394.63z"/>
	<path class="st3" d="M65.65,167.61c-1,2.01-2.01,4.01-3.01,6.02c0-1.01-0.01-2.01-0.01-3.02
		C63.63,169.61,64.64,168.61,65.65,167.61z"/>
	<path class="st3" d="M61.64,176.61c-0.67,1.36-1.34,2.71-2.01,4.07C60.31,179.32,60.97,177.97,61.64,176.61z"/>
	<path class="st3" d="M62.65,173.61c-0.34,1.01-0.68,2.01-1.02,3.02C61.97,175.62,62.31,174.61,62.65,173.61z"/>
	<path class="st3" d="M100.74,441.67c0.98,0.98,1.95,1.96,2.92,2.93c-0.01,1.03-0.02,2.07-0.03,3.1l-0.02,0.02
		c-0.99-0.34-1.99-0.68-2.98-1.02c-1.33-1.33-2.67-2.67-4-4c-0.01-1-0.01-1.99-0.02-2.99C97.99,440.36,99.37,441.01,100.74,441.67z"
		/>
	<path class="st3" d="M105.62,449.72c-0.67-0.67-1.33-1.33-2-2l0.02-0.02c0.68-0.02,1.36-0.04,2.05-0.06l0.01,0.01
		c-0.02,0.68-0.04,1.36-0.06,2.04L105.62,449.72z"/>
	<path class="st3" d="M107.62,451.72c-0.67-0.67-1.33-1.33-2-2l0.02-0.02c0.68-0.02,1.36-0.04,2.04-0.06l0.01,0.01
		c-0.02,0.68-0.04,1.36-0.06,2.04C107.63,451.7,107.62,451.72,107.62,451.72z"/>
	<path class="st3" d="M109.62,453.72c-0.67-0.67-1.33-1.33-2-2l0.02-0.02c0.68-0.02,1.36-0.04,2.04-0.06l0.01,0.01
		c-0.02,0.68-0.04,1.36-0.06,2.04L109.62,453.72z"/>
	<path class="st3" d="M111.62,455.72c-0.67-0.67-1.33-1.33-2-2l0.02-0.02c0.68-0.02,1.36-0.04,2.04-0.06l0.01,0.01
		c-0.02,0.68-0.04,1.36-0.06,2.04L111.62,455.72z"/>
	<path class="st3" d="M113.62,457.72c-0.67-0.67-1.33-1.33-2-2l0.02-0.02c0.68-0.02,1.36-0.04,2.04-0.06l0.01,0.01
		c-0.02,0.68-0.04,1.36-0.06,2.05C113.64,457.7,113.62,457.72,113.62,457.72z"/>
	<path class="st3" d="M67.61,165.62c-0.66,0.67-1.31,1.34-1.97,2.01C66.29,166.96,66.95,166.29,67.61,165.62z"/>
	<path class="st3" d="M68.64,163.6c-0.34,0.36-0.67,0.71-1.01,1.07C67.97,164.32,68.3,163.96,68.64,163.6z"/>
	<path class="st1" d="M113.64,457.7c0.02-0.68,0.04-1.36,0.06-2.05c0.99,0.67,1.99,1.34,2.98,2.02
		C115.66,457.69,114.65,457.7,113.64,457.7z"/>
	<path class="st1" d="M100.74,441.67c-1.37-0.65-2.75-1.31-4.12-1.96c-0.33-0.33-0.67-0.66-1-0.99c0.01-1.04,0.03-2.07,0.04-3.11
		C97.35,437.62,99.05,439.64,100.74,441.67z"/>
	<path class="st1" d="M90.67,429.65c1.03,1.34,2.06,2.67,3.09,4.01c-0.71,0.02-1.43,0.04-2.14,0.05c-0.33-0.33-0.67-0.67-1-1
		C90.64,431.69,90.65,430.67,90.67,429.65z"/>
	<path class="st3" d="M90.67,429.65c-0.02,1.02-0.03,2.04-0.05,3.06c-1-0.34-1.99-0.68-2.99-1.01c-0.01-0.99-0.01-1.99-0.02-2.98
		l0.02-0.02c1.01,0.32,2.03,0.65,3.04,0.97V429.65z"/>
	<path class="st3" d="M79.73,414.66c0.31,0.31,0.61,0.61,0.92,0.92c0.32,0.37,0.64,0.74,0.97,1.11c0.34,0.64,0.69,1.27,1.03,1.91
		c0.33,0.37,0.66,0.74,0.99,1.11c0.34,0.63,0.68,1.26,1.02,1.89c-0.01,1.03-0.02,2.07-0.03,3.1l-0.02,0.02
		c-0.99-0.34-1.99-0.68-2.98-1.02c-1-1.33-2-2.67-3-4c-0.34-1.66-0.68-3.32-1.02-4.98l0.02-0.02
		C78.33,414.68,79.03,414.67,79.73,414.66z"/>
	<path class="st3" d="M86.74,424.66c0.31,0.31,0.62,0.62,0.92,0.94c-0.01,1.03-0.02,2.07-0.03,3.1l-0.02,0.02
		c-0.99-0.34-1.99-0.68-2.98-1.02c-0.01-0.99-0.01-1.99-0.02-2.98l0.02-0.02C85.33,424.68,86.03,424.67,86.74,424.66z"/>
	<path class="st6" d="M236.71,73.66c74.74-16.5,165.47,8.91,217.25,93.99c48.76,80.13,36.04,186.52-36.92,253.96
		c-70.05,64.75-177.79,71.27-255.01,15.76c-74.34-53.44-92.9-138.42-83-192.29c49.48,29.74,97.71,30.41,144.42-6.17
		C275.39,187.85,275.04,132.44,236.71,73.66z"/>
	<path class="st1" d="M87.63,428.69c0.01-1.03,0.02-2.07,0.03-3.1c1,1.36,2.01,2.71,3.01,4.07
		C89.66,429.34,88.64,429.02,87.63,428.69z"/>
	<path class="st1" d="M71.67,401.64c-0.64-1.03-1.27-2.06-1.91-3.09C70.4,399.58,71.04,400.61,71.67,401.64z"/>
	<path class="st1" d="M79.73,414.66c-0.7,0.01-1.4,0.02-2.11,0.03c0.01-1.03,0.02-2.07,0.03-3.1
		C78.35,412.61,79.04,413.63,79.73,414.66z"/>
	<path class="st1" d="M105.68,447.64c-0.68,0.02-1.36,0.04-2.05,0.06c0.01-1.03,0.02-2.07,0.03-3.1
		C104.34,445.62,105.01,446.63,105.68,447.64z"/>
	<path class="st1" d="M86.74,424.66c-0.7,0.01-1.4,0.02-2.11,0.03c0.01-1.03,0.02-2.07,0.03-3.1
		C85.35,422.62,86.04,423.64,86.74,424.66z"/>
	<path class="st1" d="M107.68,449.65c-0.68,0.02-1.36,0.04-2.04,0.06c0.02-0.68,0.04-1.36,0.06-2.04
		C106.35,448.32,107.02,448.98,107.68,449.65z"/>
	<path class="st1" d="M109.68,451.65c-0.68,0.02-1.36,0.04-2.04,0.06c0.02-0.68,0.04-1.36,0.06-2.04
		C108.35,450.32,109.02,450.98,109.68,451.65z"/>
	<path class="st1" d="M111.68,453.65c-0.68,0.02-1.36,0.04-2.04,0.06c0.02-0.68,0.04-1.36,0.06-2.04
		C110.35,452.32,111.02,452.98,111.68,453.65z"/>
	<path class="st1" d="M113.68,455.65c-0.68,0.02-1.36,0.04-2.04,0.06c0.02-0.68,0.04-1.36,0.06-2.04
		C112.35,454.32,113.02,454.98,113.68,455.65z"/>
	<path class="st1" d="M68.64,395.69c-0.66-0.35-1.32-0.7-1.98-1.05C67.32,394.99,67.98,395.34,68.64,395.69z"/>
	<path class="st1" d="M72.65,402.7c-0.33-0.35-0.66-0.7-0.99-1.05C71.99,402,72.32,402.35,72.65,402.7z"/>
	<path class="st1" d="M73.64,404.69c-0.32-0.39-0.65-0.77-0.97-1.16C72.99,403.92,73.31,404.31,73.64,404.69z"/>
	<path class="st1" d="M75.62,407.68c-0.32-0.36-0.65-0.73-0.97-1.09C74.97,406.95,75.29,407.32,75.62,407.68z"/>
	<path class="st1" d="M83.64,419.7c-0.33-0.37-0.66-0.74-0.99-1.11C82.98,418.96,83.31,419.33,83.64,419.7z"/>
	<path class="st1" d="M77.62,410.68c-0.32-0.37-0.64-0.74-0.97-1.11C76.97,409.94,77.3,410.31,77.62,410.68z"/>
	<path class="st1" d="M81.62,416.68c-0.32-0.37-0.64-0.74-0.97-1.11C80.98,415.94,81.3,416.31,81.62,416.68z"/>
</g>
</svg>
