<?xml version="1.0" encoding="utf-8"?>
<!-- Generator: Adobe Illustrator 24.1.2, SVG Export Plug-In . SVG Version: 6.00 Build 0)  -->
<svg version="1.1" id="Layer_1" xmlns="http://www.w3.org/2000/svg" xmlns:xlink="http://www.w3.org/1999/xlink" x="0px" y="0px"
	 viewBox="0 0 3314.14 3314.14" style="enable-background:new 0 0 3314.14 3314.14;" xml:space="preserve">
<style type="text/css">
	.st0{fill:#F7DF1E;}
</style>
<path class="st0" d="M407.06,407.06h2500v2500h-2500L407.06,407.06L407.06,407.06z"/>
<path d="M1064.41,2496.24l191.31-115.78c36.91,65.44,70.49,120.81,151.03,120.81c77.2,0,125.88-30.2,125.88-147.66V1554.8h234.93
	v802.13c0,243.33-142.64,354.09-350.74,354.09c-187.94,0-297.03-97.33-352.41-214.8 M1895.16,2471.07l191.29-110.75
	c50.36,82.24,115.81,142.65,231.59,142.65c97.35,0,159.42-48.67,159.42-115.8c0-80.55-63.77-109.08-171.17-156.05l-58.72-25.2
	c-169.5-72.14-281.93-162.76-281.93-354.07c0-176.21,134.25-310.47,344.02-310.47c149.36,0,256.76,52.03,333.95,187.96
	l-182.93,117.48c-40.28-72.16-83.9-100.68-151.03-100.68c-68.81,0-112.44,43.63-112.44,100.68c0,70.48,43.63,99.02,144.32,142.66
	l58.73,25.17c199.71,85.6,312.14,172.85,312.14,369.18c0,211.46-166.13,327.25-389.33,327.25
	C2104.91,2711.06,1963.95,2607.01,1895.16,2471.07"/>
</svg>
