<?xml version="1.0" encoding="utf-8"?>
<!-- Generator: Adobe Illustrator 24.1.2, SVG Export Plug-In . SVG Version: 6.00 Build 0)  -->
<svg version="1.1" id="Layer_1" xmlns="http://www.w3.org/2000/svg" xmlns:xlink="http://www.w3.org/1999/xlink" x="0px" y="0px"
	 viewBox="0 0 2876.71 2876.71" style="enable-background:new 0 0 2876.71 2876.71;" xml:space="preserve">
<style type="text/css">
	.st0{fill:url(#SVGID_1_);}
	.st1{fill:url(#SVGID_2_);}
</style>
<linearGradient id="SVGID_1_" gradientUnits="userSpaceOnUse" x1="755.2603" y1="1822.5432" x2="756.0125" y2="1821.8383" gradientTransform="matrix(2341.4561 0 0 -2498.4375 -1767871.625 4554092)">
	<stop  offset="0" style="stop-color:#000000"/>
	<stop  offset="1" style="stop-color:#FFFFFF"/>
</linearGradient>
<path class="st0" d="M1436.23,2049.29c553.1,753.98,1094.38-210.45,1093.57-790.43c-0.93-685.7-695.95-1068.95-1094.02-1068.95
	C796.84,189.91,188.35,717.96,188.35,1440.46c0,803.07,697.51,1247.89,1247.43,1247.89c-124.44-17.92-539.16-106.78-544.73-1061.98
	c-3.76-646.04,210.74-904.15,543.83-790.61c7.46,2.76,367.4,144.76,367.4,608.59C1802.29,1906.23,1436.23,2049.28,1436.23,2049.29
	L1436.23,2049.29z"/>
<linearGradient id="SVGID_2_" gradientUnits="userSpaceOnUse" x1="755.9229" y1="1821.8748" x2="755.0704" y2="1822.5792" gradientTransform="matrix(2065.9375 0 0 -2499.9961 -1559323.75 4556931)">
	<stop  offset="0" style="stop-color:#000000"/>
	<stop  offset="1" style="stop-color:#FFFFFF"/>
</linearGradient>
<path class="st1" d="M1435.59,835.24c-365.47-125.97-813.17,175.25-813.17,778.57c0,985.13,730.01,1074.54,818.51,1074.54
	c638.95,0,1247.43-528.07,1247.43-1250.56c0-803.07-697.51-1247.89-1247.43-1247.89c152.31-21.09,820.95,164.84,820.95,1078.69
	c0,595.96-499.26,920.39-823.98,781.78c-7.46-2.76-367.41-144.76-367.41-608.59C1070.47,979.9,1435.59,835.24,1435.59,835.24
	L1435.59,835.24z"/>
</svg>
