<?xml version="1.0" encoding="utf-8"?>
<!-- Generator: Adobe Illustrator 24.1.2, SVG Export Plug-In . SVG Version: 6.00 Build 0)  -->
<svg version="1.1" id="Layer_1" xmlns="http://www.w3.org/2000/svg" xmlns:xlink="http://www.w3.org/1999/xlink" x="0px" y="0px"
	 viewBox="0 0 2664.73 2664.73" style="enable-background:new 0 0 2664.73 2664.73;" xml:space="preserve">
<style type="text/css">
	.st0{fill:#8D6748;}
	.st1{fill:#FFFFFF;}
</style>
<path class="st0" d="M2364.82,2004.66l-965.41,557.8c-41.44,24.13-92.65,24.13-134.09,0l-965.41-557.8
	c-41.57-24.14-67.04-68.38-67.04-115.31V773.75c0-48.27,25.48-91.17,67.04-115.31l965.41-557.8c41.44-24.13,92.65-24.13,134.09,0
	l965.41,557.8c41.57,24.14,67.04,68.38,67.04,115.31v1115.6C2430.52,1936.27,2405.05,1980.52,2364.82,2004.66L2364.82,2004.66z"/>
<path class="st1" d="M1331.02,252.17c-20.11,0-40.23,5.36-57.66,16.09L439.36,749.62c-36.21,20.12-57.66,58.99-57.66,99.21v962.74
	c0,41.57,21.45,79.11,57.66,99.23l834.01,481.37c17.43,10.73,37.54,16.09,57.66,16.09c20.1,0,40.23-5.36,57.66-16.09l834.01-481.37
	c36.21-20.11,57.66-59,57.66-99.21V848.83c0-41.56-21.45-79.1-57.66-99.21l-834.01-481.37
	C1371.24,257.53,1351.13,252.17,1331.02,252.17L1331.02,252.17z M1331.02,292.39c13.4,0,25.48,4.02,37.54,10.73l834.01,481.37
	c22.8,13.4,37.54,38.89,37.54,65.7v962.73c0,26.82-14.74,52.29-37.54,65.7l-834.01,481.37c-12.07,6.7-24.14,10.73-37.55,10.73
	c-13.27-0.06-26.26-3.77-37.55-10.74l-834.01-481.35c-22.8-13.41-37.55-38.88-37.55-65.7V850.19c0-26.82,14.75-52.29,37.54-65.71
	l834.01-481.36c12.07-6.71,25.48-10.74,37.54-10.74L1331.02,292.39z M1253.92,1131.77h112.63c4.03,0,6.71-1.35,9.39-4.03
	c67.04-75.08,73.75-231.97,73.75-278.89c0-6.7-5.37-13.41-13.41-13.41H1184.2c-6.7,0-13.41,5.36-13.41,13.41
	c0,45.59,6.71,202.47,73.75,278.9C1247.22,1130.42,1249.9,1131.77,1253.92,1131.77L1253.92,1131.77z M1223.08,877h176.99
	c6.7,0,13.41,5.36,13.41,13.41c0,37.55-6.71,143.47-52.29,198.44c-4.02,2.69-6.7,4.03-10.73,4.03h-79.1c-4.03,0-6.71-1.34-9.39-4.03
	c-45.59-53.63-50.95-160.9-52.29-198.44C1209.68,883.71,1215.04,877,1223.08,877L1223.08,877z M1335.71,808.62
	c0,0,48.27-28.17,18.77-79.11c-17.43-26.83-25.47-49.61-18.77-59c-17.43,21.46-46.93,44.25-14.75,92.52
	C1331.7,775.1,1337.05,800.57,1335.71,808.62L1335.71,808.62z M1282.08,812.64c0,0,32.18-18.77,12.07-53.64
	c-12.07-17.43-17.43-33.52-12.07-38.89c-12.07,14.75-30.84,29.5-9.39,63.02C1279.4,789.84,1282.08,807.28,1282.08,812.64
	L1282.08,812.64z M1278.06,1076.79h67.04c2.68,0,5.36-1.34,8.04-4.02c22.8-26.82,33.53-68.38,38.89-104.59
	c0,0-1.34,12.07-33.52,24.14c-44.24,16.09-122.02,5.36-122.02,5.36c6.7,28.16,17.44,54.98,33.52,75.09
	C1271.35,1075.45,1275.38,1076.79,1278.06,1076.79L1278.06,1076.79z M773.9,1453.57V1185.4h-49.61l-81.79,126.04L560.7,1185.4
	h-49.61v269.51h46.93v-191.74l83.13,124.7h1.34l84.48-126.04v191.74H773.9z M1074.26,1190.76c-17.44-6.7-36.21-10.73-56.32-10.73
	c-20.12,0-38.89,2.68-56.32,10.74c-17.44,6.7-32.18,17.42-44.25,29.49c-12.67,12.64-22.7,27.68-29.5,44.25
	c-6.7,17.44-10.74,34.86-10.74,53.64v1.34c0,18.77,4.04,37.55,10.74,53.64c6.7,17.44,16.09,32.18,28.16,44.25s26.82,22.8,44.24,29.5
	c17.44,6.71,36.21,10.74,56.32,10.74c20.12,0,38.89-2.69,56.32-10.74c17.43-6.7,32.18-17.43,44.24-29.5
	c12.68-12.64,22.71-27.68,29.51-44.24c6.7-17.44,10.73-34.87,10.73-53.64v-1.34c0-18.78-4.04-37.54-10.74-53.64
	c-6.7-17.43-16.08-32.18-28.15-44.24C1106.43,1208.19,1091.69,1197.46,1074.26,1190.76L1074.26,1190.76z M1106.43,1320.82
	c0,12.07-2.68,24.14-6.71,36.21c-5.36,10.72-10.72,21.45-18.77,29.5c-8.24,8.18-17.75,14.97-28.16,20.11
	c-10.74,5.37-22.8,8.05-36.21,8.05c-12.06,0-25.47-2.68-36.2-8.05c-10.41-5.13-19.92-11.92-28.16-20.1
	c-8.05-9.4-14.75-18.79-18.78-30.84c-4.02-12.08-6.7-24.14-6.7-37.55v-1.34c0-12.07,2.68-24.14,6.7-36.21
	c5.37-10.73,10.73-21.45,18.78-29.5c8.24-8.18,17.75-14.98,28.16-20.12c10.73-5.36,22.79-8.04,36.2-8.04
	c13.4,0,25.48,2.68,36.21,8.04c10.41,5.14,19.92,11.93,28.16,20.12c8.05,9.39,14.75,18.77,18.77,30.84
	c4.03,12.07,6.7,24.14,6.7,37.55L1106.43,1320.82L1106.43,1320.82z M1304.88,1280.59c5.36-10.73,10.73-21.46,18.77-29.5
	c8.24-8.18,17.75-14.97,28.16-20.12c10.73-5.36,21.46-8.04,34.87-8.04c16.09,0,29.5,2.68,41.57,9.38
	c12.07,6.71,22.8,14.76,33.52,24.14l30.85-34.86c-6.71-6.7-13.41-12.07-20.12-17.44c-6.7-5.36-14.75-9.38-22.79-13.4
	c-9.39-2.69-17.44-5.37-28.17-8.05c-10.72-1.34-21.45-2.68-33.52-2.68c-21.46,0-38.89,4.02-56.31,10.72
	c-17.43,6.71-32.18,17.44-44.25,29.51c-11.84,13.04-21.36,28-28.16,44.25c-7.03,17.01-10.67,35.23-10.73,53.64v1.34
	c0,18.77,4.02,36.2,10.73,53.64c6.7,17.44,16.09,32.18,28.16,44.25s26.82,22.8,42.91,29.5c16.97,7.16,35.22,10.81,53.64,10.74
	c12.07,0,24.13,0,36.2-2.69c9.39-1.34,20.12-5.37,28.16-9.39c8.05-4.02,16.1-8.05,24.14-14.75c8.05-6.7,14.75-12.07,21.46-20.12
	l-30.84-30.84c-12.07,10.74-24.14,18.78-34.87,25.48c-10.73,6.71-25.48,9.39-41.57,9.39c-12.07,0-24.14-4.03-34.87-8.05
	c-10.72-4.02-20.11-12.07-28.16-20.1c-8.04-9.4-14.75-18.79-18.77-30.85c-4.02-12.06-6.71-24.13-6.71-37.54v-1.34
	C1298.17,1304.73,1300.86,1292.66,1304.88,1280.59L1304.88,1280.59z M1587.8,1185.4v268.17h46.93v-112.63h128.73v112.63h46.93
	v-268.17h-46.93v111.3h-128.73v-111.3L1587.8,1185.4L1587.8,1185.4z M2102.68,1389.21l26.82,64.36h49.61l-117.99-269.51h-42.91
	l-117.99,269.51h48.27l28.15-64.36L2102.68,1389.21L2102.68,1389.21z M2039.66,1240.38l45.59,107.27h-91.17L2039.66,1240.38
	L2039.66,1240.38z M477.57,1552.78h1709.59v-14.75H477.57V1552.78z M1460.42,1033.87c0,5.36-1.35,9.39-1.35,14.76h728.08v-14.76
	H1460.42L1460.42,1033.87z M1161.41,1033.87H477.57v14.76h685.18C1162.75,1043.27,1161.4,1039.24,1161.41,1033.87L1161.41,1033.87z"
	/>
</svg>
