<?xml version="1.0" encoding="utf-8"?>
<!-- Generator: Adobe Illustrator 24.1.3, SVG Export Plug-In . SVG Version: 6.00 Build 0)  -->
<svg version="1.1" id="Layer_1" xmlns="http://www.w3.org/2000/svg" xmlns:xlink="http://www.w3.org/1999/xlink" x="0px" y="0px"
	 viewBox="0 0 530 328" style="enable-background:new 0 0 530 328;" xml:space="preserve">
<style type="text/css">
	.st0{fill:#FECA02;}
	.st1{fill:#FD3F57;}
	.st2{fill:#03D549;}
</style>
<g>
	<path class="st0" d="M265.6,312.2c-16,1.3-30.2-5.6-42.2-16.9c-9.4-8.8-14.9-20-17.7-32.9c-4.3-19.5,2.4-35.9,12.4-51.8
		c13-20.5,25.6-41.1,38.4-61.6c15.3-24.4,30.8-48.7,46.1-73.2c8-12.7,15.4-25.9,23.9-38.3c8.7-12.7,20.5-21.8,35.7-25.6
		c25.9-6.4,47.6,0.9,64.8,20.8c7.2,8.3,11,18.4,13,29.4c3.1,17.7-2.1,33-11.4,47.7c-20,31.5-39.6,63.3-59.4,94.9
		c-14,22.4-27.8,44.8-42.2,66.9c-5.6,8.6-11.8,16.8-18.6,24.5C299.2,307,282.1,313.3,265.6,312.2z"/>
	<path class="st1" d="M248.2,72.7c0.5,12.5-3.8,24.1-10.6,34.8c-18.2,29-36.4,57.9-54.5,86.9c-18.5,29.5-36.8,59.2-55.5,88.7
		c-22.6,35.5-71.2,39.9-99.4,9.3C9.2,271.9,6.7,240.7,21.6,217c22.5-35.6,44.7-71.4,67.1-107.2c14.9-23.8,29.7-47.6,44.7-71.3
		C149,14,179.9,3.5,206.8,13.3C232.7,22.8,248.2,44.9,248.2,72.7z"/>
	<path class="st2" d="M458.1,312.6c-34.5-0.7-61.7-28.2-61.1-61.7c0.7-33.5,28.9-61.9,67-59.7c30.6,1.8,60,28.1,57.8,64.7
		C520.1,286.1,493.7,313.8,458.1,312.6z"/>
</g>
</svg>
