<?xml version="1.0" encoding="utf-8"?>
<!-- Generator: Adobe Illustrator 24.1.2, SVG Export Plug-In . SVG Version: 6.00 Build 0)  -->
<svg version="1.1" id="Layer_1" xmlns="http://www.w3.org/2000/svg" xmlns:xlink="http://www.w3.org/1999/xlink" x="0px" y="0px"
	 viewBox="0 0 828.91 828.91" style="enable-background:new 0 0 828.91 828.91;" xml:space="preserve">
<style type="text/css">
	.st0{fill-rule:evenodd;clip-rule:evenodd;fill:#FFFFFF;}
	.st1{fill-rule:evenodd;clip-rule:evenodd;fill:#A6A385;}
	.st2{fill-rule:evenodd;clip-rule:evenodd;fill:#499D4A;}
	.st3{fill-rule:evenodd;clip-rule:evenodd;fill:#58AA50;}
</style>
<g>
	<path class="st0" d="M430.25,752.92l-18.47-6.31c0,0,2.26-94.17-31.54-100.93c-22.52-26.14,3.61-1108.46,84.72-3.61
		c0,0-27.94,13.96-32.9,37.85C426.65,703.35,430.25,752.92,430.25,752.92L430.25,752.92z"/>
	<path class="st1" d="M430.25,752.92l-18.47-6.31c0,0,2.26-94.17-31.54-100.93c-22.52-26.14,3.61-1108.46,84.72-3.61
		c0,0-27.94,13.96-32.9,37.85C426.65,703.35,430.25,752.92,430.25,752.92L430.25,752.92z"/>
	<path class="st0" d="M440.17,661.9c0,0,161.77-106.34,123.91-327.59c-36.49-160.85-122.56-213.57-132.02-233.85
		c-10.36-14.42-20.28-39.65-20.28-39.65l6.76,447.43C418.54,508.69,404.57,645.22,440.17,661.9"/>
	<path class="st2" d="M440.17,661.9c0,0,161.77-106.34,123.91-327.59c-36.49-160.85-122.56-213.57-132.02-233.85
		c-10.36-14.42-20.28-39.65-20.28-39.65l6.76,447.43C418.54,508.69,404.57,645.22,440.17,661.9"/>
	<path class="st0" d="M402.32,667.75c0,0-151.86-103.64-142.84-286.12c8.56-182.49,115.8-272.16,136.53-288.38
		c13.52-14.42,13.97-19.83,14.87-34.25c9.46,20.28,7.66,303.25,9.01,336.59C423.94,524.01,412.68,643.42,402.32,667.75z"/>
	<path class="st3" d="M402.32,667.75c0,0-151.86-103.64-142.84-286.12c8.56-182.49,115.8-272.16,136.53-288.38
		c13.52-14.42,13.97-19.83,14.87-34.25c9.46,20.28,7.66,303.25,9.01,336.59C423.94,524.01,412.68,643.42,402.32,667.75z"/>
</g>
</svg>
