<?xml version="1.0" encoding="utf-8"?>
<!-- Generator: Adobe Illustrator 24.1.2, SVG Export Plug-In . SVG Version: 6.00 Build 0)  -->
<svg version="1.1" id="Capa_1" xmlns="http://www.w3.org/2000/svg" xmlns:xlink="http://www.w3.org/1999/xlink" x="0px" y="0px"
	 viewBox="0 0 720.66 720.66" style="enable-background:new 0 0 720.66 720.66;" xml:space="preserve">
<style type="text/css">
	.st0{fill:#E5E9EA;}
	.st1{fill:#D1D1D1;}
	.st2{fill:#FCB65F;}
	.st3{fill:#E29A4B;}
	.st4{fill:#53BCE9;}
	.st5{fill:#36A6CE;}
	.st6{fill:#566368;}
	.st7{fill:#6F7B7F;}
	.st8{fill:#435054;}
</style>
<path class="st0" d="M205.42,250.88v-73.16c0-6.2-5.02-11.22-11.22-11.22h-37.38c-6.2,0-11.22,5.02-11.22,11.22v73.16"/>
<path class="st1" d="M172.77,250.88v-84.38h-15.95c-6.2,0-11.22,5.02-11.22,11.22v73.16"/>
<path class="st2" d="M616.33,264.22v273.71c0,18.77-15.21,33.98-33.98,33.98H138.31c-18.77,0-33.98-15.21-33.98-33.98V264.22
	c0-18.77,15.21-33.98,33.98-33.98h67.19c14.47,0,27.37-9.16,32.11-22.84l12.4-35.8c4.74-13.68,17.63-22.85,32.11-22.85h198.21
	c14.47,0,27.36,9.17,32.1,22.85l12.41,35.8c4.74,13.68,17.63,22.84,32.1,22.84h25.4C601.11,230.24,616.33,245.45,616.33,264.22z"/>
<g>
	<path class="st3" d="M164.95,571.91h-26.65c-18.77,0-33.98-15.21-33.98-33.98V264.22c0-18.77,15.21-33.98,33.98-33.98h24.53v0.06
		c-17.78,1.1-31.87,15.86-31.87,33.92v273.71C130.97,556.7,146.19,571.91,164.95,571.91z"/>
	<path class="st3" d="M308.76,148.75c-14.48,0-27.37,9.17-32.11,22.85l-12.4,35.8c-4.74,13.68-17.64,22.84-32.11,22.84h-22.8v-0.22
		c12.87-1.46,23.95-10.17,28.26-22.62l12.4-35.8c4.74-13.68,17.63-22.85,32.11-22.85C282.12,148.75,308.76,148.75,308.76,148.75z"/>
</g>
<path class="st4" d="M616.33,322.71v215.22c0,18.77-15.21,33.98-33.98,33.98H138.31c-18.77,0-33.98-15.21-33.98-33.98V322.71H616.33
	z"/>
<path class="st5" d="M164.95,571.91h-26.65c-18.77,0-33.98-15.21-33.98-33.98V322.71h26.64v215.22
	C130.97,556.7,146.19,571.91,164.95,571.91z"/>
<circle class="st0" cx="360.33" cy="398.47" r="141.57"/>
<path class="st6" d="M460.43,398.47c0,29.48-12.74,55.98-33.02,74.3c-17.75,16.04-41.26,25.81-67.08,25.81
	c-25.81,0-49.33-9.77-67.08-25.81c-20.28-18.32-33.03-44.83-33.03-74.3s12.75-55.99,33.03-74.29
	c17.75-16.05,41.27-25.81,67.08-25.81c25.82,0,49.33,9.77,67.08,25.81C447.69,342.49,460.43,368.99,460.43,398.47z"/>
<g>
	<path class="st7" d="M431.1,327.68c20.84,20.84,30.57,48.59,29.19,75.89c-27.3,1.38-55.04-8.35-75.89-29.19
		c-20.84-20.84-30.57-48.59-29.18-75.88C382.52,297.11,410.26,306.84,431.1,327.68z"/>
	<path class="st7" d="M336.24,422.55c20.84,20.84,30.57,48.59,29.19,75.89c-27.29,1.39-55.05-8.34-75.89-29.18
		c-20.84-20.84-30.57-48.6-29.18-75.89C287.65,391.98,315.39,401.71,336.24,422.55z"/>
</g>
<g>
	<path class="st8" d="M360.32,506.41c-59.52,0-107.94-48.42-107.94-107.94s48.42-107.94,107.94-107.94s107.94,48.42,107.94,107.94
		S419.84,506.41,360.32,506.41z M360.32,306.2c-50.88,0-92.27,41.39-92.27,92.27s41.39,92.27,92.27,92.27s92.27-41.39,92.27-92.27
		S411.2,306.2,360.32,306.2z"/>
	<path class="st8" d="M360.32,358.28c-22.16,0-40.18,18.03-40.18,40.19s18.03,40.18,40.18,40.18c22.16,0,40.18-18.03,40.18-40.18
		S382.48,358.28,360.32,358.28z"/>
</g>
<path class="st0" d="M411.18,222.41h61.58c8.1,0,14.66-6.56,14.66-14.66v-16.13c0-8.1-6.56-14.66-14.66-14.66h-61.58
	c-8.1,0-14.66,6.56-14.66,14.66v16.13C396.52,215.84,403.09,222.41,411.18,222.41z"/>
<path class="st3" d="M472.77,230.24h-61.58c-12.4,0-22.5-10.09-22.5-22.5v-16.13c0-12.4,10.09-22.5,22.5-22.5h61.58
	c12.4,0,22.5,10.09,22.5,22.5v16.13C495.26,220.15,485.17,230.24,472.77,230.24z M411.18,184.79c-3.76,0-6.82,3.06-6.82,6.82v16.13
	c0,3.76,3.06,6.82,6.82,6.82h61.58c3.76,0,6.82-3.06,6.82-6.82v-16.13c0-3.76-3.06-6.82-6.82-6.82
	C472.77,184.79,411.18,184.79,411.18,184.79z"/>
<circle class="st6" cx="201.66" cy="514.56" r="28.34"/>
</svg>
