<?xml version="1.0" encoding="utf-8"?>
<!-- Generator: Adobe Illustrator 24.1.2, SVG Export Plug-In . SVG Version: 6.00 Build 0)  -->
<svg version="1.1" id="Layer_1" xmlns="http://www.w3.org/2000/svg" xmlns:xlink="http://www.w3.org/1999/xlink" x="0px" y="0px"
	 viewBox="0 0 3000 3000" style="enable-background:new 0 0 3000 3000;" xml:space="preserve">
<style type="text/css">
	.st0{fill:url(#SVGID_1_);}
	.st1{fill:#31C5F0;}
</style>
<radialGradient id="SVGID_1_" cx="633.0626" cy="1555.4633" r="0.76" gradientTransform="matrix(2291.6716 0 0 -2218.7549 -1449662.5 3452076.75)" gradientUnits="userSpaceOnUse">
	<stop  offset="0" style="stop-color:#34364E;stop-opacity:0.98"/>
	<stop  offset="1" style="stop-color:#0C0824"/>
</radialGradient>
<path class="st0" d="M354.17,385.41h2291.67v2229.17H354.17V385.41z"/>
<path class="st1" d="M354.17,385.41h2291.67v2229.17H354.17V385.41z M250,2718.76h2500V281.25H250V2718.76z M1935.42,1281.25
	c-82.29,0-110.41,41.67-110.41,76.04c0,37.5,18.75,63.54,129.17,120.83c163.54,79.17,214.58,155.21,214.58,266.67
	c0,166.67-127.08,256.25-298.96,256.25c-90.63,0-168.75-18.75-213.54-44.79c-7.29-3.12-8.33-8.33-8.33-16.67v-153.13
	c0-10.42,5.21-13.54,12.5-8.33c65.62,42.71,140.62,61.46,209.37,61.46c82.29,0,116.67-34.37,116.67-81.25
	c0-37.5-23.96-70.83-129.17-125c-147.92-70.83-209.37-142.71-209.37-262.5c0-134.38,105.21-245.83,287.5-245.83
	c89.58,0,152.08,13.54,186.46,29.17c8.33,5.21,10.42,13.54,10.42,20.83v142.71c0,8.33-5.21,13.54-15.63,10.42
	C2070.84,1298.96,2003.13,1281.25,1935.42,1281.25L1935.42,1281.25z M1039.58,1405.21c23.96,2.08,42.71,2.08,84.38,2.08
	c121.88,0,236.46-42.71,236.46-208.33c0-132.29-82.29-198.96-220.83-198.96c-41.67,0-81.25,2.08-100,3.12V1405.21z M854.17,852.08
	c0-7.29,14.59-12.5,22.91-12.5c66.67-3.12,165.63-5.21,268.75-5.21c288.54,0,401.04,158.33,401.04,360.42
	c0,264.58-191.67,378.13-427.08,378.13c-39.58,0-53.12-2.08-81.25-2.08v400c0,8.33-3.12,12.5-12.5,12.5H866.67
	c-8.33,0-12.5-3.12-12.5-12.5L854.17,852.08L854.17,852.08z"/>
</svg>
