<?xml version="1.0" encoding="utf-8"?>
<!-- Generator: Adobe Illustrator 24.1.2, SVG Export Plug-In . SVG Version: 6.00 Build 0)  -->
<svg version="1.1" id="Layer_1" xmlns="http://www.w3.org/2000/svg" xmlns:xlink="http://www.w3.org/1999/xlink" x="0px" y="0px"
	 viewBox="0 0 2711.57 2711.57" style="enable-background:new 0 0 2711.57 2711.57;" xml:space="preserve">
<style type="text/css">
	.st0{fill-rule:evenodd;clip-rule:evenodd;fill:#8993BE;}
	.st1{fill-rule:evenodd;clip-rule:evenodd;fill:#232531;}
</style>
<g>
	<ellipse class="st0" cx="1355.79" cy="1351.97" rx="1250" ry="650.68"/>
	<path class="st1" d="M456.81,1737.24l136.99-693.5h316.77c136.98,8.56,205.48,77.05,205.48,196.92
		c0,205.48-162.67,325.34-308.22,316.78H653.74l-34.25,179.79H456.81z M687.97,1429.03l42.81-256.86h111.3
		c59.93,0,102.73,25.68,102.73,77.05c-8.55,145.56-77.05,171.24-154.1,179.8L687.97,1429.03L687.97,1429.03z M1084.22,1557.45
		l136.98-693.49h162.68l-34.25,179.79h154.1c136.99,8.56,188.36,77.05,171.24,162.68l-59.93,351.03h-171.23l59.93-316.78
		c8.55-42.81,8.55-68.5-51.37-68.5h-128.43l-77.05,385.27H1084.22z M1604.08,1737.24l136.98-693.5h316.78
		c136.99,8.56,205.49,77.05,205.49,196.92c0,205.48-162.68,325.34-308.22,316.78h-154.11l-34.25,179.79H1604.08z M1835.23,1429.03
		l42.81-256.86h111.31c59.93,0,102.73,25.68,102.73,77.05c-8.55,145.56-77.05,171.24-154.1,179.8H1835.23L1835.23,1429.03z"/>
</g>
</svg>
