<?xml version="1.0" encoding="utf-8"?>
<!-- Generator: Adobe Illustrator 24.1.2, SVG Export Plug-In . SVG Version: 6.00 Build 0)  -->
<svg version="1.1" id="Layer_1" xmlns="http://www.w3.org/2000/svg" xmlns:xlink="http://www.w3.org/1999/xlink" x="0px" y="0px"
	 viewBox="0 0 3000 3000" style="enable-background:new 0 0 3000 3000;" xml:space="preserve">
<style type="text/css">
	.st0{fill:url(#SVGID_1_);}
	.st1{fill:#E579FF;}
</style>
<radialGradient id="SVGID_1_" cx="633.0626" cy="1555.4633" r="0.76" gradientTransform="matrix(2291.6716 0 0 -2218.7549 -1449662.5 3452076.75)" gradientUnits="userSpaceOnUse">
	<stop  offset="0" style="stop-color:#4B2D4F;stop-opacity:0.98"/>
	<stop  offset="1" style="stop-color:#180024"/>
</radialGradient>
<path class="st0" d="M354.16,385.41h2291.67v2229.17H354.16V385.41z"/>
<path class="st1" d="M354.16,385.41h2291.67v2229.17H354.16V385.41z M250,2718.75h2500V281.24H250V2718.75z M1750,1310.41
	c0-12.5,0-42.71-5.21-101.05c0-8.33,1.04-10.42,8.33-13.54c63.54-26.04,212.5-71.87,381.25-71.87c8.33,0,12.5,2.08,12.5,10.42
	v151.04c0,8.33-3.12,10.42-11.46,10.42c-65.63-3.12-160.42,5.21-196.88,20.83v656.26c0,8.33-3.12,12.5-12.5,12.5H1762.5
	c-8.33,0-12.5-3.12-12.5-12.5L1750,1310.41L1750,1310.41z M1083.33,1405.2c23.96,2.08,42.71,2.08,84.38,2.08
	c121.88,0,236.46-42.71,236.46-208.33c0-132.29-81.25-198.96-220.84-198.96c-41.67,0-81.25,2.08-100,3.12L1083.33,1405.2
	L1083.33,1405.2z M898.96,852.07c0-7.29,2.08-12.5,10.42-12.5c66.67-3.12,164.58-5.21,267.71-5.21
	c288.54,0,414.58,158.33,414.58,361.46c0,264.58-191.67,378.13-427.08,378.13c-39.59,0-53.13-2.08-81.25-2.08v400
	c0,8.33-3.12,12.5-12.5,12.5H910.42c-8.33,0-12.5-3.12-12.5-12.5V852.07L898.96,852.07L898.96,852.07z"/>
</svg>
