<?xml version="1.0" encoding="utf-8"?>
<!-- Generator: Adobe Illustrator 24.1.3, SVG Export Plug-In . SVG Version: 6.00 Build 0)  -->
<svg version="1.1" id="Layer_1" xmlns="http://www.w3.org/2000/svg" xmlns:xlink="http://www.w3.org/1999/xlink" x="0px" y="0px"
	 viewBox="0 0 3314.1 3314.1" style="enable-background:new 0 0 3314.1 3314.1;" xml:space="preserve">
<style type="text/css">
	.st0{fill:#6E51B5;}
</style>
<g>
	<path class="st0" d="M2297.9,1251c-25.4-8.2-49.2-16.3-73.2-23.6c-24.5-7.5-49.1-14.9-73.9-21c-9.5-2.3-13-7-14-15.8
		c-16-141.2-65.8-269.6-148.2-384.9c-50.2-70.2-112.9-126.6-194.1-159.6c-62.1-25.3-126.2-31.8-192.6-23
		c-67.5,9-131.4,28.2-193.1,57c-86.1,40.2-151.7,102.1-202.3,181.6c-42.5,66.7-76.8,137.2-100.2,212.7
		c-16.8,54.2-30.4,109.4-34.5,166.2c-4,55.7-9,111.7-8.3,167.4c0.7,54.1,6.6,108.2,12.9,162.1c9.5,81.8,32,160.6,60.5,237.6
		c23.9,64.6,53.8,126.3,88.2,185.9c4.5,7.8,9.5,10.9,18.8,9.8c82.2-9.8,170.2,45.8,191.4,136.9c20.2,86.7-28.3,178.5-111.7,208.6
		c-93.9,33.9-194.4-11.1-230.1-104.4c-18.3-47.8-15.9-95.9,7.2-142c4.7-9.4,4.4-16.6-0.7-25.4c-49.7-85.8-90.6-175.7-122.4-269.6
		c-26.6-78.6-46.4-158.8-58-241.1c-9.1-64.2-14.3-128.6-13-193.3c1.6-78.4,9.8-156.1,26.5-232.9c19.7-91,46.8-179.4,88.5-262.7
		c65-130.3,157.2-236.8,281.3-314.3c72-45,150-74.8,233.6-89.8c45.8-8.2,92.4-12.4,138.6-7.7c67.7,6.9,133.6,23,195.6,52.7
		c90.5,43.3,166.2,105,229.5,182.4c46.2,56.5,83.3,118.5,112.6,185c27.9,63.3,50.2,128.7,62.3,197c9.3,52.5,15.9,105.5,23.6,158.3
		C2298.9,1243.9,2298.2,1247,2297.9,1251z"/>
	<path class="st0" d="M1823,2750.5c7.3-6,13.5-11.1,19.7-16.1c38.4-30.9,76.6-62,115.3-92.4c3.9-3,11.6-4.1,16.5-2.5
		c46.5,14.5,92.2,32,139.3,44c36.7,9.3,75,13.1,112.8,17.4c65.8,7.4,130.9,1.1,194.7-15.7c93.9-24.8,172.7-74.5,234.2-150.2
		c44.9-55.2,79.6-116.1,95.7-186c10.6-45.8,14.7-92.1,8.7-139.3c-20.2-157.8-95-288.5-199.9-403.9
		c-95.4-104.9-211.1-182-339.2-240.6c-51.8-23.7-105-45-159.3-62.3c-48.3-15.4-98.6-25.1-148.4-34.8c-73.4-14.4-147.9-19-222.6-17.5
		c-11.6,0.2-23.3,0.7-34.6,2.7c-4.4,0.7-9.5,5.1-11.7,9.2c-27.3,52.2-69.7,85.2-127.2,96.1c-84.5,16-170.8-30.4-201-115.1
		c-30.3-85.2,6-170.7,73.2-212.6c80.6-50.2,190.7-30.7,245.6,57.3c5.1,8.2,11,11,20.2,11.1c51.8,0.8,103.7-0.3,155.2,3.7
		c54.4,4.3,108.8,11.4,162.4,21.4c51.9,9.7,103.3,23.1,154.1,37.8c81.3,23.6,158.7,57.3,233.1,97.7c82.6,44.9,159.4,98.1,229,161.2
		c114.7,104,211.6,221.6,269.4,367.5c17.4,43.9,30.5,89.1,39.6,135.6c11.4,58.1,16,116.4,12.2,175.5
		c-7.5,116.8-45.4,221.3-123.9,309.8c-85.1,95.9-189.2,161.9-310.8,201.6c-57.8,18.9-116.8,31-177.2,35.5
		c-37.9,2.8-76.3,5.7-114,2.5c-47.7-4-95.2-12.3-142.1-22c-73.2-15.1-143.3-40.1-211-71.9C1828.8,2754.2,1826.9,2752.8,1823,2750.5z
		"/>
	<path class="st0" d="M773.8,1584.2c2.4,9.4,4.4,17.5,6.6,25.7c11.2,41.9,22.1,83.9,33.7,125.7c2.3,8.2,0.2,12.8-6.2,17.9
		c-76.1,60.4-139.4,132.2-188.9,215.8c-32.7,55.2-56.3,113.9-68.5,177.3c-9.9,52-12.1,103.9-2.8,155.7
		c16.2,90.2,53.5,170.9,114.7,239.9c55.8,62.9,125.7,102.9,206.1,125.1c88.2,24.3,177.9,28.2,268.7,19.5c54.7-5.2,108-16,160.6-31.3
		c74.2-21.7,144-53.7,211.5-91c81.7-45.2,159.4-96.3,230.7-156.8c94.4-80.1,172.5-173.9,233-282.2c5.9-10.5,10.9-21.4,17.4-31.5
		c4.9-7.5,3.1-12.3-2.2-18.6c-32.1-37.6-47.1-80.9-44.2-130.6c4.7-81.1,69.3-150.3,149.9-163.8c80.8-13.5,162,33,192.6,104.8
		c46.9,110-21.4,227.2-129.8,246.8c-9.7,1.8-15.6,6.5-20.2,15.7c-70.4,140.8-162.7,265.3-278.9,371.6
		c-115.3,105.4-247.1,184.2-392.7,240.4c-79,30.5-160.2,52.6-243.3,68.8c-66.2,12.9-133,17.9-200.3,15.1
		c-66.8-2.8-132.3-13.7-196.6-33.1c-79.8-24.1-153.2-60.3-218.5-112c-71.4-56.4-123-127.7-156.6-212.5
		c-19.1-48.4-32.8-98.2-39.9-149.5c-8-58-9.1-116.3-2.8-174.9c5.5-50.9,16.2-100.4,32.4-148.8c25.3-76,62.3-146,109.4-210.6
		c61-83.9,135.5-154.1,218.7-215.5C768.4,1586.7,769.6,1586.3,773.8,1584.2z"/>
</g>
</svg>
