<?xml version="1.0" encoding="utf-8"?>
<!-- Generator: Adobe Illustrator 24.1.2, SVG Export Plug-In . SVG Version: 6.00 Build 0)  -->
<svg version="1.1" id="Layer_1" xmlns="http://www.w3.org/2000/svg" xmlns:xlink="http://www.w3.org/1999/xlink" x="0px" y="0px"
	 viewBox="0 0 781.02 781.02" style="enable-background:new 0 0 781.02 781.02;" xml:space="preserve">
<style type="text/css">
	.st0{fill:#FFFFFF;}
	.st1{fill:#ED1C24;}
</style>
<g>
	<rect x="107.05" y="107.05" width="566.93" height="566.93"/>
	<g>
		<g>
			<path class="st0" d="M171.56,331.54c53.62-17.15,115.33,0.2,162.46,86.35c4.24,8.28,9.71,6.21,9.41-2.22
				c1.04-8.72-0.34-45.33-23.21-77.75c-0.76-1.68,0.05-2.59,1.28-3.83c5.37-4,45.05-12.42,89.41-44.16
				c3.43-2.34,18.24-9.37,15.77-30.41c-7.39-51.9-48.8-87.09-60.33-94.19c-11.53-7.1-10.25,5.32-10.05,7.2
				c-2.07,40.12-14.12,99.07-57.04,139.29c-15.32-4.34-20.74-15.18-20.74-15.18s57.87-75.51,42.88-135.84
				c-3.94-16.96-8.58-22.97-27.5-19.12c-18.93,3.84-63.88,18.04-63.88,18.04s-7,2.66-1.48,9.76c5.52,7.1,32.14,33.91,10.45,108.83
				c-19.72-6.7-63.09-14.98-67.43-3.15C167.22,286.99,152.24,330.95,171.56,331.54z"/>
			<path class="st0" d="M356.59,360.52c-0.59,3.11,2.66,21.29,0,36.38c-4.44,11.24-5.93,18.04,2.8,24.84
				c8.73,6.8,73.99,37.56,112.24,78.57c14.64,14.89,22.03-3.6,11.24-12.17c-2.96-3.25-16.86-15.67-16.56-19.96
				c0.3-4.29,8.28,3.99,11.24,7.1c-7.98-16.12,9.46-36.67,28.09-13.46c7.59,7.34,2.27,24.69-4.24,29.42
				c7.13-7.13-5.27-24.89-15.18-14.98c-5.13,4.93,8.97,16.07,12.12,18.83c3.16,2.76,14.39-6.61,18.33-13.11
				c2.9-4.04,7.07-7.44,13.11-33.52c1.92-6.75,4.41-9.2,10.45-15.23c6.04-6.04,94.04-79.79,103.8-110.85
				c5.72-16.17,2.96-21.88-9.17-10.35c-12.12,11.53-79.26,61.81-104.69,68.91c-25.43,7.1-29.87-5.77-26.17-8.87
				c2.25-2.25,58.8-63.39-4.04-30.46c-23.01,8.48-45.49-10.25-50.22-27.01c-9.98-31.91-9.66-38.25-32.33-18.73
				c-12.22,10.06-33.91,20.9-42.19,23.86c-24.84,5.92-34.7,33.71-14.59,36.47c20.11,2.76,31-0.39,25.53,5.37
				c-5.47,5.77-13.6,10.94-4.44,15.97c9.17,5.03,26.67,17.45,27.68,18.63c1.01,1.18,9.14,2.22,11.5-3.7
				c2.37-5.92,0.29-7.54-1.33-8.43c-1.63-0.89,0.15-3.55,3.99-3.1c3.84,0.44,13.01-3.11,15.23-4.73c2.22-1.63,28.24-5.91,34.6,3.11
				c-7.22,2.25-9.31-2.42-19.52,1.18c-5.59,2.16-19.18,3.88-25.58,18.34c-4.78,10.79-6.56,33.07-26.07,26.76
				c-19.52-6.31-39.58-12.27-36.47-31.94C368.86,373.98,367.53,361.26,356.59,360.52z"/>
			<path d="M391.68,375.9c9.36,5.22,12.52,8.67,13.7,9.96s7.69,1.87,7-4.24c-2.76-5.03-12.72-11.93-15.28-12.03
				C394.54,369.49,389.51,370.18,391.68,375.9z"/>
		</g>
		<g>
			<path class="st0" d="M201.8,608.12l-19.38-31.19c-2.21,0-5.72-0.16-10.51-0.5v31.68h-9.92v-72.63c0.36,0,2.93-0.12,7.71-0.37
				c4.78-0.25,8.25-0.37,10.44-0.37c17.45,0,26.18,6.94,26.18,20.82c0,4.56-1.4,8.67-4.21,12.32c-2.81,3.65-6.15,5.92-10.01,6.82
				l21.07,33.42H201.8z M171.91,544.41v23.6c2.38,0.33,4.69,0.5,6.94,0.5c5.95,0,10.28-0.96,12.99-2.88
				c2.71-1.92,4.07-5.34,4.07-10.26c0-4.06-1.46-6.99-4.36-8.78c-2.91-1.78-7.5-2.68-13.78-2.68
				C176.77,543.92,174.82,544.08,171.91,544.41z"/>
			<path class="st0" d="M252.57,608.12v-33.37c0-3.97-0.97-7.09-2.92-9.37c-1.95-2.28-4.69-3.42-8.23-3.42
				c-2.28,0-4.57,0.67-6.87,2.01c-2.3,1.34-4.06,2.9-5.28,4.69v39.46h-9.42v-74.86h9.42v27.62c1.26-1.95,3.28-3.58,6.07-4.88
				c2.79-1.31,5.68-1.96,8.65-1.96c5.62,0,10.02,1.85,13.21,5.55c3.19,3.7,4.78,8.76,4.78,15.17v33.37H252.57z"/>
			<path class="st0" d="M356.29,581.45c0-8.2,2.21-14.82,6.62-19.86c4.41-5.04,10.22-7.56,17.43-7.56c7.6,0,13.5,2.42,17.7,7.26
				c4.2,4.84,6.3,11.56,6.3,20.15c0,8.56-2.15,15.31-6.45,20.25c-4.3,4.94-10.15,7.41-17.55,7.41c-7.57,0-13.47-2.5-17.7-7.49
				C358.41,596.64,356.29,589.91,356.29,581.45z M366.2,581.45c0,13.32,4.71,19.98,14.13,19.98c4.4,0,7.84-1.79,10.34-5.35
				c2.5-3.57,3.74-8.45,3.74-14.63c0-13.16-4.69-19.73-14.08-19.73c-4.3,0-7.73,1.75-10.29,5.25
				C367.49,570.47,366.2,575.3,366.2,581.45z"/>
			<path class="st1" d="M454.31,559.34l-4.66,6.64c-0.96-0.96-2.65-1.87-5.08-2.73c-2.43-0.86-4.82-1.29-7.16-1.29
				c-5.12,0-9.19,1.79-12.2,5.38c-3.01,3.59-4.51,8.5-4.51,14.75c0,6.21,1.54,10.95,4.61,14.2c3.07,3.26,7.34,4.88,12.79,4.88
				c4.23,0,8.49-1.64,12.79-4.91l3.72,7.93c-5.06,3.27-11.32,4.91-18.79,4.91c-7.24,0-13.22-2.43-17.95-7.29
				c-4.73-4.86-7.09-11.44-7.09-19.73c0-8.46,2.46-15.25,7.36-20.38c4.91-5.12,11.63-7.69,20.15-7.69c2.74,0,5.72,0.58,8.92,1.74
				C450.42,556.92,452.78,558.11,454.31,559.34z"/>
			<path class="st1" d="M509.24,582.49h-38.27c0,6.21,1.7,10.99,5.11,14.33c3.01,2.91,6.88,4.36,11.6,4.36
				c5.39,0,9.88-1.57,13.49-4.71l3.97,6.79c-1.45,1.45-3.69,2.71-6.69,3.77c-3.77,1.39-7.97,2.08-12.59,2.08
				c-6.68,0-12.34-2.26-17-6.79c-5.19-4.99-7.78-11.7-7.78-20.13c0-8.76,2.66-15.78,7.98-21.07c4.76-4.73,10.39-7.09,16.91-7.09
				c7.57,0,13.5,2.13,17.8,6.4c4.17,4.1,6.25,9.54,6.25,16.31C509.98,578.82,509.73,580.74,509.24,582.49z M486.38,561.96
				c-4.2,0-7.72,1.35-10.56,4.07c-2.71,2.58-4.25,5.78-4.61,9.62h29.4c0-3.8-1.19-6.97-3.57-9.52
				C494.43,563.35,490.88,561.96,486.38,561.96z"/>
			<path class="st1" d="M548.75,564.1c-2.05-1.42-4.12-2.13-6.2-2.13c-3.34,0-6.25,1.54-8.75,4.61c-2.5,3.07-3.74,6.78-3.74,11.11
				v30.44h-9.42v-53.1h9.42v8.48c3.44-6.31,8.54-9.47,15.32-9.47c1.69,0,4.12,0.3,7.29,0.89L548.75,564.1z"/>
			<path class="st1" d="M555.89,581.45c0-8.2,2.21-14.82,6.62-19.86c4.41-5.04,10.22-7.56,17.43-7.56c7.6,0,13.5,2.42,17.7,7.26
				c4.2,4.84,6.3,11.56,6.3,20.15c0,8.56-2.15,15.31-6.45,20.25c-4.3,4.94-10.15,7.41-17.55,7.41c-7.57,0-13.47-2.5-17.7-7.49
				C558.01,596.64,555.89,589.91,555.89,581.45z M565.81,581.45c0,13.32,4.71,19.98,14.13,19.98c4.4,0,7.84-1.79,10.34-5.35
				c2.5-3.57,3.74-8.45,3.74-14.63c0-13.16-4.69-19.73-14.08-19.73c-4.3,0-7.73,1.75-10.29,5.25
				C567.09,570.47,565.81,575.3,565.81,581.45z"/>
			<path class="st1" d="M610.38,604.95l3.32-8.92c5.26,3.44,9.49,5.16,12.69,5.16c5.82,0,8.73-2.45,8.73-7.34
				c0-3.5-2.81-6.51-8.43-9.02c-4.33-1.98-7.25-3.49-8.75-4.51c-1.5-1.02-2.81-2.19-3.92-3.5c-1.11-1.31-1.93-2.69-2.48-4.17
				c-0.54-1.47-0.82-3.05-0.82-4.74c0-4.36,1.59-7.77,4.76-10.21c3.17-2.45,7.32-3.67,12.44-3.67c3.87,0,8.74,1.22,14.62,3.67
				l-2.68,8.73c-3.74-2.97-7.49-4.46-11.25-4.46c-2.25,0-4.14,0.53-5.68,1.59c-1.54,1.06-2.3,2.4-2.3,4.02
				c0,3.41,1.93,5.98,5.8,7.73l6.74,3.07c4.13,1.88,7.14,4.03,9.02,6.45c1.88,2.41,2.83,5.44,2.83,9.07c0,4.76-1.67,8.49-5.01,11.18
				c-3.34,2.69-7.96,4.04-13.88,4.04C620.56,609.11,615.3,607.72,610.38,604.95z"/>
			<g>
				<path class="st0" d="M285.05,546.59c1.62,0,3-0.57,4.14-1.71c1.14-1.14,1.71-2.52,1.71-4.14c0-1.59-0.57-2.95-1.71-4.09
					c-1.14-1.14-2.52-1.71-4.14-1.71c-1.62,0-2.99,0.56-4.12,1.69c-1.12,1.12-1.69,2.5-1.69,4.12c0,1.62,0.57,3,1.71,4.14
					C282.1,546.02,283.46,546.59,285.05,546.59z"/>
				<polygon class="st0" points="279.89,562.96 279.89,608.12 289.31,608.12 289.31,555.02 279.89,555.02 				"/>
			</g>
			<path class="st0" d="M328.92,554.03c-7.04,0-12.11,2.61-15.22,7.83v-6.84h-2.97h-6.45v53.1h9.42v-39.46
				c1.26-1.88,3.06-3.47,5.4-4.76c2.35-1.29,4.59-1.93,6.74-1.93c4,0,6.85,1.13,8.55,3.4c1.7,2.26,2.55,6.22,2.55,11.87v30.89h9.42
				v-32.87C346.37,561.1,340.56,554.03,328.92,554.03z"/>
		</g>
	</g>
</g>
</svg>
