<?xml version="1.0" encoding="utf-8"?>
<!-- Generator: Adobe Illustrator 24.1.2, SVG Export Plug-In . SVG Version: 6.00 Build 0)  -->
<svg version="1.1" id="Layer_1" xmlns="http://www.w3.org/2000/svg" xmlns:xlink="http://www.w3.org/1999/xlink" x="0px" y="0px"
	 viewBox="0 0 282 282" style="enable-background:new 0 0 282 282;" xml:space="preserve">
<style type="text/css">
	.st0{fill:#FDFDFD;}
	.st1{fill:#41A142;}
	.st2{fill:#8B8C65;}
	.st3{fill:#8C8D65;}
	.st4{fill:#22832E;}
	.st5{fill:#AEAEAE;}
	.st6{fill:#46A347;}
	.st7{fill:#92946C;}
	.st8{fill:#288532;}
	.st9{fill:#258431;}
	.st10{fill:#2A8633;}
	.st11{fill:#2A8634;}
	.st12{fill:#226F2C;}
	.st13{fill:#B9F1E8;}
	.st14{fill:#8BD7A7;}
	.st15{fill:#6EBF7B;}
	.st16{fill:#C9EBD4;}
	.st17{fill:#227F2C;}
</style>
<path class="st0" d="M45,45c64,0,128,0,192,0c0,64,0,128,0,192c-64,0-128,0-192,0C45,173,45,109,45,45z M92.12,177.8
	c-0.95-0.36-1.9-0.72-2.84-1.08c-6.1-12.15-5.91-24.33-0.23-36.55c0.89,0.35,1.78,0.69,2.68,1.04c0.44,0.69,1.11,1.33,1.27,2.08
	c2.8,12.74,9.33,23.35,18.39,32.53c1.09,2.17,1.76,4.74,3.37,6.42c3.41,3.56,7.31,6.65,11,9.94c1.9,7.19,7.7,11.78,14.64,11.6
	c7.23-0.19,12.67-4.78,14.23-12c0.5-0.57,0.98-1.15,1.5-1.71c4.14-4.42,8.29-8.84,12.44-13.25c7.92-8,14.66-16.74,17.86-27.78
	c0.78-2.69,1.75-5.33,2.63-7.99c0.65-0.33,1.3-0.67,1.95-1c7.05,12.07,6.21,24.27,0.56,36.54c-1.2,0.47-2.39,0.93-3.59,1.4
	c-3.99,0.67-8.13,0.88-11.93,2.15c-2.91,0.97-4.45,3.93-2.69,6.93c1.86,3.17,4.62,2.29,7.35,0.68c3.7-2.19,7.13-1.42,8.26,1.84
	c1.29,3.73-0.34,6.19-4,7.18c-3.02,0.81-5.68,1.94-4.55,5.66c1.24,4.07,4.44,3.9,7.74,2.73c8.13-2.88,10.2-9.3,9.94-17.07
	c0.43-1.25,0.85-2.5,1.28-3.75c12.22-16.41,10.16-43.43-4.35-57.31c-2.01-2.67-4.02-5.34-6.02-8.01c-0.68-1.86-1.43-3.7-2.03-5.58
	c-8.46-26.47-25.75-46.56-47.61-65.86c-3.99,4.65-7.62,9.21-11.59,13.45c-12.59,13.43-24.19,27.53-31.29,44.77
	c-1.76,4.28-3.16,8.7-4.73,13.06c-2.27,3-4.55,6-6.82,9.01c-13.81,13.74-15.61,39.46-3.91,56.09c0.59,1.73,1.18,3.46,1.77,5.2
	c0.02,9.33,3.88,14.94,11.24,16.48c3.06,0.64,5.35-0.12,6.24-3.3c0.89-3.17-1.09-4.48-3.73-5.38c-4.74-1.63-6.53-4.29-4.83-7.42
	c2.19-4.05,5.3-3.81,8.79-1.5c2.51,1.66,5.21,1.91,6.9-1.05c1.65-2.89,0.25-5.71-2.42-6.6C100.87,178.99,96.43,178.6,92.12,177.8z
	 M176.68,228.83c-9.37-5.29-66.83-4.97-73.87,0.53C128.09,232.34,152.4,232.6,176.68,228.83z"/>
<path class="st1" d="M111.39,175.82c-9.06-9.19-15.59-19.8-18.39-32.53c-0.16-0.75-0.84-1.39-1.27-2.08
	c0.34-1.84,0.94-3.68,0.97-5.53c0.09-4.6-0.02-9.21-0.16-13.81c-0.03-1.02-0.51-2.03-0.78-3.04c1.57-4.36,2.97-8.78,4.73-13.06
	c7.1-17.24,18.7-31.34,31.29-44.77c3.97-4.24,7.6-8.8,11.59-13.45c21.86,19.3,39.15,39.39,47.61,65.86c0.6,1.88,1.35,3.72,2.03,5.58
	c-0.26,1.38-0.72,2.77-0.75,4.15c-0.1,4.59-0.11,9.18-0.01,13.76c0.03,1.38,0.53,2.76,0.81,4.13c-0.88,2.66-1.85,5.3-2.63,7.99
	c-3.2,11.04-9.94,19.78-17.86,27.78c-1.33,0.61-2.73,1.1-3.97,1.86c-15.29,9.28-30.73,10.16-46.4,0.95
	C115.96,178.3,113.66,177.08,111.39,175.82z M141.59,146.02c13.05,0,21.35-10.6,21.13-20.72c-0.3-13.92-9.39-21.73-21.18-21.91
	c-11.68-0.18-21.03,7.44-21.47,21.41C119.69,136.9,129.24,146.04,141.59,146.02z M140.78,153.86c-0.6,0.22-1.2,0.43-1.8,0.65
	c0,3.26-0.16,6.54,0.1,9.78c0.07,0.91,1.36,1.72,2.09,2.58c0.59-0.83,1.62-1.62,1.7-2.5c0.23-2.46,0.28-4.99-0.03-7.44
	C142.7,155.84,141.5,154.88,140.78,153.86z M148.95,154.46c-0.57-0.22-1.14-0.44-1.71-0.65c-0.74,1.25-2.05,2.48-2.09,3.74
	c-0.08,2.69,0.51,5.4,0.82,8.1c0.99-0.5,2.79-0.93,2.84-1.51C149.1,160.93,148.95,157.68,148.95,154.46z M134.9,166.58
	c2.25-7.92,1.46-11.3-2.92-12.13C132.81,158.4,130.13,162.89,134.9,166.58z M152.51,161.8c4.05-0.04,3.61-2.84,3.29-5.1
	c-0.13-0.92-1.55-1.66-2.38-2.48c-0.48,1.56-1.1,3.09-1.38,4.68C151.89,159.76,152.32,160.73,152.51,161.8z M126.86,161.73
	c0.71-0.06,1.42-0.12,2.12-0.18c-0.13-2.45-0.25-4.9-0.38-7.36c-0.58,0.02-1.16,0.05-1.75,0.07
	C126.86,156.75,126.86,159.24,126.86,161.73z"/>
<path class="st2" d="M195.02,127c14.52,13.88,16.57,40.9,4.35,57.31c-0.7-4.5-3.46-6.92-7.81-7.73c5.65-12.27,6.49-24.47-0.56-36.54
	C194.47,136.34,195.5,131.9,195.02,127z"/>
<path class="st3" d="M89.04,140.17c-5.68,12.22-5.87,24.4,0.23,36.55c-4.43,0.48-7.38,2.65-8.25,7.21
	c-11.7-16.63-9.91-42.35,3.91-56.09C86.31,131.94,87.67,136.06,89.04,140.17z"/>
<path class="st4" d="M111.39,175.82c2.27,1.26,4.57,2.48,6.81,3.79c15.67,9.21,31.1,8.33,46.4-0.95c1.24-0.75,2.64-1.24,3.97-1.86
	c-4.14,4.42-8.29,8.83-12.44,13.25c-0.52,0.55-1,1.14-1.5,1.71c-5.81,1.09-11.59,2.78-17.44,3.06c-3.76,0.18-7.62-1.7-11.43-2.66
	c-3.7-3.28-7.59-6.38-11-9.94C113.15,180.56,112.48,177.99,111.39,175.82z"/>
<path class="st5" d="M176.68,228.83c-24.29,3.77-48.59,3.5-73.87,0.53C109.85,223.86,167.31,223.54,176.68,228.83z"/>
<path class="st6" d="M198.1,188.06c0.26,7.77-1.81,14.19-9.94,17.07c-3.3,1.17-6.5,1.34-7.74-2.73c-1.13-3.72,1.53-4.84,4.55-5.66
	c3.66-0.98,5.29-3.45,4-7.18c-1.13-3.26-4.55-4.03-8.26-1.84c-2.73,1.61-5.49,2.48-7.35-0.68c-1.76-3-0.22-5.96,2.69-6.93
	c3.79-1.26,7.94-1.48,11.93-2.15C191.35,181.34,194.73,184.7,198.1,188.06z"/>
<path class="st6" d="M92.12,177.8c4.31,0.8,8.76,1.19,12.87,2.56c2.67,0.89,4.07,3.71,2.42,6.6c-1.69,2.95-4.39,2.7-6.9,1.05
	c-3.49-2.31-6.6-2.55-8.79,1.5c-1.7,3.13,0.1,5.79,4.83,7.42c2.64,0.91,4.62,2.21,3.73,5.38c-0.89,3.18-3.17,3.94-6.24,3.3
	c-7.37-1.54-11.23-7.15-11.24-16.48C85.91,185.35,89.01,181.57,92.12,177.8z"/>
<path class="st7" d="M125.76,192.18c3.81,0.96,7.67,2.84,11.43,2.66c5.85-0.28,11.63-1.97,17.44-3.06c-1.56,7.22-7,11.81-14.23,12
	C133.45,203.95,127.66,199.36,125.76,192.18z"/>
<path class="st8" d="M89.04,140.17c-1.37-4.11-2.74-8.22-4.11-12.34c2.27-3,4.55-6.01,6.82-9.01c0.27,1.01,0.75,2.02,0.78,3.04
	c0.14,4.6,0.25,9.21,0.16,13.81c-0.04,1.85-0.63,3.69-0.97,5.53C90.83,140.86,89.94,140.52,89.04,140.17z"/>
<path class="st9" d="M195.02,127c0.47,4.9-0.56,9.35-4.02,13.04c-0.65,0.33-1.3,0.67-1.95,1c-0.28-1.38-0.78-2.75-0.81-4.13
	c-0.1-4.59-0.09-9.18,0.01-13.76c0.03-1.39,0.49-2.77,0.75-4.15C191.01,121.66,193.01,124.33,195.02,127z"/>
<path class="st10" d="M92.12,177.8c-3.1,3.77-6.21,7.55-9.31,11.32c-0.59-1.73-1.18-3.46-1.77-5.2c0.87-4.55,3.82-6.72,8.25-7.21
	C90.22,177.08,91.17,177.44,92.12,177.8z"/>
<path class="st11" d="M198.1,188.06c-3.37-3.36-6.75-6.73-10.12-10.09c1.2-0.47,2.39-0.93,3.59-1.4c4.35,0.81,7.11,3.23,7.81,7.73
	C198.95,185.56,198.53,186.81,198.1,188.06z"/>
<path class="st12" d="M141.59,146.02c-12.35,0.02-21.9-9.11-21.52-21.23c0.44-13.97,9.79-21.59,21.47-21.41
	c11.79,0.18,20.88,7.99,21.18,21.91C162.94,135.41,154.64,146.02,141.59,146.02z M122.95,124.7c0.05,10.13,8.42,18.3,18.57,18.12
	c9.96-0.17,17.88-8.3,17.85-18.31c-0.03-9.97-8.04-18.02-18.04-18.14C131.25,106.24,122.9,114.57,122.95,124.7z"/>
<path class="st13" d="M122.95,124.7c-0.05-10.13,8.3-18.46,18.38-18.33c10,0.12,18.01,8.18,18.04,18.14
	c0.03,10.01-7.89,18.14-17.85,18.31C131.38,143,123.01,134.83,122.95,124.7z M141.53,139.99c8.13-0.02,15.54-7.19,15.19-15.42
	c-0.35-8.39-7.01-15.27-15.51-14.8c-8.75,0.49-15.14,6.41-15.19,15.08C125.98,132.79,133.39,140.02,141.53,139.99z"/>
<path class="st14" d="M141.53,139.99c-8.15,0.02-15.55-7.2-15.5-15.13c0.05-8.67,6.44-14.6,15.19-15.08
	c8.49-0.47,15.16,6.4,15.51,14.8C157.07,132.8,149.67,139.97,141.53,139.99z M140.22,118.11c-1.42-1.36-2.67-3.08-4.35-3.9
	c-0.67-0.32-3.31,1.35-3.31,2.1c0.01,2.03,0.97,4.06,1.55,6.09c-0.02,0.66-0.12,1.34-0.05,1.99c0.49,4.65,3.76,7.77,7.75,7.44
	c3.39-0.28,6.39-4.01,6.23-7.75C147.85,119.7,145.68,118.04,140.22,118.11z"/>
<path class="st15" d="M140.22,118.11c5.46-0.07,7.63,1.59,7.81,5.98c0.16,3.74-2.84,7.47-6.23,7.75c-3.99,0.33-7.26-2.79-7.75-7.44
	c-0.07-0.66,0.03-1.33,0.05-2C137,122.19,140.08,122.24,140.22,118.11z"/>
<path class="st16" d="M140.22,118.11c-0.14,4.13-3.22,4.08-6.11,4.3c-0.58-2.03-1.53-4.06-1.55-6.09c0-0.75,2.64-2.43,3.31-2.1
	C137.55,115.03,138.8,116.75,140.22,118.11z"/>
<rect x="131.96" y="153.73" class="st17" width="4.16" height="12.72"/>
<rect x="144.99" y="153.73" class="st17" width="4.16" height="12.72"/>
<rect x="138.94" y="153.73" class="st17" width="4.13" height="13.26"/>
<rect x="126.01" y="154.04" class="st1" width="3.41" height="8.41"/>
<rect x="151.61" y="154.04" class="st1" width="4.61" height="8.41"/>
<rect x="151.61" y="153.73" class="st17" width="4.16" height="9.2"/>
<rect x="125.27" y="153.73" class="st17" width="4.16" height="9.2"/>
</svg>
