<?xml version="1.0" encoding="utf-8"?>
<!-- Generator: Adobe Illustrator 24.1.2, SVG Export Plug-In . SVG Version: 6.00 Build 0)  -->
<svg version="1.1" id="Layer_1" xmlns="http://www.w3.org/2000/svg" xmlns:xlink="http://www.w3.org/1999/xlink" x="0px" y="0px"
	 viewBox="0 0 2558.94 2558.96" style="enable-background:new 0 0 2558.94 2558.96;" xml:space="preserve">
<style type="text/css">
	.st0{fill:#DFA22F;}
	.st1{fill:#3CB187;}
	.st2{fill:#CE1E5B;}
	.st3{fill:#392538;}
	.st4{fill:#BB242A;}
	.st5{fill:#72C5CD;}
	.st6{fill:#248C73;}
	.st7{fill:#62803A;}
</style>
<path class="st0" d="M1638.34,172.28C1600.35,55.34,1474.75-8.66,1357.82,29.35c-116.94,37.99-180.94,163.59-142.93,280.52
	l575.65,1771.14c39.53,109.25,157.54,170.63,270.82,138.04c118.16-34.01,190.19-159.51,152.48-275.56L1638.34,172.28"/>
<path class="st1" d="M746.36,462.1c-38.01-116.93-163.6-180.93-280.53-142.94c-116.95,38-180.96,163.59-142.94,280.54
	l575.66,1771.15c39.52,109.24,157.54,170.63,270.82,138.01c118.15-33.99,190.18-159.49,152.47-275.56L746.36,462.1"/>
<path class="st2" d="M2362.92,1639.14c116.94-37.99,180.92-163.57,142.93-280.53c-37.99-116.92-163.59-180.93-280.52-142.93
	L454.19,1791.36c-109.25,39.51-170.63,157.52-138.04,270.8c34.01,118.15,159.51,190.19,275.56,152.48L2362.92,1639.14"/>
<path class="st3" d="M823.34,2139.39l423.31-137.54l-137.56-423.36l-423.34,137.6L823.34,2139.39"/>
<path class="st4" d="M1715.32,1849.55c160.04-51.98,308.79-100.32,423.32-137.54l-137.58-423.44l-423.34,137.6L1715.32,1849.55"/>
<path class="st5" d="M2073.1,747.16c116.93-37.99,180.93-163.58,142.94-280.54c-37.99-116.92-163.59-180.92-280.54-142.93
	L164.35,899.38C55.11,938.87-6.28,1056.89,26.34,1170.17c33.99,118.14,159.49,190.18,275.56,152.47L2073.1,747.16"/>
<path class="st6" d="M533.43,1247.42c115.28-37.46,263.92-85.76,423.38-137.56c-51.98-160.05-100.32-308.8-137.54-423.35
	L395.84,824.12L533.43,1247.42"/>
<path class="st7" d="M1425.41,957.61l423.4-137.58c-45.86-141.15-91.79-282.27-137.59-423.44l-423.41,137.62L1425.41,957.61"/>
</svg>
