<?xml version="1.0" encoding="utf-8"?>
<!-- Generator: Adobe Illustrator 24.1.2, SVG Export Plug-In . SVG Version: 6.00 Build 0)  -->
<svg version="1.1" id="Layer_1" xmlns="http://www.w3.org/2000/svg" xmlns:xlink="http://www.w3.org/1999/xlink" x="0px" y="0px"
	 viewBox="0 0 2500 2500" style="enable-background:new 0 0 2500 2500;" xml:space="preserve">
<style type="text/css">
	.st0{fill-rule:evenodd;clip-rule:evenodd;fill:#C9222F;}
	.st1{fill-rule:evenodd;clip-rule:evenodd;fill:#423A90;}
	.st2{fill-rule:evenodd;clip-rule:evenodd;fill:#DF9F38;}
</style>
<g>
	<path class="st0" d="M554.73,1737.36v23.64c0,19.13,6.32,36.06,31.15,36.06c18.26,0,26.25-16.48,26.25-33.42
		c0-28-23.11-38.64-43.54-51.17c-24.11-13.77-44.53-26.68-59.14-43.54c-14.34-17.02-22.8-37.43-22.8-66.85
		c0-62.67,37.83-94.74,98.35-94.74c68.16,0,102.84,45.39,99.22,108.06h-72.09c-0.91-19.51,0-46.2-25.81-47.99
		c-15.98-1.35-25.28,7.63-27.12,22.23c-2.26,20.04,8.05,30.28,23.58,40.95c29.34,18.73,54.69,30.28,73.01,47.15
		c18.21,16.99,28.87,39.22,28.87,79.71c0,64.04-35.59,99.63-100.54,99.63c-71.7,0-101.84-39.99-101.84-84.06v-35.64h72.45
		L554.73,1737.36L554.73,1737.36z M707.14,1678.26c0-64.12,37.87-85.48,92.53-85.48c62.33,0,92.54,29.31,92.54,85.48v101.38
		c-3.62,56.5-38.69,77.42-92.54,77.42c-50.74,0-92.53-20.44-92.53-77.42V1678.26z M777.94,1784.12c1.28,14.25,7.12,21.8,21.72,21.8
		c14.69,0,20.43-7.55,21.83-21.8v-111.28c0-15.94-5.36-28.91-21.83-28.91c-16.46,0-21.72,12.97-21.72,28.91V1784.12z
		 M919.78,1515.41h70.8v333.56h-70.8V1515.41L919.78,1515.41z M1025.8,1599.87h70.5v249.08h-70.5V1599.87L1025.8,1599.87z
		 M1025.8,1455.21h70.5v60.09h-70.5V1455.21z M1245.69,1849v-28.84h-0.83c-12.97,24.07-34.3,36.92-55.17,36.92
		c-51.62-1.79-61.89-50.26-61.89-92.55v-86.25c0-39.18,13.81-85.48,60.56-85.48c18.73,0,36.86,8.02,51.5,29.82h0.95v-107.2h70.79
		V1849H1245.69L1245.69,1849z M1198.56,1759.17c0,14.75,0,40.08,20.41,40.08c19.13,0,21.83-19.1,21.83-43.19v-58.71
		c0-21.35-3.16-47.17-20.52-46.64c-22.58,0-21.72,28.04-21.72,44.03L1198.56,1759.17L1198.56,1759.17z M1444.61,1849h-45.87
		l-71.1-333.58h40.91l43.5,230.02c4.03,22.65,7.2,45.78,9.93,76.91h0.8c3.11-25.74,5.77-50.23,10.71-74.26l48.91-232.66h45.74
		l44.2,230.02c3.85,22.23,6.51,44.45,9.65,76.91h0.96c3.04-25.74,5.72-50.23,10.69-74.26l48.4-232.66h41.01L1604.74,1849h-45.8
		l-44.46-226.39c-4.44-21.8-7.07-44.03-9.83-80.53h-0.91c-3.03,32.09-5.77,56.44-10.64,80.53L1444.61,1849L1444.61,1849z
		 M1761.44,1855.73c-53.32,0-88.45-32.05-88.45-138.76c0-74.85,27.53-121.97,88.45-121.97c61,0,88.64,47.13,88.64,121.97
		C1850.07,1824.11,1815.74,1855.73,1761.44,1855.73z M1761.44,1624.83c-35.93,0-52.01,28.39-52.01,103.27
		c0,58.25,11.11,97.87,52.01,97.87c41.8,0,52.03-39.62,52.03-97.87C1813.46,1653.23,1798.44,1624.83,1761.44,1624.83z
		 M1916.56,1642.11h0.91c14.64-32.44,35.61-46.21,72.42-43.01v34.66c-45.34-8.04-72.07,20.41-72.07,65.32V1849h-35.14v-247.26h33.86
		v40.37H1916.56z M2015.15,1849v-333.58h35.06v201.55l85.42-115.24h41.83l-76.41,96.07l78.66,151.2h-40.89l-61.93-123.16
		l-26.68,35.17V1849H2015.15z M2297.65,1668c1.39-29.4-9.2-43.18-39.14-43.18c-24.9,0-39.14,11.62-39.14,37.42
		c0,31.94,26.26,36.03,50.36,46.2c35.49,16.11,71.13,24.94,71.13,71.2c0,47.17-32.9,76.56-83.72,76.07
		c-21.79,0.49-48.38-7.07-61.37-25.78c-14.64-19.55-13.8-36.02-13.8-52.96h33.46c-1.3,30.27,8.9,48.97,41.72,48.97
		c28.62,0,47.27-11.62,47.27-41.85c0-35.11-35.61-38.25-60.97-48.97c-38.25-14.18-60.52-27.09-60.52-70.19
		c0-42.85,29.84-69.96,72.55-69.96c48.94,0,77.36,22.36,76.47,73.02h-34.3L2297.65,1668L2297.65,1668z"/>
	<path class="st1" d="M629.95,1018.26c-132.4-39.16-276.7-5.12-298.72,0.71c-33.33,8.83-52.85,17.74-51.49,28.17
		c1.04,7.72,9.55,13.03,50.5,12.01c97.62-2.37,178.5,0.95,229.63,15.25c63.32,17.68,71.11,50.28,39.75,114.35
		c-14.5,29.6-35.94,60.19-68.4,92.71c-64.82,65.04-145.84,107.35-191.49,130.48c-44.37,22.52-60.61,10.54-55.68-11.66
		c6.07-27.2,131.97-245.08,131.97-245.08c9.47-16.54,11.14-32.07,0-36.72c-9.55-4.06-26.85,9.35-44.82,30.14
		c-73.49,85.34-209.02,345.01-211.54,353.52c-2.48,8.16,3.9,9.2,6.33,9.25c57.38-0.44,409.64-104.63,523.29-317.56
		C749.19,1081.7,718.89,1044.6,629.95,1018.26L629.95,1018.26z"/>
	<path class="st2" d="M805.42,915.83c-71.13,61.52,34.36,162.85,83.94,220.93c48.3,56.47,106.73,128.17,109.45,152.77
		c1.26,11.28-1,24.11-14.53,32.5c-22.09,13.77-113.29,27.12-301.99,26.95c-40.96-0.03-49.31,3.96-50.34,11.3
		c-0.58,3.84-1.84,12.72,50.23,25.81c1.43,0.39,216.26,39.89,330.82,0c117.05-39.92,87.6-107.35,66.6-146.29
		c-32.32-60-181.51-234.42-193.81-258.11c-11.5-22.2,5.27-31.93,5.27-31.93s24.95-30.01,223.86-28.29
		c40.98,0.3,49.49-3.99,50.45-11.36c0.8-6.1-10.88-19.35-49.87-27.7C1078.73,874.53,890.72,842.09,805.42,915.83L805.42,915.83z"/>
	<path class="st0" d="M548.85,553.61c-15.87,4.64-47.83,13.45-45.13,25.12c1.72,7.47,8.07,11.02,45.21,11
		c83.06-0.1,147.63,5.29,191.85,13.23c89.93,16.24,68.74,61.62,43.18,105.07c-62,105.72-229.5,224.68-239.23,231.41
		c-12.78,8.79-5.78,13.9,5.38,9.77c135.81-50.52,272.65-137.62,327.93-243.46c46.89-89.76,13.27-132.33-58.2-152.41
		C692.26,517.44,560,550.33,548.85,553.61L548.85,553.61z"/>
</g>
</svg>
