<?xml version="1.0" encoding="utf-8"?>
<!-- Generator: Adobe Illustrator 24.1.3, SVG Export Plug-In . SVG Version: 6.00 Build 0)  -->
<svg version="1.1" id="Layer_1" xmlns="http://www.w3.org/2000/svg" xmlns:xlink="http://www.w3.org/1999/xlink" x="0px" y="0px"
	 viewBox="0 0 3314.1 3314.1" style="enable-background:new 0 0 3314.1 3314.1;" xml:space="preserve">
<style type="text/css">
	.st0{fill:#FE4785;}
</style>
<g>
	<path class="st0" d="M2094.3,468.5c-3.8,81.5-8.4,161.4-10.7,240.6c-0.8,19,5.3,38.1,8.4,57.9c17.5-8.4,35.8-14.5,51.8-24.4
		c17.5-10.7,34.3-22.1,48.7-36.5c23.6-24.4,42.6-19,63.9,1.5c13.7,12.9,28.9,25.1,44.9,35c10.7,6.9,24.4,8.4,36.5,12.9
		c3-11.4,9.9-22.8,9.1-34.3c-1.5-76.1-4.6-152.3-7.6-228.4c-0.8-12.2,0-25.1,0-42.6c56.3-2.3,110.4-6.9,164.4-5.3
		c50.2,1.5,96.7,51,103.5,102c2.3,15.2,2.3,30.5,2.3,45.7c0,736.9,0,1474.6,0,2211.5c0,20.6,0,41.1-3.8,60.9
		c-11.4,51.8-62.4,93.6-116.5,91.4c-213.9-7.6-428.6-16.7-642.5-25.9c-143.1-6.1-286.2-12.9-429.3-19
		c-205.5-9.1-410.3-18.3-615.9-28.9c-87.5-4.6-129.4-51-134-138.5c-3.8-84.5-6.1-169.8-9.1-255c-8.4-239.8-16.7-478.8-25.1-718.6
		c-12.9-354.7-25.9-709.5-38.1-1064.2c-3-106.6,41.1-150,146.9-156.1c271-16,541.3-34.3,812.3-51c170.5-10.7,341.8-21.3,512.3-32
		C2075.2,466.9,2083.6,468.5,2094.3,468.5z M1307.1,1901.1c-53.3,4.6-101.2,8.4-149.2,13.7c-29.7,3-48,16.7-44.9,52.5
		c3,35-0.8,71.6,2.3,106.6c17.5,169.8,93.6,299.9,258.8,361.6c162.9,60.9,329.6,64.7,495.6,11.4c356.3-115.7,354-500.9,207.1-683.6
		c-54-67-121-118.8-194.9-161.4c-79.9-46.4-162.9-88.3-240.6-137.8c-36.5-22.8-71.6-55.6-93.6-91.4c-53.3-86,0.8-175.9,101.2-175.9
		c70.8,0,109.6,36.5,119.5,114.9c2.3,17.5,3.8,35.8,2.3,53.3c-3,30.5,10.7,48,39.6,47.2c93.6-2.3,187.3-3,279.4-11.4
		c61.7-6.1,62.4-13.7,55.6-76.9c-1.5-12.9-2.3-25.1-3-38.1c-16-203.3-140.1-350.2-336.5-395.9c-108.9-25.1-219.2-25.9-328.1-1.5
		c-160.6,35.8-283.2,121-331.1,285.5c-49.5,170.5-22.8,328.1,110.4,454.5c47.2,44.9,102,83,156.8,118.8
		c77.6,50.2,159.1,94.4,236.8,143.9c44.2,28.2,81.5,64.7,97.4,118c21.3,70-6.1,134-64.7,149.2c-82.2,22.1-149.2-11.4-165.2-86.8
		c-7.6-32.7-9.9-67.8-9.1-102c0.8-32.7-11.4-47.2-41.9-50.2C1412.9,1911.8,1357.4,1906.5,1307.1,1901.1z"/>
</g>
</svg>
