<?xml version="1.0" encoding="utf-8"?>
<!-- Generator: Adobe Illustrator 24.1.3, SVG Export Plug-In . SVG Version: 6.00 Build 0)  -->
<svg version="1.1" id="Layer_1" xmlns="http://www.w3.org/2000/svg" xmlns:xlink="http://www.w3.org/1999/xlink" x="0px" y="0px"
	 viewBox="0 0 3314.1 3314.1" style="enable-background:new 0 0 3314.1 3314.1;" xml:space="preserve">
<style type="text/css">
	.st0{fill:#FCFCFC;}
	.st1{fill:#090909;}
	.st2{fill:#FED362;}
	.st3{fill:#FEC434;}
	.st4{fill:#FDC43A;}
	.st5{fill:#CC68A2;}
	.st6{fill:#FEC636;}
	.st7{fill:#FECD43;}
	.st8{fill:#CE69A3;}
	.st9{fill:#D06BA7;}
	.st10{fill:#F696D1;}
	.st11{fill:#D780B5;}
	.st12{fill:#FECD45;}
	.st13{fill:#C25D98;}
	.st14{fill:#C4599A;}
	.st15{fill:#F897D2;}
	.st16{fill:#DB73B3;}
	.st17{fill:#FED154;}
	.st18{fill:#BF6FA0;}
	.st19{fill:#FDD056;}
	.st20{fill:#C15687;}
	.st21{fill:#EE991D;}
	.st22{fill:#F4AC38;}
	.st23{fill:#EF9C1F;}
	.st24{fill:#FDD060;}
	.st25{fill:#FDCF53;}
	.st26{fill:#D774B1;}
	.st27{fill:#D877B2;}
</style>
<g>
	<path d="M2.8,2812.9c0-741.6,0-1483.1,0-2224.7c1104.3,0,2208.6,0,3312.9,0c0,741.6,0,1483.1,0,2224.7
		C2211.4,2812.9,1107.1,2812.9,2.8,2812.9z M3273.5,2771.3c0-717.6,0-1428.2,0-2140.5c-1078,0-2152.7,0-3227.5,0
		c0,715.9,0,1427.8,0,2140.5C1123.7,2771.3,2196.9,2771.3,3273.5,2771.3z"/>
	<path class="st0" d="M3273.5,2771.3c-1076.6,0-2149.9,0-3227.5,0c0-712.6,0-1424.6,0-2140.5c1074.8,0,2149.5,0,3227.5,0
		C3273.5,1343.1,3273.5,2053.7,3273.5,2771.3z M1295.5,1700.2l0.6-0.8c-4.3,4.3-8.5,8.5-12.8,12.8l0.7-0.7
		c-4.3,4.2-8.5,8.4-12.8,12.6l-0.4-1.4c-24.4,20.5-48.9,41-73.3,61.6c-52.3,29.5-83.5,69.7-68.3,133.6c-0.1,44.4-0.2,88.9-0.2,133.3
		c-0.1,8.2-0.2,16.4-0.3,24.5c10,29.9-35.3,91.9,46.5,80c20.2,0.2,40.4,0.4,60.6,0.6c20.5,0,41-0.1,61.5-0.1
		c15.9,0.3,31.8,0.6,47.8,0.9c3.9,0.1,7.9,0.1,11.8,0.2c8,0,16.1-0.1,24.1-0.1c4.4-0.1,8.8-0.2,13.1-0.2
		c47.8-0.5,95.6-1.1,143.4-1.6c61.4,0,122.7-0.1,184.1-0.1c36.3-34.3,72.7-68.7,109-103l-1.4,0c4.6-4.3,9.3-8.6,13.9-12.9
		c54.5-36.8,74.2-84.6,46.3-147.3c8.1-15.1,16.2-30.3,24.2-45.4c14.3-28.6,28.6-57.2,42.8-85.7c25.4-49.4,75.4-92,43.5-157.3
		c7.5-26.7,15.1-53.4,22.6-80.1c8.2-7.2,21.1-12.9,23.8-21.7c18.8-62,35.4-124.7,52.7-187.2l3.8,0.7c0,0,3.6-1.5,3.6-1.5
		c19.3-9.3,54.8-17.8,55.3-28c2.8-54.6-3.2-109.7-6.1-164.7c-8.2-0.3-16.3-0.5-24.5-0.8c-40.6,0.1-81.1,0.3-121.7,0.4
		c-59.9,60.5-64.4,120-11.8,157.1l-0.3-0.4c5.4,18.7,18,38.6,14.9,55.8c-11.9,66.9-30,132.6-42.9,199.3c-3.7,19,2.4,39.9,4.1,60
		c0,3.3-0.3,6.6-1,9.9c-11.6,12.7-23.2,25.5-34.9,38.2c-9.1,8.8-24.1,16.4-26.2,26.6c-9.2,45.5-38.4,65.9-80.9,72.9
		c-0.4-17.6-0.8-35.1-1.2-52.7c11.1-24.2,22.2-48.5,33.3-72.7c3.1-7.3,8.1-14.4,8.8-21.9c2.6-27.5,3.9-55.1,5.6-82.6
		c-27,2.3-59.8-4.3-80,8.7c-56.6,36.2-108,80.6-161.5,121.7c-4.3-16.4-8.7-32.7-13-49.1c16.1-27,36.6-52.5,46.5-81.7
		c5.9-17.4,1.9-50.9-9.8-58.5c-15.7-10.2-50.4-11.6-64.2-0.7c-70.4,55.8-136.8,116.8-204.5,176c-23.6,16.5-47.2,33-70.8,49.5
		c-3.9,3-7.8,6-11.7,9C1303.8,1690.3,1299.6,1695.2,1295.5,1700.2z M475.6,1702.4c174.7-107.5,343.1-211,515.1-316.7
		c-22-32.8-40.6-60.5-60.9-90.8c-176.6,108.6-349.2,214.8-521.9,320.8c-56.1,34.4-55.5,137.4,1.2,172.7
		c109.2,68,218.1,136.4,327.4,204.3c62.3,38.7,125.2,76.5,188.7,115.2c23.4-31.3,42.3-56.7,64.5-86.5
		C818.5,1915.2,650.7,1811.1,475.6,1702.4z M2374.1,2098.5c181.8-112.7,356.5-220.1,530.1-329.2c42.7-26.8,36-131.3-8.2-158.9
		c-114.3-71.3-228.6-142.5-343.2-213.4c-60.8-37.6-122.1-74.3-185.1-112.6c-21.5,33.8-39.2,61.5-58.4,91.6
		c174.1,106.9,341.6,209.7,514.1,315.7c-174.5,107.8-342.9,211.9-514,317.6C2331.8,2040.2,2351.5,2067.5,2374.1,2098.5z"/>
	<path class="st1" d="M475.6,1702.4c175.1,108.6,342.9,212.8,514.1,318.9c-22.2,29.8-41.2,55.2-64.5,86.5
		c-63.5-38.7-126.4-76.5-188.7-115.2c-109.3-67.8-218.2-136.3-327.4-204.3c-56.7-35.3-57.4-138.2-1.2-172.7
		c172.8-106,345.4-212.3,521.9-320.8c20.3,30.3,38.9,58,60.9,90.8C818.6,1491.5,650.3,1595,475.6,1702.4z"/>
	<path class="st1" d="M2374.1,2098.5c-22.5-31.1-42.3-58.3-64.6-89.1c171.1-105.7,339.5-209.8,514-317.6
		c-172.6-106-340-208.8-514.1-315.7c19.2-30.1,36.8-57.8,58.4-91.6c63,38.3,124.3,75,185.1,112.6c114.6,70.8,228.9,142,343.2,213.4
		c44.2,27.6,50.9,132.1,8.2,158.9C2730.5,1878.5,2555.8,1985.9,2374.1,2098.5z"/>
	<path class="st2" d="M1889.3,1892.3c27.8,62.7,8.1,110.5-46.3,147.3c-4.6,4.3-9.3,8.6-13.9,12.9c0,0,1.4,0,1.4,0
		c-36.3,34.3-72.7,68.7-109,103c-61.4,0-122.7,0.1-184.1,0.1c8.8-17.1,14.1-37.6,27-50.8c61.2-62.7,114.3-139.4,216.8-137.4
		C1817.1,1942.3,1853.2,1917.3,1889.3,1892.3z"/>
	<path class="st3" d="M1175.2,2155.8c-81.8,11.9-36.5-50.1-46.5-80c31.7-28.4,63.5-56.8,95.2-85.2c0,0,0.1,0,0.1,0
		c4-4,8.1-8.1,12.1-12.1c0,0-0.1,0-0.1,0c16.1-12.1,32.3-24.2,48.4-36.3l0,0.1c4.1-5.2,8.1-10.5,12.2-15.7c3.2-2.8,6.3-5.6,9.5-8.4
		c12.9-9.3,25.9-18.6,38.8-27.9c2.9-2.8,5.9-5.6,8.8-8.4c5.2-4.1,10.4-8.3,15.5-12.4l-0.4,0.3c12.4-7.8,24.9-15.6,37.3-23.4
		c12-8.2,24-16.3,36-24.5c3.9-4.1,7.9-8.3,11.8-12.4c3.9-4.1,7.9-8.2,11.8-12.4c8.3-3.8,16.5-7.7,24.8-11.5
		c3.9-4.1,7.8-8.3,11.8-12.4c4-4,8.1-8,12.1-12.1c8.1-8.1,16.2-16.1,24.2-24.2c4-4,8-8,12.1-12.1c15.3-3.7,30.6-7.3,45.8-11
		c4.1,5.1,8.1,10.2,12.2,15.4c0,3.2,1,5.9,3,8.3c3,3.9,6,7.7,9,11.6c5.2,7.6,10.4,15.2,15.6,22.8c-8.4,0.5-16.8,0.9-25.2,1.4
		c-64.4-19-74.1,35.4-96.9,72.1l0,0c-14.7,4.7-32.9,5.5-43.4,14.9c-94.9,84.8-188.7,170.7-281.7,257.6
		C1180.2,2126.2,1179.6,2143,1175.2,2155.8z"/>
	<path class="st4" d="M1781.1,1967.4c-102.4-2-155.6,74.8-216.8,137.4c-12.8,13.2-18.2,33.6-27,50.8c-47.8,0.5-95.6,1-143.4,1.6
		c-0.2-3.1-0.5-6.3-0.7-9.4c0-8,0-16-0.1-24l0.1-0.1c16.1-12,32.1-24.1,48.2-36.1c0,0,0.2-0.2,0.2-0.2c4-5,8.1-10,12.1-14.9
		c3.1-3,6.3-6,9.4-9c17.2-11.9,34.3-23.9,51.5-35.8c12-8.1,24.1-16.3,36.1-24.4c8-8.9,15.9-17.8,23.9-26.8c3.4-3.3,6.8-6.5,10.1-9.8
		c8.6-4.2,17.3-8.4,25.9-12.6c0,0-0.2,0.2-0.2,0.2c4.1-4.1,8.2-8.2,12.2-12.3c0,0-0.3,0.1-0.3,0.1c22.5-11.4,45-22.8,67.5-34.2
		c1.5,3.9,3.1,7.7,4.6,11.6c3.8,7.6,7.6,15.2,11.4,22.8C1731,1950.6,1756.1,1959,1781.1,1967.4z"/>
	<path class="st5" d="M1390.5,1626.8c67.8-59.2,134.1-120.2,204.5-176c13.8-10.9,48.6-9.5,64.2,0.7c11.7,7.6,15.7,41.1,9.8,58.5
		c-9.9,29.1-30.5,54.6-46.5,81.7c-11.9,8.1-23.8,16.1-35.8,24.2c6.7-38.5,13.4-77.1,19.4-112.2c-83.2,25-170.8,105.9-170.7,170.3
		c35.7-32.3,74.3-34.8,114.8-21.8c0.1,3.8,0.1,7.7,0,11.5c-32.2,13.2-64.4,26.4-96.5,39.6c-8-1.3-15.9-2.7-23.9-4
		c-4-3.6-7.9-7.1-11.9-10.7c-5-7.9-10.1-15.8-15.1-23.8C1398.7,1652.2,1394.6,1639.5,1390.5,1626.8z"/>
	<path class="st6" d="M1402.9,1664.8c5,7.9,10.1,15.8,15.1,23.8c-48.5,40.3-97,80.6-145.5,120.9c-20.5,14.4-41.5,28.1-61.3,43.2
		c-27.8,21.2-54.7,43.5-82,65.3c-15.1-63.9,16.1-104.2,68.4-133.6c24.4-20.5,48.9-41,73.3-61.6c0,0,0.4,1.4,0.4,1.3
		c4.3-4.2,8.5-8.4,12.8-12.6c0,0-0.7,0.7-0.7,0.7c4.3-4.3,8.5-8.5,12.8-12.8c0,0-0.6,0.8-0.6,0.8c4.2-5,8.3-9.9,12.5-14.9
		c3.9-3,7.8-6,11.7-9C1347.4,1672.5,1375.1,1668.7,1402.9,1664.8z"/>
	<path class="st7" d="M1129.2,1918c27.3-21.8,54.2-44.1,82-65.3c19.9-15.2,40.8-28.9,61.3-43.2c-17.1,24.6-34.6,49-51.2,74
		c-12.7,19-24.2,38.9-36.2,58.3c5.3,3.4,10.6,6.8,15.9,10.1c24.8-15.8,49.1-32.5,74.6-47.2c35-20.2,70.9-39,106.4-58.3
		c-4.4,7.8-8.8,15.6-13.2,23.4c0,0,0.4-0.3,0.4-0.3c-5.2,4.1-10.4,8.3-15.5,12.4c-2.9,2.8-5.9,5.6-8.8,8.4
		c-12.9,9.3-25.9,18.6-38.8,27.9c-3.2,2.8-6.3,5.6-9.5,8.4c-4.1,5.3-8.1,10.5-12.2,15.7c0,0,0-0.1,0-0.1
		c-16.1,12.1-32.3,24.2-48.4,36.3c0,0,0.1,0,0.1,0c-4,4-8.1,8.1-12.1,12.1c0,0-0.1,0-0.1,0c-31.6,20.2-63.3,40.5-94.9,60.7
		C1129,2006.9,1129.1,1962.4,1129.2,1918z"/>
	<path class="st8" d="M1781.1,1967.4c-25-8.4-50.1-16.8-75.1-25.1c-3.8-7.6-7.6-15.2-11.4-22.8c-1.5-3.9-3.1-7.7-4.6-11.6
		c1.3-8.9,2.5-17.8,3.8-26.7c24.1-20.9,48.3-41.8,72.4-62.7c4.6,4.9,9.2,9.9,13.8,14.8c-16.5,28.2-32.9,56.3-49.4,84.5
		c7,5.2,14,10.4,21,15.6c33.9-41.5,67.8-83,101.8-124.5c26.3,2.8,63.2-11.1,60.2,38c-8.1,15.1-16.2,30.3-24.2,45.4
		C1853.2,1917.3,1817.1,1942.3,1781.1,1967.4z"/>
	<path class="st9" d="M1620.7,1749.2c-3-3.9-6-7.7-9-11.6c-0.1-8.4-0.2-16.9-0.3-25.3c7.8-15.9,15.6-31.7,23.4-47.6
		c0,0,1.4,2.2,1.4,2.2c3.6,18.8,7.2,37.5,13.1,68.2c75.9-46,126.8-108.4,180.1-168.1c11.1,16,22.1,31.9,33.2,47.9
		c-11.1,24.2-22.2,48.5-33.3,72.7c-20.6,12.2-41.3,24.4-61.9,36.6c-4.1,3.6-8.1,7.1-12.2,10.7c-4.9,4.4-9.9,8.7-14.8,13.1
		c-7,4.2-14.1,8.3-21.1,12.5c-3.5,0.3-7.1,0.4-10.6,0.4C1679.3,1757,1650,1753.1,1620.7,1749.2z"/>
	<path class="st10" d="M2009.3,1121c40.6-0.1,81.1-0.3,121.7-0.5c-9.2,25.8-20.3,51.1-27.4,77.5c-22.7,84.5-22.2,84.7-106.4,79.6
		c0,0,0.3,0.4,0.3,0.4C2001.4,1225.8,2005.4,1173.4,2009.3,1121z"/>
	<path class="st11" d="M1997.1,1277.7c84.3,5.1,83.7,4.9,106.4-79.6c7.1-26.4,18.2-51.7,27.4-77.5c8.2,0.3,16.3,0.5,24.5,0.8
		c-16.4,64.2-32.8,128.4-49.2,192.7l-3.6,1.5c0,0-3.8-0.7-3.8-0.7c-9.7-0.3-19.5-0.5-29.2-0.8c-12.1,11.4-31.2,20.8-35,34.4
		c-22.4,80.9-41.3,162.7-61.3,244.2c-1.6-20-7.7-40.9-4.1-60c12.9-66.7,31-132.5,42.9-199.3
		C2015.1,1316.3,2002.5,1296.4,1997.1,1277.7z"/>
	<path class="st12" d="M1175.2,2155.8c4.4-12.8,5.1-29.6,13.8-37.8c93-86.9,186.8-172.8,281.7-257.6c10.5-9.4,28.8-10.1,43.4-14.9
		c-20.1,24.2-40.3,48.4-60.4,72.6c-32.2,32.2-64.5,64.4-96.7,96.7c-40.4,47.2-80.8,94.4-121.2,141.7
		C1215.5,2156.3,1195.3,2156,1175.2,2155.8z"/>
	<path class="st13" d="M1913.5,1846.9c3-49.2-33.8-35.3-60.2-38c-24.9-0.2-49.8-0.4-74.7-0.6c12.1-16,24.1-31.9,36.2-47.9
		c5.2-6.7,10.3-13.4,15.5-20.1c42.5-7,71.7-27.4,80.9-72.9c2.1-10.2,17.1-17.8,26.1-26.6c-4.6,27-5.5,55.4-14.5,80.8
		c-13.1,36.9,5.6,40.5,33.4,39.6C1942.1,1789.8,1927.8,1818.3,1913.5,1846.9z"/>
	<path class="st14" d="M1862.5,1614.9c-11.1-16-22.1-31.9-33.2-47.9c-16.4,0.1-32.9,0.3-49.3,0.4c-12,8.1-24.1,16.2-36.1,24.3l0,0
		c-8.1,8-16.2,16-24.3,24c-27.8,17.1-55.6,34.2-83.3,51.2c0,0-1.4-2.2-1.4-2.2c0.3-8,0.5-16,0.7-23.9
		c53.5-41.1,104.9-85.5,161.5-121.7c20.2-12.9,52.9-6.4,80-8.7c-1.8,27.6-3,55.2-5.6,82.6
		C1870.6,1600.5,1865.5,1607.6,1862.5,1614.9z"/>
	<path class="st15" d="M1973.3,1592.8c20-81.5,38.9-163.4,61.3-244.2c3.8-13.7,23-23.1,35-34.4c-15.8,69.9-31.5,139.8-47.3,209.7
		c-7.5,26.7-15.1,53.4-22.6,80.1c-9.1-0.4-18.3-0.8-27.4-1.3C1973,1599.4,1973.3,1596.1,1973.3,1592.8z"/>
	<path class="st16" d="M1972.3,1602.6c9.1,0.4,18.3,0.8,27.4,1.3c31.9,65.3-18.1,107.9-43.5,157.3c-27.8,0.9-46.4-2.7-33.3-39.6
		c9-25.4,10-53.8,14.5-80.8C1949.1,1628.1,1960.7,1615.4,1972.3,1602.6z"/>
	<path class="st17" d="M1235.7,2156.5c40.4-47.2,80.8-94.4,121.2-141.7c8.1,20.1,16.1,40.3,24.2,60.4c-28,27-55.9,54.1-83.9,81.1
		C1276.7,2156.4,1256.2,2156.4,1235.7,2156.5z"/>
	<path class="st6" d="M1297.2,2156.3c28-27,55.9-54.1,83.9-81.1c20.1-8.1,40.2-16.2,60.3-24.3c8,0,16.1,0.1,24.1,0.1
		c-0.8,4.1-1.6,8.2-2.4,12.3c-3.1,3-6.3,6-9.4,9.1c-4,5-8.1,9.9-12.1,14.9c0,0-0.2,0.2-0.2,0.2c-16.1,12-32.1,24.1-48.2,36.1
		c0,0-0.1,0.1-0.1,0.1c-12.4,8.2-24.9,16.4-37.3,24.6c-3.6,3-7.3,6-10.9,8.9C1329,2157,1313.1,2156.6,1297.2,2156.3z"/>
	<path class="st14" d="M2106.3,1314c16.4-64.2,32.8-128.4,49.2-192.7c2.9,54.9,8.9,110,6.1,164.7
		C2161.1,1296.3,2125.6,1304.7,2106.3,1314z"/>
	<path class="st18" d="M2022.3,1523.8c15.8-69.9,31.5-139.8,47.3-209.7c9.7,0.3,19.5,0.5,29.2,0.8c-17.3,62.5-34,125.2-52.7,187.2
		C2043.4,1510.9,2030.5,1516.6,2022.3,1523.8z"/>
	<path class="st11" d="M2009.3,1121c-3.9,52.4-7.9,104.7-11.8,157.1C1944.9,1241.1,1949.4,1181.5,2009.3,1121z"/>
	<path class="st19" d="M1721.4,2155.4c36.3-34.3,72.6-68.7,109-103C1794.1,2086.8,1757.8,2121.1,1721.4,2155.4z"/>
	<path class="st20" d="M1635.5,1640.7c-0.2,8-0.5,16-0.7,23.9c-7.8,15.9-15.6,31.7-23.4,47.6c-0.9,5.7-1.8,11.3-2.7,17
		c-4.1-5.1-8.1-10.2-12.2-15.4c-2.9-8.4-5.8-16.8-8.7-25.2c0,0-0.6,0.3-0.6,0.3c-0.2-12.1-0.3-24.2-0.5-36.2
		c-4.4-1-8.7-1.9-13.1-2.9c4.4-11.3,8.8-22.7,13.2-34c11.9-8.1,23.8-16.1,35.8-24.2C1626.8,1608,1631.1,1624.4,1635.5,1640.7z"/>
	<path class="st21" d="M1128.9,2051.3c31.6-20.2,63.3-40.5,94.9-60.7c-31.7,28.4-63.5,56.8-95.2,85.2
		C1128.7,2067.6,1128.8,2059.5,1128.9,2051.3z"/>
	<path class="st22" d="M1402.9,1664.8c-27.7,3.8-55.5,7.6-83.2,11.5c23.6-16.5,47.2-33,70.8-49.5
		C1394.6,1639.5,1398.7,1652.2,1402.9,1664.8z"/>
	<path class="st19" d="M1830.4,1740.3c-5.2,6.7-10.3,13.4-15.5,20.1c-15.9-12.1-31.7-24.1-47.6-36.2c20.6-12.2,41.3-24.4,61.9-36.6
		C1829.6,1705.2,1830,1722.7,1830.4,1740.3z"/>
	<path class="st22" d="M1270.8,1722.8c-24.4,20.5-48.9,41-73.3,61.6C1222,1763.8,1246.4,1743.3,1270.8,1722.8z"/>
	<path class="st23" d="M1355.8,2148.3c12.4-8.2,24.9-16.4,37.3-24.6c0,8,0,16,0.1,24c-4.1,3.2-8.3,6.4-12.4,9.6
		c-8,0-16.1,0.1-24.1,0.1C1356.9,2154.4,1356.6,2151.3,1355.8,2148.3z"/>
	<path class="st19" d="M1829,2052.5c4.6-4.3,9.2-8.6,13.9-12.9C1838.3,2043.9,1833.7,2048.2,1829,2052.5z"/>
	<path class="st22" d="M1284,1711.5c-4.3,4.2-8.5,8.4-12.8,12.6C1275.5,1719.9,1279.8,1715.7,1284,1711.5z"/>
	<path class="st22" d="M1296.1,1699.4c-4.3,4.3-8.5,8.5-12.8,12.8C1287.6,1708,1291.9,1703.7,1296.1,1699.4z"/>
	<path class="st22" d="M1308,1685.3c-4.2,5-8.3,9.9-12.5,14.9C1299.6,1695.2,1303.8,1690.3,1308,1685.3z"/>
	<path class="st17" d="M1355.8,2148.3c0.7,3,1,6.1,0.9,9.2c-3.9-0.1-7.9-0.1-11.8-0.2C1348.6,2154.3,1352.2,2151.3,1355.8,2148.3z"
		/>
	<path class="st2" d="M1380.8,2157.3c4.1-3.2,8.3-6.4,12.4-9.6c0.3,3.1,0.5,6.3,0.7,9.4C1389.6,2157.2,1385.2,2157.3,1380.8,2157.3z
		"/>
	<path class="st24" d="M1767.3,1724.3c15.9,12.1,31.7,24.1,47.6,36.2c-12.1,16-24.1,31.9-36.2,47.9c0,0,0.9,0.1,0.9,0.1
		c-4.5,3.4-8.9,6.7-13.4,10.1c-24.1,20.9-48.3,41.8-72.4,62.7c-23.7,20.3-47.5,40.6-71.2,60.9c0,0,0.3-0.1,0.3-0.1
		c-4.1,4.1-8.2,8.2-12.2,12.3c0,0,0.2-0.2,0.2-0.2c-8.1,0-16.2,0-24.2,0.1c-12,8.3-24,16.7-36,25c-0.5,3.5-1.3,7-2.2,10.4
		c-31.5,8.5-63,17-94.5,25.5c-41.2-32.3,4.8-64.6-0.1-96.9c20.1-24.2,40.3-48.4,60.4-72.6c0,0,0,0,0,0c32.3-24,64.6-48.1,96.9-72.1
		c8.4-0.5,16.8-0.9,25.2-1.4c0,0-0.9,0-0.9,0c3.9,4.4,7.9,8.9,11.8,13.3c20-4.5,40-9,60-13.4l-0.7,0.7c4.3-4,8.6-8,12.8-12
		c7-4.2,14.1-8.3,21.1-12.5c4.9-4.4,9.9-8.7,14.8-13.1C1759.2,1731.4,1763.2,1727.8,1767.3,1724.3z"/>
	<path class="st12" d="M1611,1773.4c-32.3,24-64.6,48.1-96.9,72.1C1536.9,1808.8,1546.6,1754.4,1611,1773.4z"/>
	<path class="st21" d="M1235.9,1978.5c16.1-12.1,32.3-24.2,48.4-36.3C1268.2,1954.3,1252,1966.4,1235.9,1978.5z"/>
	<path class="st20" d="M1620.7,1749.2c29.3,3.9,58.6,7.9,88,11.8c-1.2,3.8-2,7.6-2.2,11.6c0,0,0.7-0.7,0.7-0.7c-20,1-40,2-60,3
		c-3.9-1-7.9-1.9-11.8-2.9c0,0,0.8,0,0.9,0C1631,1764.4,1625.8,1756.8,1620.7,1749.2z"/>
	<path class="st21" d="M1587.7,1688.7c2.9,8.4,5.8,16.8,8.7,25.2c-15.3,3.7-30.6,7.4-45.8,11c0,0-0.9-0.9-0.9-0.9
		C1562.4,1712.2,1575.1,1700.5,1587.7,1688.7z"/>
	<path class="st21" d="M1368.7,1869.8c4.4-7.8,8.8-15.6,13.1-23.4c0,0-0.2-0.1-0.2-0.1c7.6-0.6,15.2-1.2,22.8-1.8l1.6,1.9
		C1393.6,1854.2,1381.2,1862,1368.7,1869.8z"/>
	<path class="st21" d="M1306,1918.2c12.9-9.3,25.9-18.6,38.8-27.9C1331.8,1899.6,1318.9,1908.9,1306,1918.2z"/>
	<path class="st21" d="M1442.1,1821.9c-12,8.2-24,16.3-36,24.5c0,0-1.6-1.9-1.6-1.9c4.3-7.7,8.7-15.4,13-23.1
		c7.6-0.6,15.1-1.2,22.7-1.9L1442.1,1821.9z"/>
	<path class="st21" d="M1538.5,1737c-8.1,8.1-16.2,16.1-24.2,24.2c0,0-1.4-1.2-1.4-1.2c8.2-8,16.4-16,24.7-24
		C1537.6,1735.9,1538.5,1737,1538.5,1737z"/>
	<path class="st21" d="M1490.5,1785.6c-8.3,3.8-16.5,7.7-24.8,11.5c0,0-0.3-0.3-0.3-0.3c7.7-4.5,15.4-9,23-13.6L1490.5,1785.6z"/>
	<path class="st14" d="M1608.6,1729.3c0.9-5.7,1.8-11.3,2.7-17c0.1,8.4,0.2,16.9,0.3,25.3
		C1609.6,1735.2,1608.6,1732.4,1608.6,1729.3z"/>
	<path class="st21" d="M1284.3,1942.3c4.1-5.2,8.1-10.4,12.2-15.7C1292.4,1931.8,1288.3,1937,1284.3,1942.3z"/>
	<path class="st21" d="M1353.6,1881.9c5.2-4.1,10.4-8.3,15.5-12.4C1364,1873.6,1358.8,1877.8,1353.6,1881.9z"/>
	<path class="st21" d="M1453.9,1809.5c-3.9,4.1-7.9,8.3-11.8,12.4c0,0-1.9-2.3-1.9-2.3c4.3-3.6,8.6-7.3,12.8-11
		C1453,1808.6,1453.9,1809.5,1453.9,1809.5z"/>
	<path class="st21" d="M1223.9,1990.6c4-4,8.1-8.1,12.1-12.1C1231.9,1982.5,1227.9,1986.5,1223.9,1990.6z"/>
	<path class="st21" d="M1465.7,1797.2c-3.9,4.1-7.9,8.2-11.8,12.4c0,0-0.9-0.9-0.9-0.9c4.2-3.9,8.3-7.8,12.4-11.8L1465.7,1797.2z"/>
	<path class="st21" d="M1502.2,1773.2c-3.9,4.1-7.8,8.3-11.8,12.4c0,0-2-2.4-2-2.3c4.2-3.7,8.4-7.5,12.6-11.2
		C1501.1,1772.1,1502.2,1773.2,1502.2,1773.2z"/>
	<path class="st21" d="M1514.3,1761.1c-4,4-8.1,8-12.1,12.1c0,0-1.2-1.1-1.1-1.1c4-4,7.9-8.1,11.9-12.1L1514.3,1761.1z"/>
	<path class="st21" d="M1550.6,1724.9c-4,4-8,8-12.1,12.1c0,0-0.9-1.1-0.9-1c4-4,8.1-8,12.1-11.9
		C1549.7,1724,1550.6,1724.9,1550.6,1724.9z"/>
	<path class="st23" d="M1622.5,1942.1c23.8-20.3,47.5-40.6,71.2-60.9c-1.3,8.9-2.5,17.8-3.8,26.7
		C1667.5,1919.3,1645,1930.7,1622.5,1942.1z"/>
	<path class="st23" d="M1463.2,2063.4c0.8-4.1,1.6-8.2,2.4-12.3c16-8.3,32-16.6,48-24.9l1.2,1.4
		C1497.5,2039.5,1480.4,2051.4,1463.2,2063.4z"/>
	<path class="st23" d="M1393.3,2123.7c16.1-12,32.1-24.1,48.2-36.1C1425.5,2099.6,1409.4,2111.6,1393.3,2123.7z"/>
	<path class="st7" d="M1550.5,1979.2c12-8.3,24-16.7,36-25c-0.6,4.2-1.1,8.3-1.7,12.5c-3.4,3.3-6.8,6.5-10.1,9.8
		C1566.6,1977.3,1558.6,1978.3,1550.5,1979.2z"/>
	<path class="st23" d="M1550.8,2003.2c-12,8.1-24.1,16.3-36.1,24.4c0,0-1.2-1.4-1.2-1.4c12-8,24.1-16.1,36.1-24.1
		C1549.7,2002.1,1550.8,2003.2,1550.8,2003.2z"/>
	<path class="st23" d="M1550.5,1979.2c8.1-0.9,16.1-1.8,24.2-2.8c-8,8.9-15.9,17.8-23.9,26.7c0,0-1.1-1.1-1.1-1.1
		c-0.5-4.2-0.9-8.3-1.4-12.5C1549.2,1986.2,1550,1982.7,1550.5,1979.2z"/>
	<path class="st23" d="M1584.8,1966.6c0.6-4.2,1.1-8.3,1.7-12.5c8.1,0,16.2-0.1,24.2-0.1C1602.1,1958.2,1593.5,1962.4,1584.8,1966.6
		z"/>
	<path class="st23" d="M1694.6,1919.4c3.8,7.6,7.6,15.2,11.4,22.8C1702.2,1934.6,1698.4,1927,1694.6,1919.4z"/>
	<path class="st23" d="M1610.6,1954.3c4.1-4.1,8.2-8.2,12.2-12.3C1618.7,1946.1,1614.7,1950.2,1610.6,1954.3z"/>
	<path class="st23" d="M1441.7,2087.3c4-5,8.1-9.9,12.1-14.9C1449.7,2077.4,1445.7,2082.4,1441.7,2087.3z"/>
	<path class="st25" d="M1549.7,1724c-4,4-8.1,8-12.1,11.9c-8.2,8-16.4,16-24.7,24c-4,4-7.9,8.1-11.9,12.1
		c-4.2,3.7-8.4,7.5-12.6,11.2c-7.7,4.5-15.4,9-23.1,13.5c-4.1,3.9-8.3,7.9-12.4,11.8c-4.3,3.7-8.6,7.3-12.8,10.9
		c-7.6,0.6-15.1,1.2-22.7,1.8c-11.9,8.3-23.8,16.6-35.8,24.9c0,0,0.2,0.1,0.2,0.1c-35.5,19.4-71.4,38.1-106.4,58.3
		c-25.5,14.7-49.8,31.4-74.6,47.2c-5.3-3.4-10.6-6.8-15.9-10.1c12-19.5,23.5-39.3,36.2-58.3c16.6-25,34.1-49.4,51.2-74
		c48.5-40.3,97-80.6,145.5-120.9c4,3.6,7.9,7.1,11.9,10.7c4.2,6.9,8.4,13.7,12.6,20.6c3.7-5.5,7.5-11,11.2-16.6
		c32.2-13.2,64.4-26.4,96.5-39.6c7.4-4.2,14.9-8.5,22.3-12.7l1-1.1c4.4,1,8.7,1.9,13.1,2.9c0.2,12.1,0.3,24.2,0.5,36.2
		c0,0,0.6-0.3,0.6-0.3C1575.1,1700.5,1562.4,1712.2,1549.7,1724z"/>
	<path class="st26" d="M1586.7,1615.9c-4.4,11.3-8.8,22.7-13.2,34c0,0-1,1.1-1,1.1c-7.4,0.4-14.9,0.8-22.3,1.2
		c-40.6-13.1-79.1-10.5-114.8,21.8c0-64.4,87.5-145.3,170.7-170.3C1600.1,1538.8,1593.4,1577.3,1586.7,1615.9z"/>
	<path class="st7" d="M1453.7,1703.3c-3.7,5.5-7.5,11-11.2,16.6c-4.2-6.9-8.4-13.7-12.6-20.6
		C1437.8,1700.6,1445.7,1701.9,1453.7,1703.3z"/>
	<path class="st20" d="M1550.2,1652.2c7.4-0.4,14.9-0.8,22.3-1.2c-7.5,4.2-14.9,8.5-22.3,12.7
		C1550.3,1659.9,1550.3,1656,1550.2,1652.2z"/>
	<path class="st27" d="M1778.7,1808.3c24.9,0.2,49.8,0.4,74.7,0.6c-33.9,41.5-67.8,83-101.7,124.5c-7-5.2-14-10.4-21-15.6
		c16.5-28.2,32.9-56.3,49.4-84.5c-0.1-8.3-0.3-16.6-0.4-24.9L1778.7,1808.3z"/>
	<path class="st13" d="M1779.6,1808.5c0.1,8.3,0.3,16.6,0.4,24.9c-4.6-4.9-9.2-9.9-13.8-14.8
		C1770.6,1815.2,1775.1,1811.8,1779.6,1808.5z"/>
	<path class="st27" d="M1780,1567.3c16.4-0.1,32.9-0.3,49.3-0.4c-53.3,59.7-104.2,122-180.1,168.1c-5.9-30.6-9.5-49.4-13.1-68.2
		c27.8-17.1,55.6-34.1,83.3-51.2c8.1-8,16.2-16,24.3-24c0,0,0,0,0,0C1755.9,1583.5,1767.9,1575.4,1780,1567.3z"/>
	<path class="st19" d="M1706.4,1772.5c0.2-4,1-7.8,2.2-11.6c3.6,0,7.1-0.1,10.6-0.4C1715,1764.5,1710.7,1768.5,1706.4,1772.5z"/>
	<path class="st19" d="M1755.1,1734.9c-4.9,4.4-9.8,8.7-14.8,13.1C1745.2,1743.7,1750.2,1739.3,1755.1,1734.9z"/>
	<path class="st19" d="M1453.7,1918.1c4.9,32.3-41.1,64.7,0.1,96.9c-4.1,11.9-8.2,23.9-12.3,35.8c-20.1,8.1-40.2,16.2-60.3,24.3
		c-8.1-20.1-16.1-40.3-24.2-60.4C1389.2,1982.6,1421.4,1950.4,1453.7,1918.1z"/>
	<path class="st9" d="M1780,1567.3c-12,8.1-24.1,16.2-36.1,24.3C1755.9,1583.5,1767.9,1575.4,1780,1567.3z"/>
	<path class="st9" d="M1743.8,1591.6c-8.1,8-16.2,16-24.3,24C1727.6,1607.6,1735.7,1599.6,1743.8,1591.6z"/>
	<path class="st7" d="M1441.4,2050.9c4.1-11.9,8.2-23.9,12.3-35.8c31.5-8.5,63-17,94.5-25.5c0.5,4.2,0.9,8.3,1.4,12.5
		c-12.1,8-24.1,16.1-36.1,24.1c-16,8.3-32,16.6-48,24.9C1457.5,2051,1449.5,2051,1441.4,2050.9z"/>
	<path class="st21" d="M1587.1,1689c-0.2-12.1-0.3-24.2-0.5-36.2C1586.8,1664.9,1586.9,1676.9,1587.1,1689z"/>
	<path class="st19" d="M1647.1,1774.9c20-1,40-2,60-3c-20,4.5-40,9-60,13.4C1647.2,1781.8,1647.2,1778.4,1647.1,1774.9z"/>
	<path class="st12" d="M1647.1,1774.9c0,3.5,0,6.9,0,10.4c-3.9-4.4-7.9-8.9-11.8-13.3C1639.3,1773,1643.2,1774,1647.1,1774.9z"/>
	<path class="st7" d="M1381.7,1846.3c11.9-8.3,23.8-16.6,35.8-24.9c-4.3,7.7-8.7,15.4-13,23.1
		C1396.9,1845.1,1389.3,1845.7,1381.7,1846.3z"/>
</g>
</svg>
