<?xml version="1.0" encoding="utf-8"?>
<!-- Generator: Adobe Illustrator 24.1.2, SVG Export Plug-In . SVG Version: 6.00 Build 0)  -->
<svg version="1.1" id="Layer_1" xmlns="http://www.w3.org/2000/svg" xmlns:xlink="http://www.w3.org/1999/xlink" x="0px" y="0px"
	 viewBox="0 0 2568.19 653" style="enable-background:new 0 0 2568.19 653;" xml:space="preserve">
<style type="text/css">
	.st0{fill:#4A5158;}
	.st1{fill:none;stroke:#495057;stroke-width:4.5226;stroke-miterlimit:18.0904;}
</style>
<g>
	<path class="st0" d="M34.1,344.6l87.11-8.14c5.37,29.25,16.06,50.77,32.07,64.58c16.01,13.81,37.75,20.64,65.22,20.49
		c28.9,0,50.7-6.2,65.49-18.32c14.79-12.12,21.89-26.59,21.89-42.78c0.31-9.83-2.9-19.45-9.05-27.14
		c-6.2-7.24-16.91-13.79-32.25-18.99c-10.58-4.03-34.51-10.45-71.77-19.94c-48.26-11.8-81.81-26.59-101.22-44
		c-26.27-22.56-41.26-55.55-40.97-90.18c-0.11-22.71,6.62-44.93,19.31-63.77c13.52-20.45,32.94-36.32,55.67-45.5
		c24.15-10.09,53.23-15.38,87.65-15.38c55.75,0,97.76,12.32,126.04,36.95c28.22,25.01,42.96,57.8,44.37,98.95l-90.18,3.03
		c-3.98-22.61-11.98-39.03-24.74-49.16c-12.75-10.13-31.66-15.11-56.58-15.11c-26.05,0-46.49,5.34-61.15,16.28
		c-9.11,6.11-14.49,16.44-14.29,27.41c-0.04,10.63,4.9,20.67,13.34,27.14c11.22,9.77,38.8,19.67,82.45,29.85
		c43.64,10.18,75.93,21.17,96.78,32.29c20.24,10.46,37.24,26.26,49.16,45.68c11.71,18.86,17.82,43.01,17.82,71.37
		c0,25.54-7.42,50.54-21.35,71.95c-14.39,22.49-35.41,39.95-60.15,49.97c-25.96,10.63-58.25,16.33-96.92,16.33
		c-56.31,0-99.5-13.16-129.8-39.48S39.98,394.58,34.1,344.6z"/>
	<path class="st0" d="M384.87,166.19h90.45l77.25,229.97l75.26-229.97h88.15L602.9,477.61l-20.76,56.8
		c-5.57,15.12-12.73,29.62-21.35,43.24c-6.15,9.55-14.08,17.84-23.34,24.42c-9.94,6.52-20.88,11.38-32.38,14.38
		c-14.24,3.75-28.92,5.59-43.64,5.47c-16.27-0.06-32.48-1.9-48.35-5.47l-7.06-67.25c11.88,2.65,24.01,4.06,36.18,4.21
		c19.67,0,34.33-5.79,43.78-17.41c10.22-13.38,17.64-28.68,21.8-45L384.87,166.19z M1012.42,490.14h-85.12V325.25
		c0-34.73-1.76-57.12-5.52-67.48c-3.29-9.71-9.64-18.08-18.09-23.88c-8.86-5.82-19.3-8.78-29.89-8.5
		c-14.35-0.14-28.39,4.16-40.21,12.3c-11.53,7.56-20.14,18.82-24.42,31.93c-4.52,13.57-6.6,38.08-6.6,74.35v146.22h-84.75v-324
		h78.69v47.44c28.31-35.86,63.86-53.59,106.78-53.59c17.83-0.16,35.51,3.24,52.01,9.99c13.91,5.5,26.16,14.5,35.55,26.14
		c8.02,10.65,13.73,22.84,16.78,35.82c3.7,18.96,5.31,38.26,4.79,57.57V490.14z M1012.92,324.75c0.11-28.9,7.35-57.33,21.08-82.76
		c13.31-25.82,34.06-47.06,59.56-60.96c26.4-14.15,55.98-21.34,85.93-20.89c49.09,0,89.2,15.89,120.35,47.67
		c31.15,31.78,46.82,71.95,47.03,120.53c0,48.98-15.87,89.41-47.44,121.75s-71.46,48.44-119.4,48.44
		c-29.49-0.02-58.56-6.94-84.89-20.22c-26.2-12.71-47.69-33.41-61.37-59.11C1019.93,393.37,1012.98,361.89,1012.92,324.75
		L1012.92,324.75z M1100.07,329.27c0,32.34,7.55,57.03,22.97,73.81c26.98,31.22,74.16,34.66,105.38,7.68
		c2.74-2.37,5.31-4.94,7.68-7.68c15.06-16.78,22.61-41.79,22.61-74.22s-7.55-56.49-22.61-73.4c-27.28-31.22-74.71-34.42-105.93-7.13
		c-2.53,2.21-4.92,4.6-7.13,7.13c-15.38,16.73-22.97,41.47-22.97,73.58V329.27z"/>
	<path class="st0" d="M1451.57,0.12v418.2c0,19.94,1.49,33.15,4.25,39.48c2.63,6.28,7.3,11.49,13.25,14.79
		c6.01,3.35,17.19,5.07,33.29,5.07v12.53h-154.54v-12.53c14.47,0,24.33-1.49,29.89-4.52c5.57-3.51,9.86-8.71,12.26-14.83
		c3.03-6.83,4.52-20.13,4.52-39.8V132.95c0-35.91-0.72-57.89-2.26-66.17c-0.56-6.34-3.26-12.3-7.64-16.91
		c-3.67-3.09-8.36-4.71-13.16-4.52c-7.63,0.56-15.1,2.46-22.07,5.61l-5.88-12.26l92.62-38.58H1451.57z M1655.76,165.15
		c47.94,0,86.29,18.09,115.33,54.27c24.34,30.15,37.39,67.85,36.9,106.6c-0.29,29.71-7.23,58.98-20.31,85.66
		c-23.32,53.95-76.91,88.49-135.68,87.42c-47.76,0-85.63-18.9-113.61-56.71c-23.38-30.92-35.88-68.7-35.55-107.46
		c0.26-29.94,7.63-59.39,21.48-85.93c12.44-26.23,32.24-48.27,56.98-63.45C1603.88,172.26,1629.58,165.22,1655.76,165.15
		L1655.76,165.15z M1645.18,188.35c-12.99,0.11-25.69,3.83-36.68,10.76c-12.3,7.33-22.3,19.76-29.89,37.67s-11.35,41.25-11.35,69.65
		c0,45.86,9.27,84.98,27.41,118.45c18.14,33.47,42.33,49.75,72.14,49.75c21.72,0.26,42.23-9.98,55.09-27.5
		c14.5-18.33,21.75-49.84,21.75-94.52c0-55.94-12.08-99.5-36.18-131.79c-16.28-21.71-37.04-32.47-62.23-32.47H1645.18z"/>
	<path class="st0" d="M1877.14,374.5c-53.08-26.59-74.56-91.18-47.97-144.27c5.87-11.72,13.84-22.27,23.5-31.12
		c23.49-22.46,53.64-33.72,90.45-33.78c27.57-0.78,54.72,6.82,77.88,21.8h66.35c5.79-0.27,11.59,0.04,17.32,0.9
		c1.34,0.69,2.49,1.7,3.35,2.94c1.62,3.43,2.33,7.21,2.08,10.99c0.3,4.25-0.3,8.52-1.76,12.53c-0.82,1.34-2.14,2.3-3.66,2.67
		c-5.75,0.99-11.59,1.32-17.41,0.99h-41.11c13.03,16.6,19.45,37.81,19.45,63.59c0.18,28.83-12.12,56.32-33.74,75.39
		c-22.61,20.89-52.55,31.66-90.18,31.66c-16.23-0.01-32.37-2.51-47.85-7.42c-7.54,6.48-13.97,14.15-19.04,22.7
		c-3.07,5.05-4.91,10.75-5.38,16.64c0.19,4.53,2.3,8.77,5.79,11.67c3.66,3.57,11.17,6.29,22.16,7.73
		c15.95,1.81,31.98,2.74,48.03,2.8c47.13,1.49,77.74,3.26,91.54,5.65c19.19,1.99,37.18,10.29,51.15,23.61
		c12.54,12.36,19.43,29.34,19.04,46.94c0,25.55-12.21,49.75-36.45,72.36c-35.49,33.17-81.96,49.75-139.43,49.75
		c-44.1,0-81.41-9.72-111.8-29.67c-17.19-11.49-25.64-23.25-25.64-35.73c0.08-5.66,1.29-11.24,3.57-16.42
		c6.53-12.53,14.43-24.31,23.56-35.1c1.54-2.17,13.12-14.47,34.37-36.99c-9.26-5.24-17.7-11.81-25.06-19.49
		c-4.77-5.25-7.41-12.09-7.42-19.18c0.61-10.11,3.92-19.87,9.59-28.27C1838.93,409.46,1853.85,394.04,1877.14,374.5L1877.14,374.5z
		 M1874.29,490.14c-9.27,9.8-17.25,20.74-23.74,32.56c-4.93,8.21-7.67,17.56-7.96,27.14c0,11.26,6.51,20.71,19.76,28.9
		c22.93,14.02,56.08,21.3,99.5,21.3c41.16,0,71.41-7.28,91.13-21.75c19.72-14.47,29.4-29.71,29.4-46.09
		c0.25-11.32-6.87-21.5-17.59-25.15c-11.98-5.07-35.55-8-71.05-8.73C1941.86,496.88,1901.93,493.85,1874.29,490.14L1874.29,490.14z
		 M1937.16,182.6c-16.55-0.04-32.19,7.53-42.42,20.53c-11.35,13.57-17.01,33.6-17.01,61.51c0,35.97,7.73,63.89,23.2,83.76
		c10.53,14.41,27.38,22.83,45.23,22.61c16.49,0.35,32.22-6.88,42.69-19.63c11.17-12.98,16.69-33.24,16.69-60.87
		c0-36.18-7.73-64.63-23.43-85.07c-10.4-14.45-27.15-22.98-44.95-22.88V182.6z M2119.96,174.37h147.57v12.62h-7.15
		c-8.32-0.52-16.56,1.84-23.34,6.69c-4.9,4.13-7.7,10.23-7.64,16.64c0,9.05,3.66,21.44,11.35,37.22l76.88,159.6l70.46-174.39
		c3.81-8.96,5.81-18.58,5.88-28.31c0.14-3.2-0.71-6.36-2.44-9.05c-2.23-2.8-5.23-4.88-8.64-5.97c-6.67-1.97-13.63-2.8-20.58-2.44
		v-12.62h102.03v12.62c-6.89,0.43-13.61,2.31-19.72,5.52c-5.97,4.1-11.11,9.28-15.15,15.29c-4.62,8.5-8.57,17.34-11.8,26.46
		l-127.85,314.5c-12.48,30.66-28.76,53.59-48.98,69.24c-20.22,15.65-39.62,23.25-58.34,23.25c-12.29,0.58-24.32-3.6-33.6-11.67
		c-8.17-6.52-12.99-16.37-13.12-26.82c-0.33-8.67,3.14-17.06,9.5-22.97c7.24-6.28,16.67-9.44,26.23-8.77
		c10.76,0.7,21.32,3.19,31.25,7.37c5.62,2.29,11.45,4.01,17.41,5.16c6.92,0,14.34-3.75,22.61-10.81
		c8.28-7.06,16.33-20.76,24.6-40.97l22.3-54.95l-113.52-237.3c-4.8-9.26-10.3-18.13-16.46-26.55c-4.03-6.01-8.79-11.51-14.16-16.37
		c-7.96-4.53-16.58-7.77-25.55-9.59L2119.96,174.37z M2463.77,153.43V90.12h27.72c4.37-0.19,8.74,0.5,12.84,2.04
		c2.89,1.06,5.33,3.07,6.92,5.7c1.7,2.89,2.59,6.19,2.58,9.54c0.16,4.24-1.48,8.35-4.52,11.31c-3.55,3.54-8.25,5.67-13.25,6.02
		c1.79,0.79,3.47,1.82,4.97,3.08c2.66,2.48,4.99,5.29,6.92,8.37l10.99,17.28h-10.36l-8.28-13.12c-2.44-3.57-4.52-6.65-6.02-8.64
		c-1.23-1.66-2.64-3.17-4.21-4.52c-1.18-0.66-2.44-1.14-3.75-1.45c-1.49-0.32-3-0.45-4.52-0.41h-9.5v28.13L2463.77,153.43z
		 M2472.09,118.29h17.77c3.08,0.26,6.17-0.19,9.05-1.31c1.93-0.65,3.55-2.01,4.52-3.8c1.16-1.71,1.76-3.73,1.72-5.79
		c0.09-2.78-1.11-5.45-3.26-7.24c-2.91-2.14-6.49-3.15-10.09-2.85h-19.94L2472.09,118.29z"/>
</g>
<path class="st1" d="M2534.1,119.47c0,25.25-20.47,45.72-45.72,45.72c-25.25,0-45.72-20.47-45.72-45.72
	c0-25.25,20.47-45.72,45.72-45.72c0.02,0,0.03,0,0.05,0C2513.6,73.89,2533.97,94.29,2534.1,119.47z"/>
</svg>
