<?xml version="1.0" encoding="utf-8"?>
<!-- Generator: Adobe Illustrator 24.1.2, SVG Export Plug-In . SVG Version: 6.00 Build 0)  -->
<svg version="1.1" id="Layer_1" xmlns="http://www.w3.org/2000/svg" xmlns:xlink="http://www.w3.org/1999/xlink" x="0px" y="0px"
	 viewBox="0 0 494.89 494.89" style="enable-background:new 0 0 494.89 494.89;" xml:space="preserve">
<style type="text/css">
	.st0{fill:#FEFDFD;}
	.st1{fill:#F37624;}
	.st2{fill:#E06324;}
	.st3{fill:#FBCC33;}
	.st4{fill:#ED6120;}
	.st5{fill:#F79B2D;}
	.st6{fill:#F98B26;}
	.st7{fill:#DD4721;}
	.st8{fill:#E55120;}
	.st9{fill:#F98326;}
	.st10{fill:#ED6C22;}
	.st11{fill:#F87727;}
	.st12{fill:#FABD2B;}
	.st13{fill:#FBDF3C;}
	.st14{fill:#FBC42F;}
	.st15{fill:#FBC636;}
	.st16{fill:#FBD237;}
	.st17{fill:#FBB231;}
	.st18{fill:#FB9E2C;}
	.st19{fill:#F97A26;}
	.st20{fill:#FBB72D;}
	.st21{fill:#FBBF2F;}
	.st22{fill:#F99226;}
	.st23{fill:#FBBF32;}
	.st24{fill:#FBD839;}
	.st25{fill:#FBA82E;}
	.st26{fill:#FBC732;}
	.st27{fill:#FBCF35;}
	.st28{fill:#FBC431;}
</style>
<g>
	<g>
		<path class="st0" d="M47.44,326.42c0-92.96,0-185.93,0-278.97c133.33,0,266.67,0,400,0c0,48.32,0,96.63,0,144.94
			c-3.46-3.2-6.93-6.39-10.75-9.92c-7.76,8.83-15.27,17.39-22.79,25.95c-3.13,3.66-6.26,7.32-9.39,10.98
			c-1.12,1.27-2.25,2.54-3.37,3.81c-1.03-0.3-2.53-0.28-3.02-0.96c-3.98-5.56-7.76-11.26-11.61-16.91l-0.01,0.01
			c-0.32-0.42-0.64-0.83-0.96-1.25c-0.7-0.91-1.4-1.82-2.1-2.73c-4.7-6.56-9.39-13.12-14.09-19.67c-0.41-4.56,2.09-10.25-4.79-12.28
			c-0.51-0.81-0.86-1.81-1.56-2.4c-16.65-13.93-33.34-27.82-50.03-41.71c-5.18-4.59-10.37-9.19-15.55-13.78
			c-8.66-1.06-17.33-2.12-25.99-3.17c-2.24-0.36-4.46-0.81-6.71-1.06c-6.1-0.68-12.2-1.28-18.31-1.92
			c-13.83-1.83-27.66-3.65-42.26-5.58c3.69,8.12,6.98,15.33,10.26,22.55c-11.66-0.27-23.32-0.54-34.99-0.8
			c-0.54,0.69-1.38,1.3-1.56,2.07c-4.93,20.39-9.7,40.81-14.77,61.16c-0.92,3.69-3.07,7.08-4.65,10.6
			c-11.67,3.36-23.34,6.72-35,10.08c-8.51,2.35-17.04,4.62-25.51,7.09c-1.78,0.52-3.36,1.73-5.04,2.63
			c-0.38,0.91-0.89,1.8-1.13,2.75c-3.31,13.5-6.72,26.97-9.83,40.51c-2.66,11.6-4.98,23.28-7.45,34.92
			c-0.35,2.37-0.71,4.75-1.06,7.12c-0.68,5.29-1.35,10.58-2.03,15.88c-0.65,4.99-1.3,9.99-1.94,14.98c-1.47,0.06-3.09,0.55-4.38,0.1
			c-4.06-1.43-7.94-3.41-12.02-4.78C51.35,326.06,49.32,326.46,47.44,326.42z"/>
		<path class="st0" d="M447.44,196.39c0,83.68,0,167.37,0,251.05c-133.33,0-266.67,0-400,0c0-39.34,0-78.68,0-118.02
			c1.59,0.57,3.32,0.91,4.74,1.76c5.1,3.03,10.1,6.24,15.14,9.37c2.03,1.37,3.96,2.96,6.15,4.02c1.01,0.49,3.32,0.39,3.69-0.24
			c3.28-5.54,6.25-11.26,9.32-16.93c1.27-1.65,2.42-3.42,3.87-4.89c0.62-0.63,1.86-0.64,2.83-0.93c2.1,8.61,4.2,17.22,6.3,25.84
			c0.68,3.01,1.35,6.02,2.03,9.03c2.65,11.26,5.23,22.54,8.1,33.75c0.25,0.96,2.41,2.02,3.7,2.04c10.12,0.18,20.25,0.17,30.37,0.09
			c1.42-0.01,3.6-0.23,4.11-1.11c2.61-4.53,6.69-3.25,10.53-3.26c2.6,0,5.19-0.23,7.79-0.36c0.97-1.66,2.19-3.23,2.89-5
			c6.17-15.76,12.24-31.56,18.34-47.35c9.78,0.35,18.32,4.84,27.21,8.14c2.34,6.34,4.58,12.73,7.05,19.02
			c3.86,9.81,7.88,19.56,11.83,29.34c1.04,0.54,2.08,1.53,3.13,1.54c10.94,0.16,21.88,0.08,32.81,0.28
			c3.21,0.06,3.91-1.75,4.24-4.24c4.15,0.12,9.12,1.69,12.21-0.06c2.68-1.52,3.64-6.69,4.64-10.44c3.2-12.02,6.06-24.12,9.06-36.19
			c2.94-11.2,5.89-22.39,8.83-33.59c0.32-1.22,0.64-2.44,0.95-3.66c-0.26-0.42-0.53-0.84-0.79-1.27c0.12-0.17,0.17-0.36,0.16-0.57
			c4.99-12.26,9.98-24.51,14.97-36.77c0.62-1.69,1.23-3.38,1.85-5.07c4.64-1.43,9.29-2.87,13.93-4.3c7-2.04,14-4.09,21.01-6.13
			c4.57,0.29,5.99-2.18,6.2-6.39c0.16-3.19,1.14-6.34,1.75-9.51c1.64,1.46,3.28,2.92,4.92,4.38c0.44,1.03,0.61,2.35,1.36,3.02
			c3.52,3.16,7.74,5.71,10.7,9.3c4.08,4.95,8.03,6.38,13.97,3.34c6.05-3.09,12.5-5.38,18.78-8.03c2.19-3.96,4.37-7.92,6.56-11.89
			c0.58-1.07,1.16-2.15,1.74-3.22c0.91-1.61,1.81-3.22,2.72-4.83c0.12-0.33,0.23-0.66,0.35-0.99c4-7.09,7.94-14.21,12.05-21.24
			C443.33,202.18,445.47,199.33,447.44,196.39z"/>
		<path class="st1" d="M447.44,196.39c-1.98,2.94-4.12,5.79-5.9,8.84c-4.11,7.03-8.04,14.15-12.05,21.24
			c-2.97-1-3.13-4.13-4.74-6.12c-3.38-4.17-7.21-7.98-10.85-11.94c7.52-8.56,15.03-17.12,22.79-25.95
			c3.82,3.53,7.29,6.73,10.75,9.92C447.44,193.72,447.44,195.06,447.44,196.39z"/>
		<path class="st2" d="M67.33,340.56c-5.04-3.14-10.04-6.34-15.14-9.37c-1.43-0.85-3.15-1.19-4.74-1.76c0-1,0-2,0-3
			c1.88,0.04,3.9-0.35,5.6,0.22c4.08,1.38,7.96,3.35,12.02,4.78c1.29,0.45,2.91-0.04,4.38-0.1
			C68.75,334.39,68.04,337.48,67.33,340.56z"/>
		<path class="st3" d="M360.45,251.28c-7,2.04-14,4.09-21.01,6.13c4.16-3.09,3.91-6.6,1.79-10.97c-0.81-1.67,0.32-4.42,0.86-6.6
			c1.36-5.48,2.98-10.9,4.31-16.38c0.5-2.06,0.37-4.26,0.76-6.36c1.72-9.35,3.45-18.69,5.31-28.01c1-5.01,2.27-9.96,3.49-15.25
			c-3.34-2.06-5.48-5.46-3.49-10.48c4.04,2.02,8.07,4.04,12.11,6.06c6.89,2.03,4.38,7.73,4.79,12.28
			c-0.58,9.25-1.17,18.51-1.75,27.76c-0.01,1.63-0.02,3.26-0.04,4.88c0,1.35,0,2.69,0,4.04c-0.03,5.33-0.07,10.65-0.1,15.98
			c-4.92-1.77-3.11,2.3-2.81,3.78C365.77,243.44,365.46,248.04,360.45,251.28z"/>
		<path class="st4" d="M74.49,293.35c2.47-11.64,4.78-23.32,7.45-34.92c3.11-13.54,6.52-27.02,9.83-40.51
			c0.23-0.95,0.74-1.83,1.12-2.74c0.87,1.4,1.74,2.8,2.61,4.19c1.97,5.68,3.94,11.36,5.91,17.05c2.01,6.33,4.03,12.66,6.04,18.98
			c0.36,1.36,0.71,2.71,1.07,4.07c-0.91,1.34-1.63,2.88-2.77,4c-10.11,10.01-20.28,19.95-30.44,29.92
			C75.04,293.37,74.77,293.36,74.49,293.35z"/>
		<path class="st5" d="M418.13,247.4c-6.28,2.64-12.73,4.94-18.78,8.03c-5.95,3.04-9.89,1.61-13.97-3.34
			c-2.96-3.59-7.18-6.14-10.7-9.3c-0.75-0.68-0.92-2-1.36-3.02c0.85-1.68,1.27-4.08,2.64-4.92c5.24-3.23,3.57-10.99,9.35-13.69
			c0.16-0.07,0.11-0.62,0.13-0.95c0.36-4.95,0.73-9.9,1.09-14.85c3.84,5.65,7.63,11.35,11.61,16.91c0.49,0.69,1.99,0.66,3.02,0.96
			C406.81,231.27,412.47,239.33,418.13,247.4z"/>
		<path class="st4" d="M214.42,122.34c-3.28-7.22-6.57-14.44-10.26-22.55c14.61,1.93,28.44,3.76,42.26,5.58
			c-0.45,0.62-0.9,1.79-1.35,1.78c-4.71-0.06-6.84,0.71-6.3,6.81c0.67,7.48,1.18,9.37,8.66,9.43c-1.23,4.93-2.52,9.84-3.67,14.79
			c-0.32,1.35-0.24,2.8-0.34,4.2c-0.32,0.02-0.65,0.03-0.98,0.01c-0.33,0.32-0.65,0.64-0.98,0.96c0,0-0.07,0.07-0.07,0.07
			c-3.82,1-7.64,2-11.79,3.08c-3.76-3.22-2.71-7.8,1.43-23.23c-5.64,0-11.09,0-16.54,0C214.5,122.96,214.47,122.65,214.42,122.34z"
			/>
		<path class="st6" d="M101.42,236.41c-1.97-5.68-3.94-11.36-5.92-17.05c1.6,0.64,3.58,0.88,4.72,1.99c3.03,2.95,4.95,2.2,6.65-1
			c-2.5-1.19-4.83-2.29-7.89-3.74c4.31-1.32,7.66-1.91,10.6-3.34c4.76-2.32,9.26-5.19,13.87-7.82c11.67-3.36,23.34-6.72,35-10.08
			c0.33,0.67,0.67,1.35,1,2.02c-1.81,0.61-3.66,1.12-5.4,1.88c-1.55,0.67-2.97,1.62-4.45,2.45c1.87,0.56,3.73,1.52,5.6,1.54
			c1.41,0.01,2.83-1.2,4.24-1.87c0.01,0.68,0.02,1.36,0.04,2.03c-0.34,1.32-0.68,2.64-1.02,3.96c-0.99-0.02-2.11,0.27-2.96-0.09
			c-7.52-3.2-13.76-2.24-18.55,4.98c-1.14,1.72-3.16,2.85-4.77,4.26c-7.01,6.12-14.01,12.25-21.04,18.35
			c-0.58,0.5-1.31,1.07-2.01,1.13C106.57,236.26,103.99,236.3,101.42,236.41z"/>
		<path class="st1" d="M214.42,122.34c0.05,0.31,0.08,0.62,0.09,0.93c-0.69,2.88-1.3,5.78-2.09,8.63
			c-0.99,3.57-2.22,7.07-3.15,10.66c-0.55,2.15-0.65,4.41-1.05,6.6c-0.49,2.7,1.45,6.35-3.07,7.57c-0.76,0.2-1.15,1.76-1.71,2.69
			c-1.32,0.38-2.63,0.77-3.95,1.15c-2.4-4.41-4.54-9-7.31-13.17c-1.77-2.67-4.47-4.71-6.75-7.04c0.01-0.33,0.01-0.65,0.01-0.98
			c0.44-0.76,1.45-1.79,1.23-2.23c-1.63-3.33-3.49-6.54-5.28-9.79c-0.66-1.94-1.32-3.88-1.98-5.83
			C191.1,121.8,202.76,122.07,214.42,122.34z"/>
		<path class="st5" d="M179.44,121.54c0.66,1.94,1.32,3.88,1.98,5.83c-1.04,3.02-2.09,6.05-3.41,9.89c2.94,0.84,5.2,1.49,7.46,2.13
			c0,0.33,0,0.65-0.01,0.98c0.15,5.28-5.06,1.51-6.92,4.43c-0.28,5.9-0.7,12.33-0.84,18.76c-0.08,3.78,0.64,7.6,0.31,11.34
			c-0.27,3.03,0.4,4.47,3.48,4.52c-0.02,0.98-0.03,1.97-0.05,2.95l0,0c-1.67,1.67-3.34,3.33-5.01,5c-2.23,2.16-4.45,4.33-6.7,6.46
			c-3.4,3.21-6.83,6.39-10.25,9.59c-0.01-0.68-0.02-1.36-0.04-2.03c0-0.67,0-1.33,0.01-2c0-0.33,0.01-0.67,0.01-1c0-0.33,0-0.67,0-1
			c-0.33-0.67-0.67-1.35-1-2.02c1.58-3.53,3.73-6.91,4.65-10.6c5.08-20.35,9.84-40.78,14.77-61.16
			C178.06,122.84,178.9,122.22,179.44,121.54z"/>
		<path class="st2" d="M364.58,169.41c-4.04-2.02-8.07-4.04-12.11-6.06c-3.64-2.02-7.28-4.04-10.93-6.06c0,0-0.04,0.04-0.04,0.04
			c-0.68-0.33-1.35-0.66-2.03-0.99c0,0,0.02,0.01,0.02,0.01c-0.31-0.34-0.63-0.69-0.94-1.03c-6.32-3.81-12.58-7.73-18.98-11.41
			c-5.25-3.01-10.66-5.74-16-8.59c-1.03-1-2.07-2.01-3.1-3.01c4.1-1.25,8.2-2.49,11.5-3.5c0.42-1.42,0.72-2.46,1.03-3.5
			c16.68,13.89,33.37,27.78,50.03,41.71C363.71,167.6,364.06,168.61,364.58,169.41z"/>
		<path class="st7" d="M271.44,108.35c8.66,1.06,17.33,2.12,25.99,3.17c-4.35,4.59-8.7,9.18-13.04,13.77
			c-1.28,0.73-2.56,1.45-3.84,2.18c-5.7-1.03-11.41-2.07-17.11-3.1c-2.02-5.83,0.16-10.85,3.2-16.03
			C268.13,108.35,269.79,108.35,271.44,108.35z"/>
		<path class="st8" d="M271.44,108.35c-1.66,0-3.31,0-4.8,0c-3.03,5.18-5.21,10.2-3.2,16.03c-5.33-0.33-10.66-0.66-16-0.99
			c-7.48-0.06-7.99-1.95-8.66-9.43c-0.55-6.1,1.58-6.87,6.3-6.81c0.44,0.01,0.9-1.16,1.35-1.78c6.1,0.63,12.21,1.23,18.31,1.92
			C266.98,107.54,269.21,107.99,271.44,108.35z"/>
		<path class="st6" d="M386.52,205.34c-0.36,4.95-0.72,9.9-1.09,14.85c-0.02,0.33,0.03,0.88-0.13,0.95
			c-5.78,2.7-4.1,10.47-9.35,13.69c-1.37,0.84-1.78,3.24-2.64,4.92c-1.64-1.46-3.28-2.92-4.92-4.38c-0.31-0.34-0.62-0.68-0.93-1.01
			c0.03-5.33,0.07-10.65,0.1-15.98c1.32-0.55,3.51-0.79,3.82-1.69c2.15-6.23,9.78-8.32,11.15-15.04c0.03-0.15,0.6-0.19,0.92-0.29
			c0.7,0.91,1.4,1.82,2.1,2.74c0.32,0.42,0.64,0.83,0.96,1.25L386.52,205.34z"/>
		<path class="st2" d="M418.13,247.4c-5.66-8.06-11.32-16.12-16.98-24.19c1.12-1.27,2.25-2.54,3.37-3.81
			c3.95-1.28,8.18-3.24,8.77,3.64c0.01,0.17,0.71,0.21,0.82,0.44c1.14,2.32,2.39,4.62,3.28,7.04c0.48,1.32,0.33,2.87,0.56,5.32
			c1.59-3.52,2.65-5.88,3.71-8.23c0.59,0.05,1.18,0.1,1.77,0.16c0.17,1.28,0.32,2.56,0.52,3.83c0.21,1.31,0.49,2.6,0.74,3.91
			C422.5,239.47,420.32,243.43,418.13,247.4z"/>
		<path class="st9" d="M383.46,201.37c-0.32,0.09-0.89,0.13-0.92,0.29c-1.37,6.71-9,8.81-11.15,15.04c-0.31,0.9-2.5,1.14-3.82,1.69
			c0-1.35,0-2.69,0-4.04c0.01-1.63,0.02-3.26,0.04-4.89c0.58-9.25,1.17-18.51,1.75-27.76C374.06,188.25,378.76,194.81,383.46,201.37
			z"/>
		<path class="st1" d="M284.39,125.29c4.35-4.59,8.7-9.18,13.04-13.77c5.19,4.59,10.37,9.19,15.55,13.78
			c-0.31,1.04-0.62,2.09-1.03,3.5c-3.3,1-7.4,2.25-11.5,3.5c-3.33-1.65-6.65-3.31-9.98-4.97l0.01,0
			C288.45,126.66,286.42,125.98,284.39,125.29z"/>
		<path class="st5" d="M67.33,340.56c0.71-3.08,1.41-6.16,2.12-9.24c0.65-4.99,1.29-9.98,1.94-14.97c1.47,3.62,2.93,7.24,4.72,11.65
			c1.13-2.1,1.68-3.12,2.82-5.23c1.48,3.39,2.5,5.74,3.27,7.5c1.46-0.98,2.87-1.92,4.28-2.87c-3.06,5.67-6.04,11.39-9.32,16.93
			c-0.37,0.63-2.68,0.73-3.69,0.24C71.29,343.52,69.37,341.93,67.33,340.56z"/>
		<path class="st10" d="M424.69,235.51c-0.25-1.3-0.52-2.6-0.74-3.91c-0.21-1.27-0.35-2.56-0.52-3.83c-0.59-0.05-1.18-0.1-1.77-0.16
			c-1.06,2.35-2.12,4.71-3.71,8.23c-0.23-2.45-0.08-4-0.56-5.32c-0.89-2.42-2.13-4.72-3.28-7.04c-0.11-0.23-0.81-0.28-0.82-0.44
			c-0.59-6.88-4.82-4.92-8.77-3.64c3.13-3.66,6.26-7.32,9.39-10.98c3.64,3.96,7.47,7.77,10.85,11.94c1.61,1.99,1.77,5.12,4.74,6.12
			c-0.12,0.33-0.23,0.66-0.35,0.99c-0.91,1.61-1.81,3.22-2.72,4.83C425.85,233.36,425.27,234.44,424.69,235.51z"/>
		<path class="st11" d="M74.49,293.35c0.28,0.01,0.55,0.02,0.83,0.03c0.05,0.68,0.1,1.36,0.15,2.04
			c5.33,7.66,10.66,15.33,15.98,22.99c-1.95,0.72-4.47,2.6-5.74,1.97c-4.27-2.13-8.78-4.56-11.83-8.07
			c-1.61-1.85-0.38-6.16-0.44-9.37c-0.01-0.82-0.02-1.65-0.03-2.47C73.78,298.1,74.13,295.73,74.49,293.35z"/>
		<path class="st9" d="M73.43,300.47c0.01,0.82,0.01,1.65,0.03,2.47c0.05,3.2-1.17,7.52,0.44,9.37c3.05,3.51,7.55,5.94,11.83,8.07
			c1.27,0.63,3.79-1.24,5.74-1.97c0.68,0.99,1.36,1.98,2.05,2.97c0,0-0.32,0.2-0.32,0.2c-0.96,0.29-2.21,0.3-2.83,0.93
			c-1.45,1.47-2.6,3.24-3.87,4.89c-1.41,0.94-2.82,1.89-4.28,2.87c-0.77-1.76-1.79-4.11-3.27-7.5c-1.14,2.11-1.69,3.13-2.82,5.23
			c-1.79-4.41-3.25-8.03-4.72-11.65C72.07,311.05,72.75,305.76,73.43,300.47z"/>
		<path class="st5" d="M123.44,205.46c-4.61,2.64-9.1,5.5-13.87,7.82c-2.94,1.43-6.29,2.02-10.6,3.34c3.06,1.45,5.39,2.55,7.89,3.74
			c-1.7,3.19-3.61,3.95-6.65,1c-1.14-1.11-3.12-1.35-4.72-1.99c-0.87-1.4-1.74-2.79-2.61-4.19c1.68-0.9,3.26-2.11,5.04-2.63
			C106.41,210.08,114.94,207.8,123.44,205.46z"/>
		<path class="st5" d="M386.51,205.35c-0.32-0.41-0.64-0.83-0.96-1.25C385.87,204.52,386.19,204.94,386.51,205.35z"/>
		<path class="st12" d="M323.67,266.77c-4.99,12.26-9.98,24.51-14.97,36.77c-0.85-0.57-1.71-1.15-3.2-2.15c0,4.23,0,7.67,0,11.11
			c-0.02,0.3-0.07,0.6-0.13,0.9c-0.64-2-1.28-3.99-1.92-5.99c-0.32-1.61-0.24-4.35-1.03-4.62c-3.4-1.19-7.02-1.83-10.61-2.35
			c-9.31-1.34-18.65-2.46-27.96-3.78c-7.04-1-14.02-2.34-21.07-3.23c-7.54-0.95-15.14-1.5-22.7-2.33
			c-7.55-0.83-15.08-1.79-22.62-2.7c-2-0.33-4-0.67-6-1c0.49-6.66-4.34-11.4-6.39-17.14c-0.94-2.62-3.68-4.6-5.61-6.86
			c0-0.67,0-1.33,0-2c0.33-0.67,0.66-1.34,0.99-2c-0.36-1.01-0.72-2.01-1.07-3.02c-0.01-1.68-0.02-3.36-0.03-5.03
			c0.71-7.65,1.42-15.31,2.14-22.96c2.32,1.33,4.65,2.67,6.97,4c3.33,2.67,6.66,5.34,10,8.01c1.67,1.67,3.33,3.33,5,5
			c4.34,3.66,8.67,7.32,13.01,10.98c5.66,4.68,11.33,9.35,16.99,14.03c3.87,3.37,7.65,6.87,11.68,10.04
			c1.25,0.99,3.38,1.87,4.78,1.52c9.77-2.45,19.45-5.27,29.18-7.9c13.12-3.54,26.25-7.05,39.4-10.47
			C321.04,262.95,323.62,262.96,323.67,266.77z"/>
		<path class="st13" d="M323.67,266.77c-0.05-3.81-2.63-3.83-5.19-3.16c-13.15,3.41-26.28,6.93-39.4,10.47
			c-9.73,2.62-19.4,5.45-29.18,7.9c-1.4,0.35-3.53-0.53-4.78-1.52c-4.03-3.18-7.8-6.67-11.68-10.04c0.24-3.22-4.38-9.03,4.18-7.83
			c0.22,0.03,0.46-0.49,0.75-0.61c2.2-0.88,4.42-1.71,6.61-2.59c2.26-0.91,4.5-1.88,6.76-2.78c1.91-0.76,3.81-1.59,5.78-2.18
			c6.13-1.83,12.45-3.16,18.4-5.45c5.03-1.93,9.54-6.63,14.51-6.99c6.7-0.48,11.6-6.68,18.61-4.78c0.32,0.09,1.02-0.37,1.19-0.74
			c1.89-4.11,5.2-2.38,8.17-2.06c1.34,4.34,2.68,8.67,4.02,13.01c1.03,4.76,2.06,9.52,3.09,14.29
			C324.9,263.4,324.29,265.09,323.67,266.77z"/>
		<path class="st14" d="M325.52,261.71c-1.03-4.76-2.06-9.52-3.09-14.29c6.22-4.25,4.96-10.69,5.08-16.81
			c0.05-2.58,0.7-5.17,1.19-7.73c1.89-9.81,3.94-19.59,5.71-29.42c1.25-6.92-1.8-14.96,5.43-20.29c0.2-0.15,0.23-0.6,0.26-0.92
			c0.49-4.99,0.96-9.97,1.44-14.96c3.64,2.02,7.28,4.04,10.93,6.06c-1.99,5.03,0.15,8.42,3.49,10.48
			c-1.22,5.28-2.49,10.24-3.49,15.25c-1.86,9.32-3.6,18.67-5.31,28.01c-0.39,2.09-0.25,4.3-0.76,6.36
			c-1.33,5.49-2.95,10.9-4.31,16.38c-0.54,2.18-1.67,4.93-0.86,6.6c2.12,4.37,2.38,7.88-1.79,10.97
			C334.8,258.84,330.16,260.27,325.52,261.71z"/>
		<path class="st11" d="M99.49,347.42c-2.1-8.61-4.2-17.22-6.3-25.84c0,0,0.32-0.2,0.32-0.2c1.7,1.78,3.6,3.41,5.06,5.36
			c4.74,6.34,9.22,12.86,13.97,19.19c10.92,14.54,21.95,29.01,32.93,43.5c-2.34,0.62-4.67,1.24-7.01,1.86
			c-1.03-4.38-3.93-6.76-7.55-9.46c-4.85-3.61-7.91-9.52-12.31-13.85c-3.17-3.13-4.14-9.44-11.3-8.15c0.5-2.19,0.93-4.1,1.39-6.15
			c-2.37-0.21-4.61-0.41-6.99-0.62c-0.16-2.53-0.28-4.61-0.42-6.93C100.5,346.69,99.99,347.06,99.49,347.42z"/>
		<path class="st8" d="M187.36,335.25c-6.1,15.79-12.18,31.59-18.34,47.35c-0.69,1.77-1.91,3.34-2.88,5
			c-3.6-0.1-7.22-0.05-10.81-0.39c-1.34-0.13-2.6-1.16-3.89-1.77c5.36-7.98,10.72-15.95,16.09-23.93c0.74-0.86,1.56-1.68,2.23-2.6
			c5.81-8.06,11.59-16.15,17.39-24.22C187.15,334.9,187.22,335.09,187.36,335.25z"/>
		<path class="st15" d="M187.36,335.25c-0.13-0.16-0.21-0.35-0.23-0.56c-2.9-1.44-5.79-2.87-8.69-4.31
			c0.34-0.32,0.67-0.65,1.01-0.97c1.14,0.12,2.54-0.15,3.39,0.41c3.7,2.46,6.74,1.79,10.36-0.6c5.5-3.64,11.47-6.57,17.25-9.8
			c0.97,1.27,2.08,2.46,2.88,3.83c1.78,3.01,3.41,6.11,5.1,9.18c1.99,4.35,3.98,8.7,5.98,13.05c-3.28-0.69-6.56-1.38-9.85-2.08
			C205.67,340.09,197.13,335.6,187.36,335.25z"/>
		<path class="st8" d="M299.54,342.64c-2.99,12.07-5.86,24.18-9.06,36.19c-1,3.75-1.96,8.92-4.64,10.44
			c-3.09,1.75-8.06,0.19-12.21,0.06c0,0-0.01-0.09-0.02-0.09c0.59-0.97,1.18-1.93,1.77-2.9c1.34,3.67,3.39,1.7,5.54,0.77
			c-0.3-1.16-1.04-2.35-0.75-3.18c1.89-5.47,4.13-10.82,5.97-16.31c0.54-1.62,0.17-3.54,0.22-5.32c1.22-4.31,2.15-8.72,3.71-12.9
			c2.37-6.36,5.18-12.56,7.8-18.83c1.14-1.74,2.29-3.48,3.43-5.21c-0.25,1.6-0.21,3.31-0.81,4.76
			C298.83,334.22,296.54,338.19,299.54,342.64z"/>
		<path class="st9" d="M99.49,347.42c0.5-0.36,1.01-0.73,1.78-1.29c0.14,2.31,0.27,4.39,0.42,6.93c2.37,0.21,4.61,0.41,6.99,0.62
			c-0.46,2.05-0.9,3.96-1.39,6.15c7.16-1.29,8.12,5.02,11.3,8.15c4.4,4.34,7.47,10.24,12.31,13.85c3.63,2.71,6.52,5.09,7.55,9.47
			c-5.18-0.49-10.36-0.98-15.54-1.46c-0.01-0.58-0.02-1.16-0.02-1.74c1.35-0.45,2.7-0.9,4.05-1.36c-1.25-0.98-2.44-1.18-3.64-1.29
			c-1.44-0.14-2.89-0.21-4.23-0.3c-1.51-6.67-3.34-8.32-9.43-8.7c-0.14-1.76-0.29-3.54-0.44-5.41c-1.3-0.1-2.35-0.19-2.35-0.19
			c-1.93-5.23-3.63-9.82-5.32-14.41C100.84,353.44,100.16,350.43,99.49,347.42z"/>
		<path class="st5" d="M101.52,356.45c1.7,4.59,3.39,9.18,5.32,14.41c0,0,1.05,0.08,2.35,0.19c0.15,1.87,0.29,3.65,0.44,5.41
			c6.09,0.38,7.92,2.03,9.43,8.7c1.33,0.09,2.78,0.16,4.23,0.3c1.2,0.11,2.39,0.31,3.64,1.29c-1.35,0.45-2.7,0.9-4.05,1.36
			c0.01,0.58,0.02,1.16,0.02,1.74c5.18,0.49,10.36,0.98,15.54,1.46c2.34-0.62,4.67-1.24,7.01-1.87c1.99-1.33,3.98-2.66,5.98-4
			c1.29,0.62,2.55,1.65,3.89,1.77c3.58,0.34,7.21,0.28,10.81,0.39c-2.6,0.13-5.2,0.36-7.8,0.36c-3.85,0-7.93-1.28-10.53,3.26
			c-0.51,0.88-2.69,1.1-4.11,1.11c-10.12,0.08-20.25,0.09-30.37-0.09c-1.29-0.02-3.45-1.08-3.7-2.04
			C106.75,378.99,104.17,367.71,101.52,356.45z"/>
		<path class="st5" d="M214.56,343.4c3.28,0.69,6.56,1.38,9.85,2.08c1.01,0.33,2.02,0.67,3.02,1c1.01,8.99,2.03,17.97,3.04,26.96
			c1,5.33,2,10.66,3.01,15.99c-0.01,0.78-0.02,1.55-0.03,2.33c-3.95-9.78-7.97-19.53-11.83-29.34
			C219.14,356.12,216.91,349.74,214.56,343.4z"/>
		<path class="st16" d="M233.45,391.75c0.01-0.78,0.02-1.55,0.03-2.33c2.84,0,5.68,0.02,8.52,0.01c10.54-0.06,21.08-0.13,31.62-0.2
			c0,0,0.01,0.09,0.01,0.09c-0.33,2.49-1.03,4.3-4.24,4.24c-10.94-0.2-21.88-0.11-32.81-0.28
			C235.52,393.28,234.49,392.29,233.45,391.75z"/>
		<path class="st2" d="M299.54,342.64c-3-4.45-0.71-8.42,0.98-12.53c0.6-1.45,0.56-3.17,0.81-4.76c0,0,0.04,0.01,0.04,0.01
			c0.67-1.72,1.34-3.43,2.02-5.15c0.66-2.27,1.32-4.54,1.98-6.8c0.06-0.3,0.11-0.59,0.13-0.9c0.96-1.15,1.92-2.31,2.88-3.46
			C305.43,320.24,302.48,331.44,299.54,342.64z"/>
		<path class="st13" d="M367.47,234.36c0.31,0.34,0.62,0.68,0.93,1.01c-0.61,3.17-1.59,6.32-1.75,9.51
			c-0.21,4.21-1.63,6.68-6.2,6.39c5.01-3.24,5.31-7.84,4.21-13.14C364.36,236.66,362.55,232.59,367.47,234.36z"/>
		<path class="st17" d="M308.37,309.05c-0.96,1.15-1.92,2.31-2.88,3.46c0-3.44,0-6.88,0-11.11c1.5,1,2.35,1.58,3.2,2.15
			c0.01,0.21-0.04,0.4-0.16,0.57c0.26,0.42,0.53,0.84,0.79,1.26C309.01,306.61,308.69,307.83,308.37,309.05z"/>
		<path class="st1" d="M426.43,232.29c0.91-1.61,1.81-3.22,2.72-4.83C428.24,229.07,427.34,230.68,426.43,232.29z"/>
		<path class="st12" d="M309.33,305.38c-0.26-0.42-0.53-0.84-0.79-1.26C308.8,304.54,309.06,304.96,309.33,305.38z"/>
		<path class="st6" d="M367.61,209.46c-0.01,1.63-0.03,3.26-0.04,4.89C367.59,212.72,367.6,211.09,367.61,209.46z"/>
		<path class="st18" d="M75.47,295.42c-0.05-0.68-0.1-1.36-0.15-2.04c10.15-9.96,20.33-19.9,30.44-29.92c1.13-1.12,1.85-2.66,2.77-4
			c3.64-0.03,7.28-0.06,10.92-0.08c0.66,0,1.33,0,1.99,0c2.67-0.01,5.34-0.01,8.01-0.02c7.67-0.29,15.34-0.58,23.01-0.86
			c-2.11,1.35-4.21,2.69-6.52,4.16c2.46,3.79,1.69,5.97-3.65,5.89c-1.22-0.02-2.57,1.28-3.66,2.21c-5.22,4.45-10.3,9.05-15.55,13.45
			c-5.13,4.29-10.21,8.68-15.7,12.47c-3.01,2.07-4.41,4.24-3.94,7.74C94.12,301.42,84.8,298.42,75.47,295.42z"/>
		<path class="st19" d="M129.46,259.37c-2.67,0.01-5.34,0.01-8.01,0.02c-0.26-0.51-0.51-1.03-0.77-1.54
			c-0.41,0.51-0.82,1.03-1.23,1.54c-3.64,0.03-7.28,0.05-10.92,0.08c-0.35-1.36-0.71-2.71-1.07-4.07
			c17.72-14.43,36.42-27.65,54.06-42.88c0.3,0.08,1.67,0.44,3.04,0.8c3.28,2.37,6.57,4.74,9.85,7.12c0,0.32,0.03,0.63,0.07,0.95
			c-8.03,10.65-19.16,17.81-29.18,26.24c-3.14,2.64-5.26,6.48-7.85,9.77c-0.67,0-1.33,0-2,0c-0.42-0.6-0.84-1.21-1.26-1.81
			c-0.58,0.61-1.16,1.21-1.74,1.82C131.45,258.06,130.45,258.71,129.46,259.37z"/>
		<path class="st9" d="M164.56,213.32c-1.37-0.36-2.74-0.72-3.04-0.8c-17.64,15.23-36.35,28.45-54.06,42.88
			c-2.01-6.33-4.03-12.66-6.04-18.98c2.57-0.12,5.15-0.15,7.7-0.39c0.7-0.07,1.43-0.63,2.01-1.13c7.03-6.1,14.03-12.23,21.04-18.35
			c1.61-1.41,3.63-2.54,4.77-4.26c4.79-7.22,11.03-8.17,18.55-4.98c0.85,0.36,1.97,0.08,2.96,0.09c1.63,1.02,3.25,2.05,4.88,3.07
			C163.74,211.41,164.15,212.36,164.56,213.32z"/>
		<path class="st20" d="M284.39,125.29c2.03,0.68,4.06,1.36,6.09,2.04c-4.52,0.86-2.24,3.11-1.26,5.38
			c0.86,1.98,2.32,4.98,1.51,6.15c-1.76,2.56-2.83,7.18-7.82,5.52c-2.21-0.73-4.42-1.47-6.66-2.1c-1.38-0.38-2.81-0.54-2.98-0.57
			c-1.52,4.22-2.68,7.45-3.83,10.67c-6.29,1.85-12.79,3.18-18.8,5.69c-7.11,2.97-13.56,7.58-21.7,7.7
			c-1.26,0.02-2.73,0.54-3.72,1.32c-5.32,4.21-11.22,6.2-18.03,5.4c-0.74-0.09-1.56,0.46-2.33,0.76
			c-7.82,3.04-15.63,6.08-23.44,9.13c0.02-0.98,0.03-1.97,0.05-2.95c6.01-6.28,12.02-12.57,18.03-18.85
			c1.32-0.38,2.63-0.77,3.95-1.15c4.4-1.7,8.86-3.26,13.19-5.11c8.29-3.54,16.51-7.25,24.77-10.88c0,0,0.07-0.07,0.07-0.07
			c0.33-0.32,0.65-0.64,0.98-0.96c0.33,0.01,0.65,0.01,0.98-0.01c12.37-4.97,24.74-9.94,37.12-14.91
			C281.83,126.75,283.11,126.02,284.39,125.29z"/>
		<path class="st10" d="M241.42,143.42c-8.25,3.64-16.47,7.34-24.77,10.88c-4.34,1.85-8.79,3.42-13.19,5.11
			c0.56-0.93,0.95-2.48,1.71-2.68c4.52-1.22,2.58-4.87,3.07-7.57c0.4-2.19,0.5-4.45,1.05-6.6c0.92-3.59,2.16-7.09,3.15-10.66
			c0.79-2.85,1.4-5.75,2.09-8.63c5.45,0,10.9,0,16.55,0c-4.14,15.43-5.19,20.01-1.43,23.23
			C233.78,145.42,237.6,144.42,241.42,143.42z"/>
		<path class="st2" d="M280.56,127.47c-12.37,4.97-24.74,9.94-37.12,14.91c0.1-1.4,0.03-2.85,0.34-4.2
			c1.15-4.95,2.43-9.86,3.67-14.79c5.33,0.33,10.66,0.66,16,0.99C269.15,125.41,274.85,126.44,280.56,127.47z"/>
		<path class="st10" d="M242.46,142.4c-0.33,0.32-0.65,0.64-0.98,0.96C241.81,143.04,242.14,142.72,242.46,142.4z"/>
		<path class="st21" d="M181.43,182.37c7.81-3.04,15.63-6.09,23.44-9.13c0.77-0.3,1.59-0.85,2.33-0.76
			c6.81,0.8,12.71-1.19,18.03-5.4c0.99-0.78,2.46-1.3,3.72-1.32c8.14-0.12,14.59-4.73,21.7-7.7c6.01-2.51,12.51-3.84,18.8-5.69
			c5.7,0.31,11-0.14,15.97-3.81c4.12-3.04,7.19-1.52,9.05,3.41c1.68,4.46,3.32,8.93,4.98,13.4c-3.8-4.25-7.87-4.32-12.29-0.92
			c-0.73,0.56-1.85,0.68-2.81,0.89c-10.05,2.18-20.32,3.67-29.09,9.72c-1.03,0.71-2.4,0.91-3.63,1.31
			c-6.36,2.11-12.84,3.91-19.04,6.39c-9.75,3.9-19.25,8.42-28.99,12.34c-4.69,1.89-9.74,2.86-14.51,4.56
			c-8.77,3.13-18.7,3.53-25.75,10.78c-1.63-1.02-3.25-2.05-4.88-3.07c0.34-1.32,0.68-2.64,1.02-3.96c3.42-3.19,6.85-6.37,10.25-9.59
			c2.26-2.13,4.47-4.31,6.7-6.46C179.81,187.43,181.91,186.2,181.43,182.37L181.43,182.37z"/>
		<path class="st9" d="M159.44,199.39c0,0.67,0,1.33-0.01,2c-1.41,0.67-2.83,1.88-4.24,1.87c-1.87-0.01-3.73-0.98-5.6-1.54
			c1.48-0.83,2.9-1.78,4.45-2.45c1.74-0.76,3.6-1.26,5.4-1.88c0,0.33,0,0.67,0,1c-0.43,0.16-0.87,0.33-1.3,0.49
			C158.58,199.06,159.01,199.23,159.44,199.39z"/>
		<path class="st22" d="M199.51,160.57c-6.01,6.28-12.02,12.57-18.03,18.85c-3.07-0.05-3.75-1.49-3.48-4.52
			c0.34-3.74-0.39-7.56-0.31-11.34c0.14-6.44,0.56-12.87,0.84-18.76c1.86-2.92,7.07,0.85,6.92-4.43c2.28,2.32,4.98,4.37,6.75,7.04
			C194.97,151.57,197.11,156.16,199.51,160.57z"/>
		<path class="st22" d="M185.47,139.39c-2.26-0.65-4.52-1.29-7.46-2.13c1.32-3.84,2.37-6.86,3.41-9.89
			c1.79,3.25,3.66,6.46,5.28,9.79C186.92,137.59,185.91,138.63,185.47,139.39z"/>
		<path class="st20" d="M181.43,182.38c0.48,3.82-1.62,5.06-5.01,5C178.09,185.71,179.76,184.04,181.43,182.38z"/>
		<path class="st6" d="M159.44,199.39c-0.43-0.17-0.86-0.34-1.3-0.5c0.43-0.16,0.87-0.33,1.3-0.49
			C159.45,198.73,159.45,199.06,159.44,199.39z"/>
		<path class="st12" d="M299.44,165.39c-1.66-4.47-3.3-8.94-4.98-13.4c-1.86-4.93-4.93-6.45-9.05-3.41
			c-4.97,3.67-10.28,4.12-15.97,3.81c1.16-3.22,2.32-6.44,3.83-10.67c0.17,0.03,1.6,0.19,2.98,0.57c2.24,0.62,4.45,1.36,6.66,2.1
			c4.99,1.66,6.06-2.96,7.82-5.52c0.81-1.17-0.65-4.17-1.51-6.15c-0.99-2.27-3.27-4.51,1.26-5.38c0,0-0.01,0-0.01,0
			c1.01,4.89,5.04,7.35,13.08,7.97c5.34,2.85,10.75,5.58,16,8.59c6.4,3.68,12.66,7.59,18.98,11.41c-0.13,0.25-0.26,0.5-0.39,0.76
			c0.45,0.09,0.89,0.18,1.34,0.27c0,0-0.02-0.01-0.02-0.01c0.68,0.33,1.35,0.66,2.03,0.99c0,0,0.04-0.04,0.04-0.04
			c-0.48,4.99-0.95,9.97-1.44,14.96c-0.03,0.32-0.06,0.77-0.26,0.92c-7.23,5.33-4.18,13.37-5.43,20.29
			c-1.77,9.83-3.82,19.61-5.71,29.42c-0.49,2.56-1.14,5.14-1.19,7.73c-0.13,6.12,1.14,12.57-5.08,16.81
			c-1.34-4.34-2.68-8.67-4.02-13.01c-1.66-5.67-3.32-11.34-4.98-17.01c-0.66-2.67-1.33-5.34-1.99-8c-1.66-5-3.33-10-4.99-15.01
			c-0.67-2.67-1.34-5.33-2-8c-1-3.67-2-7.34-3-11C300.78,172.05,300.11,168.72,299.44,165.39z"/>
		<path class="st20" d="M303.56,135.32c-8.04-0.62-12.07-3.08-13.08-7.97c3.33,1.66,6.65,3.31,9.98,4.96
			C301.49,133.31,302.53,134.31,303.56,135.32z"/>
		<path class="st14" d="M339.49,156.34c-0.45-0.09-0.89-0.18-1.34-0.27c0.13-0.25,0.26-0.5,0.39-0.76
			C338.86,155.66,339.17,156,339.49,156.34z"/>
		<path class="st14" d="M341.5,157.33c-0.68-0.33-1.35-0.66-2.03-0.99C340.14,156.67,340.82,157,341.5,157.33z"/>
		<path class="st22" d="M75.47,295.42c9.32,3,18.64,6,27.97,8.99c4.34,1.99,8.68,3.99,13.01,5.98c-1.97,0.77-3.94,1.54-5.91,2.32
			c-0.02,0.46-0.04,0.92-0.06,1.38c1.68,0.78,3.4,1.47,5.02,2.35c1.53,0.84,3.11,1.71,4.4,2.86c2.94,2.61,5.6,5.56,8.62,8.08
			c2.27,1.9,5.67,2.84,7.24,5.13c4.87,7.1,11.44,11.82,18.92,15.61c0.72,0.37,1.25,1.39,1.56,2.22c0.45,1.21,0.62,2.52,0.91,3.79
			c1.26-0.67,2.53-1.34,3.98-2.11c0.23,1.67,0.45,3.26,0.67,4.86c0.37-0.23,0.75-0.45,1.12-0.68c1.54,1.77,3.07,3.54,4.61,5.31
			c-5.36,7.98-10.72,15.95-16.09,23.93c-1.99,1.33-3.98,2.66-5.98,4c-10.98-14.5-22.01-28.96-32.93-43.5
			c-4.75-6.32-9.23-12.85-13.97-19.19c-1.46-1.96-3.36-3.59-5.06-5.36c-0.68-0.99-1.36-1.98-2.05-2.97
			C86.13,310.75,80.8,303.09,75.47,295.42z"/>
		<path class="st23" d="M305.36,313.4c-0.66,2.27-1.32,4.54-1.97,6.81c-0.67,1.72-1.35,3.43-2.02,5.15c0,0-0.04-0.01-0.04-0.01
			c-1.14,1.74-2.29,3.48-3.44,5.21c-2.04-1.35-4.09-2.7-7.18-4.75c-0.35,1.68-0.68,3.92-1.31,6.06c-0.55,1.86-1,4.12-2.31,5.29
			c-2.21,1.97-5.28,2.95-7.6,4.83c-3.02,2.44-5.11,6.1-9.9,5.7c-1.07-0.09-2.41,1.57-3.41,2.63c-2.26,2.4-4.43,4.89-6.55,7.43
			c-6.64,7.95-18.24,10.53-22.66,20.93c-0.18,0.42-1.57,0.69-2.19,0.46c-0.57-0.21-1.16-1.16-1.2-1.82
			c-0.07-1.08,0.29-2.18,0.53-3.61c-1.41-0.11-2.53-0.2-3.64-0.29c-1.01-8.99-2.03-17.97-3.04-26.96c1.79-1.09,3.55-2.24,5.37-3.27
			c5.21-2.94,10.44-5.84,15.66-8.76c5.33-2.68,10.65-5.35,15.98-8.03c7.67-4,15.34-8,23-12c1.66-0.67,3.35-1.28,4.99-2.01
			c3.68-1.64,7.34-3.32,11.01-4.99C304.08,309.41,304.72,311.41,305.36,313.4z"/>
		<path class="st24" d="M313.43,217.4c1.66,5.67,3.32,11.34,4.98,17.01c-2.97-0.32-6.28-2.05-8.17,2.06
			c-0.17,0.37-0.87,0.83-1.19,0.74c-7.01-1.9-11.91,4.3-18.61,4.78c-4.96,0.36-9.47,5.06-14.51,6.99
			c-5.96,2.28-12.27,3.62-18.4,5.45c-1.97,0.59-3.87,1.42-5.78,2.18c-2.26,0.9-4.5,1.87-6.76,2.78c-2.2,0.88-4.42,1.71-6.61,2.59
			c-0.29,0.12-0.54,0.64-0.75,0.61c-8.56-1.21-3.94,4.61-4.18,7.83c-5.66-4.68-11.33-9.35-16.99-14.03
			c-0.32-2.07-0.64-4.14-1.14-7.44c10.56,2.99,16.87-5.03,25.08-7.89c5.98-2.08,11.81-4.65,17.84-6.56
			c11.58-3.68,23.7-5.84,34.24-12.41c0.63-0.39,1.55-0.29,2.34-0.44c2.79-0.53,5.59-0.98,8.35-1.62
			C306.6,219.23,310.01,218.28,313.43,217.4z"/>
		<path class="st25" d="M116.45,310.4c-4.34-1.99-8.68-3.99-13.01-5.98c-0.47-3.5,0.93-5.67,3.94-7.74
			c5.49-3.78,10.57-8.18,15.7-12.47c5.26-4.4,10.34-9,15.55-13.45c1.09-0.93,2.45-2.23,3.66-2.21c5.34,0.08,6.11-2.09,3.65-5.89
			c2.31-1.47,4.41-2.82,6.52-4.16c1.67-0.01,3.33-0.02,5-0.02c6.66-0.03,13.32-0.06,19.98-0.09c0.64-0.67,1.28-1.33,1.92-2
			c0.36,1.01,0.72,2.01,1.08,3.02c-0.33,0.67-0.66,1.34-0.99,2c0,0.67,0,1.33,0,2c-3.99,3.81-7.9,7.7-11.99,11.4
			c-4.04,3.64-8.35,6.99-12.38,10.63c-5.96,5.39-11.09,12.15-17.89,16.02c-5.84,3.32-6.22,8.03-7.74,12.94
			c-1.67-0.66-3.34-1.31-5.01-1.97c-1.33-0.34-2.67-0.67-4-1.01C119.11,311.08,117.78,310.74,116.45,310.4z"/>
		<path class="st17" d="M129.45,314.4c1.51-4.91,1.89-9.62,7.74-12.94c6.8-3.87,11.93-10.63,17.89-16.02
			c4.04-3.65,8.35-6.99,12.38-10.63c4.09-3.69,8-7.59,11.99-11.4c1.93,2.27,4.67,4.24,5.61,6.86c2.05,5.74,6.88,10.48,6.39,17.14
			c-3.41,2.28-7.13,4.21-10.18,6.9c-6.49,5.72-12.79,11.69-18.85,17.86c-3.01,3.06-5.33,6.79-7.96,10.21
			C146.12,319.72,137.79,317.06,129.45,314.4z"/>
		<path class="st16" d="M313.43,217.4c-3.42,0.88-6.83,1.83-10.28,2.62c-2.76,0.64-5.56,1.09-8.35,1.62
			c-0.78,0.15-1.71,0.05-2.34,0.44c-10.54,6.58-22.66,8.73-34.24,12.41c-6.03,1.92-11.86,4.48-17.84,6.56
			c-8.22,2.86-14.52,10.89-25.08,7.89c0.51,3.3,0.82,5.37,1.14,7.44c-4.34-3.66-8.67-7.32-13.01-10.98c0.6-1.58,1.58-4.59,1.74-4.54
			c5.07,1.34,8.94-0.11,11.93-4.36c0.24-0.35,1.32,0,1.92-0.22c2.17-0.79,4.29-1.71,6.45-2.53c5.61-2.13,11.11-4.72,16.89-6.18
			c4.99-1.26,9.63-2.26,13.51-6.17c2.05-2.06,5.6-4,8.3-3.79c11.33,0.9,19.99-5.91,29.82-9.29c5.43-1.87,11-7.08,16.01,0.73
			c0.19,0.29,0.93,0.23,1.42,0.33C312.1,212.06,312.77,214.73,313.43,217.4z"/>
		<path class="st26" d="M301.45,175.39c1,3.67,2,7.34,3,11c-3.77-2.76-7.23-2.62-11.62-0.51c-5.52,2.66-11.79,3.7-17.61,5.78
			c-5.98,2.14-12.06,4.24-17.63,7.23c-3.92,2.1-7.5,3.92-12.1,3.62c-1.73-0.11-4.6,0.68-5.15,1.89c-1.88,4.14-5.48,4.12-8.96,5.06
			c-7.6,2.06-15.47,3.73-22.51,7.08c-4.8,2.28-9.32,3.73-14.51,3.92c-1.9,0.07-3.78,0.87-4.9,1.15c-0.38,4.05-0.7,7.42-1.02,10.78
			c-2.32-1.33-4.65-2.67-6.98-4c-0.67-0.68-1.33-1.36-2-2.04c-1.33-1.34-2.66-2.69-3.99-4.03c-0.34-0.31-0.67-0.63-1.01-0.94
			c-0.04-0.31-0.07-0.63-0.07-0.95c5.13-6.02,12.23-8.21,19.58-8.85c5-0.44,8.85-1.98,12.33-5.43c1.58-1.57,4.02-3.75,5.7-3.47
			c7.66,1.27,13.39-3.54,19.93-5.61c4.47-1.42,8.58-3.95,13.01-5.53c6.15-2.2,12.56-3.66,18.65-6c6.22-2.39,11.85-6.54,19.1-5.21
			c0.98,0.18,2.5-0.29,3.16-1.01C290.23,174.5,295.06,171.96,301.45,175.39z"/>
		<path class="st27" d="M311.44,209.4c-0.49-0.1-1.23-0.03-1.42-0.33c-5.01-7.81-10.58-2.6-16.01-0.73
			c-9.82,3.38-18.49,10.19-29.82,9.29c-2.7-0.21-6.25,1.73-8.3,3.79c-3.88,3.9-8.53,4.91-13.51,6.17
			c-5.78,1.46-11.28,4.06-16.89,6.18c-2.16,0.82-4.28,1.74-6.45,2.53c-0.6,0.22-1.68-0.13-1.92,0.22c-2.99,4.26-6.86,5.7-11.93,4.36
			c-0.17-0.04-1.14,2.96-1.74,4.54c-1.67-1.67-3.33-3.33-5-5c-0.31-1.08-0.27-2.61-0.99-3.16c-1.95-1.51-4.24-3.01-2.08-5.5
			c1.38-1.6,3.74-2.83,5.84-3.23c5.33-1.01,10.79-1.39,16.16-2.22c0.94-0.15,1.7-1.34,2.6-1.95c1.96-1.32,3.8-3.18,5.97-3.76
			c10.26-2.74,20.94-4.17,29.83-10.73c0.64-0.47,1.59-0.48,2.34-0.83c3.85-1.77,7.63-3.7,11.53-5.33c2.37-0.99,4.88-1.92,7.41-2.22
			c3.9-0.46,8.43,1.24,10.56-4c0.22-0.54,1.42-0.85,2.21-0.96c5.53-0.75,11.08-1.43,16.62-2.12
			C308.11,199.39,309.77,204.39,311.44,209.4z"/>
		<path class="st3" d="M306.45,194.39c-5.54,0.7-11.08,1.37-16.62,2.12c-0.79,0.11-1.99,0.42-2.21,0.96
			c-2.13,5.24-6.66,3.54-10.56,4c-2.53,0.3-5.04,1.22-7.41,2.22c-3.9,1.63-7.68,3.56-11.53,5.33c-0.75,0.34-1.7,0.36-2.34,0.83
			c-8.89,6.55-19.58,7.99-29.83,10.73c-2.17,0.58-4.01,2.44-5.97,3.76c-0.91,0.61-1.66,1.8-2.6,1.95
			c-5.37,0.83-10.83,1.21-16.16,2.22c-2.11,0.4-4.46,1.63-5.84,3.23c-2.16,2.49,0.13,3.99,2.08,5.5c0.72,0.55,0.68,2.08,0.99,3.16
			c-3.33-2.67-6.66-5.34-10-8.01c0.32-3.37,0.63-6.73,1.02-10.78c1.12-0.28,2.99-1.08,4.9-1.15c5.18-0.19,9.71-1.64,14.51-3.92
			c7.04-3.35,14.91-5.02,22.51-7.08c3.49-0.95,7.08-0.92,8.96-5.06c0.55-1.2,3.42-2,5.15-1.89c4.6,0.3,8.18-1.52,12.1-3.62
			c5.57-2.99,11.64-5.09,17.63-7.23c5.82-2.08,12.09-3.13,17.61-5.78c4.39-2.12,7.85-2.26,11.62,0.51
			C305.11,189.06,305.78,191.72,306.45,194.39z"/>
		<path class="st14" d="M303.44,307.42c-3.67,1.67-7.33,3.36-11.01,4.99c-1.64,0.73-3.32,1.34-4.99,2.01c0.5-3.5-1.42-3.84-4.39-4.1
			c-12.13-1.03-24.26-2.19-36.33-3.74c-14.13-1.82-28.2-4.09-42.29-6.17c-1-1-2-2-3-3c-0.67-0.33-1.33-0.67-2-1
			c-0.67-2.67-1.33-5.33-2-8c7.54,0.9,15.08,1.87,22.62,2.7c7.56,0.83,15.15,1.37,22.7,2.33c7.05,0.89,14.04,2.23,21.07,3.23
			c9.31,1.32,18.65,2.44,27.96,3.78c3.59,0.52,7.21,1.16,10.61,2.35C303.2,303.07,303.12,305.81,303.44,307.42z"/>
		<path class="st23" d="M197.44,288.41c0.67,2.67,1.33,5.33,2,8c0.67,0.67,1.33,1.33,2,2c0,1.67,0,3.33,0.01,5
			c-0.48,0.65-1.23,1.24-1.41,1.97c-1.24,4.97-3.25,9.31-8.41,11.37c-3.15,1.26-6.29,2.56-8.66,3.53c1.28,1.47,2.88,3.3,4.48,5.13
			c0,0.67,0,1.34,0,2c-3.84-1.05-7.67-2.1-11.51-3.15c-0.23,0.21-0.46,0.43-0.69,0.64c1.4,1.5,2.8,3,4.2,4.5
			c-0.34,0.32-0.67,0.65-1.01,0.97c-8-2.66-15.99-5.33-23.99-7.99c2.63-3.43,4.95-7.16,7.96-10.21
			c6.07-6.17,12.36-12.14,18.85-17.86c3.05-2.69,6.77-4.63,10.18-6.9C193.45,287.74,195.45,288.08,197.44,288.41z"/>
		<path class="st11" d="M174.47,221.38c0.34,0.31,0.67,0.63,1.01,0.94c0.17,4.97,0.44,5.24,3.99,4.03c0.67,0.68,1.33,1.36,2,2.04
			c-0.71,7.65-1.42,15.31-2.13,22.96c-0.51-0.97-1.02-1.93-1.24-2.35c-0.84,2.95-1.74,6.13-2.65,9.31
			c-2.67,0.01-5.34,0.02-8.01,0.04c-1.56-0.32-3.12-0.89-4.68-0.91c-8.44-0.09-16.88-0.05-25.32-0.05c2.59-3.29,4.72-7.13,7.85-9.77
			C155.31,239.19,166.45,232.03,174.47,221.38z"/>
		<path class="st1" d="M175.45,258.32c0.9-3.18,1.81-6.36,2.65-9.31c0.22,0.42,0.73,1.38,1.24,2.35c0.01,1.68,0.02,3.35,0.03,5.03
			c-0.64,0.67-1.28,1.33-1.92,2C176.78,258.37,176.12,258.34,175.45,258.32z"/>
		<path class="st17" d="M179.45,261.41c0.33-0.67,0.66-1.34,0.99-2C180.11,260.07,179.78,260.74,179.45,261.41z"/>
		<path class="st6" d="M154.45,322.39c8,2.66,15.99,5.33,23.99,7.99c2.9,1.44,5.79,2.87,8.69,4.31
			c-5.79,8.08-11.58,16.16-17.39,24.23c-0.66,0.92-1.48,1.74-2.23,2.6c-1.53-1.77-3.07-3.54-4.6-5.31
			c-0.37,0.23-0.75,0.45-1.12,0.68c-0.22-1.6-0.44-3.19-0.67-4.86c-1.45,0.77-2.72,1.44-3.98,2.11c-0.29-1.27-0.46-2.58-0.91-3.79
			c-0.31-0.83-0.84-1.86-1.56-2.22c-7.48-3.8-14.05-8.51-18.92-15.61c-1.56-2.28-4.97-3.22-7.24-5.13
			c-3.01-2.53-5.67-5.47-8.62-8.08c-1.29-1.15-2.87-2.02-4.4-2.86c-1.62-0.88-3.34-1.58-5.02-2.35c0.02-0.46,0.04-0.92,0.06-1.38
			c1.97-0.77,3.94-1.54,5.91-2.32c1.33,0.34,2.66,0.68,3.99,1.02c1.33,0.34,2.67,0.67,4,1.01c1.67,0.66,3.34,1.31,5.01,1.97
			C137.79,317.06,146.12,319.72,154.45,322.39z"/>
		<path class="st24" d="M264.44,326.42c-5.33,2.68-10.65,5.35-15.98,8.03c-0.77-0.66-1.86-2.03-2.25-1.86
			c-6.14,2.76-11.83-0.45-17.57-1.47c-3.76-0.67-7.02-0.88-10.21,1.3c-1.69-3.07-3.32-6.17-5.1-9.18c-0.81-1.37-1.91-2.56-2.88-3.83
			c0-0.67,0-1.33,0-2c3.57-0.2,7.19-0.87,10.71-0.51c9.15,0.93,18.27,2.2,27.37,3.55c4.59,0.68,9.14,1.68,13.62,2.88
			C263.12,323.6,263.69,325.35,264.44,326.42z"/>
		<path class="st28" d="M210.45,317.42c0,0.67,0,1.33,0,2c-5.77,3.23-11.75,6.16-17.25,9.8c-3.62,2.4-6.67,3.06-10.36,0.6
			c-0.85-0.56-2.25-0.3-3.39-0.41c-1.4-1.5-2.8-3-4.2-4.5c0.23-0.21,0.46-0.43,0.69-0.64c3.84,1.05,7.67,2.1,11.51,3.15
			c1.16-0.16,2.33-0.32,3.49-0.49c0-0.34,0-0.68,0-1.03c-1.16-0.16-2.33-0.33-3.49-0.49c-1.6-1.83-3.2-3.66-4.48-5.13
			c2.37-0.97,5.51-2.27,8.66-3.53c5.16-2.06,7.17-6.4,8.41-11.37c0.18-0.73,0.93-1.32,1.41-1.97c1,1.17,2,2.33,3,3.5
			c1,1.17,2,2.34,3,3.5C208.44,312.75,209.45,315.08,210.45,317.42z"/>
		<path class="st13" d="M218.43,332.42c3.19-2.18,6.45-1.97,10.21-1.3c5.74,1.02,11.42,4.22,17.57,1.47
			c0.39-0.18,1.48,1.2,2.25,1.86c-5.22,2.92-10.45,5.81-15.66,8.76c-1.82,1.03-3.58,2.18-5.37,3.27c-1.01-0.33-2.01-0.67-3.02-1
			C222.42,341.12,220.43,336.77,218.43,332.42z"/>
		<path class="st15" d="M230.47,373.43c1.12,0.09,2.23,0.18,3.64,0.29c-0.24,1.43-0.6,2.53-0.53,3.61c0.04,0.66,0.63,1.61,1.2,1.82
			c0.62,0.23,2.01-0.04,2.19-0.46c4.42-10.4,16.02-12.98,22.66-20.93c2.12-2.53,4.29-5.02,6.55-7.43c1-1.06,2.34-2.72,3.41-2.63
			c4.8,0.39,6.89-3.26,9.9-5.7c2.32-1.88,5.39-2.86,7.6-4.83c1.31-1.17,1.76-3.44,2.31-5.29c0.64-2.14,0.96-4.38,1.31-6.06
			c3.09,2.05,5.13,3.4,7.18,4.75c-2.62,6.27-5.43,12.47-7.8,18.83c-1.56,4.18-2.5,8.59-3.71,12.9c-3.66,8.02-7.33,16.03-10.99,24.04
			c-0.59,0.97-1.18,1.93-1.77,2.9c-10.54,0.06-21.08,0.14-31.62,0.19c-2.84,0.02-5.68,0-8.52-0.01
			C232.48,384.09,231.47,378.76,230.47,373.43z"/>
		<path class="st7" d="M275.39,386.34c3.66-8.01,7.33-16.03,10.99-24.04c-0.05,1.78,0.32,3.71-0.22,5.32
			c-1.84,5.49-4.08,10.84-5.97,16.31c-0.29,0.83,0.45,2.02,0.75,3.18C278.78,388.04,276.73,390.01,275.39,386.34z"/>
		<path class="st8" d="M301.37,325.36c0.67-1.72,1.35-3.43,2.02-5.15C302.72,321.93,302.04,323.64,301.37,325.36z"/>
		<path class="st1" d="M137.44,257.4c8.44,0,16.88-0.04,25.32,0.05c1.56,0.02,3.12,0.59,4.68,0.91c-3.33,0.04-6.65,0.08-9.98,0.13
			c-1.67,0.01-3.33,0.01-5,0.02c-7.67,0.29-15.34,0.58-23.01,0.86c1-0.65,1.99-1.31,2.99-1.96c1,0,2,0,3,0
			C136.11,257.4,136.78,257.4,137.44,257.4z"/>
		<path class="st1" d="M119.45,259.39c0.41-0.51,0.82-1.03,1.23-1.54c0.26,0.51,0.51,1.03,0.77,1.54
			C120.78,259.38,120.11,259.39,119.45,259.39z"/>
		<path class="st28" d="M301.45,175.39c-6.39-3.42-11.22-0.89-15.59,3.91c-0.66,0.72-2.18,1.19-3.16,1.01
			c-7.25-1.33-12.89,2.82-19.1,5.21c-6.08,2.34-12.5,3.81-18.65,6c-4.43,1.58-8.54,4.12-13.01,5.53
			c-6.54,2.07-12.26,6.88-19.93,5.61c-1.69-0.28-4.12,1.91-5.7,3.47c-3.48,3.45-7.33,4.99-12.33,5.43
			c-7.35,0.64-14.44,2.83-19.58,8.85c-3.28-2.37-6.57-4.74-9.85-7.12c-0.41-0.95-0.81-1.9-1.22-2.86
			c7.05-7.25,16.98-7.65,25.75-10.78c4.77-1.7,9.82-2.67,14.51-4.56c9.74-3.93,19.24-8.45,28.99-12.34
			c6.21-2.48,12.69-4.28,19.04-6.39c1.22-0.41,2.6-0.61,3.63-1.31c8.77-6.05,19.04-7.54,29.09-9.72c0.96-0.21,2.08-0.33,2.81-0.89
			c4.42-3.4,8.49-3.32,12.29,0.92C300.11,168.72,300.78,172.05,301.45,175.39z"/>
		<path class="st11" d="M135.45,257.4c-1,0-2,0-3,0c0.58-0.61,1.16-1.21,1.74-1.82C134.6,256.19,135.02,256.8,135.45,257.4z"/>
		<path class="st27" d="M210.45,317.42c-1-2.33-2-4.67-3-7c-1-3.33-2-6.67-3-10c14.09,2.08,28.16,4.35,42.29,6.17
			c12.07,1.55,24.2,2.71,36.33,3.74c2.97,0.25,4.89,0.6,4.39,4.1c-7.67,4-15.34,8-23,12c-0.76-1.06-1.33-2.82-2.3-3.08
			c-4.48-1.2-9.04-2.2-13.62-2.88c-9.1-1.35-18.22-2.62-27.37-3.55C217.64,316.55,214.02,317.22,210.45,317.42z"/>
		<path class="st18" d="M157.46,258.48c3.33-0.04,6.65-0.08,9.98-0.13c2.67-0.01,5.34-0.02,8.01-0.04c0.67,0.02,1.33,0.05,2,0.07
			C170.79,258.42,164.13,258.45,157.46,258.48z"/>
		<path class="st22" d="M124.44,312.43c-1.33-0.34-2.67-0.67-4-1.01C121.78,311.76,123.11,312.09,124.44,312.43z"/>
		<path class="st19" d="M179.47,226.35c-3.55,1.21-3.82,0.94-3.99-4.03C176.81,223.66,178.14,225.01,179.47,226.35z"/>
		<path class="st3" d="M204.45,300.41c1,3.33,2,6.67,3,10c-1-1.17-2-2.34-3-3.5c-1-1.17-2-2.33-3-3.5c0-1.67,0-3.33-0.01-5
			c0-0.33,0-0.67,0-1C202.45,298.41,203.45,299.41,204.45,300.41z"/>
		<path class="st28" d="M201.45,297.41c0,0.33,0,0.67,0,1c-0.67-0.67-1.33-1.33-2-2C200.11,296.75,200.78,297.08,201.45,297.41z"/>
		<path class="st15" d="M187.45,325.42c1.16,0.16,2.33,0.33,3.49,0.49c0,0.34,0,0.68,0,1.03c-1.16,0.16-2.33,0.32-3.49,0.49
			C187.45,326.75,187.45,326.08,187.45,325.42z"/>
	</g>
</g>
</svg>
