<?xml version="1.0" encoding="utf-8"?>
<!-- Generator: Adobe Illustrator 24.1.3, SVG Export Plug-In . SVG Version: 6.00 Build 0)  -->
<svg version="1.1" id="Layer_1" xmlns="http://www.w3.org/2000/svg" xmlns:xlink="http://www.w3.org/1999/xlink" x="0px" y="0px"
	 viewBox="0 0 3314.1 3314.1" style="enable-background:new 0 0 3314.1 3314.1;" xml:space="preserve">
<style type="text/css">
	.st0{fill:#007ACB;}
</style>
<rect x="877.6" y="1492.3" width="1068.8" height="1263.6"/>
<rect x="1877.2" y="1371.1" class="st0" width="926" height="1471"/>
<g>
	<path class="st0" d="M407.1,2907.1c0-833.3,0-1666.7,0-2500c833.3,0,1666.7,0,2500,0c0,833.3,0,1666.7,0,2500
		C2073.7,2907.1,1240.4,2907.1,407.1,2907.1z M2084.4,2358.7c-56.7,33.1-116.1,67.7-175.6,102c-7.7,4.6-7.7,9.2-3.7,16.2
		c28.2,46.6,58.8,91,102.6,124.4c125.3,96.5,268.1,116.4,419.4,92.2c72.9-11.6,139.1-41.4,192.7-93.4
		c81.2-78.4,98.3-176.8,83.3-283.4c-13.5-97.4-66.5-169.1-148.3-221.5c-70.5-45-147.4-76.9-222.7-111.8
		c-33.7-15.6-68.3-31.9-96.5-55.1c-60.7-49.3-43.2-147.4,28.2-172.2c60-20.8,127.1-0.9,166.7,49c8,10.1,15.6,20.2,23,30.6
		c5.8,8.6,11.6,8.9,20.2,3.1c47.5-31.9,95.3-63.1,142.8-94.7c7.4-4.9,14.4-10.7,22.4-16.9c-47.5-75.4-105.4-135.7-191.8-162.4
		c-66.5-20.5-135.1-23-203.1-14.1c-91.9,11.9-168.5,53.6-222.7,131.1c-54.8,77.8-59.1,165.4-42.9,254.3
		c15.6,84.6,67.4,147.4,136.9,195.5c53.9,37.4,114.6,62.2,174,89.5c45.6,21.1,91.3,43.2,134.8,68.3c37.4,21.8,53.6,57,50.2,101.1
		c-3.4,42.9-27.3,72-65,87c-86.1,34.6-168.8,27.6-242-31.6C2137.5,2421.5,2113.6,2389.6,2084.4,2358.7z M1510.6,2688
		c0-308.2,0-615.5,0-924.3c109.1,0,216.3,0,322.6,0c0-68.6,0-136,0-204.4c-33.4,0-64.3,0-95.6,0c-254.3,0-508.3,0.3-762.6,0
		c-14.4,0-19.6,4-19.6,18.7c0.3,58.8-0.3,117.3-0.6,176.2c0,2.8,0.6,5.8,1.2,10.4c108.1,0,215.7,0,324.4,0c0,308.8,0,615.8,0,923.4
		C1357.7,2688,1433.1,2688,1510.6,2688z"/>
</g>
<path d="M1895.2,2471.1l191.3-110.8c50.4,82.2,115.8,142.6,231.6,142.6c97.4,0,159.4-48.7,159.4-115.8
	c0-80.6-63.8-109.1-171.2-156.1l-58.7-25.2c-169.5-72.1-281.9-162.8-281.9-354.1c0-176.2,134.2-310.5,344-310.5
	c149.4,0,256.8,52,333.9,188l-182.9,117.5c-40.3-72.2-83.9-100.7-151-100.7c-68.8,0-112.4,43.6-112.4,100.7
	c0,70.5,43.6,99,144.3,142.7l58.7,25.2c199.7,85.6,312.1,172.9,312.1,369.2c0,211.5-166.1,327.2-389.3,327.2
	C2104.9,2711.1,1963.9,2607,1895.2,2471.1"/>
</svg>
