<?xml version="1.0" encoding="utf-8"?>
<!-- Generator: Adobe Illustrator 24.1.2, SVG Export Plug-In . SVG Version: 6.00 Build 0)  -->
<svg version="1.1" id="Layer_1" xmlns="http://www.w3.org/2000/svg" xmlns:xlink="http://www.w3.org/1999/xlink" x="0px" y="0px"
	 viewBox="0 0 2963.43 2963.43" style="enable-background:new 0 0 2963.43 2963.43;" xml:space="preserve">
<style type="text/css">
	.st0{fill:#CF272D;}
</style>
<g>
	<path class="st0" d="M1480.35,2402.65c-507.86,0-919.57-411.71-919.57-919.56c0-507.86,411.71-919.56,919.57-919.56
		c507.85,0,919.55,411.7,919.55,919.56C2399.9,1990.94,1988.2,2402.65,1480.35,2402.65L1480.35,2402.65z M1480.35,234.46
		c-689.6,0-1248.63,559.04-1248.63,1248.63c0,689.6,559.03,1248.62,1248.63,1248.62c689.59,0,1248.62-559.02,1248.62-1248.62
		C2728.97,793.5,2169.94,234.46,1480.35,234.46L1480.35,234.46z"/>
	<path class="st0" d="M1531.68,1172.12c0-143.38,116.24-259.62,259.63-259.62s259.62,116.24,259.62,259.62
		c0,143.4-116.23,259.63-259.62,259.63S1531.68,1315.52,1531.68,1172.12 M1531.68,1794.05c0-143.38,116.24-259.63,259.63-259.63
		s259.62,116.25,259.62,259.63c0,143.39-116.23,259.63-259.62,259.63S1531.68,1937.44,1531.68,1794.05 M909.75,1794.05
		c0-143.38,116.25-259.63,259.63-259.63c143.39,0,259.63,116.25,259.63,259.63c0,143.39-116.24,259.63-259.63,259.63
		C1026,2053.68,909.75,1937.44,909.75,1794.05 M909.75,1172.13c0-143.39,116.25-259.62,259.63-259.62
		c143.39,0,259.63,116.23,259.63,259.62c0,143.4-116.24,259.63-259.63,259.63C1026,1431.76,909.75,1315.52,909.75,1172.13"/>
</g>
</svg>
