<?xml version="1.0" encoding="utf-8"?>
<!-- Generator: Adobe Illustrator 24.1.2, SVG Export Plug-In . SVG Version: 6.00 Build 0)  -->
<svg version="1.1" id="Layer_1" xmlns="http://www.w3.org/2000/svg" xmlns:xlink="http://www.w3.org/1999/xlink" x="0px" y="0px"
	 viewBox="0 0 2772.36 2772.36" style="enable-background:new 0 0 2772.36 2772.36;" xml:space="preserve">
<style type="text/css">
	.st0{fill:#2489CA;}
	.st1{fill:#1070B3;}
	.st2{fill:#0877B9;}
	.st3{fill:#3C99D4;}
</style>
<path class="st0" d="M207.63,1036.27c0,0-59.18-42.66,11.84-99.62L384.93,788.7c0,0,47.34-49.81,97.4-6.41l1526.85,1155.99v554.32
	c0,0-0.74,87.04-112.44,77.43L207.63,1036.27z"/>
<path class="st1" d="M601.18,1393.57l-393.55,357.79c0,0-40.44,30.08,0,83.84l182.72,166.2c0,0,43.4,46.6,107.51-6.41l417.22-316.37
	L601.18,1393.57z"/>
<path class="st2" d="M1292.11,1396.53l721.75-551.12l-4.69-551.36c0,0-30.82-120.33-133.65-57.7l-960.45,874.14L1292.11,1396.53z"/>
<path class="st3" d="M1896.74,2570.77c41.92,42.91,92.72,28.85,92.72,28.85l562.46-277.16c72-49.07,61.89-109.98,61.89-109.98V557.4
	c0-72.74-74.47-97.89-74.47-97.89l-487.5-235c-106.52-65.84-176.31,11.84-176.31,11.84s89.76-64.61,133.65,57.7v2188.44
	c0,15.04-3.21,29.84-9.62,43.15c-12.82,25.89-40.69,50.06-107.51,39.95L1896.74,2570.77z"/>
</svg>
