<?xml version="1.0" encoding="utf-8"?>
<!-- Generator: Adobe Illustrator 24.1.2, SVG Export Plug-In . SVG Version: 6.00 Build 0)  -->
<svg version="1.1" id="Layer_1" xmlns="http://www.w3.org/2000/svg" xmlns:xlink="http://www.w3.org/1999/xlink" x="0px" y="0px"
	 viewBox="0 0 2724.31 2724.31" style="enable-background:new 0 0 2724.31 2724.31;" xml:space="preserve">
<style type="text/css">
	.st0{clip-path:url(#SVGID_2_);}
	.st1{fill:#00749A;}
	.st2{fill:#464342;}
</style>
<g>
	<defs>
		<rect id="SVGID_1_" x="112.16" y="112.15" width="2499.98" height="2500"/>
	</defs>
	<clipPath id="SVGID_2_">
		<use xlink:href="#SVGID_1_"  style="overflow:visible;"/>
	</clipPath>
	<g class="st0">
		<path class="st1" d="M6502.6,1096.19h-433.73v46.01c135.67,0,157.48,29.08,157.48,201.11v310.19
			c0,172.03-21.77,203.55-157.48,203.55c-104.14-14.55-174.46-70.27-271.38-176.91L5686.04,1559
			c150.2-26.69,230.16-121.16,230.16-227.79c0-133.24-113.86-235.02-327.1-235.02h-426.45v46.01c135.67,0,157.48,29.08,157.48,201.1
			v310.19c0,172.03-21.79,203.55-157.48,203.55v46.03h482.17v-46.03c-135.65,0-157.48-31.52-157.48-203.55v-87.19h41.2
			l268.97,336.77h705.11c346.49,0,496.74-184.13,496.74-404.66C6999.32,1277.91,6849.1,1096.19,6502.6,1096.19L6502.6,1096.19z
			 M5487.36,1491.12v-322.23h99.33c109.02,0,157.5,75.11,157.5,162.34c0,84.82-48.48,159.91-157.5,159.91L5487.36,1491.12z
			 M6509.88,1827.95h-16.98c-87.21,0-99.33-21.77-99.33-133.24v-525.82h116.31c251.99,0,297.98,184.13,297.98,327.1
			C6807.89,1643.78,6761.85,1827.95,6509.88,1827.95z M3813.06,1580.82l167.17-494.36c48.48-142.95,26.69-184.11-128.4-184.11
			v-48.48h455.53v48.48c-152.62,0-188.98,36.32-249.55,213.2l-276.25,828.7h-31.48l-247.18-758.43l-251.97,758.43h-31.52
			l-268.95-828.68c-58.15-176.89-96.92-213.2-237.47-213.2v-48.48h537.92v48.48c-142.99,0-181.76,33.91-130.85,184.11l162.34,494.36
			l244.71-726.95h46.07L3813.06,1580.82L3813.06,1580.82z M4636.86,1934.55c-266.52,0-484.6-196.25-484.6-436.16
			c0-237.47,218.08-433.73,484.6-433.73c266.52,0,484.6,196.27,484.6,433.73C5121.47,1738.3,4903.41,1934.55,4636.86,1934.55z
			 M4636.86,1139.82c-222.9,0-300.47,201.06-300.47,358.59c0,159.95,77.58,358.63,300.47,358.63c225.37,0,302.9-198.68,302.9-358.63
			C4939.77,1340.88,4862.23,1139.82,4636.86,1139.82L4636.86,1139.82z"/>
		<path class="st2" d="M7597.78,1854.6v48.46H7042.9v-48.46c162.36,0,191.43-41.2,191.43-283.54v-387.64
			c0-242.34-29.08-281.07-191.43-281.07v-48.5h501.56c249.54,0,387.72,128.42,387.72,300.49c0,167.19-138.16,298.03-387.72,298.03
			h-138.14v118.69C7406.34,1813.43,7435.4,1854.6,7597.78,1854.6L7597.78,1854.6z M7544.46,941.08h-138.14v421.64h138.14
			c135.69,0,198.68-94.49,198.68-208.37C7743.16,1038.04,7680.17,941.08,7544.46,941.08z M9596.77,1675.31l-12.14,43.6
			c-21.77,79.96-48.48,109.04-220.51,109.04h-33.93c-125.98,0-147.79-29.08-147.79-201.08v-111.45c189,0,203.55,16.94,203.55,142.95
			H9432V1297.3h-46.05c0,126-14.55,142.95-203.55,142.95v-271.36h133.24c172.07,0,198.7,29.08,220.51,109.04l12.16,46.03h38.73
			l-16.94-227.75h-712.4v46.01c135.67,0,157.5,29.08,157.5,201.1v310.17c0,157.38-18.51,197.02-125.49,202.7
			c-101.67-15.55-171.48-70.99-266.99-176.05L8511.26,1559c150.24-26.69,230.2-121.16,230.2-227.79
			c0-133.24-113.88-235.02-327.1-235.02h-426.45v46.01c135.67,0,157.5,29.08,157.5,201.1v310.19c0,172.03-21.79,203.55-157.5,203.55
			v46.03h482.2v-46.03c-135.65,0-157.5-31.52-157.5-203.55v-87.19h41.22l268.95,336.77h995.85l14.55-227.73L9596.77,1675.31
			L9596.77,1675.31z M8312.58,1491.12v-322.23h99.33c109.04,0,157.52,75.11,157.52,162.34c0,84.82-48.48,159.91-157.52,159.91
			L8312.58,1491.12z M10088.64,1934.55c-96.92,0-181.74-50.87-218.08-82.39c-12.14,12.14-33.91,48.48-38.75,82.39h-46.05v-334.37
			h48.46c19.4,159.93,130.83,254.42,273.81,254.42c77.54,0,140.54-43.62,140.54-116.28c0-62.99-55.7-111.47-155.07-157.5
			l-138.14-65.42c-96.94-46.07-169.6-126.06-169.6-232.63c0-116.3,109.04-215.63,259.28-215.63c79.96,0,147.79,29.1,189,63.01
			c12.1-9.71,24.24-36.36,31.5-65.46h46.03v285.95h-50.89c-16.98-113.9-79.96-208.39-208.37-208.39
			c-67.84,0-130.85,38.75-130.85,99.37c0,62.99,50.87,96.9,167.19,150.2l133.24,65.42c116.33,55.72,162.34,145.42,162.34,218.1
			C10384.24,1827.95,10250.97,1934.55,10088.64,1934.55L10088.64,1934.55z M10834.92,1934.55c-96.94,0-181.76-50.87-218.08-82.39
			c-12.12,12.14-33.91,48.48-38.73,82.39h-46.05v-334.37h48.46c19.38,159.93,130.81,254.42,273.81,254.42
			c77.54,0,140.54-43.62,140.54-116.28c0-62.99-55.72-111.47-155.09-157.5l-138.14-65.42c-96.92-46.07-169.6-126.06-169.6-232.63
			c0-116.3,109.04-215.63,259.28-215.63c79.96,0,147.77,29.1,189.01,63.01c12.1-9.71,24.22-36.36,31.46-65.46h46.05v285.95h-50.87
			c-16.98-113.9-79.96-208.39-208.37-208.39c-67.84,0-130.87,38.75-130.87,99.37c0,62.99,50.89,96.9,167.21,150.2l133.24,65.42
			c116.3,55.72,162.32,145.42,162.32,218.1C11130.5,1827.95,10997.24,1934.55,10834.92,1934.55L10834.92,1934.55z"/>
		<g>
			<path class="st1" d="M289.84,1362.12c0,424.47,246.67,791.26,604.36,965.1L382.68,925.71
				C321.36,1063.03,289.73,1211.74,289.84,1362.12L289.84,1362.12z M2086.08,1308.01c0-132.53-47.6-224.3-88.43-295.74
				c-54.36-88.33-105.29-163.13-105.29-251.46c0-98.57,74.74-190.33,180.05-190.33c4.75,0,9.26,0.59,13.92,0.86
				c-190.8-174.78-444.98-281.5-724.15-281.5c-374.62,0-704.21,192.21-895.95,483.34c25.16,0.75,48.89,1.27,69.01,1.27
				c112.16,0,285.78-13.61,285.78-13.61c57.81-3.41,64.62,81.49,6.9,88.33c0,0-58.11,6.84-122.75,10.22l390.5,1161.52l234.69-703.81
				l-167.09-457.73c-57.74-3.39-112.45-10.22-112.45-10.22c-57.79-3.39-51.01-91.74,6.77-88.33c0,0,177.09,13.61,282.46,13.61
				c112.14,0,285.78-13.61,285.78-13.61c57.85-3.41,64.64,81.49,6.88,88.33c0,0-58.21,6.84-122.73,10.22l387.52,1152.72
				l106.94-357.42C2050.8,1506.34,2086.08,1399.81,2086.08,1308.01L2086.08,1308.01z"/>
			<path class="st1" d="M1380.99,1455.92l-321.74,934.89c98.36,28.99,200.38,43.71,302.92,43.71c124.87,0,244.63-21.61,356.1-60.78
				c-2.99-4.68-5.54-9.63-7.63-14.77L1380.99,1455.92z M2303.1,847.65c4.61,34.16,7.22,70.84,7.22,110.27
				c0,108.82-20.32,231.14-81.54,384.09l-327.55,947.03c318.8-185.9,533.23-531.29,533.23-926.91
				C2434.75,1182.3,2389.56,1005.32,2303.1,847.65L2303.1,847.65z"/>
			<path class="st1" d="M1362.17,112.15c-689.24,0-1250.01,560.73-1250.01,1249.97c0,689.32,560.75,1250.05,1250.01,1250.05
				c689.22,0,1250.07-560.71,1250.07-1250.05C2612.22,672.88,2051.39,112.15,1362.17,112.15z M1362.17,2554.86
				c-657.63,0-1192.69-535.06-1192.69-1192.74c0-657.61,535.04-1192.63,1192.69-1192.63c657.61,0,1192.63,535.02,1192.63,1192.63
				C2554.81,2019.79,2019.76,2554.86,1362.17,2554.86L1362.17,2554.86z"/>
		</g>
	</g>
</g>
</svg>
