<?xml version="1.0" encoding="utf-8"?>
<!-- Generator: Adobe Illustrator 24.1.2, SVG Export Plug-In . SVG Version: 6.00 Build 0)  -->
<svg version="1.1" id="Layer_1" xmlns="http://www.w3.org/2000/svg" xmlns:xlink="http://www.w3.org/1999/xlink" x="0px" y="0px"
	 viewBox="0 0 2671.61 1052.62" style="enable-background:new 0 0 2671.61 1052.62;" xml:space="preserve">
<style type="text/css">
	.st0{fill:#272525;}
	.st1{fill:#FF0000;}
</style>
<path class="st0" d="M1186,407.05c-57.21,0-116.86,41.76-116.86,41.76v-26.84c0-5.88-2.35-8.24-8.24-8.24h-73.02
	c-5.89,0-9.42,3.53-9.42,8.24V994.3c0,5.91,2.36,9.44,8.25,9.44h74.19c4.7,0,8.24-3.53,8.24-9.44V504.4c0,0,34.44-21.82,76.26-21.82
	c39.82,0,71.26,19.76,71.26,60.29v451.41c0,5.91,3.52,9.44,9.42,9.44h73.01c5.89,0,8.24-4.73,8.24-9.44V517.21
	C1307.33,445.36,1263.15,407.05,1186,407.05L1186,407.05z M1753.99,119.97h-73.02c-5.9,0-9.42,3.53-9.42,8.25v288.72
	c-28.03-10.75-53.55-16.43-74.18-16.43c-118.59,0-200,113.37-200,331.36c0,186.76,79.19,286.91,182.54,286.91
	c43.56,0,79.52-24.96,105.85-48.38l15.94,27.03c2.69,4.67,4.89,6.27,10.3,6.27l42,0.04c4.71,0,8.25-3.53,8.25-9.44V128.22
	C1762.24,122.32,1759.87,119.97,1753.99,119.97L1753.99,119.97z M1493.93,712.58c0-120.12,35.16-239.06,106.95-239.06
	c24.32,0,47.67,8,70.68,26.28v423.18c-17.99,9.79-40.62,18.8-65.07,18.8C1528.43,941.78,1493.93,849.19,1493.93,712.58
	L1493.93,712.58z M2033.69,401.69c-121.6,0-181.62,159.07-181.62,332.17c0,181.2,85.6,282.75,195.66,282.75
	c48.38,0,96.54-19.04,128.11-36.58c4.84-2.69,5.71-6.48,4.55-11.17l-9.24-38.28c-1.15-4.68-3.51-7.01-9.35-7.01
	c-2.57,0-42.47,11.67-81.28,11.67c-90.07,0-131.37-80.07-131.37-186.4V723c0,0,44.76,6.19,71.66,6.19h169.92v-49.11
	C2190.74,498.78,2127.25,401.69,2033.69,401.69L2033.69,401.69z M2027.84,655.5c-26.89,0-75.84,6.65-75.84,6.65s0.65-19.52,3-38.22
	c10.53-99.42,34.24-149.72,75.18-149.72c35.59,0,59.98,51.45,65.84,141.52c1.16,18.72,1.16,39.77,1.16,39.77H2027.84z
	 M839.79,476.04c-27-53.21-75.09-76.46-130.19-76.46c-35.39,0-90.62,13.53-127.52,30.12c-7.22,3.25-11.77,6.1-11.77,11.77
	c0,3.38,1.68,7.25,3.53,10.6l24.86,53.22c2.56,6.01,6.67,7.39,10.06,7.39c3.68,0,6.67-1.74,9.96-3.85
	c35.98-22.99,62.34-35.64,83.2-35.64c27.6,0,46.35,18.31,57.91,45.85c10.77,25.66,14.93,61.12,14.93,102.08
	c0,5.22,0.03,12.04,0.03,12.04c-22.67-14.19-61.96-22.01-81.57-22.01c-105.5,0-162.38,100.24-162.38,207.43
	c0,115.5,66.49,200.2,146.4,200.2c44.5,0,84.78-26.11,111.77-59.05c0,0,14.37,34.25,16.24,38.36c1.89,4.1,3.88,5.62,9.29,5.62
	l42.7,0.04c4.7,0,8.24-3.53,8.24-9.44v-332C865.46,580.71,861.34,518.48,839.79,476.04L839.79,476.04z M774.79,910.99
	c-20.92,20.21-45.97,30.79-68.52,30.79c-22.54,0-39.96-10.41-53.93-29.71c-17.01-23.46-24.94-59.59-24.94-99.63
	c0-63.32,23.38-128.29,72.92-128.29c24.53,0,51.47,7.98,74.46,26.28L774.79,910.99L774.79,910.99z M2576.35,413.65h-65.09
	c-7.27,0-10.98,3.81-12.85,8.75c-14.36,37.74-28.66,75.49-42.91,113.27c-8.04,21.44-29.71,82.83-29.71,82.83l-2.52-0.02
	c-0.09-0.22-15.94-44.66-24.53-66.92c-6.94-18.05-43.21-113.55-47.79-125.32c-2.46-6.33-5.2-12.59-14.51-12.59h-71.25
	c-7.83,0-12.26,8.6-9.74,13.93c2.55,5.35,116.07,263.93,116.07,263.93s-121.91,289.55-125.48,296.05
	c-3.56,6.5,0.91,16.13,9.58,16.13h62.44c10.62,0,14.82-5.57,18.01-14.54c8.97-25.14,22.34-60.1,41.26-114.14
	c12.53-35.8,32.36-98.65,32.36-98.65h2.18c0,0,21.71,64.05,29.79,84.99c20.4,52.96,46.49,122.13,49.27,129.44
	c2.88,7.64,6.91,12.91,14.21,12.91h70.81c7.01,0,10.25-8,6.95-14.96c-7.88-16.61-75.13-180.01-121.83-287.43
	c0,0,121.18-267.43,123.55-274.05C2587.03,420.63,2586.34,413.65,2576.35,413.65L2576.35,413.65z"/>
<path class="st1" d="M604.59,33.85h-82.1c-7.27,0-11.8,3.56-12.86,8.74c-1.04,5.2-123.1,377.37-131.97,408.37
	c-6.29,21.97-26.8,99.46-31.72,118.06l-42.45-115.9C293.18,421.23,194.31,145.03,191.42,134c-1.59-6.06-4.39-13.61-15.02-13.61
	H96.26c-7.85,0-12.26,8.6-9.74,13.93c2.03,4.26,146.78,389.37,205.26,536.5V994.3c0,5.91,2.36,9.44,8.25,9.44h75.9
	c4.71,0,8.24-3.53,8.24-9.44V673.37C432.91,537.21,610.98,52.88,612.92,47.46C615.28,40.83,614.58,33.85,604.59,33.85z"/>
</svg>
