<?xml version="1.0" encoding="utf-8"?>
<!-- Generator: Adobe Illustrator 24.1.0, SVG Export Plug-In . SVG Version: 6.00 Build 0)  -->
<svg version="1.1" id="Layer_1" xmlns="http://www.w3.org/2000/svg" xmlns:xlink="http://www.w3.org/1999/xlink" x="0px" y="0px"
	 viewBox="0 0 2650.77 708.23" style="enable-background:new 0 0 2650.77 708.23;" xml:space="preserve">
<style type="text/css">
	.st0{fill:#00A1E3;}
</style>
<g>
	<path class="st0" d="M1580.75,567.65h-67.9v-53.03c-37.22,32.56-84.68,53.03-137.71,53.03c-113.51,0-205.62-92.1-205.62-205.62
		c0-113.51,92.11-205.61,205.62-205.61c113.52,0,205.62,92.11,205.62,205.62L1580.75,567.65z M1376.07,84.76
		c-150.73,0-272.61,122.81-272.61,272.61c0,150.74,121.88,272.61,272.61,272.61c40.95,0,80.01-9.3,114.46-25.11l18.6,7.45
		l138.62,57.66V357.37C1647.74,207.58,1525.86,84.76,1376.07,84.76 M240.96,521.13c-88.37,0-160.01-72.57-160.01-160.94
		c0-88.4,71.63-160.97,160.01-160.97c89.35,0,160.98,72.57,160.98,160.97C401.93,448.57,330.31,521.13,240.96,521.13 M240.96,119.2
		C107.94,119.2,0,227.14,0,360.19s107.94,240.97,240.96,240.97c62.36,0,118.18-23.26,160.98-61.39v61.39h80.95V360.19
		C482.88,227.14,374.94,119.2,240.96,119.2 M547.07,601.15h80.01V38.24h-80.01V601.15z M2419.99,601.15H2500V38.24h-80.01V601.15z
		 M932.28,521.13c-88.4,0-160.03-72.57-160.03-160.94c0-88.4,71.63-160.97,160.03-160.97c44.64,0,84.65,18.59,114.42,47.45
		l56.75-56.75c-45.37-45.42-106.98-70.87-171.18-70.71c-133.05,0-240.99,107.93-240.99,240.98s107.94,240.97,240.99,240.97
		c66.97,0,127.45-26.98,171.18-70.73l-56.75-56.75C1016.93,502.54,976.92,521.13,932.28,521.13 M1792.9,119.2V38.24h-80.01v562.91
		h80.01V199.22h79.99V119.2 M2113.88,199.22c75.36,0,137.72,51.18,156.31,120.96h-311.67
		C1977.11,250.4,2039.44,199.22,2113.88,199.22 M2235.75,464.38c-30.2,36.06-74.84,56.85-121.87,56.75
		c-74.45,0-136.78-51.15-155.38-120.93h393.54c1.88-13.06,3.72-26.08,3.72-40.01c0-133.05-107.9-241-241.89-241
		c-133.05,0-240.99,107.94-240.99,240.99s107.93,240.97,240.99,240.97c95.82,0,178.63-55.82,217.7-136.78"/>
	<path class="st0" d="M1375.14,222.48c-77.21,0-139.56,62.33-139.56,139.56s62.35,139.56,139.56,139.56
		c77.22,0,139.56-62.34,139.56-139.56S1452.36,222.48,1375.14,222.48"/>
</g>
</svg>
