<?xml version="1.0" encoding="utf-8"?>
<!-- Generator: Adobe Illustrator 24.1.0, SVG Export Plug-In . SVG Version: 6.00 Build 0)  -->
<svg version="1.1" id="Layer_1" xmlns="http://www.w3.org/2000/svg" xmlns:xlink="http://www.w3.org/1999/xlink" x="0px" y="0px"
	 viewBox="0 0 765.1 314.07" style="enable-background:new 0 0 765.1 314.07;" xml:space="preserve">
<style type="text/css">
	.st0{fill:#FEFEFE;}
	.st1{fill:#0BC5F2;}
	.st2{fill:#09094C;}
	.st3{fill:#0CC5F2;}
	.st4{fill:#08084B;}
	.st5{fill:#0C0C4F;}
	.st6{fill:#0A0A4D;}
	.st7{fill:#06064A;}
	.st8{fill:#0AC5F2;}
	.st9{fill:#7D6438;}
	.st10{fill:#DCCA93;}
	.st11{fill:#A48C4F;}
	.st12{fill:#B79D6A;}
	.st13{fill:#2D4E91;}
	.st14{fill:#9CAFA7;}
	.st15{fill:#ECECF1;}
	.st16{fill:#265296;}
	.st17{fill:#2778B1;}
	.st18{fill:#7AC0E5;}
	.st19{fill:#465681;}
	.st20{fill:#C9BA7D;}
	.st21{fill:#FAFAFB;}
	.st22{fill:#EDE3B8;}
	.st23{fill:#363A82;}
	.st24{fill:#0B78B5;}
	.st25{fill:#59B2DB;}
	.st26{fill:#0999CF;}
	.st27{fill:#339BCD;}
	.st28{fill:#1B5DA2;}
	.st29{fill:#97CFEC;}
</style>
<g>
	<path class="st0" d="M870.96,491.24c-330.67,0-661.33,0-992,0c0-236.33,0-472.67,0-709c330.67,0,661.33,0,992,0
		C870.96,18.57,870.96,254.91,870.96,491.24z M407.95,69.23c0.02-0.35,0.05-0.7,0.07-1.05c-0.94-0.74-1.88-1.48-2.82-2.22
		c-1.14-1.26-2.29-2.51-3.25-3.57c0.81-1.92,1.48-3.5,2.14-5.08h-0.11c0.32-0.36,0.63-0.71,0.95-1.07c1.31-1.5,5.74-1.06,3.08-5
		c0.54-1.55,1.08-3.1,1.41-4.07c-1.08-1.02-2.04-1.91-2.67-2.5c-1.77,0.64-3.37,1.23-4.98,1.81c-0.29,1.58-1.36,2.6-2.15,3.82
		c-0.26,0.4,0.24,1.29,0.39,1.96c-0.18,1.54-0.36,3.09-0.55,4.79c0.96,0.06,1.91,0.12,2.86,0.18c-2.37,0.35-4.82,1.21-7.08,0.85
		c-1.12-0.18-1.9-2.57-2.83-3.97c1.41-0.03,2.82-0.04,4.23-0.14c0.16-0.01,0.29-0.5,0.41-0.73c-1.37-0.32-2.74-0.64-4.12-0.96
		c-1-0.14-2.01-0.27-3.01-0.41c-0.2-0.04-0.38-0.13-0.52-0.28c0.19-0.4,0.39-0.81,0.58-1.21c0.3-1.04,0.61-2.08,0.91-3.13
		c0.9-1.77,1.8-3.55,2.7-5.32c-0.31-0.18-0.62-0.36-0.93-0.54c-1.16,1.63-2.32,3.26-3.36,4.72c-2.57-0.36-4.85-0.67-7.13-0.99
		c0.67-1.78,1.33-3.56,1.84-4.93c-4.55-0.86-4.3-4.49-4.41-7.89c0.13-1.03,0.26-2.06,0.39-3.08c0.68,0.57,1.37,1.14,2.62,2.18
		c-0.48-4.05-0.87-7.29-1.36-11.4c-3.95,6.25-7.94,3.69-12.29,1.2c0,3.48,0,6.26,0,9.04c-6.43,0.73-10.48,4.99-15.89,9.83
		c6.19-2.73,10.96-4.83,15.74-6.93c0.67,0.03,1.33,0.07,2,0.1c0.38,0.36,0.75,0.72,1.13,1.08c-0.15,0.61-0.31,1.23-0.46,1.84
		c-1.64,1.47-3.28,2.95-5.13,4.61c2.27,2.76,0.45,4.28-2.3,5.44c-0.75,0.29-1.51,0.57-2.26,0.86c-0.6,0.04-1.19,0.08-1.79,0.12
		c-0.35-0.31-0.71-0.63-1.06-0.94c-0.25-1.47-0.49-2.94-0.74-4.42c-0.31,0.03-0.62,0.06-0.93,0.09c-0.28,1.94-0.55,3.89-0.93,6.52
		c-2.27,0.33-4.86,0.7-7.45,1.07c0-1.34,0-2.68,0-4.33c-2.82,0-5.77,0-8.53,0c0.99,6.37,3.5,11.18,7.56,15.15
		c-0.32,1.35-0.63,2.71-0.95,4.06c-0.3,0.31-0.61,0.62-0.91,0.94c-0.37,0.32-0.74,0.63-1.11,0.95l0.07-0.05
		c-0.6,0.39-1.2,0.78-1.8,1.16l-0.07,0.1c-2.36,0.78-2.01,1.73-0.16,2.76l-0.05-0.06c-0.49,1.9-0.75,3.9-1.52,5.68
		c-0.94,2.17-2.3,4.17-3.48,6.24c-0.34,0.45-0.67,0.89-1.01,1.34c-0.66,0.92-1.31,1.85-1.97,2.77c-1,1.67-1.99,3.35-2.99,5.02
		c-2.5,1.96-5,3.92-7.5,5.88c-0.53-0.39-1.05-0.78-1.58-1.18c-0.78,5.39-1.62,10.78-2.28,16.18c-0.07,0.59,0.89,1.3,1.37,1.95
		c1.96,0.36,3.92,0.73,5.89,1.09l0.03-0.02c-0.26,0.35-0.51,0.71-0.77,1.06c0.01,1.26,0.03,2.52,0.04,3.77
		c1.25,6.85,2.5,13.7,3.79,20.8c-2.31,1.39-6.55,2.46-2.43,6.76c0.4,0.62,0.81,1.25,1.21,1.87c0.28,0.38,0.57,0.77,0.85,1.15
		c0.3,0.35,0.59,0.7,0.89,1.05c0.38,0.64,0.76,1.27,1.14,1.91c0.3,0.36,0.6,0.72,0.9,1.08c0.4,0.61,0.8,1.21,1.2,1.82
		c0.31,0.35,0.63,0.71,0.94,1.06c0.32,0.36,0.64,0.71,0.96,1.07c0.85-0.04,1.69-0.07,2.54-0.11c0.35-0.32,0.7-0.64,1.05-0.96
		c0.34-0.33,0.68-0.65,1.03-0.98c0.26,0,0.47-0.11,0.62-0.33c0.55,0.29,1.11,0.58,1.66,0.87c0.33,0.2,0.66,0.41,1,0.61
		c0.47,0.19,0.94,0.38,1.42,0.57c0.71,0.65,1.41,1.3,2.12,1.96c1.34,0.99,2.68,1.98,4.03,2.97c4.53,2.13,9.06,4.26,13.59,6.39
		c0,2.09,0,4.17,0,7.75c5.98-0.64,11.63-1.24,17.29-1.84c0.35-0.06,0.69-0.12,1.04-0.18c0.37-1.92,0.75-3.85,1.12-5.77
		c0.75-0.21,1.5-0.43,2.24-0.64c3.64-1.66,8.44-1.55,9.91-6.51c0.28-0.36,0.57-0.71,0.85-1.07c1.92-1.38,3.84-2.77,5.76-4.15
		c1.39-0.3,2.77-0.6,4.16-0.9c0.47,0.22,0.95,0.44,1.42,0.65c0.28,0.27,0.57,0.54,0.85,0.81c1.38,2.03,2.76,2.48,4.15,0.01
		c1.02-1.32,2.04-2.64,3.06-3.95c1.8-2.86,3.61-5.73,5.41-8.59c1.21-3.84-2.46-2.87-3.98-4.02c0.06-1.26,0.13-2.52,0.19-3.77
		c1.89-7.56,3.78-15.12,5.73-22.92c1.31-0.17,3.04-0.38,5.33-0.67c-0.53-3.7-1.02-7.07-1.51-10.45c-0.6-2.81-1.21-5.63-1.89-8.84
		c-4.58,2.09-6.35,0.2-7.92-3.4c-1.41-3.21-3.93-5.93-5.96-8.87l0.03,0.02c-0.32-0.36-0.64-0.73-0.96-1.09l0.03,0.04
		c-0.41-0.62-0.82-1.23-1.23-1.85l0,0c-0.3-0.37-0.6-0.73-0.9-1.1l0.02,0.03c-0.33-0.36-0.65-0.71-0.98-1.07l0.03,0.03
		c-0.33-0.36-0.65-0.72-0.98-1.07l0.03,0.03c-0.3-0.38-0.59-0.76-0.89-1.14l0.02,0.05c-0.24-0.47-0.49-0.93-0.73-1.4
		c-0.07-0.17-0.18-0.3-0.34-0.4c0.31-1.02,0.61-2.03,0.92-3.05C407.32,69.93,407.63,69.58,407.95,69.23z M268.62,116.58
		c-2.25-0.84-3.54,0.13-2.66,2.24c0.69,1.65,2.46,2.89,3.84,4.22c0.89,0.86,2.89,1.72,2.78,2.3c-1.31,7.35,3.69,15.59-3.13,22.21
		c-0.7,0.68-0.36,2.42-0.51,3.67c6.22,0,11.98,0,18.87,0c-1.12-2.07-1.89-3.49-2.66-4.92c-0.67-1.24-1.79-2.43-1.94-3.73
		c-2.16-18.8,5.1-34.4,16.6-48.58c0.8-0.99,0.91-2.53,1.37-3.9c-5.39,0-10.12,0-15.66,0c0.82,1.86,1.47,3.09,1.91,4.39
		c0.37,1.11,1.02,2.51,0.66,3.43c-2.19,5.52-4.64,10.93-7.27,17.01c-1.54-2.86-2.82-4.94-3.81-7.14c-2.34-5.19-7.61-9.86-3.1-16.38
		c0.19-0.27-0.18-0.92-0.29-1.39c-6.32,0-12.58,0-19.2,0c5.23,8.85,10.24,17.3,15.24,25.76
		C269.32,116.03,268.97,116.31,268.62,116.58z M543.82,241.92c0.36,0.28,0.73,0.56,1.09,0.83c-1.42,1.86-2.54,4.13-4.33,5.53
		c-11.36,8.85-19.77,19.89-23.92,33.66c-1.58,5.25-2.07,11.15-1.54,16.61c0.57,5.84,6.6,7.41,10.8,3.25
		c1.98-1.96,3.9-4.28,4.95-6.82c5.69-13.81,11.1-27.74,16.62-41.62c0.61-1.53,0.83-3.56,1.96-4.47
		c7.86-6.36,15.68-12.85,26.62-13.23c1.36-0.05,2.65-2.18,3.97-3.34c-1.35-1.36-2.68-3.84-4.04-3.86c-2.69-0.03-5.59,0.92-8.07,2.13
		c-5.32,2.59-10.44,5.6-16.43,8.86c1.53-5.27,3.15-9.79,4.05-14.45c0.33-1.69-1.07-3.71-1.68-5.58c-1.33,1.06-2.98,1.88-3.93,3.21
		c-3.37,4.71-6.27,9.77-9.84,14.32c-1.4,1.78-4.1,2.55-6.72,4.08c-1.36-6.87,0.99-11.66,3.36-16.42c1.28-2.58,2.33-5.19-1.12-6.72
		c-3.57-1.58-3.91,1.78-5.13,3.79c-5.08,8.36-10.15,16.73-15.39,24.99c-0.97,1.53-2.74,2.55-4.14,3.8
		c-0.41-0.19-0.83-0.39-1.24-0.58c0.22-2.36-0.07-4.91,0.74-7.04c3.13-8.23,6.51-16.37,10.07-24.43c0.49-1.11,2.45-2.18,3.77-2.22
		c11.8-0.39,23.62-0.48,35.42-0.84c1.47-0.04,2.9-1.14,4.35-1.75c-1.23-1.19-2.38-3.3-3.7-3.41c-5.29-0.47-10.63-0.47-15.95-0.36
		c-6.39,0.13-12.78,0.56-19.82,0.89c1.19-2.43,2.46-4.11,2.77-5.96c0.25-1.52-0.65-3.23-1.04-4.85c-1.48,0.63-3.36,0.9-4.35,1.98
		c-1.42,1.55-2.35,3.63-3.19,5.61c-1.38,3.26-3.52,4.62-7.2,4.87c-8.46,0.58-16.92,1.57-25.31,2.82c-1.57,0.24-2.84,2.48-4.25,3.8
		c1.43,1.14,2.76,3.06,4.3,3.24c2.54,0.3,5.25-0.37,7.83-0.9c5.92-1.22,11.81-2.6,17.71-3.91c0.25,0.44,0.5,0.89,0.76,1.33
		c-5.97,10.32-11.43,20.99-20.41,29.41c-0.32-1.66-0.39-3.19,0.11-4.5c1.73-4.5,3.88-8.84,5.39-13.4c0.56-1.71-0.22-3.86-0.38-5.81
		c-1.75,0.75-3.79,1.17-5.2,2.34c-2.28,1.89-3.86,4.72-6.28,6.31c-2.19,1.43-5.17,2.38-7.7,2.17c-0.9-0.07-1.3-4.25-2.22-6.43
		c-0.7-1.66-1.85-3.14-2.8-4.7c-1.43,1.27-3.4,2.26-4.2,3.85c-3.47,6.86-6.59,13.89-9.84,20.85c-0.65-0.2-1.3-0.4-1.95-0.6
		c1.23-8.15,2.61-16.29,3.59-24.47c0.23-1.94-0.85-4.04-1.32-6.06c-1.77,0.89-4.21,1.31-5.2,2.73c-4.92,7.1-9.45,14.48-14.15,21.74
		c-1.15,1.78-2.42,3.49-3.63,5.23c-0.54-0.25-1.07-0.49-1.61-0.74c1.18-5.64,2.52-11.25,3.46-16.92c0.34-2.05-0.27-4.25-0.45-6.38
		c-2.11,0.85-5.12,1.1-6.17,2.67c-4.52,6.75-8.48,13.88-12.62,20.88c-0.82,1.39-1.58,2.81-2.36,4.22c-0.69-0.29-1.37-0.58-2.06-0.86
		c3.17-10.26,6.3-20.53,9.59-30.75c0.28-0.88,1.61-1.95,2.52-2.03c11.89-1,23.79-1.92,35.71-2.62c2.26-0.13,5.2,1.28,5.34-2.16
		c0.04-1.09-3.06-3.21-4.81-3.3c-5.3-0.28-10.65,0.04-15.95,0.44c-6.21,0.47-12.4,1.28-19.27,2.01c2.14-4.35,4.06-7.83,5.53-11.49
		c0.41-1.03-0.13-3.31-0.92-3.72c-0.99-0.53-2.96-0.13-4.01,0.59c-1.13,0.78-2.13,2.3-2.43,3.66c-2.61,12-11.34,13.85-21.61,13.3
		c-0.83-0.04-1.67,0.02-2.5-0.01c-3.24-0.14-6.58,0.23-6.29,4.38c0.31,4.36,4.12,3.59,7,3.39c2.3-0.16,4.56-0.94,6.85-1.37
		c2.54-0.48,5.1-0.87,8.15-1.39c-1.51,4.63-3.17,8.49-4.01,12.52c-1.45,6.97-2.65,14.01-3.43,21.08c-0.33,3-0.12,7.26,3.93,7.4
		c2.28,0.08,5.08-2.38,6.87-4.39c1.82-2.04,2.7-4.92,3.95-7.46c1.13-2.27,2.21-4.57,3.32-6.86c0.97,2.93,0.51,5.66,1.12,8.13
		c0.5,2.03,1.98,4.89,3.57,5.31c1.9,0.5,5.2-0.56,6.44-2.11c3.41-4.25,6.07-9.1,9.01-13.72c1.08-1.7,2.14-3.41,3.95-6.3
		c-0.3,6.76-1.05,11.94-0.53,16.98c0.26,2.5,2.4,5.83,4.56,6.75c1.43,0.61,5.11-1.86,6.54-3.85c3.03-4.23,5.25-9.04,8.02-13.99
		c4.16,7.09,9.68,4.06,15.44,1.96c-0.21,2.59-0.83,4.78-0.43,6.77c0.5,2.54,1.35,6.51,2.92,6.98c2.19,0.66,5.61-0.77,7.74-2.34
		c2.75-2.03,4.75-5.07,7.5-8.16c0.08,5.1-1,10.29,4.22,12.02c5.2,1.73,8.07-2.82,11.02-6.11c2.55-2.83,4.79-5.93,7.2-8.95
		C531.63,247.63,531.93,247.65,543.82,241.92z M108.52,89.94c-0.52,0.28-1.04,0.55-1.56,0.83c8.56,7.85,3.65,17.38,5.13,26.41
		c-2.09-0.34-3.6-0.58-7.01-1.13c9.82,11.77,8.87,23.25,2.47,35.16c5.34,0,9.73,0,15.46,0c-8.26-11.96-2.87-24.5-4.66-36.58
		c0.44-0.06,0.88-0.12,1.31-0.18c4.31,12.57,8.62,25.15,12.93,37.72c0.44-0.03,0.89-0.06,1.33-0.09
		c4.77-13.45,9.53-26.91,14.3-40.36c0.72,8.69,0.75,17.16,0.7,25.64c-0.02,3.53,0.95,7.31-3.04,9.8c-0.79,0.49-0.6,2.58-0.87,3.99
		c6.42,0,12.17,0,18.29,0c-0.24-1.6,0.01-3.64-0.69-4.03c-3.81-2.18-2.76-5.67-2.78-8.84c-0.06-11.99-0.05-23.99,0-35.98
		c0.01-3-0.97-6.29,2.66-8.36c0.72-0.41,0.45-2.57,0.62-3.86c-6.69,0-12.74,0-19.56,0c1.21,2.88,3.48,5.57,2.89,7.32
		c-3.14,9.48-6.98,18.73-11.06,29.28c-3.19-8.98-5.85-16.65-8.65-24.26c-1.19-3.22-3.09-6.27,0.2-9.46
		c0.49-0.48-0.11-2.07-0.19-3.03C120.41,89.94,114.47,89.94,108.52,89.94z M263.12,246.52c0.33,0.12,0.66,0.23,0.99,0.35
		c-0.45,3.27-1.27,6.54-1.22,9.81c0.03,2.32,0.62,6.04,2.03,6.65c3.51,1.52,4.4-2.22,5.76-4.61c2.64-4.61,5.1-9.36,8.14-13.7
		c2.13-3.04,4.52-6.26,9.17-5.97c0.88,0.05,2.74-1.65,2.61-2.16c-0.36-1.4-1.59-3.72-2.35-3.68c-2.99,0.18-6.12,0.72-8.84,1.93
		c-2.27,1.01-4.04,3.13-7.02,5.58c0.3-2.78,0.75-4.37,0.56-5.89c-0.27-2.1-1.03-4.14-1.58-6.21c-1.99,1.15-4.7,1.82-5.84,3.53
		c-4.61,6.91-8.73,14.14-13.06,21.24c-0.94,1.54-1.96,3.04-2.94,4.55c-0.52-0.23-1.04-0.45-1.56-0.68
		c1.54-6.41,3.27-12.78,4.51-19.24c0.37-1.93-0.58-4.12-0.93-6.2c-1.96,0.79-4.77,1.01-5.74,2.46c-4.42,6.61-8.35,13.55-12.41,20.4
		c-1.23,2.07-2.3,4.24-4.06,7.54c-0.2-2.02-0.44-2.65-0.29-3.18c2.65-9.59,5.29-19.18,8.13-28.71c0.27-0.92,1.82-1.96,2.87-2.07
		c13.72-1.43,27.46-2.72,41.2-3.98c2.36-0.22,5.69,0.9,5.43-3.04c-0.23-3.57-3.47-3.01-5.87-2.82c-9.45,0.74-18.89,1.63-28.33,2.46
		c-3.56,0.31-7.13,0.61-11.85,1.02c2.41-4.87,4.49-8.62,6.07-12.56c0.47-1.17-0.45-2.89-0.74-4.36c-1.47,0.45-3.36,0.48-4.32,1.44
		c-1.35,1.35-2.36,3.29-2.92,5.15c-2.54,8.44-7.28,13.73-16.89,12.68c-0.47-0.05-1.08,0.02-1.45,0.28c-1.27,0.9-2.47,1.92-3.69,2.89
		c1.38,0.93,2.68,2.47,4.16,2.68c3,0.42,6.1,0.13,9.67,0.13c-0.83,2.5-1.64,4.49-2.14,6.56c-1.73,7.09-3.75,14.15-4.85,21.34
		c-0.59,3.85-1.4,9.19,3.73,10.75c5.22,1.59,6.88-3.49,8.97-6.92c1.93-3.17,3.5-6.56,5.22-9.86c0.9,2.06,0.83,3.81,0.91,5.55
		c0.15,3.48-0.1,7.4,4.22,8.62c4.06,1.14,6.03-1.95,7.79-4.84C257.34,256.49,260.21,251.49,263.12,246.52z M13.88,160.31
		c-2.58-2.39-5.62-3.93-5.6-5.44c0.04-3.89,3.7-3.36,6.47-3.43c4.66-0.11,9.35,0.11,13.98-0.29c7.53-0.65,14.2-3.4,16.94-11.04
		c1.15-3.23,1.6-7.62,0.31-10.58c-1.76-4.03-5.49-7.2-8.34-10.69c6.79-4.6,9.44-9.84,7.83-16.64c-1.64-6.95-7.26-11.45-16.4-12.1
		C22.15,89.61,15.17,90,6.7,90c6.81,8.67,3.76,17.98,4.46,27.18c-1.91-0.34-3.28-0.58-5.76-1.03c0.9,2.35,1.08,4.78,2.17,5.31
		c4.12,1.98,3.58,5.4,3.54,8.81c-0.03,2.67-0.23,5.36,0.04,7.99c0.54,5.3-0.17,9.52-6.61,10.38c-1.04,0.14-2.58,1.02-2.83,1.87
		c-0.84,2.87-2.4,6.39-1.4,8.68c0.97,2.24,4.63,4.28,7.29,4.53C9.75,163.91,12.15,161.33,13.88,160.31z M606.21,151.52
		c6.73,0,12.31,0,19.71,0c-7.98-9.05-3.95-18.75-4.98-27.93c4.37,0,8.1,0,11.99,0c0,3.14,0.21,5.98-0.04,8.77
		c-0.5,5.47,2.24,11.68-3.55,16.06c-0.46,0.35-0.06,1.85-0.06,3.1c5.92,0,11.65,0,17.96,0c-0.41-1.65-0.65-3.04-1.09-4.37
		c-0.82-2.47-2.45-4.9-2.51-7.37c-0.27-11.82-0.15-23.65-0.1-35.48c0.02-3.68-1.04-7.65,2.9-10.4c0.69-0.48,0.39-2.38,0.54-3.53
		c-6.2,0-11.93,0-18.96,0c7.79,8.64,4,18.12,5.03,27.17c-4.29,0-7.93,0-12.14,0c0.83-9.16-2.37-18.53,4.53-27.27
		c-6.89,0-12.49,0-19.52,0c6.71,8.57,4.06,17.8,4.47,27.1c-2.1-0.3-3.47-0.5-6.77-0.98C613.36,128.07,612.32,139.51,606.21,151.52z
		 M707.04,121.5c1.28-0.89,1.8-1.25,2.33-1.61c6.42-4.39,8.49-10.1,6.66-18.29c-1.38-6.17-6.34-10.67-13.66-11.17
		c-7.41-0.5-14.88-0.11-23.73-0.11c7.25,8.44,4.15,17.7,4.79,26.94c-1.25-0.2-2.01-0.34-2.77-0.43c-0.75-0.08-1.51-0.11-4.09-0.28
		c10.28,11.49,8.27,23.1,2.81,34.96c6.63,0,12.36,0,19.77,0c-8.02-8.94-4.25-18.74-4.44-28.38c5.22,2.77,4.71,8.76,7.07,13.07
		c2.75,5.01,2.71,10.1-0.34,15.39c7,0,12.96,0,19.15,0C716.06,141.54,711.64,131.72,707.04,121.5z M201.08,119.45
		c7.9-3.37,10.87-8.99,9.8-16.64c-0.84-5.99-6.31-11.61-13.45-12.27c-8-0.74-16.13-0.17-24.19-0.17c1.16,4.06,2.85,8.16,3.4,12.4
		c0.6,4.68,0.14,9.49,0.14,14.35c-2.27-0.27-3.79-0.45-7.23-0.86c10.54,11.61,9.09,23.16,2.64,35.64
		c9.48-0.53,17.82-0.45,25.97-1.62c7.91-1.14,13.01-6.9,13.85-13.71C213.01,128.45,210.29,123.97,201.08,119.45z M346.95,236.11
		c0.63-4.04,1.53-7.95,1.69-11.88c0.05-1.28-1.87-2.64-2.88-3.96c-1.26,1.02-3.39,1.86-3.65,3.09c-2.25,10.56-4.32,21.16-6.01,31.83
		c-0.3,1.91,1.44,4.13,2.24,6.21c1.66-1.53,3.83-2.77,4.88-4.63c2.43-4.32,4-9.13,6.51-13.38c2.11-3.56,5.35-6.14,10.32-6.56
		c-1.53,3.33-3.01,6.07-4.07,8.97c-1.57,4.3-1.67,8.65,2,12.02c3.61,3.32,7.89,2.46,11.66,0.44c3.73-2,7.06-4.73,10.56-7.13
		c3.33,7.2,6.59,6.98,15.61-1.23c0.12,2.73-0.2,5.45,0.51,7.86c0.43,1.44,2.51,3.42,3.81,3.39c4.01-0.09,7.22-7.08,5.32-11.38
		c-1.12,0.61-2.22,1.21-3.32,1.8c-0.37-0.23-0.73-0.47-1.1-0.7c2.06-6.61,3.96-13.28,6.25-19.81c1.01-2.89,1.63-6-1.96-6.25
		c-7.09-0.49-13.74,0.86-18.09,7.74c-2.92,4.62-6.25,9.1-10.05,13c-2.81,2.88-6.52,5.04-10.17,6.86c-1.34,0.67-3.64-0.59-5.51-0.96
		c0.04-0.59,0.08-1.19,0.12-1.78c1.33-0.54,2.67-1.05,3.98-1.63c5.98-2.64,10.9-6.51,13.5-12.66c2.07-4.91-1.65-10.12-6.04-7.99
		c-5.78,2.8-11.41,3.48-17.55,3.92C352.64,231.51,349.93,234.35,346.95,236.11z M51.16,116.21c0.61,2.07,0.62,4.4,1.56,4.87
		c4.79,2.4,4.07,7.05,5.11,11c0.55,2.08,1.04,4.2,1.85,6.17c3.34,8.12,8.72,13.86,18.12,13.96c9.17,0.1,14.78-5.34,18.17-13.2
		c5.03-11.7,4.73-23.7,0.62-35.54c-3.35-9.66-10.22-14.41-19.39-14.24c-8.53,0.16-15.14,5.53-18.15,15.19
		c-1.26,4.06-1.88,8.32-2.81,12.58C54.76,116.77,53.38,116.55,51.16,116.21z M723.94,90.25c6.39,8.61,3.51,17.84,4.24,26.94
		c-1.94-0.18-3.45-0.32-6.71-0.62c4.24,5.87,8.24,10.58,6.72,17.3c-1.32,5.82-1.78,11.84-2.64,17.92c5.33,0,10.64-0.03,15.96,0.01
		c3.82,0.02,7.68-0.12,11.45,0.35c1.12,0.14,2.02,2.07,3.02,3.19c-1.1,0.94-2.14,1.98-3.33,2.78c-0.53,0.35-1.38,0.21-2.29,0.32
		c0.98,4.2,3.64,5.48,7.11,5.27c3.66-0.22,6.48-2.11,7.33-5.73c1.47-6.31-2.69-9.25-7.66-11.2c1.18-3.62,2.24-6.89,3.3-10.14
		c-4.36-3.12-5.97,0.31-7.64,2.79c-3.29,4.87-7.02,8.43-13.42,6.47c0-7.61,0-15.05,0-22.07c6.58-4.88,8.35,4.02,13.34,4.42
		c0-5.87,0-11.34,0-17.24c-5.17,1.11-6.84,9.67-13.55,5.38c0-5.92,0.11-11.92-0.04-17.91c-0.09-3.5,1.77-5,4.52-3.6
		c3.05,1.55,5.88,3.93,8.1,6.56c1.91,2.26,3.29,4.17,6.68,2.26c-0.66-4.43-1.34-8.95-2.01-13.45
		C745.59,90.25,735.33,90.25,723.94,90.25z M262.18,151.16c-0.6-1.67-0.74-3.74-1.58-4.09c-4.2-1.74-4.32-5.64-5.25-9.05
		c-4.12-15.07-8.24-30.14-12.09-45.28c-0.91-3.57-2.52-4.25-5.66-3.17c-3.51,1.2-8.07,1.55-5.18,7.29c0.18,0.36-0.06,0.98-0.2,1.45
		c-1.84,6.34-3.7,12.67-5.59,19.16c-1.97-0.47-3.49-0.84-6.32-1.52c7.08,13.97-0.43,24.36-7.51,35.23c5.83,0,10.58,0,16.24,0
		c-0.89-1.89-1.95-3.21-2.08-4.61c-0.25-2.63-0.36-5.43,0.32-7.93c0.26-0.95,2.81-1.69,4.37-1.79c3.95-0.25,7.92-0.08,13.42-0.08
		c-0.7,5.23-1.3,9.72-1.92,14.38C248.99,151.16,255.22,151.16,262.18,151.16z M543.76,124.38c2.5-0.25,4.47-0.34,6.41-0.65
		c9.38-1.49,14.83-7.24,14.98-15.72c0.17-9.54-4.59-15.97-14.31-17.27c-6.99-0.93-14.19-0.18-22.68-0.18
		c7.09,8.29,3.94,17.58,4.68,26.87c-2.1-0.37-3.45-0.6-6.74-1.18c9.41,11.87,8.6,23.4,2.53,35.27c6.7,0,12.44,0,19.6,0
		C541.5,142.91,544.43,133.67,543.76,124.38z M490.15,116.53c-0.51,0.25-1.01,0.5-1.52,0.76c0.7,1.78,1.35,3.58,2.13,5.32
		c0.44,0.97,1.81,2.15,1.56,2.72c-3.06,7.13-1.49,16.01-8.25,21.81c-0.94,0.81-0.87,2.79-1.32,4.41c5.17,0,9.6,0,14.81,0
		c-1.81-4.9-4.62-9.56-0.67-14.45c2.49,0,5.16-0.19,7.79,0.06c1.95,0.18,5.25,0.57,5.49,1.5c0.72,2.8,3.73,6.04-0.24,8.96
		c-0.76,0.56-0.66,2.3-1.05,3.9c6.34,0,12.08,0,18.28,0c-0.16-1.41,0.12-3.43-0.52-3.78c-5.12-2.84-4.54-8.18-5.69-12.63
		c-3.67-14.14-7.09-28.35-10.57-42.54c-0.52-2.12-1.14-4.23-3.85-2.96c-2.6,1.23-7.26,3.44-7.06,4.44
		c1.7,8.68-3.78,15.53-4.59,23.73C492.89,117.26,491.52,116.9,490.15,116.53z M567.04,116.69c-0.57,0.18-1.14,0.36-1.71,0.54
		c9.77,10.98,8.17,22.54,2.17,34.34c6.68,0,12.46,0,19.82,0c-7.15-8.66-4.37-17.98-4.73-27.18c2.29-0.22,4.26-0.3,6.2-0.6
		c9.35-1.47,15.01-7.25,15.33-15.59c0.36-9.31-4.56-16.03-14.29-17.37c-7.09-0.97-14.43-0.19-23.3-0.19
		c8.35,8.11,4.24,17.49,5.38,26.67C569.82,117.04,568.43,116.87,567.04,116.69z M453.02,132.62c0,6.5,0,12.9,0,19.75
		c2.39-0.53,4.58-1.41,6.76-1.4c2.45,0.01,4.88,1.14,7.34,1.22c7.06,0.22,12.84-4.19,15-10.9c1.89-5.9,0.65-11.27-2.88-16.04
		c-3.66-4.94-7.96-9.41-11.57-14.38c-2.09-2.88-3.84-6.21-4.88-9.61c-1-3.26,0.88-5.91,4.21-6.84c3.35-0.93,5.93,0.36,7.1,3.75
		c0.7,2.03,0.82,4.33,1.81,6.18c0.85,1.58,2.57,2.68,3.9,3.99c0.38-0.35,0.77-0.69,1.15-1.04c0-5.95,0-11.9,0-17.85
		c-4.87,0-9.64-0.29-14.36,0.06c-9.36,0.69-15.41,8.21-13.58,17.16c0.69,3.38,2.79,6.48,4.18,9.55c-1.14,0.44-3.03,0.73-3.12,1.3
		c-0.17,1.09,0.4,2.61,1.21,3.44c0.99,1.02,2.45,1.92,3.83,2.16c7.45,1.29,10.63,6.95,12.99,13.02c0.86,2.2,0.54,5.4-0.44,7.62
		c-0.76,1.72-3.29,3.47-5.19,3.64c-1.62,0.15-4.03-1.52-5.05-3.07c-1.41-2.14-1.81-4.94-2.68-7.44
		C457.87,134.3,456.8,131.89,453.02,132.62z M209.88,234.78c-3.86-4.55-8.17-9.45-5.51-16.22c2.82-7.17,8.78-11.2,16.25-12.53
		c5.15-0.92,6.47,0.92,5.37,5.88c-0.24,1.09,0.72,2.45,1.13,3.68c1.4-0.54,3.35-0.67,4.12-1.7c3.67-4.91,1.07-11.39-4.91-12.78
		c-8.67-2.01-21.47,4.33-26.67,13.09c-2.72,4.59-3.51,9.43-1.52,14.33c1.52,3.75,3.78,7.21,5.68,10.73
		c-3.06,2.89-6.16,5.66-9.08,8.61c-5,5.05-8.8,10.82-10.07,17.98c-1.22,6.83,2.01,11.31,8.88,12.38
		c14.34,2.23,32.47-10.42,25.02-30.33c-1.63-4.36-5.84-8.33,0.38-13.23c-0.5-0.29-1.01-0.58-1.51-0.87
		C215.16,234.08,212.9,234.38,209.88,234.78z M297.41,250.91c0.34,11.18,7.49,17.38,17.13,14.15c9.76-3.26,15.47-11.13,20.36-19.61
		c0.5-0.86-0.2-2.42-0.35-3.65c-1.34,0.25-2.93,0.13-3.96,0.84c-1.32,0.9-2.1,2.55-3.26,3.73c-3.5,3.54-6.76,7.43-10.74,10.33
		c-2.05,1.49-6.1,2.38-8.02,1.31c-1.97-1.09-3.74-5.11-3.34-7.46c1.24-7.29,2.93-14.65,5.61-21.53
		c4.12-10.57,9.75-20.48,18.32-28.19c1.76-1.58,6.66-2.77,7.19-2.03c1.72,2.4,3.12,5.93,2.67,8.71c-0.4,2.45-3.5,4.42-5.27,6.71
		c-0.91,1.18-1.52,2.6-2.26,3.92c1.5,0.78,3.08,2.31,4.47,2.16c1.98-0.22,4.19-1.29,5.66-2.67c5.03-4.72,5.95-14.58,2.21-20.37
		c-3.11-4.82-8.89-6.47-13.97-3.73c-2.17,1.17-4.23,2.71-5.98,4.44c-12.37,12.21-20.53,26.86-24.92,43.63
		C298.16,244.63,297.91,247.8,297.41,250.91z M654.5,90.24c1.23,4.67,2.8,8.79,3.32,13.03c0.56,4.53,0.13,9.19,0.13,14.14
		c-1.25-0.2-2.02-0.33-2.8-0.45c-0.7-0.1-1.41-0.19-2.12-0.28c-0.52,0.17-1.03,0.34-1.55,0.52c9.83,10.98,8.19,22.51,2.31,34.21
		c6.69,0,12.56,0,18.97,0c-0.41-1.69-0.31-3.6-1.06-4.03c-3.77-2.15-2.86-5.6-2.87-8.8c-0.03-12.13-0.01-24.27-0.01-36.4
		c0-2.94-0.49-5.92,2.73-7.93c0.81-0.51,0.7-2.48,1.07-4.02C666.08,90.24,660.31,90.24,654.5,90.24z M262.47,213.95
		c0.03-0.73,0.06-1.45,0.09-2.18c-1.81-1.25-3.61-3.45-5.42-3.46c-1.58,0-3.17,2.47-4.75,3.85c1.47,1.69,2.72,4.4,4.47,4.76
		C258.45,217.25,260.57,215.04,262.47,213.95z M441.87,208.46c0.68,0.01,1.35,0.01,2.03,0.02c1.11-1.7,3.23-3.54,3.03-5.08
		c-0.21-1.61-2.48-3.77-4.17-4.1c-1.18-0.23-4.16,2.29-4.07,3.41C438.84,204.7,440.71,206.55,441.87,208.46z M510.2,206.19
		c-3.24-1.9-5.15-3.92-6.72-3.68c-1.62,0.25-2.91,2.7-4.34,4.19c1.58,1.35,3.08,3.66,4.75,3.78
		C505.44,210.59,507.17,208.38,510.2,206.19z M384.87,31.18c-0.29,0.54-0.59,1.09-0.88,1.63c4.48,2.85,8.97,5.71,13.45,8.56
		C394.27,36.42,390.17,32.9,384.87,31.18z"/>
	<path class="st1" d="M543.82,241.92c-11.9,5.73-12.2,5.72-17.4-1.01c-2.41,3.02-4.66,6.12-7.2,8.95
		c-2.95,3.29-5.82,7.84-11.02,6.11c-5.22-1.74-4.14-6.92-4.22-12.02c-2.75,3.09-4.75,6.14-7.5,8.16c-2.13,1.57-5.54,3-7.74,2.34
		c-1.57-0.47-2.41-4.44-2.92-6.98c-0.4-1.99,0.23-4.18,0.43-6.77c-5.76,2.1-11.28,5.13-15.44-1.96c-2.77,4.96-4.98,9.77-8.02,13.99
		c-1.43,1.99-5.1,4.47-6.54,3.85c-2.16-0.92-4.3-4.25-4.56-6.75c-0.52-5.05,0.23-10.22,0.53-16.98c-1.81,2.88-2.87,4.6-3.95,6.3
		c-2.95,4.62-5.6,9.47-9.01,13.72c-1.24,1.55-4.54,2.6-6.44,2.11c-1.59-0.42-3.07-3.28-3.57-5.31c-0.61-2.46-0.15-5.19-1.12-8.13
		c-1.1,2.29-2.19,4.58-3.32,6.86c-1.26,2.53-2.13,5.41-3.95,7.46c-1.79,2.01-4.59,4.46-6.87,4.39c-4.06-0.14-4.27-4.4-3.93-7.4
		c0.79-7.07,1.98-14.12,3.43-21.08c0.84-4.03,2.5-7.9,4.01-12.52c-3.06,0.52-5.61,0.91-8.15,1.39c-2.29,0.43-4.54,1.21-6.85,1.37
		c-2.88,0.21-6.7,0.97-7-3.39c-0.29-4.15,3.05-4.52,6.29-4.38c0.83,0.03,1.67-0.03,2.5,0.01c10.27,0.55,19-1.29,21.61-13.3
		c0.3-1.36,1.3-2.88,2.43-3.66c1.05-0.72,3.01-1.12,4.01-0.59c0.79,0.42,1.33,2.7,0.92,3.72c-1.47,3.66-3.39,7.14-5.53,11.49
		c6.86-0.73,13.05-1.54,19.27-2.01c5.31-0.4,10.66-0.72,15.95-0.44c1.75,0.09,4.85,2.21,4.81,3.3c-0.14,3.44-3.09,2.03-5.34,2.16
		c-11.91,0.7-23.82,1.62-35.71,2.62c-0.92,0.08-2.24,1.15-2.52,2.03c-3.29,10.22-6.42,20.49-9.59,30.75
		c0.69,0.29,1.37,0.58,2.06,0.86c0.79-1.41,1.54-2.83,2.36-4.22c4.15-7,8.1-14.13,12.62-20.88c1.05-1.56,4.06-1.81,6.17-2.67
		c0.18,2.13,0.79,4.33,0.45,6.38c-0.94,5.68-2.28,11.29-3.46,16.92c0.54,0.25,1.07,0.49,1.61,0.74c1.21-1.74,2.48-3.45,3.63-5.23
		c4.7-7.26,9.23-14.64,14.15-21.74c0.99-1.43,3.43-1.85,5.2-2.73c0.48,2.02,1.56,4.12,1.32,6.06c-0.98,8.18-2.36,16.32-3.59,24.47
		c0.65,0.2,1.3,0.4,1.95,0.6c3.25-6.97,6.38-14,9.84-20.85c0.8-1.58,2.77-2.58,4.2-3.85c0.95,1.56,2.1,3.03,2.8,4.7
		c0.92,2.18,1.33,6.36,2.22,6.43c2.52,0.21,5.51-0.74,7.7-2.17c2.43-1.59,4-4.42,6.28-6.31c1.41-1.17,3.45-1.58,5.2-2.34
		c0.17,1.95,0.95,4.1,0.38,5.81c-1.5,4.56-3.66,8.91-5.39,13.4c-0.5,1.31-0.44,2.84-0.11,4.5c8.98-8.42,14.43-19.09,20.41-29.41
		c-0.25-0.44-0.5-0.89-0.76-1.33c-5.9,1.31-11.79,2.69-17.71,3.91c-2.58,0.53-5.29,1.2-7.83,0.9c-1.54-0.18-2.87-2.1-4.3-3.24
		c1.41-1.32,2.68-3.57,4.25-3.8c8.39-1.26,16.84-2.25,25.31-2.82c3.68-0.25,5.82-1.61,7.2-4.87c0.84-1.98,1.77-4.06,3.19-5.61
		c0.99-1.08,2.87-1.35,4.35-1.98c0.39,1.62,1.29,3.33,1.04,4.85c-0.31,1.85-1.58,3.53-2.77,5.96c7.04-0.33,13.43-0.75,19.82-0.89
		c5.32-0.11,10.66-0.11,15.95,0.36c1.32,0.12,2.47,2.22,3.7,3.41c-1.45,0.61-2.88,1.7-4.35,1.75c-11.81,0.36-23.62,0.45-35.42,0.84
		c-1.31,0.04-3.28,1.11-3.77,2.22c-3.55,8.06-6.94,16.2-10.07,24.43c-0.81,2.13-0.53,4.68-0.74,7.04c0.41,0.19,0.83,0.39,1.24,0.58
		c1.4-1.26,3.17-2.28,4.14-3.8c5.24-8.26,10.31-16.63,15.39-24.99c1.22-2.01,1.56-5.37,5.13-3.79c3.46,1.53,2.4,4.14,1.12,6.72
		c-2.37,4.76-4.71,9.56-3.36,16.42c2.62-1.53,5.32-2.3,6.72-4.08c3.57-4.54,6.47-9.61,9.84-14.32c0.95-1.33,2.6-2.16,3.93-3.21
		c0.61,1.87,2.01,3.89,1.68,5.58c-0.9,4.66-2.51,9.19-4.05,14.45c5.99-3.27,11.1-6.28,16.43-8.86c2.49-1.21,5.38-2.17,8.07-2.13
		c1.36,0.02,2.7,2.49,4.04,3.86c-1.32,1.16-2.61,3.29-3.97,3.34c-10.95,0.37-18.77,6.86-26.62,13.23c-1.12,0.91-1.35,2.95-1.96,4.47
		c-5.51,13.88-10.92,27.81-16.62,41.62c-1.04,2.53-2.97,4.86-4.95,6.82c-4.2,4.16-10.23,2.6-10.8-3.25
		c-0.53-5.46-0.04-11.37,1.54-16.61c4.15-13.77,12.56-24.81,23.92-33.66c1.79-1.4,2.9-3.66,4.33-5.53
		C544.55,242.47,544.19,242.2,543.82,241.92z M540.51,256.23c-10.82,10.1-18.21,22.09-20.34,36.95c-0.15,1.05,0.7,2.23,1.09,3.36
		c0.53,0.08,1.06,0.17,1.59,0.25C531.96,284.79,536.2,270.51,540.51,256.23z M544.72,240.76c-0.08-0.1-0.17-0.21-0.25-0.31
		c-0.1,0.09-0.19,0.19-0.29,0.28c0.13,0.11,0.26,0.22,0.38,0.32C544.62,240.95,544.67,240.85,544.72,240.76z"/>
	<path class="st2" d="M108.52,89.94c5.95,0,11.89,0,18.24,0c0.08,0.96,0.68,2.55,0.19,3.03c-3.28,3.19-1.38,6.24-0.2,9.46
		c2.8,7.61,5.46,15.28,8.65,24.26c4.08-10.55,7.92-19.8,11.06-29.28c0.58-1.75-1.68-4.45-2.89-7.32c6.82,0,12.86,0,19.56,0
		c-0.18,1.29,0.1,3.45-0.62,3.86c-3.63,2.07-2.65,5.36-2.66,8.36c-0.05,11.99-0.06,23.99,0,35.98c0.02,3.16-1.04,6.66,2.78,8.84
		c0.69,0.4,0.45,2.44,0.69,4.03c-6.12,0-11.87,0-18.29,0c0.27-1.41,0.08-3.5,0.87-3.99c3.99-2.49,3.02-6.27,3.04-9.8
		c0.05-8.48,0.02-16.95-0.7-25.64c-4.77,13.45-9.53,26.91-14.3,40.36c-0.44,0.03-0.89,0.06-1.33,0.09
		c-4.31-12.57-8.62-25.15-12.93-37.72c-0.44,0.06-0.88,0.12-1.31,0.18c1.79,12.08-3.6,24.62,4.66,36.58c-5.73,0-10.12,0-15.46,0
		c6.4-11.91,7.36-23.39-2.47-35.16c3.42,0.55,4.92,0.79,7.01,1.13c-1.48-9.03,3.43-18.56-5.13-26.41
		C107.48,90.49,108,90.21,108.52,89.94z"/>
	<path class="st3" d="M263.12,246.52c-2.92,4.97-5.78,9.97-8.77,14.89c-1.75,2.89-3.72,5.99-7.79,4.84
		c-4.33-1.22-4.07-5.13-4.22-8.62c-0.08-1.75-0.01-3.5-0.91-5.55c-1.73,3.29-3.29,6.69-5.22,9.86c-2.09,3.43-3.75,8.51-8.97,6.92
		c-5.13-1.56-4.33-6.89-3.73-10.75c1.11-7.19,3.12-14.25,4.85-21.34c0.5-2.07,1.31-4.06,2.14-6.56c-3.58,0-6.68,0.3-9.67-0.13
		c-1.48-0.21-2.78-1.74-4.16-2.68c1.23-0.97,2.42-1.99,3.69-2.89c0.37-0.26,0.98-0.33,1.45-0.28c9.61,1.05,14.35-4.24,16.89-12.68
		c0.56-1.86,1.57-3.8,2.92-5.15c0.96-0.96,2.85-0.99,4.32-1.44c0.28,1.47,1.21,3.2,0.74,4.36c-1.58,3.94-3.66,7.69-6.07,12.56
		c4.73-0.41,8.29-0.71,11.85-1.02c9.44-0.83,18.88-1.72,28.33-2.46c2.4-0.19,5.63-0.75,5.87,2.82c0.26,3.94-3.07,2.83-5.43,3.04
		c-13.74,1.26-27.48,2.55-41.2,3.98c-1.05,0.11-2.6,1.15-2.87,2.07c-2.84,9.53-5.48,19.13-8.13,28.71
		c-0.15,0.53,0.09,1.16,0.29,3.18c1.77-3.29,2.84-5.46,4.06-7.54c4.06-6.85,7.99-13.79,12.41-20.4c0.97-1.45,3.78-1.67,5.74-2.46
		c0.35,2.07,1.3,4.26,0.93,6.2c-1.25,6.46-2.97,12.84-4.51,19.24c0.52,0.23,1.04,0.45,1.56,0.68c0.98-1.52,2-3.01,2.94-4.55
		c4.32-7.1,8.44-14.34,13.06-21.24c1.14-1.71,3.85-2.38,5.84-3.53c0.55,2.07,1.31,4.11,1.58,6.21c0.19,1.51-0.26,3.11-0.56,5.89
		c2.99-2.45,4.76-4.57,7.02-5.58c2.72-1.21,5.85-1.75,8.84-1.93c0.76-0.05,2,2.28,2.35,3.68c0.13,0.51-1.73,2.21-2.61,2.16
		c-4.65-0.29-7.04,2.93-9.17,5.97c-3.04,4.34-5.5,9.09-8.14,13.7c-1.37,2.39-2.26,6.13-5.76,4.61c-1.41-0.61-2-4.33-2.03-6.65
		c-0.05-3.26,0.77-6.54,1.22-9.81C263.78,246.76,263.45,246.64,263.12,246.52z M272.96,240.3c-0.22-0.02-0.43-0.04-0.65-0.07
		c-0.02,0.51-0.05,1.03-0.07,1.54c0.17,0.01,0.33,0.03,0.5,0.04C272.82,241.31,272.89,240.8,272.96,240.3z"/>
	<path class="st4" d="M13.88,160.31c-1.72,1.02-4.13,3.6-6.27,3.4c-2.66-0.25-6.31-2.29-7.29-4.53c-0.99-2.29,0.57-5.81,1.4-8.68
		c0.25-0.85,1.78-1.73,2.83-1.87c6.44-0.85,7.15-5.08,6.61-10.38c-0.27-2.64-0.07-5.33-0.04-7.99c0.04-3.41,0.58-6.83-3.54-8.81
		c-1.09-0.52-1.27-2.95-2.17-5.31c2.48,0.44,3.85,0.69,5.76,1.03c-0.71-9.2,2.35-18.51-4.46-27.18c8.47,0,15.45-0.4,22.37,0.1
		c9.13,0.65,14.76,5.15,16.4,12.1c1.61,6.79-1.04,12.04-7.83,16.64c2.85,3.49,6.58,6.66,8.34,10.69c1.29,2.96,0.85,7.36-0.31,10.58
		c-2.73,7.65-9.41,10.39-16.94,11.04c-4.63,0.4-9.32,0.18-13.98,0.29c-2.77,0.07-6.43-0.46-6.47,3.43
		C8.26,156.38,11.3,157.92,13.88,160.31z M22.1,122.89c0,6.01-0.11,11.61,0.06,17.2c0.06,1.98,0.83,3.93,1.27,5.89
		c2.6-0.73,5.65-0.84,7.7-2.33c3.53-2.57,4.37-10.55,2.32-15.33C31.41,123.6,27.45,122.65,22.1,122.89z M22.14,116.9
		c6.6,0.86,10.28-1.39,11.66-6.82c1.64-6.49-0.75-13.3-5.53-15.11c-2.65-1-5.92-2.11-6.07,2.58
		C21.98,104.01,22.14,110.49,22.14,116.9z"/>
	<path class="st5" d="M606.21,151.52c6.11-12.01,7.15-23.45-2.6-35.13c3.31,0.48,4.67,0.68,6.77,0.98
		c-0.41-9.3,2.23-18.53-4.47-27.1c7.03,0,12.63,0,19.52,0c-6.9,8.74-3.7,18.1-4.53,27.27c4.21,0,7.85,0,12.14,0
		c-1.02-9.05,2.76-18.53-5.03-27.17c7.03,0,12.77,0,18.96,0c-0.15,1.15,0.15,3.05-0.54,3.53c-3.94,2.75-2.88,6.72-2.9,10.4
		c-0.05,11.83-0.17,23.66,0.1,35.48c0.06,2.47,1.69,4.89,2.51,7.37c0.44,1.33,0.69,2.72,1.09,4.37c-6.31,0-12.04,0-17.96,0
		c0-1.24-0.4-2.74,0.06-3.1c5.79-4.38,3.05-10.59,3.55-16.06c0.26-2.79,0.04-5.63,0.04-8.77c-3.89,0-7.62,0-11.99,0
		c1.02,9.18-3.01,18.88,4.98,27.93C618.52,151.52,612.94,151.52,606.21,151.52z"/>
	<path class="st6" d="M707.04,121.5c4.6,10.22,9.02,20.04,13.54,30.09c-6.19,0-12.15,0-19.15,0c3.05-5.29,3.09-10.39,0.34-15.39
		c-2.37-4.32-1.86-10.31-7.07-13.07c0.2,9.64-3.58,19.43,4.44,28.38c-7.41,0-13.14,0-19.77,0c5.46-11.85,7.47-23.47-2.81-34.96
		c2.58,0.17,3.34,0.2,4.09,0.28c0.76,0.09,1.52,0.23,2.77,0.43c-0.64-9.24,2.45-18.5-4.79-26.94c8.86,0,16.32-0.39,23.73,0.11
		c7.32,0.49,12.28,5,13.66,11.17c1.84,8.2-0.24,13.9-6.66,18.29C708.85,120.25,708.32,120.62,707.04,121.5z M693.98,117.71
		c6.28,0.41,9.24-1.58,10.66-6.85c1.66-6.18-0.61-13.71-4.73-15.6c-0.75-0.34-1.8-0.94-2.33-0.67c-1.32,0.69-3.4,1.76-3.45,2.75
		C693.83,104.13,693.98,110.94,693.98,117.71z"/>
	<path class="st7" d="M201.08,119.45c9.21,4.52,11.93,9.01,10.93,17.14c-0.84,6.81-5.94,12.57-13.85,13.71
		c-8.16,1.17-16.5,1.09-25.97,1.62c6.45-12.48,7.9-24.04-2.64-35.64c3.44,0.41,4.96,0.59,7.23,0.86c0-4.86,0.46-9.68-0.14-14.35
		c-0.54-4.24-2.24-8.34-3.4-12.4c8.06,0,16.18-0.57,24.19,0.17c7.14,0.66,12.61,6.28,13.45,12.27
		C211.95,110.46,208.98,116.07,201.08,119.45z M187.92,123.16c-0.15,0.29-0.43,0.57-0.43,0.86c-0.05,5.96,0.13,11.94-0.14,17.89
		c-0.22,4.71,2.25,4.87,5.63,3.89c5.07-1.47,7.94-7.74,6.69-14.43C198.5,125.12,194.76,122.5,187.92,123.16z M187.42,116.99
		c6.63,0.72,10.09-1.32,11.52-6.43c1.79-6.41-0.25-13.14-4.78-15.41c-1-0.5-2.43-1.16-3.25-0.8c-1.34,0.58-3.29,1.89-3.34,2.97
		C187.26,103.89,187.42,110.48,187.42,116.99z"/>
	<path class="st8" d="M346.95,236.11c2.98-1.76,5.69-4.61,8.59-4.81c6.14-0.44,11.77-1.12,17.55-3.92c4.39-2.13,8.11,3.08,6.04,7.99
		c-2.59,6.15-7.52,10.02-13.5,12.66c-1.31,0.58-2.66,1.09-3.98,1.63c-0.04,0.59-0.08,1.19-0.12,1.78c1.86,0.38,4.16,1.63,5.51,0.96
		c3.64-1.81,7.36-3.98,10.17-6.86c3.8-3.9,7.13-8.39,10.05-13c4.36-6.89,11-8.24,18.09-7.74c3.59,0.25,2.97,3.36,1.96,6.25
		c-2.29,6.53-4.19,13.2-6.25,19.81c0.37,0.23,0.73,0.47,1.1,0.7c1.1-0.6,2.2-1.19,3.32-1.8c1.9,4.3-1.31,11.29-5.32,11.38
		c-1.3,0.03-3.38-1.94-3.81-3.39c-0.72-2.41-0.39-5.13-0.51-7.86c-9.02,8.21-12.28,8.43-15.61,1.23c-3.5,2.41-6.84,5.14-10.56,7.13
		c-3.77,2.02-8.04,2.88-11.66-0.44c-3.67-3.37-3.56-7.71-2-12.02c1.05-2.9,2.54-5.64,4.07-8.97c-4.97,0.42-8.22,3-10.32,6.56
		c-2.52,4.25-4.09,9.06-6.51,13.38c-1.05,1.87-3.22,3.11-4.88,4.63c-0.8-2.08-2.54-4.31-2.24-6.21c1.69-10.66,3.76-21.27,6.01-31.83
		c0.26-1.23,2.39-2.07,3.65-3.09c1.02,1.32,2.93,2.68,2.88,3.96C348.49,228.16,347.58,232.07,346.95,236.11z M399.58,231.91
		c-6.7,1.38-12.72,10.7-11.67,18C392.26,243.2,395.92,237.55,399.58,231.91z M374.46,233.93c-0.94-0.96-1.89-1.92-2.83-2.88
		c-3.11,2.91-6.21,5.83-9.32,8.74c0.95,0.97,1.9,1.93,2.85,2.9C368.26,239.77,371.36,236.85,374.46,233.93z"/>
	<path class="st4" d="M51.16,116.21c2.22,0.35,3.6,0.56,5.08,0.79c0.93-4.26,1.55-8.52,2.81-12.58c3.01-9.66,9.62-15.03,18.15-15.19
		c9.17-0.17,16.04,4.58,19.39,14.24c4.11,11.84,4.41,23.85-0.62,35.54c-3.38,7.86-8.99,13.29-18.17,13.2
		c-9.4-0.1-14.78-5.84-18.12-13.96c-0.81-1.98-1.3-4.1-1.85-6.17c-1.04-3.95-0.32-8.6-5.11-11
		C51.78,120.61,51.77,118.28,51.16,116.21z M86.45,117.13c0.6-0.25,1.21-0.49,1.81-0.74c-1.62-6.14-2.56-12.56-5.05-18.32
		c-2.45-5.66-7.47-5.35-10.46,0.05c-0.87,1.57-1.8,3.35-1.91,5.08c-0.57,9.57-1.24,19.15-1.11,28.72c0.05,3.81,1.57,7.85,3.31,11.33
		c2.58,5.14,7.33,5.29,9.79,0.13c2.16-4.54,3.03-9.73,4.22-14.69c0.63-2.63,0.51-4.95-2.67-6.54c-1.44-0.72-1.87-3.46-3.28-6.35
		C83.97,116.51,85.21,116.82,86.45,117.13z"/>
	<path class="st2" d="M723.94,90.25c11.39,0,21.65,0,32.46,0c0.67,4.5,1.35,9.02,2.01,13.45c-3.4,1.91-4.78,0-6.68-2.26
		c-2.21-2.63-5.05-5.01-8.1-6.56c-2.75-1.4-4.61,0.1-4.52,3.6c0.16,5.99,0.04,11.98,0.04,17.91c6.71,4.29,8.38-4.27,13.55-5.38
		c0,5.9,0,11.37,0,17.24c-4.99-0.41-6.76-9.3-13.34-4.42c0,7.02,0,14.46,0,22.07c6.4,1.96,10.14-1.6,13.42-6.47
		c1.67-2.48,3.28-5.91,7.64-2.79c-1.06,3.25-2.12,6.51-3.3,10.14c4.97,1.95,9.13,4.89,7.66,11.2c-0.84,3.62-3.67,5.51-7.33,5.73
		c-3.47,0.21-6.13-1.07-7.11-5.27c0.91-0.11,1.77,0.03,2.29-0.32c1.2-0.8,2.23-1.84,3.33-2.78c-1-1.11-1.9-3.05-3.02-3.19
		c-3.77-0.46-7.63-0.32-11.45-0.35c-5.32-0.03-10.63-0.01-15.96-0.01c0.86-6.08,1.32-12.09,2.64-17.92
		c1.52-6.72-2.49-11.43-6.72-17.3c3.26,0.3,4.77,0.44,6.71,0.62C727.46,108.09,730.34,98.86,723.94,90.25z"/>
	<path class="st2" d="M262.18,151.16c-6.96,0-13.19,0-19.05,0c0.62-4.65,1.22-9.15,1.92-14.38c-5.5,0-9.47-0.17-13.42,0.08
		c-1.56,0.1-4.11,0.84-4.37,1.79c-0.67,2.5-0.56,5.29-0.32,7.93c0.13,1.4,1.19,2.71,2.08,4.61c-5.66,0-10.41,0-16.24,0
		c7.08-10.87,14.59-21.26,7.51-35.23c2.83,0.68,4.35,1.04,6.32,1.52c1.9-6.49,3.75-12.82,5.59-19.16c0.14-0.47,0.38-1.09,0.2-1.45
		c-2.89-5.75,1.67-6.09,5.18-7.29c3.14-1.07,4.75-0.4,5.66,3.17c3.85,15.14,7.98,30.21,12.09,45.28c0.93,3.41,1.05,7.31,5.25,9.05
		C261.45,147.42,261.58,149.49,262.18,151.16z M236.45,108.91c-0.35,0.02-0.71,0.04-1.06,0.07c-2.09,7.1-4.17,14.19-6.28,21.37
		c4.42,0,8.42,0,12.7,0C239.94,122.88,238.2,115.9,236.45,108.91z"/>
	<path class="st4" d="M543.76,124.38c0.67,9.3-2.27,18.53,4.48,27.14c-7.16,0-12.91,0-19.6,0c6.07-11.88,6.88-23.41-2.53-35.27
		c3.29,0.57,4.64,0.81,6.74,1.18c-0.74-9.29,2.41-18.58-4.68-26.87c8.48,0,15.69-0.75,22.68,0.18c9.72,1.3,14.48,7.73,14.31,17.27
		c-0.15,8.48-5.6,14.23-14.98,15.72C548.23,124.04,546.26,124.13,543.76,124.38z M544.18,94.9c0,8,0,16.02,0,24.05
		c7.26-0.48,10.43-5.14,9.81-13.89C553.48,97.86,550.18,94.4,544.18,94.9z"/>
	<path class="st6" d="M490.15,116.53c1.37,0.36,2.74,0.72,4.72,1.25c0.8-8.2,6.28-15.05,4.59-23.73c-0.2-1.01,4.46-3.22,7.06-4.44
		c2.71-1.28,3.33,0.84,3.85,2.96c3.48,14.19,6.9,28.4,10.57,42.54c1.16,4.45,0.58,9.78,5.69,12.63c0.64,0.35,0.35,2.37,0.52,3.78
		c-6.2,0-11.94,0-18.28,0c0.39-1.59,0.29-3.34,1.05-3.9c3.98-2.92,0.96-6.16,0.24-8.96c-0.24-0.93-3.54-1.31-5.49-1.5
		c-2.63-0.25-5.3-0.06-7.79-0.06c-3.95,4.89-1.14,9.55,0.67,14.45c-5.21,0-9.65,0-14.81,0c0.45-1.62,0.38-3.61,1.32-4.41
		c6.76-5.8,5.19-14.67,8.25-21.81c0.25-0.57-1.12-1.74-1.56-2.72c-0.78-1.74-1.43-3.55-2.13-5.32
		C489.13,117.04,489.64,116.79,490.15,116.53z M504.14,109.61c-0.28,0.05-0.57,0.09-0.85,0.14c-1.8,6.98-3.59,13.96-5.43,21.13
		c3.9,0,7.33,0,11.11,0C507.31,123.59,505.73,116.6,504.14,109.61z"/>
	<path class="st4" d="M567.04,116.69c1.39,0.18,2.78,0.36,4.87,0.62c-1.14-9.19,2.98-18.57-5.38-26.67c8.86,0,16.2-0.78,23.3,0.19
		c9.73,1.34,14.65,8.06,14.29,17.37c-0.32,8.33-5.98,14.12-15.33,15.59c-1.94,0.3-3.9,0.39-6.2,0.6c0.36,9.2-2.42,18.52,4.73,27.18
		c-7.36,0-13.14,0-19.82,0c6.01-11.8,7.6-23.36-2.17-34.34C565.9,117.05,566.47,116.87,567.04,116.69z M582.43,119.93
		c3-1.27,5.56-1.72,7.21-3.18c4.01-3.55,4.63-12.96,1.3-18.15c-1.08-1.68-2.98-3.14-4.83-3.89c-0.79-0.32-3.47,1.4-3.51,2.26
		C582.3,104.21,582.43,111.47,582.43,119.93z"/>
	<path class="st4" d="M453.02,132.62c3.78-0.73,4.84,1.68,5.74,4.28c0.87,2.5,1.27,5.3,2.68,7.44c1.02,1.55,3.43,3.22,5.05,3.07
		c1.89-0.18,4.43-1.92,5.19-3.64c0.98-2.22,1.3-5.41,0.44-7.62c-2.37-6.07-5.54-11.73-12.99-13.02c-1.38-0.24-2.84-1.14-3.83-2.16
		c-0.8-0.83-1.37-2.35-1.21-3.44c0.09-0.57,1.98-0.86,3.12-1.3c-1.39-3.07-3.48-6.16-4.18-9.55c-1.83-8.95,4.22-16.47,13.58-17.16
		c4.72-0.35,9.49-0.06,14.36-0.06c0,5.95,0,11.9,0,17.85c-0.38,0.35-0.77,0.69-1.15,1.04c-1.33-1.31-3.06-2.42-3.9-3.99
		c-0.99-1.85-1.11-4.14-1.81-6.18c-1.17-3.39-3.75-4.68-7.1-3.75c-3.34,0.92-5.21,3.58-4.21,6.84c1.04,3.39,2.79,6.72,4.88,9.61
		c3.61,4.97,7.9,9.44,11.57,14.38c3.54,4.76,4.78,10.14,2.88,16.04c-2.16,6.71-7.94,11.13-15,10.9c-2.46-0.08-4.89-1.21-7.34-1.22
		c-2.19-0.01-4.38,0.87-6.76,1.4C453.02,145.52,453.02,139.12,453.02,132.62z"/>
	<path class="st2" d="M269.67,115.76c-5-8.46-10.01-16.92-15.24-25.76c6.63,0,12.88,0,19.2,0c0.11,0.46,0.48,1.12,0.29,1.39
		c-4.51,6.52,0.77,11.19,3.1,16.38c0.99,2.2,2.27,4.28,3.81,7.14c2.64-6.08,5.08-11.49,7.27-17.01c0.36-0.92-0.29-2.32-0.66-3.43
		c-0.44-1.3-1.09-2.53-1.91-4.39c5.54,0,10.26,0,15.66,0c-0.46,1.37-0.57,2.92-1.37,3.9c-11.5,14.17-18.75,29.78-16.6,48.58
		c0.15,1.3,1.27,2.49,1.94,3.73c0.77,1.43,1.54,2.85,2.66,4.92c-6.89,0-12.66,0-18.87,0c0.14-1.24-0.19-2.99,0.51-3.67
		c6.82-6.61,1.83-14.86,3.13-22.21c0.1-0.58-1.89-1.44-2.78-2.3c-1.38-1.33-3.15-2.56-3.84-4.22c-0.88-2.11,0.41-3.08,2.66-2.24
		c0.35,0.12,0.7,0.25,1.06,0.37C269.68,116.56,269.68,116.16,269.67,115.76z"/>
	<path class="st3" d="M209.88,234.78c3.02-0.4,5.28-0.7,7.55-0.99c0.5,0.29,1.01,0.58,1.51,0.87c-6.22,4.9-2.01,8.87-0.38,13.23
		c7.45,19.91-10.68,32.56-25.02,30.33c-6.87-1.07-10.1-5.55-8.88-12.38c1.28-7.16,5.07-12.93,10.07-17.98
		c2.92-2.95,6.01-5.71,9.08-8.61c-1.9-3.52-4.15-6.98-5.68-10.73c-1.99-4.9-1.2-9.74,1.52-14.33c5.2-8.76,18-15.1,26.67-13.09
		c5.98,1.39,8.59,7.86,4.91,12.78c-0.76,1.02-2.71,1.15-4.12,1.7c-0.41-1.23-1.37-2.59-1.13-3.68c1.1-4.96-0.22-6.8-5.37-5.88
		c-7.47,1.34-13.43,5.36-16.25,12.53C201.71,225.33,206.02,230.23,209.88,234.78z M208.6,243.64c-7.35,5.67-13.4,11.5-16.74,19.61
		c-2.48,6.02-0.71,8.66,5.65,8.33c6.88-0.36,12.93-2.75,15.59-9.6C215.71,255.28,213.11,249.4,208.6,243.64z"/>
	<path class="st8" d="M297.41,250.91c0.5-3.11,0.75-6.29,1.55-9.32c4.39-16.76,12.55-31.42,24.92-43.63
		c1.75-1.73,3.82-3.26,5.98-4.44c5.07-2.75,10.85-1.09,13.97,3.73c3.74,5.79,2.82,15.65-2.21,20.37c-1.48,1.38-3.68,2.46-5.66,2.67
		c-1.39,0.15-2.97-1.38-4.47-2.16c0.74-1.31,1.35-2.74,2.26-3.92c1.77-2.29,4.88-4.26,5.27-6.71c0.45-2.78-0.95-6.31-2.67-8.71
		c-0.53-0.73-5.43,0.45-7.19,2.03c-8.57,7.71-14.2,17.62-18.32,28.19c-2.68,6.88-4.37,14.24-5.61,21.53
		c-0.4,2.35,1.37,6.36,3.34,7.46c1.92,1.06,5.97,0.18,8.02-1.31c3.98-2.89,7.24-6.79,10.74-10.33c1.16-1.18,1.95-2.83,3.26-3.73
		c1.03-0.7,2.62-0.59,3.96-0.84c0.15,1.23,0.85,2.79,0.35,3.65c-4.89,8.48-10.61,16.35-20.36,19.61
		C304.89,268.29,297.75,262.1,297.41,250.91z"/>
	<path class="st2" d="M654.5,90.24c5.81,0,11.58,0,18.12,0c-0.37,1.53-0.26,3.51-1.07,4.02c-3.21,2.01-2.73,4.99-2.73,7.93
		c0,12.13-0.02,24.27,0.01,36.4c0.01,3.19-0.9,6.65,2.87,8.8c0.75,0.43,0.65,2.34,1.06,4.03c-6.42,0-12.29,0-18.97,0
		c5.88-11.7,7.52-23.23-2.31-34.21c0.52-0.17,1.03-0.34,1.55-0.52c0.71,0.09,1.41,0.18,2.12,0.28c0.78,0.12,1.56,0.25,2.8,0.45
		c0-4.95,0.43-9.6-0.13-14.14C657.3,99.02,655.73,94.9,654.5,90.24z"/>
	<path class="st9" d="M408.05,156.27c-1.39,0.3-2.77,0.6-4.16,0.89c3.86-4.31-0.73-5.23-0.45-4.7c-3.13,1.6-6.26,3.2-9.39,4.8
		c-1.38,0.26-2.75,0.51-4.13,0.77c-4.87,0.52-7.92,2.56-6.72,8.11c-0.29,0.13-0.59,0.21-0.91,0.24c-0.12-4.18-2.42-5.63-6.36-5.23
		c-1.77,0.18-3.56,0.08-5.34,0.1c-0.57,0.06-1.15,0.11-1.72,0.16c-0.9-0.01-1.8-0.03-2.7-0.04c-6.15-4.49-7.67-4.23-10.04,2.31
		c2.91,1.17,5.84,2.34,8.77,3.52c0.71,0.71,1.42,1.41,2.13,2.12l0.09,0.03c-0.48,0.07-0.95,0.15-1.43,0.22
		c-4.53-2.13-9.06-4.26-13.59-6.39l-0.09-0.02c0.36-1.23,0.72-2.46,1.09-3.69c0.63-1.05,1.27-2.11,1.9-3.16
		c-0.35-0.67-0.71-1.34-1.06-2.01l-0.04-0.04c-0.33-0.29-0.66-0.58-0.98-0.87l-0.17,0.02c-3.9-5.04-7.8-10.08-11.7-15.12
		c-0.39-0.37-0.78-0.75-1.17-1.12c-0.86-3.31-1.72-6.62-2.58-9.92c-0.16-0.7-0.33-1.41-0.49-2.11c-0.66-3.64-1.32-7.28-1.98-10.93
		l0.31,0.04c0.98-0.02,1.95-0.03,2.93-0.05c0.12,12.4,3.47,23.64,11.93,33.04c1.53,1.13,3.07,2.25,4.6,3.37
		c0.48,0.19,0.95,0.39,1.43,0.59l-0.03-0.02c3,1.65,6.01,3.3,9.01,4.94c2.35,0.38,4.71,0.76,7.06,1.13
		c1.73,0.62,3.63,2.04,5.17,1.72c4.32-0.88,8.49-2.48,12.71-3.8c0.78-0.55,1.56-1.09,2.33-1.64c1.32-1.02,2.63-2.04,3.95-3.06
		c2.27-2.07,4.55-4.15,6.82-6.22c0.85-1.45,1.7-2.91,2.55-4.36c1.08-1.71,2.16-3.42,3.25-5.13c0.4,0.42,0.8,0.84,1.19,1.26
		c1.32,1.06,2.64,2.12,3.96,3.17c-1.75-0.1-3.5-0.19-4.61-0.26c-2.14,3.42-4.01,6.41-6.06,9.68c1.48,1.7,3.21,3.68,4.93,5.66
		C408.19,154.97,408.12,155.62,408.05,156.27z"/>
	<path class="st10" d="M361.79,47.08c0.75-0.29,1.51-0.57,2.26-0.86c1.73,0.45,3.46,0.9,5.11,1.32c-0.4,1.45-0.77,2.76-1.39,4.97
		c2.61-1.57,4.4-2.64,6.47-3.88c0.07,1.39,0.12,2.26,0.18,3.46c1.35-1.47,2.43-2.64,3.51-3.82c1.41-1.05,2.83-2.1,4.24-3.14
		c2.28,0.32,4.57,0.63,7.13,0.99c1.04-1.46,2.2-3.09,3.36-4.72c0.31,0.18,0.62,0.36,0.93,0.54c-0.9,1.77-1.8,3.55-2.7,5.32
		c-1.3,0-2.61,0-3.91,0c0.52-0.35,1.04-0.7,1.56-1.06c0.48,1.39,0.95,2.79,1.43,4.18c-0.19,0.4-0.39,0.81-0.58,1.21
		c-0.81,1.22-1.62,2.44-2.43,3.66c-0.71-0.07-1.42-0.15-2.13-0.22c-0.41-2.19-0.82-4.38-1.14-6.1c-1.71,0.81-3.18,1.5-4.66,2.2
		c-0.21-0.14-0.41-0.27-0.61-0.41c0.12,0.22,0.25,0.43,0.37,0.65c0.36,0.99,0.72,1.99,1.08,2.98c-1.33,0.97-2.54,2.28-4.03,2.84
		c-2.55,0.96-5.27,1.46-7.92,2.15c0.6,0.98,1.33,1.92,1.76,2.98c0.21,0.52-0.13,1.26-0.22,1.9c-2.62-0.38-5.24-0.75-7.86-1.13
		c-0.6-0.78-1.09-2.05-1.83-2.23c-1.91-0.46-3.94-0.42-5.92-0.59c1.7-2.04,3.4-4.07,5.1-6.11c0.52-0.33,1.04-0.67,1.56-0.99
		C362.29,52.09,363.12,48.07,361.79,47.08z"/>
	<path class="st11" d="M410.03,136.06c-0.4-0.42-0.8-0.84-1.19-1.26c2.56-8.31,4.06-16.74,3.03-25.47
		c-1.29-7.23-2.71-14.41-7.84-20.15c-0.98-1.35-1.97-2.69-2.95-4.04c-0.41-1.24-0.82-2.48-1.23-3.72c0.43-0.05,0.86-0.1,1.29-0.15
		c3.28,5.48,6.56,10.95,9.83,16.43c0.65,0.76,1.3,1.52,1.95,2.28c-0.06,0.75-0.12,1.51-0.18,2.26c0.48,3.3,0.97,6.59,1.45,9.89
		c4.48,0.17,8.97,0.35,13.45,0.46c0.08,0,0.18-0.88,0.27-1.35c-0.01-1.94-0.02-3.88-0.03-5.83c0.27-0.68,0.54-1.37,0.81-2.05
		c0.49,3.38,0.97,6.75,1.51,10.45c-2.29,0.29-4.02,0.51-5.33,0.67c-1.95,7.8-3.84,15.36-5.73,22.92c-0.17-0.13-0.33-0.26-0.5-0.38
		c0.47-2.59,0.93-5.17,1.4-7.76l-0.06,0.04c0.14-0.04,0.27-0.09,0.41-0.13c-0.12-0.19-0.23-0.38-0.35-0.58
		c-0.44-0.36-0.87-0.72-1.31-1.08c0.11-0.14,0.23-0.29,0.35-0.43c0.53-0.21,1.07-0.42,1.6-0.63c0.53-3.6,1.06-7.19,1.61-10.85
		c-7.33-0.53-7.37-0.49-7.23,6.59c-0.63,1.82-1.25,3.63-1.88,5.45C412.13,130.44,411.08,133.25,410.03,136.06z"/>
	<path class="st12" d="M361.79,47.08c1.33,1,0.5,5.01-1.26,6.1c-0.53,0.33-1.04,0.66-1.56,1c-2.81-0.82-5.61-1.65-8.42-2.47
		c0.31,0.59,0.62,1.19,0.93,1.78c-1.19,2.29-2.37,4.57-3.56,6.86c-4.05-3.97-6.56-8.78-7.56-15.15c2.75,0,5.7,0,8.53,0
		c0,1.64,0,2.99,0,4.33c2.59-0.37,5.18-0.75,7.45-1.07c0.37-2.63,0.65-4.58,0.93-6.52c0.31-0.03,0.62-0.06,0.93-0.09
		c0.25,1.47,0.49,2.94,0.74,4.42c0.35,0.31,0.71,0.63,1.06,0.94C360.59,47.16,361.19,47.12,361.79,47.08z"/>
	<path class="st11" d="M338.05,114.21c-0.98,0.02-1.95,0.03-2.93,0.05c0.95-4.21,1.9-8.43,2.99-13.27c-1.84,0.65-2.76,0.97-3.67,1.3
		c-2.49-0.52-4.98-1.04-7.46-1.56c-0.66-1.02-1.33-2.03-1.99-3.05c-0.39,0.04-0.78,0.07-1.17,0.11c-0.6,5.44-1.21,10.87-1.81,16.31
		c-0.48-0.65-1.44-1.37-1.37-1.95c0.66-5.41,1.49-10.79,2.28-16.18c0.53,0.39,1.05,0.78,1.58,1.18c2.5-1.96,5-3.92,7.5-5.88
		l0.37,0.27c-0.48,1.56-0.96,3.12-1.82,5.92c3.17,0,5.82,0,8.48,0c1.14-3.08,2.28-6.15,3.42-9.22c1.45-0.69,2.9-1.38,4.36-2.08
		c-0.04,0.62-0.07,1.23-0.11,1.84c-0.64,1.34-1.29,2.68-1.93,4.03c-0.68,1.34-1.37,2.67-2.06,4c-1.17,3.44-2.34,6.88-3.51,10.31
		C338.8,108.96,338.42,111.58,338.05,114.21z"/>
	<path class="st13" d="M334.44,102.28c0.91-0.32,1.83-0.65,3.67-1.3c-1.09,4.85-2.04,9.06-2.99,13.27l-0.3-0.04
		c-2.31,0.32-4.62,0.64-6.93,0.97c-1.96-0.36-3.92-0.73-5.89-1.09c0.6-5.44,1.21-10.87,1.81-16.31c0.39-0.04,0.78-0.07,1.17-0.11
		c0.66,1.02,1.33,2.03,1.99,3.05c-0.39,2.96-0.79,5.92-1.18,8.86c2.87-0.47,4.93-0.81,7.28-1.19
		C333.52,106.43,333.98,104.35,334.44,102.28z"/>
	<path class="st14" d="M336.8,125.14c0.16,0.7,0.33,1.41,0.49,2.11c-0.3,0.65-0.61,1.3-0.91,1.95c-1.55,0.4-3.1,0.8-4.65,1.19
		c-0.48,0.15-0.96,0.3-1.44,0.45c1.01,2.98,2.02,5.95,3.09,9.1c2.24-0.95,4.37-1.86,6.5-2.77c0.39,0.37,0.78,0.75,1.17,1.12
		c-0.35,1.17-0.69,2.33-1.03,3.5c-2.5,1.25-4.99,2.51-7.49,3.76c-1.1,0.51-2.2,1.01-3.3,1.52c-0.22,0.16-0.44,0.32-0.66,0.49
		c-4.12-4.3,0.12-5.37,2.43-6.77c-1.29-7.1-2.54-13.95-3.79-20.8c0.91,2.19,1.83,4.38,2.83,6.8
		C332.14,126.28,334.47,125.71,336.8,125.14z"/>
	<path class="st12" d="M377.93,48.27c-1.08,1.17-2.16,2.35-3.51,3.82c-0.06-1.2-0.11-2.07-0.18-3.46c-2.07,1.24-3.86,2.32-6.47,3.88
		c0.62-2.21,0.98-3.53,1.39-4.97c-1.65-0.43-3.38-0.87-5.11-1.32c2.75-1.15,4.57-2.67,2.3-5.44c1.85-1.67,3.49-3.14,5.13-4.61
		l-0.05,0.03c1.03,0.34,2.05,0.68,3.08,1.02c0.67,3.04-0.4,6.68,3.16,8.75C378.06,46.21,377.86,47.48,377.93,48.27z"/>
	<path class="st11" d="M386.98,55.26c0.81-1.22,1.62-2.45,2.43-3.66c0.14,0.15,0.31,0.24,0.51,0.28c1,0.14,2.01,0.27,3.01,0.41
		c1.38,0.32,2.75,0.64,4.12,0.96c-0.12,0.22-0.25,0.71-0.41,0.73c-1.41,0.09-2.82,0.1-4.23,0.14c0.93,1.39,1.71,3.79,2.83,3.97
		c2.26,0.36,4.71-0.5,7.08-0.85c0.59,0.03,1.18,0.06,1.77,0.09c-0.67,1.58-1.33,3.16-2.14,5.08c0.96,1.06,2.11,2.31,3.25,3.57
		c-0.13,0.16-0.27,0.32-0.4,0.48c-0.91-0.11-1.82-0.22-2.73-0.34c-0.98-0.27-1.96-0.54-2.94-0.81c-1.06-0.89-2.12-1.78-3.18-2.66
		c-1.1-1.12-2.11-2.36-3.34-3.32c-1.24-0.96-4.42-0.05-3.03-3.37c-0.88-0.24-1.77-0.47-2.65-0.71
		C386.94,55.22,386.98,55.26,386.98,55.26z"/>
	<path class="st11" d="M377.93,48.27c-0.08-0.79,0.13-2.06-0.27-2.3c-3.56-2.07-2.49-5.71-3.16-8.75c-1.03-0.34-2.05-0.68-3.08-1.02
		l0.05-0.03c0.16-0.61,0.31-1.23,0.46-1.84c2.56-0.67,5.11-1.35,7.67-2.02c0.12,3.4-0.13,7.02,4.41,7.89
		c-0.51,1.36-1.18,3.14-1.84,4.93C380.76,46.17,379.35,47.22,377.93,48.27z M378.49,36.45c-0.46-0.21-0.88-0.58-1.19-0.51
		c-0.36,0.09-0.62,0.57-0.92,0.88c0.43,0.35,0.87,0.69,1.3,1.04C377.92,37.45,378.15,37.04,378.49,36.45z"/>
	<path class="st12" d="M412.92,99.98c-0.65-0.76-1.3-1.52-1.95-2.28c2.62-0.54,5.24-1.08,8.11-1.67c-1.63-3.26-3.21-6.42-4.8-9.58
		c-0.55-1.08-1.13-2.15-1.69-3.22c0.11-0.32,0.23-0.65,0.34-0.97c2.03,2.94,4.55,5.66,5.96,8.87c1.58,3.6,3.34,5.49,7.92,3.4
		c0.69,3.22,1.29,6.03,1.89,8.84c-0.27,0.68-0.54,1.37-0.81,2.05c-1.1-2.78-2.21-5.57-3.31-8.35
		C420.69,98.03,416.81,99,412.92,99.98z"/>
	<path class="st15" d="M368.96,30.24c0-2.78,0-5.56,0-9.04c4.35,2.5,8.35,5.05,12.29-1.2c0.49,4.12,0.88,7.35,1.36,11.4
		c-1.25-1.04-1.93-1.61-2.62-2.18c-5.42-3.73-8.46-2.4-9.19,4.02c-0.67-0.03-1.33-0.07-2-0.1
		C368.86,32.18,368.91,31.21,368.96,30.24z"/>
	<path class="st3" d="M262.47,213.95c-1.89,1.09-4.01,3.3-5.61,2.97c-1.74-0.36-3-3.08-4.47-4.76c1.58-1.38,3.17-3.85,4.75-3.85
		c1.81,0,3.61,2.21,5.42,3.46C262.53,212.49,262.5,213.22,262.47,213.95z"/>
	<path class="st16" d="M394.05,157.26c3.13-1.6,6.26-3.2,9.39-4.8c-0.28-0.53,4.32,0.39,0.45,4.7c-1.92,1.39-3.84,2.77-5.76,4.15
		C396.77,159.96,395.41,158.61,394.05,157.26z"/>
	<path class="st3" d="M441.87,208.46c-1.15-1.91-3.03-3.76-3.18-5.75c-0.09-1.12,2.9-3.65,4.07-3.41c1.69,0.34,3.96,2.49,4.17,4.1
		c0.2,1.54-1.93,3.37-3.03,5.08C443.22,208.47,442.54,208.46,441.87,208.46z"/>
	<path class="st17" d="M383.2,166.13c-1.19-5.55,1.85-7.58,6.72-8.11c-1.53,1.08-3.06,2.16-4.75,3.34c0.48,1.21,0.96,2.38,1.4,3.49
		c3.74-0.86,7.22-1.67,10.71-2.47c-1.47,4.96-6.27,4.85-9.91,6.51c-1.14-0.22-2.29-0.45-3.43-0.68
		C383.69,167.52,383.45,166.82,383.2,166.13z"/>
	<path class="st3" d="M510.2,206.19c-3.03,2.19-4.75,4.4-6.31,4.29c-1.67-0.12-3.17-2.43-4.75-3.78c1.43-1.49,2.72-3.94,4.34-4.19
		C505.04,202.27,506.96,204.3,510.2,206.19z"/>
	<path class="st16" d="M336.8,125.14c-2.33,0.57-4.66,1.14-6.78,1.66c-1.01-2.41-1.92-4.6-2.83-6.8c-0.01-1.26-0.03-2.52-0.04-3.77
		c0.26-0.35,0.51-0.71,0.77-1.06l-0.03,0.02c2.31-0.32,4.62-0.64,6.93-0.97C335.48,117.86,336.14,121.5,336.8,125.14z M333.01,123.7
		c0.81-0.58,1.61-1.16,2.42-1.74c-1.27-1.9-2.54-3.8-3.8-5.7c-0.55,1.01-1.76,2.25-1.5,2.98C330.7,120.86,332,122.23,333.01,123.7z"
		/>
	<path class="st15" d="M347.92,60.34c1.19-2.29,2.37-4.57,3.56-6.86c-0.31-0.59-0.62-1.19-0.93-1.78c2.81,0.82,5.61,1.65,8.42,2.47
		c-1.7,2.04-3.4,4.07-5.1,6.11c-1.07,0.99-2.13,1.97-3.2,2.96c-0.32,0.35-0.64,0.7-0.96,1.05c-0.91,0.04-1.82,0.08-2.73,0.11
		C347.29,63.05,347.6,61.7,347.92,60.34z"/>
	<path class="st13" d="M397.28,162.39c-3.48,0.8-6.97,1.61-10.71,2.47c-0.45-1.11-0.92-2.28-1.4-3.49c1.69-1.19,3.22-2.26,4.75-3.34
		c1.38-0.26,2.75-0.51,4.13-0.77c1.36,1.35,2.72,2.71,4.08,4.06C397.85,161.67,397.57,162.03,397.28,162.39z"/>
	<path class="st11" d="M400.03,52.24c-0.15-0.67-0.65-1.56-0.39-1.96c0.79-1.22,1.86-2.24,2.15-3.82c1.6-0.58,3.21-1.17,4.98-1.81
		c0.63,0.59,1.58,1.48,2.67,2.5c-0.34,0.97-0.88,2.52-1.41,4.07C405.35,51.57,402.69,51.91,400.03,52.24z"/>
	<path class="st18" d="M346.97,64.41c0.91-0.04,1.82-0.08,2.73-0.12c-0.8,1.77-1.6,3.55-2.1,4.65c1.58,3.28,3,6.22,4.41,9.17
		c-0.51,0.38-1.03,0.76-1.54,1.14c-1.31-1.77-2.63-3.53-3.94-5.3c-1.2-1.25-2.4-2.5-3.6-3.74l0.05,0.06
		c0.05-0.92,0.11-1.84,0.16-2.76l0.07-0.1c0.6-0.39,1.2-0.78,1.8-1.16l-0.07,0.05c0.37-0.32,0.74-0.63,1.11-0.95
		C346.36,65.03,346.67,64.72,346.97,64.41z"/>
	<path class="st12" d="M370.81,33.25c0.73-6.42,3.77-7.75,9.19-4.02c-0.13,1.03-0.26,2.06-0.39,3.08c-2.56,0.67-5.11,1.35-7.67,2.02
		C371.56,33.97,371.19,33.61,370.81,33.25z"/>
	<path class="st19" d="M412.93,82.25c-0.11,0.32-0.23,0.65-0.34,0.97c-2.68-1.81-5.36-3.61-8.44-5.69c-0.85,1.06-1.93,2.4-3.01,3.75
		c-0.43,0.05-0.86,0.1-1.29,0.15l0.02-0.16c-0.03-0.93-0.07-1.87-0.1-2.8c1.41-1.75,2.82-3.5,4.22-5.26
		c0.7,0.04,1.39,0.08,2.09,0.12c0.16,0.1,0.27,0.23,0.34,0.4c0.24,0.47,0.49,0.93,0.73,1.4l-0.02-0.05c0.3,0.38,0.59,0.76,0.89,1.14
		l-0.03-0.03c0.33,0.36,0.65,0.72,0.98,1.07l-0.03-0.03c0.33,0.36,0.65,0.71,0.98,1.07l-0.02-0.03c0.3,0.37,0.6,0.73,0.9,1.1l0,0
		c0.41,0.62,0.82,1.23,1.23,1.84L412,81.17c0.32,0.36,0.64,0.73,0.96,1.09L412.93,82.25z"/>
	<path class="st20" d="M368.96,30.24c-0.05,0.97-0.1,1.94-0.15,2.91c-4.77,2.1-9.54,4.2-15.74,6.92
		C358.48,35.23,362.53,30.97,368.96,30.24z"/>
	<path class="st12" d="M365.68,169.57c0.48-0.07,0.95-0.15,1.43-0.22c-0.02,1.57-0.03,3.14-0.05,4.71c1.42,0.48,2.83,1.35,4.25,1.37
		c3.91,0.04,7.82-0.27,11.72-0.45c0.07,0.18,0.05,0.35-0.07,0.5c-5.65,0.6-11.31,1.2-17.29,1.84
		C365.68,173.74,365.68,171.65,365.68,169.57z"/>
	<path class="st20" d="M400.03,52.24c2.66-0.34,5.33-0.68,7.99-1.01c2.66,3.94-1.77,3.51-3.08,5c-0.32,0.36-0.63,0.71-0.95,1.07
		h0.11c-0.59-0.03-1.18-0.06-1.77-0.09c-0.95-0.06-1.9-0.12-2.86-0.18C399.67,55.33,399.85,53.79,400.03,52.24z"/>
	<path class="st10" d="M384.87,31.18c5.3,1.72,9.4,5.24,12.56,10.19c-4.48-2.85-8.97-5.71-13.45-8.56
		C384.28,32.27,384.58,31.72,384.87,31.18z"/>
	<path class="st20" d="M342.94,70.21c1.2,1.25,2.4,2.5,3.59,3.73c-0.85,0.96-1.68,1.93-2.52,2.9c-1.68,1.82-3.36,3.63-5.04,5.45
		c-0.34-0.06-0.68-0.11-1.01-0.17c1.18-2.07,2.54-4.06,3.48-6.24C342.19,74.11,342.45,72.11,342.94,70.21z"/>
	<path class="st12" d="M422.94,145.2c-1.8,2.86-3.61,5.73-5.41,8.59c-0.25-0.23-0.5-0.46-0.75-0.69c1.46-2.52,2.92-5.04,4.38-7.56
		c0.3-0.11,0.56-0.27,0.79-0.48C422.28,145.13,422.61,145.17,422.94,145.2z"/>
	<path class="st12" d="M383.2,166.13c0.25,0.7,0.49,1.39,0.74,2.09c0.4,0.44,0.79,0.88,1.19,1.31c-0.37,1.92-0.75,3.85-1.12,5.77
		c-0.26-1.04-0.52-2.09-0.78-3.13c-0.31-1.93-0.63-3.87-0.94-5.8C382.61,166.34,382.91,166.26,383.2,166.13z"/>
	<path class="st9" d="M422.94,145.2c-0.33-0.02-0.66-0.07-0.98-0.14c-1.04-0.88-2.08-1.76-3.12-2.64c0.04-0.41,0.09-0.83,0.13-1.24
		C420.49,142.32,424.15,141.35,422.94,145.2z"/>
	<path class="st11" d="M331.98,91.25c1-1.67,1.99-3.35,2.99-5.02l0.13,0.11c-0.13,0.56-0.25,1.13-0.38,1.69
		c-0.79,1.16-1.59,2.33-2.38,3.49L331.98,91.25z"/>
	<path class="st11" d="M418.97,141.17c-0.04,0.41-0.09,0.83-0.13,1.24c-0.91-0.4-1.82-0.8-2.74-1.2c0.51-0.64,1.02-1.28,1.53-1.92
		c0.34-0.76,0.68-1.52,1.03-2.28c0.17,0.12,0.34,0.25,0.5,0.38C419.09,138.66,419.03,139.91,418.97,141.17z"/>
	<path class="st12" d="M417.53,153.79c-1.02,1.32-2.04,2.64-3.06,3.95c-0.24-0.24-0.48-0.48-0.72-0.72
		c1.01-1.31,2.02-2.62,3.03-3.93C417.03,153.33,417.28,153.56,417.53,153.79z"/>
	<path class="st12" d="M389.98,50.39c-0.48-1.39-0.95-2.79-1.43-4.18c-0.52,0.35-1.04,0.7-1.56,1.06c1.3,0,2.61,0,3.91,0
		C390.59,48.3,390.29,49.34,389.98,50.39z"/>
	<path class="st9" d="M343.54,157.08c-0.55-0.29-1.11-0.58-1.66-0.87c-0.04-0.41-0.08-0.82-0.11-1.22c0.97-0.9,1.94-1.81,3.61-3.38
		c-0.69,2.27-1.05,3.45-1.41,4.63C343.77,156.48,343.62,156.77,343.54,157.08z"/>
	<path class="st9" d="M352.1,163.18c-1.34-0.99-2.68-1.98-4.03-2.97l-0.06-0.03c1.33,0.99,2.66,1.99,3.99,2.98L352.1,163.18z"/>
	<path class="st11" d="M334.97,86.24c0.66-0.92,1.31-1.85,1.97-2.77c0.4,0.3,0.79,0.6,1.18,0.9c-0.06,0.36-0.12,0.71-0.17,1.06
		c-0.95,0.3-1.9,0.61-2.85,0.92L334.97,86.24z"/>
	<path class="st12" d="M414.47,157.74c-1.39,2.47-2.77,2.02-4.15-0.01c0.25-0.16,0.49-0.35,0.69-0.57c0.62,0,1.24,0,1.87,0
		c0.29-0.04,0.58-0.09,0.87-0.14C413.99,157.26,414.23,157.5,414.47,157.74z"/>
	<path class="st11" d="M406.08,73.33c-0.7-0.04-1.39-0.08-2.09-0.12c0.15-0.51,0.3-1.03,0.45-1.54c0.51-0.52,1.02-1.03,1.53-1.55
		c0.26-0.01,0.52-0.06,0.76-0.15l0.27,0.31C406.69,71.3,406.39,72.31,406.08,73.33z"/>
	<path class="st11" d="M405.2,65.96c0.94,0.74,1.88,1.48,2.82,2.22c-0.17,0.18-0.34,0.35-0.51,0.53c-0.49-0.19-0.99-0.38-1.48-0.56
		c-0.41-0.57-0.82-1.14-1.23-1.71C404.94,66.27,405.07,66.11,405.2,65.96z"/>
	<path class="st20" d="M343.15,67.51c-0.05,0.92-0.11,1.84-0.16,2.76C341.14,69.24,340.78,68.29,343.15,67.51z"/>
	<path class="st17" d="M338.13,84.36c-0.39-0.3-0.79-0.6-1.18-0.9c0.33-0.45,0.67-0.89,1.01-1.34c0.34,0.06,0.68,0.11,1.01,0.17
		c0.04,0.28,0.04,0.56,0.01,0.85C338.69,83.54,338.41,83.95,338.13,84.36z"/>
	<path class="st14" d="M339.18,158.47c-0.85,0.04-1.69,0.07-2.54,0.11c0.16-0.18,0.31-0.36,0.47-0.54c0.55-0.03,1.09-0.06,1.64-0.08
		C338.88,158.13,339.03,158.3,339.18,158.47z"/>
	<path class="st10" d="M392.93,52.28c-1-0.14-2.01-0.28-3.01-0.41C390.93,52.01,391.93,52.15,392.93,52.28z"/>
	<path class="st9" d="M383.23,172.17c0.26,1.04,0.52,2.09,0.78,3.13c-0.35,0.06-0.69,0.12-1.04,0.18c0.12-0.16,0.14-0.32,0.07-0.5
		C383.1,174.04,383.17,173.1,383.23,172.17z"/>
	<path class="st9" d="M385.13,169.53c-0.4-0.44-0.79-0.88-1.19-1.31c1.14,0.23,2.29,0.45,3.43,0.68
		C386.63,169.1,385.88,169.32,385.13,169.53z"/>
	<path class="st9" d="M348.07,160.21c-0.71-0.65-1.41-1.3-2.12-1.96l0.05-0.05c0.67,0.66,1.34,1.31,2.01,1.97L348.07,160.21z"/>
	<path class="st12" d="M408.05,156.27c0.07-0.65,0.14-1.3,0.2-1.95c0.59,0.62,1.18,1.24,1.77,1.86c-0.22,0.22-0.41,0.47-0.55,0.75
		C409,156.71,408.53,156.49,408.05,156.27z"/>
	<path class="st14" d="M329.76,149.43c-0.4-0.62-0.81-1.25-1.21-1.87c0.22-0.16,0.44-0.33,0.66-0.49c0.38,0.63,0.76,1.25,1.14,1.87
		C330.15,149.11,329.95,149.27,329.76,149.43z"/>
	<path class="st14" d="M332.63,153.55c-0.38-0.64-0.76-1.27-1.14-1.91c0.18-0.12,0.34-0.26,0.49-0.42c0.39,0.63,0.77,1.25,1.16,1.88
		C332.98,153.24,332.8,153.39,332.63,153.55z"/>
	<path class="st20" d="M345.02,66.25c-0.6,0.39-1.2,0.77-1.8,1.16C343.82,67.02,344.42,66.63,345.02,66.25z"/>
	<path class="st12" d="M412.03,81.22c-0.41-0.61-0.82-1.23-1.23-1.84C411.2,79.99,411.61,80.61,412.03,81.22z"/>
	<path class="st14" d="M334.74,156.45c-0.4-0.61-0.8-1.21-1.2-1.82c0.16-0.14,0.32-0.28,0.47-0.43c0.42,0.6,0.85,1.19,1.27,1.79
		C335.1,156.14,334.92,156.29,334.74,156.45z"/>
	<path class="st14" d="M341.76,154.98c0.04,0.41,0.08,0.82,0.12,1.23c-0.15,0.22-0.36,0.33-0.62,0.33
		c-0.16-0.15-0.32-0.31-0.47-0.47C341.11,155.7,341.44,155.34,341.76,154.98z"/>
	<path class="st14" d="M335.68,157.51c-0.31-0.35-0.63-0.71-0.94-1.06c0.18-0.16,0.36-0.31,0.54-0.46c0.3,0.35,0.59,0.7,0.89,1.05
		C336.01,157.2,335.84,157.36,335.68,157.51z"/>
	<path class="st14" d="M341.26,156.53c-0.34,0.33-0.68,0.65-1.03,0.98c-0.15-0.15-0.3-0.3-0.45-0.45c0.34-0.33,0.67-0.66,1.01-0.99
		C340.94,156.22,341.1,156.38,341.26,156.53z"/>
	<path class="st9" d="M344.53,157.68c-0.33-0.2-0.66-0.41-0.99-0.61c0.09-0.31,0.23-0.59,0.43-0.84c0.34,0.32,0.68,0.65,1.03,0.97
		C344.84,157.36,344.68,157.52,344.53,157.68z"/>
	<path class="st12" d="M410.33,157.73c-0.28-0.27-0.57-0.54-0.85-0.81c0.14-0.27,0.33-0.52,0.55-0.75c0.33,0.33,0.67,0.66,1,0.99
		C410.81,157.39,410.58,157.57,410.33,157.73z"/>
	<path class="st14" d="M336.64,158.58c-0.32-0.36-0.64-0.71-0.96-1.07c0.16-0.16,0.32-0.31,0.48-0.47c0.31,0.33,0.63,0.66,0.94,1
		C336.95,158.22,336.8,158.4,336.64,158.58z"/>
	<path class="st14" d="M340.23,157.51c-0.35,0.32-0.7,0.64-1.05,0.96c-0.15-0.17-0.3-0.34-0.44-0.51c0.35-0.3,0.69-0.6,1.04-0.9
		C339.93,157.21,340.08,157.36,340.23,157.51z"/>
	<path class="st9" d="M345.95,158.25c-0.47-0.19-0.94-0.38-1.42-0.57c0.15-0.16,0.3-0.32,0.46-0.48c0.34,0.33,0.67,0.66,1.01,1
		L345.95,158.25z"/>
	<path class="st12" d="M409.92,78.3c-0.33-0.36-0.65-0.71-0.98-1.07C409.26,77.59,409.59,77.94,409.92,78.3z"/>
	<path class="st12" d="M410.8,79.38c-0.3-0.37-0.6-0.73-0.9-1.1C410.2,78.64,410.5,79.01,410.8,79.38z"/>
	<path class="st12" d="M408.97,77.26c-0.33-0.36-0.65-0.72-0.98-1.07C408.31,76.55,408.64,76.9,408.97,77.26z"/>
	<path class="st12" d="M408.01,76.22c-0.3-0.38-0.59-0.76-0.89-1.14C407.42,75.46,407.72,75.84,408.01,76.22z"/>
	<path class="st13" d="M327.91,115.16c-0.26,0.35-0.51,0.71-0.77,1.06C327.4,115.87,327.66,115.52,327.91,115.16z"/>
	<path class="st12" d="M412.96,82.27c-0.32-0.36-0.64-0.73-0.96-1.09C412.31,81.54,412.63,81.91,412.96,82.27z"/>
	<path class="st14" d="M333.54,154.63c-0.3-0.36-0.6-0.72-0.91-1.08c0.17-0.15,0.34-0.3,0.52-0.45c0.29,0.37,0.57,0.73,0.86,1.1
		C333.86,154.35,333.7,154.49,333.54,154.63z"/>
	<path class="st12" d="M407.15,75.13c-0.24-0.47-0.49-0.93-0.73-1.4C406.66,74.19,406.91,74.66,407.15,75.13z"/>
	<path class="st10" d="M360,47.2c-0.35-0.31-0.71-0.63-1.06-0.94C359.29,46.57,359.64,46.89,360,47.2z"/>
	<path class="st20" d="M346.06,65.34c-0.37,0.32-0.74,0.63-1.11,0.95C345.32,65.98,345.69,65.66,346.06,65.34z"/>
	<path class="st14" d="M331.5,151.64c-0.3-0.35-0.59-0.7-0.89-1.05c0.16-0.15,0.32-0.31,0.48-0.46c0.3,0.36,0.6,0.73,0.9,1.09
		C331.84,151.37,331.68,151.51,331.5,151.64z"/>
	<path class="st14" d="M330.61,150.58c-0.28-0.38-0.57-0.77-0.85-1.15c0.19-0.16,0.39-0.33,0.59-0.48c0.25,0.39,0.49,0.78,0.74,1.17
		C330.93,150.28,330.77,150.43,330.61,150.58z"/>
	<path class="st11" d="M408.02,68.18c-0.02,0.35-0.05,0.7-0.07,1.05c-0.15-0.12-0.29-0.23-0.44-0.35l-0.01-0.17
		C407.68,68.53,407.85,68.36,408.02,68.18z"/>
	<path class="st11" d="M407.95,69.23c-0.32,0.35-0.63,0.7-0.95,1.05l-0.27-0.31c0.26-0.36,0.52-0.73,0.78-1.09
		C407.66,69,407.8,69.11,407.95,69.23z"/>
	<path class="st11" d="M403.99,57.31c0.32-0.36,0.63-0.71,0.95-1.07C404.62,56.59,404.3,56.95,403.99,57.31z"/>
	<path class="st21" d="M540.51,256.23c-4.31,14.27-8.55,28.55-17.65,40.56c-0.53-0.08-1.06-0.17-1.59-0.25
		c-0.39-1.12-1.24-2.31-1.09-3.36C522.29,278.32,529.69,266.33,540.51,256.23z"/>
	<path class="st0" d="M544.72,240.76c-0.05,0.1-0.1,0.19-0.15,0.29c-0.13-0.11-0.26-0.22-0.38-0.32c0.1-0.09,0.19-0.19,0.29-0.28
		C544.56,240.55,544.64,240.65,544.72,240.76z"/>
	<path class="st0" d="M272.96,240.3c-0.07,0.51-0.15,1.01-0.22,1.52c-0.17-0.01-0.33-0.03-0.5-0.04c0.02-0.51,0.05-1.03,0.07-1.54
		C272.53,240.25,272.75,240.27,272.96,240.3z"/>
	<path class="st15" d="M22.1,122.89c5.35-0.24,9.31,0.71,11.35,5.44c2.06,4.78,1.21,12.76-2.32,15.33c-2.05,1.49-5.1,1.6-7.7,2.33
		c-0.44-1.96-1.21-3.92-1.27-5.89C21.99,134.5,22.1,128.9,22.1,122.89z"/>
	<path class="st21" d="M22.14,116.9c0-6.41-0.16-12.89,0.05-19.35c0.15-4.69,3.43-3.58,6.07-2.58c4.78,1.81,7.17,8.62,5.53,15.11
		C32.42,115.51,28.74,117.76,22.14,116.9z"/>
	<path class="st21" d="M693.98,117.71c0-6.77-0.14-13.58,0.16-20.37c0.04-0.99,2.13-2.06,3.45-2.75c0.52-0.27,1.58,0.33,2.33,0.67
		c4.12,1.88,6.39,9.41,4.73,15.6C703.22,116.14,700.25,118.12,693.98,117.71z"/>
	<path class="st15" d="M187.92,123.16c6.83-0.66,10.58,1.96,11.74,8.2c1.24,6.69-1.63,12.96-6.69,14.43
		c-3.38,0.98-5.85,0.83-5.63-3.89c0.28-5.95,0.1-11.93,0.14-17.89C187.49,123.73,187.77,123.45,187.92,123.16z"/>
	<path class="st15" d="M187.42,116.99c0-6.51-0.15-13.1,0.15-19.66c0.05-1.08,2-2.39,3.34-2.97c0.82-0.36,2.25,0.3,3.25,0.8
		c4.53,2.27,6.57,8.99,4.78,15.41C197.51,115.67,194.04,117.71,187.42,116.99z"/>
	<path class="st15" d="M399.58,231.91c-3.66,5.64-7.32,11.29-11.67,18C386.85,242.61,392.88,233.29,399.58,231.91z"/>
	<path class="st15" d="M374.46,233.93c-3.1,2.92-6.2,5.84-9.3,8.76c-0.95-0.97-1.9-1.93-2.85-2.9c3.11-2.91,6.21-5.83,9.32-8.74
		C372.57,232.01,373.52,232.97,374.46,233.93z"/>
	<path class="st21" d="M86.45,117.13c-1.24-0.31-2.47-0.62-5.35-1.34c1.41,2.89,1.84,5.63,3.28,6.35c3.18,1.6,3.31,3.92,2.67,6.54
		c-1.2,4.96-2.06,10.15-4.22,14.69c-2.45,5.15-7.21,5-9.79-0.13c-1.75-3.48-3.26-7.52-3.31-11.33c-0.13-9.57,0.54-19.15,1.11-28.72
		c0.1-1.73,1.03-3.5,1.91-5.08c2.99-5.4,8.01-5.71,10.46-0.05c2.49,5.76,3.43,12.19,5.05,18.32
		C87.65,116.64,87.05,116.89,86.45,117.13z"/>
	<path class="st15" d="M236.45,108.91c1.75,6.98,3.49,13.97,5.36,21.44c-4.29,0-8.28,0-12.7,0c2.11-7.18,4.2-14.27,6.28-21.37
		C235.74,108.95,236.1,108.93,236.45,108.91z"/>
	<path class="st21" d="M544.18,94.9c6.01-0.5,9.3,2.96,9.81,10.16c0.62,8.75-2.55,13.4-9.81,13.89
		C544.18,110.92,544.18,102.9,544.18,94.9z"/>
	<path class="st15" d="M504.14,109.61c1.59,6.99,3.17,13.98,4.82,21.27c-3.78,0-7.21,0-11.11,0c1.84-7.16,3.64-14.14,5.43-21.13
		C503.57,109.7,503.86,109.65,504.14,109.61z"/>
	<path class="st15" d="M582.43,119.93c0-8.46-0.13-15.71,0.17-22.95c0.03-0.86,2.72-2.58,3.51-2.26c1.85,0.75,3.75,2.21,4.83,3.89
		c3.33,5.19,2.71,14.59-1.3,18.15C587.98,118.21,585.43,118.65,582.43,119.93z"/>
	<path class="st0" d="M269.67,115.76c0,0.4,0,0.8,0.01,1.19c-0.35-0.12-0.7-0.25-1.06-0.37
		C268.97,116.31,269.32,116.03,269.67,115.76z"/>
	<path class="st21" d="M208.6,243.64c4.51,5.76,7.11,11.64,4.51,18.33c-2.66,6.85-8.72,9.24-15.59,9.6
		c-6.37,0.34-8.13-2.31-5.65-8.33C195.2,255.14,201.25,249.31,208.6,243.64z"/>
	<path class="st19" d="M331.09,150.12c-0.25-0.39-0.5-0.78-0.74-1.17c-0.38-0.63-0.76-1.25-1.13-1.88c1.1-0.51,2.2-1.01,3.31-1.52
		c1.7,2.55,3.39,5.1,5.06,7.6c7.3-4.07,7.3-4.08,3.28-10.15c-0.27-0.41-0.57-0.81-0.85-1.21c0.34-1.17,0.69-2.33,1.03-3.5
		c3.9,5.04,7.8,10.08,11.7,15.12c-1.78-0.02-3.56-0.04-5.33-0.06c0.88,1.52,1.59,3.18,2.7,4.51c0.67,0.8,1.97,1.09,2.99,1.6
		c-0.36,1.23-0.72,2.46-1.09,3.69c-1.33-0.99-2.66-1.99-4-2.98c-0.67-0.66-1.34-1.31-2.01-1.97c-0.34-0.33-0.67-0.66-1.01-1
		c-0.34-0.32-0.68-0.65-1.03-0.97c0.36-1.18,0.72-2.36,1.41-4.63c-1.67,1.57-2.64,2.47-3.61,3.38c-0.33,0.36-0.65,0.72-0.98,1.08
		c-0.34,0.33-0.67,0.66-1.01,0.99c-0.35,0.3-0.69,0.6-1.04,0.9c-0.55,0.03-1.09,0.06-1.64,0.08c-0.31-0.33-0.63-0.66-0.94-1
		c-0.3-0.35-0.59-0.7-0.89-1.05c-0.42-0.6-0.84-1.2-1.27-1.79c-0.29-0.37-0.57-0.73-0.86-1.1c-0.39-0.63-0.77-1.25-1.16-1.88
		C331.69,150.85,331.39,150.49,331.09,150.12z"/>
	<path class="st16" d="M411.02,157.17c-0.33-0.33-0.67-0.66-1-0.99c-0.59-0.62-1.18-1.24-1.77-1.86c-1.72-1.98-3.45-3.96-4.93-5.66
		c2.05-3.27,3.93-6.27,6.06-9.68c1.1,0.06,2.86,0.16,4.61,0.26l-0.03-0.03c0.71,0.67,1.42,1.34,2.13,2.01
		c0.91,0.4,1.83,0.8,2.74,1.2c1.04,0.88,2.08,1.76,3.12,2.64c-0.23,0.21-0.5,0.37-0.8,0.48c-4.83,0.59-9.11,6.6-8.28,11.63
		C412.26,157.16,411.64,157.17,411.02,157.17z"/>
	<path class="st22" d="M338.05,114.21c0.38-2.63,0.75-5.25,1.13-7.88c0.45,0,0.91,0,1.37,0c0.18,6.3,0.36,12.6,0.53,18.9
		c1.61,4.35,3.21,8.69,4.82,13.04c0.54,0.91,1.08,1.82,1.62,2.73c1.2,1.75,2.39,3.5,3.59,5.25c-0.38,0.34-0.76,0.68-1.14,1.01
		C341.52,137.85,338.17,126.61,338.05,114.21z"/>
	<path class="st17" d="M372.05,157.27c-2.35-0.38-4.71-0.76-7.06-1.13c-3-1.65-6.01-3.3-9.01-4.95l0.03,0.02
		c0.16-0.3,0.18-0.61,0.06-0.93c1.11-0.63,2.52-1.03,3.27-1.95c1.84-2.26,3.54-2.04,6.06-1.01c3.79,1.55,3.73,4.07,2.43,7.51
		c2.59,0.82,4.89,1.54,7.18,2.27C374.03,157.16,373.04,157.21,372.05,157.27z"/>
	<path class="st23" d="M383.23,172.17c-0.06,0.93-0.13,1.87-0.19,2.8c-3.91,0.17-7.82,0.49-11.72,0.45
		c-1.42-0.02-2.84-0.89-4.25-1.36c0.98-0.27,1.96-0.54,2.94-0.81c3.4,0,6.79,0,10.19,0c-0.68-3.61-1.24-6.63-1.84-9.84
		c-2.35,0-4.49,0-6.62,0c-0.38-0.72-0.76-1.44-1.14-2.16c1.78-0.02,3.58,0.08,5.34-0.1c3.94-0.4,6.24,1.05,6.36,5.23
		C382.6,168.3,382.92,170.24,383.23,172.17z"/>
	<path class="st17" d="M418.65,137.02c-0.34,0.76-0.68,1.52-1.02,2.28c-1.22-0.03-2.44-0.06-3.66-0.09l0.03,0.03
		c-1.32-1.06-2.64-2.12-3.96-3.17c1.05-2.81,2.1-5.62,3.15-8.43c1.74,2.84,4.06,3.25,6.87,1.62
		C419.58,131.84,419.12,134.43,418.65,137.02z"/>
	<path class="st24" d="M364.89,167.19c-2.93-1.18-5.86-2.35-8.77-3.52c2.37-6.54,3.89-6.8,10.04-2.31
		C365.74,163.3,365.31,165.25,364.89,167.19z"/>
	<path class="st10" d="M411.86,109.32c1.04,8.74-0.47,17.17-3.03,25.47c-1.08,1.71-2.17,3.42-3.25,5.12
		c-0.31-0.32-0.62-0.64-0.92-0.96c0.09-0.57,0.17-1.13,0.26-1.7l0.04-0.07c0.32-0.72,0.64-1.43,0.96-2.15
		c0.36-0.86,0.71-1.71,1.07-2.57c0.29-0.8,0.57-1.59,0.86-2.39c0.19-0.15,0.24-0.34,0.15-0.57c0.83-4.07,1.66-8.14,2.48-12.22
		c-0.09-1.03-0.18-2.05-0.27-3.08C410.77,112.59,411.32,110.96,411.86,109.32z"/>
	<path class="st25" d="M370,173.24c-0.98,0.27-1.96,0.54-2.94,0.81c0.02-1.57,0.03-3.14,0.05-4.71l-0.09-0.03
		c0.61-2.64,1.22-5.27,1.84-7.91c0.58-0.05,1.15-0.11,1.72-0.16c0.38,0.72,0.76,1.44,1.14,2.16
		C371.15,166.68,370.58,169.96,370,173.24z"/>
	<path class="st13" d="M336.38,129.2c0.3-0.65,0.61-1.3,0.91-1.95c0.86,3.31,1.72,6.62,2.58,9.92c-2.13,0.91-4.26,1.82-6.5,2.77
		c-1.07-3.15-2.08-6.13-3.09-9.1c0.48-0.15,0.96-0.3,1.44-0.45c0.81,2.14,1.62,4.27,2.44,6.45
		C340.86,135.58,335.83,131.71,336.38,129.2z"/>
	<path class="st22" d="M372.05,157.27c0.99-0.06,1.98-0.12,2.97-0.18c1.86-0.13,4.49,1.07,4.33-2.52c3.52,3.19,6.64,0.13,9.9-0.64
		c0.23,0.42,0.45,0.84,0.68,1.26c-4.23,1.32-8.4,2.91-12.71,3.8C375.68,159.31,373.78,157.9,372.05,157.27z"/>
	<path class="st26" d="M353.09,159.47c-1.02-0.52-2.32-0.8-2.99-1.6c-1.11-1.33-1.82-2.99-2.7-4.51c1.78,0.02,3.56,0.04,5.33,0.06
		l0.17-0.02c0.33,0.29,0.66,0.58,0.98,0.87l0.04,0.04c0.35,0.67,0.71,1.34,1.06,2.01C354.36,157.37,353.72,158.42,353.09,159.47z"/>
	<path class="st20" d="M403.04,144.28c-2.27,2.07-4.55,4.15-6.82,6.22c-0.25-0.25-0.49-0.5-0.73-0.75c1.01-1.16,2.03-2.32,3.04-3.48
		c1.1-1.03,2.19-2.07,3.29-3.1C402.22,143.54,402.63,143.91,403.04,144.28z"/>
	<path class="st12" d="M368.86,161.4c-0.61,2.64-1.23,5.27-1.84,7.91c-0.71-0.71-1.42-1.41-2.13-2.12c0.42-1.94,0.85-3.89,1.27-5.83
		C367.06,161.38,367.96,161.39,368.86,161.4z"/>
	<path class="st20" d="M355.98,151.19c3,1.65,6.01,3.3,9.01,4.95C361.99,154.49,358.98,152.84,355.98,151.19z"/>
	<path class="st10" d="M403.04,144.28c-0.41-0.37-0.82-0.75-1.23-1.12c0.7-1.32,1.4-2.64,2.1-3.97c0.25-0.09,0.5-0.17,0.75-0.24
		c0.31,0.32,0.61,0.64,0.92,0.96C404.74,141.38,403.89,142.83,403.04,144.28z"/>
	<path class="st20" d="M349.97,147.25c0.38-0.34,0.76-0.68,1.13-1.02c1.28,1.03,2.57,2.07,3.85,3.1c0,0.27,0.04,0.52,0.12,0.78
		c-0.17,0.17-0.34,0.34-0.51,0.51C353.04,149.5,351.51,148.37,349.97,147.25z"/>
	<path class="st20" d="M396.21,150.5c-1.32,1.02-2.63,2.04-3.95,3.06c-0.29-0.31-0.57-0.61-0.86-0.92c0.46-0.47,0.92-0.94,1.39-1.41
		c0.9-0.49,1.79-0.99,2.69-1.48C395.72,150,395.97,150.25,396.21,150.5z"/>
	<path class="st20" d="M389.93,155.2c-0.23-0.42-0.45-0.84-0.68-1.26c0.72-0.43,1.44-0.87,2.16-1.3c0.29,0.31,0.57,0.61,0.86,0.92
		C391.48,154.11,390.71,154.65,389.93,155.2z"/>
	<path class="st19" d="M354.99,156.31c-0.35-0.67-0.71-1.34-1.06-2.01C354.28,154.98,354.64,155.64,354.99,156.31z"/>
	<path class="st19" d="M353.89,154.26c-0.33-0.29-0.66-0.58-0.98-0.87C353.23,153.69,353.56,153.97,353.89,154.26z"/>
	<path class="st20" d="M356.07,150.28c0.12,0.32,0.1,0.63-0.06,0.93c-0.48-0.2-0.95-0.4-1.43-0.59c0.16-0.17,0.33-0.34,0.5-0.51
		C355.41,150.18,355.74,150.24,356.07,150.28z"/>
	<path class="st22" d="M369.47,64.23c0.09-0.64,0.43-1.38,0.22-1.9c-0.43-1.06-1.16-1.99-1.76-2.98c4.36-0.06,8.72-0.11,13.08-0.17
		c-0.35,3.03-0.7,6.06-1.06,9.09c-1.98,0.02-3.95,0.05-5.93,0.07c-0.67,0.32-1.35,0.64-2.02,0.96c-1.35-1.03-2.71-2.06-4.06-3.09
		C368.45,65.56,368.96,64.9,369.47,64.23z"/>
	<path class="st9" d="M350.66,63.24c1.07-0.99,2.14-1.97,3.2-2.96c1.98,0.16,4.01,0.13,5.92,0.59c0.75,0.18,1.23,1.45,1.84,2.23
		c-1.05,0.79-2.1,1.57-3.14,2.35c0.13,0.4,0.27,0.8,0.4,1.2c2.41,0.2,4.82,0.4,7.23,0.6c-2.12,1.28-4.23,2.57-6.35,3.85
		c-1.65,0.48-3.31,0.96-4.96,1.44C353.41,69.44,352.03,66.34,350.66,63.24z"/>
	<path class="st11" d="M381.01,59.19c-4.36,0.06-8.72,0.11-13.08,0.17c2.65-0.69,5.38-1.19,7.92-2.15c1.49-0.56,2.7-1.87,4.03-2.85
		c1.65,0.23,3.31,0.45,4.96,0.68c0.71,0.07,1.42,0.15,2.13,0.22l-0.03-0.03c-0.99,0.66-2.07,1.21-2.93,2.01
		c-0.52,0.48-0.7,1.33-1.03,2.02C382.33,59.23,381.67,59.21,381.01,59.19z"/>
	<path class="st11" d="M366.09,67.26c-2.41-0.2-4.82-0.4-7.23-0.6c-0.13-0.4-0.27-0.8-0.4-1.2c1.05-0.78,2.1-1.57,3.14-2.35
		c2.62,0.38,5.23,0.75,7.85,1.13c-0.51,0.67-1.02,1.33-1.53,2C367.32,66.57,366.71,66.91,366.09,67.26z"/>
	<path class="st21" d="M384.84,55.04c-1.65-0.23-3.31-0.45-4.96-0.68c-0.36-0.99-0.72-1.99-1.08-2.98l0.24-0.24
		c1.47-0.7,2.94-1.39,4.66-2.2C384.03,50.66,384.43,52.85,384.84,55.04z"/>
	<path class="st21" d="M378.81,51.38c-0.12-0.22-0.25-0.43-0.37-0.65c0.2,0.14,0.41,0.27,0.61,0.41L378.81,51.38z"/>
	<path class="st17" d="M401.14,81.28c1.08-1.34,2.16-2.69,3.01-3.75c3.08,2.08,5.76,3.89,8.44,5.69c0.56,1.07,1.15,2.14,1.69,3.22
		c1.59,3.16,3.17,6.32,4.8,9.58c-2.87,0.59-5.49,1.13-8.11,1.67C407.69,92.23,404.42,86.75,401.14,81.28z M409.73,88.3
		c0.19-0.69,0.39-1.39,0.54-2.09c0.01-0.03-0.52-0.16-0.8-0.25c-0.11,0.86-0.23,1.71-0.34,2.57
		C409.33,88.45,409.53,88.37,409.73,88.3z"/>
	<path class="st16" d="M427.92,111.23c-0.09,0.47-0.19,1.36-0.27,1.35c-4.49-0.1-8.97-0.28-13.45-0.45c5.6-1.97,1.8-5.81,1.77-8.9
		c2.65-1.03,5.3-2.06,7.95-3.09c0.37,1.21,0.69,2.44,1.13,3.62C425.97,106.26,426.96,108.74,427.92,111.23z"/>
	<path class="st17" d="M415.06,122.19c-0.14-7.08-0.1-7.12,7.23-6.59c-0.54,3.65-1.07,7.25-1.6,10.85
		C418.81,125.02,416.94,123.61,415.06,122.19z"/>
	<path class="st20" d="M411.86,109.32c-0.55,1.63-1.1,3.27-1.65,4.9c-0.71-1.04-1.41-2.09-2.12-3.13c0.24-0.92,0.47-1.84,0.71-2.75
		c-1.32-5.09-2.65-10.18-3.97-15.27c-0.5-1.08-1-2.15-1.5-3.23c0.23-0.22,0.46-0.45,0.69-0.67
		C409.15,94.91,410.58,102.09,411.86,109.32z"/>
	<path class="st18" d="M423.91,100.14c-2.65,1.03-5.3,2.06-7.95,3.09c-1.07-0.33-2.14-0.66-3.21-0.99c0.06-0.75,0.12-1.5,0.18-2.26
		c3.89-0.98,7.77-1.95,11.66-2.93c0.1,0.29,0.2,0.58,0.3,0.88c-0.25,0.46-0.51,0.92-0.76,1.38
		C423.96,99.57,423.89,99.84,423.91,100.14z"/>
	<path class="st23" d="M415.06,122.19c1.88,1.42,3.75,2.83,5.63,4.25c-0.54,0.21-1.07,0.43-1.6,0.64c-1.01-0.28-2.02-0.55-3.03-0.83
		c-0.06,0.27-0.12,0.54-0.18,0.82c0.95,0.15,1.91,0.3,2.86,0.44c0.44,0.36,0.87,0.72,1.31,1.08c-0.02,0.24-0.04,0.47-0.06,0.71
		l0.06-0.04c-2.8,1.63-5.12,1.21-6.86-1.62C413.81,125.82,414.44,124.01,415.06,122.19z"/>
	<path class="st27" d="M412.75,102.24c1.07,0.33,2.14,0.66,3.21,0.99c0.03,3.09,3.83,6.93-1.77,8.9
		C413.71,108.83,413.23,105.54,412.75,102.24z"/>
	<path class="st23" d="M424.87,97.93c-0.09-0.3-0.19-0.59-0.3-0.88c1.11,2.78,2.21,5.57,3.31,8.35c0.01,1.94,0.02,3.89,0.03,5.83
		c-0.97-2.49-1.96-4.97-2.88-7.47c-0.44-1.18-0.76-2.41-1.13-3.62c-0.01-0.3,0.05-0.58,0.2-0.83
		C424.37,98.85,424.62,98.39,424.87,97.93z"/>
	<path class="st20" d="M399.84,81.42c0.41,1.24,0.82,2.48,1.23,3.72c-0.24,0.24-0.48,0.47-0.72,0.71c-0.71-0.59-1.42-1.17-2.14-1.76
		c-0.82-1.24-1.63-2.48-2.45-3.72c1.37,0.3,2.73,0.59,4.1,0.89L399.84,81.42z"/>
	<path class="st20" d="M401.07,85.14c0.98,1.35,1.97,2.69,2.95,4.04c-0.23,0.22-0.46,0.45-0.69,0.67c-0.59-0.57-1.18-1.14-1.77-1.71
		c-0.41-0.76-0.81-1.53-1.22-2.29C400.59,85.61,400.83,85.38,401.07,85.14z"/>
	<path class="st17" d="M419.99,129.3c0.02-0.24,0.04-0.47,0.06-0.71c0.12,0.19,0.23,0.39,0.35,0.58
		C420.26,129.21,420.12,129.26,419.99,129.3z"/>
	<path class="st27" d="M334.44,102.28c-0.46,2.07-0.92,4.14-1.36,6.11c-2.35,0.38-4.41,0.72-7.28,1.19c0.39-2.94,0.79-5.9,1.18-8.86
		C329.46,101.24,331.95,101.76,334.44,102.28z"/>
	<path class="st17" d="M332.35,91.53c0.79-1.16,1.59-2.33,2.38-3.49l0.26,0.23c0.96,2.35-3.68,7.08,2.99,7
		c0.34,0.73,0.69,1.46,1.03,2.18c-2.66,0-5.31,0-8.48,0C331.38,94.65,331.86,93.09,332.35,91.53z"/>
	<path class="st19" d="M338.13,84.36c0.28-0.41,0.57-0.82,0.85-1.23c2.82,0.83,5.63,1.55,8.23-0.62c-0.1,1.22-0.2,2.45-0.3,3.67
		l-0.12-0.03c-1.45,0.69-2.9,1.38-4.35,2.08c-1.53-0.66-3.06-1.31-4.58-1.97c0.04-0.27,0.08-0.55,0.11-0.83
		C338.01,85.07,338.07,84.72,338.13,84.36z"/>
	<path class="st13" d="M337.84,86.26c1.53,0.66,3.06,1.31,4.58,1.97c-1.14,3.07-2.28,6.15-3.43,9.22c-0.34-0.73-0.69-1.45-1.03-2.18
		c1.04-2.55,3.88-5.33-0.93-7.11C337.31,87.52,337.58,86.89,337.84,86.26z"/>
	<path class="st10" d="M340.54,106.33c-0.46,0-0.91,0-1.37,0c1.17-3.44,2.34-6.87,3.51-10.31l0.35,0.28
		c-0.39,2.1-0.79,4.2-1.18,6.29C341.42,103.84,340.98,105.08,340.54,106.33z"/>
	<path class="st10" d="M344.74,92.02c0.64-1.34,1.29-2.68,1.93-4.03c0.32,0.29,0.63,0.58,0.95,0.86c-0.8,1.2-1.6,2.4-2.39,3.6
		C345.06,92.32,344.9,92.17,344.74,92.02z"/>
	<path class="st10" d="M342.69,96.02c0.69-1.33,1.38-2.66,2.06-4c0.15,0.15,0.32,0.3,0.49,0.44c-0.14,0.57-0.27,1.15-0.41,1.72
		c-0.59,0.71-1.19,1.42-1.78,2.12C343.03,96.3,342.69,96.02,342.69,96.02z"/>
	<path class="st10" d="M346.67,87.99c0.04-0.61,0.07-1.23,0.11-1.84l0.12,0.03c0.76-0.28,1.53-0.56,2.29-0.84
		c-0.52,1.17-1.04,2.34-1.56,3.51C347.31,88.57,346.99,88.28,346.67,87.99z"/>
	<path class="st26" d="M340,141.79c0.28,0.4,0.58,0.8,0.85,1.21c4.02,6.08,4.02,6.08-3.28,10.15c-1.67-2.51-3.36-5.06-5.06-7.6
		C335.01,144.3,337.51,143.05,340,141.79z"/>
	<path class="st26" d="M336.38,129.2c-0.54,2.5,4.48,6.38-2.21,7.64c-0.82-2.18-1.63-4.31-2.44-6.45
		C333.28,130,334.83,129.6,336.38,129.2z"/>
	<path class="st0" d="M371.42,36.2c1.03,0.34,2.05,0.68,3.08,1.02C373.47,36.88,372.45,36.54,371.42,36.2z"/>
	<path class="st9" d="M395.96,62.62c1.06,0.89,2.12,1.77,3.17,2.66c0.07,0.43,0.13,0.85,0.2,1.28l-0.13,0.04
		c-0.15,0.01-0.3,0.01-0.45,0.02c0.14,0.18,0.27,0.36,0.41,0.53c0,0.3,0.01,0.59,0.02,0.89c-0.02,0.45-0.03,0.9-0.05,1.35
		c-0.61,0.68-1.22,1.36-1.82,2.04c-0.74,0.56-1.48,1.11-2.22,1.67c-0.33,0.03-0.65,0.06-0.98,0.08c-2.15-1.61-4.3-3.23-6.44-4.84
		c3.83-1.22,3.58-4.26,3.27-7.32C392.62,61.55,394.29,62.08,395.96,62.62z"/>
	<path class="st10" d="M395.96,62.62c-1.67-0.54-3.35-1.07-5.02-1.61c-0.66-0.26-1.32-0.51-1.98-0.77c-0.33-0.03-0.66-0.03-0.99,0
		c-1.68-0.34-3.36-0.68-5.03-1.02l0.05,0.03c0.33-0.69,0.51-1.54,1.03-2.02c0.86-0.79,1.94-1.35,2.93-2.01
		c0.88,0.24,1.77,0.47,2.65,0.71c-1.39,3.32,1.79,2.41,3.03,3.37C393.85,60.26,394.86,61.5,395.96,62.62z"/>
	<path class="st13" d="M404.8,66.43c0.41,0.57,0.82,1.14,1.23,1.71c-0.02,0.66-0.04,1.32-0.06,1.97c-0.51,0.52-1.02,1.03-1.53,1.54
		c-0.22-0.19-0.43-0.39-0.65-0.58c-0.71-1.48-1.43-2.96-2.14-4.43c0.14-0.18,0.28-0.37,0.43-0.55
		C402.98,66.21,403.89,66.32,404.8,66.43z"/>
	<path class="st13" d="M399.34,66.56c-0.07-0.43-0.14-0.85-0.2-1.28c0.98,0.27,1.96,0.54,2.94,0.81c-0.14,0.18-0.28,0.37-0.42,0.55
		C400.88,66.61,400.11,66.59,399.34,66.56z"/>
	<path class="st0" d="M378.49,36.45c-0.34,0.59-0.57,1-0.81,1.42c-0.43-0.35-0.87-0.69-1.3-1.04c0.3-0.31,0.56-0.8,0.92-0.88
		C377.61,35.87,378.03,36.24,378.49,36.45z"/>
	<path class="st26" d="M333.01,123.7c-1.01-1.47-2.31-2.84-2.88-4.46c-0.26-0.73,0.95-1.97,1.5-2.98c1.27,1.9,2.54,3.8,3.8,5.7
		C334.62,122.54,333.81,123.12,333.01,123.7z"/>
	<path class="st17" d="M350.66,63.24c1.38,3.1,2.75,6.2,4.13,9.3c0.04,1.55,0.07,3.1,0.11,4.65l-0.04-0.05
		c-0.95,0.32-1.89,0.64-2.84,0.96c-1.42-2.94-2.83-5.88-4.41-9.17c0.5-1.1,1.3-2.88,2.1-4.65
		C350.02,63.94,350.34,63.59,350.66,63.24z"/>
	<path class="st19" d="M344,76.84c0.84-0.97,1.68-1.94,2.52-2.9c1.32,1.77,2.64,3.54,3.95,5.31c0.14,0.31,0.27,0.62,0.41,0.93
		l0.03,0.02c-0.91,0.41-1.81,0.83-2.72,1.24C346.8,79.9,345.4,78.37,344,76.84z"/>
	<path class="st11" d="M350.89,80.18c-0.14-0.31-0.27-0.62-0.41-0.93c0.51-0.38,1.02-0.76,1.54-1.14c0.95-0.32,1.89-0.64,2.84-0.96
		C353.53,78.16,352.21,79.17,350.89,80.18z"/>
	<path class="st11" d="M394.12,73.18c0.33-0.02,0.65-0.05,0.98-0.08c0.63,0.38,1.26,0.76,1.89,1.14l-0.01-0.02
		c-2.15,3.44,0.17,3.94,2.79,4.24c0.03,0.93,0.07,1.87,0.1,2.8c-1.37-0.3-2.73-0.59-4.1-0.89l0.15-0.07
		c-0.34-0.34-0.68-0.68-1.02-1.02l0.03,0.03c-2.94-1.61-5.88-3.22-8.82-4.83c-4.73-0.13-9.46-0.26-14.19-0.38
		c-0.99,0.03-1.98,0.06-2.97,0.09c-0.41-1.14-0.82-2.28-0.96-2.66c1.57-0.86,2.79-1.54,4.02-2.21c0.67-0.32,1.35-0.64,2.02-0.96
		c1.68,0.31,3.36,0.62,5.03,0.94c3.52,1.24,7.01,2.59,10.59,3.66C391.03,73.36,392.62,73.12,394.12,73.18z"/>
	<path class="st13" d="M399.77,78.46c-2.62-0.3-4.94-0.81-2.79-4.24c2.27-1.05,4.54-2.09,6.81-3.14c0.22,0.19,0.43,0.38,0.65,0.58
		c-0.15,0.52-0.3,1.03-0.45,1.54C402.58,74.95,401.18,76.71,399.77,78.46z"/>
	<path class="st26" d="M344,76.84c1.4,1.53,2.79,3.07,4.19,4.6l-0.16-0.09c-0.31,0.33-0.61,0.66-0.92,0.99l0.09,0.17
		c-2.59,2.17-5.41,1.45-8.23,0.62c0.03-0.28,0.03-0.57-0.01-0.85C340.64,80.47,342.32,78.65,344,76.84z"/>
	<path class="st18" d="M412.88,157.16c-0.83-5.03,3.45-11.04,8.28-11.63c-1.46,2.52-2.92,5.04-4.38,7.56
		c-1.01,1.31-2.02,2.62-3.03,3.93C413.46,157.07,413.17,157.12,412.88,157.16z"/>
	<path class="st17" d="M337.84,86.26c-0.26,0.63-0.53,1.27-0.79,1.9c-0.69,0.04-1.37,0.08-2.06,0.11l-0.26-0.23
		c0.12-0.56,0.25-1.13,0.38-1.69c0.95-0.31,1.9-0.61,2.85-0.92C337.92,85.7,337.88,85.98,337.84,86.26z"/>
	<path class="st9" d="M413.97,139.2c1.22,0.03,2.44,0.06,3.66,0.09c-0.51,0.64-1.02,1.28-1.53,1.92
		C415.39,140.55,414.68,139.88,413.97,139.2z"/>
	<path class="st19" d="M405.97,70.12c0.02-0.66,0.04-1.32,0.06-1.97c0.49,0.19,0.99,0.37,1.48,0.56c0,0,0.01,0.18,0,0.18
		c-0.26,0.36-0.52,0.73-0.78,1.09C406.49,70.06,406.23,70.11,405.97,70.12z"/>
	<path class="st23" d="M356.07,150.28c-0.33-0.05-0.66-0.1-0.98-0.17c-0.08-0.25-0.12-0.51-0.12-0.78c1.91-4.2-0.94-6.65-3.61-8.87
		c-0.67-0.56-2.52,0.31-3.83,0.52c-0.54-0.91-1.08-1.82-1.62-2.73c2.05-1.07,4.11-2.15,6.16-3.22c1.55,1.4,3.1,2.81,4.64,4.21
		c1.49,1.97,2.98,3.93,4.99,6.58c1.1-2.12,1.73-3.35,2.36-4.57c4.17-3.05,0.54-6.82,0.93-10.22c0.33,0.06,0.66,0.11,0.99,0.17
		c0.67,1,1.34,2,2.02,2.99c-0.39,2.86,0.57,4.12,3.73,4.12c4.04,0,8.09,0.6,12.13,0.94c0.73,0.94,1.46,1.88,2.19,2.83
		c-0.38,1.69-0.76,3.38-0.92,4.1c-2.78,1.93-5.02,3.23-6.86,4.95c-0.38,0.35,0.68,2.24,1.07,3.42c0.16,3.59-2.47,2.39-4.33,2.52
		c-2.29-0.73-4.59-1.45-7.18-2.27c1.3-3.44,1.36-5.96-2.43-7.51c-2.52-1.03-4.23-1.25-6.06,1.01
		C358.59,149.25,357.18,149.65,356.07,150.28z"/>
	<path class="st23" d="M340.54,106.33c0.44-1.24,0.88-2.49,1.31-3.73c0.33,2.25,0.65,4.5,0.98,6.74c0.53,1.58,1.06,3.15,1.96,5.84
		c1.13-2.47,1.71-3.74,2.3-5.01c0.5,1.05,0.99,2.1,1.29,2.73c1.37-0.24,2.44-0.43,3.51-0.62c0.18,0.23,0.4,0.4,0.67,0.51
		c-0.04,0.52-0.08,1.04-0.12,1.56c-0.06,1.6-0.11,3.2-0.17,4.8c-0.04,3.15-0.08,6.3-0.12,9.45c-0.08,1.21-0.16,2.41-0.24,3.62
		c-2.23-4.44-4.46-8.88-7.32-14.56c-1.68,3.61-2.6,5.59-3.52,7.58C340.9,118.92,340.72,112.63,340.54,106.33z"/>
	<path class="st16" d="M341.08,125.22c0.92-1.98,1.84-3.97,3.52-7.58c2.85,5.68,5.08,10.12,7.32,14.56c0.05,0.94,0.1,1.89,0.14,2.83
		c-2.05,1.07-4.11,2.15-6.16,3.22C344.29,133.91,342.69,129.57,341.08,125.22z"/>
	<path class="st28" d="M347.52,140.99c1.31-0.21,3.16-1.08,3.83-0.52c2.67,2.22,5.51,4.67,3.61,8.87c-1.28-1.03-2.57-2.07-3.85-3.1
		C349.91,144.49,348.72,142.74,347.52,140.99z"/>
	<path class="st24" d="M370,173.24c0.58-3.28,1.15-6.56,1.73-9.84c2.13,0,4.26,0,6.62,0c0.6,3.21,1.17,6.23,1.84,9.84
		C376.79,173.24,373.39,173.24,370,173.24z"/>
	<path class="st23" d="M408.1,111.09c0.71,1.04,1.41,2.09,2.12,3.13c0.09,1.03,0.18,2.05,0.27,3.08c-0.74,1.6-1.48,3.2-2.22,4.79
		c-0.73-1.68-1.54-3.53-2.34-5.39c-0.42,0.02-0.84,0.04-1.25,0.06c-0.69,3.56-1.38,7.13-1.88,9.73c2.42,1.4,3.81,2.21,5.21,3.02
		c0.09,0.23,0.04,0.42-0.15,0.57c-0.29,0.8-0.57,1.59-0.86,2.38c-0.36,0.86-0.71,1.71-1.07,2.57c-0.32,0.72-0.64,1.43-0.96,2.14
		l-0.04,0.07c-0.34,0.64-0.68,1.29-1.01,1.93c-0.7,1.32-1.4,2.64-2.1,3.97c-1.1,1.04-2.2,2.07-3.29,3.1
		c-1.25-0.06-2.49-0.11-3.74-0.17c0.43-0.29,0.86-0.58,1.29-0.88c-0.63-1.68-1.25-3.37-1.88-5.05c1.22-1.89,2.44-3.77,3.87-5.97
		c-2.14-1.48-4.02-2.79-5.9-4.09c-0.49-0.59-0.98-1.17-1.47-1.76c2.2-2.59,7.49-2.03,7.27-7.1c0.29-4.02,0.59-8.05,0.88-12.07
		c1.38,0.02,2.75,0.04,4.13,0.06c0.83,1.73,1.65,3.46,2.48,5.21C406.34,113.32,407.22,112.21,408.1,111.09z"/>
	<path class="st16" d="M408,129.52c-1.4-0.81-2.8-1.62-5.21-3.02c0.5-2.6,1.19-6.16,1.88-9.73c0.42-0.02,0.84-0.04,1.25-0.06
		c0.81,1.85,1.61,3.71,2.34,5.39c0.74-1.59,1.48-3.19,2.22-4.79C409.66,121.37,408.83,125.45,408,129.52z"/>
	<path class="st16" d="M403.91,139.2c0.34-0.64,0.68-1.29,1.01-1.93c-0.09,0.57-0.17,1.13-0.26,1.7
		C404.41,139.03,404.16,139.11,403.91,139.2z"/>
	<path class="st16" d="M404.96,137.19c0.32-0.71,0.64-1.43,0.96-2.14C405.6,135.76,405.28,136.47,404.96,137.19z"/>
	<path class="st16" d="M406.99,132.48c0.29-0.79,0.57-1.59,0.86-2.38C407.57,130.89,407.28,131.68,406.99,132.48z"/>
	<path class="st16" d="M379.34,154.57c-0.4-1.18-1.45-3.08-1.07-3.42c1.85-1.72,4.08-3.02,6.86-4.95c0.16-0.71,0.54-2.41,0.92-4.1
		c0.3,0.06,0.6,0.13,0.89,0.2c1.35,1.71,2.69,3.41,4.04,5.12c0.6,1.27,1.21,2.54,1.81,3.8c-0.46,0.47-0.92,0.94-1.39,1.41
		c-0.72,0.43-1.44,0.87-2.16,1.3C385.98,154.7,382.86,157.76,379.34,154.57z"/>
	<path class="st24" d="M392.79,151.23c-0.6-1.27-1.21-2.54-1.81-3.81c1.07-2.42,2.14-4.84,3.2-7.25c0.63,1.68,1.25,3.37,1.88,5.05
		c-0.43,0.29-0.86,0.58-1.29,0.88c1.25,0.06,2.49,0.11,3.74,0.17c-1.01,1.16-2.02,2.32-3.04,3.48
		C394.58,150.24,393.68,150.74,392.79,151.23z"/>
	<path class="st10" d="M372,69.31c-1.23,0.68-2.45,1.35-4.02,2.21c0.14,0.39,0.55,1.53,0.96,2.66c-2.46,1-4.92,1.99-7.37,2.99
		c-0.3-0.02-0.58,0.06-0.84,0.22c-0.9,0.73-1.81,1.46-2.72,2.18c-0.96,0.56-1.93,1.12-2.89,1.67c-1.34,0.73-2.68,1.46-4.02,2.19
		c-0.06-1.09-0.12-2.17-0.18-3.26l-0.03-0.02c1.32-1.01,2.65-2.02,3.97-3.03l0.04,0.04c1.91-0.57,3.82-1.14,5.65-1.69
		c-0.35-1.91-0.58-3.15-0.81-4.4c2.12-1.28,4.23-2.57,6.35-3.85c0.61-0.34,1.23-0.69,1.84-1.03C369.29,67.26,370.65,68.28,372,69.31
		z"/>
	<path class="st20" d="M387.97,60.24c0.33-0.03,0.66-0.03,0.99,0c0.88,2.61-0.05,3.37-2.74,3.35c-0.72,0-1.46,2.33-2.19,3.59
		c-1.42,0.66-2.84,1.31-4.26,1.97c0.04-0.29,0.1-0.58,0.18-0.87c0.35-3.03,0.7-6.06,1.06-9.09c0.66,0.02,1.32,0.04,1.98,0.05
		l-0.05-0.03C384.62,59.56,386.29,59.9,387.97,60.24z"/>
	<path class="st9" d="M379.95,68.28c-0.07,0.29-0.13,0.58-0.18,0.87c-0.24,0.05-0.48,0.09-0.72,0.14c-1.68-0.31-3.35-0.62-5.03-0.94
		C376,68.33,377.97,68.3,379.95,68.28z"/>
	<path class="st11" d="M359.75,71.11c0.23,1.24,0.46,2.49,0.81,4.4c-1.83,0.55-3.74,1.12-5.65,1.69c-0.04-1.55-0.07-3.1-0.11-4.65
		C356.44,72.06,358.09,71.58,359.75,71.11z"/>
	<path class="st11" d="M409.13,88.52c0.11-0.86,0.23-1.71,0.34-2.57c0.28,0.09,0.81,0.22,0.8,0.25c-0.15,0.7-0.35,1.4-0.54,2.08
		c0-0.01-0.43-0.2-0.43-0.2L409.13,88.52z"/>
	<path class="st19" d="M409.13,88.52l0.17-0.44c0,0,0.43,0.19,0.43,0.2C409.53,88.37,409.33,88.45,409.13,88.52z"/>
	<path class="st27" d="M404.83,93.07c1.32,5.09,2.65,10.18,3.97,15.27c-2.26-0.74-4.53-1.48-6.79-2.22
		c-0.71-1.96-1.43-3.93-2.14-5.9c-0.31-0.33-0.61-0.66-0.92-0.99c-0.37-0.4-0.75-0.8-1.12-1.2
		C400.17,96.38,402.5,94.73,404.83,93.07z"/>
	<path class="st23" d="M404.83,93.07c-2.33,1.66-4.67,3.31-7,4.97l0.07,0.12c-0.27-0.1-0.55-0.17-0.83-0.21
		c-2.31-8.15-2.31-8.15,4.5-9.8c0.59,0.57,1.18,1.14,1.77,1.71C403.83,90.92,404.33,92,404.83,93.07z"/>
	<path class="st24" d="M402.02,106.12c2.26,0.74,4.53,1.48,6.79,2.22c-0.24,0.92-0.47,1.84-0.71,2.75
		c-0.88,1.11-1.76,2.23-2.65,3.35c-0.83-1.75-1.66-3.48-2.48-5.21C402.65,108.2,402.33,107.16,402.02,106.12z"/>
	<path class="st16" d="M424.87,97.93c-0.25,0.46-0.51,0.92-0.76,1.38C424.37,98.85,424.62,98.39,424.87,97.93z"/>
	<path class="st11" d="M418.74,127.51c-0.95-0.15-1.91-0.3-2.86-0.44c0.06-0.27,0.12-0.54,0.18-0.82c1.01,0.28,2.02,0.55,3.03,0.83
		C418.97,127.22,418.85,127.37,418.74,127.51z"/>
	<path class="st28" d="M401.56,88.14c-6.81,1.65-6.81,1.65-4.5,9.81c-1.69,1.12-3.38,2.23-5.07,3.34c0.36-1.24,0.54-2.56,1.11-3.69
		c1.34-2.67,0.66-4.4-2.09-5.4c-1.99,0.37-3.99,0.73-5.98,1.1c-0.94-0.55-2.28-0.87-2.76-1.7c-1.82-3.14-3.64-2.68-5.76-0.42
		c-0.66,0.7-1.46,1.26-2.2,1.88c-0.07-0.38-0.13-0.77-0.2-1.15c-2.71,0.12-5.42,0.24-8.13,0.36c-0.38-0.32-0.77-0.63-1.15-0.95
		c-0.26-1.14-0.53-2.29-0.79-3.43c0.91,0.23,2.35,0.94,2.64,0.62c3.17-3.54,7.4-2.09,11.2-2.59c0.72-0.92,1.45-1.83,2.17-2.75
		c1.75,0.41,3.5,1.12,5.26,1.16c4.3,0.09,8.6-0.14,12.9-0.24c0.71,0.59,1.42,1.17,2.14,1.76C400.75,86.62,401.16,87.38,401.56,88.14
		z"/>
	<path class="st23" d="M398.21,84.09c-4.3,0.1-8.6,0.33-12.9,0.24c-1.76-0.04-3.51-0.75-5.26-1.16l-0.08-0.01
		c-0.38-0.29-0.77-0.58-1.15-0.86c-0.44,0.09-0.87,0.19-1.31,0.28c-0.55-0.4-1.1-0.79-1.64-1.19c-0.31-0.38-0.63-0.75-0.94-1.13
		c-0.58-2.26,1.9-6.03-3.02-6.16c4.73,0.13,9.46,0.26,14.19,0.38c2.94,1.61,5.88,3.22,8.82,4.83l-0.03-0.03
		c0.34,0.34,0.68,0.68,1.02,1.02l-0.15,0.07C396.58,81.61,397.4,82.85,398.21,84.09z"/>
	<path class="st27" d="M334.99,88.27c0.69-0.04,1.37-0.08,2.06-0.11c4.8,1.79,1.96,4.56,0.93,7.11
		C331.31,95.35,335.94,90.62,334.99,88.27z"/>
	<path class="st11" d="M350.91,80.2c0.06,1.09,0.12,2.17,0.18,3.26l-0.07-0.16c-0.34,0.34-0.68,0.68-1.02,1.02l0.02-0.02
		c-0.34,0.34-0.68,0.68-1.02,1.03l0.17,0.02c-0.76,0.28-1.52,0.56-2.29,0.84c0.1-1.22,0.2-2.45,0.3-3.67c0,0-0.09-0.17-0.09-0.18
		c0.31-0.33,0.61-0.66,0.92-0.99l0.16,0.09C349.1,81.02,350.01,80.61,350.91,80.2z"/>
	<path class="st27" d="M342.83,109.34c-0.33-2.25-0.65-4.49-0.98-6.74c0.39-2.1,0.79-4.2,1.18-6.3c0.59-0.71,1.19-1.42,1.78-2.12
		c0.72,0.08,1.44,0.16,2.15,0.23C345.59,99.39,344.21,104.36,342.83,109.34z"/>
	<path class="st23" d="M346.97,94.41c-0.72-0.08-1.44-0.16-2.15-0.23c0.14-0.57,0.27-1.15,0.41-1.72c0.8-1.2,1.6-2.4,2.39-3.6
		c0.52-1.17,1.04-2.34,1.56-3.51l-0.17-0.03c0.34-0.34,0.68-0.68,1.02-1.02l-0.02,0.02c0.34-0.34,0.68-0.68,1.02-1.02l0.07,0.16
		c1.34-0.73,2.68-1.46,4.02-2.19c-0.74,2.64-1.47,5.29-2.21,7.93c-1.67,1.73-3.35,3.47-5.02,5.2
		C347.58,94.38,347.27,94.38,346.97,94.41z"/>
	<path class="st10" d="M379.06,69.29c0.24-0.05,0.48-0.09,0.72-0.14c1.42-0.66,2.84-1.31,4.26-1.97c1.21,0.38,2.43,0.77,3.64,1.15
		c2.15,1.61,4.3,3.23,6.44,4.84c-1.5-0.06-3.08,0.18-4.47-0.23C386.07,71.88,382.58,70.53,379.06,69.29z"/>
	<path class="st11" d="M387.67,68.34c-1.21-0.38-2.43-0.77-3.64-1.15c0.73-1.26,1.46-3.59,2.19-3.59c2.7,0.02,3.62-0.74,2.74-3.35
		c0.66,0.26,1.32,0.51,1.98,0.77C391.25,64.08,391.51,67.12,387.67,68.34z"/>
	<path class="st26" d="M403.79,71.08c-2.27,1.05-4.54,2.09-6.81,3.14l0.01,0.02c0.11-0.93,0.22-1.87,0.33-2.8
		c0.61-0.68,1.22-1.36,1.82-2.04c0.02-0.45,0.03-0.9,0.05-1.35c-0.01-0.3-0.02-0.59-0.02-0.89c0.1-0.18,0.11-0.36,0.04-0.56
		l0.13-0.04c0.77,0.03,1.54,0.06,2.31,0.09C402.36,68.12,403.08,69.6,403.79,71.08z"/>
	<path class="st13" d="M397.32,71.43c-0.11,0.93-0.22,1.87-0.33,2.8c-0.63-0.38-1.26-0.76-1.89-1.14
		C395.84,72.54,396.58,71.99,397.32,71.43z"/>
	<path class="st13" d="M399.19,68.05c-0.02,0.45-0.03,0.9-0.05,1.35C399.16,68.94,399.18,68.49,399.19,68.05z"/>
	<path class="st13" d="M399.21,66.6c0.07,0.19,0.06,0.38-0.04,0.56c-0.14-0.18-0.27-0.35-0.41-0.53
		C398.91,66.61,399.06,66.61,399.21,66.6z"/>
	<path class="st11" d="M387.97,60.24c-1.68-0.34-3.36-0.68-5.03-1.02C384.62,59.56,386.29,59.9,387.97,60.24z"/>
	<path class="st24" d="M371.91,74.1c4.92,0.14,2.44,3.9,3.02,6.16c-4.45-1.03-8.91-2.06-13.36-3.08c2.46-1,4.92-1.99,7.37-2.99
		C369.93,74.16,370.92,74.13,371.91,74.1z"/>
	<path class="st20" d="M394.92,79.32c-2.94-1.61-5.88-3.22-8.82-4.83C389.04,76.1,391.98,77.71,394.92,79.32z"/>
	<path class="st20" d="M395.91,80.31c-0.34-0.34-0.68-0.68-1.02-1.02C395.23,79.63,395.57,79.97,395.91,80.31z"/>
	<path class="st19" d="M348.03,81.34c-0.31,0.33-0.61,0.66-0.92,0.99C347.42,82.01,347.73,81.67,348.03,81.34z"/>
	<path class="st24" d="M391.01,92.2c2.75,1,3.43,2.74,2.09,5.4c-0.57,1.13-0.75,2.45-1.11,3.69l0.01-0.03
		c-0.68,0.38-1.36,0.77-2.03,1.15c-0.17,2.91,1.7,3.19,3.78,2.66c1.69-0.42,3.26-1.3,4.89-1.97c0.07,2.03,0.14,4.05,0.2,6.08
		c-0.29,4.02-0.59,8.05-0.88,12.07c-3.31,0.31-6.63,0.62-9.94,0.92c0.03-1.33,0.06-2.66,0.09-4c0.8,0.12,1.65,0.46,2.41,0.32
		c1.79-0.35,4.53-0.42,5.08-1.51c1.15-2.28,0.5-4.76-2.69-5.65c-1.68-0.47-3.25-1.34-4.88-2.03c-0.29-0.47-0.58-0.93-0.87-1.4
		c-0.41,0.77-0.81,1.55-1.22,2.32c-0.34,1.66-0.69,3.32-1.03,4.98c-0.07,0.64-0.13,1.29-0.2,1.93c-5.56,0.35-8.58,4.26-11.84,8.07
		c-1.96,2.29-4.57,4.03-6.89,6.01c-0.33-0.06-0.66-0.11-0.99-0.17c-0.92-1.24-1.84-2.49-2.76-3.73c-0.34,0.22-0.67,0.44-1.01,0.66
		c0.94,4.43,1.89,8.86,2.83,13.29c-0.63,1.22-1.26,2.45-2.36,4.57c-2.01-2.65-3.5-4.61-4.99-6.58c2.73-5.93,1.58-8.6-4.55-10.67
		c0.04-3.15,0.08-6.3,0.11-9.45c1.66,0.95,3.27,2,4.99,2.81c1.83,0.87,3.77,1.51,5.67,2.25c4.75-0.38,8.33-1.88,9.91-7.18
		c0.67-2.24,3.44-5.14,5.54-5.39c3.7-0.45,5.27-1.89,6.07-5.19c0.26-1.06,1.31-1.9,1.77-2.95C387.87,99.75,389.42,95.97,391.01,92.2
		z"/>
	<path class="st28" d="M365.98,131.22c2.32-1.99,4.93-3.72,6.89-6.01c3.26-3.81,6.29-7.72,11.85-8.07c0.06,1.02,0.12,2.03,0.17,3.05
		c-6.96,2.58-10.95,8.3-14.92,14.05l-0.01,0.01c-0.65-0.01-1.3-0.02-1.96-0.03C367.32,133.22,366.65,132.22,365.98,131.22z"/>
	<path class="st26" d="M386.94,142.3c-0.3-0.07-0.59-0.14-0.89-0.2c-0.73-0.94-1.46-1.89-2.19-2.83c-0.41-1.37-0.83-2.74-1.24-4.11
		c1.78-2.65,3.56-5.29,5.33-7.94c0.91,0.37,1.82,0.75,2.72,1.12c0.49,0.59,0.98,1.17,1.47,1.76
		C390.42,134.18,388.68,138.24,386.94,142.3z"/>
	<path class="st13" d="M382.62,135.17c0.41,1.37,0.83,2.74,1.24,4.11c-4.05-0.34-8.09-0.95-12.14-0.94c-3.16,0-4.12-1.26-3.73-4.12
		c0.65,0.01,1.3,0.02,1.96,0.03C374.18,134.55,378.4,134.86,382.62,135.17z"/>
	<path class="st18" d="M352.16,128.59c6.13,2.07,7.28,4.74,4.55,10.67c-1.55-1.4-3.1-2.81-4.65-4.21c-0.05-0.95-0.1-1.89-0.14-2.83
		C352,131,352.08,129.8,352.16,128.59z"/>
	<path class="st16" d="M364.05,141.27c-0.94-4.43-1.89-8.86-2.83-13.29c0.34-0.22,0.67-0.44,1.01-0.66
		c0.92,1.25,1.84,2.49,2.76,3.73C364.6,134.45,368.22,138.21,364.05,141.27z"/>
	<path class="st29" d="M364.83,91.33c0.38,0.32,0.77,0.63,1.15,0.95c1.67,2.28,3.35,4.56,5.02,6.84c-0.94,1.47-1.69,3.12-2.86,4.38
		c-1.91,2.06-4.08,3.87-6.15,5.79c-0.04,0.93-0.08,1.86-0.12,2.79l-0.03,0.07c-2.32,0.76-4.65,1.52-6.97,2.28
		c-0.81-0.03-1.62-0.06-2.43-0.09c0.04-0.52,0.08-1.04,0.13-1.56c1.48-3.84,2.96-7.67,4.44-11.51
		C361.92,99.77,363.63,95.75,364.83,91.33z"/>
	<path class="st25" d="M357,101.27c-1.48,3.84-2.96,7.67-4.44,11.51c-0.27-0.11-0.49-0.28-0.67-0.5c0.5-11.8,0.5-11.8-1.81-12.29
		c-1.02,3.46-2,6.82-2.99,10.19c-0.58,1.27-1.16,2.54-2.3,5.01c-0.9-2.69-1.43-4.26-1.96-5.84c1.38-4.98,2.76-9.95,4.14-14.93
		c0.3-0.03,0.6-0.03,0.91-0.02c1.01,0.55,2.03,1.09,3.04,1.64c2.29-1.67,4.57-3.33,6.86-5c0.27,2.46,1.85,5.03-1.02,7.18
		C356.33,98.53,356.9,100.21,357,101.27z"/>
	<path class="st27" d="M352.44,114.34c0.81,0.03,1.62,0.06,2.43,0.09c3.38,3.01,6,2.15,6.97-2.28l0.03-0.07
		c0.71,1.09,1.41,2.19,2.12,3.28c-0.35,2.95-0.71,5.9-1.06,8.84c-1.89-0.74-3.83-1.38-5.67-2.25c-1.72-0.81-3.33-1.86-4.99-2.81
		C352.33,117.54,352.39,115.94,352.44,114.34z"/>
	<path class="st17" d="M347.09,110.17c0.99-3.36,1.98-6.73,2.99-10.19c2.31,0.49,2.31,0.49,1.81,12.29
		c-1.07,0.19-2.14,0.38-3.51,0.62C348.08,112.26,347.59,111.21,347.09,110.17z"/>
	<path class="st27" d="M386.94,142.3c1.74-4.06,3.47-8.13,5.21-12.19c1.88,1.3,3.76,2.6,5.9,4.09c-1.43,2.2-2.65,4.09-3.87,5.97
		c-1.07,2.42-2.14,4.83-3.2,7.25C389.63,145.72,388.29,144.01,386.94,142.3z"/>
	<path class="st13" d="M390.68,128.35c-0.91-0.37-1.82-0.75-2.72-1.12c0.02-1.69,0.04-3.37,0.06-5.06c3.31-0.31,6.63-0.62,9.94-0.92
		C398.17,126.32,392.89,125.76,390.68,128.35z"/>
	<path class="st13" d="M398.83,109.18c-0.07-2.03-0.14-4.05-0.2-6.08c0.08-1.02,0.16-2.03,0.24-3.05c0.34,0.06,0.67,0.12,1.01,0.18
		c0.71,1.97,1.43,3.93,2.14,5.9c0.31,1.04,0.63,2.07,0.94,3.11C401.58,109.22,400.21,109.2,398.83,109.18z"/>
	<path class="st27" d="M361.57,77.18c4.45,1.03,8.91,2.06,13.36,3.08c0.31,0.38,0.63,0.75,0.94,1.13c-1.93,0.42-3.84,0.98-5.79,1.24
		c-2.33,0.31-4.69,0.38-7.04,0.55c-0.77-1.93-1.54-3.85-2.32-5.78C360.98,77.24,361.26,77.17,361.57,77.18z"/>
	<path class="st28" d="M352.9,89.19c0.74-2.64,1.47-5.29,2.21-7.93c0.97-0.56,1.93-1.12,2.9-1.68c0.64,1.23,1.29,2.45,1.94,3.68
		c-2.3,2.02-4.6,4.03-6.91,6.05L352.9,89.19z"/>
	<path class="st18" d="M359.94,83.26c-0.65-1.23-1.29-2.45-1.94-3.68c0.91-0.73,1.82-1.46,2.72-2.18c0.77,1.93,1.54,3.86,2.31,5.78
		c-0.75,0.03-1.49,0.06-2.23,0.09C360.52,83.3,360.23,83.3,359.94,83.26z"/>
	<path class="st24" d="M399.88,100.23c-0.34-0.06-0.67-0.12-1.01-0.17c0.01-0.25,0.01-0.5,0.01-0.75l0.08-0.07
		C399.26,99.57,399.57,99.9,399.88,100.23z"/>
	<path class="st24" d="M397.83,98.04c0.37,0.4,0.75,0.8,1.12,1.2l-0.08,0.06c-0.33-0.38-0.65-0.76-0.98-1.14L397.83,98.04z"/>
	<path class="st26" d="M397.9,98.16c0.33,0.38,0.65,0.76,0.98,1.14c0.01,0.25,0,0.5-0.01,0.75c-0.08,1.01-0.16,2.03-0.24,3.05
		c-1.63,0.67-3.2,1.55-4.89,1.97c-2.08,0.52-3.95,0.24-3.78-2.67c0.68-0.38,1.36-0.77,2.03-1.15l-0.01,0.03
		c1.69-1.11,3.38-2.23,5.07-3.34C397.35,97.99,397.63,98.06,397.9,98.16z"/>
	<path class="st26" d="M362.93,124.2c0.35-2.95,0.71-5.9,1.06-8.84c2.1-1.02,5.31-1.52,6.08-3.16c2.35-5.01,6.71-6.87,11.09-9.13
		c1.53-0.79,2.55-2.58,3.8-3.91c0.02-1.95,0.04-3.9,0.06-5.85c1.99-0.37,3.99-0.73,5.98-1.1c-1.59,3.77-3.14,7.55-4.78,11.29
		c-0.46,1.04-1.51,1.89-1.77,2.95c-0.79,3.29-2.37,4.73-6.07,5.19c-2.1,0.26-4.88,3.15-5.54,5.39
		C371.26,122.32,367.68,123.82,362.93,124.2z"/>
	<path class="st24" d="M385.02,93.3c-0.02,1.95-0.04,3.9-0.06,5.85c-4.31-3.05-8.69-2.96-13.11-0.26c-0.3,0.03-0.58,0.1-0.85,0.22
		c-1.67-2.28-3.35-4.56-5.02-6.84c2.71-0.12,5.42-0.24,8.13-0.36c0.07,0.38,0.13,0.77,0.2,1.15c0.74-0.62,1.54-1.18,2.2-1.88
		c2.12-2.26,3.94-2.72,5.76,0.42C382.74,92.42,384.08,92.75,385.02,93.3z"/>
	<path class="st18" d="M357,101.27c-0.1-1.05-0.68-2.73-0.24-3.06c2.87-2.14,1.29-4.72,1.02-7.17c1.23-1.6,2.46-3.21,3.68-4.82
		c0.86,0.56,1.71,1.12,2.57,1.68c0.26,1.14,0.53,2.28,0.79,3.43C363.63,95.75,361.92,99.77,357,101.27z"/>
	<path class="st29" d="M364.04,87.9c-0.86-0.56-1.71-1.12-2.57-1.68c-0.22-0.98-0.44-1.96-0.66-2.94c0.74-0.03,1.49-0.06,2.24-0.09
		c2.35-0.17,4.71-0.24,7.04-0.55c1.95-0.26,3.86-0.82,5.79-1.24c0.55,0.4,1.1,0.79,1.65,1.19c0.12,1.11,0.24,2.23,0.36,3.34
		c-3.8,0.5-8.03-0.95-11.2,2.59C366.39,88.84,364.95,88.13,364.04,87.9z"/>
	<path class="st27" d="M377.88,85.93c-0.12-1.11-0.24-2.23-0.36-3.34c0.43-0.09,0.87-0.19,1.31-0.28c0.38,0.29,0.77,0.58,1.15,0.86
		l0.08,0.01C379.33,84.09,378.6,85.01,377.88,85.93z"/>
	<path class="st28" d="M379.98,83.16c-0.38-0.29-0.77-0.58-1.15-0.86C379.21,82.59,379.59,82.88,379.98,83.16z"/>
	<path class="st10" d="M351.03,83.3c-0.34,0.34-0.68,0.68-1.02,1.02C350.35,83.97,350.69,83.63,351.03,83.3z"/>
	<path class="st10" d="M350.03,84.29c-0.34,0.34-0.68,0.68-1.02,1.02C349.35,84.97,349.69,84.63,350.03,84.29z"/>
	<path class="st28" d="M350.92,96.03c-1.01-0.55-2.03-1.09-3.04-1.64c1.67-1.73,3.35-3.46,5.02-5.2c0,0,0.14,0.12,0.13,0.12
		C352.33,91.55,351.63,93.79,350.92,96.03z"/>
	<path class="st23" d="M388.01,122.17c-0.02,1.69-0.04,3.37-0.06,5.06c-1.78,2.65-3.55,5.29-5.33,7.94
		c-4.23-0.31-8.45-0.62-12.67-0.93l0.01-0.01c1.97-1.27,3.98-2.48,5.89-3.84c1.29-0.92,2.45-2.96,3.64-2.93
		c5.56,0.12,5.66-3.35,5.4-7.28c-0.06-1.02-0.11-2.03-0.17-3.05c0.06-0.64,0.13-1.29,0.2-1.93c1,0.02,1.99,0.04,2.98,0.05
		c0.07,0.97,0.14,1.95,0.2,2.92C388.07,119.51,388.04,120.84,388.01,122.17z"/>
	<path class="st26" d="M388.1,118.18c-0.07-0.97-0.14-1.95-0.2-2.92c0-1.66,0-3.32,0-4.98c0.07-0.32,0.11-0.64,0.13-0.97
		c1.62,0.69,3.19,1.56,4.87,2.03c3.19,0.89,3.83,3.36,2.69,5.65c-0.55,1.09-3.3,1.17-5.08,1.51
		C389.75,118.64,388.91,118.3,388.1,118.18z"/>
	<path class="st13" d="M387.9,110.28c0,1.66,0,3.32,0,4.98c-1-0.02-1.99-0.03-2.98-0.05c0.34-1.66,0.69-3.32,1.03-4.98
		C386.59,110.24,387.25,110.26,387.9,110.28z"/>
	<path class="st28" d="M387.9,110.28c-0.65-0.02-1.31-0.03-1.96-0.05c0.41-0.77,0.81-1.55,1.22-2.32c0.29,0.47,0.58,0.93,0.87,1.4
		C388.01,109.63,387.97,109.96,387.9,110.28z"/>
	<path class="st28" d="M392,101.26c-0.68,0.38-1.36,0.76-2.03,1.15C390.64,102.02,391.32,101.64,392,101.26z"/>
	<path class="st13" d="M384.89,120.19c0.26,3.93,0.16,7.4-5.4,7.28c-1.19-0.03-2.35,2.01-3.64,2.93c-1.91,1.36-3.92,2.56-5.89,3.84
		C373.93,128.49,377.93,122.76,384.89,120.19z"/>
	<path class="st25" d="M371.85,98.89c4.43-2.7,8.8-2.8,13.11,0.26c-1.25,1.33-2.27,3.11-3.8,3.91c-4.38,2.26-8.74,4.12-11.09,9.13
		c-0.77,1.64-3.99,2.14-6.08,3.16c-0.71-1.09-1.41-2.18-2.12-3.28c0.04-0.93,0.08-1.86,0.12-2.8c8.42,5.68,8.2-4.45,12.44-6.53
		C373.48,101.33,372.67,100.11,371.85,98.89z"/>
	<path class="st18" d="M371.85,98.89c0.82,1.22,1.63,2.44,2.58,3.86c-4.24,2.08-4.02,12.21-12.44,6.53
		c2.06-1.92,4.24-3.73,6.15-5.79c1.17-1.26,1.92-2.9,2.86-4.38C371.27,98.99,371.55,98.92,371.85,98.89z"/>
	<path class="st25" d="M361.84,112.14c-0.97,4.43-3.59,5.29-6.97,2.28C357.19,113.67,359.51,112.91,361.84,112.14z"/>
	<path class="st24" d="M350.92,96.03c0.7-2.24,1.41-4.48,2.11-6.72c2.3-2.02,4.6-4.03,6.91-6.05c0.29,0.03,0.58,0.04,0.86,0.01
		c0.22,0.98,0.44,1.96,0.66,2.94c-1.23,1.61-2.45,3.21-3.68,4.82C355.5,92.7,353.21,94.36,350.92,96.03z"/>
</g>
</svg>
