<?xml version="1.0" encoding="utf-8"?>
<!-- Generator: Adobe Illustrator 24.1.0, SVG Export Plug-In . SVG Version: 6.00 Build 0)  -->
<svg version="1.1" id="Layer_1" xmlns="http://www.w3.org/2000/svg" xmlns:xlink="http://www.w3.org/1999/xlink" x="0px" y="0px"
	 viewBox="0 0 874 392" style="enable-background:new 0 0 874 392;" xml:space="preserve">
<style type="text/css">
	.st0{fill:#FEFEFE;}
	.st1{fill:#0BC5F2;}
	.st2{fill:#09094C;}
	.st3{fill:#0CC5F2;}
	.st4{fill:#08084B;}
	.st5{fill:#0C0C4F;}
	.st6{fill:#0A0A4D;}
	.st7{fill:#06064A;}
	.st8{fill:#0AC5F2;}
	.st9{fill:#7D6438;}
	.st10{fill:#DCCA93;}
	.st11{fill:#A48C4F;}
	.st12{fill:#B79D6A;}
	.st13{fill:#2D4E91;}
	.st14{fill:#9CAFA7;}
	.st15{fill:#ECECF1;}
	.st16{fill:#265296;}
	.st17{fill:#2778B1;}
	.st18{fill:#7AC0E5;}
	.st19{fill:#465681;}
	.st20{fill:#C9BA7D;}
	.st21{fill:#FAFAFB;}
	.st22{fill:#EDE3B8;}
	.st23{fill:#363A82;}
	.st24{fill:#0B78B5;}
	.st25{fill:#59B2DB;}
	.st26{fill:#0999CF;}
	.st27{fill:#339BCD;}
	.st28{fill:#1B5DA2;}
	.st29{fill:#97CFEC;}
</style>
<g>
	<g>
		<path class="st0" d="M933,542c-330.67,0-661.33,0-992,0c0-236.33,0-472.67,0-709c330.67,0,661.33,0,992,0
			C933,69.33,933,305.67,933,542z M469.99,119.99c0.02-0.35,0.05-0.7,0.07-1.05c-0.94-0.74-1.88-1.48-2.82-2.22
			c-1.14-1.26-2.29-2.51-3.25-3.57c0.81-1.92,1.48-3.5,2.14-5.08l-0.11,0c0.32-0.36,0.63-0.71,0.95-1.07c1.31-1.5,5.74-1.06,3.08-5
			c0.54-1.55,1.08-3.1,1.41-4.07c-1.08-1.02-2.04-1.91-2.67-2.5c-1.77,0.64-3.37,1.23-4.98,1.81c-0.29,1.58-1.36,2.6-2.15,3.82
			c-0.26,0.4,0.24,1.29,0.39,1.96c-0.18,1.54-0.36,3.09-0.55,4.79c0.96,0.06,1.91,0.12,2.86,0.18c-2.37,0.35-4.82,1.21-7.08,0.85
			c-1.12-0.18-1.9-2.57-2.83-3.97c1.41-0.03,2.82-0.04,4.23-0.14c0.16-0.01,0.29-0.5,0.41-0.73c-1.37-0.32-2.74-0.64-4.12-0.96
			c-1-0.14-2.01-0.27-3.01-0.41c-0.2-0.04-0.38-0.13-0.52-0.28c0.19-0.4,0.39-0.81,0.58-1.21c0.3-1.04,0.61-2.08,0.91-3.13
			c0.9-1.77,1.8-3.55,2.7-5.32c-0.31-0.18-0.62-0.36-0.93-0.54c-1.16,1.63-2.32,3.26-3.36,4.72c-2.57-0.36-4.85-0.67-7.13-0.99
			c0.67-1.78,1.33-3.56,1.84-4.93c-4.55-0.86-4.3-4.49-4.41-7.89c0.13-1.03,0.26-2.06,0.39-3.08c0.68,0.57,1.37,1.14,2.62,2.18
			c-0.48-4.05-0.87-7.29-1.36-11.4c-3.95,6.25-7.94,3.69-12.29,1.2c0,3.48,0,6.26,0,9.04c-6.43,0.73-10.48,4.99-15.89,9.83
			c6.19-2.73,10.96-4.83,15.74-6.93c0.67,0.03,1.33,0.07,2,0.1c0.38,0.36,0.75,0.72,1.13,1.08c-0.15,0.61-0.31,1.23-0.46,1.84
			c-1.64,1.47-3.28,2.95-5.13,4.61c2.27,2.76,0.45,4.28-2.3,5.44c-0.75,0.29-1.51,0.57-2.26,0.86c-0.6,0.04-1.19,0.08-1.79,0.12
			c-0.35-0.31-0.71-0.63-1.06-0.94c-0.25-1.47-0.49-2.94-0.74-4.42c-0.31,0.03-0.62,0.06-0.93,0.09c-0.28,1.94-0.55,3.89-0.93,6.52
			c-2.27,0.33-4.86,0.7-7.45,1.07c0-1.34,0-2.68,0-4.33c-2.82,0-5.77,0-8.53,0c0.99,6.37,3.5,11.18,7.56,15.15
			c-0.32,1.35-0.63,2.71-0.95,4.06c-0.3,0.31-0.61,0.62-0.91,0.94c-0.37,0.32-0.74,0.63-1.11,0.95l0.07-0.05
			c-0.6,0.39-1.2,0.78-1.8,1.16l-0.07,0.1c-2.36,0.78-2.01,1.73-0.16,2.76c0,0-0.05-0.06-0.05-0.06c-0.49,1.9-0.75,3.9-1.52,5.68
			c-0.94,2.17-2.3,4.17-3.48,6.24c-0.34,0.45-0.67,0.89-1.01,1.34c-0.66,0.92-1.31,1.85-1.97,2.77c-1,1.67-1.99,3.35-2.99,5.02
			c-2.5,1.96-5,3.92-7.5,5.88c-0.53-0.39-1.05-0.78-1.58-1.18c-0.78,5.39-1.62,10.78-2.28,16.18c-0.07,0.59,0.89,1.3,1.37,1.95
			c1.96,0.36,3.92,0.73,5.89,1.09l0.03-0.02c-0.26,0.35-0.51,0.71-0.77,1.06c0.01,1.26,0.03,2.52,0.04,3.77
			c1.25,6.85,2.5,13.7,3.79,20.8c-2.31,1.39-6.55,2.46-2.43,6.76c0.4,0.62,0.81,1.25,1.21,1.87c0.28,0.38,0.57,0.77,0.85,1.15
			c0.3,0.35,0.59,0.7,0.89,1.05c0.38,0.64,0.76,1.27,1.14,1.91c0.3,0.36,0.6,0.72,0.9,1.08c0.4,0.61,0.8,1.21,1.2,1.82
			c0.31,0.35,0.63,0.71,0.94,1.06c0.32,0.36,0.64,0.71,0.96,1.07c0.85-0.04,1.69-0.07,2.54-0.11c0.35-0.32,0.7-0.64,1.05-0.96
			c0.34-0.33,0.68-0.65,1.03-0.98c0.26,0,0.47-0.11,0.62-0.33c0.55,0.29,1.11,0.58,1.66,0.87c0.33,0.2,0.66,0.41,1,0.61
			c0.47,0.19,0.94,0.38,1.42,0.57c0.71,0.65,1.41,1.3,2.12,1.96c1.34,0.99,2.68,1.98,4.03,2.97c4.53,2.13,9.06,4.26,13.59,6.39
			c0,2.09,0,4.17,0,7.75c5.98-0.64,11.63-1.24,17.29-1.84c0.35-0.06,0.69-0.12,1.04-0.18c0.37-1.92,0.75-3.85,1.12-5.77
			c0.75-0.21,1.5-0.43,2.24-0.64c3.64-1.66,8.44-1.55,9.91-6.51c0.28-0.36,0.57-0.71,0.85-1.07c1.92-1.38,3.84-2.77,5.76-4.15
			c1.39-0.3,2.77-0.6,4.16-0.9c0.47,0.22,0.95,0.44,1.42,0.65c0.28,0.27,0.57,0.54,0.85,0.81c1.38,2.03,2.76,2.48,4.15,0.01
			c1.02-1.32,2.04-2.64,3.06-3.95c1.8-2.86,3.61-5.73,5.41-8.59c1.21-3.84-2.46-2.87-3.98-4.02c0.06-1.26,0.13-2.52,0.19-3.77
			c1.89-7.56,3.78-15.12,5.73-22.92c1.31-0.17,3.04-0.38,5.33-0.67c-0.53-3.7-1.02-7.07-1.51-10.45c-0.6-2.81-1.21-5.63-1.89-8.84
			c-4.58,2.09-6.35,0.2-7.92-3.4c-1.41-3.21-3.93-5.93-5.96-8.87l0.03,0.02c-0.32-0.36-0.64-0.73-0.96-1.09l0.03,0.04
			c-0.41-0.62-0.82-1.23-1.23-1.85l0,0c-0.3-0.37-0.6-0.73-0.9-1.1l0.02,0.03c-0.33-0.36-0.65-0.71-0.98-1.07l0.03,0.03
			c-0.33-0.36-0.65-0.72-0.98-1.07l0.03,0.03c-0.3-0.38-0.59-0.76-0.89-1.14l0.02,0.05c-0.24-0.47-0.49-0.93-0.73-1.4
			c-0.07-0.17-0.18-0.3-0.34-0.4c0.31-1.02,0.61-2.03,0.92-3.05C469.36,120.69,469.67,120.34,469.99,119.99z M330.66,167.34
			c-2.25-0.84-3.54,0.13-2.66,2.24c0.69,1.65,2.46,2.89,3.84,4.22c0.89,0.86,2.89,1.72,2.78,2.3c-1.31,7.35,3.69,15.59-3.13,22.21
			c-0.7,0.68-0.36,2.42-0.51,3.67c6.22,0,11.98,0,18.87,0c-1.12-2.07-1.89-3.49-2.66-4.92c-0.67-1.24-1.79-2.43-1.94-3.73
			c-2.16-18.8,5.1-34.4,16.6-48.58c0.8-0.99,0.91-2.53,1.37-3.9c-5.39,0-10.12,0-15.66,0c0.82,1.86,1.47,3.09,1.91,4.39
			c0.37,1.11,1.02,2.51,0.66,3.43c-2.19,5.52-4.64,10.93-7.27,17.01c-1.54-2.86-2.82-4.94-3.81-7.14c-2.34-5.19-7.61-9.86-3.1-16.38
			c0.19-0.27-0.18-0.92-0.29-1.39c-6.32,0-12.58,0-19.2,0c5.23,8.85,10.24,17.3,15.24,25.76
			C331.36,166.79,331.01,167.07,330.66,167.34z M605.86,292.68c0.36,0.28,0.73,0.56,1.09,0.83c-1.42,1.86-2.54,4.13-4.33,5.53
			c-11.36,8.85-19.77,19.89-23.92,33.66c-1.58,5.25-2.07,11.15-1.54,16.61c0.57,5.84,6.6,7.41,10.8,3.25
			c1.98-1.96,3.9-4.28,4.95-6.82c5.69-13.81,11.1-27.74,16.62-41.62c0.61-1.53,0.83-3.56,1.96-4.47
			c7.86-6.36,15.68-12.85,26.62-13.23c1.36-0.05,2.65-2.18,3.97-3.34c-1.35-1.36-2.68-3.84-4.04-3.86
			c-2.69-0.03-5.59,0.92-8.07,2.13c-5.32,2.59-10.44,5.6-16.43,8.86c1.53-5.27,3.15-9.79,4.05-14.45c0.33-1.69-1.07-3.71-1.68-5.58
			c-1.33,1.06-2.98,1.88-3.93,3.21c-3.37,4.71-6.27,9.77-9.84,14.32c-1.4,1.78-4.1,2.55-6.72,4.08c-1.36-6.87,0.99-11.66,3.36-16.42
			c1.28-2.58,2.33-5.19-1.12-6.72c-3.57-1.58-3.91,1.78-5.13,3.79c-5.08,8.36-10.15,16.73-15.39,24.99
			c-0.97,1.53-2.74,2.55-4.14,3.8c-0.41-0.19-0.83-0.39-1.24-0.58c0.22-2.36-0.07-4.91,0.74-7.04c3.13-8.23,6.51-16.37,10.07-24.43
			c0.49-1.11,2.45-2.18,3.77-2.22c11.8-0.39,23.62-0.48,35.42-0.84c1.47-0.04,2.9-1.14,4.35-1.75c-1.23-1.19-2.38-3.3-3.7-3.41
			c-5.29-0.47-10.63-0.47-15.95-0.36c-6.39,0.13-12.78,0.56-19.82,0.89c1.19-2.43,2.46-4.11,2.77-5.96
			c0.25-1.52-0.65-3.23-1.04-4.85c-1.48,0.63-3.36,0.9-4.35,1.98c-1.42,1.55-2.35,3.63-3.19,5.61c-1.38,3.26-3.52,4.62-7.2,4.87
			c-8.46,0.58-16.92,1.57-25.31,2.82c-1.57,0.24-2.84,2.48-4.25,3.8c1.43,1.14,2.76,3.06,4.3,3.24c2.54,0.3,5.25-0.37,7.83-0.9
			c5.92-1.22,11.81-2.6,17.71-3.91c0.25,0.44,0.5,0.89,0.76,1.33c-5.97,10.32-11.43,20.99-20.41,29.41
			c-0.32-1.66-0.39-3.19,0.11-4.5c1.73-4.5,3.88-8.84,5.39-13.4c0.56-1.71-0.22-3.86-0.38-5.81c-1.75,0.75-3.79,1.17-5.2,2.34
			c-2.28,1.89-3.86,4.72-6.28,6.31c-2.19,1.43-5.17,2.38-7.7,2.17c-0.9-0.07-1.3-4.25-2.22-6.43c-0.7-1.66-1.85-3.14-2.8-4.7
			c-1.43,1.27-3.4,2.26-4.2,3.85c-3.47,6.86-6.59,13.89-9.84,20.85c-0.65-0.2-1.3-0.4-1.95-0.6c1.23-8.15,2.61-16.29,3.59-24.47
			c0.23-1.94-0.85-4.04-1.32-6.06c-1.77,0.89-4.21,1.31-5.2,2.73c-4.92,7.1-9.45,14.48-14.15,21.74c-1.15,1.78-2.42,3.49-3.63,5.23
			c-0.54-0.25-1.07-0.49-1.61-0.74c1.18-5.64,2.52-11.25,3.46-16.92c0.34-2.05-0.27-4.25-0.45-6.38c-2.11,0.85-5.12,1.1-6.17,2.67
			c-4.52,6.75-8.48,13.88-12.62,20.88c-0.82,1.39-1.58,2.81-2.36,4.22c-0.69-0.29-1.37-0.58-2.06-0.86
			c3.17-10.26,6.3-20.53,9.59-30.75c0.28-0.88,1.61-1.95,2.52-2.03c11.89-1,23.79-1.92,35.71-2.62c2.26-0.13,5.2,1.28,5.34-2.16
			c0.04-1.09-3.06-3.21-4.81-3.3c-5.3-0.28-10.65,0.04-15.95,0.44c-6.21,0.47-12.4,1.28-19.27,2.01c2.14-4.35,4.06-7.83,5.53-11.49
			c0.41-1.03-0.13-3.31-0.92-3.72c-0.99-0.53-2.96-0.13-4.01,0.59c-1.13,0.78-2.13,2.3-2.43,3.66c-2.61,12-11.34,13.85-21.61,13.3
			c-0.83-0.04-1.67,0.02-2.5-0.01c-3.24-0.14-6.58,0.23-6.29,4.38c0.31,4.36,4.12,3.59,7,3.39c2.3-0.16,4.56-0.94,6.85-1.37
			c2.54-0.48,5.1-0.87,8.15-1.39c-1.51,4.63-3.17,8.49-4.01,12.52c-1.45,6.97-2.65,14.01-3.43,21.08c-0.33,3-0.12,7.26,3.93,7.4
			c2.28,0.08,5.08-2.38,6.87-4.39c1.82-2.04,2.7-4.92,3.95-7.46c1.13-2.27,2.21-4.57,3.32-6.86c0.97,2.93,0.51,5.66,1.12,8.13
			c0.5,2.03,1.98,4.89,3.57,5.31c1.9,0.5,5.2-0.56,6.44-2.11c3.41-4.25,6.07-9.1,9.01-13.72c1.08-1.7,2.14-3.41,3.95-6.3
			c-0.3,6.76-1.05,11.94-0.53,16.98c0.26,2.5,2.4,5.83,4.56,6.75c1.43,0.61,5.11-1.86,6.54-3.85c3.03-4.23,5.25-9.04,8.02-13.99
			c4.16,7.09,9.68,4.06,15.44,1.96c-0.21,2.59-0.83,4.78-0.43,6.77c0.5,2.54,1.35,6.51,2.92,6.98c2.19,0.66,5.61-0.77,7.74-2.34
			c2.75-2.03,4.75-5.07,7.5-8.16c0.08,5.1-1,10.29,4.22,12.02c5.2,1.73,8.07-2.82,11.02-6.11c2.55-2.83,4.79-5.93,7.2-8.95
			C593.67,298.39,593.97,298.41,605.86,292.68z M170.56,140.7c-0.52,0.28-1.04,0.55-1.56,0.83c8.56,7.85,3.65,17.38,5.13,26.41
			c-2.09-0.34-3.6-0.58-7.01-1.13c9.82,11.77,8.87,23.25,2.47,35.16c5.34,0,9.73,0,15.46,0c-8.26-11.96-2.87-24.5-4.66-36.58
			c0.44-0.06,0.88-0.12,1.31-0.18c4.31,12.57,8.62,25.15,12.93,37.72c0.44-0.03,0.89-0.06,1.33-0.09
			c4.77-13.45,9.53-26.91,14.3-40.36c0.72,8.69,0.75,17.16,0.7,25.64c-0.02,3.53,0.95,7.31-3.04,9.8c-0.79,0.49-0.6,2.58-0.87,3.99
			c6.42,0,12.17,0,18.29,0c-0.24-1.6,0.01-3.64-0.69-4.03c-3.81-2.18-2.76-5.67-2.78-8.84c-0.06-11.99-0.05-23.99,0-35.98
			c0.01-3-0.97-6.29,2.66-8.36c0.72-0.41,0.45-2.57,0.62-3.86c-6.69,0-12.74,0-19.56,0c1.21,2.88,3.48,5.57,2.89,7.32
			c-3.14,9.48-6.98,18.73-11.06,29.28c-3.19-8.98-5.85-16.65-8.65-24.26c-1.19-3.22-3.09-6.27,0.2-9.46
			c0.49-0.48-0.11-2.07-0.19-3.03C182.45,140.7,176.51,140.7,170.56,140.7z M325.16,297.28c0.33,0.12,0.66,0.23,0.99,0.35
			c-0.45,3.27-1.27,6.54-1.22,9.81c0.03,2.32,0.62,6.04,2.03,6.65c3.51,1.52,4.4-2.22,5.76-4.61c2.64-4.61,5.1-9.36,8.14-13.7
			c2.13-3.04,4.52-6.26,9.17-5.97c0.88,0.05,2.74-1.65,2.61-2.16c-0.36-1.4-1.59-3.72-2.35-3.68c-2.99,0.18-6.12,0.72-8.84,1.93
			c-2.27,1.01-4.04,3.13-7.02,5.58c0.3-2.78,0.75-4.37,0.56-5.89c-0.27-2.1-1.03-4.14-1.58-6.21c-1.99,1.15-4.7,1.82-5.84,3.53
			c-4.61,6.91-8.73,14.14-13.06,21.24c-0.94,1.54-1.96,3.04-2.94,4.55c-0.52-0.23-1.04-0.45-1.56-0.68
			c1.54-6.41,3.27-12.78,4.51-19.24c0.37-1.93-0.58-4.12-0.93-6.2c-1.96,0.79-4.77,1.01-5.74,2.46c-4.42,6.61-8.35,13.55-12.41,20.4
			c-1.23,2.07-2.3,4.24-4.06,7.54c-0.2-2.02-0.44-2.65-0.29-3.18c2.65-9.59,5.29-19.18,8.13-28.71c0.27-0.92,1.82-1.96,2.87-2.07
			c13.72-1.43,27.46-2.72,41.2-3.98c2.36-0.22,5.69,0.9,5.43-3.04c-0.23-3.57-3.47-3.01-5.87-2.82c-9.45,0.74-18.89,1.63-28.33,2.46
			c-3.56,0.31-7.13,0.61-11.85,1.02c2.41-4.87,4.49-8.62,6.07-12.56c0.47-1.17-0.45-2.89-0.74-4.36c-1.47,0.45-3.36,0.48-4.32,1.44
			c-1.35,1.35-2.36,3.29-2.92,5.15c-2.54,8.44-7.28,13.73-16.89,12.68c-0.47-0.05-1.08,0.02-1.45,0.28
			c-1.27,0.9-2.47,1.92-3.69,2.89c1.38,0.93,2.68,2.47,4.16,2.68c3,0.42,6.1,0.13,9.67,0.13c-0.83,2.5-1.64,4.49-2.14,6.56
			c-1.73,7.09-3.75,14.15-4.85,21.34c-0.59,3.85-1.4,9.19,3.73,10.75c5.22,1.59,6.88-3.49,8.97-6.92c1.93-3.17,3.5-6.56,5.22-9.86
			c0.9,2.06,0.83,3.81,0.91,5.55c0.15,3.48-0.1,7.4,4.22,8.62c4.06,1.14,6.03-1.95,7.79-4.84
			C319.38,307.25,322.25,302.25,325.16,297.28z M75.92,211.07c-2.58-2.39-5.62-3.93-5.6-5.44c0.04-3.89,3.7-3.36,6.47-3.43
			c4.66-0.11,9.35,0.11,13.98-0.29c7.53-0.65,14.2-3.4,16.94-11.04c1.15-3.23,1.6-7.62,0.31-10.58c-1.76-4.03-5.49-7.2-8.34-10.69
			c6.79-4.6,9.44-9.84,7.83-16.64c-1.64-6.95-7.26-11.45-16.4-12.1c-6.92-0.49-13.9-0.1-22.37-0.1c6.81,8.67,3.76,17.98,4.46,27.18
			c-1.91-0.34-3.28-0.58-5.76-1.03c0.9,2.35,1.08,4.78,2.17,5.31c4.12,1.98,3.58,5.4,3.54,8.81c-0.03,2.67-0.23,5.36,0.04,7.99
			c0.54,5.3-0.17,9.52-6.61,10.38c-1.04,0.14-2.58,1.02-2.83,1.87c-0.84,2.87-2.4,6.39-1.4,8.68c0.97,2.24,4.63,4.28,7.29,4.53
			C71.79,214.67,74.19,212.09,75.92,211.07z M668.25,202.28c6.73,0,12.31,0,19.71,0c-7.98-9.05-3.95-18.75-4.98-27.93
			c4.37,0,8.1,0,11.99,0c0,3.14,0.21,5.98-0.04,8.77c-0.5,5.47,2.24,11.68-3.55,16.06c-0.46,0.35-0.06,1.85-0.06,3.1
			c5.92,0,11.65,0,17.96,0c-0.41-1.65-0.65-3.04-1.09-4.37c-0.82-2.47-2.45-4.9-2.51-7.37c-0.27-11.82-0.15-23.65-0.1-35.48
			c0.02-3.68-1.04-7.65,2.9-10.4c0.69-0.48,0.39-2.38,0.54-3.53c-6.2,0-11.93,0-18.96,0c7.79,8.64,4,18.12,5.03,27.17
			c-4.29,0-7.93,0-12.14,0c0.83-9.16-2.37-18.53,4.53-27.27c-6.89,0-12.49,0-19.52,0c6.71,8.57,4.06,17.8,4.47,27.1
			c-2.1-0.3-3.47-0.5-6.77-0.98C675.4,178.83,674.36,190.27,668.25,202.28z M769.08,172.26c1.28-0.89,1.8-1.25,2.33-1.61
			c6.42-4.39,8.49-10.1,6.66-18.29c-1.38-6.17-6.34-10.67-13.66-11.17c-7.41-0.5-14.88-0.11-23.73-0.11
			c7.25,8.44,4.15,17.7,4.79,26.94c-1.25-0.2-2.01-0.34-2.77-0.43c-0.75-0.08-1.51-0.11-4.09-0.28c10.28,11.49,8.27,23.1,2.81,34.96
			c6.63,0,12.36,0,19.77,0c-8.02-8.94-4.25-18.74-4.44-28.38c5.22,2.77,4.71,8.76,7.07,13.07c2.75,5.01,2.71,10.1-0.34,15.39
			c7,0,12.96,0,19.15,0C778.1,192.3,773.68,182.48,769.08,172.26z M263.12,170.21c7.9-3.37,10.87-8.99,9.8-16.64
			c-0.84-5.99-6.31-11.61-13.45-12.27c-8-0.74-16.13-0.17-24.19-0.17c1.16,4.06,2.85,8.16,3.4,12.4c0.6,4.68,0.14,9.49,0.14,14.35
			c-2.27-0.27-3.79-0.45-7.23-0.86c10.54,11.61,9.09,23.16,2.64,35.64c9.48-0.53,17.82-0.45,25.97-1.62
			c7.91-1.14,13.01-6.9,13.85-13.71C275.05,179.21,272.33,174.73,263.12,170.21z M408.99,286.87c0.63-4.04,1.53-7.95,1.69-11.88
			c0.05-1.28-1.87-2.64-2.88-3.96c-1.26,1.02-3.39,1.86-3.65,3.09c-2.25,10.56-4.32,21.16-6.01,31.83c-0.3,1.91,1.44,4.13,2.24,6.21
			c1.66-1.53,3.83-2.77,4.88-4.63c2.43-4.32,4-9.13,6.51-13.38c2.11-3.56,5.35-6.14,10.32-6.56c-1.53,3.33-3.01,6.07-4.07,8.97
			c-1.57,4.3-1.67,8.65,2,12.02c3.61,3.32,7.89,2.46,11.66,0.44c3.73-2,7.06-4.73,10.56-7.13c3.33,7.2,6.59,6.98,15.61-1.23
			c0.12,2.73-0.2,5.45,0.51,7.86c0.43,1.44,2.51,3.42,3.81,3.39c4.01-0.09,7.22-7.08,5.32-11.38c-1.12,0.61-2.22,1.21-3.32,1.8
			c-0.37-0.23-0.73-0.47-1.1-0.7c2.06-6.61,3.96-13.28,6.25-19.81c1.01-2.89,1.63-6-1.96-6.25c-7.09-0.49-13.74,0.86-18.09,7.74
			c-2.92,4.62-6.25,9.1-10.05,13c-2.81,2.88-6.52,5.04-10.17,6.86c-1.34,0.67-3.64-0.59-5.51-0.96c0.04-0.59,0.08-1.19,0.12-1.78
			c1.33-0.54,2.67-1.05,3.98-1.63c5.98-2.64,10.9-6.51,13.5-12.66c2.07-4.91-1.65-10.12-6.04-7.99c-5.78,2.8-11.41,3.48-17.55,3.92
			C414.68,282.27,411.97,285.11,408.99,286.87z M113.2,166.97c0.61,2.07,0.62,4.4,1.56,4.87c4.79,2.4,4.07,7.05,5.11,11
			c0.55,2.08,1.04,4.2,1.85,6.17c3.34,8.12,8.72,13.86,18.12,13.96c9.17,0.1,14.78-5.34,18.17-13.2c5.03-11.7,4.73-23.7,0.62-35.54
			c-3.35-9.66-10.22-14.41-19.39-14.24c-8.53,0.16-15.14,5.53-18.15,15.19c-1.26,4.06-1.88,8.32-2.81,12.58
			C116.8,167.53,115.42,167.31,113.2,166.97z M785.98,141.01c6.39,8.61,3.51,17.84,4.24,26.94c-1.94-0.18-3.45-0.32-6.71-0.62
			c4.24,5.87,8.24,10.58,6.72,17.3c-1.32,5.82-1.78,11.84-2.64,17.92c5.33,0,10.64-0.03,15.96,0.01c3.82,0.02,7.68-0.12,11.45,0.35
			c1.12,0.14,2.02,2.07,3.02,3.19c-1.1,0.94-2.14,1.98-3.33,2.78c-0.53,0.35-1.38,0.21-2.29,0.32c0.98,4.2,3.64,5.48,7.11,5.27
			c3.66-0.22,6.48-2.11,7.33-5.73c1.47-6.31-2.69-9.25-7.66-11.2c1.18-3.62,2.24-6.89,3.3-10.14c-4.36-3.12-5.97,0.31-7.64,2.79
			c-3.29,4.87-7.02,8.43-13.42,6.47c0-7.61,0-15.05,0-22.07c6.58-4.88,8.35,4.02,13.34,4.42c0-5.87,0-11.34,0-17.24
			c-5.17,1.11-6.84,9.67-13.55,5.38c0-5.92,0.11-11.92-0.04-17.91c-0.09-3.5,1.77-5,4.52-3.6c3.05,1.55,5.88,3.93,8.1,6.56
			c1.91,2.26,3.29,4.17,6.68,2.26c-0.66-4.43-1.34-8.95-2.01-13.45C807.63,141.01,797.37,141.01,785.98,141.01z M324.22,201.92
			c-0.6-1.67-0.74-3.74-1.58-4.09c-4.2-1.74-4.32-5.64-5.25-9.05c-4.12-15.07-8.24-30.14-12.09-45.28
			c-0.91-3.57-2.52-4.25-5.66-3.17c-3.51,1.2-8.07,1.55-5.18,7.29c0.18,0.36-0.06,0.98-0.2,1.45c-1.84,6.34-3.7,12.67-5.59,19.16
			c-1.97-0.47-3.49-0.84-6.32-1.52c7.08,13.97-0.43,24.36-7.51,35.23c5.83,0,10.58,0,16.24,0c-0.89-1.89-1.95-3.21-2.08-4.61
			c-0.25-2.63-0.36-5.43,0.32-7.93c0.26-0.95,2.81-1.69,4.37-1.79c3.95-0.25,7.92-0.08,13.42-0.08c-0.7,5.23-1.3,9.72-1.92,14.38
			C311.03,201.92,317.26,201.92,324.22,201.92z M605.8,175.14c2.5-0.25,4.47-0.34,6.41-0.65c9.38-1.49,14.83-7.24,14.98-15.72
			c0.17-9.54-4.59-15.97-14.31-17.27c-6.99-0.93-14.19-0.18-22.68-0.18c7.09,8.29,3.94,17.58,4.68,26.87
			c-2.1-0.37-3.45-0.6-6.74-1.18c9.41,11.87,8.6,23.4,2.53,35.27c6.7,0,12.44,0,19.6,0C603.54,193.67,606.47,184.43,605.8,175.14z
			 M552.19,167.29c-0.51,0.25-1.01,0.5-1.52,0.76c0.7,1.78,1.35,3.58,2.13,5.32c0.44,0.97,1.81,2.15,1.56,2.72
			c-3.06,7.13-1.49,16.01-8.25,21.81c-0.94,0.81-0.87,2.79-1.32,4.41c5.17,0,9.6,0,14.81,0c-1.81-4.9-4.62-9.56-0.67-14.45
			c2.49,0,5.16-0.19,7.79,0.06c1.95,0.18,5.25,0.57,5.49,1.5c0.72,2.8,3.73,6.04-0.24,8.96c-0.76,0.56-0.66,2.3-1.05,3.9
			c6.34,0,12.08,0,18.28,0c-0.16-1.41,0.12-3.43-0.52-3.78c-5.12-2.84-4.54-8.18-5.69-12.63c-3.67-14.14-7.09-28.35-10.57-42.54
			c-0.52-2.12-1.14-4.23-3.85-2.96c-2.6,1.23-7.26,3.44-7.06,4.44c1.7,8.68-3.78,15.53-4.59,23.73
			C554.93,168.02,553.56,167.66,552.19,167.29z M629.08,167.45c-0.57,0.18-1.14,0.36-1.71,0.54c9.77,10.98,8.17,22.54,2.17,34.34
			c6.68,0,12.46,0,19.82,0c-7.15-8.66-4.37-17.98-4.73-27.18c2.29-0.22,4.26-0.3,6.2-0.6c9.35-1.47,15.01-7.25,15.33-15.59
			c0.36-9.31-4.56-16.03-14.29-17.37c-7.09-0.97-14.43-0.19-23.3-0.19c8.35,8.11,4.24,17.49,5.38,26.67
			C631.86,167.8,630.47,167.63,629.08,167.45z M515.06,183.38c0,6.5,0,12.9,0,19.75c2.39-0.53,4.58-1.41,6.76-1.4
			c2.45,0.01,4.88,1.14,7.34,1.22c7.06,0.22,12.84-4.19,15-10.9c1.89-5.9,0.65-11.27-2.88-16.04c-3.66-4.94-7.96-9.41-11.57-14.38
			c-2.09-2.88-3.84-6.21-4.88-9.61c-1-3.26,0.88-5.91,4.21-6.84c3.35-0.93,5.93,0.36,7.1,3.75c0.7,2.03,0.82,4.33,1.81,6.18
			c0.85,1.58,2.57,2.68,3.9,3.99c0.38-0.35,0.77-0.69,1.15-1.04c0-5.95,0-11.9,0-17.85c-4.87,0-9.64-0.29-14.36,0.06
			c-9.36,0.69-15.41,8.21-13.58,17.16c0.69,3.38,2.79,6.48,4.18,9.55c-1.14,0.44-3.03,0.73-3.12,1.3c-0.17,1.09,0.4,2.61,1.21,3.44
			c0.99,1.02,2.45,1.92,3.83,2.16c7.45,1.29,10.63,6.95,12.99,13.02c0.86,2.2,0.54,5.4-0.44,7.62c-0.76,1.72-3.29,3.47-5.19,3.64
			c-1.62,0.15-4.03-1.52-5.05-3.07c-1.41-2.14-1.81-4.94-2.68-7.44C519.91,185.06,518.84,182.65,515.06,183.38z M271.92,285.54
			c-3.86-4.55-8.17-9.45-5.51-16.22c2.82-7.17,8.78-11.2,16.25-12.53c5.15-0.92,6.47,0.92,5.37,5.88c-0.24,1.09,0.72,2.45,1.13,3.68
			c1.4-0.54,3.35-0.67,4.12-1.7c3.67-4.91,1.07-11.39-4.91-12.78c-8.67-2.01-21.47,4.33-26.67,13.09
			c-2.72,4.59-3.51,9.43-1.52,14.33c1.52,3.75,3.78,7.21,5.68,10.73c-3.06,2.89-6.16,5.66-9.08,8.61c-5,5.05-8.8,10.82-10.07,17.98
			c-1.22,6.83,2.01,11.31,8.88,12.38c14.34,2.23,32.47-10.42,25.02-30.33c-1.63-4.36-5.84-8.33,0.38-13.23
			c-0.5-0.29-1.01-0.58-1.51-0.87C277.2,284.84,274.94,285.14,271.92,285.54z M359.45,301.67c0.34,11.18,7.49,17.38,17.13,14.15
			c9.76-3.26,15.47-11.13,20.36-19.61c0.5-0.86-0.2-2.42-0.35-3.65c-1.34,0.25-2.93,0.13-3.96,0.84c-1.32,0.9-2.1,2.55-3.26,3.73
			c-3.5,3.54-6.76,7.43-10.74,10.33c-2.05,1.49-6.1,2.38-8.02,1.31c-1.97-1.09-3.74-5.11-3.34-7.46c1.24-7.29,2.93-14.65,5.61-21.53
			c4.12-10.57,9.75-20.48,18.32-28.19c1.76-1.58,6.66-2.77,7.19-2.03c1.72,2.4,3.12,5.93,2.67,8.71c-0.4,2.45-3.5,4.42-5.27,6.71
			c-0.91,1.18-1.52,2.6-2.26,3.92c1.5,0.78,3.08,2.31,4.47,2.16c1.98-0.22,4.19-1.29,5.66-2.67c5.03-4.72,5.95-14.58,2.21-20.37
			c-3.11-4.82-8.89-6.47-13.97-3.73c-2.17,1.17-4.23,2.71-5.98,4.44c-12.37,12.21-20.53,26.86-24.92,43.63
			C360.2,295.39,359.95,298.56,359.45,301.67z M716.54,141c1.23,4.67,2.8,8.79,3.32,13.03c0.56,4.53,0.13,9.19,0.13,14.14
			c-1.25-0.2-2.02-0.33-2.8-0.45c-0.7-0.1-1.41-0.19-2.12-0.28c-0.52,0.17-1.03,0.34-1.55,0.52c9.83,10.98,8.19,22.51,2.31,34.21
			c6.69,0,12.56,0,18.97,0c-0.41-1.69-0.31-3.6-1.06-4.03c-3.77-2.15-2.86-5.6-2.87-8.8c-0.03-12.13-0.01-24.27-0.01-36.4
			c0-2.94-0.49-5.92,2.73-7.93c0.81-0.51,0.7-2.48,1.07-4.02C728.12,141,722.35,141,716.54,141z M324.51,264.71
			c0.03-0.73,0.06-1.45,0.09-2.18c-1.81-1.25-3.61-3.45-5.42-3.46c-1.58,0-3.17,2.47-4.75,3.85c1.47,1.69,2.72,4.4,4.47,4.76
			C320.49,268.01,322.61,265.8,324.51,264.71z M503.91,259.22c0.68,0.01,1.35,0.01,2.03,0.02c1.11-1.7,3.23-3.54,3.03-5.08
			c-0.21-1.61-2.48-3.77-4.17-4.1c-1.18-0.23-4.16,2.29-4.07,3.41C500.88,255.46,502.75,257.31,503.91,259.22z M838.88,198.13
			c-2.92-2.15-4.77-4.58-6.47-4.48c-1.78,0.11-3.41,2.65-5.1,4.12c1.63,1.76,3.04,4.52,4.97,4.95
			C833.72,203.04,835.84,200.37,838.88,198.13z M572.24,256.95c-3.24-1.9-5.15-3.92-6.72-3.68c-1.62,0.25-2.91,2.7-4.34,4.19
			c1.58,1.35,3.08,3.66,4.75,3.78C567.48,261.35,569.21,259.14,572.24,256.95z M446.91,81.94c-0.29,0.54-0.59,1.09-0.88,1.63
			c4.48,2.85,8.97,5.71,13.45,8.56C456.31,87.18,452.21,83.66,446.91,81.94z"/>
		<path class="st1" d="M605.86,292.68c-11.9,5.73-12.2,5.72-17.4-1.01c-2.41,3.02-4.66,6.12-7.2,8.95
			c-2.95,3.29-5.82,7.84-11.02,6.11c-5.22-1.74-4.14-6.92-4.22-12.02c-2.75,3.09-4.75,6.14-7.5,8.16c-2.13,1.57-5.54,3-7.74,2.34
			c-1.57-0.47-2.41-4.44-2.92-6.98c-0.4-1.99,0.23-4.18,0.43-6.77c-5.76,2.1-11.28,5.13-15.44-1.96c-2.77,4.96-4.98,9.77-8.02,13.99
			c-1.43,1.99-5.1,4.47-6.54,3.85c-2.16-0.92-4.3-4.25-4.56-6.75c-0.52-5.05,0.23-10.22,0.53-16.98c-1.81,2.88-2.87,4.6-3.95,6.3
			c-2.95,4.62-5.6,9.47-9.01,13.72c-1.24,1.55-4.54,2.6-6.44,2.11c-1.59-0.42-3.07-3.28-3.57-5.31c-0.61-2.46-0.15-5.19-1.12-8.13
			c-1.1,2.29-2.19,4.58-3.32,6.86c-1.26,2.53-2.13,5.41-3.95,7.46c-1.79,2.01-4.59,4.46-6.87,4.39c-4.06-0.14-4.27-4.4-3.93-7.4
			c0.79-7.07,1.98-14.12,3.43-21.08c0.84-4.03,2.5-7.9,4.01-12.52c-3.06,0.52-5.61,0.91-8.15,1.39c-2.29,0.43-4.54,1.21-6.85,1.37
			c-2.88,0.21-6.7,0.97-7-3.39c-0.29-4.15,3.05-4.52,6.29-4.38c0.83,0.03,1.67-0.03,2.5,0.01c10.27,0.55,19-1.29,21.61-13.3
			c0.3-1.36,1.3-2.88,2.43-3.66c1.05-0.72,3.01-1.12,4.01-0.59c0.79,0.42,1.33,2.7,0.92,3.72c-1.47,3.66-3.39,7.14-5.53,11.49
			c6.86-0.73,13.05-1.54,19.27-2.01c5.31-0.4,10.66-0.72,15.95-0.44c1.75,0.09,4.85,2.21,4.81,3.3c-0.14,3.44-3.09,2.03-5.34,2.16
			c-11.91,0.7-23.82,1.62-35.71,2.62c-0.92,0.08-2.24,1.15-2.52,2.03c-3.29,10.22-6.42,20.49-9.59,30.75
			c0.69,0.29,1.37,0.58,2.06,0.86c0.79-1.41,1.54-2.83,2.36-4.22c4.15-7,8.1-14.13,12.62-20.88c1.05-1.56,4.06-1.81,6.17-2.67
			c0.18,2.13,0.79,4.33,0.45,6.38c-0.94,5.68-2.28,11.29-3.46,16.92c0.54,0.25,1.07,0.49,1.61,0.74c1.21-1.74,2.48-3.45,3.63-5.23
			c4.7-7.26,9.23-14.64,14.15-21.74c0.99-1.43,3.43-1.85,5.2-2.73c0.48,2.02,1.56,4.12,1.32,6.06c-0.98,8.18-2.36,16.32-3.59,24.47
			c0.65,0.2,1.3,0.4,1.95,0.6c3.25-6.97,6.38-14,9.84-20.85c0.8-1.58,2.77-2.58,4.2-3.85c0.95,1.56,2.1,3.03,2.8,4.7
			c0.92,2.18,1.33,6.36,2.22,6.43c2.52,0.21,5.51-0.74,7.7-2.17c2.43-1.59,4-4.42,6.28-6.31c1.41-1.17,3.45-1.58,5.2-2.34
			c0.17,1.95,0.95,4.1,0.38,5.81c-1.5,4.56-3.66,8.91-5.39,13.4c-0.5,1.31-0.44,2.84-0.11,4.5c8.98-8.42,14.43-19.09,20.41-29.41
			c-0.25-0.44-0.5-0.89-0.76-1.33c-5.9,1.31-11.79,2.69-17.71,3.91c-2.58,0.53-5.29,1.2-7.83,0.9c-1.54-0.18-2.87-2.1-4.3-3.24
			c1.41-1.32,2.68-3.57,4.25-3.8c8.39-1.26,16.84-2.25,25.31-2.82c3.68-0.25,5.82-1.61,7.2-4.87c0.84-1.98,1.77-4.06,3.19-5.61
			c0.99-1.08,2.87-1.35,4.35-1.98c0.39,1.62,1.29,3.33,1.04,4.85c-0.31,1.85-1.58,3.53-2.77,5.96c7.04-0.33,13.43-0.75,19.82-0.89
			c5.32-0.11,10.66-0.11,15.95,0.36c1.32,0.12,2.47,2.22,3.7,3.41c-1.45,0.61-2.88,1.7-4.35,1.75c-11.81,0.36-23.62,0.45-35.42,0.84
			c-1.31,0.04-3.28,1.11-3.77,2.22c-3.55,8.06-6.94,16.2-10.07,24.43c-0.81,2.13-0.53,4.68-0.74,7.04c0.41,0.19,0.83,0.39,1.24,0.58
			c1.4-1.26,3.17-2.28,4.14-3.8c5.24-8.26,10.31-16.63,15.39-24.99c1.22-2.01,1.56-5.37,5.13-3.79c3.46,1.53,2.4,4.14,1.12,6.72
			c-2.37,4.76-4.71,9.56-3.36,16.42c2.62-1.53,5.32-2.3,6.72-4.08c3.57-4.54,6.47-9.61,9.84-14.32c0.95-1.33,2.6-2.16,3.93-3.21
			c0.61,1.87,2.01,3.89,1.68,5.58c-0.9,4.66-2.51,9.19-4.05,14.45c5.99-3.27,11.1-6.28,16.43-8.86c2.49-1.21,5.38-2.17,8.07-2.13
			c1.36,0.02,2.7,2.49,4.04,3.86c-1.32,1.16-2.61,3.29-3.97,3.34c-10.95,0.37-18.77,6.86-26.62,13.23
			c-1.12,0.91-1.35,2.95-1.96,4.47c-5.51,13.88-10.92,27.81-16.62,41.62c-1.04,2.53-2.97,4.86-4.95,6.82
			c-4.2,4.16-10.23,2.6-10.8-3.25c-0.53-5.46-0.04-11.37,1.54-16.61c4.15-13.77,12.56-24.81,23.92-33.66
			c1.79-1.4,2.9-3.66,4.33-5.53C606.59,293.23,606.23,292.96,605.86,292.68z M602.55,306.99c-10.82,10.1-18.21,22.09-20.34,36.95
			c-0.15,1.05,0.7,2.23,1.09,3.36c0.53,0.08,1.06,0.17,1.59,0.25C594,335.54,598.24,321.27,602.55,306.99z M606.76,291.52
			c-0.08-0.1-0.17-0.21-0.25-0.31c-0.1,0.09-0.19,0.19-0.29,0.28c0.13,0.11,0.26,0.22,0.38,0.32
			C606.66,291.71,606.71,291.61,606.76,291.52z"/>
		<path class="st2" d="M170.56,140.7c5.95,0,11.89,0,18.24,0c0.08,0.96,0.68,2.55,0.19,3.03c-3.28,3.19-1.38,6.24-0.2,9.46
			c2.8,7.61,5.46,15.28,8.65,24.26c4.08-10.55,7.92-19.8,11.06-29.28c0.58-1.75-1.68-4.45-2.89-7.32c6.82,0,12.86,0,19.56,0
			c-0.18,1.29,0.1,3.45-0.62,3.86c-3.63,2.07-2.65,5.36-2.66,8.36c-0.05,11.99-0.06,23.99,0,35.98c0.02,3.16-1.04,6.66,2.78,8.84
			c0.69,0.4,0.45,2.44,0.69,4.03c-6.12,0-11.87,0-18.29,0c0.27-1.41,0.08-3.5,0.87-3.99c3.99-2.49,3.02-6.27,3.04-9.8
			c0.05-8.48,0.02-16.95-0.7-25.64c-4.77,13.45-9.53,26.91-14.3,40.36c-0.44,0.03-0.89,0.06-1.33,0.09
			c-4.31-12.57-8.62-25.15-12.93-37.72c-0.44,0.06-0.88,0.12-1.31,0.18c1.79,12.08-3.6,24.62,4.66,36.58c-5.73,0-10.12,0-15.46,0
			c6.4-11.91,7.36-23.39-2.47-35.16c3.42,0.55,4.92,0.79,7.01,1.13c-1.48-9.03,3.43-18.56-5.13-26.41
			C169.52,141.25,170.04,140.97,170.56,140.7z"/>
		<path class="st3" d="M325.16,297.28c-2.92,4.97-5.78,9.97-8.77,14.89c-1.75,2.89-3.72,5.99-7.79,4.84
			c-4.33-1.22-4.07-5.13-4.22-8.62c-0.08-1.75-0.01-3.5-0.91-5.55c-1.73,3.29-3.29,6.69-5.22,9.86c-2.09,3.43-3.75,8.51-8.97,6.92
			c-5.13-1.56-4.33-6.89-3.73-10.75c1.11-7.19,3.12-14.25,4.85-21.34c0.5-2.07,1.31-4.06,2.14-6.56c-3.58,0-6.68,0.3-9.67-0.13
			c-1.48-0.21-2.78-1.74-4.16-2.68c1.23-0.97,2.42-1.99,3.69-2.89c0.37-0.26,0.98-0.33,1.45-0.28c9.61,1.05,14.35-4.24,16.89-12.68
			c0.56-1.86,1.57-3.8,2.92-5.15c0.96-0.96,2.85-0.99,4.32-1.44c0.28,1.47,1.21,3.2,0.74,4.36c-1.58,3.94-3.66,7.69-6.07,12.56
			c4.73-0.41,8.29-0.71,11.85-1.02c9.44-0.83,18.88-1.72,28.33-2.46c2.4-0.19,5.63-0.75,5.87,2.82c0.26,3.94-3.07,2.83-5.43,3.04
			c-13.74,1.26-27.48,2.55-41.2,3.98c-1.05,0.11-2.6,1.15-2.87,2.07c-2.84,9.53-5.48,19.13-8.13,28.71
			c-0.15,0.53,0.09,1.16,0.29,3.18c1.77-3.29,2.84-5.46,4.06-7.54c4.06-6.85,7.99-13.79,12.41-20.4c0.97-1.45,3.78-1.67,5.74-2.46
			c0.35,2.07,1.3,4.26,0.93,6.2c-1.25,6.46-2.97,12.84-4.51,19.24c0.52,0.23,1.04,0.45,1.56,0.68c0.98-1.52,2-3.01,2.94-4.55
			c4.32-7.1,8.44-14.34,13.06-21.24c1.14-1.71,3.85-2.38,5.84-3.53c0.55,2.07,1.31,4.11,1.58,6.21c0.19,1.51-0.26,3.11-0.56,5.89
			c2.99-2.45,4.76-4.57,7.02-5.58c2.72-1.21,5.85-1.75,8.84-1.93c0.76-0.05,2,2.28,2.35,3.68c0.13,0.51-1.73,2.21-2.61,2.16
			c-4.65-0.29-7.04,2.93-9.17,5.97c-3.04,4.34-5.5,9.09-8.14,13.7c-1.37,2.39-2.26,6.13-5.76,4.61c-1.41-0.61-2-4.33-2.03-6.65
			c-0.05-3.26,0.77-6.54,1.22-9.81C325.82,297.52,325.49,297.4,325.16,297.28z M335,291.06c-0.22-0.02-0.43-0.04-0.65-0.07
			c-0.02,0.51-0.05,1.03-0.07,1.54c0.17,0.01,0.33,0.03,0.5,0.04C334.86,292.07,334.93,291.56,335,291.06z"/>
		<path class="st4" d="M75.92,211.07c-1.72,1.02-4.13,3.6-6.27,3.4c-2.66-0.25-6.31-2.29-7.29-4.53c-0.99-2.29,0.57-5.81,1.4-8.68
			c0.25-0.85,1.78-1.73,2.83-1.87c6.44-0.85,7.15-5.08,6.61-10.38c-0.27-2.64-0.07-5.33-0.04-7.99c0.04-3.41,0.58-6.83-3.54-8.81
			c-1.09-0.52-1.27-2.95-2.17-5.31c2.48,0.44,3.85,0.69,5.76,1.03c-0.71-9.2,2.35-18.51-4.46-27.18c8.47,0,15.45-0.4,22.37,0.1
			c9.13,0.65,14.76,5.15,16.4,12.1c1.61,6.79-1.04,12.04-7.83,16.64c2.85,3.49,6.58,6.66,8.34,10.69c1.29,2.96,0.85,7.36-0.31,10.58
			c-2.73,7.65-9.41,10.39-16.94,11.04c-4.63,0.4-9.32,0.18-13.98,0.29c-2.77,0.07-6.43-0.46-6.47,3.43
			C70.3,207.14,73.34,208.68,75.92,211.07z M84.14,173.65c0,6.01-0.11,11.61,0.06,17.2c0.06,1.98,0.83,3.93,1.27,5.89
			c2.6-0.73,5.65-0.84,7.7-2.33c3.53-2.57,4.37-10.55,2.32-15.33C93.45,174.36,89.49,173.41,84.14,173.65z M84.18,167.66
			c6.6,0.86,10.28-1.39,11.66-6.82c1.64-6.49-0.75-13.3-5.53-15.11c-2.65-1-5.92-2.11-6.07,2.58
			C84.02,154.77,84.18,161.25,84.18,167.66z"/>
		<path class="st5" d="M668.25,202.28c6.11-12.01,7.15-23.45-2.6-35.13c3.31,0.48,4.67,0.68,6.77,0.98
			c-0.41-9.3,2.23-18.53-4.47-27.1c7.03,0,12.63,0,19.52,0c-6.9,8.74-3.7,18.1-4.53,27.27c4.21,0,7.85,0,12.14,0
			c-1.02-9.05,2.76-18.53-5.03-27.17c7.03,0,12.77,0,18.96,0c-0.15,1.15,0.15,3.05-0.54,3.53c-3.94,2.75-2.88,6.72-2.9,10.4
			c-0.05,11.83-0.17,23.66,0.1,35.48c0.06,2.47,1.69,4.89,2.51,7.37c0.44,1.33,0.69,2.72,1.09,4.37c-6.31,0-12.04,0-17.96,0
			c0-1.24-0.4-2.74,0.06-3.1c5.79-4.38,3.05-10.59,3.55-16.06c0.26-2.79,0.04-5.63,0.04-8.77c-3.89,0-7.62,0-11.99,0
			c1.02,9.18-3.01,18.88,4.98,27.93C680.56,202.28,674.98,202.28,668.25,202.28z"/>
		<path class="st6" d="M769.08,172.26c4.6,10.22,9.02,20.04,13.54,30.09c-6.19,0-12.15,0-19.15,0c3.05-5.29,3.09-10.39,0.34-15.39
			c-2.37-4.32-1.86-10.31-7.07-13.07c0.2,9.64-3.58,19.43,4.44,28.38c-7.41,0-13.14,0-19.77,0c5.46-11.85,7.47-23.47-2.81-34.96
			c2.58,0.17,3.34,0.2,4.09,0.28c0.76,0.09,1.52,0.23,2.77,0.43c-0.64-9.24,2.45-18.5-4.79-26.94c8.86,0,16.32-0.39,23.73,0.11
			c7.32,0.49,12.28,5,13.66,11.17c1.84,8.2-0.24,13.9-6.66,18.29C770.89,171.01,770.36,171.38,769.08,172.26z M756.02,168.47
			c6.28,0.41,9.24-1.58,10.66-6.85c1.66-6.18-0.61-13.71-4.73-15.6c-0.75-0.34-1.8-0.94-2.33-0.67c-1.32,0.69-3.4,1.76-3.45,2.75
			C755.87,154.89,756.02,161.7,756.02,168.47z"/>
		<path class="st7" d="M263.12,170.21c9.21,4.52,11.93,9.01,10.93,17.14c-0.84,6.81-5.94,12.57-13.85,13.71
			c-8.16,1.17-16.5,1.09-25.97,1.62c6.45-12.48,7.9-24.04-2.64-35.64c3.44,0.41,4.96,0.59,7.23,0.86c0-4.86,0.46-9.68-0.14-14.35
			c-0.54-4.24-2.24-8.34-3.4-12.4c8.06,0,16.18-0.57,24.19,0.17c7.14,0.66,12.61,6.28,13.45,12.27
			C273.99,161.22,271.02,166.83,263.12,170.21z M249.96,173.92c-0.15,0.29-0.43,0.57-0.43,0.86c-0.05,5.96,0.13,11.94-0.14,17.89
			c-0.22,4.71,2.25,4.87,5.63,3.89c5.07-1.47,7.94-7.74,6.69-14.43C260.54,175.88,256.8,173.26,249.96,173.92z M249.46,167.75
			c6.63,0.72,10.09-1.32,11.52-6.43c1.79-6.41-0.25-13.14-4.78-15.41c-1-0.5-2.43-1.16-3.25-0.8c-1.34,0.58-3.29,1.89-3.34,2.97
			C249.3,154.65,249.46,161.24,249.46,167.75z"/>
		<path class="st8" d="M408.99,286.87c2.98-1.76,5.69-4.61,8.59-4.81c6.14-0.44,11.77-1.12,17.55-3.92
			c4.39-2.13,8.11,3.08,6.04,7.99c-2.59,6.15-7.52,10.02-13.5,12.66c-1.31,0.58-2.66,1.09-3.98,1.63c-0.04,0.59-0.08,1.19-0.12,1.78
			c1.86,0.38,4.16,1.63,5.51,0.96c3.64-1.81,7.36-3.98,10.17-6.86c3.8-3.9,7.13-8.39,10.05-13c4.36-6.89,11-8.24,18.09-7.74
			c3.59,0.25,2.97,3.36,1.96,6.25c-2.29,6.53-4.19,13.2-6.25,19.81c0.37,0.23,0.73,0.47,1.1,0.7c1.1-0.6,2.2-1.19,3.32-1.8
			c1.9,4.3-1.31,11.29-5.32,11.38c-1.3,0.03-3.38-1.94-3.81-3.39c-0.72-2.41-0.39-5.13-0.51-7.86c-9.02,8.21-12.28,8.43-15.61,1.23
			c-3.5,2.41-6.84,5.14-10.56,7.13c-3.77,2.02-8.04,2.88-11.66-0.44c-3.67-3.37-3.56-7.71-2-12.02c1.05-2.9,2.54-5.64,4.07-8.97
			c-4.97,0.42-8.22,3-10.32,6.56c-2.52,4.25-4.09,9.06-6.51,13.38c-1.05,1.87-3.22,3.11-4.88,4.63c-0.8-2.08-2.54-4.31-2.24-6.21
			c1.69-10.66,3.76-21.27,6.01-31.83c0.26-1.23,2.39-2.07,3.65-3.09c1.02,1.32,2.93,2.68,2.88,3.96
			C410.53,278.92,409.62,282.83,408.99,286.87z M461.62,282.67c-6.7,1.38-12.72,10.7-11.67,18
			C454.3,293.96,457.96,288.31,461.62,282.67z M436.5,284.69c-0.94-0.96-1.89-1.92-2.83-2.88c-3.11,2.91-6.21,5.83-9.32,8.74
			c0.95,0.97,1.9,1.93,2.85,2.9C430.3,290.53,433.4,287.61,436.5,284.69z"/>
		<path class="st4" d="M113.2,166.97c2.22,0.35,3.6,0.56,5.08,0.79c0.93-4.26,1.55-8.52,2.81-12.58
			c3.01-9.66,9.62-15.03,18.15-15.19c9.17-0.17,16.04,4.58,19.39,14.24c4.11,11.84,4.41,23.85-0.62,35.54
			c-3.38,7.86-8.99,13.29-18.17,13.2c-9.4-0.1-14.78-5.84-18.12-13.96c-0.81-1.98-1.3-4.1-1.85-6.17c-1.04-3.95-0.32-8.6-5.11-11
			C113.82,171.37,113.81,169.04,113.2,166.97z M148.49,167.89c0.6-0.25,1.21-0.49,1.81-0.74c-1.62-6.14-2.56-12.56-5.05-18.32
			c-2.45-5.66-7.47-5.35-10.46,0.05c-0.87,1.57-1.8,3.35-1.91,5.08c-0.57,9.57-1.24,19.15-1.11,28.72
			c0.05,3.81,1.57,7.85,3.31,11.33c2.58,5.14,7.33,5.29,9.79,0.13c2.16-4.54,3.03-9.73,4.22-14.69c0.63-2.63,0.51-4.95-2.67-6.54
			c-1.44-0.72-1.87-3.46-3.28-6.35C146.01,167.27,147.25,167.58,148.49,167.89z"/>
		<path class="st2" d="M785.98,141.01c11.39,0,21.65,0,32.46,0c0.67,4.5,1.35,9.02,2.01,13.45c-3.4,1.91-4.78,0-6.68-2.26
			c-2.21-2.63-5.05-5.01-8.1-6.56c-2.75-1.4-4.61,0.1-4.52,3.6c0.16,5.99,0.04,11.98,0.04,17.91c6.71,4.29,8.38-4.27,13.55-5.38
			c0,5.9,0,11.37,0,17.24c-4.99-0.41-6.76-9.3-13.34-4.42c0,7.02,0,14.46,0,22.07c6.4,1.96,10.14-1.6,13.42-6.47
			c1.67-2.48,3.28-5.91,7.64-2.79c-1.06,3.25-2.12,6.51-3.3,10.14c4.97,1.95,9.13,4.89,7.66,11.2c-0.84,3.62-3.67,5.51-7.33,5.73
			c-3.47,0.21-6.13-1.07-7.11-5.27c0.91-0.11,1.77,0.03,2.29-0.32c1.2-0.8,2.23-1.84,3.33-2.78c-1-1.11-1.9-3.05-3.02-3.19
			c-3.77-0.46-7.63-0.32-11.45-0.35c-5.32-0.03-10.63-0.01-15.96-0.01c0.86-6.08,1.32-12.09,2.64-17.92
			c1.52-6.72-2.49-11.43-6.72-17.3c3.26,0.3,4.77,0.44,6.71,0.62C789.5,158.85,792.38,149.62,785.98,141.01z"/>
		<path class="st2" d="M324.22,201.92c-6.96,0-13.19,0-19.05,0c0.62-4.65,1.22-9.15,1.92-14.38c-5.5,0-9.47-0.17-13.42,0.08
			c-1.56,0.1-4.11,0.84-4.37,1.79c-0.67,2.5-0.56,5.29-0.32,7.93c0.13,1.4,1.19,2.71,2.08,4.61c-5.66,0-10.41,0-16.24,0
			c7.08-10.87,14.59-21.26,7.51-35.23c2.83,0.68,4.35,1.04,6.32,1.52c1.9-6.49,3.75-12.82,5.59-19.16c0.14-0.47,0.38-1.09,0.2-1.45
			c-2.89-5.75,1.67-6.09,5.18-7.29c3.14-1.07,4.75-0.4,5.66,3.17c3.85,15.14,7.98,30.21,12.09,45.28c0.93,3.41,1.05,7.31,5.25,9.05
			C323.49,198.18,323.62,200.25,324.22,201.92z M298.49,159.67c-0.35,0.02-0.71,0.04-1.06,0.07c-2.09,7.1-4.17,14.19-6.28,21.37
			c4.42,0,8.42,0,12.7,0C301.98,173.64,300.24,166.66,298.49,159.67z"/>
		<path class="st4" d="M605.8,175.14c0.67,9.3-2.27,18.53,4.48,27.14c-7.16,0-12.91,0-19.6,0c6.07-11.88,6.88-23.41-2.53-35.27
			c3.29,0.57,4.64,0.81,6.74,1.18c-0.74-9.29,2.41-18.58-4.68-26.87c8.48,0,15.69-0.75,22.68,0.18c9.72,1.3,14.48,7.73,14.31,17.27
			c-0.15,8.48-5.6,14.23-14.98,15.72C610.27,174.8,608.3,174.89,605.8,175.14z M606.22,145.66c0,8,0,16.02,0,24.05
			c7.26-0.48,10.43-5.14,9.81-13.89C615.52,148.62,612.22,145.16,606.22,145.66z"/>
		<path class="st6" d="M552.19,167.29c1.37,0.36,2.74,0.72,4.72,1.25c0.8-8.2,6.28-15.05,4.59-23.73c-0.2-1.01,4.46-3.22,7.06-4.44
			c2.71-1.28,3.33,0.84,3.85,2.96c3.48,14.19,6.9,28.4,10.57,42.54c1.16,4.45,0.58,9.78,5.69,12.63c0.64,0.35,0.35,2.37,0.52,3.78
			c-6.2,0-11.94,0-18.28,0c0.39-1.59,0.29-3.34,1.05-3.9c3.98-2.92,0.96-6.16,0.24-8.96c-0.24-0.93-3.54-1.31-5.49-1.5
			c-2.63-0.25-5.3-0.06-7.79-0.06c-3.95,4.89-1.14,9.55,0.67,14.45c-5.21,0-9.65,0-14.81,0c0.45-1.62,0.38-3.61,1.32-4.41
			c6.76-5.8,5.19-14.67,8.25-21.81c0.25-0.57-1.12-1.74-1.56-2.72c-0.78-1.74-1.43-3.55-2.13-5.32
			C551.17,167.8,551.68,167.55,552.19,167.29z M566.18,160.37c-0.28,0.05-0.57,0.09-0.85,0.14c-1.8,6.98-3.59,13.96-5.43,21.13
			c3.9,0,7.33,0,11.11,0C569.35,174.35,567.77,167.36,566.18,160.37z"/>
		<path class="st4" d="M629.08,167.45c1.39,0.18,2.78,0.36,4.87,0.62c-1.14-9.19,2.98-18.57-5.38-26.67c8.86,0,16.2-0.78,23.3,0.19
			c9.73,1.34,14.65,8.06,14.29,17.37c-0.32,8.33-5.98,14.12-15.33,15.59c-1.94,0.3-3.9,0.39-6.2,0.6c0.36,9.2-2.42,18.52,4.73,27.18
			c-7.36,0-13.14,0-19.82,0c6.01-11.8,7.6-23.36-2.17-34.34C627.94,167.81,628.51,167.63,629.08,167.45z M644.47,170.69
			c3-1.27,5.56-1.72,7.21-3.18c4.01-3.55,4.63-12.96,1.3-18.15c-1.08-1.68-2.98-3.14-4.83-3.89c-0.79-0.32-3.47,1.4-3.51,2.26
			C644.34,154.97,644.47,162.23,644.47,170.69z"/>
		<path class="st4" d="M515.06,183.38c3.78-0.73,4.84,1.68,5.74,4.28c0.87,2.5,1.27,5.3,2.68,7.44c1.02,1.55,3.43,3.22,5.05,3.07
			c1.89-0.18,4.43-1.92,5.19-3.64c0.98-2.22,1.3-5.41,0.44-7.62c-2.37-6.07-5.54-11.73-12.99-13.02c-1.38-0.24-2.84-1.14-3.83-2.16
			c-0.8-0.83-1.37-2.35-1.21-3.44c0.09-0.57,1.98-0.86,3.12-1.3c-1.39-3.07-3.48-6.16-4.18-9.55c-1.83-8.95,4.22-16.47,13.58-17.16
			c4.72-0.35,9.49-0.06,14.36-0.06c0,5.95,0,11.9,0,17.85c-0.38,0.35-0.77,0.69-1.15,1.04c-1.33-1.31-3.06-2.42-3.9-3.99
			c-0.99-1.85-1.11-4.14-1.81-6.18c-1.17-3.39-3.75-4.68-7.1-3.75c-3.34,0.92-5.21,3.58-4.21,6.84c1.04,3.39,2.79,6.72,4.88,9.61
			c3.61,4.97,7.9,9.44,11.57,14.38c3.54,4.76,4.78,10.14,2.88,16.04c-2.16,6.71-7.94,11.13-15,10.9c-2.46-0.08-4.89-1.21-7.34-1.22
			c-2.19-0.01-4.38,0.87-6.76,1.4C515.06,196.28,515.06,189.88,515.06,183.38z"/>
		<path class="st2" d="M331.71,166.52c-5-8.46-10.01-16.92-15.24-25.76c6.63,0,12.88,0,19.2,0c0.11,0.46,0.48,1.12,0.29,1.39
			c-4.51,6.52,0.77,11.19,3.1,16.38c0.99,2.2,2.27,4.28,3.81,7.14c2.64-6.08,5.08-11.49,7.27-17.01c0.36-0.92-0.29-2.32-0.66-3.43
			c-0.44-1.3-1.09-2.53-1.91-4.39c5.54,0,10.26,0,15.66,0c-0.46,1.37-0.57,2.92-1.37,3.9c-11.5,14.17-18.75,29.78-16.6,48.58
			c0.15,1.3,1.27,2.49,1.94,3.73c0.77,1.43,1.54,2.85,2.66,4.92c-6.89,0-12.66,0-18.87,0c0.14-1.24-0.19-2.99,0.51-3.67
			c6.82-6.61,1.83-14.86,3.13-22.21c0.1-0.58-1.89-1.44-2.78-2.3c-1.38-1.33-3.15-2.56-3.84-4.22c-0.88-2.11,0.41-3.08,2.66-2.24
			c0.35,0.12,0.7,0.25,1.06,0.37C331.72,167.32,331.72,166.92,331.71,166.52z"/>
		<path class="st3" d="M271.92,285.54c3.02-0.4,5.28-0.7,7.55-0.99c0.5,0.29,1.01,0.58,1.51,0.87c-6.22,4.9-2.01,8.87-0.38,13.23
			c7.45,19.91-10.68,32.56-25.02,30.33c-6.87-1.07-10.1-5.55-8.88-12.38c1.28-7.16,5.07-12.93,10.07-17.98
			c2.92-2.95,6.01-5.71,9.08-8.61c-1.9-3.52-4.15-6.98-5.68-10.73c-1.99-4.9-1.2-9.74,1.52-14.33c5.2-8.76,18-15.1,26.67-13.09
			c5.98,1.39,8.59,7.86,4.91,12.78c-0.76,1.02-2.71,1.15-4.12,1.7c-0.41-1.23-1.37-2.59-1.13-3.68c1.1-4.96-0.22-6.8-5.37-5.88
			c-7.47,1.34-13.43,5.36-16.25,12.53C263.75,276.09,268.06,280.99,271.92,285.54z M270.64,294.4c-7.35,5.67-13.4,11.5-16.74,19.61
			c-2.48,6.02-0.71,8.66,5.65,8.33c6.88-0.36,12.93-2.75,15.59-9.6C277.75,306.04,275.15,300.16,270.64,294.4z"/>
		<path class="st8" d="M359.45,301.67c0.5-3.11,0.75-6.29,1.55-9.32c4.39-16.76,12.55-31.42,24.92-43.63
			c1.75-1.73,3.82-3.26,5.98-4.44c5.07-2.75,10.85-1.09,13.97,3.73c3.74,5.79,2.82,15.65-2.21,20.37c-1.48,1.38-3.68,2.46-5.66,2.67
			c-1.39,0.15-2.97-1.38-4.47-2.16c0.74-1.31,1.35-2.74,2.26-3.92c1.77-2.29,4.88-4.26,5.27-6.71c0.45-2.78-0.95-6.31-2.67-8.71
			c-0.53-0.73-5.43,0.45-7.19,2.03c-8.57,7.71-14.2,17.62-18.32,28.19c-2.68,6.88-4.37,14.24-5.61,21.53
			c-0.4,2.35,1.37,6.36,3.34,7.46c1.92,1.06,5.97,0.18,8.02-1.31c3.98-2.89,7.24-6.79,10.74-10.33c1.16-1.18,1.95-2.83,3.26-3.73
			c1.03-0.7,2.62-0.59,3.96-0.84c0.15,1.23,0.85,2.79,0.35,3.65c-4.89,8.48-10.61,16.35-20.36,19.61
			C366.93,319.05,359.79,312.85,359.45,301.67z"/>
		<path class="st2" d="M716.54,141c5.81,0,11.58,0,18.12,0c-0.37,1.53-0.26,3.51-1.07,4.02c-3.21,2.01-2.73,4.99-2.73,7.93
			c0,12.13-0.02,24.27,0.01,36.4c0.01,3.19-0.9,6.65,2.87,8.8c0.75,0.43,0.65,2.34,1.06,4.03c-6.42,0-12.29,0-18.97,0
			c5.88-11.7,7.52-23.23-2.31-34.21c0.52-0.17,1.03-0.34,1.55-0.52c0.71,0.09,1.41,0.18,2.12,0.28c0.78,0.12,1.56,0.25,2.8,0.45
			c0-4.95,0.43-9.6-0.13-14.14C719.34,149.78,717.77,145.66,716.54,141z"/>
		<path class="st9" d="M470.09,207.03c-1.39,0.3-2.77,0.6-4.16,0.89c3.86-4.31-0.73-5.23-0.45-4.7c-3.13,1.6-6.26,3.2-9.39,4.8
			c-1.38,0.26-2.75,0.51-4.13,0.77c-4.87,0.52-7.92,2.56-6.72,8.11c-0.29,0.13-0.59,0.21-0.91,0.24c-0.12-4.18-2.42-5.63-6.36-5.23
			c-1.77,0.18-3.56,0.08-5.34,0.1c-0.57,0.06-1.15,0.11-1.72,0.16c-0.9-0.01-1.8-0.03-2.7-0.04c-6.15-4.49-7.67-4.23-10.04,2.31
			c2.91,1.17,5.84,2.34,8.77,3.52c0.71,0.71,1.42,1.41,2.13,2.12c0,0,0.09,0.03,0.09,0.03c-0.48,0.07-0.95,0.15-1.43,0.22
			c-4.53-2.13-9.06-4.26-13.59-6.39c0,0-0.09-0.02-0.09-0.02c0.36-1.23,0.72-2.46,1.09-3.69c0.63-1.05,1.27-2.11,1.9-3.16
			c-0.35-0.67-0.71-1.34-1.06-2.01l-0.04-0.04c-0.33-0.29-0.66-0.58-0.98-0.87l-0.17,0.02c-3.9-5.04-7.8-10.08-11.7-15.12
			c-0.39-0.37-0.78-0.75-1.17-1.12c-0.86-3.31-1.72-6.62-2.58-9.92c-0.16-0.7-0.33-1.41-0.49-2.11c-0.66-3.64-1.32-7.28-1.98-10.93
			l0.31,0.04c0.98-0.02,1.95-0.03,2.93-0.05c0.12,12.4,3.47,23.64,11.93,33.04c1.53,1.13,3.07,2.25,4.6,3.37
			c0.48,0.19,0.95,0.39,1.43,0.59l-0.03-0.02c3,1.65,6.01,3.3,9.01,4.94c2.35,0.38,4.71,0.76,7.06,1.13
			c1.73,0.62,3.63,2.04,5.17,1.72c4.32-0.88,8.49-2.48,12.71-3.8c0.78-0.55,1.56-1.09,2.33-1.64c1.32-1.02,2.63-2.04,3.95-3.06
			c2.27-2.07,4.55-4.15,6.82-6.22c0.85-1.45,1.7-2.91,2.55-4.36c1.08-1.71,2.16-3.42,3.25-5.13c0.4,0.42,0.8,0.84,1.19,1.26
			c1.32,1.06,2.64,2.12,3.96,3.17c-1.75-0.1-3.5-0.19-4.61-0.26c-2.14,3.42-4.01,6.41-6.06,9.68c1.48,1.7,3.21,3.68,4.93,5.66
			C470.23,205.73,470.16,206.38,470.09,207.03z"/>
		<path class="st10" d="M423.83,97.84c0.75-0.29,1.51-0.57,2.26-0.86c1.73,0.45,3.46,0.9,5.11,1.32c-0.4,1.45-0.77,2.76-1.39,4.97
			c2.61-1.57,4.4-2.64,6.47-3.88c0.07,1.39,0.12,2.26,0.18,3.46c1.35-1.47,2.43-2.64,3.51-3.82c1.41-1.05,2.83-2.1,4.24-3.14
			c2.28,0.32,4.57,0.63,7.13,0.99c1.04-1.46,2.2-3.09,3.36-4.72c0.31,0.18,0.62,0.36,0.93,0.54c-0.9,1.77-1.8,3.55-2.7,5.32
			c-1.3,0-2.61,0-3.91,0c0.52-0.35,1.04-0.7,1.56-1.06c0.48,1.39,0.95,2.79,1.43,4.18c-0.19,0.4-0.39,0.81-0.58,1.21
			c-0.81,1.22-1.62,2.44-2.43,3.66c-0.71-0.07-1.42-0.15-2.13-0.22c-0.41-2.19-0.82-4.38-1.14-6.1c-1.71,0.81-3.18,1.5-4.66,2.2
			c-0.21-0.14-0.41-0.27-0.61-0.41c0.12,0.22,0.25,0.43,0.37,0.65c0.36,0.99,0.72,1.99,1.08,2.98c-1.33,0.97-2.54,2.28-4.03,2.84
			c-2.55,0.96-5.27,1.46-7.92,2.15c0.6,0.98,1.33,1.92,1.76,2.98c0.21,0.52-0.13,1.26-0.22,1.9c-2.62-0.38-5.24-0.75-7.86-1.13
			c-0.6-0.78-1.09-2.05-1.83-2.23c-1.91-0.46-3.94-0.42-5.92-0.59c1.7-2.04,3.4-4.07,5.1-6.11c0.52-0.33,1.04-0.67,1.56-0.99
			C424.33,102.85,425.16,98.83,423.83,97.84z"/>
		<path class="st11" d="M472.07,186.82c-0.4-0.42-0.8-0.84-1.19-1.26c2.56-8.31,4.06-16.74,3.03-25.47
			c-1.29-7.23-2.71-14.41-7.84-20.15c-0.98-1.35-1.97-2.69-2.95-4.04c-0.41-1.24-0.82-2.48-1.23-3.72c0.43-0.05,0.86-0.1,1.29-0.15
			c3.28,5.48,6.56,10.95,9.83,16.43c0.65,0.76,1.3,1.52,1.95,2.28c-0.06,0.75-0.12,1.51-0.18,2.26c0.48,3.3,0.97,6.59,1.45,9.89
			c4.48,0.17,8.97,0.35,13.45,0.46c0.08,0,0.18-0.88,0.27-1.35c-0.01-1.94-0.02-3.88-0.03-5.83c0.27-0.68,0.54-1.37,0.81-2.05
			c0.49,3.38,0.97,6.75,1.51,10.45c-2.29,0.29-4.02,0.51-5.33,0.67c-1.95,7.8-3.84,15.36-5.73,22.92c-0.17-0.13-0.33-0.26-0.5-0.38
			c0.47-2.59,0.93-5.17,1.4-7.76c0,0-0.06,0.04-0.06,0.04c0.14-0.04,0.27-0.09,0.41-0.13c-0.12-0.19-0.23-0.38-0.35-0.58
			c-0.44-0.36-0.87-0.72-1.31-1.08c0.11-0.14,0.23-0.29,0.35-0.43c0.53-0.21,1.07-0.42,1.6-0.63c0.53-3.6,1.06-7.19,1.61-10.85
			c-7.33-0.53-7.37-0.49-7.23,6.59c-0.63,1.82-1.25,3.63-1.88,5.45C474.17,181.2,473.12,184.01,472.07,186.82z"/>
		<path class="st12" d="M423.83,97.84c1.33,1,0.5,5.01-1.26,6.1c-0.53,0.33-1.04,0.66-1.56,1c-2.81-0.82-5.61-1.65-8.42-2.47
			c0.31,0.59,0.62,1.19,0.93,1.78c-1.19,2.29-2.37,4.57-3.56,6.86c-4.05-3.97-6.56-8.78-7.56-15.15c2.75,0,5.7,0,8.53,0
			c0,1.64,0,2.99,0,4.33c2.59-0.37,5.18-0.75,7.45-1.07c0.37-2.63,0.65-4.58,0.93-6.52c0.31-0.03,0.62-0.06,0.93-0.09
			c0.25,1.47,0.49,2.94,0.74,4.42c0.35,0.31,0.71,0.63,1.06,0.94C422.63,97.92,423.23,97.88,423.83,97.84z"/>
		<path class="st11" d="M400.09,164.97c-0.98,0.02-1.95,0.03-2.93,0.05c0.95-4.21,1.9-8.43,2.99-13.27
			c-1.84,0.65-2.76,0.97-3.67,1.3c-2.49-0.52-4.98-1.04-7.46-1.56c-0.66-1.02-1.33-2.03-1.99-3.05c-0.39,0.04-0.78,0.07-1.17,0.11
			c-0.6,5.44-1.21,10.87-1.81,16.31c-0.48-0.65-1.44-1.37-1.37-1.95c0.66-5.41,1.49-10.79,2.28-16.18c0.53,0.39,1.05,0.78,1.58,1.18
			c2.5-1.96,5-3.92,7.5-5.88l0.37,0.27c-0.48,1.56-0.96,3.12-1.82,5.92c3.17,0,5.82,0,8.48,0c1.14-3.08,2.28-6.15,3.42-9.22
			c1.45-0.69,2.9-1.38,4.36-2.08c-0.04,0.62-0.07,1.23-0.11,1.84c-0.64,1.34-1.29,2.68-1.93,4.03c-0.68,1.34-1.37,2.67-2.06,4
			c-1.17,3.44-2.34,6.88-3.51,10.31C400.84,159.72,400.46,162.34,400.09,164.97z"/>
		<path class="st13" d="M396.48,153.04c0.91-0.32,1.83-0.65,3.67-1.3c-1.09,4.85-2.04,9.06-2.99,13.27c0,0-0.3-0.04-0.3-0.04
			c-2.31,0.32-4.62,0.64-6.93,0.97c-1.96-0.36-3.92-0.73-5.89-1.09c0.6-5.44,1.21-10.87,1.81-16.31c0.39-0.04,0.78-0.07,1.17-0.11
			c0.66,1.02,1.33,2.03,1.99,3.05c-0.39,2.96-0.79,5.92-1.18,8.86c2.87-0.47,4.93-0.81,7.28-1.19
			C395.56,157.19,396.02,155.11,396.48,153.04z"/>
		<path class="st14" d="M398.84,175.9c0.16,0.7,0.33,1.41,0.49,2.11c-0.3,0.65-0.61,1.3-0.91,1.95c-1.55,0.4-3.1,0.8-4.65,1.19
			c-0.48,0.15-0.96,0.3-1.44,0.45c1.01,2.98,2.02,5.95,3.09,9.1c2.24-0.95,4.37-1.86,6.5-2.77c0.39,0.37,0.78,0.75,1.17,1.12
			c-0.35,1.17-0.69,2.33-1.03,3.5c-2.5,1.25-4.99,2.51-7.49,3.76c-1.1,0.51-2.2,1.01-3.3,1.52c-0.22,0.16-0.44,0.32-0.66,0.49
			c-4.12-4.3,0.12-5.37,2.43-6.77c-1.29-7.1-2.54-13.95-3.79-20.8c0.91,2.19,1.83,4.38,2.83,6.8
			C394.18,177.04,396.51,176.47,398.84,175.9z"/>
		<path class="st12" d="M439.97,99.03c-1.08,1.17-2.16,2.35-3.51,3.82c-0.06-1.2-0.11-2.07-0.18-3.46
			c-2.07,1.24-3.86,2.32-6.47,3.88c0.62-2.21,0.98-3.53,1.39-4.97c-1.65-0.43-3.38-0.87-5.11-1.32c2.75-1.15,4.57-2.67,2.3-5.44
			c1.85-1.67,3.49-3.14,5.13-4.61c0,0-0.05,0.03-0.05,0.03c1.03,0.34,2.05,0.68,3.08,1.02c0.67,3.04-0.4,6.68,3.16,8.75
			C440.1,96.97,439.9,98.24,439.97,99.03z"/>
		<path class="st11" d="M449.02,106.02c0.81-1.22,1.62-2.45,2.43-3.66c0.14,0.15,0.31,0.24,0.51,0.28c1,0.14,2.01,0.27,3.01,0.41
			c1.38,0.32,2.75,0.64,4.12,0.96c-0.12,0.22-0.25,0.71-0.41,0.73c-1.41,0.09-2.82,0.1-4.23,0.14c0.93,1.39,1.71,3.79,2.83,3.97
			c2.26,0.36,4.71-0.5,7.08-0.85c0.59,0.03,1.18,0.06,1.77,0.09c-0.67,1.58-1.33,3.16-2.14,5.08c0.96,1.06,2.11,2.31,3.25,3.57
			c-0.13,0.16-0.27,0.32-0.4,0.48c-0.91-0.11-1.82-0.22-2.73-0.34c-0.98-0.27-1.96-0.54-2.94-0.81c-1.06-0.89-2.12-1.78-3.18-2.66
			c-1.1-1.12-2.11-2.36-3.34-3.32c-1.24-0.96-4.42-0.05-3.03-3.37c-0.88-0.24-1.77-0.47-2.65-0.71
			C448.98,105.98,449.02,106.02,449.02,106.02z"/>
		<path class="st11" d="M439.97,99.03c-0.08-0.79,0.13-2.06-0.27-2.3c-3.56-2.07-2.49-5.71-3.16-8.75
			c-1.03-0.34-2.05-0.68-3.08-1.02c0,0,0.05-0.03,0.05-0.03c0.16-0.61,0.31-1.23,0.46-1.84c2.56-0.67,5.11-1.35,7.67-2.02
			c0.12,3.4-0.13,7.02,4.41,7.89c-0.51,1.36-1.18,3.14-1.84,4.93C442.8,96.93,441.39,97.98,439.97,99.03z M440.53,87.21
			c-0.46-0.21-0.88-0.58-1.19-0.51c-0.36,0.09-0.62,0.57-0.92,0.88c0.43,0.35,0.87,0.69,1.3,1.04
			C439.96,88.21,440.19,87.8,440.53,87.21z"/>
		<path class="st12" d="M474.96,150.74c-0.65-0.76-1.3-1.52-1.95-2.28c2.62-0.54,5.24-1.08,8.11-1.67c-1.63-3.26-3.21-6.42-4.8-9.58
			c-0.55-1.08-1.13-2.15-1.69-3.22c0.11-0.32,0.23-0.65,0.34-0.97c2.03,2.94,4.55,5.66,5.96,8.87c1.58,3.6,3.34,5.49,7.92,3.4
			c0.69,3.22,1.29,6.03,1.89,8.84c-0.27,0.68-0.54,1.37-0.81,2.05c-1.1-2.78-2.21-5.57-3.31-8.35
			C482.73,148.79,478.85,149.76,474.96,150.74z"/>
		<path class="st15" d="M431,81c0-2.78,0-5.56,0-9.04c4.35,2.5,8.35,5.05,12.29-1.2c0.49,4.12,0.88,7.35,1.36,11.4
			c-1.25-1.04-1.93-1.61-2.62-2.18c-5.42-3.73-8.46-2.4-9.19,4.02c-0.67-0.03-1.33-0.07-2-0.1C430.9,82.94,430.95,81.97,431,81z"/>
		<path class="st3" d="M324.51,264.71c-1.89,1.09-4.01,3.3-5.61,2.97c-1.74-0.36-3-3.08-4.47-4.76c1.58-1.38,3.17-3.85,4.75-3.85
			c1.81,0,3.61,2.21,5.42,3.46C324.57,263.25,324.54,263.98,324.51,264.71z"/>
		<path class="st16" d="M456.09,208.02c3.13-1.6,6.26-3.2,9.39-4.8c-0.28-0.53,4.32,0.39,0.45,4.7c-1.92,1.39-3.84,2.77-5.76,4.15
			C458.81,210.72,457.45,209.37,456.09,208.02z"/>
		<path class="st3" d="M503.91,259.22c-1.15-1.91-3.03-3.76-3.18-5.75c-0.09-1.12,2.9-3.65,4.07-3.41c1.69,0.34,3.96,2.49,4.17,4.1
			c0.2,1.54-1.93,3.37-3.03,5.08C505.26,259.23,504.58,259.22,503.91,259.22z"/>
		<path class="st14" d="M838.88,198.13c-3.04,2.24-5.16,4.92-6.6,4.59c-1.93-0.43-3.34-3.19-4.97-4.95c1.69-1.48,3.33-4.02,5.1-4.12
			C834.11,193.54,835.96,195.97,838.88,198.13z"/>
		<path class="st17" d="M445.24,216.89c-1.19-5.55,1.85-7.58,6.72-8.11c-1.53,1.08-3.06,2.16-4.75,3.34
			c0.48,1.21,0.96,2.38,1.4,3.49c3.74-0.86,7.22-1.67,10.71-2.47c-1.47,4.96-6.27,4.85-9.91,6.51c-1.14-0.22-2.29-0.45-3.43-0.68
			C445.73,218.28,445.49,217.58,445.24,216.89z"/>
		<path class="st3" d="M572.24,256.95c-3.03,2.19-4.75,4.4-6.31,4.29c-1.67-0.12-3.17-2.43-4.75-3.78c1.43-1.49,2.72-3.94,4.34-4.19
			C567.08,253.03,569,255.06,572.24,256.95z"/>
		<path class="st16" d="M398.84,175.9c-2.33,0.57-4.66,1.14-6.78,1.66c-1.01-2.41-1.92-4.6-2.83-6.8c-0.01-1.26-0.03-2.52-0.04-3.77
			c0.26-0.35,0.51-0.71,0.77-1.06c0,0-0.03,0.02-0.03,0.02c2.31-0.32,4.62-0.64,6.93-0.97C397.52,168.62,398.18,172.26,398.84,175.9
			z M395.05,174.46c0.81-0.58,1.61-1.16,2.42-1.74c-1.27-1.9-2.54-3.8-3.8-5.7c-0.55,1.01-1.76,2.25-1.5,2.98
			C392.74,171.62,394.04,172.99,395.05,174.46z"/>
		<path class="st15" d="M409.96,111.1c1.19-2.29,2.37-4.57,3.56-6.86c-0.31-0.59-0.62-1.19-0.93-1.78c2.81,0.82,5.61,1.65,8.42,2.47
			c-1.7,2.04-3.4,4.07-5.1,6.11c-1.07,0.99-2.13,1.97-3.2,2.96c-0.32,0.35-0.64,0.7-0.96,1.05c-0.91,0.04-1.82,0.08-2.73,0.11
			C409.33,113.81,409.64,112.46,409.96,111.1z"/>
		<path class="st13" d="M459.32,213.15c-3.48,0.8-6.97,1.61-10.71,2.47c-0.45-1.11-0.92-2.28-1.4-3.49
			c1.69-1.19,3.22-2.26,4.75-3.34c1.38-0.26,2.75-0.51,4.13-0.77c1.36,1.35,2.72,2.71,4.08,4.06
			C459.89,212.43,459.61,212.79,459.32,213.15z"/>
		<path class="st11" d="M462.07,103c-0.15-0.67-0.65-1.56-0.39-1.96c0.79-1.22,1.86-2.24,2.15-3.82c1.6-0.58,3.21-1.17,4.98-1.81
			c0.63,0.59,1.58,1.48,2.67,2.5c-0.34,0.97-0.88,2.52-1.41,4.07C467.39,102.33,464.73,102.67,462.07,103z"/>
		<path class="st18" d="M409.01,115.17c0.91-0.04,1.82-0.08,2.73-0.12c-0.8,1.77-1.6,3.55-2.1,4.65c1.58,3.28,3,6.22,4.41,9.17
			c-0.51,0.38-1.03,0.76-1.54,1.14c-1.31-1.77-2.63-3.53-3.94-5.3c-1.2-1.25-2.4-2.5-3.6-3.74l0.05,0.06
			c0.05-0.92,0.11-1.84,0.16-2.76c0,0,0.07-0.1,0.07-0.1c0.6-0.39,1.2-0.78,1.8-1.16c0,0-0.07,0.05-0.07,0.05
			c0.37-0.32,0.74-0.63,1.11-0.95C408.4,115.79,408.71,115.48,409.01,115.17z"/>
		<path class="st12" d="M432.85,84.01c0.73-6.42,3.77-7.75,9.19-4.02c-0.13,1.03-0.26,2.06-0.39,3.08
			c-2.56,0.67-5.11,1.35-7.67,2.02C433.6,84.73,433.23,84.37,432.85,84.01z"/>
		<path class="st19" d="M474.97,133.01c-0.11,0.32-0.23,0.65-0.34,0.97c-2.68-1.81-5.36-3.61-8.44-5.69
			c-0.85,1.06-1.93,2.4-3.01,3.75c-0.43,0.05-0.86,0.1-1.29,0.15c0,0,0.02-0.16,0.02-0.16c-0.03-0.93-0.07-1.87-0.1-2.8
			c1.41-1.75,2.82-3.5,4.22-5.26c0.7,0.04,1.39,0.08,2.09,0.12c0.16,0.1,0.27,0.23,0.34,0.4c0.24,0.47,0.49,0.93,0.73,1.4
			c0,0-0.02-0.05-0.02-0.05c0.3,0.38,0.59,0.76,0.89,1.14c0,0-0.03-0.03-0.03-0.03c0.33,0.36,0.65,0.72,0.98,1.07
			c0,0-0.03-0.03-0.03-0.03c0.33,0.36,0.65,0.71,0.98,1.07c0,0-0.02-0.03-0.02-0.03c0.3,0.37,0.6,0.73,0.9,1.1c0,0,0,0,0,0
			c0.41,0.62,0.82,1.23,1.23,1.84c0,0-0.03-0.04-0.03-0.04c0.32,0.36,0.64,0.73,0.96,1.09L474.97,133.01z"/>
		<path class="st20" d="M431,81c-0.05,0.97-0.1,1.94-0.15,2.91c-4.77,2.1-9.54,4.2-15.74,6.92C420.52,85.99,424.57,81.73,431,81z"/>
		<path class="st12" d="M427.72,220.33c0.48-0.07,0.95-0.15,1.43-0.22c-0.02,1.57-0.03,3.14-0.05,4.71
			c1.42,0.48,2.83,1.35,4.25,1.37c3.91,0.04,7.82-0.27,11.72-0.45c0.07,0.18,0.05,0.35-0.07,0.5c-5.65,0.6-11.31,1.2-17.29,1.84
			C427.72,224.5,427.72,222.41,427.72,220.33z"/>
		<path class="st20" d="M462.07,103c2.66-0.34,5.33-0.68,7.99-1.01c2.66,3.94-1.77,3.51-3.08,5c-0.32,0.36-0.63,0.71-0.95,1.07
			c0,0,0.11,0,0.11,0c-0.59-0.03-1.18-0.06-1.77-0.09c-0.95-0.06-1.9-0.12-2.86-0.18C461.71,106.09,461.89,104.55,462.07,103z"/>
		<path class="st10" d="M446.91,81.94c5.3,1.72,9.4,5.24,12.56,10.19c-4.48-2.85-8.97-5.71-13.45-8.56
			C446.32,83.03,446.62,82.48,446.91,81.94z"/>
		<path class="st20" d="M404.98,120.97c1.2,1.25,2.4,2.5,3.59,3.73c-0.85,0.96-1.68,1.93-2.52,2.9c-1.68,1.82-3.36,3.63-5.04,5.45
			c-0.34-0.06-0.68-0.11-1.01-0.17c1.18-2.07,2.54-4.06,3.48-6.24C404.23,124.87,404.49,122.87,404.98,120.97z"/>
		<path class="st12" d="M484.98,195.96c-1.8,2.86-3.61,5.73-5.41,8.59c-0.25-0.23-0.5-0.46-0.75-0.69c1.46-2.52,2.92-5.04,4.38-7.56
			c0.3-0.11,0.56-0.27,0.79-0.48C484.32,195.89,484.65,195.93,484.98,195.96z"/>
		<path class="st12" d="M445.24,216.89c0.25,0.7,0.49,1.39,0.74,2.09c0.4,0.44,0.79,0.88,1.19,1.31c-0.37,1.92-0.75,3.85-1.12,5.77
			c-0.26-1.04-0.52-2.09-0.78-3.13c-0.31-1.93-0.63-3.87-0.94-5.8C444.65,217.1,444.95,217.02,445.24,216.89z"/>
		<path class="st9" d="M484.98,195.96c-0.33-0.02-0.66-0.07-0.98-0.14c-1.04-0.88-2.08-1.76-3.12-2.64
			c0.04-0.41,0.09-0.83,0.13-1.24C482.53,193.08,486.19,192.11,484.98,195.96z"/>
		<path class="st11" d="M394.02,142.01c1-1.67,1.99-3.35,2.99-5.02c0,0,0.13,0.11,0.13,0.11c-0.13,0.56-0.25,1.13-0.38,1.69
			c-0.79,1.16-1.59,2.33-2.38,3.49L394.02,142.01z"/>
		<path class="st11" d="M481.01,191.93c-0.04,0.41-0.09,0.83-0.13,1.24c-0.91-0.4-1.82-0.8-2.74-1.2c0.51-0.64,1.02-1.28,1.53-1.92
			c0.34-0.76,0.68-1.52,1.03-2.28c0.17,0.12,0.34,0.25,0.5,0.38C481.13,189.42,481.07,190.67,481.01,191.93z"/>
		<path class="st12" d="M479.57,204.55c-1.02,1.32-2.04,2.64-3.06,3.95c-0.24-0.24-0.48-0.48-0.72-0.72
			c1.01-1.31,2.02-2.62,3.03-3.93C479.07,204.09,479.32,204.32,479.57,204.55z"/>
		<path class="st12" d="M452.02,101.15c-0.48-1.39-0.95-2.79-1.43-4.18c-0.52,0.35-1.04,0.7-1.56,1.06c1.3,0,2.61,0,3.91,0
			C452.63,99.06,452.33,100.1,452.02,101.15z"/>
		<path class="st9" d="M405.58,207.84c-0.55-0.29-1.11-0.58-1.66-0.87c-0.04-0.41-0.08-0.82-0.11-1.22c0.97-0.9,1.94-1.81,3.61-3.38
			c-0.69,2.27-1.05,3.45-1.41,4.63C405.81,207.24,405.66,207.53,405.58,207.84z"/>
		<path class="st9" d="M414.14,213.94c-1.34-0.99-2.68-1.98-4.03-2.97c0,0-0.06-0.03-0.06-0.03c1.33,0.99,2.66,1.99,3.99,2.98
			L414.14,213.94z"/>
		<path class="st11" d="M397.01,137c0.66-0.92,1.31-1.85,1.97-2.77c0.4,0.3,0.79,0.6,1.18,0.9c-0.06,0.36-0.12,0.71-0.17,1.06
			c-0.95,0.3-1.9,0.61-2.85,0.92L397.01,137z"/>
		<path class="st12" d="M476.51,208.5c-1.39,2.47-2.77,2.02-4.15-0.01c0.25-0.16,0.49-0.35,0.69-0.57c0.62,0,1.24,0,1.87,0
			c0.29-0.04,0.58-0.09,0.87-0.14C476.03,208.02,476.27,208.26,476.51,208.5z"/>
		<path class="st11" d="M468.12,124.09c-0.7-0.04-1.39-0.08-2.09-0.12c0.15-0.51,0.3-1.03,0.45-1.54c0.51-0.52,1.02-1.03,1.53-1.55
			c0.26-0.01,0.52-0.06,0.76-0.15l0.27,0.31C468.73,122.06,468.43,123.07,468.12,124.09z"/>
		<path class="st11" d="M467.24,116.72c0.94,0.74,1.88,1.48,2.82,2.22c-0.17,0.18-0.34,0.35-0.51,0.53
			c-0.49-0.19-0.99-0.38-1.48-0.56c-0.41-0.57-0.82-1.14-1.23-1.71C466.98,117.03,467.11,116.87,467.24,116.72z"/>
		<path class="st20" d="M405.19,118.27c-0.05,0.92-0.11,1.84-0.16,2.76C403.18,120,402.82,119.05,405.19,118.27z"/>
		<path class="st17" d="M400.17,135.12c-0.39-0.3-0.79-0.6-1.18-0.9c0.33-0.45,0.67-0.89,1.01-1.34c0.34,0.06,0.68,0.11,1.01,0.17
			c0.04,0.28,0.04,0.56,0.01,0.85C400.73,134.3,400.45,134.71,400.17,135.12z"/>
		<path class="st14" d="M401.22,209.23c-0.85,0.04-1.69,0.07-2.54,0.11c0.16-0.18,0.31-0.36,0.47-0.54
			c0.55-0.03,1.09-0.06,1.64-0.08C400.92,208.89,401.07,209.06,401.22,209.23z"/>
		<path class="st10" d="M454.97,103.04c-1-0.14-2.01-0.28-3.01-0.41C452.97,102.77,453.97,102.91,454.97,103.04z"/>
		<path class="st9" d="M445.27,222.93c0.26,1.04,0.52,2.09,0.78,3.13c-0.35,0.06-0.69,0.12-1.04,0.18c0.12-0.16,0.14-0.32,0.07-0.5
			C445.14,224.8,445.21,223.86,445.27,222.93z"/>
		<path class="st9" d="M447.17,220.29c-0.4-0.44-0.79-0.88-1.19-1.31c1.14,0.23,2.29,0.45,3.43,0.68
			C448.67,219.86,447.92,220.08,447.17,220.29z"/>
		<path class="st9" d="M410.11,210.97c-0.71-0.65-1.41-1.3-2.12-1.96c0,0,0.05-0.05,0.05-0.05c0.67,0.66,1.34,1.31,2.01,1.97
			C410.05,210.93,410.11,210.97,410.11,210.97z"/>
		<path class="st12" d="M470.09,207.03c0.07-0.65,0.14-1.3,0.2-1.95c0.59,0.62,1.18,1.24,1.77,1.86c-0.22,0.22-0.41,0.47-0.55,0.75
			C471.04,207.47,470.57,207.25,470.09,207.03z"/>
		<path class="st14" d="M391.8,200.19c-0.4-0.62-0.81-1.25-1.21-1.87c0.22-0.16,0.44-0.33,0.66-0.49c0.38,0.63,0.76,1.25,1.14,1.87
			C392.19,199.87,391.99,200.03,391.8,200.19z"/>
		<path class="st14" d="M394.67,204.31c-0.38-0.64-0.76-1.27-1.14-1.91c0.18-0.12,0.34-0.26,0.49-0.42
			c0.39,0.63,0.77,1.25,1.16,1.88C395.02,204,394.84,204.15,394.67,204.31z"/>
		<path class="st20" d="M407.06,117.01c-0.6,0.39-1.2,0.77-1.8,1.16C405.86,117.78,406.46,117.39,407.06,117.01z"/>
		<path class="st12" d="M474.07,131.98c-0.41-0.61-0.82-1.23-1.23-1.84C473.24,130.75,473.65,131.37,474.07,131.98z"/>
		<path class="st14" d="M396.78,207.21c-0.4-0.61-0.8-1.21-1.2-1.82c0.16-0.14,0.32-0.28,0.47-0.43c0.42,0.6,0.85,1.19,1.27,1.79
			C397.14,206.9,396.96,207.05,396.78,207.21z"/>
		<path class="st14" d="M403.8,205.74c0.04,0.41,0.08,0.82,0.12,1.23c-0.15,0.22-0.36,0.33-0.62,0.33
			c-0.16-0.15-0.32-0.31-0.47-0.47C403.15,206.46,403.48,206.1,403.8,205.74z"/>
		<path class="st14" d="M397.72,208.27c-0.31-0.35-0.63-0.71-0.94-1.06c0.18-0.16,0.36-0.31,0.54-0.46c0.3,0.35,0.59,0.7,0.89,1.05
			C398.05,207.96,397.88,208.12,397.72,208.27z"/>
		<path class="st14" d="M403.3,207.29c-0.34,0.33-0.68,0.65-1.03,0.98c-0.15-0.15-0.3-0.3-0.45-0.45c0.34-0.33,0.67-0.66,1.01-0.99
			C402.98,206.98,403.14,207.14,403.3,207.29z"/>
		<path class="st9" d="M406.57,208.44c-0.33-0.2-0.66-0.41-0.99-0.61c0.09-0.31,0.23-0.59,0.43-0.84c0.34,0.32,0.68,0.65,1.03,0.97
			C406.88,208.12,406.72,208.28,406.57,208.44z"/>
		<path class="st12" d="M472.37,208.49c-0.28-0.27-0.57-0.54-0.85-0.81c0.14-0.27,0.33-0.52,0.55-0.75c0.33,0.33,0.67,0.66,1,0.99
			C472.85,208.15,472.62,208.33,472.37,208.49z"/>
		<path class="st14" d="M398.68,209.34c-0.32-0.36-0.64-0.71-0.96-1.07c0.16-0.16,0.32-0.31,0.48-0.47c0.31,0.33,0.63,0.66,0.94,1
			C398.99,208.98,398.84,209.16,398.68,209.34z"/>
		<path class="st14" d="M402.27,208.27c-0.35,0.32-0.7,0.64-1.05,0.96c-0.15-0.17-0.3-0.34-0.44-0.51c0.35-0.3,0.69-0.6,1.04-0.9
			C401.97,207.97,402.12,208.12,402.27,208.27z"/>
		<path class="st9" d="M407.99,209.01c-0.47-0.19-0.94-0.38-1.42-0.57c0.15-0.16,0.3-0.32,0.46-0.48c0.34,0.33,0.67,0.66,1.01,1
			L407.99,209.01z"/>
		<path class="st12" d="M471.96,129.06c-0.33-0.36-0.65-0.71-0.98-1.07C471.3,128.35,471.63,128.7,471.96,129.06z"/>
		<path class="st12" d="M472.84,130.14c-0.3-0.37-0.6-0.73-0.9-1.1C472.24,129.4,472.54,129.77,472.84,130.14z"/>
		<path class="st12" d="M471.01,128.02c-0.33-0.36-0.65-0.72-0.98-1.07C470.35,127.31,470.68,127.66,471.01,128.02z"/>
		<path class="st12" d="M470.05,126.98c-0.3-0.38-0.59-0.76-0.89-1.14C469.46,126.22,469.76,126.6,470.05,126.98z"/>
		<path class="st13" d="M389.95,165.92c-0.26,0.35-0.51,0.71-0.77,1.06C389.44,166.63,389.7,166.28,389.95,165.92z"/>
		<path class="st12" d="M475,133.03c-0.32-0.36-0.64-0.73-0.96-1.09C474.35,132.3,474.67,132.67,475,133.03z"/>
		<path class="st14" d="M395.58,205.39c-0.3-0.36-0.6-0.72-0.91-1.08c0.17-0.15,0.34-0.3,0.52-0.45c0.29,0.37,0.57,0.73,0.86,1.1
			C395.9,205.11,395.74,205.25,395.58,205.39z"/>
		<path class="st12" d="M469.19,125.89c-0.24-0.47-0.49-0.93-0.73-1.4C468.7,124.95,468.95,125.42,469.19,125.89z"/>
		<path class="st10" d="M422.04,97.96c-0.35-0.31-0.71-0.63-1.06-0.94C421.33,97.33,421.68,97.65,422.04,97.96z"/>
		<path class="st20" d="M408.1,116.1c-0.37,0.32-0.74,0.63-1.11,0.95C407.36,116.74,407.73,116.42,408.1,116.1z"/>
		<path class="st14" d="M393.54,202.4c-0.3-0.35-0.59-0.7-0.89-1.05c0.16-0.15,0.32-0.31,0.48-0.46c0.3,0.36,0.6,0.73,0.9,1.09
			C393.88,202.13,393.72,202.27,393.54,202.4z"/>
		<path class="st14" d="M392.65,201.34c-0.28-0.38-0.57-0.77-0.85-1.15c0.19-0.16,0.39-0.33,0.59-0.48
			c0.25,0.39,0.49,0.78,0.74,1.17C392.97,201.04,392.81,201.19,392.65,201.34z"/>
		<path class="st11" d="M470.06,118.94c-0.02,0.35-0.05,0.7-0.07,1.05c-0.15-0.12-0.29-0.23-0.44-0.35c0,0-0.01-0.17-0.01-0.17
			C469.72,119.29,469.89,119.12,470.06,118.94z"/>
		<path class="st11" d="M469.99,119.99c-0.32,0.35-0.63,0.7-0.95,1.05c0,0-0.27-0.31-0.27-0.31c0.26-0.36,0.52-0.73,0.78-1.09
			C469.7,119.76,469.84,119.87,469.99,119.99z"/>
		<path class="st11" d="M466.03,108.07c0.32-0.36,0.63-0.71,0.95-1.07C466.66,107.35,466.34,107.71,466.03,108.07z"/>
		<path class="st21" d="M602.55,306.99c-4.31,14.27-8.55,28.55-17.65,40.56c-0.53-0.08-1.06-0.17-1.59-0.25
			c-0.39-1.12-1.24-2.31-1.09-3.36C584.33,329.08,591.73,317.09,602.55,306.99z"/>
		<path class="st0" d="M606.76,291.52c-0.05,0.1-0.1,0.19-0.15,0.29c-0.13-0.11-0.26-0.22-0.38-0.32c0.1-0.09,0.19-0.19,0.29-0.28
			C606.6,291.31,606.68,291.41,606.76,291.52z"/>
		<path class="st0" d="M335,291.06c-0.07,0.51-0.15,1.01-0.22,1.52c-0.17-0.01-0.33-0.03-0.5-0.04c0.02-0.51,0.05-1.03,0.07-1.54
			C334.57,291.01,334.79,291.03,335,291.06z"/>
		<path class="st15" d="M84.14,173.65c5.35-0.24,9.31,0.71,11.35,5.44c2.06,4.78,1.21,12.76-2.32,15.33c-2.05,1.49-5.1,1.6-7.7,2.33
			c-0.44-1.96-1.21-3.92-1.27-5.89C84.03,185.26,84.14,179.66,84.14,173.65z"/>
		<path class="st21" d="M84.18,167.66c0-6.41-0.16-12.89,0.05-19.35c0.15-4.69,3.43-3.58,6.07-2.58c4.78,1.81,7.17,8.62,5.53,15.11
			C94.46,166.27,90.78,168.52,84.18,167.66z"/>
		<path class="st21" d="M756.02,168.47c0-6.77-0.14-13.58,0.16-20.37c0.04-0.99,2.13-2.06,3.45-2.75c0.52-0.27,1.58,0.33,2.33,0.67
			c4.12,1.88,6.39,9.41,4.73,15.6C765.26,166.9,762.29,168.88,756.02,168.47z"/>
		<path class="st15" d="M249.96,173.92c6.83-0.66,10.58,1.96,11.74,8.2c1.24,6.69-1.63,12.96-6.69,14.43
			c-3.38,0.98-5.85,0.83-5.63-3.89c0.28-5.95,0.1-11.93,0.14-17.89C249.53,174.49,249.81,174.21,249.96,173.92z"/>
		<path class="st15" d="M249.46,167.75c0-6.51-0.15-13.1,0.15-19.66c0.05-1.08,2-2.39,3.34-2.97c0.82-0.36,2.25,0.3,3.25,0.8
			c4.53,2.27,6.57,8.99,4.78,15.41C259.55,166.43,256.08,168.47,249.46,167.75z"/>
		<path class="st15" d="M461.62,282.67c-3.66,5.64-7.32,11.29-11.67,18C448.89,293.37,454.92,284.05,461.62,282.67z"/>
		<path class="st15" d="M436.5,284.69c-3.1,2.92-6.2,5.84-9.3,8.76c-0.95-0.97-1.9-1.93-2.85-2.9c3.11-2.91,6.21-5.83,9.32-8.74
			C434.61,282.77,435.56,283.73,436.5,284.69z"/>
		<path class="st21" d="M148.49,167.89c-1.24-0.31-2.47-0.62-5.35-1.34c1.41,2.89,1.84,5.63,3.28,6.35c3.18,1.6,3.31,3.92,2.67,6.54
			c-1.2,4.96-2.06,10.15-4.22,14.69c-2.45,5.15-7.21,5-9.79-0.13c-1.75-3.48-3.26-7.52-3.31-11.33c-0.13-9.57,0.54-19.15,1.11-28.72
			c0.1-1.73,1.03-3.5,1.91-5.08c2.99-5.4,8.01-5.71,10.46-0.05c2.49,5.76,3.43,12.19,5.05,18.32
			C149.69,167.4,149.09,167.65,148.49,167.89z"/>
		<path class="st15" d="M298.49,159.67c1.75,6.98,3.49,13.97,5.36,21.44c-4.29,0-8.28,0-12.7,0c2.11-7.18,4.2-14.27,6.28-21.37
			C297.78,159.71,298.14,159.69,298.49,159.67z"/>
		<path class="st21" d="M606.22,145.66c6.01-0.5,9.3,2.96,9.81,10.16c0.62,8.75-2.55,13.4-9.81,13.89
			C606.22,161.68,606.22,153.66,606.22,145.66z"/>
		<path class="st15" d="M566.18,160.37c1.59,6.99,3.17,13.98,4.82,21.27c-3.78,0-7.21,0-11.11,0c1.84-7.16,3.64-14.14,5.43-21.13
			C565.61,160.46,565.9,160.41,566.18,160.37z"/>
		<path class="st15" d="M644.47,170.69c0-8.46-0.13-15.71,0.17-22.95c0.03-0.86,2.72-2.58,3.51-2.26c1.85,0.75,3.75,2.21,4.83,3.89
			c3.33,5.19,2.71,14.59-1.3,18.15C650.02,168.97,647.47,169.41,644.47,170.69z"/>
		<path class="st0" d="M331.71,166.52c0,0.4,0,0.8,0.01,1.19c-0.35-0.12-0.7-0.25-1.06-0.37
			C331.01,167.07,331.36,166.79,331.71,166.52z"/>
		<path class="st21" d="M270.64,294.4c4.51,5.76,7.11,11.64,4.51,18.33c-2.66,6.85-8.72,9.24-15.59,9.6
			c-6.37,0.34-8.13-2.31-5.65-8.33C257.24,305.9,263.29,300.07,270.64,294.4z"/>
		<path class="st19" d="M393.13,200.88c-0.25-0.39-0.5-0.78-0.74-1.17c-0.38-0.63-0.76-1.25-1.13-1.88c1.1-0.51,2.2-1.01,3.31-1.52
			c1.7,2.55,3.39,5.1,5.06,7.6c7.3-4.07,7.3-4.08,3.28-10.15c-0.27-0.41-0.57-0.81-0.85-1.21c0.34-1.17,0.69-2.33,1.03-3.5
			c3.9,5.04,7.8,10.08,11.7,15.12c-1.78-0.02-3.56-0.04-5.33-0.06c0.88,1.52,1.59,3.18,2.7,4.51c0.67,0.8,1.97,1.09,2.99,1.6
			c-0.36,1.23-0.72,2.46-1.09,3.69c-1.33-0.99-2.66-1.99-4-2.98c-0.67-0.66-1.34-1.31-2.01-1.97c-0.34-0.33-0.67-0.66-1.01-1
			c-0.34-0.32-0.68-0.65-1.03-0.97c0.36-1.18,0.72-2.36,1.41-4.63c-1.67,1.57-2.64,2.47-3.61,3.38c-0.33,0.36-0.65,0.72-0.98,1.08
			c-0.34,0.33-0.67,0.66-1.01,0.99c-0.35,0.3-0.69,0.6-1.04,0.9c-0.55,0.03-1.09,0.06-1.64,0.08c-0.31-0.33-0.63-0.66-0.94-1
			c-0.3-0.35-0.59-0.7-0.89-1.05c-0.42-0.6-0.84-1.2-1.27-1.79c-0.29-0.37-0.57-0.73-0.86-1.1c-0.39-0.63-0.77-1.25-1.16-1.88
			C393.73,201.61,393.43,201.25,393.13,200.88z"/>
		<path class="st16" d="M473.06,207.93c-0.33-0.33-0.67-0.66-1-0.99c-0.59-0.62-1.18-1.24-1.77-1.86c-1.72-1.98-3.45-3.96-4.93-5.66
			c2.05-3.27,3.93-6.27,6.06-9.68c1.1,0.06,2.86,0.16,4.61,0.26c0,0-0.03-0.03-0.03-0.03c0.71,0.67,1.42,1.34,2.13,2.01
			c0.91,0.4,1.83,0.8,2.74,1.2c1.04,0.88,2.08,1.76,3.12,2.64c-0.23,0.21-0.5,0.37-0.8,0.48c-4.83,0.59-9.11,6.6-8.28,11.63
			C474.3,207.92,473.68,207.93,473.06,207.93z"/>
		<path class="st22" d="M400.09,164.97c0.38-2.63,0.75-5.25,1.13-7.88c0.45,0,0.91,0,1.37,0c0.18,6.3,0.36,12.6,0.53,18.9
			c1.61,4.35,3.21,8.69,4.82,13.04c0.54,0.91,1.08,1.82,1.62,2.73c1.2,1.75,2.39,3.5,3.59,5.25c-0.38,0.34-0.76,0.68-1.14,1.01
			C403.56,188.61,400.21,177.37,400.09,164.97z"/>
		<path class="st17" d="M434.09,208.03c-2.35-0.38-4.71-0.76-7.06-1.13c-3-1.65-6.01-3.3-9.01-4.95c0,0,0.03,0.02,0.03,0.02
			c0.16-0.3,0.18-0.61,0.06-0.93c1.11-0.63,2.52-1.03,3.27-1.95c1.84-2.26,3.54-2.04,6.06-1.01c3.79,1.55,3.73,4.07,2.43,7.51
			c2.59,0.82,4.89,1.54,7.18,2.27C436.07,207.92,435.08,207.97,434.09,208.03z"/>
		<path class="st23" d="M445.27,222.93c-0.06,0.93-0.13,1.87-0.19,2.8c-3.91,0.17-7.82,0.49-11.72,0.45
			c-1.42-0.02-2.84-0.89-4.25-1.36c0.98-0.27,1.96-0.54,2.94-0.81c3.4,0,6.79,0,10.19,0c-0.68-3.61-1.24-6.63-1.84-9.84
			c-2.35,0-4.49,0-6.62,0c-0.38-0.72-0.76-1.44-1.14-2.16c1.78-0.02,3.58,0.08,5.34-0.1c3.94-0.4,6.24,1.05,6.36,5.23
			C444.64,219.06,444.96,221,445.27,222.93z"/>
		<path class="st17" d="M480.69,187.78c-0.34,0.76-0.68,1.52-1.02,2.28c-1.22-0.03-2.44-0.06-3.66-0.09c0,0,0.03,0.03,0.03,0.03
			c-1.32-1.06-2.64-2.12-3.96-3.17c1.05-2.81,2.1-5.62,3.15-8.43c1.74,2.84,4.06,3.25,6.87,1.62
			C481.62,182.6,481.16,185.19,480.69,187.78z"/>
		<path class="st24" d="M426.93,217.95c-2.93-1.18-5.86-2.35-8.77-3.52c2.37-6.54,3.89-6.8,10.04-2.31
			C427.78,214.06,427.35,216.01,426.93,217.95z"/>
		<path class="st10" d="M473.9,160.08c1.04,8.74-0.47,17.17-3.03,25.47c-1.08,1.71-2.17,3.42-3.25,5.12
			c-0.31-0.32-0.62-0.64-0.92-0.96c0.09-0.57,0.17-1.13,0.26-1.7l0.04-0.07c0.32-0.72,0.64-1.43,0.96-2.15
			c0.36-0.86,0.71-1.71,1.07-2.57c0.29-0.8,0.57-1.59,0.86-2.39c0.19-0.15,0.24-0.34,0.15-0.57c0.83-4.07,1.66-8.14,2.48-12.22
			c-0.09-1.03-0.18-2.05-0.27-3.08C472.81,163.35,473.36,161.72,473.9,160.08z"/>
		<path class="st25" d="M432.04,224c-0.98,0.27-1.96,0.54-2.94,0.81c0.02-1.57,0.03-3.14,0.05-4.71c0,0-0.09-0.03-0.09-0.03
			c0.61-2.64,1.22-5.27,1.84-7.91c0.58-0.05,1.15-0.11,1.72-0.16c0.38,0.72,0.76,1.44,1.14,2.16
			C433.19,217.44,432.62,220.72,432.04,224z"/>
		<path class="st13" d="M398.42,179.96c0.3-0.65,0.61-1.3,0.91-1.95c0.86,3.31,1.72,6.62,2.58,9.92c-2.13,0.91-4.26,1.82-6.5,2.77
			c-1.07-3.15-2.08-6.13-3.09-9.1c0.48-0.15,0.96-0.3,1.44-0.45c0.81,2.14,1.62,4.27,2.44,6.45
			C402.9,186.34,397.87,182.47,398.42,179.96z"/>
		<path class="st22" d="M434.09,208.03c0.99-0.06,1.98-0.12,2.97-0.18c1.86-0.13,4.49,1.07,4.33-2.52c3.52,3.19,6.64,0.13,9.9-0.64
			c0.23,0.42,0.45,0.84,0.68,1.26c-4.23,1.32-8.4,2.91-12.71,3.8C437.72,210.07,435.82,208.66,434.09,208.03z"/>
		<path class="st26" d="M415.13,210.23c-1.02-0.52-2.32-0.8-2.99-1.6c-1.11-1.33-1.82-2.99-2.7-4.51c1.78,0.02,3.56,0.04,5.33,0.06
			c0,0,0.17-0.02,0.17-0.02c0.33,0.29,0.66,0.58,0.98,0.87c0,0,0.04,0.04,0.04,0.04c0.35,0.67,0.71,1.34,1.06,2.01
			C416.4,208.13,415.76,209.18,415.13,210.23z"/>
		<path class="st20" d="M465.08,195.04c-2.27,2.07-4.55,4.15-6.82,6.22c-0.25-0.25-0.49-0.5-0.73-0.75
			c1.01-1.16,2.03-2.32,3.04-3.48c1.1-1.03,2.19-2.07,3.29-3.1C464.26,194.3,464.67,194.67,465.08,195.04z"/>
		<path class="st12" d="M430.9,212.16c-0.61,2.64-1.23,5.27-1.84,7.91c-0.71-0.71-1.42-1.41-2.13-2.12
			c0.42-1.94,0.85-3.89,1.27-5.83C429.1,212.14,430,212.15,430.9,212.16z"/>
		<path class="st20" d="M418.02,201.95c3,1.65,6.01,3.3,9.01,4.95C424.03,205.25,421.02,203.6,418.02,201.95z"/>
		<path class="st10" d="M465.08,195.04c-0.41-0.37-0.82-0.75-1.23-1.12c0.7-1.32,1.4-2.64,2.1-3.97c0.25-0.09,0.5-0.17,0.75-0.24
			c0.31,0.32,0.61,0.64,0.92,0.96C466.78,192.14,465.93,193.59,465.08,195.04z"/>
		<path class="st20" d="M412.01,198.01c0.38-0.34,0.76-0.68,1.13-1.02c1.28,1.03,2.57,2.07,3.85,3.1c0,0.27,0.04,0.52,0.12,0.78
			c-0.17,0.17-0.34,0.34-0.51,0.51C415.08,200.26,413.55,199.13,412.01,198.01z"/>
		<path class="st20" d="M458.25,201.26c-1.32,1.02-2.63,2.04-3.95,3.06c-0.29-0.31-0.57-0.61-0.86-0.92
			c0.46-0.47,0.92-0.94,1.39-1.41c0.9-0.49,1.79-0.99,2.69-1.48C457.76,200.76,458.01,201.01,458.25,201.26z"/>
		<path class="st20" d="M451.97,205.96c-0.23-0.42-0.45-0.84-0.68-1.26c0.72-0.43,1.44-0.87,2.16-1.3c0.29,0.31,0.57,0.61,0.86,0.92
			C453.52,204.87,452.75,205.41,451.97,205.96z"/>
		<path class="st19" d="M417.03,207.07c-0.35-0.67-0.71-1.34-1.06-2.01C416.32,205.74,416.68,206.4,417.03,207.07z"/>
		<path class="st19" d="M415.93,205.02c-0.33-0.29-0.66-0.58-0.98-0.87C415.27,204.45,415.6,204.73,415.93,205.02z"/>
		<path class="st20" d="M418.11,201.04c0.12,0.32,0.1,0.63-0.06,0.93c-0.48-0.2-0.95-0.4-1.43-0.59c0.16-0.17,0.33-0.34,0.5-0.51
			C417.45,200.94,417.78,201,418.11,201.04z"/>
		<path class="st22" d="M431.51,114.99c0.09-0.64,0.43-1.38,0.22-1.9c-0.43-1.06-1.16-1.99-1.76-2.98
			c4.36-0.06,8.72-0.11,13.08-0.17c-0.35,3.03-0.7,6.06-1.06,9.09c-1.98,0.02-3.95,0.05-5.93,0.07c-0.67,0.32-1.35,0.64-2.02,0.96
			c-1.35-1.03-2.71-2.06-4.06-3.09C430.49,116.32,431,115.66,431.51,114.99z"/>
		<path class="st9" d="M412.7,114c1.07-0.99,2.14-1.97,3.2-2.96c1.98,0.16,4.01,0.13,5.92,0.59c0.75,0.18,1.23,1.45,1.84,2.23
			c-1.05,0.79-2.1,1.57-3.14,2.35c0.13,0.4,0.27,0.8,0.4,1.2c2.41,0.2,4.82,0.4,7.23,0.6c-2.12,1.28-4.23,2.57-6.35,3.85
			c-1.65,0.48-3.31,0.96-4.96,1.44C415.45,120.2,414.07,117.1,412.7,114z"/>
		<path class="st11" d="M443.05,109.95c-4.36,0.06-8.72,0.11-13.08,0.17c2.65-0.69,5.38-1.19,7.92-2.15
			c1.49-0.56,2.7-1.87,4.03-2.85c1.65,0.23,3.31,0.45,4.96,0.68c0.71,0.07,1.42,0.15,2.13,0.22c0,0-0.03-0.03-0.03-0.03
			c-0.99,0.66-2.07,1.21-2.93,2.01c-0.52,0.48-0.7,1.33-1.03,2.02C444.37,109.99,443.71,109.97,443.05,109.95z"/>
		<path class="st11" d="M428.13,118.02c-2.41-0.2-4.82-0.4-7.23-0.6c-0.13-0.4-0.27-0.8-0.4-1.2c1.05-0.78,2.1-1.57,3.14-2.35
			c2.62,0.38,5.23,0.75,7.85,1.13c-0.51,0.67-1.02,1.33-1.53,2C429.36,117.33,428.75,117.67,428.13,118.02z"/>
		<path class="st21" d="M446.88,105.8c-1.65-0.23-3.31-0.45-4.96-0.68c-0.36-0.99-0.72-1.99-1.08-2.98l0.24-0.24
			c1.47-0.7,2.94-1.39,4.66-2.2C446.07,101.42,446.47,103.61,446.88,105.8z"/>
		<path class="st21" d="M440.85,102.14c-0.12-0.22-0.25-0.43-0.37-0.65c0.2,0.14,0.41,0.27,0.61,0.41
			C441.09,101.9,440.85,102.14,440.85,102.14z"/>
		<path class="st17" d="M463.18,132.04c1.08-1.34,2.16-2.69,3.01-3.75c3.08,2.08,5.76,3.89,8.44,5.69c0.56,1.07,1.15,2.14,1.69,3.22
			c1.59,3.16,3.17,6.32,4.8,9.58c-2.87,0.59-5.49,1.13-8.11,1.67C469.73,142.99,466.46,137.51,463.18,132.04z M471.77,139.06
			c0.19-0.69,0.39-1.39,0.54-2.09c0.01-0.03-0.52-0.16-0.8-0.25c-0.11,0.86-0.23,1.71-0.34,2.57
			C471.37,139.21,471.57,139.13,471.77,139.06z"/>
		<path class="st16" d="M489.96,161.99c-0.09,0.47-0.19,1.36-0.27,1.35c-4.49-0.1-8.97-0.28-13.45-0.45c5.6-1.97,1.8-5.81,1.77-8.9
			c2.65-1.03,5.3-2.06,7.95-3.09c0.37,1.21,0.69,2.44,1.13,3.62C488.01,157.02,489,159.5,489.96,161.99z"/>
		<path class="st17" d="M477.1,172.95c-0.14-7.08-0.1-7.12,7.23-6.59c-0.54,3.65-1.07,7.25-1.6,10.85
			C480.85,175.78,478.98,174.37,477.1,172.95z"/>
		<path class="st20" d="M473.9,160.08c-0.55,1.63-1.1,3.27-1.65,4.9c-0.71-1.04-1.41-2.09-2.12-3.13c0.24-0.92,0.47-1.84,0.71-2.75
			c-1.32-5.09-2.65-10.18-3.97-15.27c-0.5-1.08-1-2.15-1.5-3.23c0.23-0.22,0.46-0.45,0.69-0.67
			C471.19,145.67,472.62,152.85,473.9,160.08z"/>
		<path class="st18" d="M485.95,150.9c-2.65,1.03-5.3,2.06-7.95,3.09c-1.07-0.33-2.14-0.66-3.21-0.99c0.06-0.75,0.12-1.5,0.18-2.26
			c3.89-0.98,7.77-1.95,11.66-2.93c0.1,0.29,0.2,0.58,0.3,0.88c-0.25,0.46-0.51,0.92-0.76,1.38
			C486,150.33,485.93,150.6,485.95,150.9z"/>
		<path class="st23" d="M477.1,172.95c1.88,1.42,3.75,2.83,5.63,4.25c-0.54,0.21-1.07,0.43-1.6,0.64c-1.01-0.28-2.02-0.55-3.03-0.83
			c-0.06,0.27-0.12,0.54-0.18,0.82c0.95,0.15,1.91,0.3,2.86,0.44c0.44,0.36,0.87,0.72,1.31,1.08c-0.02,0.24-0.04,0.47-0.06,0.71
			c0,0,0.06-0.04,0.06-0.04c-2.8,1.63-5.12,1.21-6.86-1.62C475.85,176.58,476.48,174.77,477.1,172.95z"/>
		<path class="st27" d="M474.79,153c1.07,0.33,2.14,0.66,3.21,0.99c0.03,3.09,3.83,6.93-1.77,8.9
			C475.75,159.59,475.27,156.3,474.79,153z"/>
		<path class="st23" d="M486.91,148.69c-0.09-0.3-0.19-0.59-0.3-0.88c1.11,2.78,2.21,5.57,3.31,8.35c0.01,1.94,0.02,3.89,0.03,5.83
			c-0.97-2.49-1.96-4.97-2.88-7.47c-0.44-1.18-0.76-2.41-1.13-3.62c-0.01-0.3,0.05-0.58,0.2-0.83
			C486.41,149.61,486.66,149.15,486.91,148.69z"/>
		<path class="st20" d="M461.88,132.18c0.41,1.24,0.82,2.48,1.23,3.72c-0.24,0.24-0.48,0.47-0.72,0.71
			c-0.71-0.59-1.42-1.17-2.14-1.76c-0.82-1.24-1.63-2.48-2.45-3.72c1.37,0.3,2.73,0.59,4.1,0.89L461.88,132.18z"/>
		<path class="st20" d="M463.11,135.9c0.98,1.35,1.97,2.69,2.95,4.04c-0.23,0.22-0.46,0.45-0.69,0.67
			c-0.59-0.57-1.18-1.14-1.77-1.71c-0.41-0.76-0.81-1.53-1.22-2.29C462.63,136.37,462.87,136.14,463.11,135.9z"/>
		<path class="st17" d="M482.03,180.06c0.02-0.24,0.04-0.47,0.06-0.71c0.12,0.19,0.23,0.39,0.35,0.58
			C482.3,179.97,482.16,180.02,482.03,180.06z"/>
		<path class="st27" d="M396.48,153.04c-0.46,2.07-0.92,4.14-1.36,6.11c-2.35,0.38-4.41,0.72-7.28,1.19
			c0.39-2.94,0.79-5.9,1.18-8.86C391.5,152,393.99,152.52,396.48,153.04z"/>
		<path class="st17" d="M394.39,142.29c0.79-1.16,1.59-2.33,2.38-3.49c0,0,0.26,0.23,0.26,0.23c0.96,2.35-3.68,7.08,2.99,7
			c0.34,0.73,0.69,1.46,1.03,2.18c-2.66,0-5.31,0-8.48,0C393.42,145.41,393.9,143.85,394.39,142.29z"/>
		<path class="st19" d="M400.17,135.12c0.28-0.41,0.57-0.82,0.85-1.23c2.82,0.83,5.63,1.55,8.23-0.62c-0.1,1.22-0.2,2.45-0.3,3.67
			l-0.12-0.03c-1.45,0.69-2.9,1.38-4.35,2.08c-1.53-0.66-3.06-1.31-4.58-1.97c0.04-0.27,0.08-0.55,0.11-0.83
			C400.05,135.83,400.11,135.48,400.17,135.12z"/>
		<path class="st13" d="M399.88,137.02c1.53,0.66,3.06,1.31,4.58,1.97c-1.14,3.07-2.28,6.15-3.43,9.22
			c-0.34-0.73-0.69-1.45-1.03-2.18c1.04-2.55,3.88-5.33-0.93-7.11C399.35,138.28,399.62,137.65,399.88,137.02z"/>
		<path class="st10" d="M402.58,157.09c-0.46,0-0.91,0-1.37,0c1.17-3.44,2.34-6.87,3.51-10.31c0,0,0.35,0.28,0.35,0.28
			c-0.39,2.1-0.79,4.2-1.18,6.29C403.46,154.6,403.02,155.84,402.58,157.09z"/>
		<path class="st10" d="M406.78,142.78c0.64-1.34,1.29-2.68,1.93-4.03c0.32,0.29,0.63,0.58,0.95,0.86c-0.8,1.2-1.6,2.4-2.39,3.6
			C407.1,143.08,406.94,142.93,406.78,142.78z"/>
		<path class="st10" d="M404.73,146.78c0.69-1.33,1.38-2.66,2.06-4c0.15,0.15,0.32,0.3,0.49,0.44c-0.14,0.57-0.27,1.15-0.41,1.72
			c-0.59,0.71-1.19,1.42-1.78,2.12C405.07,147.06,404.73,146.78,404.73,146.78z"/>
		<path class="st10" d="M408.71,138.75c0.04-0.61,0.07-1.23,0.11-1.84c0,0,0.12,0.03,0.12,0.03c0.76-0.28,1.53-0.56,2.29-0.84
			c-0.52,1.17-1.04,2.34-1.56,3.51C409.35,139.33,409.03,139.04,408.71,138.75z"/>
		<path class="st26" d="M402.04,192.55c0.28,0.4,0.58,0.8,0.85,1.21c4.02,6.08,4.02,6.08-3.28,10.15c-1.67-2.51-3.36-5.06-5.06-7.6
			C397.05,195.06,399.55,193.81,402.04,192.55z"/>
		<path class="st26" d="M398.42,179.96c-0.54,2.5,4.48,6.38-2.21,7.64c-0.82-2.18-1.63-4.31-2.44-6.45
			C395.32,180.76,396.87,180.36,398.42,179.96z"/>
		<path class="st0" d="M433.46,86.96c1.03,0.34,2.05,0.68,3.08,1.02C435.51,87.64,434.49,87.3,433.46,86.96z"/>
		<path class="st9" d="M458,113.38c1.06,0.89,2.12,1.77,3.17,2.66c0.07,0.43,0.13,0.85,0.2,1.28c0,0-0.13,0.04-0.13,0.04
			c-0.15,0.01-0.3,0.01-0.45,0.02c0.14,0.18,0.27,0.36,0.41,0.53c0,0.3,0.01,0.59,0.02,0.89c-0.02,0.45-0.03,0.9-0.05,1.35
			c-0.61,0.68-1.22,1.36-1.82,2.04c-0.74,0.56-1.48,1.11-2.22,1.67c-0.33,0.03-0.65,0.06-0.98,0.08c-2.15-1.61-4.3-3.23-6.44-4.84
			c3.83-1.22,3.58-4.26,3.27-7.32C454.66,112.31,456.33,112.84,458,113.38z"/>
		<path class="st10" d="M458,113.38c-1.67-0.54-3.35-1.07-5.02-1.61c-0.66-0.26-1.32-0.51-1.98-0.77c-0.33-0.03-0.66-0.03-0.99,0
			c-1.68-0.34-3.36-0.68-5.03-1.02l0.05,0.03c0.33-0.69,0.51-1.54,1.03-2.02c0.86-0.79,1.94-1.35,2.93-2.01
			c0.88,0.24,1.77,0.47,2.65,0.71c-1.39,3.32,1.79,2.41,3.03,3.37C455.89,111.02,456.9,112.26,458,113.38z"/>
		<path class="st13" d="M466.84,117.19c0.41,0.57,0.82,1.14,1.23,1.71c-0.02,0.66-0.04,1.32-0.06,1.97
			c-0.51,0.52-1.02,1.03-1.53,1.54c-0.22-0.19-0.43-0.39-0.65-0.58c-0.71-1.48-1.43-2.96-2.14-4.43c0.14-0.18,0.28-0.37,0.43-0.55
			C465.02,116.97,465.93,117.08,466.84,117.19z"/>
		<path class="st13" d="M461.38,117.32c-0.07-0.43-0.14-0.85-0.2-1.28c0.98,0.27,1.96,0.54,2.94,0.81
			c-0.14,0.18-0.28,0.37-0.42,0.55C462.92,117.37,462.15,117.35,461.38,117.32z"/>
		<path class="st0" d="M440.53,87.21c-0.34,0.59-0.57,1-0.81,1.42c-0.43-0.35-0.87-0.69-1.3-1.04c0.3-0.31,0.56-0.8,0.92-0.88
			C439.65,86.63,440.07,87,440.53,87.21z"/>
		<path class="st26" d="M395.05,174.46c-1.01-1.47-2.31-2.84-2.88-4.46c-0.26-0.73,0.95-1.97,1.5-2.98c1.27,1.9,2.54,3.8,3.8,5.7
			C396.66,173.3,395.85,173.88,395.05,174.46z"/>
		<path class="st17" d="M412.7,114c1.38,3.1,2.75,6.2,4.13,9.3c0.04,1.55,0.07,3.1,0.11,4.65c0,0-0.04-0.05-0.04-0.05
			c-0.95,0.32-1.89,0.64-2.84,0.96c-1.42-2.94-2.83-5.88-4.41-9.17c0.5-1.1,1.3-2.88,2.1-4.65C412.06,114.7,412.38,114.35,412.7,114
			z"/>
		<path class="st19" d="M406.04,127.6c0.84-0.97,1.68-1.94,2.52-2.9c1.32,1.77,2.64,3.54,3.95,5.31c0.14,0.31,0.27,0.62,0.41,0.93
			c0,0,0.03,0.02,0.03,0.02c-0.91,0.41-1.81,0.83-2.72,1.24C408.84,130.66,407.44,129.13,406.04,127.6z"/>
		<path class="st11" d="M412.93,130.94c-0.14-0.31-0.27-0.62-0.41-0.93c0.51-0.38,1.02-0.76,1.54-1.14
			c0.95-0.32,1.89-0.64,2.84-0.96C415.57,128.92,414.25,129.93,412.93,130.94z"/>
		<path class="st11" d="M456.16,123.94c0.33-0.02,0.65-0.05,0.98-0.08c0.63,0.38,1.26,0.76,1.89,1.14l-0.01-0.02
			c-2.15,3.44,0.17,3.94,2.79,4.24c0.03,0.93,0.07,1.87,0.1,2.8c-1.37-0.3-2.73-0.59-4.1-0.89c0,0,0.15-0.07,0.15-0.07
			c-0.34-0.34-0.68-0.68-1.02-1.02l0.03,0.03c-2.94-1.61-5.88-3.22-8.82-4.83c-4.73-0.13-9.46-0.26-14.19-0.38
			c-0.99,0.03-1.98,0.06-2.97,0.09c-0.41-1.14-0.82-2.28-0.96-2.66c1.57-0.86,2.79-1.54,4.02-2.21c0.67-0.32,1.35-0.64,2.02-0.96
			c1.68,0.31,3.36,0.62,5.03,0.94c3.52,1.24,7.01,2.59,10.59,3.66C453.07,124.12,454.66,123.88,456.16,123.94z"/>
		<path class="st13" d="M461.81,129.22c-2.62-0.3-4.94-0.81-2.79-4.24c2.27-1.05,4.54-2.09,6.81-3.14c0.22,0.19,0.43,0.38,0.65,0.58
			c-0.15,0.52-0.3,1.03-0.45,1.54C464.62,125.71,463.22,127.47,461.81,129.22z"/>
		<path class="st26" d="M406.04,127.6c1.4,1.53,2.79,3.07,4.19,4.6c0,0-0.16-0.09-0.16-0.09c-0.31,0.33-0.61,0.66-0.92,0.99
			c0,0,0.09,0.17,0.09,0.17c-2.59,2.17-5.41,1.45-8.23,0.62c0.03-0.28,0.03-0.57-0.01-0.85
			C402.68,131.23,404.36,129.41,406.04,127.6z"/>
		<path class="st18" d="M474.92,207.92c-0.83-5.03,3.45-11.04,8.28-11.63c-1.46,2.52-2.92,5.04-4.38,7.56
			c-1.01,1.31-2.02,2.62-3.03,3.93C475.5,207.83,475.21,207.88,474.92,207.92z"/>
		<path class="st17" d="M399.88,137.02c-0.26,0.63-0.53,1.27-0.79,1.9c-0.69,0.04-1.37,0.08-2.06,0.11c0,0-0.26-0.23-0.26-0.23
			c0.12-0.56,0.25-1.13,0.38-1.69c0.95-0.31,1.9-0.61,2.85-0.92C399.96,136.46,399.92,136.74,399.88,137.02z"/>
		<path class="st9" d="M476.01,189.96c1.22,0.03,2.44,0.06,3.66,0.09c-0.51,0.64-1.02,1.28-1.53,1.92
			C477.43,191.31,476.72,190.64,476.01,189.96z"/>
		<path class="st19" d="M468.01,120.88c0.02-0.66,0.04-1.32,0.06-1.97c0.49,0.19,0.99,0.37,1.48,0.56c0,0,0.01,0.18,0,0.18
			c-0.26,0.36-0.52,0.73-0.78,1.09C468.53,120.82,468.27,120.87,468.01,120.88z"/>
		<path class="st23" d="M418.11,201.04c-0.33-0.05-0.66-0.1-0.98-0.17c-0.08-0.25-0.12-0.51-0.12-0.78c1.91-4.2-0.94-6.65-3.61-8.87
			c-0.67-0.56-2.52,0.31-3.83,0.52c-0.54-0.91-1.08-1.82-1.62-2.73c2.05-1.07,4.11-2.15,6.16-3.22c1.55,1.4,3.1,2.81,4.64,4.21
			c1.49,1.97,2.98,3.93,4.99,6.58c1.1-2.12,1.73-3.35,2.36-4.57c4.17-3.05,0.54-6.82,0.93-10.22c0.33,0.06,0.66,0.11,0.99,0.17
			c0.67,1,1.34,2,2.02,2.99c-0.39,2.86,0.57,4.12,3.73,4.12c4.04,0,8.09,0.6,12.13,0.94c0.73,0.94,1.46,1.88,2.19,2.83
			c-0.38,1.69-0.76,3.38-0.92,4.1c-2.78,1.93-5.02,3.23-6.86,4.95c-0.38,0.35,0.68,2.24,1.07,3.42c0.16,3.59-2.47,2.39-4.33,2.52
			c-2.29-0.73-4.59-1.45-7.18-2.27c1.3-3.44,1.36-5.96-2.43-7.51c-2.52-1.03-4.23-1.25-6.06,1.01
			C420.63,200.01,419.22,200.41,418.11,201.04z"/>
		<path class="st23" d="M402.58,157.09c0.44-1.24,0.88-2.49,1.31-3.73c0.33,2.25,0.65,4.5,0.98,6.74c0.53,1.58,1.06,3.15,1.96,5.84
			c1.13-2.47,1.71-3.74,2.3-5.01c0.5,1.05,0.99,2.1,1.29,2.73c1.37-0.24,2.44-0.43,3.51-0.62c0.18,0.23,0.4,0.4,0.67,0.51
			c-0.04,0.52-0.08,1.04-0.12,1.56c-0.06,1.6-0.11,3.2-0.17,4.8c-0.04,3.15-0.08,6.3-0.12,9.45c-0.08,1.21-0.16,2.41-0.24,3.62
			c-2.23-4.44-4.46-8.88-7.32-14.56c-1.68,3.61-2.6,5.59-3.52,7.58C402.94,169.68,402.76,163.39,402.58,157.09z"/>
		<path class="st16" d="M403.12,175.98c0.92-1.98,1.84-3.97,3.52-7.58c2.85,5.68,5.08,10.12,7.32,14.56
			c0.05,0.94,0.1,1.89,0.14,2.83c-2.05,1.07-4.11,2.15-6.16,3.22C406.33,184.67,404.73,180.33,403.12,175.98z"/>
		<path class="st28" d="M409.56,191.75c1.31-0.21,3.16-1.08,3.83-0.52c2.67,2.22,5.51,4.67,3.61,8.87c-1.28-1.03-2.57-2.07-3.85-3.1
			C411.95,195.25,410.76,193.5,409.56,191.75z"/>
		<path class="st24" d="M432.04,224c0.58-3.28,1.15-6.56,1.73-9.84c2.13,0,4.26,0,6.62,0c0.6,3.21,1.17,6.23,1.84,9.84
			C438.83,224,435.43,224,432.04,224z"/>
		<path class="st23" d="M470.14,161.85c0.71,1.04,1.41,2.09,2.12,3.13c0.09,1.03,0.18,2.05,0.27,3.08c-0.74,1.6-1.48,3.2-2.22,4.79
			c-0.73-1.68-1.54-3.53-2.34-5.39c-0.42,0.02-0.84,0.04-1.25,0.06c-0.69,3.56-1.38,7.13-1.88,9.73c2.42,1.4,3.81,2.21,5.21,3.02
			c0.09,0.23,0.04,0.42-0.15,0.57c-0.29,0.8-0.57,1.59-0.86,2.38c-0.36,0.86-0.71,1.71-1.07,2.57c-0.32,0.72-0.64,1.43-0.96,2.14
			c0,0-0.04,0.07-0.04,0.07c-0.34,0.64-0.68,1.29-1.01,1.93c-0.7,1.32-1.4,2.64-2.1,3.97c-1.1,1.04-2.2,2.07-3.29,3.1
			c-1.25-0.06-2.49-0.11-3.74-0.17c0.43-0.29,0.86-0.58,1.29-0.88c-0.63-1.68-1.25-3.37-1.88-5.05c1.22-1.89,2.44-3.77,3.87-5.97
			c-2.14-1.48-4.02-2.79-5.9-4.09c-0.49-0.59-0.98-1.17-1.47-1.76c2.2-2.59,7.49-2.03,7.27-7.1c0.29-4.02,0.59-8.05,0.88-12.07
			c1.38,0.02,2.75,0.04,4.13,0.06c0.83,1.73,1.65,3.46,2.48,5.21C468.38,164.08,469.26,162.97,470.14,161.85z"/>
		<path class="st16" d="M470.04,180.28c-1.4-0.81-2.8-1.62-5.21-3.02c0.5-2.6,1.19-6.16,1.88-9.73c0.42-0.02,0.84-0.04,1.25-0.06
			c0.81,1.85,1.61,3.71,2.34,5.39c0.74-1.59,1.48-3.19,2.22-4.79C471.7,172.13,470.87,176.21,470.04,180.28z"/>
		<path class="st16" d="M465.95,189.96c0.34-0.64,0.68-1.29,1.01-1.93c-0.09,0.57-0.17,1.13-0.26,1.7
			C466.45,189.79,466.2,189.87,465.95,189.96z"/>
		<path class="st16" d="M467,187.95c0.32-0.71,0.64-1.43,0.96-2.14C467.64,186.52,467.32,187.23,467,187.95z"/>
		<path class="st16" d="M469.03,183.24c0.29-0.79,0.57-1.59,0.86-2.38C469.61,181.65,469.32,182.44,469.03,183.24z"/>
		<path class="st16" d="M441.38,205.33c-0.4-1.18-1.45-3.08-1.07-3.42c1.85-1.72,4.08-3.02,6.86-4.95c0.16-0.71,0.54-2.41,0.92-4.1
			c0.3,0.06,0.6,0.13,0.89,0.2c1.35,1.71,2.69,3.41,4.04,5.12c0.6,1.27,1.21,2.54,1.81,3.8c-0.46,0.47-0.92,0.94-1.39,1.41
			c-0.72,0.43-1.44,0.87-2.16,1.3C448.02,205.46,444.9,208.52,441.38,205.33z"/>
		<path class="st24" d="M454.83,201.99c-0.6-1.27-1.21-2.54-1.81-3.81c1.07-2.42,2.14-4.84,3.2-7.25c0.63,1.68,1.25,3.37,1.88,5.05
			c-0.43,0.29-0.86,0.58-1.29,0.88c1.25,0.06,2.49,0.11,3.74,0.17c-1.01,1.16-2.02,2.32-3.04,3.48
			C456.62,201,455.72,201.5,454.83,201.99z"/>
		<path class="st10" d="M434.04,120.07c-1.23,0.68-2.45,1.35-4.02,2.21c0.14,0.39,0.55,1.53,0.96,2.66c-2.46,1-4.92,1.99-7.37,2.99
			c-0.3-0.02-0.58,0.06-0.84,0.22c-0.9,0.73-1.81,1.46-2.72,2.18c-0.96,0.56-1.93,1.12-2.89,1.67c-1.34,0.73-2.68,1.46-4.02,2.19
			c-0.06-1.09-0.12-2.17-0.18-3.26c0,0-0.03-0.02-0.03-0.02c1.32-1.01,2.65-2.02,3.97-3.03c0,0,0.04,0.04,0.04,0.04
			c1.91-0.57,3.82-1.14,5.65-1.69c-0.35-1.91-0.58-3.15-0.81-4.4c2.12-1.28,4.23-2.57,6.35-3.85c0.61-0.34,1.23-0.69,1.84-1.03
			C431.33,118.02,432.69,119.04,434.04,120.07z"/>
		<path class="st20" d="M450.01,111c0.33-0.03,0.66-0.03,0.99,0c0.88,2.61-0.05,3.37-2.74,3.35c-0.72,0-1.46,2.33-2.19,3.59
			c-1.42,0.66-2.84,1.31-4.26,1.97c0.04-0.29,0.1-0.58,0.18-0.87c0.35-3.03,0.7-6.06,1.06-9.09c0.66,0.02,1.32,0.04,1.98,0.05
			c0,0-0.05-0.03-0.05-0.03C446.66,110.32,448.33,110.66,450.01,111z"/>
		<path class="st9" d="M441.99,119.04c-0.07,0.29-0.13,0.58-0.18,0.87c-0.24,0.05-0.48,0.09-0.72,0.14
			c-1.68-0.31-3.35-0.62-5.03-0.94C438.04,119.09,440.01,119.06,441.99,119.04z"/>
		<path class="st11" d="M421.79,121.87c0.23,1.24,0.46,2.49,0.81,4.4c-1.83,0.55-3.74,1.12-5.65,1.69c-0.04-1.55-0.07-3.1-0.11-4.65
			C418.48,122.82,420.13,122.34,421.79,121.87z"/>
		<path class="st11" d="M471.17,139.28c0.11-0.86,0.23-1.71,0.34-2.57c0.28,0.09,0.81,0.22,0.8,0.25c-0.15,0.7-0.35,1.4-0.54,2.08
			c0-0.01-0.43-0.2-0.43-0.2L471.17,139.28z"/>
		<path class="st19" d="M471.17,139.28c0,0,0.17-0.44,0.17-0.44s0.43,0.19,0.43,0.2C471.57,139.13,471.37,139.21,471.17,139.28z"/>
		<path class="st27" d="M466.87,143.83c1.32,5.09,2.65,10.18,3.97,15.27c-2.26-0.74-4.53-1.48-6.79-2.22
			c-0.71-1.96-1.43-3.93-2.14-5.9c-0.31-0.33-0.61-0.66-0.92-0.99c-0.37-0.4-0.75-0.8-1.12-1.2
			C462.21,147.14,464.54,145.49,466.87,143.83z"/>
		<path class="st23" d="M466.87,143.83c-2.33,1.66-4.67,3.31-7,4.97l0.07,0.12c-0.27-0.1-0.55-0.17-0.83-0.21
			c-2.31-8.15-2.31-8.15,4.5-9.8c0.59,0.57,1.18,1.14,1.77,1.71C465.87,141.68,466.37,142.76,466.87,143.83z"/>
		<path class="st24" d="M464.06,156.88c2.26,0.74,4.53,1.48,6.79,2.22c-0.24,0.92-0.47,1.84-0.71,2.75
			c-0.88,1.11-1.76,2.23-2.65,3.35c-0.83-1.75-1.66-3.48-2.48-5.21C464.69,158.96,464.37,157.92,464.06,156.88z"/>
		<path class="st16" d="M486.91,148.69c-0.25,0.46-0.51,0.92-0.76,1.38C486.41,149.61,486.66,149.15,486.91,148.69z"/>
		<path class="st11" d="M480.78,178.27c-0.95-0.15-1.91-0.3-2.86-0.44c0.06-0.27,0.12-0.54,0.18-0.82c1.01,0.28,2.02,0.55,3.03,0.83
			C481.01,177.98,480.89,178.13,480.78,178.27z"/>
		<path class="st28" d="M463.6,138.9c-6.81,1.65-6.81,1.65-4.5,9.81c-1.69,1.12-3.38,2.23-5.07,3.34c0.36-1.24,0.54-2.56,1.11-3.69
			c1.34-2.67,0.66-4.4-2.09-5.4c-1.99,0.37-3.99,0.73-5.98,1.1c-0.94-0.55-2.28-0.87-2.76-1.7c-1.82-3.14-3.64-2.68-5.76-0.42
			c-0.66,0.7-1.46,1.26-2.2,1.88c-0.07-0.38-0.13-0.77-0.2-1.15c-2.71,0.12-5.42,0.24-8.13,0.36c-0.38-0.32-0.77-0.63-1.15-0.95
			c-0.26-1.14-0.53-2.29-0.79-3.43c0.91,0.23,2.35,0.94,2.64,0.62c3.17-3.54,7.4-2.09,11.2-2.59c0.72-0.92,1.45-1.83,2.17-2.75
			c1.75,0.41,3.5,1.12,5.26,1.16c4.3,0.09,8.6-0.14,12.9-0.24c0.71,0.59,1.42,1.17,2.14,1.76
			C462.79,137.38,463.2,138.14,463.6,138.9z"/>
		<path class="st23" d="M460.25,134.85c-4.3,0.1-8.6,0.33-12.9,0.24c-1.76-0.04-3.51-0.75-5.26-1.16c0,0-0.08-0.01-0.08-0.01
			c-0.38-0.29-0.77-0.58-1.15-0.86c-0.44,0.09-0.87,0.19-1.31,0.28c-0.55-0.4-1.1-0.79-1.64-1.19c-0.31-0.38-0.63-0.75-0.94-1.13
			c-0.58-2.26,1.9-6.03-3.02-6.16c4.73,0.13,9.46,0.26,14.19,0.38c2.94,1.61,5.88,3.22,8.82,4.83c0,0-0.03-0.03-0.03-0.03
			c0.34,0.34,0.68,0.68,1.02,1.02c0,0-0.15,0.07-0.15,0.07C458.62,132.37,459.44,133.61,460.25,134.85z"/>
		<path class="st27" d="M397.03,139.03c0.69-0.04,1.37-0.08,2.06-0.11c4.8,1.79,1.96,4.56,0.93,7.11
			C393.35,146.11,397.98,141.38,397.03,139.03z"/>
		<path class="st11" d="M412.95,130.96c0.06,1.09,0.12,2.17,0.18,3.26c0,0-0.07-0.16-0.07-0.16c-0.34,0.34-0.68,0.68-1.02,1.02
			c0,0,0.02-0.02,0.02-0.02c-0.34,0.34-0.68,0.68-1.02,1.03l0.17,0.02c-0.76,0.28-1.52,0.56-2.29,0.84c0.1-1.22,0.2-2.45,0.3-3.67
			c0,0-0.09-0.17-0.09-0.18c0.31-0.33,0.61-0.66,0.92-0.99c0,0,0.16,0.09,0.16,0.09C411.14,131.78,412.05,131.37,412.95,130.96z"/>
		<path class="st27" d="M404.87,160.1c-0.33-2.25-0.65-4.49-0.98-6.74c0.39-2.1,0.79-4.2,1.18-6.3c0.59-0.71,1.19-1.42,1.78-2.12
			c0.72,0.08,1.44,0.16,2.15,0.23C407.63,150.15,406.25,155.12,404.87,160.1z"/>
		<path class="st23" d="M409.01,145.17c-0.72-0.08-1.44-0.16-2.15-0.23c0.14-0.57,0.27-1.15,0.41-1.72c0.8-1.2,1.6-2.4,2.39-3.6
			c0.52-1.17,1.04-2.34,1.56-3.51c0,0-0.17-0.03-0.17-0.03c0.34-0.34,0.68-0.68,1.02-1.02c0,0-0.02,0.02-0.02,0.02
			c0.34-0.34,0.68-0.68,1.02-1.02c0,0,0.07,0.16,0.07,0.16c1.34-0.73,2.68-1.46,4.02-2.19c-0.74,2.64-1.47,5.29-2.21,7.93
			c-1.67,1.73-3.35,3.47-5.02,5.2C409.62,145.14,409.31,145.14,409.01,145.17z"/>
		<path class="st10" d="M441.1,120.05c0.24-0.05,0.48-0.09,0.72-0.14c1.42-0.66,2.84-1.31,4.26-1.97c1.21,0.38,2.43,0.77,3.64,1.15
			c2.15,1.61,4.3,3.23,6.44,4.84c-1.5-0.06-3.08,0.18-4.47-0.23C448.11,122.64,444.62,121.29,441.1,120.05z"/>
		<path class="st11" d="M449.71,119.1c-1.21-0.38-2.43-0.77-3.64-1.15c0.73-1.26,1.46-3.59,2.19-3.59c2.7,0.02,3.62-0.74,2.74-3.35
			c0.66,0.26,1.32,0.51,1.98,0.77C453.29,114.84,453.55,117.88,449.71,119.1z"/>
		<path class="st26" d="M465.83,121.84c-2.27,1.05-4.54,2.09-6.81,3.14c0,0,0.01,0.02,0.01,0.02c0.11-0.93,0.22-1.87,0.33-2.8
			c0.61-0.68,1.22-1.36,1.82-2.04c0.02-0.45,0.03-0.9,0.05-1.35c-0.01-0.3-0.02-0.59-0.02-0.89c0.1-0.18,0.11-0.36,0.04-0.56
			c0,0,0.13-0.04,0.13-0.04c0.77,0.03,1.54,0.06,2.31,0.09C464.4,118.88,465.12,120.36,465.83,121.84z"/>
		<path class="st13" d="M459.36,122.19c-0.11,0.93-0.22,1.87-0.33,2.8c-0.63-0.38-1.26-0.76-1.89-1.14
			C457.88,123.3,458.62,122.75,459.36,122.19z"/>
		<path class="st13" d="M461.23,118.81c-0.02,0.45-0.03,0.9-0.05,1.35C461.2,119.7,461.22,119.25,461.23,118.81z"/>
		<path class="st13" d="M461.25,117.36c0.07,0.19,0.06,0.38-0.04,0.56c-0.14-0.18-0.27-0.35-0.41-0.53
			C460.95,117.37,461.1,117.37,461.25,117.36z"/>
		<path class="st11" d="M450.01,111c-1.68-0.34-3.36-0.68-5.03-1.02C446.66,110.32,448.33,110.66,450.01,111z"/>
		<path class="st24" d="M433.95,124.86c4.92,0.14,2.44,3.9,3.02,6.16c-4.45-1.03-8.91-2.06-13.36-3.08c2.46-1,4.92-1.99,7.37-2.99
			C431.97,124.92,432.96,124.89,433.95,124.86z"/>
		<path class="st20" d="M456.96,130.08c-2.94-1.61-5.88-3.22-8.82-4.83C451.08,126.86,454.02,128.47,456.96,130.08z"/>
		<path class="st20" d="M457.95,131.07c-0.34-0.34-0.68-0.68-1.02-1.02C457.27,130.39,457.61,130.73,457.95,131.07z"/>
		<path class="st19" d="M410.07,132.1c-0.31,0.33-0.61,0.66-0.92,0.99C409.46,132.77,409.77,132.43,410.07,132.1z"/>
		<path class="st24" d="M453.05,142.96c2.75,1,3.43,2.74,2.09,5.4c-0.57,1.13-0.75,2.45-1.11,3.69c0,0,0.01-0.03,0.01-0.03
			c-0.68,0.38-1.36,0.77-2.03,1.15c-0.17,2.91,1.7,3.19,3.78,2.66c1.69-0.42,3.26-1.3,4.89-1.97c0.07,2.03,0.14,4.05,0.2,6.08
			c-0.29,4.02-0.59,8.05-0.88,12.07c-3.31,0.31-6.63,0.62-9.94,0.92c0.03-1.33,0.06-2.66,0.09-4c0.8,0.12,1.65,0.46,2.41,0.32
			c1.79-0.35,4.53-0.42,5.08-1.51c1.15-2.28,0.5-4.76-2.69-5.65c-1.68-0.47-3.25-1.34-4.88-2.03c-0.29-0.47-0.58-0.93-0.87-1.4
			c-0.41,0.77-0.81,1.55-1.22,2.32c-0.34,1.66-0.69,3.32-1.03,4.98c-0.07,0.64-0.13,1.29-0.2,1.93c-5.56,0.35-8.58,4.26-11.84,8.07
			c-1.96,2.29-4.57,4.03-6.89,6.01c-0.33-0.06-0.66-0.11-0.99-0.17c-0.92-1.24-1.84-2.49-2.76-3.73c-0.34,0.22-0.67,0.44-1.01,0.66
			c0.94,4.43,1.89,8.86,2.83,13.29c-0.63,1.22-1.26,2.45-2.36,4.57c-2.01-2.65-3.5-4.61-4.99-6.58c2.73-5.93,1.58-8.6-4.55-10.67
			c0.04-3.15,0.08-6.3,0.11-9.45c1.66,0.95,3.27,2,4.99,2.81c1.83,0.87,3.77,1.51,5.67,2.25c4.75-0.38,8.33-1.88,9.91-7.18
			c0.67-2.24,3.44-5.14,5.54-5.39c3.7-0.45,5.27-1.89,6.07-5.19c0.26-1.06,1.31-1.9,1.77-2.95
			C449.91,150.51,451.46,146.73,453.05,142.96z"/>
		<path class="st28" d="M428.02,181.98c2.32-1.99,4.93-3.72,6.89-6.01c3.26-3.81,6.29-7.72,11.85-8.07
			c0.06,1.02,0.12,2.03,0.17,3.05c-6.96,2.58-10.95,8.3-14.92,14.05l-0.01,0.01c-0.65-0.01-1.3-0.02-1.96-0.03
			C429.36,183.98,428.69,182.98,428.02,181.98z"/>
		<path class="st26" d="M448.98,193.06c-0.3-0.07-0.59-0.14-0.89-0.2c-0.73-0.94-1.46-1.89-2.19-2.83
			c-0.41-1.37-0.83-2.74-1.24-4.11c1.78-2.65,3.56-5.29,5.33-7.94c0.91,0.37,1.82,0.75,2.72,1.12c0.49,0.59,0.98,1.17,1.47,1.76
			C452.46,184.94,450.72,189,448.98,193.06z"/>
		<path class="st13" d="M444.66,185.93c0.41,1.37,0.83,2.74,1.24,4.11c-4.05-0.34-8.09-0.95-12.14-0.94c-3.16,0-4.12-1.26-3.73-4.12
			c0.65,0.01,1.3,0.02,1.96,0.03C436.22,185.31,440.44,185.62,444.66,185.93z"/>
		<path class="st18" d="M414.2,179.35c6.13,2.07,7.28,4.74,4.55,10.67c-1.55-1.4-3.1-2.81-4.65-4.21c-0.05-0.95-0.1-1.89-0.14-2.83
			C414.04,181.76,414.12,180.56,414.2,179.35z"/>
		<path class="st16" d="M426.09,192.03c-0.94-4.43-1.89-8.86-2.83-13.29c0.34-0.22,0.67-0.44,1.01-0.66
			c0.92,1.25,1.84,2.49,2.76,3.73C426.64,185.21,430.26,188.97,426.09,192.03z"/>
		<path class="st29" d="M426.87,142.09c0.38,0.32,0.77,0.63,1.15,0.95c1.67,2.28,3.35,4.56,5.02,6.84
			c-0.94,1.47-1.69,3.12-2.86,4.38c-1.91,2.06-4.08,3.87-6.15,5.79c-0.04,0.93-0.08,1.86-0.12,2.79l-0.03,0.07
			c-2.32,0.76-4.65,1.52-6.97,2.28c-0.81-0.03-1.62-0.06-2.43-0.09c0.04-0.52,0.08-1.04,0.13-1.56c1.48-3.84,2.96-7.67,4.44-11.51
			C423.96,150.53,425.67,146.51,426.87,142.09z"/>
		<path class="st25" d="M419.04,152.03c-1.48,3.84-2.96,7.67-4.44,11.51c-0.27-0.11-0.49-0.28-0.67-0.5
			c0.5-11.8,0.5-11.8-1.81-12.29c-1.02,3.46-2,6.82-2.99,10.19c-0.58,1.27-1.16,2.54-2.3,5.01c-0.9-2.69-1.43-4.26-1.96-5.84
			c1.38-4.98,2.76-9.95,4.14-14.93c0.3-0.03,0.6-0.03,0.91-0.02c1.01,0.55,2.03,1.09,3.04,1.64c2.29-1.67,4.57-3.33,6.86-5
			c0.27,2.46,1.85,5.03-1.02,7.18C418.37,149.29,418.94,150.97,419.04,152.03z"/>
		<path class="st27" d="M414.48,165.1c0.81,0.03,1.62,0.06,2.43,0.09c3.38,3.01,6,2.15,6.97-2.28c0,0,0.03-0.07,0.03-0.07
			c0.71,1.09,1.41,2.19,2.12,3.28c-0.35,2.95-0.71,5.9-1.06,8.84c-1.89-0.74-3.83-1.38-5.67-2.25c-1.72-0.81-3.33-1.86-4.99-2.81
			C414.37,168.3,414.43,166.7,414.48,165.1z"/>
		<path class="st17" d="M409.13,160.93c0.99-3.36,1.98-6.73,2.99-10.19c2.31,0.49,2.31,0.49,1.81,12.29
			c-1.07,0.19-2.14,0.38-3.51,0.62C410.12,163.02,409.63,161.97,409.13,160.93z"/>
		<path class="st27" d="M448.98,193.06c1.74-4.06,3.47-8.13,5.21-12.19c1.88,1.3,3.76,2.6,5.9,4.09c-1.43,2.2-2.65,4.09-3.87,5.97
			c-1.07,2.42-2.14,4.83-3.2,7.25C451.67,196.48,450.33,194.77,448.98,193.06z"/>
		<path class="st13" d="M452.72,179.11c-0.91-0.37-1.82-0.75-2.72-1.12c0.02-1.69,0.04-3.37,0.06-5.06
			c3.31-0.31,6.63-0.62,9.94-0.92C460.21,177.08,454.93,176.52,452.72,179.11z"/>
		<path class="st13" d="M460.87,159.94c-0.07-2.03-0.14-4.05-0.2-6.08c0.08-1.02,0.16-2.03,0.24-3.05c0.34,0.06,0.67,0.12,1.01,0.18
			c0.71,1.97,1.43,3.93,2.14,5.9c0.31,1.04,0.63,2.07,0.94,3.11C463.62,159.98,462.25,159.96,460.87,159.94z"/>
		<path class="st27" d="M423.61,127.94c4.45,1.03,8.91,2.06,13.36,3.08c0.31,0.38,0.63,0.75,0.94,1.13
			c-1.93,0.42-3.84,0.98-5.79,1.24c-2.33,0.31-4.69,0.38-7.04,0.55c-0.77-1.93-1.54-3.85-2.32-5.78
			C423.02,128,423.3,127.93,423.61,127.94z"/>
		<path class="st28" d="M414.94,139.95c0.74-2.64,1.47-5.29,2.21-7.93c0.97-0.56,1.93-1.12,2.9-1.68c0.64,1.23,1.29,2.45,1.94,3.68
			c-2.3,2.02-4.6,4.03-6.91,6.05L414.94,139.95z"/>
		<path class="st18" d="M421.98,134.02c-0.65-1.23-1.29-2.45-1.94-3.68c0.91-0.73,1.82-1.46,2.72-2.18
			c0.77,1.93,1.54,3.86,2.31,5.78c-0.75,0.03-1.49,0.06-2.23,0.09C422.56,134.06,422.27,134.06,421.98,134.02z"/>
		<path class="st24" d="M461.92,150.99c-0.34-0.06-0.67-0.12-1.01-0.17c0.01-0.25,0.01-0.5,0.01-0.75L461,150
			C461.3,150.33,461.61,150.66,461.92,150.99z"/>
		<path class="st24" d="M459.87,148.8c0.37,0.4,0.75,0.8,1.12,1.2c0,0-0.08,0.06-0.08,0.06c-0.33-0.38-0.65-0.76-0.98-1.14
			L459.87,148.8z"/>
		<path class="st26" d="M459.94,148.92c0.33,0.38,0.65,0.76,0.98,1.14c0.01,0.25,0,0.5-0.01,0.75c-0.08,1.01-0.16,2.03-0.24,3.05
			c-1.63,0.67-3.2,1.55-4.89,1.97c-2.08,0.52-3.95,0.24-3.78-2.67c0.68-0.38,1.36-0.77,2.03-1.15c0,0-0.01,0.03-0.01,0.03
			c1.69-1.11,3.38-2.23,5.07-3.34C459.39,148.75,459.67,148.82,459.94,148.92z"/>
		<path class="st26" d="M424.97,174.96c0.35-2.95,0.71-5.9,1.06-8.84c2.1-1.02,5.31-1.52,6.08-3.16c2.35-5.01,6.71-6.87,11.09-9.13
			c1.53-0.79,2.55-2.58,3.8-3.91c0.02-1.95,0.04-3.9,0.06-5.85c1.99-0.37,3.99-0.73,5.98-1.1c-1.59,3.77-3.14,7.55-4.78,11.29
			c-0.46,1.04-1.51,1.89-1.77,2.95c-0.79,3.29-2.37,4.73-6.07,5.19c-2.1,0.26-4.88,3.15-5.54,5.39
			C433.3,173.08,429.72,174.58,424.97,174.96z"/>
		<path class="st24" d="M447.06,144.06c-0.02,1.95-0.04,3.9-0.06,5.85c-4.31-3.05-8.69-2.96-13.11-0.26
			c-0.3,0.03-0.58,0.1-0.85,0.22c-1.67-2.28-3.35-4.56-5.02-6.84c2.71-0.12,5.42-0.24,8.13-0.36c0.07,0.38,0.13,0.77,0.2,1.15
			c0.74-0.62,1.54-1.18,2.2-1.88c2.12-2.26,3.94-2.72,5.76,0.42C444.78,143.18,446.12,143.51,447.06,144.06z"/>
		<path class="st18" d="M419.04,152.03c-0.1-1.05-0.68-2.73-0.24-3.06c2.87-2.14,1.29-4.72,1.02-7.17c1.23-1.6,2.46-3.21,3.68-4.82
			c0.86,0.56,1.71,1.12,2.57,1.68c0.26,1.14,0.53,2.28,0.79,3.43C425.67,146.51,423.96,150.53,419.04,152.03z"/>
		<path class="st29" d="M426.08,138.66c-0.86-0.56-1.71-1.12-2.57-1.68c-0.22-0.98-0.44-1.96-0.66-2.94
			c0.74-0.03,1.49-0.06,2.24-0.09c2.35-0.17,4.71-0.24,7.04-0.55c1.95-0.26,3.86-0.82,5.79-1.24c0.55,0.4,1.1,0.79,1.65,1.19
			c0.12,1.11,0.24,2.23,0.36,3.34c-3.8,0.5-8.03-0.95-11.2,2.59C428.43,139.6,426.99,138.89,426.08,138.66z"/>
		<path class="st27" d="M439.92,136.69c-0.12-1.11-0.24-2.23-0.36-3.34c0.43-0.09,0.87-0.19,1.31-0.28
			c0.38,0.29,0.77,0.58,1.15,0.86c0,0,0.08,0.01,0.08,0.01C441.37,134.85,440.64,135.77,439.92,136.69z"/>
		<path class="st28" d="M442.02,133.92c-0.38-0.29-0.77-0.58-1.15-0.86C441.25,133.35,441.63,133.64,442.02,133.92z"/>
		<path class="st10" d="M413.07,134.06c-0.34,0.34-0.68,0.68-1.02,1.02C412.39,134.73,412.73,134.39,413.07,134.06z"/>
		<path class="st10" d="M412.07,135.05c-0.34,0.34-0.68,0.68-1.02,1.02C411.39,135.73,411.73,135.39,412.07,135.05z"/>
		<path class="st28" d="M412.96,146.79c-1.01-0.55-2.03-1.09-3.04-1.64c1.67-1.73,3.35-3.46,5.02-5.2c0,0,0.14,0.12,0.13,0.12
			C414.37,142.31,413.67,144.55,412.96,146.79z"/>
		<path class="st23" d="M450.05,172.93c-0.02,1.69-0.04,3.37-0.06,5.06c-1.78,2.65-3.55,5.29-5.33,7.94
			c-4.23-0.31-8.45-0.62-12.67-0.93c0,0,0.01-0.01,0.01-0.01c1.97-1.27,3.98-2.48,5.89-3.84c1.29-0.92,2.45-2.96,3.64-2.93
			c5.56,0.12,5.66-3.35,5.4-7.28c-0.06-1.02-0.11-2.03-0.17-3.05c0.06-0.64,0.13-1.29,0.2-1.93c1,0.02,1.99,0.04,2.98,0.05
			c0.07,0.97,0.14,1.95,0.2,2.92C450.11,170.27,450.08,171.6,450.05,172.93z"/>
		<path class="st26" d="M450.14,168.94c-0.07-0.97-0.14-1.95-0.2-2.92c0-1.66,0-3.32,0-4.98c0.07-0.32,0.11-0.64,0.13-0.97
			c1.62,0.69,3.19,1.56,4.87,2.03c3.19,0.89,3.83,3.36,2.69,5.65c-0.55,1.09-3.3,1.17-5.08,1.51
			C451.79,169.4,450.95,169.06,450.14,168.94z"/>
		<path class="st13" d="M449.94,161.04c0,1.66,0,3.32,0,4.98c-1-0.02-1.99-0.03-2.98-0.05c0.34-1.66,0.69-3.32,1.03-4.98
			C448.63,161,449.29,161.02,449.94,161.04z"/>
		<path class="st28" d="M449.94,161.04c-0.65-0.02-1.31-0.03-1.96-0.05c0.41-0.77,0.81-1.55,1.22-2.32c0.29,0.47,0.58,0.93,0.87,1.4
			C450.05,160.39,450.01,160.72,449.94,161.04z"/>
		<path class="st28" d="M454.04,152.02c-0.68,0.38-1.36,0.76-2.03,1.15C452.68,152.78,453.36,152.4,454.04,152.02z"/>
		<path class="st13" d="M446.93,170.95c0.26,3.93,0.16,7.4-5.4,7.28c-1.19-0.03-2.35,2.01-3.64,2.93c-1.91,1.36-3.92,2.56-5.89,3.84
			C435.97,179.25,439.97,173.52,446.93,170.95z"/>
		<path class="st25" d="M433.89,149.65c4.43-2.7,8.8-2.8,13.11,0.26c-1.25,1.33-2.27,3.11-3.8,3.91c-4.38,2.26-8.74,4.12-11.09,9.13
			c-0.77,1.64-3.99,2.14-6.08,3.16c-0.71-1.09-1.41-2.18-2.12-3.28c0.04-0.93,0.08-1.86,0.12-2.8c8.42,5.68,8.2-4.45,12.44-6.53
			C435.52,152.09,434.71,150.87,433.89,149.65z"/>
		<path class="st18" d="M433.89,149.65c0.82,1.22,1.63,2.44,2.58,3.86c-4.24,2.08-4.02,12.21-12.44,6.53
			c2.06-1.92,4.24-3.73,6.15-5.79c1.17-1.26,1.92-2.9,2.86-4.38C433.31,149.75,433.59,149.68,433.89,149.65z"/>
		<path class="st25" d="M423.88,162.9c-0.97,4.43-3.59,5.29-6.97,2.28C419.23,164.43,421.55,163.67,423.88,162.9z"/>
		<path class="st24" d="M412.96,146.79c0.7-2.24,1.41-4.48,2.11-6.72c2.3-2.02,4.6-4.03,6.91-6.05c0.29,0.03,0.58,0.04,0.86,0.01
			c0.22,0.98,0.44,1.96,0.66,2.94c-1.23,1.61-2.45,3.21-3.68,4.82C417.54,143.46,415.25,145.12,412.96,146.79z"/>
	</g>
</g>
</svg>
