<?xml version="1.0" encoding="utf-8"?>
<!-- Generator: Adobe Illustrator 24.1.0, SVG Export Plug-In . SVG Version: 6.00 Build 0)  -->
<svg version="1.1" id="Layer_1" xmlns="http://www.w3.org/2000/svg" xmlns:xlink="http://www.w3.org/1999/xlink" x="0px" y="0px"
	 viewBox="0 0 1022.55 534.05" style="enable-background:new 0 0 1022.55 534.05;" xml:space="preserve">
<style type="text/css">
	.st0{fill:#B9DCB8;}
	.st1{fill:none;stroke:#B9DCB8;stroke-width:6;stroke-miterlimit:10;}
	.st2{fill:none;stroke:#B9DCB8;stroke-width:2;stroke-miterlimit:10;}
	.st3{fill:none;stroke:#B9DCB8;stroke-miterlimit:10;}
</style>
<g>
	<g>
		<path class="st0" d="M574.58,157.05c0-7.56,1.33-15.06,3.99-22.5s6.49-14.14,11.51-20.11c5.02-5.96,11.22-10.81,18.6-14.53
			c7.38-3.72,15.79-5.58,25.25-5.58c11.22,0,20.73,2.57,28.52,7.71s13.58,11.72,17.36,19.75l-3.36,1.06
			c-2.48-4.61-5.35-8.5-8.59-11.69c-3.25-3.19-6.79-5.76-10.63-7.71c-3.84-1.95-7.8-3.37-11.87-4.25
			c-4.07-0.89-8.12-1.33-12.13-1.33c-8.74,0-16.54,1.74-23.39,5.23c-6.85,3.49-12.64,8.06-17.36,13.73
			c-4.72,5.67-8.3,12.08-10.72,19.22c-2.42,7.15-3.63,14.32-3.63,21.53c0,8.03,1.44,15.71,4.34,23.03
			c2.89,7.33,6.85,13.79,11.87,19.4c5.02,5.61,10.89,10.07,17.63,13.38c6.73,3.31,13.99,4.96,21.79,4.96
			c4.13,0,8.39-0.53,12.76-1.59c4.37-1.06,8.59-2.66,12.67-4.78c4.08-2.13,7.85-4.87,11.34-8.24c3.48-3.37,6.47-7.35,8.95-11.96
			l3.37,0.89c-2.13,4.73-5.02,8.92-8.68,12.58c-3.66,3.66-7.74,6.73-12.22,9.21c-4.49,2.48-9.24,4.34-14.26,5.58
			c-5.02,1.24-9.9,1.86-14.62,1.86c-8.5,0-16.36-1.89-23.56-5.67c-7.2-3.78-13.37-8.71-18.51-14.79
			c-5.14-6.08-9.16-12.99-12.05-20.73C576.03,172.97,574.58,165.08,574.58,157.05z"/>
		<path class="st0" d="M743.77,132.42c-8.74,0.35-16.27,3.19-22.59,8.5c-6.32,5.32-10.72,12.58-13.2,21.79v58.11h-3.54v-91.95h3.54
			v23.74c3.19-6.49,7.47-11.84,12.84-16.03c5.37-4.19,11.07-6.64,17.1-7.35c1.18-0.12,2.27-0.2,3.28-0.27
			c1-0.06,1.86-0.09,2.57-0.09V132.42z"/>
		<path class="st0" d="M769.46,256.79c2.01,0,3.75-0.09,5.23-0.27c1.48-0.18,2.51-0.68,3.1-1.51c0.36-0.35,0.77-1.04,1.24-2.04
			c0.47-1,1.24-2.72,2.3-5.14c1.06-2.42,2.54-5.79,4.43-10.1c1.89-4.31,4.37-9.95,7.44-16.92l-42.7-91.95h3.9l40.57,87.52
			l38.44-87.52h3.9l-54.74,124.9c-1.42,3.07-3.37,4.96-5.85,5.67c-2.36,0.59-4.78,0.89-7.26,0.89V256.79z"/>
		<path class="st0" d="M897.73,222.6c-4.14,0-8.03-0.62-11.69-1.86c-3.66-1.24-7.09-2.89-10.28-4.96c-3.19-2.07-6.08-4.49-8.68-7.26
			c-2.6-2.77-4.9-5.7-6.91-8.77v58.82h-3.54V128.88h3.54v19.49c1.89-3.07,4.19-5.87,6.91-8.42c2.72-2.54,5.64-4.75,8.77-6.64
			c3.13-1.89,6.4-3.34,9.83-4.34c3.42-1,6.91-1.51,10.45-1.51c6.5,0,12.46,1.39,17.89,4.16c5.43,2.78,10.1,6.41,14,10.89
			c3.9,4.49,6.93,9.57,9.12,15.24c2.18,5.67,3.28,11.46,3.28,17.36c0,6.26-1.03,12.26-3.1,17.98c-2.07,5.73-4.96,10.78-8.68,15.15
			c-3.72,4.37-8.21,7.86-13.47,10.45C909.92,221.3,904.1,222.6,897.73,222.6z M897.73,219.06c6.02,0,11.43-1.27,16.21-3.81
			c4.78-2.54,8.89-5.87,12.31-10.01c3.42-4.13,6.05-8.83,7.88-14.08c1.83-5.25,2.75-10.6,2.75-16.03c0-5.79-1.06-11.34-3.19-16.65
			c-2.13-5.31-5.02-10.01-8.68-14.08c-3.66-4.08-7.97-7.32-12.93-9.74c-4.96-2.42-10.27-3.63-15.95-3.63
			c-3.54,0-7.38,0.77-11.51,2.3c-4.14,1.54-7.97,3.6-11.51,6.2c-3.54,2.6-6.53,5.61-8.95,9.04c-2.42,3.43-3.75,6.97-3.99,10.63
			v33.13c1.65,3.78,3.78,7.29,6.38,10.54c2.6,3.25,5.52,6.05,8.77,8.42c3.25,2.36,6.76,4.25,10.54,5.67S893.59,219.06,897.73,219.06
			z"/>
		<path class="st0" d="M998,216.58c-1.77,1.18-3.4,2.07-4.87,2.66c-1.48,0.59-3.22,1.15-5.23,1.68c-2.01,0.53-4.25,0.8-6.73,0.8
			c-4.25,0-7.97-1.3-11.16-3.9c-3.19-2.6-4.78-6.02-4.78-10.27v-75.12h-13.29v-3.54h13.29V96.81h3.54v32.07h22.15v3.54h-22.15v75.12
			c0.24,3.43,1.6,6.05,4.08,7.88c2.48,1.83,5.25,2.75,8.33,2.75c2.01,0,3.9-0.2,5.67-0.62c1.77-0.41,3.34-0.89,4.7-1.42
			c1.36-0.53,2.42-1.03,3.19-1.51c0.77-0.47,1.21-0.77,1.33-0.89L998,216.58z"/>
		<path class="st0" d="M574.58,369.65c0-7.56,1.33-15.06,3.99-22.5c2.66-7.44,6.49-14.14,11.51-20.11
			c5.02-5.96,11.22-10.81,18.6-14.53c7.38-3.72,15.79-5.58,25.25-5.58c11.22,0,20.73,2.57,28.52,7.71
			c7.8,5.14,13.58,11.72,17.36,19.75l-3.36,1.06c-2.48-4.61-5.35-8.5-8.59-11.69c-3.25-3.19-6.79-5.76-10.63-7.71
			c-3.84-1.95-7.8-3.37-11.87-4.25c-4.07-0.89-8.12-1.33-12.13-1.33c-8.74,0-16.54,1.74-23.39,5.23
			c-6.85,3.49-12.64,8.06-17.36,13.73c-4.72,5.67-8.3,12.08-10.72,19.22c-2.42,7.15-3.63,14.32-3.63,21.53
			c0,8.03,1.44,15.71,4.34,23.03c2.89,7.33,6.85,13.79,11.87,19.4c5.02,5.61,10.89,10.07,17.63,13.38
			c6.73,3.31,13.99,4.96,21.79,4.96c4.13,0,8.39-0.53,12.76-1.59c4.37-1.06,8.59-2.66,12.67-4.78c4.08-2.13,7.85-4.87,11.34-8.24
			c3.48-3.37,6.47-7.35,8.95-11.96l3.37,0.89c-2.13,4.73-5.02,8.92-8.68,12.58c-3.66,3.66-7.74,6.73-12.22,9.21
			c-4.49,2.48-9.24,4.34-14.26,5.58c-5.02,1.24-9.9,1.86-14.62,1.86c-8.5,0-16.36-1.89-23.56-5.67c-7.2-3.78-13.37-8.71-18.51-14.79
			c-5.14-6.08-9.16-12.99-12.05-20.73C576.03,385.56,574.58,377.68,574.58,369.65z"/>
		<path class="st0" d="M742,435.2c-6.02,0-11.72-1.27-17.09-3.81c-5.38-2.54-10.07-6.02-14.09-10.45c-4.02-4.43-7.2-9.57-9.57-15.41
			c-2.36-5.85-3.54-12.07-3.54-18.69c0-6.49,1.12-12.58,3.37-18.25c2.24-5.67,5.34-10.63,9.3-14.88c3.96-4.25,8.56-7.59,13.82-10.01
			c5.25-2.42,10.89-3.63,16.92-3.63c6.14,0,11.9,1.24,17.27,3.72c5.37,2.48,10.04,5.85,14,10.1c3.96,4.25,7.11,9.27,9.48,15.06
			c2.36,5.79,3.54,11.99,3.54,18.6v1.95h-84.15c0.47,5.91,1.86,11.43,4.16,16.56c2.3,5.14,5.28,9.6,8.95,13.38
			c3.66,3.78,7.88,6.76,12.67,8.95c4.78,2.19,9.83,3.28,15.15,3.28c3.54,0,7-0.47,10.36-1.42c3.37-0.94,6.53-2.27,9.48-3.99
			c2.95-1.71,5.55-3.75,7.8-6.11c2.24-2.36,4.01-4.96,5.32-7.8l3.36,0.89c-1.3,3.19-3.16,6.11-5.58,8.77
			c-2.42,2.66-5.26,4.96-8.5,6.91c-3.25,1.95-6.79,3.49-10.63,4.61S746.02,435.2,742,435.2z M781.69,385.94
			c-0.36-6.14-1.66-11.81-3.9-17.01c-2.25-5.2-5.17-9.66-8.77-13.38c-3.6-3.72-7.77-6.64-12.49-8.77c-4.72-2.13-9.8-3.19-15.23-3.19
			c-5.44,0-10.52,1.06-15.24,3.19c-4.72,2.13-8.89,5.08-12.49,8.86c-3.6,3.78-6.47,8.27-8.59,13.46c-2.12,5.2-3.36,10.81-3.72,16.83
			H781.69z"/>
		<path class="st0" d="M807.55,304.09h3.54v115.69c0,3.43,1.06,6.14,3.19,8.15c2.13,2.01,4.96,3.01,8.5,3.01
			c1.3,0,2.86-0.15,4.7-0.44c1.83-0.29,3.51-0.68,5.05-1.15l1.24,2.83c-1.66,0.59-3.69,1.09-6.11,1.51
			c-2.42,0.41-4.46,0.62-6.11,0.62c-4.14,0-7.5-1.33-10.1-3.99c-2.6-2.66-3.9-6.17-3.9-10.54V304.09z"/>
		<path class="st0" d="M849.72,304.09h3.54v115.69c0,3.43,1.06,6.14,3.19,8.15c2.13,2.01,4.96,3.01,8.5,3.01
			c1.3,0,2.86-0.15,4.7-0.44c1.83-0.29,3.51-0.68,5.05-1.15l1.24,2.83c-1.66,0.59-3.69,1.09-6.11,1.51
			c-2.42,0.41-4.46,0.62-6.11,0.62c-4.14,0-7.5-1.33-10.1-3.99c-2.6-2.66-3.9-6.17-3.9-10.54V304.09z"/>
	</g>
</g>
<g>
	<path class="st1" d="M242.29,505.92c-131.37,0-237.68-106.31-237.68-237.68"/>
	<path class="st1" d="M4.61,268.24c0-131.37,106.31-237.68,237.68-237.68"/>
</g>
<g>
	<path class="st1" d="M283.18,30.56c131.37,0,237.68,106.31,237.68,237.68"/>
	<path class="st1" d="M520.86,268.24c0,131.37-106.31,237.68-237.68,237.68"/>
</g>
<circle class="st0" cx="262.91" cy="268.24" r="19.56"/>
<g>
	<line class="st2" x1="262.91" y1="268.24" x2="238.53" y2="505.89"/>
	<line class="st2" x1="262.91" y1="272.35" x2="53.63" y2="412.9"/>
	<line class="st2" x1="238.53" y1="505.89" x2="136.89" y2="356.98"/>
	<line class="st2" x1="10.48" y1="320.99" x2="136.89" y2="356.98"/>
	<line class="st2" x1="262.91" y1="268.24" x2="187.71" y2="36.85"/>
	<line class="st2" x1="136.89" y1="356.98" x2="123.45" y2="215.77"/>
	<line class="st2" x1="10.48" y1="320.99" x2="123.45" y2="215.77"/>
	<line class="st2" x1="266.15" y1="268.38" x2="21.41" y2="180.25"/>
	<line class="st2" x1="95.39" y1="81.32" x2="123.45" y2="215.77"/>
	<line class="st2" x1="220.68" y1="138.32" x2="123.45" y2="215.77"/>
	<line class="st2" x1="95.39" y1="81.32" x2="220.68" y2="138.32"/>
</g>
<g>
	<line class="st2" x1="267.59" y1="271.37" x2="291.98" y2="33.73"/>
	<line class="st2" x1="267.59" y1="267.26" x2="476.87" y2="126.72"/>
	<line class="st2" x1="291.98" y1="33.73" x2="393.62" y2="182.63"/>
	<line class="st2" x1="515.4" y1="217.31" x2="393.62" y2="182.63"/>
	<line class="st2" x1="267.59" y1="271.37" x2="341.49" y2="498.73"/>
	<line class="st2" x1="393.62" y1="182.63" x2="407.05" y2="323.84"/>
	<line class="st2" x1="516.52" y1="221.89" x2="407.05" y2="323.84"/>
	<line class="st2" x1="264.35" y1="271.23" x2="503.61" y2="357.39"/>
	<line class="st2" x1="433.84" y1="452.16" x2="407.05" y2="323.84"/>
	<line class="st2" x1="309.82" y1="401.29" x2="407.05" y2="323.84"/>
	<line class="st2" x1="430.52" y1="456.2" x2="309.82" y2="401.29"/>
</g>
<path class="st3" d="M206.29,310.54"/>
<path class="st3" d="M206.29,310.54"/>
</svg>
