<?xml version="1.0" encoding="utf-8"?>
<!-- Generator: Adobe Illustrator 24.1.0, SVG Export Plug-In . SVG Version: 6.00 Build 0)  -->
<svg version="1.1" id="Layer_1" xmlns="http://www.w3.org/2000/svg" xmlns:xlink="http://www.w3.org/1999/xlink" x="0px" y="0px"
	 viewBox="0 0 368.9 199.18" style="enable-background:new 0 0 368.9 199.18;" xml:space="preserve">
<style type="text/css">
	.st0{fill:#E42313;}
</style>
<path class="st0" d="M318.4,86.73c0-0.63-0.62-0.7-1.13-0.7h-1.03v1.53h0.96C317.84,87.55,318.4,87.48,318.4,86.73z"/>
<path class="st0" d="M210.15,104.2c0.02-0.69-0.23-1.53-0.94-1.74c-0.78-0.23-3.07-0.87-3.55-0.97c-0.56-0.12-1.97-0.06-2.95,0.41
	c-0.79,0.38-3.12,1.53-3.68,1.87c-1.22,0.76-1.49,1.48-1.44,2.49c0.05,1.02,0.23,3.75,0.3,4.88c0.06,0.9,0.51,1.63,1.31,2.08
	c1.19,0.7,1.56,0.81,2.53,1.3c1.04,0.52,1.95,0.31,2.75-0.11c1.66-0.87,4.34-2.3,4.77-2.49c0.83-0.38,0.86-1.07,0.89-2.18
	C210.16,109.21,210.11,105.48,210.15,104.2z"/>
<path class="st0" d="M166.75,102.25c-0.32-0.2-1.83-0.59-2.31-0.72c-1.87-0.5-2.75-0.6-3.69-0.23c-0.64,0.25-1.75,0.68-2.68,1.21
	c-0.7,0.39-2.05,1.11-2.39,1.39c-0.64,0.51-0.85,1.54-0.76,2.17c0.1,1.64,0.25,4.39,0.33,4.88c0.13,0.9,0.52,1.6,1.21,1.93
	c0.81,0.39,2.24,1.15,2.69,1.37c0.64,0.31,1.55,0.3,2.22-0.04c1.7-0.87,4.81-2.46,5.23-2.68c0.59-0.3,0.81-0.87,0.8-1.53
	c0-1.6-0.02-5.91-0.02-6.24C167.37,103.29,167.3,102.65,166.75,102.25z"/>
<path class="st0" d="M272.49,102.26c-0.32-0.2-1.83-0.59-2.3-0.72c-1.88-0.51-2.75-0.6-3.69-0.23c-0.64,0.25-1.75,0.68-2.68,1.21
	c-0.7,0.39-2.05,1.11-2.39,1.39c-0.64,0.51-0.84,1.54-0.76,2.17c0.09,1.64,0.25,4.39,0.32,4.88c0.14,0.89,0.52,1.6,1.21,1.93
	c0.81,0.39,2.25,1.15,2.68,1.37c0.64,0.31,1.56,0.3,2.22-0.04c1.7-0.88,4.81-2.47,5.23-2.69c0.59-0.3,0.81-0.87,0.8-1.52
	c0-1.6-0.02-5.91-0.02-6.24C273.11,103.3,273.05,102.66,272.49,102.26z"/>
<path class="st0" d="M109.54,102.26c-0.32-0.2-1.83-0.59-2.3-0.72c-1.88-0.5-2.75-0.6-3.7-0.23c-0.64,0.25-1.75,0.68-2.68,1.2
	c-0.7,0.39-2.04,1.11-2.39,1.39c-0.64,0.52-0.84,1.54-0.76,2.17c0.1,1.64,0.25,4.39,0.33,4.88c0.13,0.89,0.52,1.6,1.21,1.93
	c0.81,0.39,2.25,1.15,2.69,1.36c0.64,0.31,1.56,0.3,2.22-0.04c1.7-0.88,4.8-2.46,5.23-2.68c0.59-0.3,0.8-0.87,0.8-1.53
	c-0.01-1.61-0.02-5.91-0.02-6.24C110.16,103.3,110.1,102.66,109.54,102.26z"/>
<path class="st0" d="M185.72,12.42c-89.71,0-162.43,39.18-162.43,87.52c0,48.33,72.72,87.52,162.43,87.52
	c89.71,0,162.43-39.19,162.43-87.52C348.15,51.6,275.43,12.42,185.72,12.42z M87.74,95.42c-0.4,4.4-1.27,21.49-1.29,21.78
	c-0.09,1.02-0.16,1.92-1.27,1.92c-1.2,0-3-0.02-3.3-0.02c-1.17,0-1.36-0.88-1.36-2.04c-0.08-4.21-0.53-21.41-0.53-21.63
	c0.01-1.08-0.34-1.55-1.09-2.12c-0.46-0.35-0.98-0.72-1.34-0.98c-0.73-0.51-0.74-0.59-1.62-0.61c-0.66-0.02-1.97-0.05-2.75-0.05
	c-0.56,0-1.07,0.02-1.76,0.51c-0.69,0.49-2.27,1.72-3.01,2.32c-0.74,0.6-1.34,2.71-1.4,4.42c-0.23,4.88-1.13,19.21-1.13,19.45
	c0,0.29-0.28,0.6-0.69,0.6c-1.34,0.02-4.3,0.04-4.71,0.05c-0.53,0.01-0.81-0.26-0.81-0.74c-0.08-5.78-0.57-42.1-0.58-42.55
	c-0.01-0.94,0.57-1.62,1.53-1.62c1.78,0,6.04-0.14,6.47-0.14c1.11,0,1.53,0.77,1.44,1.75c-0.17,2.89-0.75,12-0.94,14.22
	c-0.04,0.48-0.04,0.76,0.25,0.82c0.25,0.05,0.49-0.37,0.61-0.5c0.16-0.18,1.56-1.92,2.16-2.42c0.96-0.79,2.07-1.16,3.64-1.22
	c1.57-0.05,5.73-0.11,6.09-0.11c2.07-0.01,2.59,0.05,3.65,1.49c1.11,1.49,2.44,3.19,2.66,3.49C87.55,92.67,87.89,93.57,87.74,95.42z
	 M119.87,119.27c-0.15,0.08-1.14,0.7-2.99,1.71c-0.74,0.41-1.56,0.41-2.39-0.3c-0.16-0.13-2.57-2.2-3.74-3.17
	c-0.26-0.22-0.49-0.55-0.55-0.8c-0.04-0.14-0.07-0.27-0.13-0.43c-0.08-0.26-0.27-0.27-0.4-0.2c-0.11,0.06-5.33,2.75-7.79,4.01
	c-1.12,0.57-3.55,0.55-4.83-0.43c-0.41-0.31-2.95-2.21-4.86-3.65c-1.39-1.05-1.9-2.41-1.95-3.97c-0.01-0.34,0.3-4.9,0.43-7
	c0.08-1.29,0.13-2.69,1.27-3.73c0.3-0.27,0.92-0.85,2.77-1.76c1.75-0.86,3.4-1.6,4.52-2.08c0.53-0.23,2.37-0.92,3.43-1.13
	c1.61-0.31,5.24,0.92,6.66,1.39c1,0.32,1.02-0.52,1.02-0.52s-0.08-4.98-0.08-5.32c0-0.86-0.57-1.46-0.87-1.67
	c-0.22-0.16-1.93-1.36-2.22-1.54c-0.68-0.44-1.2-0.53-2.01-0.43c-0.27,0.04-1.67,0.21-2.72,0.4c-0.78,0.14-1.18,0.38-1.51,1.27
	c-0.45,1.27-1.26,3.61-1.35,3.89c-0.38,1.14-0.82,1.4-1.77,1.45c-1.54,0.09-4.25,0.27-4.57,0.29c-0.94,0.05-1.41-0.43-1.23-1.56
	c0.06-0.37,0.49-2.88,0.75-4.45c0.17-1,0.71-1.68,1.65-2.34c0.28-0.2,1.89-1.22,3.23-2.05c1.56-0.97,2.68-1.23,4.41-1.19
	c0.4,0.01,4.68,0.18,7.22,0.19c1.93,0.01,3.64,0.65,4.88,1.89c0.23,0.23,1.65,1.75,2.92,3.1c1.22,1.29,1.65,2.46,1.51,4.07
	c-0.04,0.45-1.62,17.35-1.97,21.1c-0.04,0.43,0.12,0.71,0.39,0.96c0.57,0.52,1.88,1.58,2.82,2.4
	C120.49,118.24,120.76,118.77,119.87,119.27z M136.82,119.16c-0.41-0.08-0.85-0.18-1.22-0.26c-0.99-0.23-1.84-0.31-2.87-0.13
	c-0.48,0.09-1.41,0.21-2.26,0.32c-0.99,0.12-2.02-0.33-2.26-1.31c-1.62-6.46-7.8-31.15-8.06-32.16c-0.31-1.16,0.49-1.45,1.79-1.43
	c0.84,0.02,3.4,0.07,5.1,0.12c1.42,0.04,1.65,0.63,1.83,1.42c0.15,0.64,4.27,23.8,4.4,24.48c0.14,0.68,0.75,0.75,1.02-0.05
	c0.23-0.69,5.67-19.31,7.19-24.47c0.22-0.75,1.02-1.38,1.91-1.41c0.9-0.04,2.4-0.06,3.12-0.04c0.94,0.03,1.42,0.93,1.07,2.13
	c-1.85,6.43-8.75,30.43-8.97,31.22C138.35,118.52,137.5,119.3,136.82,119.16z M177.07,119.26c-0.16,0.08-1.14,0.71-3,1.71
	c-0.74,0.4-1.56,0.42-2.39-0.3c-0.16-0.13-2.57-2.2-3.74-3.18c-0.26-0.22-0.49-0.54-0.55-0.8c-0.04-0.14-0.07-0.26-0.13-0.43
	c-0.08-0.25-0.27-0.27-0.4-0.2c-0.11,0.06-5.33,2.75-7.79,4.01c-1.12,0.56-3.54,0.55-4.83-0.43c-0.4-0.31-2.95-2.21-4.85-3.65
	c-1.39-1.05-1.9-2.41-1.95-3.97c-0.01-0.34,0.3-4.9,0.43-7c0.08-1.29,0.13-2.69,1.27-3.72c0.3-0.28,0.92-0.85,2.76-1.76
	c1.75-0.86,3.4-1.6,4.52-2.08c0.53-0.23,2.37-0.92,3.43-1.13c1.61-0.32,5.24,0.92,6.66,1.38c1,0.32,1.02-0.52,1.02-0.52
	s-0.08-4.98-0.08-5.32c0-0.86-0.57-1.46-0.87-1.67c-0.22-0.16-1.93-1.36-2.22-1.54c-0.68-0.44-1.2-0.53-2.01-0.43
	c-0.27,0.03-1.67,0.21-2.72,0.4c-0.78,0.13-1.18,0.38-1.51,1.27c-0.45,1.27-1.26,3.62-1.35,3.89c-0.38,1.14-0.82,1.4-1.76,1.45
	c-1.55,0.09-4.26,0.27-4.57,0.29c-0.94,0.05-1.4-0.43-1.23-1.56c0.06-0.37,0.49-2.88,0.75-4.45c0.17-1,0.71-1.68,1.65-2.34
	c0.28-0.2,1.89-1.21,3.23-2.06c1.56-0.97,2.68-1.23,4.41-1.19c0.39,0.01,4.68,0.18,7.22,0.19c1.93,0.01,3.64,0.65,4.89,1.89
	c0.23,0.23,1.65,1.76,2.92,3.1c1.22,1.3,1.66,2.47,1.51,4.08c-0.04,0.45-1.62,17.35-1.97,21.1c-0.04,0.42,0.12,0.71,0.39,0.96
	c0.56,0.52,1.88,1.58,2.81,2.39C177.69,118.23,177.96,118.76,177.07,119.26z M185.77,118.6c-0.1,1.09-0.66,1.74-1.9,1.7
	c-1.24-0.04-1.49-0.03-2.47-0.05c-0.98-0.03-1.61-0.69-1.61-1.78c-0.01-5.27-0.04-20.72-0.05-21.92c-0.01-1.46,0.54-1.82,1.86-1.82
	c0.86,0,3.2-0.03,4.76-0.04c0.87-0.01,1.44,0.61,1.37,1.49C187.65,96.9,186.24,113.17,185.77,118.6z M183.99,91.83
	c-2.58,0-4.67-2.09-4.67-4.67c0-2.58,2.09-4.67,4.67-4.67c2.58,0,4.67,2.09,4.67,4.67C188.66,89.74,186.57,91.83,183.99,91.83z
	 M237.69,116.34c-0.1,0.61-0.49,2.21-1.2,5.09c-0.71,2.88-2.45,3.03-2.89,3.1c-0.45,0.08-0.71,0.18-5.01,0.84
	c-4.3,0.66-4.78,0.3-5.35,0.19c-0.58-0.1-0.78-0.15-3.77-0.86c-2.77-0.65-3.08-0.85-5.36-3.22c-0.97-1.02-1.97-2.11-3.2-3.35
	c-0.24-0.24-0.57-0.56-0.65-0.81c-0.04-0.14-0.24-0.68-0.3-0.84c-0.09-0.25-0.54,0.08-0.67,0.15c-0.11,0.06-4.9,2.46-7.29,3.7
	c-1.71,0.89-3.77,0.5-5.05-0.4c-0.53-0.37-2.68-2-4.6-3.43c-1.41-1.05-2.24-2.54-2.12-4.41c0.02-0.34,0.24-5.67,0.48-7.77
	c0.22-1.86,1.03-2.89,2.74-3.76c2.6-1.32,3.01-1.55,5.03-2.41c0.25-0.11,2.39-0.94,3.61-1.34c0.84-0.27,1.87-0.11,2.3-0.05
	c2.58,0.35,3.95,1.19,5.22,1.35c1.04,0.13,0.63-1.3,0.68-1.85c0.05-0.54-0.08-3.43-0.06-3.77c0.04-1.27-0.47-1.7-1.09-2.11
	c-0.93-0.61-1.91-1.33-2.21-1.49c-0.5-0.26-0.78-0.43-2.31-0.24c-0.8,0.09-1.05,0.19-2.32,0.37c-0.78,0.11-1.26,0.72-1.56,1.6
	c-0.4,1.26-1.2,3.35-1.28,3.62c-0.34,1.13-0.87,1.36-1.8,1.41c-1.53,0.09-4.19,0.27-4.51,0.29c-0.93,0.05-1.4-0.42-1.27-1.55
	c0.17-1.45,0.61-2.98,0.79-4.34c0.13-0.99,0.46-1.7,1.43-2.25c0.59-0.33,2.68-1.91,4.21-2.73c1.58-0.84,1.43-0.8,3.14-0.76
	c0.39,0.01,5.33,0.16,7.85,0.17c2.03,0.01,3.18,0.37,4.35,1.5c0.24,0.23,1.74,1.82,3.03,3.16c1.24,1.29,1.01,2.54,0.92,4.13
	c-0.03,0.45-0.53,17.09-0.76,20.81c-0.03,0.43,0.17,1.21,0.28,1.51c0.63,1.76,1.31,2.86,1.58,3.3c1.1,1.85,1.92,2.49,4.01,2.93
	c1.53,0.31,1.95,0.25,3.56,0.06c0.9-0.1,1.52-0.22,3.35-1.01c1.86-0.8,1.73-1.98,2.01-3.99c0.24-1.76,0.82-1.95,1.82-2.04
	c0.48-0.05,1.32-0.11,3.11-0.2C238.35,114.55,237.79,115.74,237.69,116.34z M250.59,96.1c-0.17,1.61-1.45,16.35-2.01,21.17
	c-0.12,1.02-0.59,1.59-1.41,1.59c-0.47,0-1.83,0.01-2.82-0.03c-0.71-0.03-1.2-0.7-1.2-2.03c0-1.11-0.36-16.88-0.36-21.53
	c0-0.94-0.24-1.16-0.73-1.65c-0.28-0.29-1.14-1.33-1.75-1.68c-0.54-0.32-1.03-0.42-1.65-0.45c-0.76-0.04-1.55-0.06-2.73-0.06
	c-0.72,0-1.33,0.15-1.87,0.63c-0.49,0.45-1.99,1.54-3.1,2.42c-0.62,0.49-1.1,1.26-1.19,2.3c-0.08,0.84-0.97,14.88-1.33,20.05
	c-0.09,1.22-0.79,1.98-1.42,1.98c-0.62,0-2.68,0.03-3.52,0.03s-1.62-0.71-1.62-1.94c-0.01-6.57-0.11-27.98-0.11-30.03
	c0-2.79,0.44-2.74,2.75-2.74c0.74,0,2.46,0.01,3.88,0.02c1.18,0.01,2.09,0.37,1.98,1.81c-0.06,0.82-0.23,2.71-0.26,3.36
	c-0.04,1.11,0.07,1.52,1.16,0.53c0.2-0.18,1.35-1.42,2.16-2.35c0.76-0.89,1.5-1.3,3.14-1.4c1.08-0.06,4.05-0.22,6.2-0.22
	c0.99,0,1.95,0.22,2.7,1.03c0.98,1.07,2.18,2.53,3.59,4.28C250.4,92.83,250.88,93.4,250.59,96.1z M282.81,119.27
	c-0.15,0.08-1.14,0.71-2.99,1.71c-0.74,0.41-1.56,0.41-2.39-0.3c-0.16-0.13-2.57-2.2-3.74-3.17c-0.26-0.22-0.49-0.55-0.56-0.81
	c-0.04-0.14-0.07-0.26-0.13-0.43c-0.08-0.26-0.27-0.27-0.4-0.2c-0.11,0.06-5.33,2.75-7.79,4c-1.12,0.57-3.54,0.55-4.83-0.43
	c-0.4-0.31-2.95-2.21-4.85-3.65c-1.39-1.05-1.9-2.41-1.95-3.97c-0.01-0.34,0.3-4.9,0.43-7c0.08-1.29,0.13-2.69,1.28-3.73
	c0.3-0.27,0.91-0.85,2.76-1.76c1.75-0.87,3.41-1.6,4.52-2.08c0.53-0.23,2.37-0.92,3.43-1.13c1.61-0.32,5.24,0.92,6.66,1.38
	c1,0.32,1.02-0.52,1.02-0.52s-0.07-4.98-0.07-5.32c0-0.86-0.58-1.46-0.87-1.67c-0.22-0.16-1.94-1.36-2.22-1.54
	c-0.68-0.44-1.2-0.53-2.01-0.43c-0.28,0.03-1.67,0.21-2.72,0.4c-0.78,0.14-1.18,0.39-1.51,1.27c-0.45,1.27-1.26,3.61-1.35,3.89
	c-0.38,1.14-0.82,1.4-1.76,1.45c-1.55,0.09-4.25,0.27-4.58,0.29c-0.94,0.05-1.4-0.43-1.23-1.56c0.06-0.37,0.49-2.88,0.76-4.45
	c0.17-1,0.71-1.68,1.65-2.35c0.28-0.19,1.89-1.21,3.23-2.05c1.56-0.97,2.68-1.23,4.41-1.19c0.39,0.01,4.68,0.18,7.22,0.19
	c1.93,0,3.63,0.65,4.89,1.89c0.23,0.23,1.65,1.75,2.91,3.1c1.22,1.3,1.66,2.47,1.51,4.08c-0.04,0.45-1.62,17.35-1.98,21.1
	c-0.04,0.43,0.12,0.71,0.39,0.96c0.56,0.52,1.88,1.58,2.81,2.4C283.44,118.24,283.71,118.77,282.81,119.27z M312.02,109.79
	c-0.3,1.07-1.18,4.21-1.51,5.32c-0.65,2.27-0.83,2.45-2.19,3.13c-1.13,0.56-5.9,2.49-6.76,2.84c-2.5,0.99-1.82,1.18-4.72,0.44
	c-2.41-0.62-5.97-1.55-8.08-2.12c-1.06-0.29-1.99-1.12-3.17-2.19c-0.61-0.54-2.35-2.14-3.11-2.91c-0.41-0.4-0.41-1.02,0.23-1.37
	c0.69-0.38,3.39-1.78,4.14-2.16c0.93-0.46,1.59-0.72,2.41,0.27c0.57,0.69,1.3,1.44,1.76,1.96c0.54,0.62,0.48,0.52,1.17,0.87
	c1.1,0.56,1.58,0.86,3.17,1.63c1.84,0.9,2.02,0.72,3.38,0.11c1.04-0.47,2.98-1.44,3.86-1.93c0.74-0.41,2.08-0.78,2.31-2.09
	c0.18-1.06-0.26-1.89-0.6-2.74c-0.2-0.5-0.56-1.43-0.83-2.01c-0.6-1.31-0.77-1.53-2.18-2c-0.87-0.29-8.07-2.19-10.45-2.82
	c-4.12-1.09-4.16-1.36-4.88-3.39c-0.7-1.98-1.54-4.1-1.95-5.48c-0.23-0.8,0.09-1.24,1.26-3.58c1-1.97,0.84-1.61,1.23-2.36
	c0.27-0.52,0.66-0.54,2.85-1.57c0.94-0.44,4.46-2.02,5.34-2.39c0.88-0.38,1.34-0.5,2.21-0.33c1.54,0.3,6.66,1.35,7.94,1.61
	c1.82,0.37,1.71,0.28,2.58,1.33c0.76,0.93,1.06,1.28,1.47,1.82c0.37,0.51,0.47,0.6,0.97,1.32c0.36,0.52,0.16,0.94-0.82,1.49
	c-0.52,0.29-3,1.61-3.53,1.83c-0.49,0.22-1.16,0.35-1.55-0.42c-0.83-1.64-0.82-1.87-1.52-2.16c-0.75-0.31-2.74-1.15-3.37-1.4
	c-1.22-0.49-2.03-0.72-3.04-0.18c-0.82,0.44-2.75,1.55-3.32,1.87c-0.87,0.49-0.99,0.77-0.92,1.77c0.08,1.07,0.14,1.91,0.2,2.46
	c0.2,1.72,0.44,2.06,2.64,2.68c1.56,0.44,7.93,2.17,9.84,2.68c3.39,0.9,3.62,0.85,4.34,1.93c0.63,0.94,2.54,4.15,2.92,4.78
	C312.46,107.5,312.38,108.51,312.02,109.79z M317.17,92.52c-2.71,0-4.63-2.03-4.63-4.71c0-2.83,2.14-4.71,4.63-4.71
	c2.46,0,4.61,1.88,4.61,4.71C321.78,90.65,319.63,92.52,317.17,92.52z"/>
<path class="st0" d="M317.17,83.92c-2.04,0-3.63,1.6-3.63,3.89c0,2.14,1.38,3.89,3.63,3.89c2.01,0,3.6-1.59,3.6-3.89
	C320.77,85.52,319.18,83.92,317.17,83.92z M318.39,90.51l-1.35-2.23h-0.81v2.23h-0.86v-5.21h1.98c1.26,0,1.9,0.44,1.9,1.5
	c0,0.94-0.58,1.33-1.36,1.42l1.46,2.29H318.39z"/>
</svg>
