<?xml version="1.0" encoding="utf-8"?>
<!-- Generator: Adobe Illustrator 24.1.0, SVG Export Plug-In . SVG Version: 6.00 Build 0)  -->
<svg version="1.1" id="Layer_1" xmlns="http://www.w3.org/2000/svg" xmlns:xlink="http://www.w3.org/1999/xlink" x="0px" y="0px"
	 viewBox="0 0 669.85 169.78" style="enable-background:new 0 0 669.85 169.78;" xml:space="preserve">
<style type="text/css">
	.st0{fill:#FFFFFF;}
	.st1{fill-rule:evenodd;clip-rule:evenodd;fill:#010202;}
	.st2{fill:none;stroke:#221F20;stroke-width:4;stroke-miterlimit:10;}
</style>
<g>
	<path d="M285.86,84.89c0,45.45-36.85,82.31-82.31,82.31c-45.46,0-82.31-36.85-82.31-82.31c0-45.45,36.85-82.3,82.3-82.31
		C249,2.58,285.86,39.44,285.86,84.89z"/>
	<path class="st0" d="M245.01,81.09c-4.68,24.2-29.59,20.44-29.59,20.44l6.8-41.07C222.23,60.46,249.86,55.98,245.01,81.09
		L245.01,81.09z M261.46,63.57L261.46,63.57c-2.39-7.89-12.79-19.72-28.29-19.72h-25.32l-12.3,74.48h25.33
		c23.9,0,38.85-18.51,41.93-37.12C263.8,75.09,263.4,68.91,261.46,63.57z"/>
	<path class="st0" d="M185.93,43.75c-0.1,1.12-6.76,54.19-31.91,57.67c-0.46,0.07-0.89,0.07-3.93,0.24l-2.35,17.25
		c0,0,2.79,0.05,3.97,0.12c5.44,0.3,22.22-0.43,35.65-22.73c6.8-11.3,12.55-28.04,16.19-52.56L185.93,43.75z"/>
</g>
<path class="st1" d="M427.28,40.86c-17.47,20.52-34.22,45.96-34.39,64.98c-0.06,7.16,2.22,13.4,7.7,18.14
	c7.89,6.81,16.57,9.21,25.22,9.23c12.63,0.02,25.18-5.08,35-9.01c16.55-6.62,199.43-86.03,199.43-86.03
	c1.76-0.88,1.43-1.99-0.77-1.43c-0.89,0.22-199.09,53.94-199.09,53.94c-3.83,1.07-7.73,1.63-11.54,1.65
	c-15.23,0.09-28.79-8.36-28.68-26.18C420.2,59.16,422.34,50.75,427.28,40.86L427.28,40.86z"/>
<line class="st2" x1="335.01" y1="2.58" x2="335.01" y2="167.2"/>
</svg>
