<?xml version="1.0" encoding="utf-8"?>
<!-- Generator: Adobe Illustrator 24.1.0, SVG Export Plug-In . SVG Version: 6.00 Build 0)  -->
<svg version="1.1" id="Layer_1" xmlns="http://www.w3.org/2000/svg" xmlns:xlink="http://www.w3.org/1999/xlink" x="0px" y="0px"
	 viewBox="0 0 1400 1400" style="enable-background:new 0 0 1400 1400;" xml:space="preserve">
<style type="text/css">
	.st0{fill:#FFFFFF;stroke:#E30613;stroke-miterlimit:10;}
	.st1{fill:#E2E2E2;}
	.st2{fill:#5A5A5A;}
	.st3{fill:#595959;}
	.st4{fill:#E4E4E4;}
</style>
<path class="st0" d="M702.07,659.52"/>
<path class="st0" d="M418.6,659.52"/>
<path class="st0" d="M418.6,659.52"/>
<path class="st0" d="M560.34,802.53"/>
<path class="st0" d="M560.34,802.53"/>
<path class="st0" d="M702.07,659.52"/>
<g>
	<defs>
		<rect id="SVGID_1_" x="614.25" y="643.18" width="88.8" height="88.8"/>
	</defs>
	<clipPath id="SVGID_2_">
		<use xlink:href="#SVGID_1_"  style="overflow:visible;"/>
	</clipPath>
</g>
<g>
	<path class="st1" d="M1400,1400c-466.67,0-933.33,0-1400,0C0,933.33,0,466.67,0,0c466.67,0,933.33,0,1400,0
		C1400,466.67,1400,933.33,1400,1400z M294.06,1117.98c0.42,0.05,0.84,0.1,1.26,0.15c0,1.78,0,3.56,0,5.34
		c-0.03,28.31-0.07,56.62-0.08,84.94c-0.01,18.15,0.17,36.31-0.03,54.46c-0.06,4.88,1.65,6.3,6.37,6.09
		c7.98-0.35,15.99-0.24,23.98-0.04c3.68,0.09,4.91-1.15,4.91-4.87c-0.08-63.95-0.08-127.9,0.01-191.86
		c0.01-3.77-1.33-4.89-4.97-4.83c-11.16,0.17-22.32,0.25-33.47-0.05c-4.54-0.12-7.12,1.27-9.37,5.4
		c-14.67,26.89-29.64,53.62-44.52,80.39c-1,1.81-2.1,3.56-3.45,5.84c-1.24-2.02-2.05-3.26-2.78-4.55
		c-15.38-27.07-30.86-54.08-46.03-81.26c-2.45-4.38-5.18-6-10.18-5.82c-11.14,0.4-22.32,0.34-33.47,0.05
		c-4.54-0.12-5.57,1.52-5.54,5.78c0.17,26.15,0.09,52.29,0.09,78.44c0,37.31,0.06,74.61-0.07,111.92c-0.01,4.07,1.11,5.62,5.33,5.47
		c7.82-0.28,15.67-0.42,23.47,0.04c5.24,0.31,6.37-1.56,6.35-6.49c-0.17-45.63-0.1-91.26-0.1-136.9c0-2.38,0-4.76,0-7.13
		c1.66,0.81,2.38,1.67,2.94,2.63c14.2,24.67,28.42,49.32,42.51,74.05c1.58,2.77,3.26,4.18,6.6,4.06c6.49-0.24,12.99-0.24,19.48-0.02
		c3.11,0.1,4.79-1.11,6.23-3.76c3.49-6.44,7.3-12.7,10.95-19.05C271.68,1156.91,282.87,1137.44,294.06,1117.98z M1238.76,1118.09
		c0.42,0.17,0.84,0.34,1.27,0.51c0,1.82,0,3.63,0,5.45c0,46.29,0.05,92.58-0.08,138.87c-0.01,4.39,0.95,6.28,5.78,6.05
		c8.14-0.38,16.32-0.25,24.47-0.03c3.78,0.1,4.83-1.34,4.83-4.96c-0.08-63.94-0.08-127.88,0.01-191.83
		c0.01-3.82-1.39-4.83-4.97-4.79c-11.82,0.16-23.65,0.17-35.47-0.01c-3.35-0.05-4.99,1.35-6.53,4.14
		c-15.1,27.4-30.34,54.73-45.54,82.08c-0.91,1.65-1.91,3.24-3.15,5.34c-1.17-1.87-1.9-2.96-2.55-4.1
		c-15.67-27.47-31.41-54.9-46.88-82.48c-2.11-3.75-4.43-5.08-8.6-4.99c-11.15,0.25-22.31,0.06-33.47,0.08
		c-6.51,0.01-6.52,0.03-6.52,6.66c0,58.78,0,117.56,0,176.34c0,4.5,0.22,9.01-0.08,13.48c-0.27,4.07,1.38,5.16,5.21,5.04
		c7.82-0.24,15.67-0.39,23.47,0.02c5.11,0.27,6.43-1.41,6.4-6.45c-0.2-42.96-0.11-85.92-0.11-128.88c0-5.26,0-10.53,0-15.79
		c1.67,1.05,2.56,2.35,3.35,3.72c13.96,24.23,27.96,48.45,41.78,72.75c1.94,3.41,4.06,5.15,8.19,4.9
		c5.81-0.35,11.66-0.27,17.48-0.02c3.6,0.16,5.65-1.06,7.48-4.29c12.97-22.88,26.18-45.63,39.31-68.41
		C1235.45,1123.69,1237.12,1120.89,1238.76,1118.09z M984.14,886.7c0.37-0.1,0.74-0.2,1.11-0.3c0.72,1.06,1.51,2.08,2.14,3.19
		c7.3,12.89,14.57,25.79,21.86,38.69c19.24,34.04,38.52,68.06,57.68,102.15c1.68,2.98,3.69,4.16,7.12,4.1
		c10.65-0.19,21.31-0.06,31.97-0.07c7.96,0,7.96-0.01,7.95-8.22c0-62.27,0-124.54-0.02-186.8c0-1.94-0.17-3.89-0.29-6.28
		c-9.59,0-18.71-0.01-27.83,0c-6.78,0.01-6.8,0.02-6.8,6.89c0,45.45,0,90.9,0,136.36c0,1.66,0,3.32,0,4.98
		c-4.16-4.9-7.06-9.91-9.91-14.95c-24.42-43.16-48.86-86.31-73.19-129.52c-1.62-2.88-3.49-3.89-6.72-3.84
		c-11.15,0.18-22.31,0.06-33.46,0.07c-6.52,0.01-6.56,0.02-6.56,6.59c-0.02,34.8-0.02,69.59-0.01,104.39
		c0,28.3,0.08,56.61-0.05,84.91c-0.02,4.04,1.09,5.63,5.32,5.48c7.65-0.27,15.31-0.05,22.97-0.06c6.72-0.01,6.74-0.02,6.74-6.97
		c0-44.79-0.01-89.57-0.01-134.36C984.14,890.99,984.14,888.84,984.14,886.7z M921.67,893.87c0.41-0.97,0.64-1.27,0.64-1.58
		c0-0.83-0.01-1.67-0.16-2.48c-3.55-18.99-12.73-34.51-28.54-45.85c-14.54-10.43-31.13-14.6-48.68-16.06
		c-43.23-3.62-80.68,18.84-96.89,58.99c-10.71,26.52-11.18,53.88-4.18,81.4c4.83,19.01,14.2,35.54,29.07,48.52
		c23.15,20.21,50.48,26.02,80.2,21.81c21.08-2.98,39.59-11.66,53.57-28.24c19.43-23.03,22.73-50.29,20.01-79.02
		c-0.29-3.01-2.16-3.26-4.51-3.26c-27.31,0.02-54.61,0.07-81.92-0.06c-3.85-0.02-4.86,1.49-4.76,5.03
		c0.19,6.65,0.3,13.33-0.04,19.97c-0.22,4.43,1.33,5.76,5.68,5.7c14.82-0.21,29.64-0.09,44.45-0.06c2.1,0.01,4.21,0.25,6.9,0.42
		c-1.42,17.18-7.58,31.16-22.08,40.34c-32.57,20.6-73.41,6.84-87.32-29.47c-8.39-21.91-8.72-44.42-1.97-66.68
		c9.36-30.86,31.28-46.08,62.38-43.94c20.7,1.42,36.2,10.44,43,31.3c0.41,1.27,2.02,3.06,3.1,3.08
		C900.39,893.96,911.18,893.87,921.67,893.87z M136.77,833.48c0,2.2,0,3.85,0,5.51c0,60.59,0.01,121.17,0.01,181.76
		c0,3.16,0.1,6.33-0.02,9.49c-0.11,2.86,0.82,4.25,3.95,4.22c27.79-0.19,55.63,0.71,83.37-0.64c36.6-1.77,64.12-23.3,75.22-57.32
		c7.47-22.91,8.13-46.43,3.97-70.08c-2.9-16.5-8.81-31.74-19.9-44.57c-16.76-19.4-38.73-27.82-63.69-28.43
		c-26.45-0.65-52.93-0.24-79.39-0.27C139.33,833.14,138.37,833.32,136.77,833.48z M654.14,893.88c-0.5-22.69-8.79-40.37-27.13-52.57
		c-27.97-18.6-77.31-18.31-105.2,0.51c-19.44,13.12-28.35,31.41-25.1,54.86c3.1,22.39,16.84,36.08,37.68,42.78
		c10.42,3.35,21.29,5.29,31.97,7.81c12.94,3.05,26.26,4.99,38.77,9.3c21.38,7.36,19.1,32.19,6.1,42.27
		c-12.29,9.53-26.53,10.9-41.23,10.11c-23.14-1.25-43.85-15.11-44.55-38.68c-0.03-0.92-2.42-2.5-3.74-2.53
		c-9.15-0.22-18.32-0.01-27.48-0.17c-3.35-0.06-4.3,1.24-4.22,4.42c0.67,24.54,11.4,43.6,32.86,55.17
		c31.93,17.22,65.25,16.79,98.45,3.67c13.83-5.46,24.47-15.22,31.24-28.86c8.36-16.87,9.79-47.03-9.32-64.41
		c-8.21-7.47-17.76-12.59-28.36-15.14c-17.63-4.25-35.5-7.48-53.18-11.53c-6.11-1.4-12.31-3.27-17.82-6.16
		c-10.12-5.29-13.71-16.91-9.38-27.51c2.67-6.53,7.66-10.84,13.87-13.71c11.9-5.51,24.46-5.87,37.2-4.32
		c17.82,2.17,31.31,11.91,34.08,31.54c0.16,1.16,1.86,3,2.87,3.02C632.8,893.97,643.1,893.88,654.14,893.88z M552.61,1202.11
		c-4,0-8.02,0.31-11.98-0.08c-4.91-0.47-5.84,1.64-5.57,6.06c1.68,27.33,15.46,46.43,40.12,57.19
		c28.12,12.28,57.05,11.79,85.84,2.18c13.41-4.47,24.45-12.55,32.67-24.34c13.41-19.24,14.8-53.75-5.61-71.06
		c-6.94-5.88-15.41-10.89-24.02-13.65c-14.36-4.59-29.43-6.91-44.14-10.45c-9.83-2.36-19.76-4.6-29.26-7.98
		c-6.87-2.45-11.22-8.13-12.37-15.74c-1.82-12.05,4.34-22.06,17-27.23c11.94-4.88,24.38-5.11,36.86-3.14
		c19.42,3.06,28.2,11.53,32.28,30.79c0.56,2.65,1.6,3.61,4.26,3.58c8.82-0.11,17.65-0.15,26.47,0c3.43,0.06,4.26-1.35,4.01-4.51
		c-1.84-22.74-11.98-40.38-32.35-51.19c-21.35-11.33-44.29-12.39-67.63-8.67c-16.32,2.6-30.82,9.19-42.8,20.93
		c-23.6,23.13-21.16,70.51,15.78,86.03c9.88,4.15,20.55,6.58,31.02,9.13c15.01,3.67,30.3,6.26,45.23,10.21
		c9.39,2.48,16.04,8.71,17.39,19.11c1.4,10.83-2.76,19.32-11.56,25.36c-14.43,9.9-30.64,10.11-47.08,7.56
		c-18.31-2.84-34.47-14.64-36.36-36.55c-0.24-2.84-1.63-3.63-4.21-3.58C561.93,1202.17,557.27,1202.1,552.61,1202.11z
		 M863.3,1150.34c-3,0-5.28,0-7.57,0c-29.3-0.01-58.6-0.1-87.9,0.08c-4.67,0.03-6.41-1.12-6.28-6.08
		c0.32-12.81,0.09-25.63,0.09-38.45c0-6.53,0.02-6.55,6.62-6.56c32.3-0.01,64.59-0.01,96.89-0.02c7.19,0,7.2-0.02,7.2-6.97
		c0.01-5.83,0-11.65,0-17.48c-0.01-7.39-0.01-7.41-7.19-7.42c-44.45-0.02-88.9,0.03-133.34-0.14c-4.65-0.02-6.34,1.09-6.32,6.06
		c0.16,63.26,0.15,126.52,0,189.78c-0.01,4.79,1.65,5.86,6.06,5.79c14.65-0.22,29.3-0.08,43.95-0.08c30.8,0,61.6,0,92.39,0
		c6.75,0,6.76-0.01,6.77-6.93c0.01-6.16,0-12.32-0.03-18.48c-0.03-6.43-0.04-6.44-6.69-6.45c-33.63-0.02-67.25-0.09-100.88,0.02
		c-3.98,0.01-5.58-0.95-5.51-5.26c0.24-14.65,0.28-29.3,0-43.95c-0.09-4.92,1.61-6.17,6.32-6.11c17.14,0.25,34.29,0.1,51.44,0.1
		c13.15,0,26.3,0,39.45,0c2.44,0,4.64,0.05,4.58-3.52C863.2,1169.31,863.3,1160.33,863.3,1150.34z M327.83,933.95
		c0,31.64,0.08,63.28-0.09,94.91c-0.02,4.37,1.18,5.76,5.61,5.68c13.98-0.25,27.97-0.09,41.96-0.09c31.97,0,63.94-0.08,95.91,0.08
		c4.33,0.02,5.95-1.14,5.73-5.6c-0.33-6.64-0.07-13.32-0.1-19.98c-0.03-6.51-0.05-6.53-6.59-6.53c-33.3,0-66.61,0.01-99.91,0
		c-6.46,0-6.47-0.02-6.47-6.65c-0.01-13.49,0-26.97,0-40.46c0-7.94,0-7.94,7.7-7.95c29.47,0,58.95-0.09,88.42,0.08
		c4.39,0.03,5.87-1.23,5.62-5.66c-0.36-6.31-0.09-12.65-0.09-18.98c0-6.65,0-6.67-6.48-6.67c-29.64-0.01-59.28-0.12-88.92,0.1
		c-5.14,0.04-6.5-1.55-6.37-6.55c0.34-12.65,0.11-25.31,0.12-37.96c0-6.63,0.02-6.65,6.56-6.65c32.8-0.01,65.61-0.07,98.41,0.07
		c4.23,0.02,6.02-1.01,5.79-5.57c-0.35-6.98-0.37-14-0.02-20.97c0.23-4.54-1.48-5.56-5.73-5.55c-45.12,0.13-90.25,0.15-135.37-0.03
		c-4.74-0.02-5.79,1.56-5.76,6C327.92,870.68,327.84,902.31,327.83,933.95z M895.58,1067.46c0,2.62,0,4.42,0,6.21
		c0,41.79-0.04,83.58,0.05,125.37c0.01,5.14,0.34,10.34,1.13,15.42c4.03,25.78,17.76,44.1,42.38,53.55
		c18.52,7.11,37.78,7.91,57.08,4.57c37.56-6.51,59.07-29.66,60.17-67.76c1.29-44.42,0.39-88.9,0.49-133.35
		c0.01-3.05-1.25-4.1-4.18-4.06c-7.99,0.09-15.98,0-23.97,0.01c-6.74,0-6.78,0.02-6.79,6.92c-0.02,39.96,0,79.92-0.05,119.88
		c-0.01,4.32-0.07,8.68-0.62,12.96c-1.77,13.87-8.56,24.51-21.5,30.3c-14.66,6.56-29.78,6.66-44.72,0.9
		c-10.76-4.14-17.96-12.12-20.89-23.24c-1.55-5.88-2.26-12.13-2.29-18.23c-0.19-40.96-0.1-81.91-0.1-122.87
		c0-1.17,0.36-2.51-0.1-3.45c-0.6-1.21-1.84-2.97-2.84-2.99C918.05,1067.38,907.25,1067.46,895.58,1067.46z M516.56,1139.66
		c0-22.32-0.09-44.64,0.08-66.95c0.03-4.19-1.35-5.5-5.44-5.37c-7.82,0.26-15.67,0.35-23.48-0.03c-4.9-0.24-6.17,1.49-6.15,6.24
		c0.17,35.31,0.1,70.62,0.08,105.92c0,7.99,0.25,16.01-0.24,23.98c-1.03,16.76-8.71,29.56-24.92,35.18
		c-7.51,2.6-15.99,3.48-24.01,3.36c-25.2-0.35-40.61-16.21-40.77-41.4c-0.2-31.31-0.07-62.62-0.08-93.93
		c0-11.49-0.09-22.98,0.04-34.47c0.04-3.24-0.69-4.89-4.38-4.81c-9.16,0.19-18.32,0.14-27.48,0.02c-3.2-0.04-4.38,1.16-4.37,4.4
		c0.11,44.8-0.4,89.61,0.34,134.4c0.55,33.32,21.21,57.51,53.76,65.1c18.14,4.23,36.36,4.13,54.44-0.34
		c12.15-3,23.12-8.43,32.18-17.28c14.49-14.14,20.03-31.92,20.3-51.56C516.77,1181.3,516.55,1160.48,516.56,1139.66z M258.78,670.3
		c0-1.79,0-3.58,0-5.37c0-20.31-0.1-40.62,0.07-60.92c0.03-4.13-1.27-5.55-5.41-5.4c-7.15,0.27-14.33,0.38-21.46-0.06
		c-5.13-0.31-6.45,1.44-6.42,6.46c0.21,33.29,0.12,66.58,0.12,99.88c0,29.96,0.06,59.93-0.08,89.89c-0.02,4.07,1.14,5.62,5.36,5.45
		c7.31-0.29,14.66-0.38,21.96,0.02c4.67,0.25,5.97-1.29,5.93-5.86c-0.19-23.97-0.13-47.94-0.03-71.91
		c0.02-4.64,0.24-9.34,0.95-13.92c3.23-20.84,21.47-33.59,41.29-29.02c7.76,1.79,14.11,5.98,16.83,13.48
		c2.17,5.97,3.62,12.54,3.71,18.86c0.38,27.63,0.21,55.26,0.06,82.89c-0.02,4.03,1.08,5.64,5.33,5.47
		c7.48-0.29,14.98-0.27,22.47-0.02c4.03,0.13,5.52-1.05,5.49-5.31c-0.17-30.29,0.25-60.6-0.35-90.88
		c-0.17-8.64-1.91-17.68-5.01-25.75c-9.15-23.84-32.49-30.28-55.3-27.07C280.42,653.16,269.06,660.16,258.78,670.3z M407.36,736.4
		c2.39,0,4.53,0,6.66,0c31.79,0,63.58-0.03,95.37,0.04c3.46,0.01,5.81-0.32,5.41-4.73c-0.62-6.78-0.45-13.66-1.39-20.38
		c-4.61-32.84-26.02-55.57-57.72-60.01c-26.02-3.65-48.97,3.27-66.35,24.01c-14.37,17.15-18.48,37.58-17.53,59.35
		c1.67,38.42,26.26,66.21,63.5,70.24c26.37,2.85,49.43-4.85,66.69-26.09c5.3-6.52,8.62-14.05,9.66-23.19
		c-10.86,0-21.14-0.06-31.42,0.1c-0.96,0.02-2.35,1.25-2.79,2.25c-6.66,15.33-19.59,19.68-34.68,19.1
		C421.3,776.28,404.39,756.92,407.36,736.4z M146.91,729.49c0.01,0,0.01,0,0.02,0c0,14.32-0.12,28.64,0.03,42.95
		c0.16,15.61,6.93,24.73,22.38,27.1c10.72,1.64,21.84,0.76,32.77,0.7c1.01-0.01,2.82-2.22,2.89-3.48c0.32-5.98,0.06-11.98,0.2-17.97
		c0.07-3.1-1.34-4.09-4.21-4.04c-3.33,0.06-6.67,0.02-9.98-0.24c-7.76-0.59-10.89-3.62-10.93-11.38
		c-0.13-26.47-0.01-52.94-0.08-79.42c-0.01-3.18,1.1-4.5,4.36-4.41c5.49,0.15,10.99-0.1,16.48,0.06c3.27,0.09,4.44-1.23,4.35-4.42
		c-0.14-5.32-0.14-10.66,0.01-15.98c0.09-3.2-1.1-4.5-4.36-4.4c-5.16,0.17-10.33-0.18-15.48,0.11c-4.14,0.23-5.52-1.22-5.43-5.38
		c0.23-10.98-0.08-21.98,0.15-32.96c0.09-4.05-1.39-5.15-5.21-5.04c-7.65,0.23-15.32,0.27-22.97-0.01c-4.02-0.14-5.15,1.3-5.07,5.16
		c0.22,10.98,0,21.98,0.16,32.96c0.05,3.72-0.93,5.58-5.07,5.26c-3.97-0.31-7.99,0.02-11.98-0.08c-2.62-0.06-4.06,0.74-4.02,3.66
		c0.1,5.83,0.07,11.65-0.03,17.48c-0.04,2.53,0.95,3.63,3.52,3.58c4.16-0.08,8.34,0.23,12.48-0.04c4.06-0.27,5.12,1.43,5.07,5.24
		C146.82,699.52,146.91,714.5,146.91,729.49z M680.5,933.88c0,31.62,0.03,63.24-0.04,94.86c-0.01,3.61,0.28,5.99,4.97,5.81
		c8.81-0.33,17.64-0.24,26.46-0.04c3.77,0.09,4.81-1.33,4.81-4.95c-0.08-63.74-0.09-127.47,0.03-191.21
		c0.01-4.28-1.54-5.39-5.52-5.27c-8.15,0.23-16.32,0.37-24.45-0.08c-5.24-0.29-6.37,1.63-6.34,6.52
		C680.6,870.97,680.5,902.43,680.5,933.88z"/>
	<path class="st2" d="M294.06,1117.98c-11.19,19.46-22.38,38.92-33.58,58.38c-3.65,6.35-7.46,12.61-10.95,19.05
		c-1.44,2.66-3.12,3.86-6.23,3.76c-6.49-0.21-12.99-0.22-19.48,0.02c-3.34,0.13-5.02-1.28-6.6-4.06
		c-14.08-24.73-28.31-49.39-42.51-74.05c-0.55-0.96-1.28-1.83-2.94-2.63c0,2.38,0,4.76,0,7.13c0,45.63-0.07,91.26,0.1,136.9
		c0.02,4.93-1.11,6.8-6.35,6.49c-7.8-0.46-15.65-0.32-23.47-0.04c-4.22,0.15-5.35-1.39-5.33-5.47c0.13-37.3,0.07-74.61,0.07-111.92
		c0-26.15,0.08-52.29-0.09-78.44c-0.03-4.25,1-5.89,5.54-5.78c11.15,0.29,22.32,0.35,33.47-0.05c5-0.18,7.73,1.44,10.18,5.82
		c15.17,27.18,30.65,54.2,46.03,81.26c0.73,1.29,1.54,2.53,2.78,4.55c1.35-2.28,2.45-4.03,3.45-5.84
		c14.88-26.77,29.85-53.5,44.52-80.39c2.25-4.13,4.83-5.52,9.37-5.4c11.15,0.3,22.32,0.22,33.47,0.05c3.64-0.05,4.97,1.07,4.97,4.83
		c-0.09,63.95-0.09,127.9-0.01,191.86c0,3.72-1.23,4.96-4.91,4.87c-7.99-0.2-16-0.32-23.98,0.04c-4.73,0.21-6.43-1.21-6.37-6.09
		c0.21-18.15,0.03-36.3,0.03-54.46c0.01-28.31,0.05-56.62,0.08-84.94c0-1.78,0-3.56,0-5.34
		C294.9,1118.08,294.48,1118.03,294.06,1117.98z"/>
	<path class="st2" d="M1238.76,1118.09c-1.64,2.8-3.31,5.6-4.93,8.42c-13.14,22.79-26.34,45.53-39.31,68.41
		c-1.83,3.23-3.87,4.44-7.48,4.29c-5.82-0.25-11.67-0.33-17.48,0.02c-4.12,0.25-6.25-1.49-8.19-4.9
		c-13.83-24.31-27.82-48.52-41.78-72.75c-0.79-1.36-1.68-2.67-3.35-3.72c0,5.26,0,10.53,0,15.79c0,42.96-0.08,85.92,0.11,128.88
		c0.02,5.04-1.3,6.72-6.4,6.45c-7.8-0.41-15.65-0.26-23.47-0.02c-3.83,0.12-5.48-0.97-5.21-5.04c0.3-4.48,0.08-8.99,0.08-13.48
		c0-58.78,0-117.56,0-176.34c0-6.63,0.01-6.65,6.52-6.66c11.16-0.01,22.32,0.17,33.47-0.08c4.18-0.09,6.5,1.23,8.6,4.99
		c15.47,27.58,31.22,55.01,46.88,82.48c0.65,1.14,1.38,2.23,2.55,4.1c1.24-2.09,2.24-3.69,3.15-5.34
		c15.21-27.35,30.44-54.68,45.54-82.08c1.54-2.79,3.18-4.19,6.53-4.14c11.82,0.18,23.65,0.17,35.47,0.01
		c3.58-0.05,4.98,0.96,4.97,4.79c-0.1,63.94-0.09,127.88-0.01,191.83c0,3.61-1.05,5.06-4.83,4.96c-8.15-0.22-16.33-0.35-24.47,0.03
		c-4.83,0.23-5.79-1.66-5.78-6.05c0.13-46.29,0.08-92.58,0.08-138.87c0-1.82,0-3.63,0-5.45
		C1239.61,1118.42,1239.18,1118.26,1238.76,1118.09z"/>
	<path class="st2" d="M984.14,886.7c0,2.14,0,4.29,0,6.43c0.01,44.79,0.01,89.57,0.01,134.36c0,6.95-0.02,6.96-6.74,6.97
		c-7.66,0.01-15.32-0.21-22.97,0.06c-4.23,0.15-5.34-1.44-5.32-5.48c0.13-28.3,0.05-56.61,0.05-84.91c0-34.8,0-69.59,0.01-104.39
		c0-6.57,0.04-6.58,6.56-6.59c11.15-0.01,22.31,0.11,33.46-0.07c3.24-0.05,5.1,0.96,6.72,3.84c24.33,43.21,48.77,86.36,73.19,129.52
		c2.85,5.04,5.75,10.05,9.91,14.95c0-1.66,0-3.32,0-4.98c0-45.45-0.01-90.9,0-136.36c0-6.87,0.02-6.88,6.8-6.89
		c9.12-0.01,18.24,0,27.83,0c0.11,2.4,0.29,4.34,0.29,6.28c0.02,62.27,0.02,124.54,0.02,186.8c0,8.21,0.01,8.21-7.95,8.22
		c-10.66,0-21.31-0.12-31.97,0.07c-3.43,0.06-5.44-1.11-7.12-4.1c-19.17-34.09-38.44-68.11-57.68-102.15
		c-7.29-12.89-14.56-25.8-21.86-38.69c-0.63-1.11-1.42-2.13-2.14-3.19C984.88,886.5,984.51,886.6,984.14,886.7z"/>
	<path class="st2" d="M921.67,893.87c-10.49,0-21.28,0.09-32.05-0.14c-1.08-0.02-2.69-1.8-3.1-3.08c-6.79-20.85-22.29-29.87-43-31.3
		c-31.09-2.14-53.02,13.08-62.38,43.94c-6.75,22.26-6.42,44.77,1.97,66.68c13.91,36.31,54.76,50.08,87.32,29.47
		c14.5-9.17,20.66-23.16,22.08-40.34c-2.69-0.17-4.8-0.41-6.9-0.42c-14.82-0.04-29.64-0.15-44.45,0.06
		c-4.35,0.06-5.91-1.27-5.68-5.7c0.34-6.64,0.23-13.32,0.04-19.97c-0.1-3.54,0.9-5.05,4.76-5.03c27.31,0.13,54.61,0.08,81.92,0.06
		c2.36,0,4.23,0.24,4.51,3.26c2.72,28.73-0.59,55.98-20.01,79.02c-13.98,16.58-32.5,25.26-53.57,28.24
		c-29.72,4.21-57.05-1.61-80.2-21.81c-14.88-12.99-24.24-29.52-29.07-48.52c-6.99-27.52-6.52-54.88,4.18-81.4
		c16.21-40.15,53.66-62.61,96.89-58.99c17.55,1.47,34.15,5.64,48.68,16.06c15.81,11.34,24.99,26.86,28.54,45.85
		c0.15,0.81,0.16,1.65,0.16,2.48C922.31,892.6,922.08,892.9,921.67,893.87z"/>
	<path class="st3" d="M136.77,833.48c1.59-0.16,2.55-0.33,3.52-0.33c26.46,0.03,52.94-0.37,79.39,0.27
		c24.96,0.61,46.93,9.03,63.69,28.43c11.09,12.83,17,28.08,19.9,44.57c4.16,23.66,3.5,47.18-3.97,70.08
		c-11.1,34.02-38.62,55.55-75.22,57.32c-27.73,1.34-55.58,0.45-83.37,0.64c-3.14,0.02-4.07-1.36-3.95-4.22
		c0.13-3.16,0.02-6.32,0.02-9.49c0-60.59-0.01-121.17-0.01-181.76C136.77,837.33,136.77,835.68,136.77,833.48z M172.86,933.54
		c0.01,0,0.01,0,0.02,0c0,21.31,0,42.61,0,63.92c0,0.17,0.02,0.34,0,0.5c-0.47,3.72,0.78,5.38,4.91,5.28
		c11.15-0.26,22.31,0.09,33.46-0.16c30.69-0.68,48.76-15.61,54.83-45.62c3.26-16.15,3.25-32.48-0.15-48.62
		c-5.98-28.41-23.21-43-52.27-44.24c-11.63-0.5-23.3,0-34.95-0.3c-4.47-0.12-6,1.11-5.95,5.81
		C173,891.25,172.86,912.4,172.86,933.54z"/>
	<path class="st2" d="M654.14,893.88c-11.04,0-21.33,0.09-31.62-0.14c-1.01-0.02-2.71-1.86-2.87-3.02
		c-2.76-19.63-16.25-29.37-34.08-31.54c-12.74-1.55-25.31-1.19-37.2,4.32c-6.21,2.88-11.2,7.18-13.87,13.71
		c-4.33,10.6-0.74,22.21,9.38,27.51c5.51,2.89,11.72,4.76,17.82,6.16c17.68,4.05,35.55,7.28,53.18,11.53
		c10.6,2.55,20.15,7.67,28.36,15.14c19.11,17.38,17.68,47.54,9.32,64.41c-6.76,13.64-17.41,23.39-31.24,28.86
		c-33.2,13.12-66.52,13.55-98.45-3.67c-21.45-11.57-32.19-30.63-32.86-55.17c-0.09-3.18,0.87-4.48,4.22-4.42
		c9.16,0.16,18.32-0.05,27.48,0.17c1.32,0.03,3.71,1.61,3.74,2.53c0.7,23.57,21.42,37.43,44.55,38.68
		c14.7,0.79,28.94-0.58,41.23-10.11c13-10.08,15.28-34.91-6.1-42.27c-12.51-4.31-25.83-6.24-38.77-9.3
		c-10.68-2.52-21.55-4.46-31.97-7.81c-20.84-6.7-34.58-20.39-37.68-42.78c-3.25-23.45,5.66-41.74,25.1-54.86
		c27.89-18.82,77.22-19.11,105.2-0.51C645.34,853.51,653.64,871.19,654.14,893.88z"/>
	<path class="st2" d="M552.61,1202.1c4.66,0,9.32,0.07,13.98-0.03c2.58-0.05,3.97,0.74,4.21,3.58
		c1.88,21.91,18.04,33.71,36.36,36.55c16.44,2.55,32.65,2.35,47.08-7.56c8.8-6.04,12.96-14.53,11.56-25.36
		c-1.34-10.39-7.99-16.62-17.39-19.11c-14.93-3.95-30.22-6.54-45.23-10.21c-10.47-2.56-21.14-4.98-31.02-9.13
		c-36.95-15.52-39.39-62.9-15.78-86.03c11.98-11.74,26.49-18.33,42.8-20.93c23.33-3.72,46.28-2.66,67.63,8.67
		c20.37,10.81,30.51,28.45,32.35,51.19c0.26,3.16-0.58,4.57-4.01,4.51c-8.82-0.16-17.65-0.12-26.47,0c-2.66,0.03-3.7-0.93-4.26-3.58
		c-4.07-19.26-12.85-27.73-32.28-30.79c-12.48-1.97-24.92-1.74-36.86,3.14c-12.66,5.17-18.83,15.18-17,27.23
		c1.15,7.61,5.49,13.29,12.37,15.74c9.5,3.38,19.43,5.62,29.26,7.98c14.71,3.54,29.78,5.86,44.14,10.45
		c8.62,2.76,17.09,7.77,24.02,13.65c20.4,17.31,19.01,51.82,5.61,71.06c-8.21,11.79-19.26,19.87-32.67,24.34
		c-28.79,9.61-57.72,10.09-85.84-2.18c-24.67-10.77-38.45-29.86-40.12-57.19c-0.27-4.42,0.66-6.54,5.57-6.06
		C544.59,1202.41,548.61,1202.11,552.61,1202.1z"/>
	<path class="st2" d="M863.3,1150.34c0,9.99-0.1,18.97,0.05,27.95c0.06,3.57-2.14,3.52-4.58,3.52c-13.15-0.01-26.3,0-39.45,0
		c-17.15,0-34.3,0.15-51.44-0.1c-4.71-0.07-6.41,1.19-6.32,6.11c0.28,14.64,0.24,29.3,0,43.95c-0.07,4.31,1.53,5.27,5.51,5.26
		c33.63-0.11,67.25-0.04,100.88-0.02c6.64,0,6.66,0.02,6.69,6.45c0.03,6.16,0.03,12.32,0.03,18.48c-0.01,6.91-0.02,6.93-6.77,6.93
		c-30.8,0.01-61.6,0-92.39,0c-14.65,0-29.3-0.14-43.95,0.08c-4.41,0.07-6.07-1.01-6.06-5.79c0.15-63.26,0.15-126.52,0-189.78
		c-0.01-4.97,1.68-6.08,6.32-6.06c44.45,0.16,88.9,0.11,133.34,0.14c7.18,0,7.18,0.03,7.19,7.42c0.01,5.83,0.01,11.65,0,17.48
		c-0.01,6.95-0.01,6.97-7.2,6.97c-32.3,0.01-64.59,0.01-96.89,0.02c-6.6,0-6.62,0.03-6.62,6.56c0,12.82,0.23,25.64-0.09,38.45
		c-0.12,4.96,1.61,6.11,6.28,6.08c29.3-0.18,58.6-0.08,87.9-0.08C858.02,1150.34,860.3,1150.34,863.3,1150.34z"/>
	<path class="st2" d="M327.84,933.95c0-31.64,0.08-63.28-0.09-94.91c-0.02-4.43,1.03-6.01,5.76-6c45.12,0.17,90.25,0.16,135.37,0.03
		c4.25-0.01,5.96,1.01,5.73,5.55c-0.36,6.98-0.34,14,0.02,20.97c0.23,4.56-1.56,5.59-5.79,5.57c-32.8-0.14-65.61-0.08-98.41-0.07
		c-6.54,0-6.55,0.02-6.56,6.65c-0.01,12.66,0.23,25.32-0.12,37.96c-0.14,5,1.23,6.59,6.37,6.55c29.64-0.23,59.28-0.11,88.92-0.1
		c6.48,0,6.48,0.02,6.48,6.67c0,6.33-0.27,12.67,0.09,18.98c0.25,4.43-1.23,5.68-5.62,5.66c-29.47-0.17-58.95-0.09-88.42-0.08
		c-7.7,0-7.7,0.01-7.7,7.95c0,13.49-0.01,26.97,0,40.46c0,6.62,0.02,6.65,6.47,6.65c33.3,0.01,66.61-0.01,99.91,0
		c6.53,0,6.56,0.02,6.59,6.53c0.03,6.66-0.23,13.33,0.1,19.98c0.22,4.46-1.4,5.63-5.73,5.6c-31.97-0.16-63.94-0.08-95.91-0.08
		c-13.99,0-27.98-0.17-41.96,0.09c-4.43,0.08-5.63-1.31-5.61-5.68C327.91,997.23,327.83,965.59,327.84,933.95z"/>
	<path class="st2" d="M895.58,1067.46c11.67,0,22.46-0.08,33.25,0.13c1,0.02,2.24,1.78,2.84,2.99c0.46,0.94,0.1,2.29,0.1,3.45
		c0,40.96-0.09,81.92,0.1,122.87c0.03,6.09,0.74,12.35,2.29,18.23c2.93,11.12,10.13,19.1,20.89,23.24
		c14.94,5.75,30.06,5.65,44.72-0.9c12.94-5.79,19.74-16.43,21.5-30.3c0.55-4.28,0.61-8.64,0.62-12.96
		c0.05-39.96,0.03-79.92,0.05-119.88c0-6.91,0.05-6.92,6.79-6.92c7.99-0.01,15.98,0.08,23.97-0.01c2.93-0.03,4.19,1.02,4.18,4.06
		c-0.11,44.45,0.79,88.93-0.49,133.35c-1.1,38.1-22.62,61.25-60.17,67.76c-19.3,3.35-38.55,2.54-57.08-4.57
		c-24.62-9.45-38.34-27.77-42.38-53.55c-0.79-5.08-1.12-10.28-1.13-15.42c-0.09-41.79-0.05-83.58-0.05-125.37
		C895.58,1071.88,895.58,1070.08,895.58,1067.46z"/>
	<path class="st2" d="M516.56,1139.66c-0.01,20.82,0.21,41.64-0.07,62.45c-0.27,19.65-5.81,37.42-20.3,51.56
		c-9.06,8.84-20.04,14.28-32.18,17.28c-18.08,4.47-36.3,4.57-54.44,0.34c-32.55-7.58-53.21-31.77-53.76-65.1
		c-0.74-44.79-0.23-89.6-0.34-134.4c-0.01-3.24,1.17-4.44,4.37-4.4c9.16,0.11,18.32,0.17,27.48-0.02c3.69-0.08,4.41,1.57,4.38,4.81
		c-0.13,11.49-0.04,22.98-0.04,34.47c0.01,31.31-0.11,62.62,0.08,93.93c0.16,25.19,15.57,41.05,40.77,41.4
		c8.02,0.11,16.49-0.76,24.01-3.36c16.21-5.62,23.89-18.42,24.92-35.18c0.49-7.97,0.23-15.98,0.24-23.98
		c0.02-35.31,0.09-70.62-0.08-105.92c-0.02-4.74,1.25-6.47,6.15-6.24c7.81,0.38,15.66,0.28,23.48,0.03c4.1-0.14,5.47,1.18,5.44,5.37
		C516.47,1095.03,516.56,1117.35,516.56,1139.66z"/>
	<path class="st2" d="M258.78,670.3c10.28-10.14,21.64-17.13,35.51-19.08c22.8-3.21,46.15,3.24,55.3,27.07
		c3.1,8.06,4.84,17.11,5.01,25.75c0.6,30.28,0.18,60.59,0.35,90.88c0.02,4.26-1.47,5.44-5.49,5.31c-7.48-0.25-14.99-0.27-22.47,0.02
		c-4.24,0.17-5.35-1.44-5.33-5.47c0.15-27.63,0.32-55.27-0.06-82.89c-0.09-6.33-1.54-12.89-3.71-18.86
		c-2.72-7.5-9.07-11.69-16.83-13.48c-19.81-4.58-38.06,8.18-41.29,29.02c-0.71,4.58-0.93,9.28-0.95,13.92
		c-0.1,23.97-0.16,47.94,0.03,71.91c0.04,4.57-1.26,6.12-5.93,5.86c-7.3-0.4-14.65-0.31-21.96-0.02c-4.22,0.17-5.38-1.38-5.36-5.45
		c0.14-29.96,0.08-59.93,0.08-89.89c0-33.29,0.09-66.58-0.12-99.88c-0.03-5.01,1.28-6.77,6.42-6.46c7.13,0.43,14.32,0.33,21.46,0.06
		c4.14-0.16,5.45,1.26,5.41,5.4c-0.17,20.31-0.08,40.62-0.07,60.92C258.78,666.72,258.78,668.51,258.78,670.3z"/>
	<path class="st2" d="M407.36,736.4c-2.97,20.52,13.94,39.88,35.42,40.7c15.09,0.57,28.02-3.77,34.68-19.1
		c0.43-1,1.82-2.23,2.79-2.25c10.28-0.16,20.56-0.1,31.42-0.1c-1.04,9.14-4.36,16.67-9.66,23.19
		c-17.26,21.24-40.33,28.94-66.69,26.09c-37.24-4.03-61.83-31.83-63.5-70.24c-0.95-21.77,3.16-42.2,17.53-59.35
		c17.38-20.74,40.33-27.66,66.35-24.01c31.7,4.44,53.11,27.17,57.72,60.01c0.94,6.73,0.77,13.6,1.39,20.38
		c0.41,4.41-1.95,4.74-5.41,4.73c-31.79-0.08-63.58-0.05-95.37-0.04C411.89,736.4,409.75,736.4,407.36,736.4z M479.65,711.91
		c-1.42-12.36-6.19-22.34-16.79-28.28c-13.3-7.46-26.89-6.73-39.67,1.53c-9.49,6.14-14.84,15.1-16.19,26.75
		C431.45,711.91,455.27,711.91,479.65,711.91z"/>
	<path class="st2" d="M146.91,729.49c0-14.98-0.1-29.97,0.07-44.95c0.04-3.81-1.02-5.51-5.07-5.24c-4.14,0.27-8.32-0.04-12.48,0.04
		c-2.57,0.05-3.56-1.05-3.52-3.58c0.1-5.83,0.12-11.66,0.03-17.48c-0.05-2.92,1.4-3.72,4.02-3.66c3.99,0.09,8.01-0.23,11.98,0.08
		c4.14,0.32,5.12-1.54,5.07-5.26c-0.16-10.99,0.06-21.98-0.16-32.96c-0.08-3.86,1.05-5.31,5.07-5.16
		c7.65,0.28,15.32,0.24,22.97,0.01c3.82-0.12,5.3,0.99,5.21,5.04c-0.24,10.98,0.08,21.98-0.15,32.96c-0.09,4.16,1.29,5.62,5.43,5.38
		c5.14-0.29,10.32,0.06,15.48-0.11c3.26-0.11,4.46,1.2,4.36,4.4c-0.16,5.32-0.16,10.66-0.01,15.98c0.09,3.18-1.09,4.51-4.35,4.42
		c-5.49-0.16-10.99,0.09-16.48-0.06c-3.26-0.09-4.37,1.22-4.36,4.41c0.07,26.47-0.05,52.94,0.08,79.42
		c0.04,7.75,3.17,10.78,10.93,11.38c3.31,0.25,6.66,0.3,9.98,0.24c2.87-0.05,4.29,0.94,4.21,4.04c-0.14,5.99,0.11,12-0.2,17.97
		c-0.07,1.26-1.87,3.48-2.89,3.48c-10.94,0.06-22.06,0.94-32.77-0.7c-15.45-2.37-22.22-11.49-22.38-27.1
		c-0.15-14.32-0.03-28.64-0.03-42.95C146.92,729.49,146.92,729.49,146.91,729.49z"/>
	<path class="st2" d="M680.5,933.88c0-31.45,0.1-62.91-0.1-94.36c-0.03-4.9,1.1-6.82,6.34-6.52c8.13,0.45,16.31,0.31,24.45,0.08
		c3.99-0.11,5.53,0.99,5.52,5.27c-0.12,63.74-0.11,127.47-0.03,191.21c0,3.61-1.04,5.04-4.81,4.95c-8.82-0.21-17.65-0.29-26.46,0.04
		c-4.7,0.18-4.98-2.2-4.97-5.81C680.53,997.12,680.5,965.5,680.5,933.88z"/>
	<path class="st4" d="M172.86,933.54c0-21.14,0.14-42.28-0.11-63.42c-0.05-4.7,1.48-5.93,5.95-5.81c11.64,0.31,23.32-0.19,34.95,0.3
		c29.06,1.24,46.29,15.83,52.27,44.24c3.4,16.14,3.41,32.47,0.15,48.62c-6.07,30.01-24.14,44.94-54.83,45.62
		c-11.15,0.25-22.31-0.1-33.46,0.16c-4.13,0.09-5.37-1.56-4.91-5.28c0.02-0.16,0-0.33,0-0.5c0-21.31,0-42.61,0-63.92
		C172.87,933.54,172.87,933.54,172.86,933.54z"/>
	<path class="st4" d="M479.65,711.91c-24.38,0-48.2,0-72.66,0c1.36-11.65,6.7-20.61,16.19-26.75c12.78-8.26,26.37-8.99,39.67-1.53
		C473.46,689.58,478.23,699.56,479.65,711.91z"/>
</g>
</svg>
