<?xml version="1.0" encoding="utf-8"?>
<!-- Generator: Adobe Illustrator 24.1.0, SVG Export Plug-In . SVG Version: 6.00 Build 0)  -->
<svg version="1.1" id="Layer_1" xmlns="http://www.w3.org/2000/svg" xmlns:xlink="http://www.w3.org/1999/xlink" x="0px" y="0px"
	 viewBox="0 0 1065.3 369" style="enable-background:new 0 0 1065.3 369;" xml:space="preserve">
<g>
	<g>
		<g>
			<path d="M94.1,43.7c-1.6-5.3-7.3-8.3-12.6-6.7c-2.2,0.7-4.5,1.3-6.7,1.8l-6.3-23.6c-0.5-2-2.5-3.2-4.5-2.7l-11.7,2.7
				c-3.3,0.8-6.7,0.8-10,0l-11.7-2.7c-2-0.5-4,0.7-4.5,2.7l-6.3,23.6c-2.2-0.5-4.5-1.1-6.7-1.8c-5.3-1.6-11,1.3-12.6,6.7
				c-1.6,5.3,1.3,11,6.7,12.6c4.4,1.3,8.8,2.5,13.2,3.4c-0.2,1.2-0.3,2.4-0.3,3.6c0,15.1,12.2,27.3,27.3,27.3s27.3-12.2,27.3-27.3
				c0-1.3-0.1-2.5-0.3-3.7c4.4-0.9,8.7-2,13-3.3C92.8,54.7,95.8,49,94.1,43.7z"/>
		</g>
	</g>
	<g>
		<g>
			<path d="M17.6,216.2v124.9c0,8.5,7.4,15.5,16,15.5s15.5-6.9,15.5-15.5V224.8h12v116.3c0,5.1-1.4,9.9-3.9,14
				c2,0.9,4.2,1.4,6.5,1.4c8.5,0,15.8-6.9,15.8-15.5V209L17.6,216.2z"/>
		</g>
	</g>
	<g>
		<g>
			<path d="M182.3,100.2c-4.4-0.2-14.1-0.7-24.1-1.1v-5.2c0-1.4-1.1-2.6-2.6-2.6h-5.4c-1.4,0-2.6,1.1-2.6,2.6v4.7c0,0-0.1,0-0.1,0
				c0,0-1,0-1.7,0.1c-3.9,0.6-7,3.7-7.6,7.6c-0.5,3.2,0.7,5.2,1.8,7.5L83.7,120L49,108.8l25.4,0.3c-3.3-3.6-8-5.7-13-5.8l-24-0.5
				c-11.6-0.2-19.7,8.8-19.7,18.9c0,17,0,66.1,0,83.1l62.2-7.2l0.1-40.5L41.5,132l37.2,12c1.6,0.5,3.3,0.7,5,0.5l66.6-6.9
				c6.2-0.6,11.2-5.8,11.2-12c0-1.5-0.3-3-0.8-4.3c0.9,0.1,1.7-0.1,2.4-0.5c2.2-1.2,3-3.9,1.8-6.1l-1.9-3.5
				c8.1-0.4,15.5-0.7,19.2-0.9c1.4-0.1,2.4-1.2,2.4-2.6v-4.8C184.7,101.4,183.6,100.3,182.3,100.2z"/>
		</g>
	</g>
</g>
<g>
	<g>
		<g>
			<path d="M975.5,56.3c4.3,1.3,8.6,2.4,13,3.3c-0.2,1.2-0.3,2.5-0.3,3.7c0,15.1,12.3,27.3,27.3,27.3c15.1,0,27.3-12.3,27.3-27.3
				c0-1.2-0.1-2.4-0.3-3.6c4.4-0.9,8.9-2,13.2-3.4c5.3-1.6,8.3-7.3,6.7-12.6c-1.6-5.3-7.3-8.3-12.6-6.7c-2.2,0.7-4.5,1.3-6.7,1.8
				l-6.3-23.6c-0.5-2-2.5-3.2-4.5-2.7l-11.7,2.7c-3.3,0.8-6.7,0.8-10,0l-11.7-2.7c-2-0.5-4,0.7-4.5,2.7l-6.3,23.6
				c-2.2-0.5-4.5-1.1-6.7-1.8c-5.3-1.6-11,1.3-12.6,6.7C967.2,49,970.1,54.7,975.5,56.3z"/>
		</g>
	</g>
	<g>
		<g>
			<path d="M983.5,209v132.1c0,8.5,7.2,15.5,15.8,15.5c2.3,0,4.5-0.5,6.5-1.4c-2.4-4.1-3.9-8.9-3.9-14V224.8h12v116.3
				c0,8.5,6.9,15.5,15.5,15.5c8.5,0,16-6.9,16-15.5V216.2L983.5,209z"/>
		</g>
	</g>
	<g>
		<g>
			<path d="M878.2,102.8v4.8c0,1.4,1.1,2.5,2.4,2.6c3.7,0.2,11,0.5,19.2,0.9l-1.9,3.5c-1.2,2.2-0.4,4.9,1.8,6.1
				c0.7,0.4,1.5,0.6,2.4,0.5c-0.5,1.3-0.8,2.8-0.8,4.3c0.1,6.3,5,11.4,11.2,12l66.6,6.9c1.7,0.2,3.4,0,5-0.5l37.2-12l-38.4,25.2
				l0.1,40.5l62.2,7.2c0-17,0-66.2,0-83.1c0-10.1-8.1-19.1-19.7-18.9l-24,0.5c-5.1,0-9.7,2.2-13,5.8l25.4-0.3L979.2,120l-56.3-6.2
				c1.1-2.3,2.3-4.3,1.8-7.5c-0.6-3.9-3.7-7-7.6-7.6c-0.7-0.1-1.8-0.1-1.7-0.1c0,0-0.1,0-0.1,0v-4.7c0-1.4-1.1-2.6-2.6-2.6h-5.4
				c-1.4,0-2.6,1.1-2.6,2.6v5.2c-10,0.5-19.7,0.9-24.1,1.1C879.3,100.3,878.2,101.4,878.2,102.8z"/>
		</g>
	</g>
</g>
<g id="oe9elv_1_">
	<g>
		<path d="M593.1,159.2c-0.9-2.1,0-3.4,1.5-4.3c2.5-1.5,5.2-1.4,8-0.7c1,0.3,2.1,0.1,3.2,0c1.2-0.1,2.4-0.7,3.4-0.4
			c4.2,1.2,8.2-0.2,12.3-0.4c8.7-0.4,17.2,0.6,24,6.8c4.9,4.5,7.2,10.5,8.4,16.8c0.1,0.6,0.2,1.3,0.3,2c0.3,3.4,1.3,6.3,5.6,7.7
			c-5.4,1.7-5.2,5.9-5.8,9.6c-1.8,10.8-6.7,19.6-17.2,24.2c-6.6,2.9-13.5,3.3-20.5,1.6c-0.7-0.2-1.5-0.5-2.2-0.3
			c-3.2,1-6.3,1.2-9.5-0.2c-0.5-0.2-1.2,0.1-1.8,0.4c-2.8,1.1-5.6,0.8-8.2-0.6c-1.9-1.1-2.2-2.2-1.5-4.1c1.5,0,2.9,0.2,4.2,0
			c2.4-0.4,3.8-2.2,3.8-4.5c0-6.2,0-12.4,0-18.7c0-2.7-0.9-4.7-3.3-6c-0.6-0.4-1.2-0.8-2.2-1.4c5.2-1.7,5.6-5.6,5.5-9.9
			c-0.2-3.6-0.3-7.3,0-10.9C601.7,159.9,598.1,157.9,593.1,159.2z M631.5,186.8c3.2-1.2,5-2.5,5.1-5.3c0.2-5.8-1-11.2-4.1-16.1
			c-2.8-4.4-6.8-6.4-12-6.1c-2.1,0.1-3,0.7-3,3.1c0.1,16.6,0.1,33.1,0.1,49.7c0,3,1.2,4.3,4.2,4.6c5.7,0.6,10.1-1.9,12.4-7.2
			c2.1-4.7,2.5-9.7,2.6-14.8C636.8,191.2,636.6,188,631.5,186.8z M639.9,209c0.2,0.1,0.5,0.2,0.7,0.3c0.6-1,1.6-1.9,1.8-3
			c1.1-4.7,2.4-9.3,2.9-14c0.7-7.4,0.5-14.8-2.6-21.7c-0.5-1.2-1.5-2.3-2.3-3.4c0.4,4.1,1.4,7.9,1.9,11.7c0.4,2.7,1.4,5.8-1.1,7.3
			c0.5,1.9,1.4,3.4,1.3,4.8c-0.5,5.3-1.4,10.5-2.1,15.7C640.2,207.5,640,208.3,639.9,209z M603.8,186.7c0.5,1.5,1.2,3.1,1.5,4.9
			c0.3,1.3,0.1,2.6,0.1,4c0,4.5,0,9,0,13.5c0.3,0.1,0.7,0.1,1,0.2c0.4-1.3,1-2.7,1.1-4c0.2-6.9,0.4-13.7,0.4-20.6
			c0-4.6-0.2-9.3-0.4-13.9c-0.1-1.1-0.8-2.1-1.2-3.1c-0.3,0.1-0.6,0.2-1,0.2c0,4.4,0.2,8.9-0.1,13.3
			C605.1,183,604.3,184.9,603.8,186.7z"/>
		<path d="M762.5,176.1c-0.8-3.2,1-5.6,4.4-5.1c3.1,0.4,5.9,0.3,9,0.1c3.1-0.2,6.3,0.4,9.6-0.1c3.5-0.5,5.4,2.1,4.4,5.2
			c-0.6-0.1-1.2-0.4-1.9-0.4c-2.2-0.3-3.4,1.1-2.7,3.1c2.7,7.1,5.4,14.1,8.1,21.1c0.1,0.2,0.2,0.4,0.6,1c2-5.9,3.8-11.4,5.6-16.9
			c0.3-0.9,0.6-1.9,0.9-2.8c1.3-3.9-0.7-6.1-4.7-5.4c-0.3,0.1-0.6,0.1-0.9,0.1c-0.8-3.3,1.8-5.9,5.5-5c2.4,0.6,4.7,0,6.8,0.1
			c3.8,0.3,7.5-0.3,11.3-0.2c3,0.1,4.2,2,3.6,4.6c-0.2,0-0.5,0.2-0.7,0.1c-3.3-0.7-4.9,0.9-3.8,4.1c2.4,7,5.1,13.8,7.8,21.4
			c0.6-1.4,0.9-2.1,1.2-2.9c2-5.8,4-11.6,5.9-17.4c1.3-3.8-0.3-5.7-4.3-5.2c-0.6,0.1-1.3,0.3-2.7,0.6c0.5-1.7,0.5-3.4,1.3-4
			c1.3-0.8,3.2-1.3,4.7-1.1c1.5,0.2,2.7,0.3,4.2,0.1c3.3-0.5,6.7-0.5,10-0.1c2.2,0.2,2.8,2.2,2.1,4.9c-0.9-0.1-1.8-0.3-2.7-0.3
			c-3.4-0.2-4.9,0.8-6.1,3.9c-1.1,2.8-1.9,5.7-3,8.4c-1.1,2.9-0.4,5.2,2.4,7.4c-5.8,0.9-6.8,5.2-8.2,9.3c-1.5,4.7-3,9.3-4.7,13.9
			c-0.5,1.4-1.7,2.9-2.9,3.8c-1.9,1.3-3.6,0.6-4.5-1.6c-4-9.9-8-19.8-12-29.7c-0.5-1.3-1.1-2.5-2-4.5c-0.7,2-1.2,3.4-1.6,4.8
			c-2.8,9-5.6,18-8.5,27c-0.5,1.4-1.4,2.9-2.6,3.8c-2.1,1.6-4,0.9-5-1.6c-2.1-4.9-4.3-9.7-6.2-14.7c-1.9-4.7-3.6-9.4-10.5-10.4
			c5.1-3.2,3.2-6.7,1.9-10.1c-0.7-1.9-1.4-3.9-2.2-5.8C768.2,175.9,766.8,175.2,762.5,176.1z M777.1,181.5c-1.5,3.2-0.2,5.8,0.9,8.4
			c0.8,1.9,1.4,3.7,0.4,4.9c1.5,2.1,2.9,3.9,4.1,5.9c1.1,2,1.9,4.2,3,6.3c0.6,1.1,1.6,1.9,2.4,2.9c0.3-0.2,0.5-0.3,0.8-0.5
			C784.8,200.1,781,190.8,777.1,181.5z M808.6,181.6c0.7,10.2,6.4,18.5,10.2,27.6C817.6,199.2,812.4,190.7,808.6,181.6z"/>
		<path d="M363.8,216.9c1,3.9-1.5,6.5-5.4,5.5c-2.2-0.6-4.3,0-6.4-0.1c-3.6-0.1-7.3,0.2-10.9-0.1c-2.9-0.3-3.8-2.4-2.9-5.3
			c4.5,0.4,5,0,5-4.7c0-7.2,0-14.4,0-21.6c0-1.8-0.2-3.6-0.4-5.4c-0.4-2.6-1.3-4.9-4.1-5.7c-3-0.8-5.8-0.2-8,2.2
			c-1.8,2.1-2.7,4.5-2.7,7.3c0.1,8,0,16.1,0,24.1c0,3.8,1,4.5,5.4,3.5c-0.3,1.6-0.1,3.5-0.9,4.1c-1.3,1-3.3,1.8-4.9,1.5
			c-1.9-0.3-3.7,0-5.4-0.1c-4.1-0.3-8.2,0.3-12.3,0c-2.8-0.3-3.7-2.3-2.7-5.3c0.6,0.1,1.2,0.3,1.8,0.4c2.4,0.4,4.1-0.9,4.2-3.4
			c0.1-4.2,0.2-8.5-0.1-12.7c-0.1-1.4-1.4-2.8-2.4-4c-0.6-0.7-1.6-1.1-2.7-1.8c0.9-0.5,1.6-0.8,2.2-1.3c0.9-0.7,2.3-1.5,2.4-2.4
			c0.3-3.6,0.3-7.2,0-10.8c-0.1-0.6-2-1.3-3.2-1.6c-0.8-0.2-1.7,0.2-2.6,0.4c-1.3-3,0.6-6.5,4.1-7.7c0.4-0.1,0.8-0.3,1.2-0.3
			c3.5,0,6.8,0.4,10.3-1.6c2.9-1.7,5.4,0.7,5.5,4.2c0,0.9,0,1.8,0,3.5c1-1.1,1.5-1.7,2-2.2c4.7-5.4,12.4-7.3,19.2-4.8
			c6,2.2,7.7,7.3,8.4,13c0.1,0.7,0.1,1.5,0.1,2.2c-0.2,4.1,0.3,7.9,5.2,9.1c-0.2,0.4-0.3,0.6-0.4,0.7c-3.8,1.5-5.2,4.2-4.7,8.2
			c0.3,2.7,0.1,5.5,0.1,8.2C357.8,216.9,359.1,218,363.8,216.9z M318,181.5c-1.1,4.9,1.5,10.1-2.6,13.8c3.9,4,1.5,9.2,2.6,13.7
			C320.9,205.5,321,185.8,318,181.5z M347.8,208.9c0.2,0.1,0.5,0.1,0.7,0.2c0.4-1.3,1-2.5,1.1-3.8c0.3-3.7,0.5-7.4,0.4-11.2
			c-0.1-3-0.3-6.1-0.9-9.1c-0.3-1.5-1.5-2.9-2.3-4.4c-0.2,0.1-0.5,0.3-0.7,0.4C348.6,190.2,347.3,199.6,347.8,208.9z"/>
		<path d="M399.1,216.7c3.9,0.9,5,0.1,5-3.8c0-7.7,0-15.4,0-23.1c0-1.8-0.2-3.7-0.6-5.4c-1.2-5.1-6.7-7-10.9-3.7
			c-2.6,2.1-3.8,5-3.8,8.3c0,8,0,15.9,0,23.9c0,3.9,1,4.8,5.5,3.8c-0.3,1.6-0.1,3.5-0.9,4.1c-1.3,1-3.3,1.8-4.9,1.5
			c-1.9-0.3-3.6,0-5.4-0.1c-4-0.1-8,0.1-12,0c-3-0.1-3.9-2.2-3-5.3c0.7,0.2,1.4,0.4,2.1,0.5c2.3,0.3,3.9-1.2,4-3.7c0.1-4,0-8,0-11.9
			c0-3.5-2.7-4.7-5.3-6.3c0.8-0.5,1.3-0.9,2-1.2c2.4-1.1,3.4-3,3.4-5.6c0-1.2,0-2.5,0-3.7c0-5.3-1.2-6.3-6.4-5.3
			c-2.1-2.8,1.3-6.7,4-7.7c0.2-0.1,0.5-0.2,0.7-0.2c3.8-0.2,7.5,0.2,11.3-1.7c2.9-1.4,4.9,0.8,5,4.2c0,1,0,2,0,3.7
			c1-1.1,1.5-1.8,2-2.4c5.5-6.3,13.6-7,19.8-4.6c4.8,1.9,6.8,6.1,7.5,11c0.3,2.1,0.6,4.3,0.4,6.4c-0.2,2.9,1,4.7,3.5,5.9
			c0.5,0.2,1,0.6,1.7,1c-0.8,0.5-1.4,0.9-2,1.2c-2.3,1.1-3.2,2.9-3.1,5.4c0.1,3.4,0,6.8,0,10.2c0,4.7,1.3,5.8,5.9,4.7
			c1.4,3.3-1,6.3-4.8,5.6c-2.5-0.5-4.9-0.2-7.4-0.1c-3.1,0.1-6.2-0.1-9.4,0C399.3,222.4,398,220.1,399.1,216.7z M378.9,208.9
			c3-3.4,2.8-24.6,0-27c-1,4.5,1.5,9.7-2.6,13.3C379.9,199.3,378,204.4,378.9,208.9z M407.7,180.6c-0.3,0.1-0.5,0.2-0.8,0.3
			c2.5,9.2,1.1,18.7,2,28.1c0.6-0.7,1.2-1.5,1.2-2.3c0-7.2,0.1-14.3-0.3-21.5C409.9,183.6,408.5,182.1,407.7,180.6z"/>
		<path d="M187.1,186.6c4.1-1.8,4.1-5.5,4.8-8.9c2-9.9,6.8-17.9,16.4-22c8.5-3.6,17.1-4,25.4,0.8c4.5,2.6,6.8,6.8,8.1,11.7
			c0.5,1.7,1.4,3.2,2.4,5.4c-0.9,0.4-2.2,1.4-3.6,1.5c-1.8,0.1-3.2,0.4-4.5,1.9c-1.5,1.8-3.7,2.4-6.3,2c0.3-1.4,0.6-2.7,1-4.2
			c-2.8-0.5-5.6-0.7-6.1-4.3c0.6-0.1,1.1-0.1,1.6-0.1c2.3,0,4.2-1,5-3.1c0.9-2.1-0.1-4.1-1.7-5.6c-3.4-3.2-7.5-3.7-11.9-2.5
			c-4.2,1.1-6.1,4.4-6.5,8.3c-0.4,4.4-0.5,9,0,13.4c0.2,2.1,2.3,3.9,3.7,6.1c-4.3,1.9-4.1,6.4-4,10.9c0.1,2.6,0,5.1,0,7.7
			c0.1,4.5,1.8,8.2,6.2,9.9c4.8,1.9,9.6,1.5,13.7-1.8c3.6-3,4.8-7.1,3.4-11.7c-0.4-1.5,0.1-2,1.3-2.3c3.1-0.9,5.8,1.1,6,4.5
			c0.4,5.4-1.9,9.6-5.9,13.1c-9.7,8.5-32,8.4-40.3-8.9c-2-4.1-2.9-8.8-3.9-13.3C190.9,192,190.2,188.9,187.1,186.6z M194.5,186.6
			c0.5,1.3,1.1,2.5,1.4,3.8c0.9,4.1,1.4,8.3,2.5,12.4c0.6,2.3,1.8,4.4,2.8,6.6c0.3-0.1,0.6-0.2,0.9-0.3c-4.3-13.8-4.1-27.7-0.7-41.7
			c-1,1.1-2,2.1-2.4,3.4c-1.1,4.1-2,8.2-3,12.3C195.6,184.3,195,185.5,194.5,186.6z"/>
		<path d="M761.9,216.8c1.1,3,0.3,4.8-2.6,5.4c-1.3,0.3-2.9,0.3-4.1-0.1c-1.7-0.5-3-0.5-4.7,0.1c-3,1.1-5.9-0.4-8.4-4.2
			c-4.8,5-10.8,5.2-17,4.1c-6-1.1-10.1-4.6-12.3-10.4c-0.7-2-2.3-3.6-3.5-5.3c1-1.4,2.6-2.9,3.3-4.8c2.3-6.2,7.1-8.3,13.2-8.8
			c3.6-0.2,7.1-0.4,10.6-1c3.9-0.8,4.4-1.8,4.4-5.6c0-2.1-0.1-4.1-0.4-6.2c-0.4-2.5-1.7-4.4-4.3-4.9c-2.8-0.6-5.7-0.7-8,1.4
			c-2.3,2.1-1.4,5.1,1.9,6.5c-0.2,2.8-2.1,3.4-4.5,3.4c0.2,2.3-1.9,3.6-4.6,2.6c-2.4-0.9-4.6-2.2-6.9-3.3c-0.4-0.2-0.7-0.7-0.8-0.8
			c0.9-2.1,1.8-3.9,2.6-5.7c2.3-5,6.7-7.3,11.5-8.7c5.5-1.6,11.2-1.6,16.8-0.3c7.5,1.8,11.3,6.4,11.6,14.1c0,0.8,0.1,1.7,0,2.5
			c-0.2,3.7,0.1,7.1,5.3,8.5c-4.9,1.7-5.5,4.9-5.3,8.6c0.2,2.8,0,5.6,0,8.5C755.9,216.5,757.8,217.9,761.9,216.8z M740.8,195.6
			c-1.9,0.5-3.5,1.1-5.2,1.5c-4.6,1-5.8,2-6.3,6.6c-0.3,2.5,0,5.1,0.5,7.6c0.7,3.3,3.4,5.1,6,4.9c2.6-0.3,4.8-2.5,4.9-5.7
			C741,205.5,740.8,200.6,740.8,195.6z M745.5,181.6c0,9.2,0,18.2,0,27.5C748.4,205.4,748.4,184.3,745.5,181.6z M722.4,197.9
			c-4.8,1.2-3.4,6.9-6.8,8.6c2.1,3.4,4.1,6.7,6,9.9c0.4-0.1,0.7-0.2,1.1-0.4C719.5,210,718.1,204,722.4,197.9z"/>
		<path d="M245.4,195.4c4.5-2,5.2-5.7,6.1-9.5c2.1-9.8,12.1-16.8,22.9-16.6c12.3,0.2,21.6,9.2,22.5,18.9c0.4,3.7,1.1,4.2,5.2,7.3
			c-4.6,1.6-5.1,5.5-5.9,9.4c-2.2,11.2-10,17.4-21.4,17.7c-8,0.2-15-1.9-19.4-8.9c-1.9-2.9-3.2-6.4-3.9-9.8
			C250.8,200.1,249.8,197.1,245.4,195.4z M281.2,196.4c0.1,0,0.1,0,0.2,0c0-2.9,0.1-5.8,0-8.7c-0.2-2.5-0.4-5.1-1.1-7.6
			c-0.9-2.9-3.3-4.4-6.3-4.3c-3,0.1-5.2,1.4-6.1,4.2c-0.6,1.9-1,4-1.1,6.1c-0.1,6.8-0.1,13.6,0,20.4c0,2,0.5,4.1,1.2,6
			c0.8,2.2,2.5,3.4,4.9,3.7c4.8,0.6,8-2.2,8.3-7.6C281.4,204.5,281.2,200.4,281.2,196.4z M253.6,195.7c3.3,3.7,2,9.7,6,13.8
			c-0.7-5.1-1.9-9.7-1.9-14.2c0-4.6,1.2-9.1,1.9-13.7c-1,0.5-1.6,1.2-1.9,2c-0.8,2.4-1.4,4.9-2.2,7.3
			C255.1,192.5,254.3,194,253.6,195.7z M286.1,181.6c0,9.2,0,18.3,0,27.7C289.2,205.3,289,184.2,286.1,181.6z"/>
		<path d="M427,195.5c4.6-2,5.4-5.6,6.2-9.2c1.9-8.5,10.5-15.9,19.3-16.7c9.7-0.9,18.2,3.7,21.9,12.2c0.9,2.1,1.1,4.5,1.7,6.7
			c0.4,1.4,0.6,2.8,1.2,4.1c1.1,2.4,0.1,4.4-2.8,4.8c-7.9,1.3-15.9,2.7-23.9,3.8c-2.1,0.3-3.1,0.9-2.7,3.1c0.5,2.6,0.6,5.6,1.9,7.8
			c3,5.2,12.5,6.1,16.7,1.7c0.9-1,1.7-2.6,1.7-3.9c-0.2-2.6,1.3-3.3,3.2-3.4c2.1-0.2,3.5,1,3.8,3.1c0.5,3.3-0.9,5.8-3.3,7.9
			c-3.6,3.1-7.9,4.7-12.5,5.1c-8.2,0.8-16-0.7-21.2-7.8c-2.3-3.1-3.8-7-4.8-10.7C432.5,200.4,431.8,197.1,427,195.5z M448.2,196
			c3.7-0.6,7.3-1.1,10.9-1.8c0.5-0.1,1.2-1.1,1.2-1.7c0.1-4,0.1-8-0.1-11.9c-0.2-3.4-3.1-5.5-6.4-4.9c-3.1,0.5-5.3,2.8-5.5,6.7
			C448,186.8,448.2,191.2,448.2,196z M440,209.3c0.3-0.1,0.6-0.2,0.9-0.3c-0.7-4.6-1.9-9.2-1.9-13.8c0-4.5,1.2-9.1,1.9-13.6
			c-0.4-0.1-0.7-0.2-1.1-0.3c-0.9,2.8-1.8,5.7-2.8,8.5c-0.7,2-1.4,3.9-2,5.6C436.8,199.9,438.4,204.6,440,209.3z M464.6,193.1
			c2.3-0.3,2.4-0.3,2.3-2.1c-0.1-2.5-0.4-4.9-0.8-7.4c-0.1-0.8-0.7-1.5-1.1-2.2c-0.2,0.1-0.3,0.1-0.5,0.2
			C464.6,185.4,464.6,189.2,464.6,193.1z"/>
		<path d="M690.2,216.8c0.7,3.7-0.6,5.5-4.3,5.7c-1,0.1-2.1,0-2.9-0.4c-1.8-0.8-3.4-0.2-5.1,0c-4.1,0.4-8.3,0.1-12.5,0.1
			c-3,0-3.7-1.8-3.2-5.3c0.6,0.1,1.2,0.3,1.8,0.4c2.4,0.4,4.2-0.8,4.3-3.2c0.1-4.2,0-8.5,0-12.7c0-3.2-2.7-4.3-4.9-5.7
			c0-0.2,0-0.4,0.1-0.5c4.6-3.4,6.3-8.4,4.4-13.7c-0.4-1-2-1.7-3.2-2.1c-0.8-0.3-1.9,0.2-2.9,0.3c-1.5-3,0.9-7.3,4.8-7.8
			c3.8-0.5,7.7,0.1,11.5-1.8c2.8-1.3,4.8,0.9,4.9,4.1c0.1,1.5,0,3,0.5,4.6c0.5-0.8,0.9-1.6,1.4-2.3c3.2-5,7.8-7.2,13.8-6.6
			c5.1,0.5,8.3,4.8,8.1,10.7c-0.1,2.1-0.3,4.1,1.6,5.7c0.2,0.2-0.2,2-0.8,2.3c-3.1,1.6-6.3,3.2-9.5,4.3c-2.2,0.8-3.3-0.4-2.9-2.8
			c-2.2-0.5-4.2-1.3-4.6-3.5c1.7-1.3,3.4-2.2,4.6-3.5c1.4-1.6,1.3-3.7-0.2-5.2c-1.5-1.5-3.5-1.2-5,0.2c-4.3,3.8-6.7,8.7-6.9,14.4
			c-0.2,6.3,0,12.6,0,18.9C683.2,216.8,684.9,218.1,690.2,216.8z M672.7,182.1c0,2.3,0,4.6,0,6.9c0,2.4,0,4.9-2.4,6.2
			c4.2,3.9,1.4,9.2,2.9,13.5C676,205.3,676,185.4,672.7,182.1z"/>
		<path d="M530.9,195.4c6.2-3.3,4.8-8.7,4.6-13.5c-0.1-3-2.1-3.9-6.2-3.1c-2.2-3.9,0.5-6.8,6.7-7.4c0.8-2.9,1.3-5.7,2.5-8.3
			c1.8-3.9,3.2-4.5,6.5-3.7c1.2-2.4,1.4-5.8,5.7-5.7c0,6,0,11.8,0,18.1c4,0,7.7-0.1,11.4,0c1.2,0,3-0.9,3.3,1.4c0.3,2-0.8,4-2.8,4.3
			c-2.5,0.4-5.1,0.3-7.7,0.4c-1.2,0-2.5,0-3.7,0c-0.2,0.4-0.4,0.6-0.4,0.8c0.1,10.6,0,21.2,0.3,31.8c0.2,5.2,4.5,7.6,8.3,5
			c2-1.3,2.6-3.3,2.6-5.6c0-3.3,0.7-4.1,3.4-4.2c2.2-0.1,4,1.6,3.8,4.3c-0.2,2-0.8,4.3-2,5.9c-4.3,5.9-10.5,7.2-17.3,6.4
			c-6-0.7-10.8-3.5-12.8-9.5c-0.9-2.8-1.3-5.8-1.4-8.8C535.7,200.6,535.9,197,530.9,195.4z M540.4,208.9c0.3,0.1,0.5,0.1,0.8,0.2
			c0.4-1.8,1.2-3.6,1.2-5.4c0-9.1-0.1-18.2-0.3-27.3c0-1.2-0.8-2.5-1.2-3.7c-0.3,0.1-0.5,0.1-0.8,0.2c0,5.5-0.1,11,0,16.6
			c0,2.3-0.3,4.3-2.4,5.4C541.9,199,539.2,204.3,540.4,208.9z"/>
		<path d="M480.8,195.4c4.2-2.1,5.3-5.5,5.9-9.2c1.6-9.1,10.1-15.9,19.7-16.4c5.9-0.3,11.2,0.8,15.6,5c2.6,2.5,4,5.6,4.4,9.2
			c0.2,1.5,0.9,3,1.5,5.1c0,0-0.6,1-1.2,1c-2.8,0.2-4.8,2.3-7.3,3.1c-1.7,0.6-3.7,0.1-6.1,0.1c0.7-1.4,1-2.1,1.4-2.9
			c-1.8-0.8-4.1-1-4.1-3.8c0.4-0.1,0.8-0.3,1.3-0.5c2.2-0.7,3.7-2,3.7-4.4c0-2.5-1.2-4.3-3.5-5.2c-4.6-1.9-9,0.3-10,5.1
			c-0.4,1.8-0.4,3.6-0.4,5.4c0,6.5-0.1,13.1,0,19.6c0.1,8.1,7.1,12.2,14.5,8.7c2.4-1.2,4-3,3.8-5.8c-0.1-2,1-3,2.5-3
			c1.4,0,3.2,0.7,3.9,1.7c1.4,2.1,0.8,4.5-0.5,6.6c-2.5,4.1-6.5,6.1-11,7.2c-14.3,3.5-26.4-4.7-28.4-19.2
			C486.2,199.2,484.4,197,480.8,195.4z M493.6,209.3c0.3-0.1,0.6-0.1,0.9-0.2c-0.7-4.6-1.8-9.2-1.8-13.8c0-4.6,1.2-9.2,1.9-13.7
			c-0.3-0.1-0.6-0.2-0.9-0.3c-0.8,2.3-1.7,4.6-2.5,7c-0.8,2.4-1.6,4.9-2.3,7.2C490.3,199.9,492,204.6,493.6,209.3z"/>
		<path d="M848.5,153.5c-0.8-3.5,0.7-5.7,4-5.5c3,0.2,5.9,0.4,8.7-0.8c0.4-0.2,1-0.1,1.5-0.1c4.1,0.2,8,1.4,12.2,1.1
			c2.7-0.2,3.8,2.2,3,5.3c-0.5-0.1-0.9-0.1-1.4-0.2c-2.5-0.6-3.9,0.1-4.3,2.7c-0.7,4.7-1.1,9.5-1.6,14.3c-0.8,8.1-1.6,16.1-2.5,24.2
			c-0.1,1.2-0.4,2.5-0.7,3.6c-0.6,1.8-1.9,3.3-3.8,2.9c-1.5-0.3-3.3-1.6-3.8-2.9c-0.9-2.3-1.1-5-1.4-7.5
			c-1.3-10.9-2.5-21.9-3.9-32.8C853.9,152.9,853.3,152.5,848.5,153.5z M859.8,155.8c-0.3,0.1-0.6,0.1-1,0.2
			c1.1,11.9,2.3,23.8,3.4,35.8c0.3,0,0.5-0.1,0.8-0.1C862.9,179.6,862.6,167.6,859.8,155.8z"/>
		<path d="M874.4,214.3c-1.3,1.5-2.8,3-4.1,4.7c-3.8,4.9-9.9,4.9-13.7-0.1c-1.3-1.7-2.7-3.2-4-4.7c1.2-1.5,2.7-3.3,4.1-5.1
			c3.6-4.6,10.6-4.4,13.9,0.3C871.8,211.3,873.2,212.9,874.4,214.3z M861.7,218.9c0-3.4,0-6.3,0-9.6c-1.5,1.7-2.8,3.3-4.3,5
			C858.9,216,860.2,217.4,861.7,218.9z"/>
	</g>
</g>
</svg>
