<?xml version="1.0" encoding="utf-8"?>
<!-- Generator: Adobe Illustrator 25.1.0, SVG Export Plug-In . SVG Version: 6.00 Build 0)  -->
<svg version="1.1" id="Layer_1" xmlns="http://www.w3.org/2000/svg" xmlns:xlink="http://www.w3.org/1999/xlink" x="0px" y="0px"
	 viewBox="0 0 793 185.2" style="enable-background:new 0 0 793 185.2;" xml:space="preserve">
<style type="text/css">
	.st0{fill:#032535;}
	.st1{fill:url(#SVGID_1_);}
</style>
<g>
</g>
<g>
	<path class="st0" d="M142.1,136.2c-6.8,8.3-15.1,14.9-24.8,19.8c-9.7,4.9-20.4,7.3-32.1,7.3c-10.1,0-19.6-1.8-28.4-5.5
		c-8.9-3.7-16.6-8.7-23.1-15.1c-6.6-6.4-11.7-13.8-15.5-22.4c-3.8-8.6-5.7-17.8-5.7-27.7s1.9-19.1,5.7-27.7
		c3.8-8.6,8.9-16.1,15.5-22.5C40.2,36,47.9,31,56.8,27.4c8.9-3.6,18.3-5.5,28.4-5.5c11.7,0,22.4,2.4,32.1,7.3
		c9.7,4.9,17.8,11.2,24.3,19.1l-18.2,18.7c-4.2-6-9.6-10.9-16.3-14.6c-6.6-3.7-13.9-5.5-21.9-5.5c-6.4,0-12.3,1.2-18,3.7
		c-5.6,2.4-10.5,5.7-14.7,9.9c-4.2,4.1-7.5,9-10,14.5c-2.4,5.5-3.7,11.4-3.7,17.6c0,6.1,1.2,12,3.7,17.5c2.4,5.5,5.8,10.3,10,14.5
		c4.2,4.1,9.1,7.4,14.7,9.9c5.6,2.4,11.6,3.7,18,3.7c8.4,0,15.8-1.9,22.3-5.7c6.5-3.8,11.9-8.8,16.2-15.1L142.1,136.2z"/>
</g>
<linearGradient id="SVGID_1_" gradientUnits="userSpaceOnUse" x1="83.5481" y1="92.6" x2="192.5567" y2="92.6">
	<stop  offset="0.2663" style="stop-color:#FF5D09"/>
	<stop  offset="0.7689" style="stop-color:#FFFFFF"/>
</linearGradient>
<polygon class="st1" points="183.1,-6.9 83.5,92.6 183.1,192.1 192.6,182.6 102.5,92.6 192.6,2.6 "/>
<g>
	<path class="st0" d="M289.6,92.5c0,9.8-1.9,19-5.7,27.6c-3.8,8.6-9,16.1-15.6,22.5c-6.6,6.4-14.2,11.4-23,15.1
		c-8.7,3.7-18,5.5-27.9,5.5c-9.9,0-19.2-1.8-28-5.5c-8.8-3.7-16.5-8.7-23.1-15.1c-6.6-6.4-11.8-13.8-15.6-22.4
		c-3.8-8.6-5.7-17.8-5.7-27.7s1.9-19.1,5.7-27.8c3.8-8.6,9-16.1,15.6-22.5c6.6-6.4,14.3-11.4,23.1-15c8.8-3.6,18.1-5.5,28-5.5
		c9.9,0,19.2,1.8,27.9,5.5c8.7,3.6,16.4,8.7,23,15.1c6.6,6.4,11.8,13.9,15.6,22.5C287.7,73.4,289.6,82.6,289.6,92.5z M263.2,92.5
		c0-6.2-1.2-12.1-3.6-17.6c-2.4-5.5-5.7-10.3-9.8-14.5c-4.2-4.1-9-7.4-14.6-9.9c-5.6-2.4-11.5-3.7-17.7-3.7
		c-6.4,0-12.3,1.2-17.9,3.7c-5.6,2.4-10.4,5.7-14.6,9.9c-4.2,4.1-7.4,9-9.8,14.5c-2.4,5.5-3.6,11.4-3.6,17.6c0,6.1,1.2,12,3.6,17.5
		c2.4,5.6,5.7,10.4,9.8,14.6c4.2,4.1,9,7.4,14.6,9.9c5.6,2.4,11.5,3.7,17.9,3.7c6.3,0,12.2-1.2,17.7-3.7c5.6-2.4,10.4-5.7,14.6-9.9
		c4.2-4.1,7.4-9,9.8-14.6C262,104.5,263.2,98.6,263.2,92.5z"/>
	<path class="st0" d="M412.6,160.6h-29.1l-9.7-31c-1-3.4-2.3-6.5-3.8-9.4c-1.5-2.8-3.4-5.3-5.5-7.3c-2.2-2-4.7-3.6-7.7-4.8
		c-3-1.1-6.5-1.7-10.6-1.7h-9.9v54.2h-26.1V24.6l53.7-0.2c5.8,0,11.2,1,16.2,3c5,2,9.3,4.7,12.9,8.3c3.6,3.5,6.5,7.7,8.5,12.4
		c2,4.8,3.1,9.9,3.1,15.5c0,4-0.6,7.8-1.9,11.6c-1.2,3.7-3,7.2-5.2,10.4c-2.3,3.2-4.9,6-8,8.4c-3.1,2.4-6.5,4.3-10.2,5.5
		c4.3,1.6,7.8,3.9,10.5,6.9c2.7,3,4.9,6.6,6.4,10.8c0.8,1.9,1.5,3.9,2.2,5.8c0.7,1.9,1.4,3.9,2.1,6c0.7,2.1,1.5,4.4,2.4,6.8
		c0.8,2.4,1.8,5.1,2.8,8.1c1.2,3.7,2.4,7,3.5,9.6C410.2,156.2,411.3,158.6,412.6,160.6z M378.2,65.4c0-3.2-0.6-6.1-1.8-8.7
		c-1.2-2.6-2.8-4.9-4.9-6.8c-2-1.9-4.5-3.4-7.2-4.5c-2.8-1.1-5.8-1.6-8.9-1.6h-19.1v42.4h19.1c3.2,0,6.2-0.5,8.9-1.4
		c2.8-1,5.2-2.4,7.2-4.2c2-1.8,3.7-4,4.9-6.6S378.2,68.6,378.2,65.4z"/>
	<path class="st0" d="M542.2,160.6h-25.9l-61.5-95.6v95.6h-25.9V24.4h29.6l57.7,88.9V24.4h25.9V160.6z"/>
	<path class="st0" d="M657.7,160.6h-89.9V24.6h89.9v21.8h-64v32.5h63.2v21.3h-63.2v37.5h64V160.6z"/>
	<path class="st0" d="M780.5,160.6h-29.1l-9.7-31c-1-3.4-2.3-6.5-3.8-9.4c-1.5-2.8-3.4-5.3-5.5-7.3c-2.2-2-4.7-3.6-7.7-4.8
		c-3-1.1-6.5-1.7-10.6-1.7h-9.9v54.2h-26.1V24.6l53.7-0.2c5.8,0,11.2,1,16.2,3c5,2,9.3,4.7,12.9,8.3c3.6,3.5,6.5,7.7,8.5,12.4
		c2,4.8,3.1,9.9,3.1,15.5c0,4-0.6,7.8-1.9,11.6c-1.2,3.7-3,7.2-5.2,10.4c-2.3,3.2-4.9,6-8,8.4c-3.1,2.4-6.5,4.3-10.2,5.5
		c4.3,1.6,7.8,3.9,10.5,6.9c2.7,3,4.9,6.6,6.4,10.8c0.8,1.9,1.5,3.9,2.2,5.8c0.7,1.9,1.4,3.9,2.1,6c0.7,2.1,1.5,4.4,2.4,6.8
		c0.8,2.4,1.8,5.1,2.8,8.1c1.2,3.7,2.4,7,3.5,9.6C778.1,156.2,779.2,158.6,780.5,160.6z M746.1,65.4c0-3.2-0.6-6.1-1.8-8.7
		c-1.2-2.6-2.8-4.9-4.9-6.8c-2-1.9-4.5-3.4-7.2-4.5c-2.8-1.1-5.8-1.6-8.9-1.6h-19.1v42.4h19.1c3.2,0,6.2-0.5,8.9-1.4
		c2.8-1,5.2-2.4,7.2-4.2c2-1.8,3.7-4,4.9-6.6S746.1,68.6,746.1,65.4z"/>
</g>
</svg>
