<?xml version="1.0" encoding="utf-8"?>
<!-- Generator: Adobe Illustrator 25.1.0, SVG Export Plug-In . SVG Version: 6.00 Build 0)  -->
<svg version="1.1" id="Layer_1" xmlns="http://www.w3.org/2000/svg" xmlns:xlink="http://www.w3.org/1999/xlink" x="0px" y="0px"
	 viewBox="0 0 205 251.2" style="enable-background:new 0 0 205 251.2;" xml:space="preserve">
<style type="text/css">
	.st0{fill:#032535;}
	.st1{fill:url(#SVGID_1_);}
</style>
<g>
	<path class="st0" d="M163.6,180.6c-8.6,10.5-19,18.8-31.3,24.9s-25.8,9.2-40.5,9.2c-12.8,0-24.7-2.3-35.9-7
		c-11.2-4.7-20.9-11-29.2-19c-8.3-8-14.8-17.4-19.6-28.3C2.4,149.7,0,138.1,0,125.6s2.4-24.1,7.2-34.9c4.8-10.8,11.3-20.3,19.6-28.4
		c8.3-8.1,18-14.4,29.2-19c11.2-4.6,23.1-6.9,35.9-6.9c14.8,0,28.3,3.1,40.5,9.2c12.3,6.2,22.5,14.2,30.6,24.1l-23,23.6
		c-5.3-7.6-12.1-13.7-20.5-18.4c-8.4-4.7-17.6-7-27.6-7c-8,0-15.6,1.5-22.7,4.6c-7.1,3.1-13.3,7.2-18.6,12.5
		c-5.3,5.2-9.5,11.3-12.6,18.3c-3.1,7-4.6,14.4-4.6,22.3c0,7.7,1.5,15.1,4.6,22c3.1,7,7.3,13,12.6,18.3c5.3,5.2,11.5,9.4,18.6,12.5
		c7.1,3.1,14.7,4.6,22.7,4.6c10.6,0,20-2.4,28.2-7.2c8.2-4.8,15-11.1,20.4-19L163.6,180.6z"/>
</g>
<linearGradient id="SVGID_1_" gradientUnits="userSpaceOnUse" x1="89.6826" y1="125.6056" x2="227.2819" y2="125.6056">
	<stop  offset="0.2663" style="stop-color:#FF5D09"/>
	<stop  offset="0.7689" style="stop-color:#FFFFFF"/>
</linearGradient>
<polygon class="st1" points="215.3,0 89.7,125.6 215.3,251.2 227.3,239.3 113.6,125.6 227.3,12 "/>
</svg>
