<?xml version="1.0" encoding="utf-8"?>
<!-- Generator: Adobe Illustrator 24.1.2, SVG Export Plug-In . SVG Version: 6.00 Build 0)  -->
<svg version="1.1" id="Capa_1" xmlns="http://www.w3.org/2000/svg" xmlns:xlink="http://www.w3.org/1999/xlink" x="0px" y="0px"
	 viewBox="0 0 534.4 128.9" style="enable-background:new 0 0 534.4 128.9;" xml:space="preserve">
<style type="text/css">
	.st0{fill:#005DE4;}
	.st1{fill:#FFFFFF;}
	.st2{fill:#7F7F7F;}
	.st3{fill:#595959;}
	.st4{fill:#3F3F3F;}
	.st5{fill:#132883;}
	.st6{fill:#BFCAF5;}
	.st7{fill:#8295EC;}
	.st8{fill:#4260E3;}
	.st9{fill:#E7EEFD;}
	.st10{fill:#C6DDFE;}
	.st11{fill:#8FBCFD;}
	.st12{fill:#445468;}
	.st13{fill:#D6DBE4;}
	.st14{fill:#ADB9CB;}
	.st15{fill:#8595B1;}
	.st16{fill:#575D6B;}
	.st17{fill:#B9BDC7;}
	.st18{fill:#979CA9;}
	.st19{fill:#DDDEE2;}
	.st20{fill:#AAAAAA;}
	.st21{fill:#F2F2F2;}
	.st22{fill:#D8D8D8;}
	.st23{fill:#BFBFBF;}
	.st24{opacity:0.5;}
</style>
<g>
	<g>
		<g>
			<path d="M2.6,109.1V19.6h56.6v16.5H20.1v22.1h34.9v16H20.2v34.9H2.6z"/>
		</g>
		<g>
			<path d="M127.4,78.1c0,19.1-14,33-32.6,33s-32.6-13.9-32.6-33c0-19.2,14-33,32.6-33S127.4,58.9,127.4,78.1z M110.6,78.1
				c0-11.7-7.6-17.7-15.8-17.7S79,66.3,79,78.1c0,11.6,7.6,17.7,15.8,17.7S110.6,89.8,110.6,78.1z"/>
		</g>
		<g>
			<path d="M172.8,63.7c-1.9-0.4-3.5-0.5-5.1-0.5c-8.6,0-16,4.2-16,17.6v28.4h-16.8V47h16.3v9.2c3.8-8.2,12.4-9.7,17.7-9.7
				c1.4,0,2.7,0.1,3.9,0.3V63.7z"/>
		</g>
		<g>
			<path d="M195,73.4l15.3-2.3c3.5-0.5,4.7-2.3,4.7-4.4c0-4.4-3.4-8.1-10.5-8.1c-7.3,0-11.4,4.7-11.9,10.1l-14.9-3.2
				c1-9.7,10-20.5,26.7-20.5c19.7,0,27,11.1,27,23.6v30.6c0,3.3,0.4,7.7,0.8,9.9h-15.4c-0.4-1.6-0.6-5.1-0.6-7.5
				c-3.2,4.9-9.1,9.2-18.3,9.2c-13.3,0-21.3-9-21.3-18.7C176.4,81.1,184.7,74.9,195,73.4z M215,84v-2.8l-14,2.1
				c-4.3,0.6-7.7,3-7.7,7.8c0,3.7,2.7,7.2,8.1,7.2C208.4,98.4,215,95,215,84z"/>
		</g>
		<g>
			<path d="M302.8,97.5c0,4.2,0.3,8.7,0.5,11.2h-16c-0.3-1.3-0.6-4.3-0.6-7.2c-2.8,4.9-9.1,8.7-17.4,8.7
				c-17.7,0-30.3-13.9-30.3-32.7c0-18.2,12.3-32.5,29.8-32.5c10.7,0,15.8,4.4,17.6,7.7V17.3h16.5V97.5z M271.2,95.3
				c8.6,0,15.3-6.6,15.3-17.8c0-11.1-6.7-17.3-15.3-17.3c-8.6,0-15.4,6.3-15.4,17.4S262.4,95.3,271.2,95.3z"/>
		</g>
		<g>
			<path d="M329.5,73.4l15.3-2.3c3.5-0.5,4.7-2.3,4.7-4.4c0-4.4-3.4-8.1-10.5-8.1c-7.3,0-11.4,4.7-11.9,10.1l-14.9-3.2
				c1-9.7,10-20.5,26.7-20.5c19.7,0,27,11.1,27,23.6v30.6c0,3.3,0.4,7.7,0.8,9.9h-15.4c-0.4-1.6-0.6-5.1-0.6-7.5
				c-3.2,4.9-9.1,9.2-18.3,9.2c-13.3,0-21.3-9-21.3-18.7C310.9,81.1,319.1,74.9,329.5,73.4z M349.5,84v-2.8l-14,2.1
				c-4.3,0.6-7.7,3-7.7,7.8c0,3.7,2.7,7.2,8.1,7.2C342.9,98.4,349.5,95,349.5,84z"/>
		</g>
	</g>
	<g>
		<g>
			<circle class="st15" cx="423.3" cy="19.8" r="19.1"/>
		</g>
		<g>
			<circle class="st15" cx="512.6" cy="19.8" r="19.1"/>
		</g>
		<g>
			<path class="st15" d="M468,45.3c-10.6,0-19.1,8.6-19.1,19.1c0,0,0,0,0,0l0,0V74c0,8.8-7.1,16-16,16h-9.5c0,0-0.1,0-0.1,0
				c-10.6,0-19.1,8.6-19.1,19.1s8.6,19.1,19.1,19.1c10.6,0,19.1-8.6,19.1-19.1c0,0,0-0.1,0-0.1v-9.5c0-8.8,7.1-16,16-16h9.6l0,0
				c0,0,0,0,0,0c10.6,0,19.1-8.6,19.1-19.1S478.5,45.3,468,45.3z"/>
		</g>
		<g>
			<path class="st15" d="M468,0.6c-10.6,0-19.1,8.6-19.1,19.1l0,0v9.6c0,8.8-7.1,16-16,16h-9.6l0,0c-10.6,0-19.1,8.6-19.1,19.1
				c0,10.6,8.6,19.1,19.1,19.1c10.6,0,19.1-8.6,19.1-19.1c0,0,0-0.1,0-0.1v-9.5c0-8.8,7.1-16,16-16h9.5c0,0,0.1,0,0.1,0
				c10.6,0,19.1-8.6,19.1-19.1S478.5,0.6,468,0.6z"/>
		</g>
	</g>
</g>
</svg>
