<?xml version="1.0" encoding="utf-8"?>
<!-- Generator: Adobe Illustrator 24.1.0, SVG Export Plug-In . SVG Version: 6.00 Build 0)  -->
<svg version="1.1" id="Layer_1" xmlns="http://www.w3.org/2000/svg" xmlns:xlink="http://www.w3.org/1999/xlink" x="0px" y="0px"
	 viewBox="0 0 1920 1080" style="enable-background:new 0 0 1920 1080;" xml:space="preserve">
<style type="text/css">
	.st0{fill:#030302;}
	.st1{fill:#040303;}
	.st2{fill:#F4883C;}
	.st3{fill:#F59443;}
	.st4{fill:#F6BF5C;}
	.st5{fill:#F5A54D;}
	.st6{fill:#F6C35E;}
	.st7{fill:#F6AC51;}
	.st8{fill:#F59E49;}
	.st9{fill:#F59C48;}
	.st10{fill:#F6B456;}
	.st11{fill:#F6C25D;}
	.st12{fill:#F5A74E;}
	.st13{fill:#F6BD5B;}
	.st14{fill:#F49041;}
	.st15{fill:#F5A44C;}
	.st16{fill:#F6B254;}
	.st17{fill:#F6BC5A;}
	.st18{fill:#F6B757;}
	.st19{fill:#F59644;}
	.st20{fill:#F6AE52;}
	.st21{fill:#F6B958;}
	.st22{fill:#F59745;}
	.st23{fill:#F48F40;}
	.st24{fill:#F48A3D;}
	.st25{fill:#F4873C;}
	.st26{fill:#F6A84F;}
	.st27{fill:#F5A24B;}
	.st28{fill:#F59A47;}
</style>
<g>
	<path class="st0" d="M1151.5,569.2c-0.8,4.4-1.7,8.8-2.5,13.1c-1,5.6-1.9,11.1-2.9,16.7c-1.4,7.8-2.8,15.5-4.2,23.3
		c-0.9,5.1-1.9,10.1-2.9,15.2c-1.4,7.6-2.7,15.2-4.1,22.8c-0.9,5.1-1.9,10.1-2.8,15.2c-1.4,7.3-2.7,14.7-4.2,22
		c-1.3,6.8-2.8,13.5-4.1,20.3c-1.3,6.5-2.6,13-3.9,19.5c-2,10.2-3.8,20.4-6.1,30.5c-0.4,1.8-2.9,3.8-4.9,4.3
		c-10.7,2.8-21.4,5.2-32.2,7.7c-12.7,3-25.4,5.9-38,8.9c-6.5,1.5-13.1,3.1-19.6,4.4c-2.3,0.5-4.9,0.5-7.2,0.1
		c-1.8-0.3-3.5-1.8-3.3-4c0.2-3.5,0.5-7.1,1.2-10.6c2.6-13,5.3-26,8-39.1c1.8-8.5,3.7-17,5.5-25.6c2.1-10.2,4.1-20.5,6.2-30.8
		c1.4-6.8,2.8-13.7,4.2-20.5c1.4-6.8,2.6-13.7,3.9-20.6c1.4-6.8,2.8-13.7,4.2-20.5c1.3-6.8,2.5-13.5,3.8-20.3
		c1.8-9.3,3.6-18.6,5.4-27.9c1.4-7.3,2.7-14.7,4.1-22c1-5.1,2-10.1,2.9-15.2c1.4-7.8,2.7-15.5,4.1-23.3c1-5.5,1.9-11,2.9-16.5
		c1.4-8,2.8-16.1,4.2-24.1c0.9-5.3,1.9-10.6,2.8-16c1.4-8.3,2.8-16.6,4.1-24.8c1-6.3,2.1-12.6,3-19c1-6.7,1.9-13.5,2.9-20.3
		c1.4-9.5,2.9-19.1,4.1-28.6c1.4-10.6,2.7-21.3,4-31.9c0.9-7.9,1.6-15.9,2.5-23.8c0.2-1.8,2.8-4.1,4.7-4c4.1,0.1,8.1,0.5,12.2,0.5
		c15.1-0.1,30.2-0.2,45.2-0.6c15.6-0.4,31.1-1.1,46.7-1.6c3.4-0.1,5.5,1.8,6.2,5.2c2.5,12.9,5.2,25.8,7.7,38.6
		c2.1,11,4.2,22,6.3,33.1c1.8,9.2,3.6,18.4,5.3,27.7c2.2,11.9,4.1,23.7,6.3,35.6c2.1,11.5,4.4,23,6.6,34.5
		c1.7,8.8,3.3,17.6,4.9,26.5c0.3,1.5,0.7,2.9,1.4,4.5c0.3-1.3,0.7-2.6,1-3.8c1.6-7.9,3.2-15.8,4.7-23.7c2.1-10.8,4.1-21.7,6.2-32.5
		c1.7-8.4,3.6-16.7,5.3-25.1c1.3-6.4,2.5-12.9,3.8-19.3c1.2-6.1,2.6-12.2,3.9-18.3c1.4-6.5,2.8-13,4.2-19.5c1.9-9,3.8-18,5.7-27.1
		c2.1-10.2,4.2-20.5,6.2-30.8c0.5-2.5,3-5,5.6-5.3c16.7-2,33.4-4,50.1-6c7.5-0.9,15-2,22.5-2.9c2.5-0.3,5-0.3,7.5-0.2
		c2,0,4.5,2.7,4.2,4.7c-0.7,5.2-1.4,10.4-2.4,15.5c-1.6,8.5-3.5,16.9-5.3,25.4c-0.1,0.3-0.1,0.6-0.1,1.3c4.1-1.6,7.9-3,11.8-4.5
		c10.8-4.1,21.6-8.2,32.3-12.3c9.5-3.6,18.9-7.3,28.4-10.9c8.4-3.2,16.7-6.6,25.2-9.5c2.9-1,6.5-1.8,8.9,1.5
		c0.7,0.9,1.2,2.2,1.2,3.3c0,45.3-0.1,90.7-0.2,136c0,11.1,0,22.1,0.3,33.3c1.9-5.4,3.9-10.8,5.8-16.2c5.3-14.7,10.6-29.4,15.9-44.1
		c4.9-13.8,9.7-27.6,14.5-41.4c4.5-13,9.1-26,13.5-39.1c2.5-7.4,4.9-14.8,7.4-22.2c0.7-2.3,3.3-4.5,5.7-4.2c5,0.6,10,1.4,15,2.4
		c6.5,1.3,13,2.7,19.4,4.2c6.1,1.3,12.1,2.7,18.2,4c6.2,1.4,12.5,2.7,18.7,4.1s12.5,2.8,18.7,4.2c3.7,0.8,7.5,1.5,11.1,2.6
		c5.5,1.5,6.1,5.4,4.2,9.7c-7.4,15.9-15.3,31.6-22.9,47.4c-9.7,19.9-19.4,39.8-29.1,59.6c-7.9,16.1-15.8,32.3-23.6,48.4
		c-13.1,27.1-26.2,54.3-39.3,81.4c-10.7,22.2-21.4,44.5-31.9,66.9c-1.4,3-1.9,6.5-2.7,9.8c-2.9,13-5.6,26-8.8,38.9
		c-3.1,12.6-6.5,25.1-9.9,37.6c-2.8,10.4-5.7,20.7-8.5,31c-0.9,3.2-3.4,5.5-6.6,5.9c-19.7,2.5-39.5,4.9-59.2,7.4
		c-10.9,1.4-21.8,3-32.6,4.3c-6.2,0.7-12.4,1.2-18.6,1.6c-2.9,0.2-5.3-2.2-4.9-5.1c0.7-5.7,1.7-11.3,2.9-16.9
		c2.8-12.9,5.9-25.8,8.9-38.7c2.2-9.4,4.4-18.8,6.6-28.2c2.1-9.3,4.2-18.7,6.3-28c1.3-5.9,2.8-11.8,4.2-17.7
		c0.4-1.7,0.6-3.5,0.5-5.2c-0.2-15.9-0.2-31.8-0.7-47.7c-0.7-23.7-1.4-47.5-2.5-71.2c-0.8-18.3-2.2-36.6-3.4-54.9
		c-1.1-16.9-2.3-33.9-3.5-50.8c-1-14.5-2-28.9-3-43.4c0-0.5-0.1-0.9-0.5-1.4c-0.6,2.7-1.3,5.4-1.9,8.2c-2.4,11.1-4.7,22.3-7,33.4
		c-2.4,11.4-4.7,22.8-7,34.2c-2.5,12.5-4.8,24.9-7.3,37.4c-2.2,10.8-4.5,21.6-6.6,32.5c-2.5,12.9-4.9,25.8-7.3,38.7
		c-2.2,11.3-4.5,22.7-6.6,34c-1.8,9.5-3.3,19-4.9,28.5c-1.8,10-3.7,19.9-5.4,29.9c-1.4,8.2-2.7,16.4-4,24.6
		c-0.9,5.6-1.9,11.2-2.8,16.7c-1.4,8.9-2.8,17.9-4.2,26.9c-1.1,7.1-2.2,14.1-3.2,21.2c-0.9,6.3-1.7,12.7-2.4,19.1
		c-0.5,4.2-2.2,5.8-6.3,6.6c-8.8,1.6-17.6,3.2-26.4,5.2c-12.2,2.7-24.3,5.5-36.3,8.5c-12.8,3.2-25.5,6.7-38.2,10.2
		c-3.3,0.9-7,0.5-8.7-2.1c-1-1.4-1.2-3.5-1.4-5.3c-1.1-13.4-2-26.9-3.1-40.3c-1.7-19.7-3.4-39.5-5.3-59.2
		c-1.4-14.4-2.9-28.8-4.6-43.2c-1.9-16.9-4-33.7-6.2-50.5c-0.8-6-2-12-3.1-17.9C1151.7,569.3,1151.6,569.2,1151.5,569.2z
		 M1064.1,561c-1.3,7.3-2.7,14.7-4,22c-1.7,9-3.4,18-5,27c-2.4,12-4.7,24-7.1,36c-0.3,1.4-0.7,2.9-1,4.3c-1,4.8-2.1,9.6-3,14.5
		c-1.4,6.8-2.7,13.7-4,20.5c-0.7,3.7-1.3,7.5-2,11.2c-1.5,6.7-3.1,13.4-4.5,20.2c-2.1,10.3-4.1,20.7-6.3,31
		c-2.2,10.5-4.4,21-6.6,31.4c-0.2,0.8-0.2,1.6-0.3,2.6c1-0.1,1.7-0.2,2.4-0.3c7.5-1.8,15-3.6,22.5-5.4c19-4.4,38-8.7,57-13.1
		c0.8-0.2,1.8-1.1,1.9-1.8c1.5-7.2,2.9-14.5,4.3-21.7s2.9-14.3,4.3-21.5c1.3-6.4,2.5-12.9,3.8-19.3c0.4-2,0.9-4,1.3-6.1
		c1.4-7.2,2.7-14.3,4-21.5c1.5-8,2.9-16,4.3-24c1.5-8,3.1-16,4.6-24c0.8-4.2,1.4-8.3,2.1-12.5c1.2-6,2.4-12,3.5-18
		c0.6-3.2,1-6.4,1.5-9.5c1.3-7.2,2.5-14.3,3.8-21.5c1.1-6,2.2-12,3.3-18c0.4-1.8,0.7-3.5,1.1-5.3c3.2-4.1,7.4-4.3,10.8-0.6
		c0.6,2.8,1.2,5.6,1.8,8.4c1.4,8.2,2.8,16.3,4.3,24.5c0.5,3.2,1,6.4,1.4,9.6c1,7.8,2,15.6,3,23.4c0.6,4.5,1.3,9,2,13.5
		c0.9,8.2,1.8,16.4,2.7,24.5c0.8,7.8,1.6,15.6,2.4,23.3c0.6,5.9,1.3,11.7,1.9,17.6c0.9,10.5,1.7,21.1,2.6,31.6
		c1.5,17.9,2.9,35.8,4.4,53.7c0.2,2.7,0.4,5.4,0.6,8.2c32.3-8,64.3-16.5,97-22.3c0.5-4,0.8-7.9,1.4-11.8c1.9-13.1,3.7-26.2,5.7-39.3
		c1-6.6,2.1-13.1,3.1-19.7c2.5-14.8,5-29.6,7.5-44.4c1.2-6.9,2.3-13.7,3.5-20.6c0.4-1.7,0.7-3.4,1.1-5.1c1.3-7.3,2.5-14.6,3.8-21.8
		s2.7-14.4,4.1-21.5c0.6-3.4,1.3-6.8,1.9-10.2c0.9-4.9,1.8-9.9,2.7-14.8c1.4-7.1,2.8-14.1,4.2-21.2c0.2-1.1,0.2-2.2,0.3-3.3
		c0.2-1,0.5-2,0.7-3c2.4-11.6,4.8-23.2,7.2-34.9c0.6-2.4,1.2-4.8,1.7-7.3c2.7-13.4,5.3-26.9,8-40.3c1.3-6.6,2.7-13.1,4-19.7
		c1.3-6.4,2.7-12.8,4-19.2c1.1-5.2,2-10.4,3-15.6c0.4-1.8,0.9-3.5,1.3-5.3c2.2-9.9,4.4-19.8,6.6-29.7c1.8-8.5,3.6-17.1,5.4-25.6
		c1-4.9,2-9.9,3.1-15.1c-23,2.8-45.6,5.5-68.4,8.3c-4.5,22-8.9,44-13.4,66.1c-1.7,7.7-3.5,15.5-5.2,23.2
		c-2.3,10.7-4.4,21.4-6.6,32.1c-0.6,2.6-1.2,5.1-1.7,7.7c-1.7,8.5-3.4,17.1-5.1,25.6c-1,5.2-2,10.5-3,15.7c-1.9,9.7-3.9,19.3-5.7,29
		c-0.5,2.6-0.9,5.3-1.3,8c-0.4,1.9-0.6,3.9-1.2,5.8c-1.4,4.7-0.3,10.2-4.9,13.8c-1.9,0-3.7,0-5.6,0c-2.1-2-3.7-4.3-4-7.3
		c-0.1-1.3-0.7-2.6-1-3.9c-0.8-4.1-1.6-8.2-2.3-12.3c-0.7-3.4-1.3-6.9-2-10.3c-0.2-1.4-0.4-2.8-0.7-4.2c-1.1-5.4-2.3-10.9-3.4-16.3
		c-1.2-6.3-2.3-12.5-3.6-18.8c-0.4-2.1-1.1-4.2-1.6-6.2c-0.3-1.9-0.6-3.8-0.9-5.7c-0.9-5.8-1.8-11.6-2.7-17.5
		c-0.3-1.6-0.5-3.3-0.9-4.9c-1.1-5.8-2.3-11.7-3.5-17.5c-0.1-1.1-0.1-2.2-0.3-3.2c-1.4-7.9-2.8-15.8-4.4-23.7
		c-0.6-3.1-1.5-6.1-2.3-9.1c-0.5-2.9-1-5.9-1.6-8.8c-1.1-6.4-2.2-12.9-3.4-19.3c-1.3-7.1-2.8-14.2-4.2-21.3
		c-1.1-5.7-2.2-11.4-3.3-16.8c-31.9,0.8-63.4,1.5-95.2,2.3c0,0.1-0.3,0.6-0.4,1.2c-0.7,7.1-1.3,14.1-2.1,21.2
		c-0.5,5.2-1.2,10.3-1.8,15.5c-0.5,3.8-1.1,7.7-1.6,11.5c-0.6,4.7-1.3,9.3-1.9,14c-1.7,11.5-3.3,23-5,34.5c-0.7,4.4-1.4,8.9-2,13.3
		c-0.5,3.7-1,7.4-1.5,11.2c-0.1,0.6-0.3,1.3-0.4,1.9c-1.1,6.7-2.1,13.4-3.2,20.1c-1.6,8.8-3.3,17.7-4.9,26.5
		c-1.2,6.7-2.3,13.3-3.5,20c-0.6,3.6-1.2,7.3-1.8,10.9c-0.6,3.7-1.1,7.4-1.7,11.1c-0.9,4.7-1.8,9.5-2.6,14.2
		c-0.1,0.4-0.3,0.8-0.4,1.1C1066.3,549.2,1065.2,555.1,1064.1,561z M1462.6,741.5c2-7,3.9-14,5.9-21c1.3-4.5,2.7-9.1,3.8-13.6
		c0.9-3.4,1.4-6.9,2.1-10.4c1.1-3.8,2.3-7.6,3.2-11.5c1.4-5.6,2.6-11.3,3.9-17c0.7-2.6,1.4-5.1,1.9-7.7c1.1-5.4,2.1-10.9,3.1-16.3
		c0.5-1.4,1-2.8,1.6-4.2c4-8.6,8-17.2,12.1-25.8c1.8-3.7,3.6-7.5,5.4-11.2c5.1-10.6,10.2-21.2,15.3-31.9c4.5-9.2,8.9-18.5,13.4-27.7
		c2.8-5.8,5.5-11.7,8.3-17.5c0.3-0.5,0.7-0.9,0.9-1.4c4.2-8.7,8.4-17.5,12.6-26.2c3-6.3,6-12.5,9.1-18.8c0.2-0.3,0.4-0.5,0.6-0.8
		c6.2-12.7,12.4-25.3,18.6-38c3.2-6.6,6.3-13.3,9.5-20c0.3-0.5,0.7-1,0.9-1.5c9.9-20.4,19.9-40.8,29.8-61.2
		c2.8-5.7,5.6-11.5,8.4-17.3c-29.9-6.6-59.6-13.1-89.2-19.6c-11.6,33.1-23.1,66.1-34.6,99.1c-1.6,4.4-3.1,8.7-4.7,13.1
		c-4.2,11.5-8.4,23-12.5,34.6c-1.4,4-2.7,8.1-4,12.1c-1.3,3.2-2.7,6.4-3.9,9.6c-2.2,5.5-4.4,10.9-6.5,16.5c-1.1,2.9-4.2,4.9-7.4,4.2
		c-1.6-0.3-3.7-3.4-3.7-5.6c0-5.7-0.1-11.5-0.1-17.2c0-11,0.1-22,0.1-33c0.1-7.6,0.2-15.2,0.2-22.9c0-4.7,0-9.4,0-14.1
		c0.1-6.8,0.1-13.6,0.2-20.4c0-5.9-0.1-11.8-0.2-17.6c0.1-0.4,0.2-0.8,0.2-1.2c0-20.5,0-41,0-61.5c0-0.5-0.2-1.1-0.3-1.7
		c-6.7,2.5-13.2,5-19.8,7.5c-11.6,4.4-23.1,8.9-34.6,13.3c-13,5-26,10-39.1,14.9c-1.6,0.6-1.8,1.3-1.6,2.7c0.8,8.7,1.5,17.3,2.2,26
		c0.8,12.5,1.6,25,2.4,37.5c0,1.3,0,2.7,0.1,4c0.8,11.2,1.6,22.3,2.4,33.5c0,1.2,0,2.3,0,3.5c0.6,9.5,1.3,19,2,28.5
		c0.5,7.4,0.9,14.9,1.4,22.3c0.3,5.1,0.7,10.1,1,15.2c0.5,15.7,1,31.3,1.5,47c0.2,5.7,0.4,11.4,0.5,17.1c0.2,8.6,0.4,17.2,0.5,25.9
		c0.1,10.3,0.3,20.7,0.4,31c-0.4,2.6-0.7,5.2-1.2,7.8c-0.9,4.8-2,9.6-2.9,14.4c-0.9,3.4-1.8,6.8-2.6,10.3c-1.4,6-2.7,12-4.1,18
		c-1.8,7.8-3.5,15.6-5.3,23.4c-0.4,1.7-0.8,3.4-1.2,5.1c-1.3,6-2.7,12-4,18c-2.2,9.4-4.5,18.7-6.7,28.3c0.7,0,1.1-0.1,1.5-0.1
		c9.6-1.2,19.3-2.4,28.9-3.6c11.5-1.4,22.9-2.8,34.4-4.2c11.2-1.4,22.4-2.9,33.7-4.2c1.3-0.2,2-0.6,2.3-2
		C1459.9,751.3,1461.3,746.4,1462.6,741.5z"/>
	<path class="st1" d="M646.5,561.8c21,49.1,41.8,98,62.6,146.6c-0.2-1.8-0.2-4-0.7-6.2c-4.8-24.8-4.5-49.9-2.9-74.9
		c0.8-12.7,3.2-25.2,5.4-37.8c1.7-10.1,3.8-20.1,6.3-30c2.7-10.7,6-21.3,9.4-31.8c6.5-19.9,14.3-39.3,23.2-58.3
		c10.2-21.7,21.9-42.5,35.4-62.3c13.7-20,29.2-38.4,46.2-55.6c12.7-12.9,27-24,42.4-33.5c13.5-8.3,27.8-15.1,43.2-19
		c16.9-4.2,34-5.4,51.3-3.9c9.2,0.8,18,2.8,26.7,6c15.5,5.8,27.4,16.1,37,29c9.9,13.2,16,28.3,19.2,44.5c2.1,10.7,4.3,21.4,5.4,32.2
		c2.1,21.2,2.3,42.6,1.2,63.9c-0.6,11.1-2.3,22.2-4,33.2c-1.7,10.9-3.8,21.8-6.4,32.5c-2.8,11.6-6.3,23.1-9.7,34.5
		c-5.2,17.7-12.1,34.7-20.3,51.2c-6.7,13.4-14.4,26.4-22,39.4c-10.8,18.5-24.3,35.2-38.7,51c-9.9,10.8-20.2,21.2-31.8,30.3
		c-6.8,5.4-13.3,11.2-20.4,15.9C895,765,885,770.8,875,776.3c-11.3,6.3-23.5,10.5-36,13.6c-7.1,1.7-14.6,2.1-21.9,2.8
		c-4,0.4-8.1,0.5-12.2,0.5c-9.2,0-18.5-0.8-27.3-3.3c-9.7-2.8-19-6.9-27-13.4c-10.2-8.2-19-17.7-25.8-28.9c-1.6-2.6-2.9-5.3-4.5-8.3
		c-0.2,4-2.4,5.7-5.5,6.8c-17.2,6.1-34.5,12.2-51.7,18.2c-14.5,5.1-29,10.3-43.6,15.4c-4,1.4-7.8,0.6-9.9-2.3
		c-1-1.4-1.4-3.1-1.9-4.8c-5-16.4-10.1-32.9-15-49.4c-3.8-12.8-7.4-25.7-11.1-38.6c-3.7-12.9-7.5-25.7-11.1-38.6
		c-2.3-8.3-4.3-16.7-6.4-25.1c-1.4-5.6-2.8-11.2-4.4-17.6c-0.5,2.5-1,4.4-1.4,6.3c-2.1,11.3-4.1,22.6-6.2,33.8
		c-2.5,13.1-5.1,26.1-7.7,39.2c-2.5,13-5,26-7.4,38.9c-2.4,12.4-4.7,24.8-7.2,37.2c-0.6,3.2-2.6,5.2-5.9,6
		c-25.6,6.6-51.3,13.2-76.9,19.8c-8,2.1-15.9,4.3-23.9,6.1c-2.6,0.6-5.7,1.5-7.8-1.5c-0.6-0.9-1.3-2.1-1.2-3
		c0.7-5.8,1.5-11.5,2.5-17.2c1.7-9.3,3.6-18.6,5.5-27.9c2.2-10.6,4.4-21.1,6.6-31.7c2.1-10.5,4.1-21,6.2-31.5
		c1.7-8.6,3.6-17.2,5.3-25.9c1.4-6.8,2.5-13.7,3.9-20.6c1.8-9.3,3.6-18.6,5.4-27.9c1.4-7.1,2.7-14.2,4-21.3
		c1.3-6.8,2.6-13.5,3.9-20.3c1.1-5.6,2.1-11.3,3.1-16.9c1-5.2,1.9-10.5,2.9-15.7c1.4-7.9,2.8-15.9,4.2-23.8
		c0.9-5.4,1.9-10.8,2.9-16.2c1.4-7.8,2.8-15.5,4.1-23.3c1-5.6,1.9-11.1,2.8-16.7c1.4-8.7,2.8-17.4,4.2-26.1
		c0.9-5.8,1.8-11.5,2.6-17.3c1.1-7.1,2.2-14.1,3.2-21.2c1.5-10.2,3-20.4,4.3-30.6c0.9-7.1,1.6-14.2,2.3-21.3
		c0.3-2.9,2.2-4.7,4.6-5.3c15.2-3.9,30.4-7.9,45.8-11c15.7-3.2,31.6-5.4,47.5-7.7c7.2-1,14.4-1.3,21.7-1.6
		c16.7-0.7,33.4-1.6,50.2-1.9c11.7-0.2,23.3,0.5,34.8,3.1c17.3,3.8,31.8,12.2,42.5,26.4c5.5,7.2,8.9,15.5,10.8,24.4
		c2.5,12,3.4,24.1,3.1,36.3c-0.2,8.5-0.9,17.1-2.6,25.5c-4.9,24-15,45.9-28.1,66.4c-11.4,17.8-24.7,34.1-41,47.7
		c-7.6,6.3-15.4,12.4-23.3,18.4C655.5,556.6,650.7,559.2,646.5,561.8z M776.3,442.5c-3.5,6.7-7,13.3-10.5,20
		c-3.7,7.9-7.4,15.8-11.1,23.7c-3.2,7.8-6.4,15.5-9.6,23.3c-3.1,8.7-6.2,17.3-9.3,26c-2.3,7.2-4.6,14.3-6.7,21.6
		c-1.2,4.2-2,8.6-3.1,12.9c-0.3,1-0.6,2-0.8,3.1c-1.6,7.8-3.2,15.6-4.8,23.4c-0.1,0.2-0.3,0.4-0.4,0.6c-1.1,8.1-2.2,16.2-3.3,24.3
		c-0.5,8.2-1.1,16.4-1.6,24.5c0,6.3,0,12.7,0,19c0.1,11.6,1.5,23.1,3.8,34.5c0.7,3.1,1.1,6.2,2.1,9.2c2.5,7.7,4.7,15.5,7.9,22.8
		c4.8,11,11.2,21,19.9,29.3c6.4,6.2,13.5,11.4,21.7,14.9c12.9,5.5,26.4,7.9,40.5,7.3c13.3-0.5,26-3.3,38.4-7.6
		c16.9-5.9,32.6-14.4,47.3-24.5c18.3-12.5,34.8-27.1,50-43.2c2.2-2.3,4.1-4.8,6.1-7.2c0.2-0.2,0.4-0.3,0.6-0.5
		c11-12.9,21.4-26.2,30.4-40.6c3.9-6.3,7.6-12.7,11.3-19c6.6-11.6,12.9-23.3,18-35.7c2.4-5.9,4.7-11.8,7.1-17.7
		c3.8-11.2,7.6-22.4,11.3-33.5c2-7.2,4.1-14.4,5.9-21.6c1.1-4.4,1.8-8.9,2.6-13.4c0.8-3.6,1.7-7.1,2.4-10.7c1-5.6,2-11.1,2.7-16.7
		c0.8-6.2,1.3-12.4,1.9-18.6c1.8-11.8,1.1-23.7,1-35.5c-0.5-7.2-1-14.3-1.5-21.5c-0.4-4.6-0.8-9.3-1.4-13.9c-0.4-3.5-0.8-7-1.5-10.5
		c-0.5-2.9-1.4-5.8-2.1-8.7c-0.2-0.8-0.3-1.6-0.5-2.3c-2.1-7.4-3.7-14.9-6.5-22c-2.5-6.4-6.1-12.3-9.5-18.3
		c-5-8.7-11.9-15.6-20.2-21.1c-8.2-5.3-17.2-9.1-26.8-11.2c-9.1-2-18.4-3.3-27.7-2.4c-6,0.5-12,0.8-17.8,2
		c-7.9,1.6-15.8,3.4-23.3,6.2c-12.5,4.6-24.4,10.6-35.4,18.3c-8.9,6.3-17.8,12.6-26,19.6c-7.1,6-13.3,13-19.8,19.7
		c-3.8,4-7.3,8.3-11,12.5c-2.2,2.8-4.6,5.6-6.7,8.5c-5.5,7.4-10.9,14.9-16.3,22.4c-3.2,4.9-6.5,9.9-9.7,14.8
		C781.6,433.6,778.9,438.1,776.3,442.5z M483,481c-0.2,0.4-0.5,0.9-0.5,1.3c-1,5.4-1.9,10.8-2.9,16.2c-0.1,0.8-0.3,1.6-0.4,2.4
		c-0.9,5.2-1.8,10.4-2.6,15.6c-1.2,6.7-2.4,13.4-3.6,20.2c-0.5,2.9-0.9,5.9-1.4,8.8c-1.2,6.1-2.4,12.2-3.5,18.3
		c-1.3,7.1-2.7,14.1-4,21.2c-0.3,1.6-0.5,3.2-0.9,4.8c-2.2,11.2-4.3,22.4-6.5,33.6c-1.3,6.9-2.5,13.7-3.8,20.6
		c-2,10.5-4.1,20.9-6.1,31.4c-0.2,0.8-0.5,1.6-0.7,2.4c-0.9,4.8-1.8,9.6-2.8,14.4c-1.7,8.5-3.6,17.1-5.3,25.6
		c-2.1,10.5-4.1,21-6.2,31.5c-1.8,9-3.7,17.9-5.5,26.9c-0.2,0.9-0.2,1.7-0.4,2.8c12.8-3.3,25.3-6.5,37.8-9.7
		c17.1-4.4,34.1-8.9,51.3-13.2c3.2-0.8,5.6-1.7,5.4-5.5c0-1,0.5-2.1,0.7-3.2c2.1-11.4,4.1-22.7,6.3-34.1c2.4-12.6,5-25.3,7.5-37.9
		c0.9-4.6,1.8-9.1,2.7-13.7c1.4-7.3,2.9-14.7,4.2-22c1-5.3,1.8-10.6,2.8-15.9c1.9-9.7,3.8-19.4,5.5-29.1c0.4-2.4,1.8-4.1,3.6-5.1
		c2.2-1.1,4.7-1.7,7.1-2.1c5-0.7,7.6,1,8.4,6.3c0.3,1.9,0.4,3.8,0.9,5.7c1.9,7.8,3.8,15.6,5.8,23.4c0.3,1.1,0.5,2.2,0.8,3.4
		c2,7.3,4,14.7,6,22c0.1,0.6,0.2,1.3,0.4,1.9c1.4,4.9,2.8,9.9,4.2,14.8c1.9,6.3,3.8,12.5,5.7,18.8c0.8,2.9,1.5,5.8,2.3,8.6
		c3,10.3,5.9,20.6,9,30.9c2.8,9.5,5.7,18.9,8.6,28.4c1.7,5.5,3.4,11,5.2,16.7c30.1-10.6,60.1-21.2,90-31.7c-0.1-0.6-0.2-0.9-0.3-1.2
		c-4.7-11.6-9.3-23.3-14.1-34.9c-2.5-6.1-5.2-12-7.8-18c-0.2-0.7-0.4-1.4-0.7-2.1c-1.8-4.2-3.5-8.3-5.3-12.5
		c-2.9-6.9-5.8-13.8-8.7-20.7c-0.2-0.8-0.4-1.6-0.7-2.3c-1.9-4.6-3.7-9.2-5.7-13.8c-1.4-3.2-3-6.3-4.6-9.4
		c-1.4-3.4-2.8-6.9-4.2-10.3c-1.7-4-3.5-8-5.2-12c-2.2-4.9-4.5-9.9-6.7-14.8c-3.1-7-6.3-14-9.4-21c-1.5-3.4-1.2-5.6,1.4-8.1
		c0.9-0.9,2-1.7,3.1-2.4c3.2-2.1,6.5-4.1,9.7-6.1c0.8-0.4,1.7-0.8,2.4-1.3c10.4-6.9,20.2-14.3,29.3-22.8c2.5-2.3,4.9-4.7,7.3-7.1
		c9-9.5,16.7-20,24.5-30.5c7.5-11.7,14.4-23.9,19.6-36.8c2.3-5.7,4.1-11.5,6.2-17.3c0.8-2.5,1.8-5,2.4-7.6c2.2-8.9,4-18,4-27.2
		c0-7.4-0.6-14.9-1-22.3c-0.8-6.5-2-13-4.2-19.2c-3.2-8.7-7.8-16.3-14.8-22.4c-8.8-7.6-19.4-11.5-30.4-14.2
		c-9.8-2.4-19.9-3.3-30-3.1c-24.4,0.3-48.8,1.2-73,4.2c-9.7,1.2-19.5,2.6-29.2,4.3c-9.8,1.7-19.6,3.7-29.3,6
		c-9.1,2.2-18.1,4.9-27.1,7.4c-0.6,0.2-1.4,1-1.6,1.6c-0.4,1.8-0.5,3.6-0.7,5.4c-0.5,4.7-0.9,9.4-1.4,14.1c-0.6,5.7-1.4,11.3-2,17
		c-1.2,7.4-2.4,14.8-3.5,22.2c-1,6.8-2,13.6-2.9,20.3c-0.2,1.6-0.3,3.3-0.6,4.9c-1.1,6.3-2.3,12.7-3.3,19c-0.5,3.3-0.8,6.7-1.2,10.1
		c-1.2,6.5-2.4,13-3.5,19.5C483.9,474.7,483.5,477.8,483,481z"/>
	<path class="st0" d="M476,309.4c1.6,0.7,3.4,1.3,4.8,2.3c0.8,0.6,1.3,2,1.2,2.9c-0.7,5.7-1.4,11.4-2.5,17
		c-2.1,11.6-4.4,23.2-6.7,34.8c-2.2,10.8-4.5,21.7-6.6,32.5c-2.2,11-4.1,22.1-6.3,33.1c-2.1,10.7-4.3,21.3-6.4,32
		c-1.8,9-3.4,18-5.1,26.9c-1.7,9-3.5,17.9-5.3,26.9c-1.4,7.1-2.7,14.2-4.1,21.3c-1.3,6.9-2.8,13.7-4.1,20.5c-1.4,7-2.6,14.1-4,21.1
		c-1.7,8.7-3.4,17.4-5.2,26.2c-1.4,7.3-2.8,14.5-4.2,21.8c-1.4,7.2-2.8,14.4-4.2,21.5c-1.3,6.9-2.6,13.9-3.9,20.8
		c-1.4,7.1-2.7,14.2-4.1,21.3c-1.8,9.2-3.5,18.5-5.3,27.7c-1.4,7.5-2.8,15-4.1,22.6c-1.3,7.4-2.6,14.9-4,22.3
		c-0.5,2.9-1,5.9-1.7,8.8c-0.6,2.7-3.2,4.5-5.9,4.7c-9.9,0.7-19.8,1.4-29.6,2.3c-7.8,0.7-15.6,1.6-23.3,2.6
		c-8.1,1-16.2,2.2-24.3,3.2c-9.6,1.2-19.1,2.4-28.7,3.3c-3,0.3-4.8-2-5-5c-0.3-5.3,1.8-10.1,3-15.1c2.5-9.9,5.1-19.8,7.6-29.7
		c2.2-8.7,4.4-17.4,6.5-26.1c1.8-7.5,3.4-15.1,5.1-22.6c1.8-7.9,3.5-15.7,5.3-23.6c1.4-6.4,2.7-12.8,4.1-19.3
		c1.4-6.4,2.8-12.8,4.1-19.2c1-4.6,1.9-9.1,2.8-13.7c1.4-7.2,2.9-14.5,4.3-21.8c1.3-6.9,2.6-13.7,3.9-20.6c1-5.2,2.1-10.4,3.1-15.7
		c0.9-4.9,1.8-9.8,2.8-14.7c1.4-6.8,2.8-13.7,4.2-20.5c1.4-6.8,2.6-13.7,3.9-20.6c0.9-5,1.9-10,2.8-15c1-5.3,2-10.6,3.1-15.9
		c1.4-7.2,2.8-14.3,4.2-21.5c1-5.2,1.9-10.5,2.8-15.7c1.4-7.3,2.8-14.5,4.2-21.8c1-5.1,1.8-10.1,2.8-15.2c1.4-7.3,2.8-14.5,4.2-21.8
		c1-5.5,1.9-11,2.8-16.5c1.4-8,2.8-16,4.2-24.1c0.2-1.2,0.4-2.5,0.5-3.7c0.5-3.1,2.9-5.4,5.9-5.8c17.9-2.7,35.7-5.5,53.6-8.2
		c8.6-1.3,17.3-2.5,25.9-3.8c5.6-0.9,11.1-1.8,16.7-2.7c1.3-0.2,2.7-0.2,4-0.3C475.8,309.7,475.9,309.6,476,309.4z M430.4,524.5
		c0.3-1,0.8-2,1-3c1.1-5.2,2.1-10.4,3-15.6c0.9-4.8,1.7-9.6,2.6-14.4c0.5-2.6,1-5.2,1.5-7.8c2.6-12.9,5.1-25.7,7.7-38.6
		c0.9-4.4,1.8-8.8,2.6-13.2c1.4-7.2,2.8-14.3,4.2-21.5c1-5.3,1.9-10.6,2.9-15.9c2.3-11.1,4.6-22.1,6.9-33.2
		c2.3-11.3,4.4-22.7,6.6-34c0.4-2,0.7-4,1.1-5.9c-2.6,0.3-4.9,0.5-7.1,0.8c-8.6,1.4-17.2,2.9-25.8,4.2c-18.8,2.9-37.5,5.7-56.3,8.6
		c-0.7,0.1-1.5,1.1-1.7,1.8c-0.8,3.7-1.4,7.3-2,11c-0.9,5.3-1.8,10.6-2.7,15.9c-0.9,5.2-1.8,10.4-2.7,15.6
		c-0.8,4.5-1.6,8.9-2.3,13.4c-0.5,2-1,4-1.4,6c-1,5.2-2,10.4-3,15.6c-1,5.1-2,10.2-2.9,15.3c-1,5.3-1.8,10.6-2.8,15.8
		c-0.6,3.2-1.3,6.5-1.9,9.7c-1.3,6.6-2.6,13.2-3.9,19.9c-1,5.3-1.9,10.6-2.9,16c-2.2,11.2-4.3,22.3-6.5,33.5c-1,4.9-2,9.8-3,14.7
		c-1,5.1-1.9,10.2-2.8,15.3c-0.4,1.8-0.9,3.5-1.2,5.3c-1.3,6.8-2.5,13.6-3.8,20.4c-1.2,6.3-2.3,12.6-3.5,19
		c-1.4,6.9-2.9,13.7-4.3,20.6c-1.4,6.8-2.8,13.6-4.2,20.4c-0.9,4.6-1.9,9.2-2.8,13.8c-1.2,5.1-2.4,10.2-3.5,15.4
		c-1.4,6.4-2.8,12.8-4.1,19.3c-1.4,6.5-2.7,13-4.1,19.5c-5.9,23.4-11.7,46.9-17.7,70.6c31.7-4.1,63-9,94.9-10.5
		c1.3-7.3,2.7-14.7,4-22c1.4-7.7,2.8-15.4,4.2-23.1c0.8-4.7,1.6-9.5,2.5-14.2c1.3-6.6,2.6-13.2,3.9-19.8c1.4-7.1,2.8-14.2,4.1-21.3
		c0.9-4.6,1.7-9.3,2.5-13.9c0.8-4.1,1.7-8.1,2.5-12.2c1.4-7.3,2.8-14.5,4.2-21.8c1.3-6.7,2.5-13.4,3.8-20.1
		c2.9-15.1,5.8-30.3,8.8-45.4c0.2-0.5,0.4-1.1,0.5-1.6c1.2-6.1,2.4-12.1,3.6-18.2C429.5,531.3,429.9,527.9,430.4,524.5z"/>
	<path class="st2" d="M1291.5,683c-1.1,6.6-2.2,13.1-3.1,19.7c-1.9,13.1-3.8,26.2-5.7,39.3c-0.5,3.9-0.9,7.8-1.4,11.8
		c-32.7,5.8-64.7,14.3-97,22.3c-0.2-2.8-0.4-5.5-0.6-8.2c-1.5-17.9-2.9-35.8-4.4-53.7c-0.9-10.5-1.7-21.1-2.6-31.6
		c2.6,0.9,5.1,1.3,8,1.1c4.7-0.3,9.4-0.1,14.1-0.1c2.8,0,5.5-0.1,8.3,0c2.4,0.1,4.7,0.4,7.1,0.4c3.7,0,7.4-0.6,11-0.3
		c5.3,0.4,10.5,0.7,15.6-0.5c0.3-0.1,0.7-0.2,1,0c4.1,2.5,8.4-1.1,12.9,0.6c3.7,1.4,8.4,0.3,12.7,0.3c3.4,0,6.9-1.4,10.3,0
		c0.2,0.1,0.5,0.1,0.7,0c1.9-1.1,3.6-1.5,5.8-0.2c0.8,0.5,2.3-0.5,3.5-0.6C1288.9,683,1290.2,683,1291.5,683z"/>
	<path class="st3" d="M1291.5,683c-1.3,0-2.6,0-3.9,0.1c-1.2,0.1-2.7,1.1-3.5,0.6c-2.1-1.3-3.9-0.8-5.8,0.2c-0.2,0.1-0.5,0.1-0.7,0
		c-3.4-1.4-6.9,0-10.3,0c-4.3,0-8.9,1.1-12.7-0.3c-4.5-1.7-8.8,1.9-12.9-0.6c-0.2-0.1-0.7-0.1-1,0c-5.2,1.3-10.4,0.9-15.6,0.5
		c-3.7-0.3-7.4,0.3-11,0.3c-2.4,0-4.7-0.3-7.1-0.4c-2.8-0.1-5.5,0-8.3,0c-4.7,0-9.4-0.2-14.1,0.1c-2.8,0.2-5.4-0.2-8-1.1
		c-0.6-5.9-1.3-11.7-1.9-17.6c-0.8-7.8-1.6-15.6-2.4-23.3c-0.9-8.2-1.8-16.4-2.7-24.5c6,0,12.1,0,18.1,0c1.5,0,2.9,0.1,4.4,0
		c2.4-0.1,4.9-0.8,7.1-0.3c4.3,1,8.4-0.5,12.6-0.1c2.1,0.2,4.4-1.8,5.7,0.2c5.7,0,10.8,0,16,0c0.8-0.1,1.6,0.4,2.5,0.4
		c2.9,0.1,5.9,0,8.8-0.1c3.7-0.1,7.6-1.2,11.1-0.3c3.3,0.8,6.2,0,9.3,0c2.2,0,4.4,0.6,6.7,0.6c2.9-0.1,5.8-0.6,8.7-0.9
		c0.3,0,0.6,0.2,1,0.2c2.2,0.2,4.5,0.6,6.7,0.7c4.7,0.1,9.6-2.3,14.2,0.6c-1.2,6.9-2.3,13.7-3.5,20.6
		C1296.4,653.4,1293.9,668.2,1291.5,683z"/>
	<path class="st4" d="M1509.2,420.2c11.5-33,23-66,34.6-99.1c29.6,6.5,59.3,13,89.2,19.6c-2.8,5.8-5.7,11.5-8.4,17.3
		c-9.9,20.4-19.9,40.8-29.8,61.2c-0.3,0.5-0.6,1-0.9,1.5c-1.5,0-3.1-0.1-4.6-0.1c-2.2,0.1-4.4,0.2-6.6,0.3c-2.4,0.2-4.8,0.5-7.2,0.6
		c-0.8,0-1.7-0.5-2.5-0.8c-0.6-0.2-1.3-0.8-1.8-0.6c-3.3,1.1-6.4,1.1-9.8,0.1c-1.8-0.5-3.9,0.4-5.9,0.5c-0.5,0-1-0.3-1.5-0.5
		c-0.4-0.2-1.1-0.7-1.3-0.6c-2,1.6-4.2,0.4-6.3,0.5c-3.8,0.1-7.5,1.1-11.4,0.5c-3.8-0.6-7.7-0.5-11.6-0.4c-4.1,0.1-8.3,0.7-12.4,1
		C1510.4,421.2,1509.8,420.6,1509.2,420.2z"/>
	<path class="st5" d="M1542.6,525.8c-2.7,5.8-5.5,11.7-8.3,17.5c-4.4,9.3-8.9,18.5-13.4,27.7c-2.7,0.1-5.6,0.9-8.1,0.2
		c-2-0.6-3.5-0.5-5.4-0.2c-4.4,0.5-9,0.5-13.4,0.6c-2.6,0-5.1-0.4-7.7-0.4c-1.2,0-2.6,0.9-3.4,0.5c-3.6-1.7-7.3,0-11-0.3
		c-3.5-0.2-6.9,0.2-10.5-0.4c-3.5-0.6-7.3,0-11,0.3c-1.9,0.1-3.8,1.1-5.5,0.7c-3.2-0.6-6.2-0.7-9.4-0.5c-1.7,0.2-3.5-0.2-5.3-0.3
		c-5.1-0.1-10.1-0.1-15.2-0.1c-0.2,0-0.5,0.2-0.7,0.3c-0.9,0.1-1.9,0.2-2.8,0.2c-4.6,0-9.2,0-13.7-0.1c-4.4-0.1-8.8-0.3-13.2-0.4
		c-0.5-15.7-1-31.3-1.5-47c2.5,0.5,5.1,1,7.6,1.4c0.5,0.1,1-0.1,1.5-0.2c1.3-0.1,2.6-0.3,3.8-0.2c2.7,0.1,5.3,0.3,8,0.4
		c0.2,0,0.3-0.1,0.5-0.1c2,0,4-0.1,6-0.1c0.8,0,1.6,0.3,2.4,0.2c3-0.3,5.9-0.7,8.9-0.9c2-0.1,4.1,0.4,6.2,0.4c1.7,0,3.5-0.4,5.2-0.3
		c3.3,0.1,6.7,0.7,10,0.7c6,0,12,0,18-0.4c5-0.3,10.2,1.2,15.1-0.9c0.2-0.1,0.5-0.1,0.7,0c3.9,1.8,7.9,0.5,11.9,0.6
		c2.1,0,4.2,0.1,6.3,0.2c1.6,0.1,3.3,0.8,4.9,0.5c2-0.4,3.8-1,6.1-0.6c3.6,0.6,7.5,0.2,11.2,0.2c5.8,0,11.5,0,17.3,0
		c1.5,0,3.1,0.2,4.3-0.3C1540.7,523.9,1541.7,524.2,1542.6,525.8z"/>
	<path class="st6" d="M1094.6,378.5c0.6-4.7,1.3-9.3,1.9-14c0.5-3.8,1.1-7.7,1.6-11.5c0.7-5.2,1.3-10.3,1.8-15.5
		c0.7-7.1,1.4-14.1,2.1-21.2c0.1-0.5,0.3-1.1,0.4-1.2c31.8-0.8,63.3-1.5,95.2-2.3c1.1,5.4,2.2,11.1,3.3,16.8
		c1.4,7.1,2.9,14.2,4.2,21.3c1.2,6.4,2.3,12.9,3.4,19.3c0.5,2.9,1,5.9,1.6,8.8c-1.5,0.1-3,0.3-4.5,0.4c-0.7,0.1-1.3,0-2,0
		c-2.4,0-4.7,0.1-7.1,0.2c-0.6,0-1.6,0.4-1.8,0.1c-1.3-1.7-2.9-0.7-4.4-0.7c-1.5,0.1-3.1,1.4-4.4-0.4c-0.1-0.2-0.9-0.2-1.2,0
		c-3.5,1.9-6.9,0.2-10.4,0.1c-1.8,0-3.6-0.3-5.4-0.2c-3.2,0.2-6.4,0.7-9.6,0.9c-1,0.1-1.9-0.3-2.9-0.3c-3.1,0-6.2-0.1-9.3,0
		c-0.9,0-1.8,0.2-2.7,0.3c-0.6,0.1-1.2,0.2-1.8,0.2c-1.6-0.1-3.1-0.4-4.7-0.6c-3.1-0.3-6.1-0.7-9.2-0.9c-0.5,0-1,0.2-1.4,0.3
		c-2.6,0.4-5.2,1.1-7.8,1.1c-3,0-6.1-0.8-9.1-0.8c-2.9,0-5.7,0.7-8.6,1c-1.5,0.1-3.1-0.1-4.6-0.3
		C1096.3,379.2,1095.4,378.8,1094.6,378.5z"/>
	<path class="st7" d="M1542.6,525.8c-0.9-1.5-1.9-1.9-3.7-1.1c-1.2,0.6-2.9,0.3-4.3,0.3c-5.8,0-11.5,0-17.3,0
		c-3.7,0-7.6,0.4-11.2-0.2c-2.3-0.4-4.1,0.2-6.1,0.6c-1.5,0.3-3.2-0.4-4.9-0.5c-2.1-0.1-4.2-0.2-6.3-0.2c-4-0.1-8,1.2-11.9-0.6
		c-0.2-0.1-0.5-0.1-0.7,0c-4.9,2.1-10.1,0.5-15.1,0.9c-6,0.4-12,0.4-18,0.4c-3.3,0-6.7-0.6-10-0.7c-1.7-0.1-3.4,0.4-5.2,0.3
		c-2.1,0-4.1-0.5-6.2-0.4c-3,0.1-5.9,0.6-8.9,0.9c-0.8,0.1-1.6-0.2-2.4-0.2c-2,0-4,0-6,0.1c-0.2,0-0.3,0.1-0.5,0.1
		c-2.7-0.1-5.3-0.3-8-0.4c-1.3,0-2.6,0.1-3.8,0.2c-0.5,0-1,0.3-1.5,0.2c-2.5-0.4-5.1-0.9-7.6-1.4c-0.3-5.1-0.7-10.1-1-15.2
		c-0.5-7.4-0.9-14.9-1.4-22.3c2.3,0.2,4.7,0.3,7,0.6c5.3,0.9,10.6,1.1,15.9,0c1.5-0.3,3.1,0.1,4.7,0.2c1.3,0.1,2.6,0.2,3.9,0.2
		c2.8,0,5.6,0,8.4,0c0.9,0,1.8-0.2,2.7-0.3c2.1-0.2,4.3-0.7,6.4-0.6c3.1,0.1,6.1,0.6,9.2,0.8c1.2,0.1,2.5-0.4,3.7-0.4
		c2.8,0,5.7,0.9,8.3,0.3c5.3-1.3,10.5,1,15.7,0.2c0,5.7,0.1,11.5,0.1,17.2c0,2.2,2.1,5.3,3.7,5.6c3.2,0.6,6.3-1.3,7.4-4.2
		c2-5.5,4.3-11,6.5-16.5c1.3-3.2,2.6-6.4,3.9-9.6c1.2-0.2,2.4-0.4,3.7-0.5c4.1-0.2,8.2-0.4,12.3-0.5c1.5,0,3,0.1,4.5,0.2
		c2.9,0.2,5.8,0.5,8.8,0.6c4.3,0,8.5-0.2,12.8-0.3c2.7-0.1,5.4-0.1,8.1-0.1c2.3,0,4.7-0.1,7-0.1c4.7,0,9.3-0.1,14-0.1
		c2,0,4,0.1,6.1,0.1c-3,6.3-6.1,12.5-9.1,18.8c-4.2,8.7-8.4,17.5-12.6,26.2C1543.3,524.8,1542.9,525.3,1542.6,525.8z"/>
	<path class="st8" d="M1302.4,618c-4.6-2.8-9.5-0.5-14.2-0.6c-2.2,0-4.5-0.4-6.7-0.7c-0.3,0-0.7-0.2-1-0.2c-2.9,0.3-5.8,0.8-8.7,0.9
		c-2.2,0.1-4.4-0.5-6.7-0.6c-3.1,0-6,0.7-9.3,0c-3.5-0.8-7.4,0.2-11.1,0.3c-2.9,0.1-5.9,0.2-8.8,0.1c-0.9,0-1.7-0.5-2.5-0.4
		c-5.2,0-10.3,0-16,0c-1.3-2-3.6,0.1-5.7-0.2c-4.2-0.5-8.4,1.1-12.6,0.1c-2.2-0.5-4.8,0.2-7.1,0.3c-1.5,0.1-2.9,0-4.4,0
		c-6,0-12.1,0-18.1,0c-0.7-4.5-1.4-9-2-13.5c-1-7.8-2-15.6-3-23.4c-0.4-3.2-0.9-6.4-1.4-9.6c4.1-0.6,8.3,1.6,12.4-0.4
		c0.3-0.1,0.8,0.2,1.2,0.2c3.5,0.2,7,0.5,10.5,0.5c4,0.1,8.1-0.1,12.1-0.2c0.1,0,0.2,0.1,0.2,0.1c2.1-0.1,4.2-0.4,6.3-0.1
		c2.8,0.4,5.6-1.4,8.5,0.2c1.3,0.7,3.3,1,4.6,0.5c1.7-0.7,3.1-0.9,4.6,0.1c0.2,0.1,0.7,0,1-0.1c3.5-1.2,7.1-1.3,10.7-0.7
		c1,0.1,2.1,0.7,2.9,0.4c4.5-1.6,9,0.4,13.6-0.1c3.2-0.3,6.4-0.5,9.6-0.6c0.9,0,1.7,0.2,2.6,0.3s1.9,0.2,2.8,0.2
		c2,0,4.1-0.5,5.8,0.1c1.8,0.6,3.2,1.1,4.8-0.3c0.4-0.4,1.3-0.5,1.9-0.4c1.9,0.2,3.9,1.2,5.6,0.8c5.2-1.1,10.4,0.1,15.6-0.4
		c3.7-0.3,7.5-0.7,11.2-1c-1.4,7.2-2.8,14.3-4.1,21.5c-1.3,7.3-2.5,14.6-3.8,21.8C1303.2,614.6,1302.8,616.3,1302.4,618z"/>
	<path class="st2" d="M1116.6,698.5c-1.3,6.4-2.5,12.9-3.8,19.3c-1.4,7.2-2.9,14.3-4.3,21.5s-2.8,14.5-4.3,21.7
		c-0.2,0.7-1.2,1.6-1.9,1.8c-19,4.4-38,8.8-57,13.1c-7.5,1.7-15,3.6-22.5,5.4c-0.7,0.2-1.4,0.2-2.4,0.3c0.1-1,0.1-1.8,0.3-2.6
		c2.2-10.5,4.4-21,6.6-31.4c2.1-10.3,4.1-20.7,6.3-31c1.4-6.7,3-13.5,4.5-20.2c1.4,0.5,2.7,1.2,4.1,1.5c3.1,0.5,6.1-1,9.4-0.2
		c2.3,0.5,5-0.4,7.7,0.1c3,0.6,6.1-0.5,9.3-0.2c3.5,0.4,7.1-0.3,10.6,0.7c0.7,0.2,1.6-0.3,2.4-0.4c0.7-0.1,1.4-0.5,2.2-0.4
		c4.3,0.3,8.5,0.7,12.8,0.9c1.5,0.1,3-0.4,4.4-0.4c3.1,0,6.3,0.9,9.1,0.1C1112.5,697.4,1114.5,697.9,1116.6,698.5z"/>
	<path class="st9" d="M1384.5,571c4.4,0.2,8.8,0.4,13.2,0.4c4.6,0.1,9.2,0.1,13.7,0.1c0.9,0,1.9-0.1,2.8-0.2c0.2,0,0.5-0.3,0.7-0.3
		c5.1,0,10.1,0,15.2,0.1c1.8,0,3.5,0.4,5.3,0.3c3.2-0.3,6.2-0.2,9.4,0.5c1.7,0.3,3.7-0.6,5.5-0.7c3.7-0.2,7.5-0.9,11-0.3
		c3.6,0.7,7,0.2,10.5,0.4c3.6,0.3,7.3-1.5,11,0.3c0.9,0.4,2.3-0.5,3.4-0.5c2.6,0,5.1,0.4,7.7,0.4c4.5,0,9-0.1,13.4-0.6
		c1.9-0.2,3.5-0.3,5.4,0.2c2.5,0.7,5.4,0,8.1-0.2c-5.1,10.6-10.2,21.2-15.3,31.9c-1.8,3.7-3.6,7.5-5.4,11.2
		c-2.9,0.1-5.9,0.1-8.8,0.2c-5.9,0.1-11.9,0.2-17.8,0.2c-3.3,0-6.7-0.8-9.9-0.1c-4,0.9-8.1-1.1-11.8,1c-0.2,0.1-0.5-0.1-0.7-0.2
		c-3.4-0.2-6.8-0.6-10.2-0.6c-6.6-0.1-13.2-0.2-19.7,0c-4.1,0.1-8.1,0.7-12.3,0.2c-3.1-0.3-6.4-0.5-9.8,0c-4.4,0.7-9.1-0.4-13.6-0.8
		c-0.2-8.6-0.3-17.2-0.5-25.9C1384.9,582.4,1384.7,576.7,1384.5,571z"/>
	<path class="st10" d="M1565.2,479.4c-2-0.1-4-0.2-6.1-0.1c-4.7,0-9.3,0.1-14,0.1c-2.3,0-4.7,0.1-7,0.1c-2.7,0-5.4,0-8.1,0.1
		c-4.3,0.1-8.5,0.3-12.8,0.3c-2.9,0-5.8-0.4-8.8-0.6c-1.5-0.1-3-0.2-4.5-0.2c-4.1,0.1-8.2,0.3-12.3,0.5c-1.2,0.1-2.5,0.3-3.7,0.5
		c1.3-4.1,2.6-8.1,4-12.1c4.1-11.5,8.4-23.1,12.5-34.6c1.6-4.4,3.1-8.7,4.7-13.1c0.6,0.3,1.2,1,1.7,1c4.1-0.3,8.3-0.8,12.4-1
		c3.9-0.1,7.8-0.2,11.6,0.4c3.9,0.6,7.6-0.4,11.4-0.5c2.1-0.1,4.3,1.1,6.3-0.5c0.2-0.1,0.8,0.4,1.3,0.6s1,0.5,1.5,0.5
		c2-0.2,4.2-1.1,5.9-0.5c3.4,1,6.5,1.1,9.8-0.1c0.5-0.2,1.2,0.4,1.8,0.6c0.8,0.3,1.7,0.8,2.5,0.8c2.4-0.1,4.8-0.4,7.2-0.6
		c2.2-0.2,4.4-0.3,6.6-0.3c1.5,0,3.1,0,4.6,0.1c-3.2,6.7-6.3,13.3-9.5,20c-6.2,12.7-12.4,25.3-18.6,38
		C1565.6,478.9,1565.4,479.1,1565.2,479.4z"/>
	<path class="st6" d="M1283.6,378.7c4.5-22,8.9-44,13.4-66.1c22.8-2.8,45.4-5.5,68.4-8.3c-1.1,5.3-2.1,10.2-3.1,15.1
		c-1.8,8.5-3.5,17.1-5.4,25.6c-2.1,9.9-4.4,19.8-6.6,29.7c-0.4,1.8-0.9,3.5-1.3,5.3c-4-0.3-8-0.7-12-0.9c-1.2-0.1-2.5,0.6-3.8,0.5
		c-2.7-0.3-5.3-0.9-8,0.2c-0.6,0.3-1.8,0.3-2.1-0.1c-1.3-1.8-2.5-0.8-3.9-0.4c-2,0.5-4.7,1.5-6.2,0.7c-2.2-1.2-3.7-0.6-5.6-0.1
		c-0.6,0.2-1.2,0.5-1.8,0.4c-1.8-0.2-3.6-0.5-5.4-0.7c-1.9-0.2-3.7-0.3-5.6-0.4c-1.2-0.1-2.3-0.1-3.5-0.1c-2.3,0-4.7,0.1-7,0.1
		C1284,379.1,1283.8,378.8,1283.6,378.7z"/>
	<path class="st11" d="M1373.7,379.5c-0.7-8.7-1.5-17.3-2.2-26c-0.1-1.4,0.1-2.1,1.6-2.7c13.1-4.9,26.1-9.9,39.1-14.9
		c11.5-4.4,23.1-8.9,34.6-13.3c6.5-2.5,13-4.9,19.8-7.5c0.1,0.7,0.3,1.2,0.3,1.7c0,20.5,0,41,0,61.5c0,0.4-0.1,0.8-0.2,1.2
		c-0.6-0.1-1.1-0.2-1.7-0.2c-2.3-0.3-4.9-1.3-6.9-0.7c-4.5,1.5-9,0.2-13.4,0.5c-3.9,0.2-7.9-0.1-11.9-0.1c-3.4,0-6.8,0-10.2,0.1
		c-2.8,0.1-5.5,0.2-8.3,0.3c-0.4,0-0.8-0.1-1.2-0.1c-3-0.2-5.8-1.6-8.9-0.4c-1.6,0.6-3.7,1-5.2,0.5c-3.3-1.2-6.6-0.1-9.9-0.2
		C1383.9,378.8,1378.8,379.3,1373.7,379.5z"/>
	<path class="st12" d="M1158.8,546c-0.6-2.8-1.2-5.6-1.8-8.4c-1-2.9-2.4-3.7-6.1-3.6c-2.1,0.1-4.1,1.9-4.7,4.2
		c-0.4,1.8-0.7,3.5-1.1,5.3c-4.9,0.2-9.9,0.4-14.8,0.5c-1.3,0-2.6,0-3.9,0.1c-2.4,0.1-4.9,0.3-7.3,0.2c-3.3-0.1-6.6-0.7-9.9-0.7
		c-6,0-12,0.3-18,0.4c-6.7,0.1-13.4,0.1-20.1-0.1c-1.1,0-2.1-1.1-3.2-1.7c0.9-4.7,1.8-9.5,2.6-14.2c3,0.2,6.2,1.4,8.9,0.6
		c5.6-1.7,11,0.1,16.5,0c1,0,2.1,0.6,2.9,0.3c5.2-1.8,10.5,0.4,15.7-0.7c2.7-0.6,5.7,0.2,8.6,0.3c5.1,0.2,10.2,0.3,15.3,0.5
		c0.8,0,1.8,0.4,2.4,0.1c2.4-1.1,4.7-1.5,7.2-0.4c0.4,0.2,1,0.1,1.4,0c3.7-1.2,7.5-0.5,11.3-0.7c1.2,0,2.4,0.8,3.5,0.7
		c3.3-0.1,6.5-0.6,9.8-0.7c2.7-0.1,5.6,0.9,8.1,0.2c3.9-1.1,7.6,1.5,11.3-0.2c0.1-0.1,0.3,0.1,0.5,0.1c2.5,0,5.1,0.1,7.6,0.1
		c2.8,0,5.6-0.1,8.4-0.1c5.9,0,11.8,0.1,17.7,0.2c3.6,0,7.1,0,10.7,0c0.3,1.3,0.9,2.6,1,3.9c0.3,3,1.9,5.3,4,7.3
		c1.9,1.3,3.7,1.4,5.6,0c4.6-3.6,3.5-9.1,4.9-13.8c0.5-1.9,0.8-3.9,1.2-5.8c0.9,0.2,1.8,0.5,2.7,0.5c5.3,0,10.7,0,16,0
		c1.6,0,3.2-0.3,4.8-0.4c1-0.1,2.1-0.1,3.1,0.1c3.2,0.5,6.2,1.3,9.5,0.4c2.1-0.6,4.4-0.3,6.6-0.3c0.7,0,1.5,0.2,2.2,0.2
		c2.8,0,5.5-0.2,8.3-0.2c1.4,0,2.7,0.1,4.1,0c2.7,0,5.3-0.1,8-0.2c-0.1,1.1,0,2.2-0.3,3.3c-1.4,7.1-2.8,14.1-4.2,21.2
		c-1.9,0.1-3.8,0.4-5.7,0.4c-3.2,0.1-6.5,0.1-9.7,0.1c-2.4,0-4.9-0.3-7.3-0.3c-2.5,0-5.1,0.3-7.6,0.3c-1.4,0-2.8-0.5-4.3-0.5
		c-3.6,0.1-7.1,0.5-10.7,0.5s-7.3-0.5-10.9-0.4c-3.2,0.2-6.4,0.4-9.7,0.1c-3.5-0.4-7.2,0.5-10.9,0.7c-2.4,0.1-5.1,0.6-7.3-0.1
		c-5.6-1.7-11.2-0.3-16.8-0.7c-2.9-0.2-5.9,0.3-8.8,0.3c-3.8,0-7.6-0.4-11.4-0.4c-4.5,0-9,0.3-13.4,0.4c-3.8,0.1-7.5,0-11.3,0
		c-2.5-0.1-5-0.5-7.5-0.4C1161.4,544.6,1160.1,545.5,1158.8,546z"/>
	<path class="st13" d="M1094.6,378.5c0.9,0.3,1.7,0.7,2.6,0.8c1.5,0.2,3.1,0.4,4.6,0.3c2.9-0.2,5.7-0.9,8.6-1c3,0,6.1,0.8,9.1,0.8
		c2.6,0,5.2-0.7,7.8-1.1c0.5-0.1,1-0.3,1.4-0.3c3.1,0.3,6.1,0.6,9.2,0.9c1.6,0.2,3.1,0.4,4.7,0.6c0.6,0.1,1.2-0.1,1.8-0.2
		c0.9-0.1,1.8-0.3,2.7-0.3c3.1,0,6.2,0,9.3,0c1,0,2,0.4,2.9,0.3c3.2-0.3,6.4-0.7,9.6-0.9c1.8-0.1,3.6,0.1,5.4,0.2
		c3.5,0.1,6.9,1.8,10.4-0.1c0.3-0.2,1-0.2,1.2,0c1.3,1.9,2.9,0.5,4.4,0.4s3.1-1.1,4.4,0.7c0.2,0.3,1.2-0.1,1.8-0.1
		c2.4-0.1,4.7-0.1,7.1-0.2c0.7,0,1.3,0,2,0c1.5-0.1,3-0.3,4.5-0.4c0.8,3,1.7,6.1,2.3,9.1c1.5,7.9,2.9,15.8,4.4,23.7
		c0.2,1.1,0.2,2.1,0.3,3.2c-0.6-0.1-1.6-0.1-1.8-0.4c-0.7-1.5-1.6-1.1-2.6-0.5c-0.6,0.3-1.4,0.4-2.1,0.4c-5.3,0-10.7,0-16,0
		c-3.2,0-6.4-0.1-9.5-0.2c-1.7,0-3.7,0.5-5-0.1c-1.9-0.9-2.9-0.1-4.3,0.6c-0.6,0.3-1.6,0.2-2.3,0c-1.2-0.3-2.3-1.2-3.4-1.3
		c-2.8-0.1-5.5,0.3-8.3,0.4c-1,0.1-1.9,0.3-2.9,0.3c-4-0.1-8-0.2-12-0.3c-1.9,0-3.8,0.1-5.6,0.1c-2.1,0-4.3-0.1-6.4-0.1
		c-2.7,0.1-5.4,0.2-8,0.3c-0.2,0-0.5-0.2-0.7-0.2c-1-0.1-2.1-0.2-3.1-0.2c-3.3,0.1-6.7,0.5-10,0.5c-4.5,0-9.1-0.6-13.6-0.2
		c-3.4,0.3-6.5,0.1-9.5-1.3C1091.3,401.5,1092.9,390,1094.6,378.5z"/>
	<path class="st14" d="M1116.6,698.5c-2.2-0.6-4.1-1.1-6.6-0.4c-2.8,0.8-6.1-0.1-9.1-0.1c-1.5,0-3,0.5-4.4,0.4
		c-4.3-0.2-8.5-0.6-12.8-0.9c-0.7,0-1.4,0.3-2.2,0.4c-0.8,0.2-1.7,0.6-2.4,0.4c-3.5-1-7.2-0.3-10.6-0.7c-3.2-0.4-6.3,0.7-9.3,0.2
		c-2.7-0.5-5.4,0.4-7.7-0.1c-3.3-0.8-6.3,0.7-9.4,0.2c-1.4-0.2-2.7-1-4.1-1.5c0.7-3.7,1.3-7.5,2-11.2c1.3-6.8,2.6-13.7,4-20.5
		c1-4.8,2-9.6,3-14.5c0.3-1.4,0.6-2.9,1-4.3c3.8,0.5,7.6,1,11.4,1.4c0.5,0.1,1.1-0.4,1.6-0.5c1.6-0.2,3.3-0.4,4.9-0.4
		c1.2,0.1,2.4,0.8,3.6,0.8c4.5-0.1,8.9-0.3,13.4-0.5c3.3-0.1,6.5-0.3,9.8-0.3c3,0,6,0.1,9,0.2c2.7,0.1,5.5,0.3,8.2,0.4
		c1.1,0,2.3,0,3.4-0.1c0.9-0.1,1.8-0.6,2.7-0.5c3.4,0.1,6.9,0.3,10.3,0.4c-1.4,8-2.8,16-4.3,24c-1.3,7.2-2.7,14.3-4,21.5
		C1117.6,694.5,1117.1,696.5,1116.6,698.5z"/>
	<path class="st15" d="M1158.8,546c1.3-0.5,2.6-1.4,3.9-1.5c2.5-0.1,5,0.3,7.5,0.4c3.8,0.1,7.5,0.1,11.3,0c4.5-0.1,9-0.4,13.4-0.4
		c3.8,0,7.6,0.4,11.4,0.4c2.9,0,5.9-0.5,8.8-0.3c5.6,0.4,11.2-1,16.8,0.7c2.3,0.7,4.9,0.3,7.3,0.1c3.6-0.2,7.3-1.1,10.9-0.7
		c3.3,0.4,6.5,0.1,9.7-0.1c3.6-0.2,7.3,0.4,10.9,0.4s7.1-0.4,10.7-0.5c1.4,0,2.8,0.5,4.3,0.5c2.5,0,5.1-0.3,7.6-0.3
		c2.4,0,4.9,0.3,7.3,0.3c3.2,0,6.5,0,9.7-0.1c1.9,0,3.8-0.3,5.7-0.4c-0.9,4.9-1.8,9.9-2.7,14.8c-0.6,3.4-1.3,6.8-1.9,10.2
		c-3.7,0.3-7.5,0.7-11.2,1c-5.2,0.5-10.4-0.8-15.6,0.4c-1.7,0.4-3.7-0.6-5.6-0.8c-0.6-0.1-1.5,0-1.9,0.4c-1.6,1.4-3,0.9-4.8,0.3
		c-1.8-0.6-3.9,0-5.8-0.1c-0.9,0-1.9-0.1-2.8-0.2c-0.9-0.1-1.7-0.3-2.6-0.3c-3.2,0.1-6.4,0.3-9.6,0.6c-4.5,0.5-9-1.5-13.6,0.1
		c-0.8,0.3-1.9-0.3-2.9-0.4c-3.6-0.5-7.2-0.4-10.7,0.7c-0.3,0.1-0.7,0.2-1,0.1c-1.6-0.9-2.9-0.7-4.6-0.1c-1.3,0.5-3.3,0.2-4.6-0.5
		c-2.9-1.6-5.6,0.2-8.5-0.2c-2-0.3-4.2,0.1-6.3,0.1c-0.1,0-0.2-0.1-0.2-0.1c-4,0.1-8.1,0.2-12.1,0.2c-3.5,0-7-0.3-10.5-0.5
		c-0.4,0-0.9-0.4-1.2-0.2c-4.1,2-8.3-0.2-12.4,0.4C1161.6,562.3,1160.2,554.2,1158.8,546z"/>
	<path class="st16" d="M1077.6,486c1.6-8.8,3.3-17.7,4.9-26.5c0.9,0.1,1.8,0.2,2.7,0.3c1.9,0.3,3.9,0.8,5.8,0.8
		c2.8-0.1,5.6-1,8.3-0.9c4.2,0.1,8.5,0.9,12.7,1.3c0.6,0.1,1.2,0.1,1.7,0c2.5-0.5,5-1.4,7.5,0c0.3,0.2,0.8-0.1,1.2-0.2
		c3.4-0.4,6.9-1,10.3-1.1c3-0.1,6,0.2,9.1,0.4c1.3,0.1,3,0.9,3.9,0.3c2.4-1.4,4.7,0.3,7.1-0.2c3.3-0.6,6.7-0.4,10.1-0.4
		c2.2,0,4.4,0.2,6.6,0.3c1.7,0,3.4-0.1,5.1-0.1c1.4,0,2.8,0.1,4.3,0.1s3.2,0.3,4.5-0.3c1.5-0.7,2.7-0.9,4.2-0.1
		c0.9,0.5,2.1,0.6,3.1,0.7c1.6,0,3.2-0.2,4.8-0.3c1.7-0.1,3.5-0.2,6-0.3c1,0.8,1,0.8,3.7,0.3c0.6-0.1,1.3,0.2,2,0.2
		c1.7,0.1,3.5,0.6,5.1,0.3c3.4-0.6,6.8-1.8,10.3-0.5c0.8,0.3,1.6,0.3,2.4,0.4c0.5,2.1,1.2,4.1,1.6,6.2c1.2,6.2,2.4,12.5,3.6,18.8
		c-1.7,0.1-3.3,0.4-5,0.4c-4-0.1-7.9-0.3-11.8-0.4c-2.1,0-4.3,0.9-6.1,0.3c-3.8-1.2-7.5,0.2-11.2,0c-1.5-0.1-2.9-0.2-4.4-0.2
		c-6.2,0.1-12.3,0.4-18.5,0.4c-6.7,0-13.5-0.5-20.2-0.4c-6.6,0.1-13.2,0.5-19.8-0.4c-0.4-0.1-0.9,0.3-1.4,0.3
		c-1.4,0.2-2.8,0.5-4.1,0.5c-4-0.1-8-0.4-12-0.4c-3.7,0-7.5-1.2-11.2,0.4c-0.3,0.1-0.7,0-1,0c-3.6-0.2-7.1-0.5-10.7-0.5
		C1087.5,485.6,1082.6,485.8,1077.6,486z"/>
	<path class="st17" d="M1283.6,378.7c0.2,0.2,0.4,0.5,0.5,0.5c2.3,0,4.7-0.1,7-0.1c1.2,0,2.3,0,3.5,0.1c1.9,0.1,3.7,0.2,5.6,0.4
		c1.8,0.2,3.6,0.6,5.4,0.7c0.6,0.1,1.2-0.3,1.8-0.4c1.9-0.5,3.4-1.1,5.6,0.1c1.5,0.8,4.1-0.1,6.2-0.7c1.4-0.4,2.7-1.4,3.9,0.4
		c0.3,0.4,1.5,0.4,2.1,0.1c2.7-1.1,5.3-0.5,8-0.2c1.2,0.1,2.5-0.5,3.8-0.5c4,0.2,8,0.6,12,0.9c-1,5.2-2,10.4-3,15.6
		c-1.3,6.4-2.7,12.8-4,19.2c-1.4,6.6-2.7,13.1-4,19.7c-1.5,0.2-3,0.7-4.5,0.7c-3.8,0-7.6-0.3-11.4-0.4c-1.5-0.1-3,0-4.4,0
		c-1.9,0-3.8,0-5.8,0.1c-1.6,0.1-3.2,0.4-4.8,0.4c-4.9-0.2-9.8-0.6-14.8-0.6c-3,0-6,0.9-8.9,0.8c-3.8-0.2-7.6-0.9-11.4-1.4
		c2.2-10.7,4.3-21.4,6.6-32.1C1280.1,394.1,1281.9,386.4,1283.6,378.7z"/>
	<path class="st13" d="M1373.7,379.5c5.1-0.2,10.2-0.7,15.3-0.4c3.3,0.2,6.5-0.9,9.9,0.2c1.5,0.5,3.7,0.2,5.2-0.5
		c3.1-1.2,6,0.1,8.9,0.4c0.4,0,0.8,0.1,1.2,0.1c2.8-0.1,5.5-0.3,8.3-0.3c3.4-0.1,6.8-0.1,10.2-0.1c4,0,7.9,0.3,11.9,0.1
		c4.5-0.2,8.9,1,13.4-0.5c2-0.7,4.6,0.4,6.9,0.7c0.6,0.1,1.1,0.2,1.7,0.2c0.1,5.9,0.2,11.8,0.2,17.6c0,6.8-0.1,13.6-0.2,20.4
		c-1.7,0.2-3.8,1.1-5.1,0.4c-1.3-0.6-2.2-1.1-3.3-0.4c-3.2,1.9-6.5,0.9-9.9,0.5c-1.7-0.2-3.3-0.5-5-0.5c-3,0-6.1,1.8-9-0.4
		c-0.3-0.2-1.1,0.2-1.6,0.4c-4,1.7-8.3,0.4-12.4,0.7c-4.1,0.3-8.3-0.4-12.5-0.7c-0.3,0-0.6,0.4-0.9,0.4c-0.9,0.2-1.9,0.4-2.9,0.4
		c-5.3-0.1-10.6-0.3-15.9-0.4c-3,0-6,0.6-8.9-0.6c-0.9-0.4-2.1-0.3-3.2-0.4C1375.3,404.5,1374.5,392,1373.7,379.5z"/>
	<path class="st18" d="M1376.1,417c1.1,0.1,2.2,0,3.2,0.4c2.9,1.3,5.9,0.6,8.9,0.6c5.3,0.1,10.6,0.3,15.9,0.4c1,0,1.9-0.2,2.9-0.4
		c0.3-0.1,0.6-0.4,0.9-0.4c4.2,0.2,8.4,0.9,12.5,0.7c4.1-0.3,8.4,0.9,12.4-0.7c0.5-0.2,1.3-0.6,1.6-0.4c3,2.3,6,0.4,9,0.4
		c1.7,0,3.3,0.3,5,0.5c3.3,0.4,6.6,1.4,9.9-0.5c1.1-0.6,2.1-0.2,3.3,0.4c1.3,0.6,3.4-0.2,5.1-0.4c0,4.7,0,9.4,0,14.1
		c-0.1,7.6-0.1,15.2-0.2,22.9c-6.2,0-12.5,0-18.7,0c-1.8,0-3.6-0.3-5.4-0.3c-3.7,0-7.4,0.2-11.1,0.3c-1.3,0.1-2.7,0.3-4,0.3
		c-3.7,0-7.4-1.6-11.2,0.1c-0.9,0.4-2.2-0.2-3.4-0.3c-0.9-0.1-1.9-0.3-2.8-0.2c-3.5,0-7.1,0.3-10.6,0.2c-3.6-0.1-7.4-1.6-10.9,0.8
		c-0.3,0.2-0.8,0.1-1.2,0.1c-2.9-0.3-5.7-0.5-8.6-0.8c-0.8-11.2-1.6-22.3-2.4-33.5C1376,419.7,1376.1,418.3,1376.1,417z"/>
	<path class="st19" d="M1385.6,614c4.6,0.3,9.2,1.4,13.6,0.8c3.4-0.5,6.7-0.3,9.8,0c4.2,0.4,8.2-0.1,12.3-0.2
		c6.6-0.2,13.1-0.1,19.7,0c3.4,0.1,6.8,0.4,10.2,0.6c0.2,0,0.6,0.2,0.7,0.2c3.8-2.2,7.9-0.1,11.8-1c3.1-0.7,6.6,0.1,9.9,0.1
		c5.9,0,11.9-0.1,17.8-0.2c2.9,0,5.9-0.1,8.8-0.2c-4,8.6-8.1,17.2-12.1,25.8c-0.6,1.3-1.1,2.8-1.6,4.2c-1.4-0.5-2.5-0.5-3.8,0.7
		c-0.6,0.6-2.1,0.4-3.2,0.3c-2.5-0.1-5-0.6-7.5-0.3c-3.8,0.4-7.5,0.5-11.2-0.5c-1-0.2-2.1,0-3.1,0.1c-1.6,0.2-3.1,0.7-4.6,0.6
		c-3.6-0.2-7.2-0.5-10.8-0.4c-4.1,0.1-8.2,0-12.2-0.1c-3.5-0.1-6.9-0.4-10.4-0.3c-2.4,0-4.8,0.7-7.2,0.7c-3.3,0.1-6.6-0.3-9.9-0.3
		c-5.6,0-11.1,0.2-16.7,0.4C1385.8,634.7,1385.7,624.3,1385.6,614z"/>
	<path class="st20" d="M1077.6,486c5-0.2,9.9-0.4,14.9-0.5c3.6,0,7.1,0.3,10.7,0.5c0.3,0,0.7,0.1,1,0c3.7-1.6,7.5-0.4,11.2-0.4
		c4,0,8,0.3,12,0.4c1.4,0,2.8-0.3,4.1-0.5c0.5-0.1,1-0.4,1.4-0.3c6.6,0.9,13.2,0.6,19.8,0.4c6.7-0.1,13.5,0.4,20.2,0.4
		c6.2,0,12.3-0.3,18.5-0.4c1.5,0,2.9,0.1,4.4,0.2c3.7,0.2,7.3-1.2,11.2,0c1.8,0.6,4.1-0.3,6.1-0.3c4,0,7.9,0.3,11.8,0.4
		c1.7,0,3.3-0.3,5-0.4c1.1,5.4,2.3,10.9,3.4,16.3c0.3,1.4,0.5,2.8,0.7,4.2c-2.6-0.1-5.3-0.4-7.9-0.3c-3.2,0.1-6.5,0.6-9.7,0.8
		c-1.3,0.1-2.7-0.2-4.1-0.3c-1.2,0-2.4,0-3.6,0c-2.3,0-4.5,0-6.8-0.1c-1.7-0.1-3.4-0.5-5.1-0.6c-1.6-0.1-3.3,0.1-4.9,0.2
		c-3.3,0.1-6.7,0.1-10,0.2c-2.2,0.1-4.6,0.8-6.6,0.2c-1.9-0.6-3.5-0.6-5.2-0.1c-0.5,0.2-1.1,0.3-1.7,0.3c-4.9-0.1-9.7-1.6-14.6,0
		c-0.8,0.3-1.9,0.2-2.7,0c-2.6-0.8-5.1-1.9-7.7,0c-0.3,0.2-0.9,0.1-1.2-0.1c-2.7-1.3-5.2-1.3-7.8,0.3c-0.4,0.2-1.1,0.1-1.6,0
		c-1.1-0.2-2.2-0.6-3.3-0.6c-2.1,0.1-4.2,1.1-6.2-0.4c-0.2-0.2-0.8,0.1-1.2,0.2c-0.7,0.1-1.5,0.4-2.2,0.4c-2.1-0.1-4.1-0.6-6.2-0.5
		c-3.7,0.1-7.4,1-11,0.6c-3.2-0.3-6.3-0.5-9.3,0.6c-0.6,0.2-1.4-0.2-2.2-0.3c-3.3-0.3-6.7-0.1-10-1c-2.2-0.6-4.8,0.2-7.1,0.3
		C1075.3,499.3,1076.4,492.7,1077.6,486z"/>
	<path class="st10" d="M1271.8,434c3.8,0.5,7.6,1.3,11.4,1.4c3,0.1,6-0.8,8.9-0.8c4.9,0,9.8,0.5,14.8,0.6c1.6,0.1,3.2-0.3,4.8-0.4
		c1.9-0.1,3.8-0.1,5.8-0.1c1.5,0,3-0.1,4.4,0c3.8,0.1,7.6,0.4,11.4,0.4c1.5,0,3-0.4,4.5-0.7c-2.7,13.4-5.3,26.9-8,40.3
		c-0.5,2.4-1.1,4.8-1.7,7.3c-1.7,0.2-3.4,0.3-5,0.6c-3.4,0.5-6.7-0.9-10.2,0.1c-2.6,0.7-5.5,0.3-8.3,0.2c-4.1-0.2-8.1-0.8-12.1-0.7
		c-2.2,0.1-4.2,1.4-6.6,0.3c-0.9-0.4-2.4,0.3-3.6,0.4c-1,0.1-2,0.4-2.9,0.3c-2.1-0.2-4.1-0.7-6.2-0.8c-3.7,0-7.4,0.2-11.2,0.4
		c1-5.2,1.9-10.5,3-15.7c1.7-8.6,3.4-17.1,5.1-25.6C1270.6,439.1,1271.3,436.5,1271.8,434z"/>
	<path class="st10" d="M1224.9,460.5c-0.8-0.1-1.7-0.2-2.4-0.4c-3.5-1.3-6.9-0.1-10.3,0.5c-1.6,0.3-3.4-0.2-5.1-0.3
		c-0.7-0.1-1.3-0.3-2-0.2c-2.7,0.4-2.7,0.5-3.7-0.3c-2.5,0.1-4.3,0.2-6,0.3c-1.6,0.1-3.2,0.4-4.8,0.3c-1,0-2.2-0.2-3.1-0.7
		c-1.5-0.8-2.7-0.5-4.2,0.1c-1.3,0.6-3,0.3-4.5,0.3c-1.4,0-2.8-0.1-4.3-0.1c-1.7,0-3.4,0.1-5.1,0.1c-2.2,0-4.4-0.3-6.6-0.3
		c-3.4,0-6.8-0.2-10.1,0.4c-2.4,0.4-4.7-1.3-7.1,0.2c-0.9,0.5-2.6-0.2-3.9-0.3c-3-0.2-6-0.5-9.1-0.4c-3.5,0.1-6.9,0.7-10.3,1.1
		c-0.4,0-0.9,0.3-1.2,0.2c-2.5-1.4-5-0.5-7.5,0c-0.6,0.1-1.2,0.1-1.7,0c-4.2-0.5-8.4-1.2-12.7-1.3c-2.8-0.1-5.6,0.8-8.3,0.9
		c-1.9,0.1-3.9-0.5-5.8-0.8c-0.9-0.1-1.8-0.2-2.7-0.3c1.1-6.7,2.1-13.4,3.2-20.1c0.1-0.6,0.3-1.3,0.4-1.9c1.3,0,2.6,0,3.9,0
		c3.4,0,6.7-0.1,10.1,0c2.2,0,4.5,0.5,6.7,0.4c3.1-0.1,6.3-0.7,9.4-0.8c5.6-0.1,11.3,0.2,16.9,0.2c3.8,0,7.6-0.2,11.5-0.3
		c5.3-0.1,10.6,0.1,15.9-0.2c2.7-0.1,5.3-0.5,7.8,1.3c0.3,0.2,1.1-0.2,1.7-0.4c0.5-0.2,1-0.7,1.4-0.8c2.8-0.1,5.7-0.2,8.5,0
		c2.4,0.1,4.8,0.6,7.2,0.7c1.3,0.1,2.7-0.5,4.1-0.6c2.1-0.1,4.2-0.1,6.4,0c1.7,0,3.8-0.4,5.1,0.4c1.6,1,2.8,0.4,4.2,0.2
		c1.1-0.2,2.2-0.7,3.3-0.7c3.8,0,7.6,0.2,11.4,0.3c0.9,5.8,1.8,11.6,2.7,17.5C1224.3,456.7,1224.6,458.6,1224.9,460.5z"/>
	<path class="st21" d="M1221.4,437.4c-3.8-0.1-7.6-0.3-11.4-0.3c-1.1,0-2.2,0.5-3.3,0.7c-1.4,0.2-2.6,0.8-4.2-0.2
		c-1.3-0.8-3.3-0.4-5.1-0.4c-2.1-0.1-4.3-0.1-6.4,0c-1.4,0.1-2.7,0.6-4.1,0.6c-2.4-0.1-4.8-0.6-7.2-0.7c-2.8-0.1-5.7,0-8.5,0
		c-0.5,0-0.9,0.6-1.4,0.8c-0.6,0.2-1.4,0.6-1.7,0.4c-2.4-1.7-5-1.4-7.8-1.3c-5.3,0.3-10.6,0.1-15.9,0.2c-3.8,0.1-7.6,0.3-11.5,0.3
		c-5.6,0-11.3-0.3-16.9-0.2c-3.1,0-6.3,0.6-9.4,0.8c-2.2,0.1-4.4-0.4-6.7-0.4c-3.4-0.1-6.7,0-10.1,0c-1.3,0-2.6,0-3.9,0
		c0.5-3.7,0.9-7.4,1.5-11.2c0.6-4.5,1.4-8.9,2-13.3c3.1,1.4,6.1,1.6,9.5,1.3c4.5-0.4,9,0.2,13.6,0.2c3.3,0,6.7-0.4,10-0.5
		c1,0,2.1,0.1,3.1,0.2c0.2,0,0.5,0.2,0.7,0.2c2.7-0.1,5.4-0.3,8-0.3c2.1,0,4.3,0.1,6.4,0.1c1.9,0,3.8-0.2,5.6-0.1
		c4,0.1,8,0.2,12,0.3c1,0,1.9-0.2,2.9-0.3c2.8-0.2,5.5-0.5,8.3-0.4c1.1,0,2.2,0.9,3.4,1.3c0.7,0.2,1.7,0.3,2.3,0
		c1.4-0.7,2.4-1.5,4.3-0.6c1.4,0.7,3.3,0.1,5,0.1c3.2,0,6.3,0.1,9.5,0.2c5.3,0,10.7,0,16,0c0.7,0,1.5-0.1,2.1-0.4
		c1.1-0.6,1.9-1,2.6,0.5c0.2,0.4,1.2,0.3,1.8,0.4c1.2,5.8,2.3,11.7,3.5,17.5C1220.8,434.1,1221.1,435.8,1221.4,437.4z"/>
	<path class="st16" d="M1378.6,454.5c2.9,0.3,5.7,0.6,8.6,0.8c0.4,0,0.9,0.1,1.2-0.1c3.5-2.4,7.2-0.8,10.9-0.8
		c3.5,0.1,7.1-0.1,10.6-0.2c0.9,0,1.9,0.1,2.8,0.2c1.1,0.1,2.5,0.7,3.4,0.3c3.8-1.6,7.5,0,11.2-0.1c1.3,0,2.7-0.3,4-0.3
		c3.7-0.1,7.4-0.3,11.1-0.3c1.8,0,3.6,0.3,5.4,0.3c6.2,0,12.5,0,18.7,0c0,11-0.1,22-0.1,33c-5.2,0.9-10.4-1.5-15.7-0.2
		c-2.6,0.6-5.5-0.2-8.3-0.3c-1.2,0-2.5,0.5-3.7,0.4c-3.1-0.2-6.1-0.7-9.2-0.8c-2.1-0.1-4.3,0.4-6.4,0.6c-0.9,0.1-1.8,0.2-2.7,0.3
		c-2.8,0-5.6,0-8.4,0c-1.3,0-2.6-0.1-3.9-0.2c-1.6-0.1-3.2-0.5-4.7-0.2c-5.3,1.1-10.6,0.9-15.9,0c-2.3-0.4-4.7-0.4-7-0.6
		c-0.7-9.5-1.3-19-2-28.5C1378.5,456.8,1378.6,455.7,1378.6,454.5z"/>
	<path class="st22" d="M1126.3,647c-3.4-0.2-6.9-0.4-10.3-0.4c-0.9,0-1.8,0.4-2.7,0.5c-1.1,0.1-2.3,0.2-3.4,0.1
		c-2.7-0.1-5.5-0.3-8.2-0.4c-3-0.1-6-0.2-9-0.2c-3.3,0-6.5,0.1-9.8,0.3c-4.5,0.2-8.9,0.5-13.4,0.5c-1.2,0-2.4-0.8-3.6-0.8
		c-1.6-0.1-3.3,0.2-4.9,0.4c-0.6,0.1-1.1,0.5-1.6,0.5c-3.8-0.4-7.6-0.9-11.4-1.4c2.4-12,4.7-24,7.1-36c3.5,1,7,1.8,10.8,0.6
		c1.9-0.6,4-0.5,6.1-0.5c1.5,0,3,0,4.4,0.4c2.3,0.7,4.4,1,6.7,0.2c1-0.4,2.2-0.2,3.3,0.1c2.3,0.6,4.6,1.5,6.8-0.4
		c0.4-0.4,1.7-0.4,2.1-0.1c1.5,1.5,2.8,1.3,4.4,0.1c0.4-0.3,1.1-0.3,1.7-0.3c3,0.3,6,0.7,9.1,0.8c2.8,0.2,5.6,0.1,8.4,0.1
		c4.8-0.1,9.5-0.3,14.3-0.5c-0.7,4.2-1.3,8.3-2.1,12.5C1129.4,631,1127.8,639,1126.3,647z"/>
	<path class="st23" d="M1375.1,695.5c1.4-6,2.7-12,4.1-18c0.8-3.4,1.7-6.9,2.6-10.3c1.5,0.7,3.7,2.5,4.4,2c2.8-1.8,5.3,1,7.9-0.2
		c1-0.4,2.3-0.3,3.5-0.3c6.3,0.1,12.5,0.1,18.8,0.2c2.1,0,4.5-0.6,6.3,0.2c2.2,1,3.8,0.3,5.6-0.4c1.7-0.6,3.4-1.3,5.2,0
		c0.6,0.4,1.6,0.1,2.4,0.1c3.7,0.1,7.5,1.2,11.2-0.4c0.1-0.1,0.3,0,0.5,0.1c6.1,1.7,12.4-1.1,18.4,1.1c0.2,0.1,0.5-0.1,0.7-0.2
		c1.9-0.3,4.2-1.4,5.7-0.8c2.3,0.9,4.1,0.2,6.2-0.3c1-0.2,1.9-0.3,2.9-0.4c-1.3,5.7-2.5,11.3-3.9,17c-1,3.9-2.2,7.7-3.2,11.5
		c-1.7-0.2-3.5-0.3-5.2-0.4c-0.6,0-1.3,0.2-1.9,0.3c-1.9,0.2-3.7,0.5-5.6,0.6c-0.9,0-1.9-0.9-2.6-0.6c-3.8,1.5-7.5-0.4-11.2-0.1
		c-3.1,0.3-6.2,0.4-9.2,0.6c-0.4,0-0.8,0.1-1.2,0.1c-3-0.4-6-0.9-9.1-1.3c-0.4-0.1-0.9,0.4-1.3,0.5c-0.9,0.3-1.8,0.8-2.7,0.8
		c-1.7,0.1-3.4-0.2-5.1-0.3c-4.4-0.2-8.8-0.5-13.2-0.6c-0.8,0-1.7,0.1-2.4,0.4c-2.1,0.9-4.3,1.2-6.5,0.4c-0.5-0.2-1.1-0.3-1.7-0.3
		c-2.7-0.1-5.4,0.2-8-0.3c-2.2-0.4-3.7-0.1-4.5,0.9C1380.1,696.6,1377.6,696,1375.1,695.5z"/>
	<path class="st7" d="M1262.1,483c3.7-0.1,7.5-0.4,11.2-0.4c2.1,0,4.1,0.6,6.2,0.8c1,0.1,1.9-0.2,2.9-0.3c1.2-0.2,2.7-0.9,3.6-0.4
		c2.4,1.1,4.4-0.2,6.6-0.3c4-0.2,8.1,0.5,12.1,0.7c2.8,0.1,5.7,0.5,8.3-0.2c3.5-1,6.8,0.4,10.2-0.1c1.7-0.3,3.3-0.4,5-0.6
		c-2.4,11.6-4.8,23.2-7.2,34.9c-0.2,1-0.4,2-0.7,3c-2.7,0.1-5.3,0.2-8,0.2c-1.4,0-2.7-0.1-4.1,0c-2.8,0.1-5.5,0.2-8.3,0.2
		c-0.7,0-1.5-0.2-2.2-0.2c-2.2,0-4.6-0.3-6.6,0.3c-3.3,0.9-6.4,0.1-9.5-0.4c-1-0.2-2-0.1-3.1-0.1c-1.6,0.1-3.2,0.4-4.8,0.4
		c-5.3,0.1-10.7,0.1-16,0c-0.9,0-1.8-0.3-2.7-0.5c0.4-2.7,0.8-5.3,1.3-8C1258.2,502.3,1260.2,492.7,1262.1,483z"/>
	<path class="st3" d="M1481.6,668c-1,0.1-2,0.2-2.9,0.4c-2,0.5-3.8,1.3-6.2,0.3c-1.6-0.6-3.8,0.4-5.7,0.8c-0.2,0-0.5,0.2-0.7,0.2
		c-6-2.2-12.4,0.6-18.4-1.1c-0.2,0-0.4-0.1-0.5-0.1c-3.7,1.6-7.5,0.5-11.2,0.4c-0.8,0-1.9,0.3-2.4-0.1c-1.8-1.3-3.4-0.6-5.2,0
		c-1.8,0.7-3.4,1.4-5.6,0.4c-1.7-0.8-4.2-0.2-6.3-0.2c-6.3-0.1-12.5-0.2-18.8-0.2c-1.2,0-2.4-0.2-3.5,0.3c-2.6,1.1-5.1-1.6-7.9,0.2
		c-0.7,0.5-2.9-1.3-4.4-2c1-4.8,2-9.6,2.9-14.4c0.5-2.6,0.8-5.2,1.2-7.8c5.6-0.1,11.1-0.4,16.7-0.4c3.3,0,6.6,0.4,9.9,0.3
		c2.4,0,4.8-0.7,7.2-0.7c3.5-0.1,6.9,0.2,10.4,0.3c4.1,0.1,8.2,0.2,12.2,0.1c3.6-0.1,7.2,0.1,10.8,0.4c1.5,0.1,3.1-0.4,4.6-0.6
		c1-0.1,2.2-0.3,3.1-0.1c3.7,0.9,7.4,0.9,11.2,0.5c2.5-0.3,5,0.2,7.5,0.3c1.1,0,2.6,0.3,3.2-0.3c1.2-1.2,2.4-1.2,3.8-0.7
		c-1,5.4-2,10.9-3.1,16.3C1483,662.9,1482.2,665.4,1481.6,668z"/>
	<path class="st24" d="M1375.1,695.5c2.5,0.5,5,1.1,8,1.7c0.8-1,2.3-1.3,4.5-0.9c2.6,0.5,5.3,0.2,8,0.3c0.6,0,1.2,0.1,1.7,0.3
		c2.2,0.8,4.4,0.5,6.5-0.4c0.7-0.3,1.6-0.4,2.4-0.4c4.4,0.2,8.8,0.4,13.2,0.6c1.7,0.1,3.4,0.3,5.1,0.3c0.9,0,1.8-0.5,2.7-0.8
		c0.5-0.2,0.9-0.6,1.3-0.5c3,0.4,6.1,0.9,9.1,1.3c0.4,0.1,0.8,0,1.2-0.1c3.1-0.2,6.2-0.3,9.2-0.6c3.7-0.3,7.4,1.5,11.2,0.1
		c0.7-0.3,1.7,0.6,2.6,0.6c1.9-0.1,3.7-0.3,5.6-0.6c0.6-0.1,1.3-0.3,1.9-0.3c1.7,0.1,3.5,0.3,5.2,0.4c-0.7,3.5-1.3,7-2.1,10.4
		c-1.2,4.6-2.5,9.1-3.8,13.6c-3.2-0.6-6.7,1.6-9.5-1.4c-0.1-0.1-0.3,0-0.8,0.1c0.1,1.9-0.9,2-2.6,1.5c-0.7-0.2-1.6,0.2-2.4,0.3
		s-1.7,0.1-2.5,0s-1.6-0.5-2.4-0.5c-2.2,0.2-4.3,0.6-6.4,0.7c-1.6,0.1-3.3-0.3-4.9-0.3c-4.1,0.1-8.2,0.2-12.2,0.4
		c-3.6,0.2-7.2-2.4-10.8,0.1c-0.3,0.2-1,0-1.5,0c-3.1-0.3-6.1-0.8-9.2-0.9c-1.5,0-3.1,0.9-4.6,0.9c-4.2-0.2-8.3-0.7-12.5-1
		c-1.2-0.1-2.4,0.1-3.6,0.2c-4.5,0.5-8.9,1-13-1.7C1371.5,711.1,1373.3,703.3,1375.1,695.5z"/>
	<path class="st9" d="M1133,610.5c-4.8,0.2-9.5,0.4-14.3,0.5c-2.8,0.1-5.6,0.1-8.4-0.1c-3-0.2-6-0.6-9.1-0.8c-0.6,0-1.3,0-1.7,0.3
		c-1.5,1.2-2.8,1.4-4.4-0.1c-0.4-0.4-1.6-0.3-2.1,0.1c-2.2,1.9-4.5,1-6.8,0.4c-1-0.3-2.3-0.4-3.3-0.1c-2.3,0.9-4.5,0.5-6.7-0.2
		c-1.4-0.4-2.9-0.4-4.4-0.4c-2,0-4.2-0.1-6.1,0.5c-3.7,1.2-7.2,0.4-10.8-0.6c1.7-9,3.4-18,5-27c2.1-0.2,4.1-0.3,6.2-0.5
		c0.5,0,1,0.1,1.5,0.1c1.5,0.1,3,0.3,4.5,0.4c1.3,0.1,2.6,0,3.9-0.1c2.4-0.2,4.9,0,7.1-0.7c1.1-0.4,1.6-0.7,2.4,0.2
		c2.2,2.3,5.2,0.2,7.6,1.4c0.2,0.1,0.6-0.5,1-0.7s0.9-0.5,1.3-0.5c4.8,0.3,9.6,0.6,14.4,0.9c1.4,0.1,2.7,0.6,3.9-0.8
		c0.3-0.3,1.3-0.2,1.9-0.1c3.3,0.1,6.7,0.3,10,0.3c4.1,0.1,8.2,0,12.2,0c-0.5,3.2-0.9,6.4-1.5,9.5
		C1135.4,598.5,1134.1,604.5,1133,610.5z"/>
	<path class="st25" d="M1462.6,741.5c-1.3,4.9-2.7,9.8-4,14.7c-0.3,1.4-1,1.8-2.3,2c-11.2,1.4-22.4,2.8-33.7,4.2
		c-11.5,1.4-22.9,2.8-34.4,4.2c-9.6,1.2-19.3,2.4-28.9,3.6c-0.4,0-0.8,0.1-1.5,0.1c2.3-9.6,4.5-18.9,6.7-28.3
		c2.2,0.1,4.6-1.3,6.5,0.9c0.3,0.3,1.3-0.1,1.9-0.1c2.5-0.2,5.1-0.6,7.7-0.7c1,0,2,0.5,3,0.5c1.3-0.1,2.5-0.5,4-0.8
		c0.1,0.9,0.2,1.5,0.3,2.7c1.6-0.7,2.8-1.2,4.3-1.8c0.5,0.4,1.1,0.8,2.3,1.7c0.6-1,1.3-2,1.7-2.7c1.2,0.5,2,1.1,2.8,1.1
		c2.8,0,5.4-0.8,8.3-0.5c2.6,0.3,5.1,0,7.2,1.9c1.1-1.2,2-2.2,2.9-3.3c0.8,1,1.4,1.6,1.5,1.7c3-0.1,5.4-0.3,7.9-0.4
		c2.4-0.1,4.8,0,7.6,0c1.6,1.7,2.6,1.7,5.2,0c0.5-0.3,1.5-0.4,2-0.1c2.4,1.2,4.6,2.5,7,0c0.3-0.3,1.1-0.1,1.6-0.1
		c2.5,0.2,4.9,0.6,7.4,0.6C1459.2,742.4,1460.9,741.8,1462.6,741.5z"/>
	<path class="st2" d="M1462.6,741.5c-1.7,0.3-3.4,0.9-5.1,0.9c-2.5,0-4.9-0.4-7.4-0.6c-0.5,0-1.3-0.2-1.6,0.1c-2.4,2.6-4.6,1.3-7,0
		c-0.5-0.3-1.5-0.2-2,0.1c-2.6,1.7-3.6,1.7-5.2,0c-2.8,0-5.2,0-7.6,0c-2.4,0.1-4.9,0.2-7.9,0.4c-0.1-0.1-0.6-0.7-1.5-1.7
		c-1,1.1-1.8,2.1-2.9,3.3c-2.1-1.9-4.6-1.6-7.2-1.9c-3-0.3-5.6,0.5-8.3,0.5c-0.8,0-1.6-0.6-2.8-1.1c-0.4,0.7-1.1,1.7-1.7,2.7
		c-1.1-0.8-1.8-1.3-2.3-1.7c-1.4,0.6-2.7,1.1-4.3,1.8c-0.1-1.1-0.2-1.7-0.3-2.7c-1.5,0.3-2.7,0.7-4,0.8c-1,0-2-0.5-3-0.5
		c-2.6,0.1-5.1,0.5-7.7,0.7c-0.7,0.1-1.6,0.4-1.9,0.1c-2-2.2-4.3-0.8-6.5-0.9c1.3-6,2.7-12,4-18c0.4-1.7,0.8-3.4,1.2-5.1
		c4.1,2.7,8.5,2.2,13,1.7c1.2-0.1,2.4-0.3,3.6-0.2c4.2,0.3,8.3,0.8,12.5,1c1.5,0.1,3-0.9,4.6-0.9c3.1,0.1,6.1,0.6,9.2,0.9
		c0.5,0,1.1,0.3,1.5,0c3.6-2.4,7.2,0.1,10.8-0.1c4.1-0.2,8.2-0.4,12.2-0.4c1.6,0,3.3,0.4,4.9,0.3c2.2-0.1,4.3-0.5,6.4-0.7
		c0.8-0.1,1.6,0.4,2.4,0.5s1.7,0.1,2.5,0s1.7-0.5,2.4-0.3c1.6,0.5,2.6,0.4,2.6-1.5c0.5-0.1,0.7-0.2,0.8-0.1c2.8,3,6.4,0.8,9.5,1.4
		C1466.5,727.5,1464.6,734.5,1462.6,741.5z"/>
	<path class="st26" d="M1238.5,528.5c-3.6,0-7.1,0-10.7,0c-5.9-0.1-11.8-0.1-17.7-0.2c-2.8,0-5.6,0.1-8.4,0.1
		c-2.5,0-5.1-0.1-7.6-0.1c-0.2,0-0.4-0.2-0.5-0.1c-3.7,1.7-7.5-0.9-11.3,0.2c-2.5,0.7-5.4-0.3-8.1-0.2c-3.3,0.1-6.5,0.6-9.8,0.7
		c-1.2,0-2.4-0.7-3.5-0.7c-3.8,0.1-7.6-0.5-11.3,0.7c-0.4,0.1-1,0.2-1.4,0c-2.5-1.1-4.8-0.7-7.2,0.4c-0.6,0.3-1.6-0.1-2.4-0.1
		c-5.1-0.2-10.2-0.3-15.3-0.5c-2.9-0.1-5.9-0.9-8.6-0.3c-5.3,1.1-10.6-1-15.7,0.7c-0.8,0.3-1.9-0.3-2.9-0.3
		c-5.5,0.1-10.9-1.7-16.5,0c-2.7,0.8-5.9-0.3-8.9-0.6c0.6-3.7,1.1-7.4,1.7-11.1c3.4-0.1,6.8-0.1,10.2-0.2c0.5,0,1.3-0.1,1.6,0.2
		c1.2,1.5,2.6,0.6,3.9,0.3c1.1-0.2,2.2-0.7,3.3-0.7c1.8,0,3.5,0.3,5.3,0.4c2,0.1,4.1,0.1,6.1,0.1c2.9,0,5.8,0.1,8.7,0.1
		c1.7,0,3.7-0.7,5.1,0c1.5,0.7,2.2,0.9,3.4-0.2c0.5-0.4,1.4-0.4,2.1-0.4c2.8,0.1,5.5,0.4,8.3,0.5c2,0.1,3.9-0.2,5.9-0.1
		c2.8,0.1,5.6,0.5,8.4,0.5c3.5,0,6.9-0.4,10.4-0.4c7.2-0.1,14.4,0,21.6,0c4,0,8.2,0.8,12-0.2c4.1-1.2,7.7,0.9,11.7,0.1
		c4-0.8,8.3,0,12.5,0.1c2.3,0,4.6-0.1,6.9,0c1.8,0.1,3.6,0.4,5.4,0.4c2.4,0,4.7-0.2,7.1-0.4c1.3-0.1,2.6-0.5,4-0.7
		C1236.9,520.3,1237.7,524.4,1238.5,528.5z"/>
	<path class="st7" d="M1236.2,516.2c-1.3,0.3-2.6,0.6-4,0.7c-2.4,0.2-4.7,0.4-7.1,0.4c-1.8,0-3.6-0.3-5.4-0.4c-2.3-0.1-4.6,0-6.9,0
		c-4.2-0.1-8.5-0.9-12.5-0.1c-4,0.8-7.6-1.3-11.7-0.1c-3.7,1-8,0.2-12,0.2c-7.2,0-14.4,0-21.6,0c-3.5,0-6.9,0.4-10.4,0.4
		c-2.8,0-5.6-0.4-8.4-0.5c-2-0.1-3.9,0.1-5.9,0.1c-2.8-0.1-5.5-0.3-8.3-0.5c-0.7,0-1.7,0-2.1,0.4c-1.2,1.1-1.9,0.9-3.4,0.2
		c-1.4-0.7-3.4,0-5.1,0c-2.9,0-5.8-0.1-8.7-0.1c-2,0-4.1,0-6.1-0.1c-1.8-0.1-3.6-0.4-5.3-0.4c-1.1,0-2.2,0.5-3.3,0.7
		c-1.3,0.3-2.6,1.2-3.9-0.3c-0.3-0.3-1-0.2-1.6-0.2c-3.4,0-6.8,0.1-10.2,0.2c0.6-3.6,1.2-7.3,1.8-10.9c2.4-0.2,4.9-0.9,7.1-0.3
		c3.4,0.8,6.7,0.6,10,1c0.7,0.1,1.5,0.5,2.2,0.3c3.1-1.1,6.1-0.9,9.3-0.6c3.6,0.4,7.3-0.5,11-0.6c2.1-0.1,4.1,0.4,6.2,0.5
		c0.7,0,1.5-0.3,2.2-0.4c0.4-0.1,0.9-0.4,1.2-0.2c2,1.6,4.1,0.5,6.2,0.4c1.1,0,2.2,0.4,3.3,0.6c0.5,0.1,1.2,0.2,1.6,0
		c2.6-1.6,5.1-1.6,7.8-0.3c0.3,0.2,0.9,0.3,1.2,0.1c2.6-1.9,5.1-0.7,7.7,0c0.8,0.2,1.9,0.3,2.7,0c4.9-1.6,9.8-0.2,14.6,0
		c0.6,0,1.2-0.1,1.7-0.3c1.8-0.6,3.3-0.6,5.2,0.1c2,0.6,4.4-0.1,6.6-0.2c3.3-0.1,6.7-0.1,10-0.2c1.6,0,3.3-0.2,4.9-0.2
		c1.7,0.1,3.4,0.5,5.1,0.6c2.3,0.1,4.5,0.1,6.8,0.1c1.2,0,2.4-0.1,3.6,0c1.4,0.1,2.7,0.4,4.1,0.3c3.2-0.2,6.5-0.7,9.7-0.8
		c2.6-0.1,5.3,0.2,7.9,0.3C1234.9,509.4,1235.5,512.8,1236.2,516.2z"/>
	<path class="st27" d="M1137.9,583c-4.1,0-8.2,0-12.2,0c-3.3-0.1-6.7-0.2-10-0.3c-0.7,0-1.6-0.2-1.9,0.1c-1.2,1.3-2.5,0.9-3.9,0.8
		c-4.8-0.3-9.6-0.6-14.4-0.9c-0.4,0-0.9,0.3-1.3,0.5s-0.8,0.8-1,0.7c-2.4-1.3-5.4,0.9-7.6-1.4c-0.8-0.8-1.3-0.5-2.4-0.2
		c-2.2,0.8-4.7,0.6-7.1,0.7c-1.3,0.1-2.6,0.1-3.9,0.1c-1.5-0.1-3-0.2-4.5-0.4c-0.5,0-1-0.2-1.5-0.1c-2.1,0.1-4.1,0.3-6.2,0.5
		c1.3-7.3,2.7-14.7,4-22c3.8,0.3,7.6,0.8,11.4,0.9c3.5,0.1,6.9-0.3,10.4-0.4c3-0.1,6.1,0,9.1-0.1c1.2,0,2.5-0.4,3.7-0.4
		c3.3,0.2,6.6,0.7,10,0.8c6.9,0.1,13.8,0.1,20.7,0c4.2,0,8.3-0.3,12.4-0.5C1140.5,568.7,1139.2,575.8,1137.9,583z"/>
	<path class="st15" d="M1141.7,561.5c-4.1,0.2-8.3,0.4-12.4,0.5c-6.9,0.1-13.8,0.1-20.7,0c-3.3-0.1-6.6-0.6-10-0.8
		c-1.2-0.1-2.4,0.3-3.7,0.4c-3,0.1-6.1,0-9.1,0.1c-3.5,0.1-6.9,0.5-10.4,0.4c-3.8-0.1-7.6-0.6-11.4-0.9c1.1-5.9,2.3-11.8,3.4-17.6
		c0.1-0.4,0.3-0.8,0.4-1.1c1.1,0.6,2.1,1.7,3.2,1.7c6.7,0.2,13.4,0.1,20.1,0.1c6-0.1,12-0.4,18-0.4c3.3,0,6.6,0.6,9.9,0.7
		c2.4,0.1,4.9-0.2,7.3-0.2c1.3,0,2.6,0,3.9-0.1c4.9-0.2,9.9-0.4,14.8-0.5C1143.9,549.5,1142.8,555.5,1141.7,561.5z"/>
	<path class="st25" d="M1146.1,538.2c0.6-2.4,2.6-4.2,4.7-4.2c3.7-0.1,5.1,0.7,6.1,3.6C1153.5,533.9,1149.3,534.1,1146.1,538.2z"/>
	<path class="st25" d="M1249,539.6c-1.8,1.5-3.7,1.4-5.6,0C1245.3,539.7,1247.2,539.6,1249,539.6z"/>
	<path class="st2" d="M952.7,700.6c-2,2.4-4,4.9-6.1,7.2c-15.2,16.1-31.7,30.7-50,43.2c-14.7,10.1-30.4,18.6-47.3,24.5
		c-12.4,4.3-25.2,7.1-38.4,7.6c-14.2,0.6-27.6-1.8-40.5-7.3c-8.2-3.5-15.3-8.7-21.7-14.9c-8.7-8.4-15.1-18.4-19.9-29.3
		c-3.2-7.4-5.4-15.2-7.9-22.8c-1-3-1.4-6.1-2.1-9.2c2.6,0.2,5.2,0.6,7.8,0.6c2.7,0,5.3-0.4,8-0.6c1.6-0.1,3.4-0.4,4.8,0.1
		c3.4,1.4,7.1-1.1,10.3,1.2h0.2c1.8-0.2,3.7-0.3,5.5-0.5c3.1-0.3,6.3-0.6,9.4-0.9c0.8-0.1,1.9-0.3,2.4,0.1c2.4,2,4.7,0,7,0.2
		c1.1,0.1,2.3-0.1,3.4,0c2.3,0.2,5,1.6,6.7,0.7c4.1-2.1,8.4-1.1,12.3-0.8c6.9,0.6,13.6,0.3,20.4-0.2c2.3-0.2,5.1-0.9,6.7,0.1
		c2.5,1.5,4.5,0.4,6.8,0.2c1.5-0.1,3.1,0,4.6,0c3.5,0,6.9,0.1,10.4,0.1c2.3,0,4.6-0.3,6.9-0.2c2.3,0.1,4.5,0.7,6.7,1
		c0.3,0,0.7-0.4,1-0.6c0.4-0.2,0.9-0.7,1.3-0.6c3.1,0.1,6.2,0.3,9.3,0.4c1.6,0.1,3.1,0.4,4.7,0.4c7.5-0.2,14.9-0.7,22.4-0.9
		c3.1-0.1,6.2,0.2,9.3,0.4c1.2,0,2.4,0.1,3.7,0.1c2.8-0.1,5.6-0.7,8.3-0.3c1.9,0.3,3.7,0.8,5.6-0.1c0.3-0.1,0.9,0.3,1.4,0.4
		c1,0.1,2.1,0.3,3.1,0.2c4.1-0.2,8.1-0.5,12.2-0.7c1,0,2,0.7,3,0.8C947.4,700.5,950.1,700.5,952.7,700.6z"/>
	<path class="st11" d="M817,383.4c3.6-4.2,7.1-8.5,11-12.5c6.4-6.7,12.7-13.7,19.8-19.7c8.3-7,17.1-13.4,26-19.6
		c10.9-7.7,22.9-13.6,35.4-18.3c7.5-2.8,15.5-4.6,23.3-6.2c5.8-1.2,11.9-1.5,17.8-2c9.4-0.8,18.6,0.5,27.7,2.4
		c9.6,2.1,18.6,5.9,26.8,11.2c8.3,5.4,15.3,12.4,20.2,21.1c3.4,6,7,12,9.5,18.3c2.8,7.1,4.4,14.7,6.5,22c0.2,0.8,0.3,1.5,0.5,2.3
		c-4.2,2.3-8.8,1.6-13.3,1.4c-2.2-0.1-4.3-0.6-6.5-0.6c-2.7,0-5.5,0.3-8.2,0.6c-1.2,0.1-2.3,0.6-3.5,0.6c-2.7-0.1-5.4-0.5-8.1-0.6
		c-1.7,0-3.4,0.5-5.1,0.4c-2.4-0.1-5.1-1.4-7.1-0.7c-2,0.7-3.5,0.4-5.3,0c-0.6-0.1-1.3,0-1.9,0.1c-1,0.1-2.1,0.2-3.1,0.2
		c-3.7-0.2-7.5-0.4-11.2-0.6c-0.3,0-0.7,0.2-0.9,0.4c-1.4,1.4-3,1-4.6,0.7c-2.3-0.5-4.8-1-7.1-0.9c-5,0.2-10,0.8-14.9,1.2
		c-1.4,0.1-2.8-0.2-4.2-0.3c-2.1-0.1-4.3-0.3-6.4-0.4c-1.6,0-3.2,0.2-4.7,0.1c-3.1-0.2-6.1-0.6-9.2-0.9c-0.5,0-0.9,0.3-1.4,0.4
		c-1.8,0.2-3.7,0.6-5.5,0.6c-2.3,0-4.6-0.3-6.9-0.5c-2.9-0.1-5.9-0.3-8.8-0.3c-2.4,0-4.9-0.1-7.3,0.1c-2.4,0.1-4.7,0.6-7.1,0.7
		c-1.5,0.1-3.2,0.2-4.6-0.3c-2.5-0.8-5.2,2.1-7.4-0.6c-0.2-0.2-1,0.2-1.6,0.3c-0.6,0.1-1.2,0.3-1.8,0.3c-3.3-0.2-6.7-0.6-10-0.6
		c-3.6,0.1-7.2,0.6-10.7,0.8c-1.5,0.1-3.1,0.2-4.6,0c-1.8-0.3-3.6-0.9-5.5-1.3c-0.5-0.1-1.1,0-1.7,0.2c-1.5,0.4-3.1,1-4.6,1.1
		c-2.8,0.3-5.6,0.3-8.4,0.3C817.7,384.3,817.3,383.7,817,383.4z"/>
	<path class="st6" d="M499.6,375.5c0.7-5.7,1.4-11.3,2-17c0.5-4.7,0.9-9.4,1.4-14.1c0.2-1.8,0.3-3.6,0.7-5.4
		c0.1-0.6,0.9-1.4,1.6-1.6c9-2.6,18-5.3,27.1-7.4c9.7-2.3,19.5-4.3,29.3-6c9.7-1.7,19.4-3.1,29.2-4.3c24.2-3,48.6-3.9,73-4.2
		c10.1-0.1,20.2,0.7,30,3.1c11,2.7,21.6,6.6,30.4,14.2c7,6.1,11.6,13.7,14.8,22.4c2.3,6.2,3.4,12.7,4.2,19.2
		c-1.9,0.7-3.9,1.9-5.8,1.9c-3.1-0.1-6.3-1.1-9.4-1.6c-0.8-0.1-1.9-0.1-2.3,0.3c-1.4,1.4-2.6,1-4-0.1c-1.9,2.4-4.5,2.2-6.6,1.3
		c-2.5-1.2-4.4-1.6-6.5,1.3c-0.2-2.6-1.2-2.3-2.8-2.2c-2.4,0.2-4.8,1-7.3-0.2c-1.3-0.7-3-1-4.3,0.6c-0.4,0.5-1.5,0.5-2.2,0.4
		c-2.8-0.4-5.7-1.4-8.4,0.6c-0.3,0.2-1.2-0.2-1.7-0.4c-0.6-0.2-1.2-0.7-1.8-0.8c-2.5-0.1-4.9-0.1-7.4,0c-4.3,0.1-8.6-0.1-12.8,0.6
		c-3.3,0.6-6.6-2.2-9.8,0.3c-0.2,0.1-0.6-0.2-0.9-0.2c-4.3-0.3-8.5-0.5-12.8-0.7c-0.5,0-0.9,0.3-1.4,0.4c-0.7,0.1-1.4,0.2-2.1,0.1
		c-2.9-0.3-5.8-1.3-8.7,0.1c-0.8,0.4-1.9,0.4-2.8,0.3c-3.4-0.4-6.7-1.2-10.1-1.3c-2.4,0-4.6,1.9-7.3,0c-1.2-0.8-3.7,0.1-5.6,0.4
		c-2.3,0.3-4.5,0.7-6.6-0.8c-0.2-0.2-0.9,0.2-1.3,0.2c-0.8,0.1-1.6,0.1-2.3,0.3c-0.8,0.1-1.7,0.4-2.5,0.5c-0.7,0.1-1.5,0.2-2.2,0.2
		c-0.8,0-1.6-0.2-2.3-0.2c-1.8,0-3.6,0.2-5.3,0.1c-2.1-0.2-4.1-0.6-6.1-0.9c-0.7-0.1-1.5,0.1-2.2,0.2c-2.3,0.3-4.5,0.6-6.8,0.7
		c-1.3,0.1-2.8-0.8-3.9-0.3c-1.9,0.8-3.2,0.6-4.3-0.9c-4.8,1.5-9.6,1.4-14.4,1.1c-3.4-0.2-6.9,0.2-10.9,0.4
		c-0.6-1.1-2.1-0.7-3.8-0.4c-2,0.3-4-0.3-6-0.1c-2.8,0.4-5.7-1.2-8.5,0.5c-1.1,0.6-2.9,1-3.7-1.1c-0.6-1.6-1.8-1.3-3.1-0.7
		C501.5,374.9,500.5,375.2,499.6,375.5z"/>
	<path class="st14" d="M952.7,700.6c-2.7-0.1-5.3-0.1-8-0.3c-1-0.1-2-0.8-3-0.8c-4.1,0.1-8.1,0.5-12.2,0.7c-1,0-2.1-0.1-3.1-0.2
		c-0.5-0.1-1.1-0.5-1.4-0.4c-1.9,0.8-3.6,0.3-5.6,0.1c-2.7-0.4-5.5,0.2-8.3,0.3c-1.2,0.1-2.4,0-3.7-0.1c-3.1-0.1-6.2-0.4-9.3-0.4
		c-7.5,0.2-14.9,0.6-22.4,0.9c-1.6,0.1-3.1-0.3-4.7-0.4c-3.1-0.2-6.2-0.3-9.3-0.4c-0.4,0-0.9,0.4-1.3,0.6c-0.4,0.2-0.7,0.7-1,0.6
		c-2.3-0.3-4.5-0.9-6.7-1c-2.3-0.1-4.6,0.2-6.9,0.2c-3.5,0-6.9-0.1-10.4-0.1c-1.5,0-3.1-0.1-4.6,0c-2.2,0.1-4.2,1.3-6.8-0.2
		c-1.7-1-4.5-0.3-6.7-0.1c-6.8,0.5-13.5,0.8-20.4,0.2c-3.9-0.4-8.2-1.3-12.3,0.8c-1.7,0.9-4.4-0.5-6.7-0.7c-1.1-0.1-2.3,0.1-3.4,0
		c-2.3-0.2-4.7,1.8-7-0.2c-0.5-0.4-1.6-0.2-2.4-0.1c-3.1,0.3-6.3,0.6-9.4,0.9c-1.8,0.2-3.7,0.3-5.5,0.5c-0.1,0-0.2,0.1-0.2,0
		c-3.2-2.3-7,0.1-10.3-1.2c-1.4-0.6-3.2-0.2-4.8-0.1c-2.7,0.1-5.3,0.6-8,0.6c-2.6,0-5.2-0.4-7.8-0.6c-2.3-11.4-3.7-22.9-3.8-34.5
		c2.4,0,4.8-0.1,7.1-0.1c1.2,0,2.4,0.2,3.6,0.2c3.2,0,6.4,0,9.6,0c0.4,0,0.8,0.3,1.2,0.3c1.4,0,3,0.4,4.2-0.1c2-0.9,3.8-1.6,5.7,0
		c0.4,0.3,1.1,0.3,1.7,0.2c2-0.1,4-0.3,6-0.4c2.2-0.1,4.8-0.9,6.6-0.1c3.7,1.6,7.6-1.5,11.1,0.9c0.1,0.1,0.5-0.1,0.7-0.2
		c3.3-1.5,6.8-1.2,10.3-1.1c1,0,2.1,0,3.1,0.1c2.4,0.1,4.9,0.2,7.3,0.3c4.1,0.2,8.1,0.4,12.2,0.4c0.6,0,1.1-0.8,1.7-1.3
		c4.1,4.6,7.9,9.5,12.4,13.6c3.1,2.8,7.1,4.9,11,6.6c5.2,2.3,10.7,2.6,16.5,1.7c6.1-0.9,12.3-1,18.4-2.8c6.9-2.1,13.5-4.9,19.5-8.8
		c10.4-6.8,19.4-15.3,27.4-24.8c3-3.6,5.9-7.1,8.9-10.7c2.4,0.3,4.8,0.8,7.2,1c1.1,0.1,2.2-0.9,3.3-0.8c4.9,0,9.8,0.2,14.7,0.5
		c1.2,0.1,2.4,0.8,3.6,0.8c3.2-0.1,6.5-0.6,9.7-0.8c0.8,0,1.6,0.3,2.4,0.5c0.6,0.1,1.2,0.2,1.8,0.2c1.4-0.2,2.7-0.5,4.1-0.7
		c5.3-0.7,10.6,0.7,16-0.2c3.4-0.6,7.4-0.6,10.8,1.2c-3.8,6.3-7.4,12.8-11.3,19c-9,14.4-19.4,27.7-30.4,40.6
		C953.2,700.3,952.9,700.4,952.7,700.6z"/>
	<path class="st13" d="M499.6,375.5c0.9-0.3,1.9-0.6,2.8-1.1c1.3-0.6,2.4-0.9,3.1,0.7c0.8,2.1,2.7,1.7,3.7,1.1
		c2.8-1.7,5.7-0.1,8.5-0.5c2-0.3,4,0.3,6,0.1c1.7-0.2,3.3-0.7,3.8,0.4c4-0.2,7.5-0.6,10.9-0.4c4.8,0.3,9.5,0.4,14.4-1.1
		c1,1.5,2.4,1.7,4.3,0.9c1.1-0.4,2.6,0.4,3.9,0.3c2.3-0.1,4.5-0.5,6.8-0.7c0.7-0.1,1.5-0.3,2.2-0.2c2.1,0.2,4.1,0.7,6.1,0.9
		c1.8,0.1,3.5-0.1,5.3-0.1c0.8,0,1.6,0.2,2.3,0.2s1.5-0.1,2.2-0.2c0.8-0.1,1.6-0.4,2.5-0.5c0.8-0.1,1.6-0.2,2.3-0.3
		c0.5-0.1,1.1-0.4,1.3-0.2c2.1,1.6,4.3,1.1,6.6,0.8c1.9-0.2,4.4-1.2,5.6-0.4c2.7,1.9,4.9,0,7.3,0c3.4,0.1,6.7,0.9,10.1,1.3
		c0.9,0.1,2,0.1,2.8-0.3c2.9-1.4,5.8-0.4,8.7-0.1c0.7,0.1,1.4,0,2.1-0.1c0.5-0.1,0.9-0.4,1.4-0.4c4.3,0.2,8.5,0.5,12.8,0.7
		c0.3,0,0.8,0.3,0.9,0.2c3.2-2.5,6.5,0.3,9.8-0.3c4.2-0.7,8.5-0.5,12.8-0.6c2.5-0.1,4.9-0.1,7.4,0c0.6,0,1.2,0.5,1.8,0.8
		c0.6,0.2,1.4,0.7,1.7,0.4c2.7-2.1,5.5-1,8.4-0.6c0.7,0.1,1.9,0,2.2-0.4c1.3-1.6,3-1.2,4.3-0.6c2.5,1.3,4.9,0.4,7.3,0.2
		c1.5-0.1,2.6-0.4,2.8,2.2c2.1-2.9,4-2.5,6.5-1.3c2,1,4.7,1.1,6.6-1.3c1.4,1.1,2.7,1.5,4,0.1c0.4-0.4,1.6-0.4,2.3-0.3
		c3.1,0.5,6.3,1.5,9.4,1.6c1.9,0.1,3.8-1.2,5.8-1.9c0.4,7.4,1,14.9,1,22.3c0.1,9.2-1.8,18.3-4,27.2c-0.6,2.6-1.6,5-2.4,7.6
		c-1,0-1.9,0.2-2.9,0.1c-1.9-0.2-3.9-0.7-5.8-0.7c-2.6-0.1-5.1,0-7.7,0.2c-1.7,0.1-3.3,0.7-5,0.8c-1.2,0.1-2.5-0.3-3.7-0.6
		c-0.4-0.1-0.9-0.5-1.3-0.5c-1.9,0.2-3.7,0.5-5.6,0.6c-3,0.1-6.1,0.2-9.1,0.1c-4.1-0.1-8.3-0.3-12.4-0.5c-1.5-0.1-2.9-0.4-4.4-0.6
		c0.1-1.7,0.4-3.3,0.4-5c0-4.3,0.7-8.7-1.5-12.7c-2.6-4.9-6.7-8.2-11.5-10.7c-8.7-4.4-18.1-5.5-27.6-5.8
		c-15.6-0.4-31.3-0.1-46.9-0.1c-2.8,0-4.8,1.9-5.4,4.7c-1.2,5.7-2.4,11.4-3.6,17.1c-2.6-0.1-5.2-0.1-7.7-0.2
		c-1.7-0.1-3.5-0.3-5.2-0.2c-2.3,0-4.5,0.4-6.8,0.4c-4.3-0.1-8.5-0.4-12.8-0.4c-3.5,0-7,0.4-10.5,0.4c-2.6,0-5.3-0.7-7.9-0.3
		c-3.8,0.6-7.5-0.7-11.5,0.6c-3.6,1.1-7.9,0.4-11.8-0.1c-2.7-0.3-5.2-0.7-6.8,0.9c-1.4-0.5-2.3-1-3.2-1c-2.2-0.1-4.5,0-6.7,0
		c1-6.8,1.9-13.6,2.9-20.3C497.1,390.3,498.4,382.9,499.6,375.5z"/>
	<path class="st24" d="M534.8,675.6c-2.5,12.6-5.1,25.2-7.5,37.9c-2.2,11.3-4.2,22.7-6.3,34.1c-0.2,1.1-0.7,2.1-0.7,3.2
		c0.2,3.9-2.2,4.7-5.4,5.5c-17.1,4.2-34.2,8.8-51.3,13.2c-12.5,3.2-25,6.4-37.8,9.7c0.1-1.1,0.2-2,0.4-2.8c1.8-9,3.7-17.9,5.5-26.9
		c2.1-10.5,4.1-21,6.2-31.5c1.7-8.5,3.6-17.1,5.3-25.6c1-4.8,1.8-9.6,2.8-14.4c0.2-0.8,0.4-1.6,0.7-2.4c1.6-0.1,3.3-0.4,4.9-0.4
		c4.2,0.1,8.5,0.3,12.7,0.5c0.6,0,1.3,0.2,1.7-0.1c3-2.2,6.1-0.3,9.1,0c4.8,0.4,9.5,1,14.2-0.5c0.6-0.2,1.2,0,1.9,0
		c2.1,0,4.2,0.1,6.3,0.1c0.5,0,1.2-0.6,1.4-0.4c2.3,2.2,4.8,0.3,7.2,0.4c0.5,0,1.1-0.1,1.5,0.1c3.4,1.5,6.8,1.1,10.1-0.3
		c0.3-0.1,0.6-0.2,1-0.1c2.1,0.2,4.3,0.5,6.4,0.7c0.1-0.2,0.1-0.5,0.2-0.7c0.4,0.6,0.8,1.2,1.3,1.8
		C529.2,674.9,531.9,674.3,534.8,675.6z"/>
	<path class="st17" d="M817,383.4c0.3,0.3,0.7,0.9,1,0.9c2.8,0,5.6-0.1,8.4-0.3c1.6-0.2,3.1-0.8,4.6-1.1c0.5-0.1,1.1-0.3,1.7-0.2
		c1.8,0.4,3.6,1,5.5,1.3c1.5,0.2,3.1,0.1,4.6,0c3.6-0.2,7.2-0.8,10.7-0.8c3.3-0.1,6.6,0.4,10,0.6c0.6,0,1.2-0.1,1.8-0.3
		c0.6-0.1,1.4-0.5,1.6-0.3c2.3,2.7,5-0.2,7.4,0.6c1.4,0.5,3.1,0.3,4.6,0.3c2.4-0.1,4.7-0.6,7.1-0.7c2.4-0.1,4.9-0.1,7.3-0.1
		c2.9,0.1,5.9,0.2,8.8,0.3c2.3,0.1,4.6,0.5,6.9,0.5c1.8,0,3.7-0.3,5.5-0.6c0.5-0.1,1-0.4,1.4-0.4c3.1,0.3,6.1,0.7,9.2,0.9
		c1.6,0.1,3.2-0.2,4.7-0.1c2.1,0.1,4.3,0.2,6.4,0.4c1.4,0.1,2.8,0.4,4.2,0.3c5-0.3,9.9-1,14.9-1.2c2.4-0.1,4.8,0.4,7.1,0.9
		c1.7,0.3,3.3,0.8,4.6-0.7c0.2-0.2,0.6-0.4,0.9-0.4c3.7,0.2,7.5,0.4,11.2,0.6c1,0,2.1-0.1,3.1-0.2c0.6,0,1.3-0.2,1.9-0.1
		c1.8,0.4,3.2,0.7,5.3,0s4.7,0.6,7.1,0.7c1.7,0.1,3.4-0.4,5.1-0.4c2.7,0.1,5.4,0.5,8.1,0.6c1.2,0,2.3-0.5,3.5-0.6
		c2.7-0.3,5.5-0.6,8.2-0.6c2.2,0,4.3,0.5,6.5,0.6c4.5,0.2,9.1,0.9,13.3-1.4c0.7,2.9,1.5,5.8,2.1,8.7c0.6,3.5,1.1,7,1.5,10.5
		c0.5,4.6,0.9,9.3,1.4,13.9c-1,0.1-2,0.2-3,0.2c-0.4-0.5-0.9-1.1-1.3-1.8c-1.9,2-3.5,2.4-5.4,1.8c-1.1-0.4-2.4-0.8-3.5-0.7
		c-4.4,0.1-8.7,0.3-13.1,0.4c-1.6,0-3.5-0.7-4.9-0.2c-2.1,0.8-3.7,0.9-5.2-0.7c-0.9,0.5-1.6,1.3-2.3,1.3c-2-0.2-3.8-0.6-6-0.2
		c-3,0.5-6.1-0.2-9.2-0.1c-7.8,0.1-15.6,0.3-23.4,0.5c-0.6,0-1.2-0.1-1.7-0.1c-3.8-0.2-7.6-0.6-11.4-0.6c-3,0-6,0.5-9,0.6
		c-3.3,0.1-6.6-0.1-10-0.2c-2.2,0-4.3-0.1-6.5-0.1c-2-0.1-4-0.4-6-0.3c-3.2,0.1-6.5,0.6-9.7,0.7c-3.8,0-7.6-0.2-11.3-0.3
		c-0.7,0-1.6,0.1-2.1-0.2c-1.7-1.2-3.2-1.2-4.8,0c-0.6,0.4-1.4,0.6-2.1,0.6c-3.2,0-6.5-1.4-9.6,0.5c-0.2,0.1-0.5,0-0.7,0
		c-3.3-0.6-6.6-1.3-9.8-1.9c-0.5-0.1-1.1,0.4-1.6,0.4c-2.3,0.4-4.6,1-6.9,0.9c-2.9,0-5.7-0.9-8.6-0.9c-4.6-0.1-9.2,0.3-13.8,0.4
		c-5.2,0.1-10.5-0.4-15.7,0.1c-4.5,0.4-9,0-13.4,0.1c-4,0.1-8.1,0.5-12.1,0.1c-2.7-0.3-5.8,0.9-8.2-1.4c5.4-7.5,10.8-15,16.3-22.4
		C812.4,389,814.7,386.2,817,383.4z"/>
	<path class="st27" d="M464.1,585c1.3-7.1,2.7-14.1,4-21.2c1.2-6.1,2.3-12.2,3.5-18.3c4.5-0.3,9,1.2,13.5,0c0.4-0.1,1,0.2,1.5,0.2
		c2.7,0.2,5.4,0.7,8.1,0.6c6.4-0.2,12.8-1,19.2-1c4.5,0,9,0.8,13.4,1.2c0.7,0.1,1.5,0.1,2.2,0c3.2-0.3,6.3-0.6,9.5-1
		c1-0.1,2.2-0.7,2.9-0.3c3.2,1.8,6.5,0.4,9.7,0.3c5.1-0.1,10.1,0.4,15.1,0.7c0.2,0,0.5,0.2,0.7,0.2c2.8-0.1,5.5-0.3,8.3-0.4
		c2.8-0.1,5.5,0,8.3,0c4.3-0.1,8.6-0.3,12.9-0.4c3.3-0.1,6.7-0.1,10,0c1.7,0.1,3.5,0.8,5.2,0.7c7.2-0.2,14.5-0.6,21.7-0.8
		c0.6,0,1.3,0.3,1.9,0.3c1.7,0.1,3.4,0.2,5.1,0.2c2.2,0,4.5-0.1,6.7,0c0.3,0,0.7,0.8,1,1.2c-3.2,2-6.5,4-9.7,6.1
		c-1.1,0.7-2.2,1.5-3.1,2.4c-2.6,2.5-2.9,4.7-1.4,8.1c3.2,7,6.3,14,9.4,21c-4.5,0-9,0-13.5,0.1c-2,0-3.9,0.3-5.9,0.4
		c-2,0.1-4.1,0.1-6.1,0c-5-0.2-10.1,1.2-15.2-0.5c-1.4-0.5-3-0.2-4.5-0.1c-3.3,0.2-6.6,0.6-10,0.6c-5.7,0-11.4-0.3-17-0.3
		c-5.1,0-10.1,0.4-15.2,0.4c-8,0-16-0.3-23.9-0.4c-1.5,0-3,0.5-4.4,0.4c-3.7-0.1-7.5-0.4-11.2-0.4c-1.7,0-3.4,0.9-5.1,0.8
		c-5.5-0.2-11.1-0.7-16.6-0.8c-4.8-0.1-9.6,0.6-14.3,0.4c-4.3-0.2-8.6,0.3-12.9-0.8c-0.3-0.1-0.8,0.3-1.2,0.3
		C465.8,585,464.9,585,464.1,585z"/>
	<path class="st24" d="M685.6,682.8c2.6,6,5.3,12,7.8,18c4.8,11.6,9.4,23.3,14.1,34.9c0.1,0.3,0.2,0.6,0.3,1.2
		c-29.9,10.5-59.8,21.1-90,31.7c-1.7-5.6-3.5-11.1-5.2-16.7c-2.9-9.5-5.8-18.9-8.6-28.4c-3-10.3-6-20.6-9-30.9
		c-0.8-2.9-1.6-5.8-2.3-8.6c1.8,0.2,3.7,0.6,5.5,0.6c5.3-0.1,10.6-1.5,16-0.2c1.1,0.3,2.3,0,3.5-0.1c1.9-0.1,3.7-0.3,5.6-0.3
		c3.7,0,7.5,0.4,11.2,0.3c6.4-0.1,12.8-0.5,19.3-0.6c2.8-0.1,5.5,0.2,8.3,0.3c1.6,0.1,3.3,0.4,4.9,0.4c4,0,7.9,0,11.9-0.2
		C681.2,684.1,683.9,685.7,685.6,682.8z"/>
	<path class="st28" d="M464.1,585c0.9,0,1.7,0,2.6-0.1c0.4,0,0.8-0.4,1.2-0.3c4.2,1.1,8.6,0.6,12.9,0.8c4.8,0.2,9.6-0.4,14.3-0.4
		c5.5,0.1,11.1,0.7,16.6,0.8c1.7,0.1,3.4-0.8,5.1-0.8c3.7,0,7.5,0.3,11.2,0.4c1.5,0,3-0.4,4.4-0.4c8,0.1,16,0.4,23.9,0.4
		c5.1,0,10.1-0.4,15.2-0.4c5.7,0,11.4,0.3,17,0.3c3.3,0,6.6-0.4,10-0.6c1.5-0.1,3.2-0.4,4.5,0.1c5,1.7,10.1,0.2,15.2,0.5
		c2,0.1,4.1,0.1,6.1,0s3.9-0.3,5.9-0.4c4.5-0.1,9-0.1,13.5-0.1c2.2,4.9,4.5,9.9,6.7,14.8c1.8,4,3.5,8,5.2,12
		c1.5,3.4,2.8,6.8,4.2,10.3c-1,0-1.9,0-2.9,0c-2.1,0.1-4.1,0.3-6.2,0.3c-2.3,0.1-4.6-0.1-6.9,0.1c-1.6,0.1-3.4,1.2-4.8,0.8
		c-4.6-1.3-9.2-1.9-13.8-0.3c-0.8,0.3-1.8-0.1-2.7-0.3c-2.9-0.4-5.9-0.8-8.8-1.1c-0.4,0-0.8,0.3-1.2,0.3c-0.9,0.1-1.7,0.2-2.6,0.2
		c-2.7,0-5.5-0.2-8.2-0.1c-3.7,0.2-7.4,0.6-11.2,0.8c-5,0.2-10,0.2-15.1,0.3c-1.9-7.8-3.9-15.6-5.8-23.4c-0.4-1.9-0.6-3.8-0.9-5.7
		c-0.8-5.3-3.3-7-8.4-6.3c-2.4,0.4-5,1-7.1,2.1c-1.8,0.9-3.2,2.6-3.6,5.1c-1.7,9.7-3.7,19.4-5.5,29.1c-4.1-0.3-8.2-0.6-12.3-0.9
		c-0.4,0-0.9,0.3-1.4,0.4c-2.1,0.3-4.3,1.1-6.1,0.6c-2-0.6-3.6-1.4-6-0.8c-3.1,0.8-6.7-0.2-9.6,0.8c-4.9,1.7-9.4-1.1-14.1-0.4
		c-3.2,0.4-6.7-0.5-10-0.7c-0.5,0-0.9,0.4-1.4,0.5c-1.1,0.2-2.2,0.5-3.3,0.5c-2.1,0-4.1-0.4-6.2-0.4c-5.8-0.1-11.5-0.1-17.3-0.1
		c2.2-11.2,4.4-22.4,6.5-33.6C463.5,588.2,463.8,586.6,464.1,585z"/>
	<path class="st26" d="M648.6,547.3c-0.3-0.4-0.7-1.2-1-1.2c-2.2-0.1-4.5,0-6.7,0c-1.7,0-3.4-0.1-5.1-0.2c-0.7,0-1.3-0.3-1.9-0.3
		c-7.2,0.3-14.5,0.6-21.7,0.8c-1.7,0-3.4-0.7-5.2-0.7c-3.3-0.1-6.7-0.1-10,0c-4.3,0.1-8.6,0.3-12.9,0.4c-2.8,0.1-5.5-0.1-8.3,0
		s-5.5,0.3-8.3,0.4c-0.2,0-0.5-0.2-0.7-0.2c-5-0.3-10-0.8-15.1-0.7c-3.1,0.1-6.5,1.5-9.7-0.3c-0.7-0.4-1.9,0.2-2.9,0.3
		c-3.2,0.3-6.3,0.7-9.5,1c-0.7,0.1-1.5,0.1-2.2,0c-4.5-0.4-9-1.2-13.4-1.2c-6.4,0-12.8,0.8-19.2,1c-2.7,0.1-5.4-0.3-8.1-0.6
		c-0.5,0-1-0.3-1.5-0.2c-4.5,1.2-9-0.3-13.5,0c0.4-2.9,0.8-5.9,1.4-8.8c1.2-6.7,2.4-13.4,3.6-20.2c4.1,0,8.2,0,12.3-0.1
		c4.8-0.1,9.5-0.6,14.3-0.6c6.6,0,13.1,0.5,19.7,0.4c5.2,0,10.4-1,15.5,0.7c0.5,0.2,1.1-0.1,1.7-0.2c2.3-0.4,4.7-1.2,7-1.2
		c4.7,0.1,9.4,0.7,14.1,0.9c2.7,0.1,5.5-0.3,8.3-0.4c2.9-0.1,5.8,0,8.7,0c1.9,0,3.7-0.1,5.6-0.1c2.8-0.1,5.5-0.2,8.3-0.2
		c1.4,0,2.9,0.3,4.3,0.3c2.1,0,4.1-0.1,6.2-0.2c0.9,0,1.8-0.3,2.7-0.2c2,0.2,4,0.6,6,0.7c1.5,0.1,3-0.3,4.4-0.3
		c3.1,0.1,6.2,0.4,9.3,0.4c1.7,0,3.4-0.4,5-0.4c2.8,0,5.6,0.2,8.4,0.2c3.3,0,6.6-0.2,10-0.2c4.7,0,9.5,0.2,14.2,0.3
		c3.2,0,6.5-0.2,9.7-0.2c2.1,0,4.2,0.7,6.2,0.7c3-0.1,6.1-0.5,9.1-0.8c-2.4,2.4-4.8,4.8-7.3,7.1c-9.1,8.5-19,16-29.3,22.8
		C650.2,546.5,649.4,546.8,648.6,547.3z"/>
	<path class="st7" d="M687.6,516c-3,0.3-6.1,0.7-9.1,0.8c-2.1,0-4.2-0.6-6.2-0.7c-3.2-0.1-6.4,0.2-9.7,0.2c-4.7,0-9.5-0.2-14.2-0.3
		c-3.3,0-6.6,0.2-10,0.2c-2.8,0-5.6-0.2-8.4-0.2c-1.7,0-3.4,0.5-5,0.4c-3.1,0-6.2-0.3-9.3-0.4c-1.5,0-3,0.3-4.4,0.3
		c-2-0.1-4-0.6-6-0.7c-0.9-0.1-1.8,0.1-2.7,0.2c-2.1,0.1-4.1,0.2-6.2,0.2c-1.4,0-2.9-0.3-4.3-0.3c-2.8,0-5.5,0.2-8.3,0.2
		c-1.9,0.1-3.7,0.1-5.6,0.1c-2.9,0-5.8,0-8.7,0c-2.8,0.1-5.5,0.5-8.3,0.4c-4.7-0.2-9.4-0.8-14.1-0.9c-2.3,0-4.7,0.8-7,1.2
		c-0.6,0.1-1.2,0.4-1.7,0.2c-5.1-1.7-10.3-0.7-15.5-0.7c-6.6,0-13.1-0.4-19.7-0.4c-4.8,0-9.5,0.5-14.3,0.6
		c-4.1,0.1-8.2,0.1-12.3,0.1c0.9-5.2,1.8-10.4,2.6-15.6c0.1-0.8,0.3-1.6,0.4-2.4c2.1,0,4.2-0.1,6.2,0c3.9,0.2,7.8,0.6,11.8,0.9
		c0.5,0,1-0.1,1.5-0.2c1.3-0.2,2.6-0.7,3.9-0.7c4.8,0,9.6,0.4,14.4,0.4c5.4,0,10.8-0.3,16.2-0.4c3.5-0.1,7-0.1,10.4,0
		c1.7,0.1,3.3,0.7,5,1.1c0.4,0.1,0.8,0.1,1.1,0c2-0.4,4-0.9,6-1.1c2-0.3,4.1-0.4,6.2-0.3c1.8,0.1,3.6,0.5,5.3,0.8
		c-0.1,1.6-0.1,3.2-0.1,4.7c0,3.8,1.8,5.7,5.5,5.6c2.1-0.1,4.2-0.4,6.2-0.8c10.9-1.9,20.8-6.7,30.2-12.3c6.6-3.9,13.1-8.1,19.6-12.2
		c0.3,0.3,0.6,0.9,0.9,0.9c3.8-0.1,7.5-0.3,11.3-0.4c6.3-0.2,12.7-0.4,19-0.5c3.3,0,6.6,0.4,9.9,0.4c3.8,0,7.6-0.4,11.5-0.4
		c4.7-0.1,9.4-0.1,14.1,0c1.8,0,3.8,0.8,5.5,0.3c3.9-1,7.4,0.2,10.9,1.2C704.3,496,696.6,506.5,687.6,516z"/>
	<path class="st21" d="M793.9,414.4c2.4,2.3,5.5,1.1,8.2,1.4c4,0.4,8.1,0,12.1-0.1c4.4-0.1,8.9,0.4,13.4-0.1
		c5.2-0.5,10.5-0.1,15.7-0.1c4.6-0.1,9.2-0.5,13.8-0.4c2.9,0,5.7,0.9,8.6,0.9c2.3,0,4.6-0.6,6.9-0.9c0.6-0.1,1.1-0.5,1.6-0.4
		c3.3,0.6,6.6,1.2,9.8,1.9c0.2,0,0.6,0.1,0.7,0c3.1-1.9,6.4-0.5,9.6-0.5c0.7,0,1.6-0.2,2.1-0.6c1.6-1.2,3.1-1.2,4.8,0
		c0.5,0.4,1.4,0.2,2.1,0.2c3.8,0.1,7.6,0.4,11.3,0.3c3.2,0,6.5-0.5,9.7-0.7c2-0.1,4,0.2,6,0.3c2.2,0.1,4.3,0.1,6.5,0.1
		c3.3,0.1,6.6,0.2,10,0.2c3-0.1,6-0.6,9-0.6c3.8,0,7.6,0.4,11.4,0.6c0.6,0,1.2,0.1,1.7,0.1c7.8-0.2,15.6-0.4,23.4-0.5
		c3.1,0,6.2,0.7,9.2,0.1c2.2-0.4,4,0,6,0.2c0.6,0.1,1.4-0.8,2.3-1.3c1.5,1.6,3.1,1.5,5.2,0.7c1.4-0.5,3.2,0.2,4.9,0.2
		c4.4-0.1,8.7-0.4,13.1-0.4c1.2,0,2.4,0.4,3.5,0.7c1.9,0.6,3.5,0.2,5.4-1.8c0.5,0.6,0.9,1.2,1.3,1.8c1-0.1,2-0.2,3-0.2
		c0.5,7.2,1,14.3,1.5,21.5c-5.3,0-10.7,0.1-16,0.1c-5.2,0-10.4-0.1-15.6-0.1c-3.4,0-6.7,0.2-10.1,0.3c-0.3,0-0.7,0-0.9-0.2
		c-1.9-1.4-3.9-1-5.9-0.2c-0.9,0.3-1.9,0.4-2.9,0.5c-2.6,0.1-5.2-2.2-7.9-0.1c-0.1,0.1-0.6-0.2-0.9-0.2c-1.4-0.1-2.7-0.3-4.1-0.3
		c-2.6,0-5.3,0.2-7.9,0.2c-2,0-4.1-0.1-6.1,0c-1.8,0.1-3.6,0.5-5.4,0.4c-4.4-0.2-8.8-0.5-13.3-0.8c-6-4.4-13-5.6-20.2-5.3
		c-2.7,0.1-5.4,0.5-8.1,0.7c-0.6-2.4-2.8-1.7-3.9-1.3c-4,1.2-7.7-0.7-11.6-0.3c-3.3,0.3-6.7,0-10,0.1c-3.7,0.1-7.4,1.5-11.2,0.1
		c-1.2-0.4-2.8,0.2-4.2,0.3c-0.7,0.1-1.5,0-2.2,0c-2.4-0.2-4.8-0.4-7.2-0.5c-3.2-0.1-6.4,0.1-9.6,0.1c-3.2,0-6.4-0.1-9.6,0
		c-2.9,0.1-5.9,0.6-8.8,0.7c-4.3,0.2-8.4-1.3-13-0.6c-5.2,0.8-10.8-0.3-16.2-0.6c-1.9-0.1-4.5-0.8-5.7,0.1c-2.7,2-5.4,0.8-7.7,0.5
		c-4.8-0.7-9.4-0.5-14.1-0.3c-1,0-2.1-0.8-3.2-1.3C787.5,424.2,790.7,419.3,793.9,414.4z"/>
	<path class="st19" d="M456.7,623.4c5.8,0,11.5,0,17.3,0.1c2.1,0,4.1,0.4,6.2,0.4c1.1,0,2.2-0.3,3.3-0.5c0.5-0.1,0.9-0.5,1.4-0.5
		c3.3,0.2,6.8,1.1,10,0.7c4.8-0.7,9.2,2.1,14.1,0.4c2.9-1,6.5-0.1,9.6-0.8c2.4-0.6,4,0.2,6,0.8c1.8,0.5,4.1-0.3,6.1-0.6
		c0.5-0.1,0.9-0.4,1.4-0.4c4.1,0.3,8.2,0.6,12.3,0.9c-0.9,5.3-1.8,10.6-2.8,15.9c-1.4,7.3-2.8,14.7-4.2,22
		c-0.9,4.6-1.8,9.1-2.7,13.7c-2.9-1.3-5.6-0.7-8.4,0.8c-0.4-0.6-0.8-1.2-1.3-1.8c-0.1,0.2-0.1,0.5-0.2,0.7c-2.1-0.2-4.3-0.5-6.4-0.7
		c-0.3,0-0.7,0-1,0.1c-3.3,1.4-6.7,1.8-10.1,0.3c-0.4-0.2-1-0.1-1.5-0.1c-2.4-0.1-4.9,1.8-7.2-0.4c-0.2-0.2-0.9,0.4-1.4,0.4
		c-2.1,0-4.2-0.1-6.3-0.1c-0.6,0-1.3-0.2-1.9,0c-4.7,1.4-9.4,0.9-14.2,0.5c-3-0.3-6-2.1-9.1,0c-0.4,0.3-1.1,0.1-1.7,0.1
		c-4.2-0.2-8.5-0.4-12.7-0.5c-1.6,0-3.3,0.2-4.9,0.4c2.1-10.5,4.1-20.9,6.1-31.4C454.2,637.2,455.4,630.3,456.7,623.4z"/>
	<path class="st28" d="M995.1,640.5c-3.4-1.8-7.4-1.8-10.8-1.2c-5.4,0.9-10.7-0.5-16,0.2c-1.4,0.2-2.7,0.5-4.1,0.7
		c-0.6,0.1-1.2-0.1-1.8-0.2c-0.8-0.1-1.6-0.5-2.4-0.5c-3.2,0.2-6.5,0.6-9.7,0.8c-1.2,0-2.4-0.7-3.6-0.8c-4.9-0.2-9.8-0.4-14.7-0.5
		c-1.1,0-2.2,0.9-3.3,0.8c-2.4-0.1-4.8-0.6-7.2-1c0.2-0.4,0.4-0.7,0.6-1.1c5.5-9.1,11.5-18,16.5-27.3c4.1-7.7,7.1-16,10.6-24.1
		c1.7,0.3,3.4,0.7,5.1,0.8c1.5,0.1,3-0.2,4.5-0.2c1.7,0,3.4,0.1,5.1,0c3.1-0.1,6.3-0.5,9.4-0.4c2.4,0.1,4.8,1,7.3,0
		c1-0.4,2.4,0.2,3.6,0.3c0.7,0.1,1.4,0.3,2.1,0.3c2.1,0,4.3-0.7,6.3-0.2c4.8,1.2,9.7-1.5,14.4,0.6c0.1,0,0.2-0.1,0.2-0.1
		c4.4-0.2,8.7-0.4,13.1-0.7c-2.4,5.9-4.7,11.8-7.1,17.7C1008,617.2,1001.6,628.9,995.1,640.5z"/>
	<path class="st16" d="M712.2,485.6c-3.6-1-7.1-2.2-10.9-1.2c-1.7,0.4-3.6-0.3-5.5-0.3c-4.7-0.1-9.4-0.1-14.1,0
		c-3.8,0.1-7.6,0.4-11.5,0.4c-3.3,0-6.6-0.5-9.9-0.4c-6.3,0.1-12.7,0.3-19,0.5c-3.8,0.1-7.5,0.3-11.3,0.4c-0.3,0-0.6-0.6-0.9-0.9
		c0.6-0.5,1.3-1.1,1.9-1.6c11.4-8.6,22.8-17.2,32.7-27.7c6.8-7.3,13-14.9,16.5-24.3c1.5,0.2,2.9,0.5,4.4,0.6
		c4.1,0.2,8.3,0.4,12.4,0.5c3,0.1,6.1,0,9.1-0.1c1.9-0.1,3.7-0.5,5.6-0.6c0.4,0,0.8,0.4,1.3,0.5c1.2,0.3,2.5,0.7,3.7,0.6
		c1.7-0.1,3.3-0.7,5-0.8c2.6-0.2,5.1-0.3,7.7-0.2c1.9,0.1,3.9,0.5,5.8,0.7c0.9,0.1,1.9-0.1,2.9-0.1c-2,5.8-3.9,11.6-6.2,17.3
		C726.5,461.7,719.7,473.8,712.2,485.6z"/>
	<path class="st20" d="M1047,472.5c-0.6,6.2-1.1,12.4-1.9,18.6c-0.7,5.6-1.7,11.2-2.7,16.7c-0.7,3.6-1.6,7.1-2.4,10.7
		c-3,0-5.9,0.1-8.9,0c-3.8-0.1-7.6-0.5-11.4-0.5c-7.1,0-14.2,0.4-21.3,0.4c-4.9,0-9.9-0.3-14.8-0.4c-0.4,0-0.8,0.2-1.2,0.2
		c-2.4,0.2-4.9,0.4-7.3,0.5c-3,0.1-6.1,0.1-9.1,0.2c0.5-5.6,1.4-11.3,1.5-16.9c0.2-9.8-0.1-19.7-0.2-29.5c1.3,0,2.6-0.1,3.9-0.1
		c1.9,0.1,3.8,0.4,5.7,0.3c4.2-0.3,8.4-1.2,12.5-1c6,0.2,12,1.4,17.9,0.2c4.7-1,9.3,1.4,13.8-0.3c0.4-0.2,1,0.2,1.4,0.2
		c3,0.2,6.1,0.6,9.1,0.5c3.2,0,6.3-0.6,9.5-0.6C1043.1,471.7,1045,472.2,1047,472.5z"/>
	<path class="st3" d="M685.6,682.8c-1.7,2.9-4.4,1.3-6.7,1.4c-4,0.2-7.9,0.2-11.9,0.2c-1.6,0-3.3-0.3-4.9-0.4
		c-2.8-0.1-5.5-0.4-8.3-0.3c-6.4,0.1-12.8,0.5-19.3,0.6c-3.7,0.1-7.5-0.2-11.2-0.3c-1.9,0-3.7,0.2-5.6,0.3c-1.2,0.1-2.4,0.3-3.5,0.1
		c-5.4-1.3-10.7,0.1-16,0.2c-1.8,0-3.7-0.4-5.5-0.6c-1.9-6.3-3.8-12.5-5.7-18.8c-1.5-4.9-2.8-9.9-4.2-14.8c-0.2-0.6-0.2-1.3-0.4-1.9
		c1.5-0.3,2.9-0.5,4.4-0.7c2.5-0.3,5-0.7,7.5-1c0.7-0.1,1.5-0.2,2.1-0.1c3.6,0.8,7.1,2.4,10.8,0.5c0.4-0.2,1.2-0.2,1.4,0
		c1.5,1.8,2.9,1.4,4.5,0.2c0.4-0.3,1.1-0.3,1.6-0.2c5.2,1,10.5,2.3,15.7-0.1c0.4-0.2,1.1,0.2,1.6,0.3c0.6,0.1,1.2,0.5,1.9,0.4
		c2.3-0.1,4.5-0.2,6.8-0.4c5.3-0.4,10.5,1.2,15.9,0.2c4.6-0.9,9.5-0.2,14.2-0.2c2.9,6.9,5.8,13.8,8.7,20.7c1.8,4.2,3.5,8.3,5.3,12.5
		C685.2,681.3,685.4,682.1,685.6,682.8z"/>
	<path class="st18" d="M493.1,418c2.2,0,4.5-0.1,6.7,0c0.9,0.1,1.8,0.5,3.2,1c1.6-1.7,4.1-1.3,6.8-0.9c3.9,0.5,8.2,1.3,11.8,0.1
		c4-1.3,7.7,0,11.5-0.6c2.5-0.4,5.2,0.4,7.9,0.3c3.5,0,7-0.4,10.5-0.4c4.3,0,8.5,0.4,12.8,0.4c2.3,0,4.5-0.3,6.8-0.4
		c1.7,0,3.5,0.2,5.2,0.2c2.6,0.1,5.2,0.1,7.7,0.2c-2.3,11.3-4.6,22.7-6.9,34c-2.7,0.9-5.8-0.4-8.3,1.8c-0.3,0.2-1.5-0.2-1.8-0.6
		c-1.1-1.3-2.1-1-3.5-0.7c-2,0.4-4.1,0.2-6.2,0.2c-3.1,0-6.2,0.1-9.3,0.1c-1.1,0-2.3,0.1-3.4,0c-2.6-0.2-5.2-0.5-7.9-0.5
		c-2.6,0-5.1,0.3-7.7,0.5c-2.6,0.2-5.2,0.4-7.7,0.6c-0.8,0.1-1.7,0.3-2.5,0.1c-2.9-0.9-5.9-0.6-8.9-0.4c-0.8,0-1.7,0.2-2.5,0
		c-4.3-1.4-8.6-0.2-12.9-0.4c-2.2-0.1-4.4-0.3-6.5-0.5c0.4-3.4,0.7-6.7,1.2-10.1c1-6.4,2.2-12.7,3.3-19
		C492.7,421.3,492.9,419.6,493.1,418z"/>
	<path class="st10" d="M1047,472.5c-1.9-0.3-3.9-0.8-5.8-0.8c-3.2,0-6.3,0.6-9.5,0.6c-3,0-6.1-0.3-9.1-0.5c-0.5,0-1.1-0.4-1.4-0.2
		c-4.6,1.8-9.2-0.6-13.8,0.3c-5.9,1.2-11.9,0-17.9-0.2c-4.1-0.2-8.3,0.8-12.5,1c-1.9,0.1-3.8-0.2-5.7-0.3c-1.3,0-2.6,0-3.9,0.1
		c-0.1-0.8-0.2-1.6-0.3-2.4c-1.4-9.5-3.2-18.9-9.3-26.7c-2-2.5-4.5-4.5-6.8-6.8c4.4,0.3,8.8,0.7,13.3,0.8c1.8,0.1,3.6-0.3,5.4-0.4
		c2-0.1,4.1,0,6.1,0c2.6-0.1,5.3-0.2,7.9-0.2c1.4,0,2.7,0.2,4.1,0.3c0.3,0,0.8,0.4,0.9,0.2c2.7-2.1,5.3,0.2,7.9,0.1
		c1,0,2-0.1,2.9-0.5c2-0.8,4-1.2,5.9,0.2c0.2,0.2,0.6,0.2,0.9,0.2c3.4-0.1,6.7-0.3,10.1-0.3c5.2,0,10.4,0.1,15.6,0.1
		c5.3,0,10.7,0,16-0.1C1048.1,448.8,1048.8,460.7,1047,472.5z"/>
	<path class="st15" d="M726,570c1-4.3,1.8-8.7,3.1-12.9c2.1-7.2,4.5-14.4,6.7-21.6c0.9,0.5,1.8,1.4,2.8,1.4c7.3,0.3,14.7,0.4,22,0.6
		c1.1,0,2.6,0.6,3.3,0.1c2.3-1.7,4.4-0.6,6.6-0.4c1.1,0.1,2.3,0.3,3.5,0.2c6.4-1,12.8-0.5,19.2,0.4c0.4,0.1,0.9-0.2,1.4-0.3
		c1-0.2,1.9-0.6,2.9-0.6c2.1,0.1,4.2,0.5,6.3,0.5c5.9-0.1,11.9-0.3,17.8-0.5c-3.5,10.7-6.9,21.4-10.4,32.1c-3.9,1.3-8.1-1.2-12,0.9
		c-0.7,0.4-1.8-0.1-2.7-0.2c-2.2-0.1-4.4-0.5-6.4,0c-1.7,0.4-3.1,0.3-4.7,0.1c-3.3-0.5-6.7-0.7-10.1-0.7c-2.7-0.1-5.4,0.2-8.1,0.4
		c-2,0.1-4,0.5-6.1,0.5c-3.2-0.1-6.5-0.8-9.7-0.8c-3.6,0-7.1,0.7-10.7,0.8c-1.8,0.1-3.7-0.6-5.5-0.8c-1.7-0.2-3.5-0.3-5.2-0.1
		C728.6,569.1,727.3,569.6,726,570z"/>
	<path class="st12" d="M966,519c3-0.1,6.1-0.1,9.1-0.2c2.4-0.1,4.9-0.3,7.3-0.5c0.4,0,0.8-0.2,1.2-0.2c4.9,0.1,9.9,0.4,14.8,0.4
		c7.1,0,14.2-0.4,21.3-0.4c3.8,0,7.6,0.3,11.4,0.5c2.9,0.1,5.9,0,8.9,0c-0.9,4.5-1.5,9-2.6,13.4c-1.8,7.2-3.9,14.4-5.9,21.6
		c-2.1,0.2-4.2-1.2-6.2,0.4c-0.2,0.2-0.8-0.1-1.2-0.1c-1.6-0.3-3.2-0.7-4.8-0.7c-3,0-6,0.4-9.1,0.4c-4.5,0-8.9-0.4-13.4-0.4
		c-5,0-9.9,0.1-14.9,0.5c-4.2,0.3-8.3-1.1-12.5-0.1c-1.1,0.3-2.5-0.5-3.6-0.2c-2.1,0.5-4.1,0.9-5.9-0.8
		C961.9,541.3,964,530.2,966,519z"/>
	<path class="st16" d="M488,452c2.2,0.2,4.4,0.4,6.5,0.5c4.3,0.3,8.6-1,12.9,0.4c0.8,0.2,1.7,0.1,2.5,0c3-0.1,5.9-0.5,8.9,0.4
		c0.7,0.2,1.6,0,2.5-0.1c2.6-0.2,5.2-0.4,7.7-0.6c2.6-0.2,5.1-0.5,7.7-0.5c2.6,0,5.2,0.4,7.9,0.5c1.1,0.1,2.3,0,3.4,0
		c3.1,0,6.2,0,9.3-0.1c2.1,0,4.2,0.2,6.2-0.2c1.4-0.3,2.5-0.6,3.5,0.7c0.4,0.4,1.6,0.8,1.8,0.6c2.5-2.1,5.6-0.9,8.3-1.8
		c-2,10-4,20-6,30c-0.8-0.3-1.7-0.9-2.5-0.9c-4.5-0.2-9-0.4-13.5-0.4c-4.3,0-8.6,0.3-12.9,0.3c-1.5,0-3.1-0.8-4.6-0.8
		c-6.4,0.2-12.7,0.5-19.1,0.9c-1.9,0.1-3.9,0.5-5.8,0.4c-5-0.2-10-0.6-15-1c-1-0.1-2-0.5-2.9-0.4c-3.9,0.2-7.8,0.6-11.7,0.9
		c0.5-3.2,0.9-6.3,1.5-9.5C485.6,465,486.8,458.5,488,452z"/>
	<path class="st27" d="M959.9,552.5c1.8,1.6,3.7,1.3,5.9,0.8c1.1-0.3,2.5,0.5,3.6,0.2c4.2-1,8.4,0.4,12.5,0.1
		c4.9-0.4,9.9-0.5,14.9-0.5c4.5,0,8.9,0.4,13.4,0.4c3,0,6-0.4,9.1-0.4c1.6,0,3.2,0.5,4.8,0.7c0.4,0.1,1,0.3,1.2,0.1
		c2-1.6,4.2-0.2,6.2-0.4c-3.8,11.2-7.6,22.4-11.3,33.5c-4.4,0.2-8.7,0.4-13.1,0.7c-0.1,0-0.2,0.1-0.2,0.1c-4.7-2.1-9.6,0.6-14.4-0.6
		c-2-0.5-4.2,0.1-6.3,0.2c-0.7,0-1.4-0.2-2.1-0.3c-1.2-0.2-2.6-0.7-3.6-0.3c-2.5,1-4.8,0.1-7.3,0c-3.1-0.1-6.3,0.3-9.4,0.4
		c-1.7,0.1-3.4,0-5.1,0c-1.5,0-3,0.3-4.5,0.2c-1.7-0.1-3.4-0.5-5.1-0.8c2.2-6.8,4.5-13.6,6.7-20.4
		C957.2,561.6,958.5,557,959.9,552.5z"/>
	<path class="st26" d="M821.6,537c-5.9,0.2-11.9,0.4-17.8,0.5c-2.1,0-4.2-0.4-6.3-0.5c-0.9,0-1.9,0.4-2.9,0.6
		c-0.5,0.1-0.9,0.3-1.4,0.3c-6.4-0.9-12.8-1.3-19.2-0.4c-1.1,0.2-2.3,0-3.5-0.2c-2.2-0.3-4.4-1.3-6.6,0.4c-0.7,0.5-2.2-0.1-3.3-0.1
		c-7.3-0.2-14.7-0.3-22-0.6c-0.9,0-1.9-0.9-2.8-1.4c3.1-8.7,6.2-17.3,9.3-26c3.2,0.2,6.4,0.4,9.5,0.5c2.5,0,5-0.3,7.6-0.3
		c2.7,0,5.4,0.3,8.2,0.3c2.5,0,5-0.4,7.5-0.4c4.6,0,9.2,0.3,13.8,0.4c5.1,0.1,10.1,0,15.2,0.1c1,0,1.9,0.2,2.9,0.1
		c2.7-0.2,5.3-0.5,8-0.6c2.8-0.1,5.5,0,8.3,0c1.2,0,2.6,0.4,3.6-0.1c1.7-0.8,2.8-0.4,4,0.7c-0.1,0.3-0.1,0.7-0.3,1
		C829.4,519.8,825.5,528.4,821.6,537z"/>
	<path class="st8" d="M726,570c1.3-0.4,2.6-0.9,3.9-1c1.7-0.1,3.5,0,5.2,0.1c1.8,0.2,3.7,0.9,5.5,0.8c3.6-0.1,7.2-0.8,10.7-0.8
		c3.2,0,6.5,0.7,9.7,0.8c2,0.1,4-0.3,6.1-0.5c2.7-0.2,5.4-0.4,8.1-0.4c3.4,0.1,6.8,0.2,10.1,0.7c1.7,0.3,3.1,0.3,4.7-0.1
		c2-0.5,4.3,0,6.4,0c0.9,0,2,0.5,2.7,0.2c3.9-2,8.1,0.4,12-0.9c-1.2,4.4-2.5,8.7-3.6,13.1c-1.1,4.7-2,9.5-3,14.3
		c-28-0.5-56.1-0.1-84.1,0c1.6-7.8,3.2-15.6,4.8-23.4C725.4,572,725.7,571,726,570z"/>
	<path class="st16" d="M754.7,486.2c3.7-7.9,7.4-15.8,11.1-23.7c2.7,0.5,5.3,1.3,8,1.6c1.9,0.2,3.9-0.5,5.9-0.5
		c5.7-0.1,11.4,0,17.1,0c0.7,0,1.3-0.2,2-0.2s1.4,0.1,2.1,0.2c1.7,0.1,3.4,0.3,5.1,0.2c1.1,0,2.1-0.7,3.1-0.6
		c3.2,0.2,6.4,0.9,9.5,0.8c3.7-0.1,7.4-0.5,11.2,0c3.3,0.4,6.8-0.3,10.1-0.5c3.8-0.2,7.5-0.3,11.3-0.4c1,0,2,0.7,3,0.7
		c3.5,0,7.1-0.2,10.6-0.3c-6.2,8.2-12.5,16.3-18.7,24.5c-0.4-0.3-0.7-0.9-1.1-0.9c-4.4-0.2-8.7-0.3-13.1-0.4c-3.1,0-6.4,0.8-9.3,0.1
		c-4.8-1.2-9.3,1.5-14.2-0.1c-2.8-0.9-6.1,0-9.2,0.3c-4.7,0.5-9.5-1.2-14.2,0.4c-0.3,0.1-0.6-0.2-0.9-0.2c-4.1-0.1-8.1-0.1-12.2-0.2
		c-1.6,0-3.2-0.1-4.7-0.1c-1.8,0-3.7-0.3-5.3,0.3C759.2,488.3,757.1,486.9,754.7,486.2z"/>
	<path class="st28" d="M720.5,596.5c28-0.1,56.1-0.5,84.1,0c-0.9,8.5-1.8,17-2.7,25.5c-2.1,1.2-4.2,1-6.4,0.6
		c-1.5-0.3-3.1,0.2-4.7,0.3c-2,0.1-4,0.1-6,0c-3-0.2-6.1-0.5-9.1-0.8c-0.1,0-0.2,0-0.2,0c-1.7,0-3.5,0.1-5.2,0c-1,0-2.4-0.9-2.8-0.5
		c-2.6,2.3-5.4,0.6-8,0.6c-3.2,0-6.4,0.1-9.6,0.2c-2.5,0-5,0.2-7.5,0c-3.8-0.4-7.5,1-11.4-0.2c-1.7-0.5-3.9,1.3-5.7-0.6
		c-0.1-0.1-0.6,0.2-0.9,0.4c-1.8,1.3-3.6,1.5-5.4-0.1c-0.5-0.4-1.4-0.3-2.2-0.4c1.1-8.1,2.2-16.2,3.3-24.3
		C720.1,596.9,720.3,596.7,720.5,596.5z"/>
	<path class="st19" d="M670.9,647.5c-4.7,0-9.6-0.7-14.2,0.2c-5.4,1-10.6-0.6-15.9-0.2c-2.3,0.2-4.5,0.3-6.8,0.4
		c-0.6,0-1.2-0.3-1.9-0.4c-0.5-0.1-1.2-0.5-1.6-0.3c-5.2,2.4-10.4,1.1-15.7,0.1c-0.5-0.1-1.2-0.1-1.6,0.2c-1.6,1.2-3,1.6-4.5-0.2
		c-0.2-0.2-1-0.2-1.4,0c-3.7,2-7.2,0.3-10.8-0.5c-0.7-0.2-1.4,0-2.1,0.1c-2.5,0.3-5,0.6-7.5,1c-1.5,0.2-2.9,0.5-4.4,0.7
		c-2-7.3-4-14.7-6-22c-0.3-1.1-0.6-2.2-0.8-3.4c5-0.1,10-0.1,15.1-0.3c3.7-0.1,7.4-0.6,11.2-0.8c2.7-0.1,5.5,0.1,8.2,0.1
		c0.9,0,1.7-0.1,2.6-0.2c0.4-0.1,0.8-0.4,1.2-0.3c2.9,0.3,5.9,0.7,8.8,1.1c0.9,0.1,1.9,0.5,2.7,0.3c4.7-1.6,9.2-0.9,13.8,0.3
		c1.4,0.4,3.2-0.7,4.8-0.8c2.3-0.2,4.6,0,6.9-0.1c2.1-0.1,4.1-0.2,6.2-0.3c1,0,1.9,0,2.9,0c1.5,3.1,3.2,6.2,4.6,9.4
		c2,4.5,3.8,9.2,5.7,13.8C670.5,645.9,670.7,646.7,670.9,647.5z"/>
	<path class="st19" d="M716.8,621.5c0.7,0.1,1.7,0,2.2,0.4c1.8,1.7,3.6,1.5,5.4,0.1c0.3-0.2,0.8-0.5,0.9-0.4c1.8,1.9,3.9,0,5.7,0.6
		c3.8,1.2,7.6-0.2,11.4,0.2c2.5,0.2,5,0.1,7.5,0c3.2,0,6.4-0.2,9.6-0.2c2.7,0,5.4,1.8,8-0.6c0.4-0.4,1.9,0.5,2.8,0.5
		c1.7,0.1,3.5,0,5.2,0c0.1,0,0.2-0.1,0.2,0c3,0.3,6.1,0.6,9.1,0.8c2,0.1,4,0,6,0c1.6-0.1,3.2-0.5,4.7-0.3c2.3,0.4,4.4,0.6,6.4-0.6
		c-0.3,4.2-0.8,8.3-0.9,12.5c-0.1,4.3,0.2,8.7,0.4,13c-2.2,0-4.4,0-6.6,0c-5-0.1-10.1-0.3-15.1-0.4c-0.2,0-0.3,0-0.5,0.1
		c-2.2,1.1-4.6,0.4-6.8,0.5c-4.5,0.3-9.1-2.2-13.6,0c-0.3,0.1-0.9-0.4-1.3-0.5c-1.7-0.2-3.8-1-4.9-0.3c-1.8,1.2-3.2,0.8-4.9,0.3
		c-0.9-0.3-1.9-0.4-2.8-0.3c-2.8,0.1-5.6,0.5-8.4,0.5c-3.1-0.1-6.3-0.3-9.4-0.3c-3.9,0-8.2,1.8-11.9-1.1
		C715.7,637.8,716.2,629.6,716.8,621.5z"/>
	<path class="st10" d="M865,463.5c-3.5,0.1-7.1,0.3-10.6,0.3c-1,0-2-0.7-3-0.7c-3.8,0-7.5,0.2-11.3,0.4c-3.4,0.2-6.8,0.9-10.1,0.5
		c-3.8-0.5-7.5-0.2-11.2,0c-3.2,0.1-6.3-0.6-9.5-0.8c-1-0.1-2.1,0.6-3.1,0.6c-1.7,0.1-3.4-0.1-5.1-0.2c-0.7,0-1.4-0.2-2.1-0.2
		c-0.7,0-1.3,0.2-2,0.2c-5.7,0-11.4,0-17.1,0c-2,0-4,0.7-5.9,0.5c-2.7-0.2-5.4-1-8-1.6c3.5-6.7,7-13.3,10.5-20
		c0.7,1.6,1.5,2.6,3.4,1.3c0.4-0.3,1.3,0,1.9,0c2.3,0.2,4.7,0.7,7,0.6c4.8-0.2,9.5-1.1,14.3-1.2c5.8-0.2,11.6-0.4,17.3,0.5
		c3.9,0.6,7.3-1.3,11.4-0.1c3.9,1.2,8.5-0.1,12.8-0.1c3.7,0,7.6,1.1,11.1,0.3c5.1-1.2,10.2,2,15.1-0.7c0.1-0.1,0.3,0,0.5,0
		c2.1,0.3,4.1,0.7,6.2,0.8c1.8,0.1,3.7-0.4,5.5-0.2c1.1,0.1,2.2,1,3.3,1.5C879,451.3,872,457.4,865,463.5z"/>
	<path class="st20" d="M754.7,486.2c2.4,0.7,4.6,2.1,7.3,1c1.6-0.6,3.5-0.3,5.3-0.3c1.6,0,3.2,0.1,4.7,0.1c4.1,0.1,8.1,0.1,12.2,0.2
		c0.3,0,0.7,0.3,0.9,0.2c4.7-1.5,9.5,0.1,14.2-0.4c3.1-0.3,6.5-1.2,9.2-0.3c4.8,1.6,9.4-1.1,14.2,0.1c2.9,0.7,6.2-0.1,9.3-0.1
		c4.4,0,8.7,0.2,13.1,0.4c0.4,0,0.7,0.6,1.1,0.9c-4.2,7.4-8.4,14.8-12.6,22.2c-1.2-1.1-2.3-1.5-4-0.7c-1,0.5-2.4,0.1-3.6,0.1
		c-2.8,0-5.5-0.1-8.3,0c-2.7,0.1-5.3,0.4-8,0.6c-1,0.1-1.9-0.1-2.9-0.1c-5.1,0-10.1,0-15.2-0.1c-4.6-0.1-9.2-0.4-13.8-0.4
		c-2.5,0-5,0.4-7.5,0.4c-2.7,0-5.4-0.3-8.2-0.3c-2.5,0-5,0.4-7.6,0.3c-3.2,0-6.4-0.3-9.5-0.5C748.3,501.7,751.5,494,754.7,486.2z"/>
	<path class="st18" d="M886.1,445.2c-1.1-0.5-2.2-1.4-3.3-1.5c-1.8-0.2-3.7,0.3-5.5,0.2c-2.1-0.1-4.1-0.5-6.2-0.8
		c-0.2,0-0.4-0.1-0.5,0c-4.9,2.7-10-0.5-15.1,0.7c-3.5,0.8-7.4-0.3-11.1-0.3c-4.3,0-8.9,1.3-12.8,0.1c-4.1-1.2-7.5,0.7-11.4,0.1
		c-5.6-0.9-11.5-0.6-17.3-0.5c-4.8,0.1-9.5,1-14.3,1.2c-2.3,0.1-4.7-0.4-7-0.6c-0.6-0.1-1.5-0.3-1.9,0c-1.9,1.4-2.7,0.3-3.4-1.3
		c2.6-4.5,5.3-8.9,7.9-13.4c1.1,0.4,2.1,1.3,3.2,1.3c4.7-0.2,9.4-0.4,14.1,0.3c2.3,0.3,5,1.6,7.7-0.5c1.2-0.9,3.8-0.2,5.7-0.1
		c5.4,0.2,10.9,1.4,16.2,0.6c4.5-0.7,8.7,0.8,13,0.6c2.9-0.1,5.9-0.6,8.8-0.7c3.2-0.1,6.4,0,9.6,0c3.2,0,6.4-0.2,9.6-0.1
		c2.4,0,4.8,0.3,7.2,0.5c0.7,0,1.5,0.1,2.2,0c1.4-0.1,3-0.7,4.2-0.3c3.8,1.4,7.5,0,11.2-0.1c3.3-0.1,6.7,0.2,10-0.1
		c3.9-0.4,7.7,1.5,11.6,0.3c1.2-0.3,3.3-1.1,3.9,1.3c-7.3,0.5-14.4,2.3-21.1,5.2C896.1,439.4,891.2,442.5,886.1,445.2z"/>
	<path class="st3" d="M715.1,646c3.7,2.9,8.1,1.1,11.9,1.1c3.1,0,6.3,0.2,9.4,0.3c2.8,0.1,5.6-0.3,8.4-0.5c0.9,0,1.9,0.1,2.8,0.3
		c1.7,0.5,3.1,0.9,4.9-0.3c1.1-0.7,3.3,0.1,4.9,0.3c0.5,0,1,0.6,1.3,0.5c4.5-2.3,9,0.2,13.6,0c2.3-0.1,4.6,0.6,6.8-0.5
		c0.1-0.1,0.3-0.1,0.5-0.1c5,0.1,10.1,0.3,15.1,0.4c2.2,0,4.4,0,6.6,0c0.2,0.5,0.6,1,0.6,1.5c0.3,5.5,2.6,10.3,5.2,15
		c-0.6,0.5-1.1,1.3-1.7,1.3c-4.1,0-8.1-0.3-12.2-0.4c-2.4-0.1-4.9-0.2-7.3-0.3c-1,0-2.1,0-3.1-0.1c-3.5,0-7-0.4-10.3,1.1
		c-0.2,0.1-0.6,0.3-0.7,0.2c-3.5-2.4-7.4,0.7-11.1-0.9c-1.9-0.8-4.4,0-6.6,0.1c-2,0.1-4,0.3-6,0.4c-0.6,0-1.3,0.1-1.7-0.2
		c-2-1.6-3.7-0.9-5.7,0c-1.2,0.5-2.8,0.2-4.2,0.1c-0.4,0-0.8-0.3-1.2-0.3c-3.2,0-6.4,0-9.6,0c-1.2,0-2.4-0.2-3.6-0.2
		c-2.4,0-4.8,0.1-7.1,0.1C715.1,658.7,715.1,652.3,715.1,646z"/>
	<path class="st20" d="M483,481c3.9-0.3,7.8-0.7,11.7-0.9c1-0.1,1.9,0.3,2.9,0.4c5,0.4,10,0.8,15,1c1.9,0.1,3.9-0.3,5.8-0.4
		c6.4-0.3,12.7-0.7,19.1-0.9c1.5,0,3.1,0.8,4.6,0.8c4.3,0,8.6-0.3,12.9-0.3c4.5,0,9,0.2,13.5,0.4c0.8,0,1.7,0.6,2.5,0.9
		c-1.2,5.7-2.3,11.3-3.5,17c-1.8-0.3-3.5-0.8-5.3-0.8c-2.1-0.1-4.1,0.1-6.2,0.3c-2,0.2-4,0.7-6,1.1c-0.4,0.1-0.8,0-1.1,0
		c-1.7-0.4-3.3-1-5-1.1c-3.5-0.2-7-0.1-10.4,0c-5.4,0.1-10.8,0.4-16.2,0.4c-4.8,0-9.6-0.3-14.4-0.4c-1.3,0-2.6,0.4-3.9,0.7
		c-0.5,0.1-1,0.2-1.5,0.2c-3.9-0.3-7.8-0.7-11.8-0.9c-2.1-0.1-4.2,0-6.2,0c1-5.4,1.9-10.8,2.9-16.2C482.5,481.9,482.8,481.4,483,481
		z"/>
	<path class="st11" d="M369.9,392.7c0.8-4.5,1.6-8.9,2.3-13.4c0.9-5.2,1.8-10.4,2.7-15.6c0.9-5.3,1.8-10.6,2.7-15.9
		c0.6-3.7,1.2-7.4,2-11c0.2-0.7,1-1.7,1.7-1.8c18.7-2.9,37.5-5.7,56.3-8.6c8.6-1.3,17.2-2.8,25.8-4.2c2.2-0.4,4.4-0.5,7.1-0.8
		c-0.3,2-0.7,4-1.1,5.9c-2.2,11.3-4.3,22.7-6.6,34c-2.2,11.1-4.6,22.1-6.9,33.2c-4.2,0-8.4,0.1-12.6-0.1c-3.4-0.1-6.8-0.9-10.2-0.8
		c-4.1,0.1-8.2,1.9-12.4,0.4c-0.7-0.3-1.7-0.1-2.5,0c-3.2,0.2-6.4,0.5-9.6,0.4c-2.4,0-4.9-0.8-7.3-0.8c-2.8,0.1-5.6,0.7-8.3,1
		c-0.7,0.1-1.4,0-2.1,0c-0.9,0-1.8-0.1-2.7-0.1c-0.6,0-1.1,0.2-1.7,0.2c-2.7-0.1-5.5-0.3-8.2-0.5C375.5,394,372.3,395.3,369.9,392.7
		z"/>
	<path class="st25" d="M395.1,709c-0.8,4.7-1.6,9.5-2.5,14.2c-1.4,7.7-2.8,15.4-4.2,23.1c-1.3,7.3-2.7,14.7-4,22
		c-31.8,1.5-63.2,6.3-94.9,10.5c5.9-23.7,11.8-47.2,17.7-70.6c1.3,2.2,3.1,1.2,5.1,1.3c2.7,0.1,5.3,0.8,8.1,0.2
		c2.8-0.7,5.8-0.7,8.8-1c0.8-0.1,1.9-0.3,2.4,0.1c2.6,1.7,5.5,0.5,8.2,0.9c1.9,0.3,3.8-0.2,5.7-0.3c3.9-0.1,7.8-0.1,11.8-0.1
		c2.2,0,4.4-0.1,6.6,0c2.8,0.1,5.6,1.8,8.3-0.4c0.1-0.1,0.5,0,0.7,0c2.5,0.1,5.1,0.4,7.6,0.3c2.4-0.1,4.8,1.3,7.3,0
		c0.2-0.1,0.5,0.1,0.7,0.2C390.8,710.4,392.9,710.3,395.1,709z"/>
	<path class="st23" d="M395.1,709c-2.1,1.3-4.3,1.4-6.6,0.3c-0.2-0.1-0.5-0.3-0.7-0.2c-2.4,1.2-4.9-0.1-7.3,0
		c-2.5,0.1-5.1-0.2-7.6-0.3c-0.2,0-0.6-0.1-0.7,0c-2.7,2.2-5.5,0.5-8.3,0.4c-2.2-0.1-4.4,0-6.6,0c-3.9,0-7.8,0.1-11.8,0.1
		c-1.9,0-3.9,0.5-5.7,0.3c-2.7-0.4-5.6,0.8-8.2-0.9c-0.6-0.4-1.6-0.2-2.4-0.1c-2.9,0.3-5.9,0.3-8.8,1c-2.8,0.6-5.4-0.1-8.1-0.2
		c-1.9,0-3.8,0.9-5.1-1.3c1.4-6.5,2.7-13,4.1-19.5c1.4-6.4,2.7-12.9,4.1-19.3c1.1-5.1,2.3-10.2,3.5-15.4c1.3,0.2,2.9,0.8,3.9,0.4
		c1.6-0.7,2.8-0.3,4.3-0.3c3.7,0.1,7.6,0.7,11,0.3c3-0.3,6.2-0.5,9.2-0.5c4.3-0.1,8.6,0.7,13.1,0.3c4.8-0.5,9.8,0.3,14.7,0.2
		c4.2,0,8.3-0.6,12.5-0.5c3.8,0.1,7.6-0.8,11.5,0.4c1.9,0.6,4.2-0.2,6.4-0.4c-0.8,4.7-1.6,9.3-2.5,13.9c-1.3,7.1-2.7,14.2-4.1,21.3
		C397.7,695.8,396.4,702.4,395.1,709z"/>
	<path class="st22" d="M405.6,654c-2.1,0.2-4.5,1-6.4,0.4c-3.9-1.3-7.7-0.4-11.5-0.4c-4.2-0.1-8.3,0.5-12.5,0.5
		c-4.9,0-9.8-0.7-14.7-0.2c-4.5,0.5-8.8-0.3-13.1-0.3c-2.9,0-6.2,0.2-9.2,0.5c-3.5,0.4-7.3-0.3-11-0.3c-1.5,0-2.7-0.4-4.3,0.3
		c-1.1,0.5-2.6-0.2-3.9-0.4c0.9-4.6,1.8-9.2,2.8-13.8c1.4-6.8,2.8-13.6,4.2-20.4c1.4-6.9,2.9-13.8,4.3-20.6c0.6,0.3,1.1,0.8,1.7,0.8
		c5.2,0.1,10.4,0,15.6,0c1.3,0,2.6,0.4,3.9,0.4c2.8-0.2,5.6-0.8,8.4-0.8c5-0.1,10.1-0.4,15,0.3c3,0.4,5.5,0.6,8-1
		c0.2-0.2,0.6-0.1,1-0.1c2.7,0.4,5.4,1,8.1,1.3c1,0.1,2.1-0.1,3.1-0.1c1.6,0,3.2,0.1,4.8,0.2c0.5,0,1.1,0.5,1.4,0.3
		c2.3-1.4,4.8-0.3,7.2-0.4c2.5-0.1,5,0,7.5,0c-1.3,6.7-2.5,13.4-3.8,20.1c-1.4,7.3-2.8,14.5-4.2,21.8
		C407.3,645.9,406.4,649.9,405.6,654z"/>
	<path class="st21" d="M369.9,392.7c2.5,2.6,5.7,1.3,8.6,1.6c2.7,0.2,5.5,0.4,8.2,0.5c0.5,0,1.1-0.1,1.7-0.2c0.9,0,1.8,0,2.7,0.1
		c0.7,0,1.4,0.1,2.1,0c2.8-0.3,5.5-1,8.3-1c2.4,0,4.8,0.7,7.3,0.8c3.2,0.1,6.4-0.3,9.6-0.4c0.8,0,1.7-0.2,2.5,0
		c4.2,1.4,8.3-0.3,12.4-0.4c3.4-0.1,6.8,0.7,10.2,0.8c4.2,0.2,8.4,0.1,12.6,0.1c-1,5.3-1.9,10.6-2.9,15.9
		c-1.4,7.2-2.8,14.3-4.2,21.5c-0.9,4.4-1.8,8.8-2.6,13.2c-1.2,0-2.4-0.2-3.7-0.1c-3.4,0.1-6.8,0.4-10.2,0.5c-3,0-6.2-0.8-9.1-0.2
		c-3.1,0.7-6.3-2.5-9.1,0.5c0,0.1-0.3-0.1-0.5-0.1c-3.2-0.2-6.5-0.5-9.7-0.4c-3.1,0-6.2,0.6-9.3,0.6c-3.8,0-7.5-0.2-11.3-0.4
		c-1.1,0-2.3-0.3-3.4-0.2c-3.1,0.2-6.1,0.8-9.2,0.7c-3-0.1-5.9-1.7-8.9,0c-0.5,0.3-1.4-0.3-2.1-0.4c0.9-5.3,1.8-10.6,2.8-15.8
		c0.9-5.1,1.9-10.2,2.9-15.3c1-5.2,2-10.4,3-15.6C368.9,396.7,369.4,394.7,369.9,392.7z"/>
	<path class="st16" d="M359.8,445.5c0.7,0.2,1.7,0.7,2.1,0.4c3-1.7,6-0.1,8.9,0c3,0.1,6.1-0.5,9.2-0.7c1.1-0.1,2.3,0.2,3.4,0.2
		c3.8,0.2,7.5,0.4,11.3,0.4c3.1,0,6.2-0.6,9.3-0.6c3.2,0,6.5,0.3,9.7,0.4c0.2,0,0.4,0.2,0.5,0.1c2.8-3,6,0.2,9.1-0.5
		c2.8-0.7,6,0.2,9.1,0.2c3.4,0,6.8-0.3,10.2-0.5c1.2,0,2.4,0.1,3.7,0.1c-2.6,12.9-5.1,25.7-7.7,38.6c-0.5,2.6-1,5.2-1.5,7.8
		c-2.7,0-5.5-0.1-8.2-0.1c-3.5-0.1-7.2-0.9-10.5-0.2c-3.4,0.7-6.6-0.8-10.1,0c-3.3,0.8-7.1-0.8-10.5,1.1c-0.4,0.2-1.2-0.2-1.9-0.3
		c-2.3-0.3-4.6-0.8-6.8-0.9c-3.6-0.1-7.2,0-10.9,0c-1.9,0-3.7,0-5.6,0.1c-2.7,0.2-5.4,0.5-8.1,0.7c-0.3,0-0.6-0.2-0.9-0.3
		c-1.1-0.2-2.2-0.6-3.3-0.7c-3-0.1-6.1,0-9.1,0c1-5.3,1.9-10.6,2.9-16c1.3-6.6,2.6-13.3,3.9-19.9
		C358.5,451.9,359.2,448.7,359.8,445.5z"/>
	<path class="st27" d="M416,600c-2.5,0-5-0.1-7.5,0c-2.4,0.1-4.9-1-7.2,0.4c-0.3,0.2-0.9-0.3-1.4-0.3c-1.6-0.1-3.2-0.2-4.8-0.2
		c-1,0-2.1,0.2-3.1,0.1c-2.7-0.4-5.4-0.9-8.1-1.3c-0.3,0-0.7-0.1-1,0.1c-2.5,1.6-5.1,1.4-8,1c-4.9-0.7-10-0.4-15-0.3
		c-2.8,0.1-5.6,0.6-8.4,0.8c-1.3,0.1-2.6-0.3-3.9-0.4c-5.2,0-10.4,0-15.6,0c-0.6,0-1.1-0.5-1.7-0.8c1.2-6.3,2.3-12.6,3.5-19
		c1.3-6.8,2.5-13.6,3.8-20.4c0.3-1.8,0.8-3.6,1.2-5.3c1.9,0.2,3.8,0.4,5.8,0.5c1.6,0.1,3.3,0.2,4.9,0.1c4-0.1,8-0.4,12-0.5
		c2.2,0,4.4,0.2,6.5,0.3c1.4,0.1,2.8,0,4.1,0c2.8,0,5.6,0.1,8.4,0.1c2.8-0.1,5.6-0.5,8.4-0.5c5,0,10,0.4,15,0.4c7,0,14-0.3,20.9-0.4
		C421.9,569.7,419,584.9,416,600z"/>
	<path class="st7" d="M351.1,491c3,0,6.1-0.1,9.1,0c1.1,0,2.2,0.4,3.3,0.7c0.3,0.1,0.6,0.3,0.9,0.3c2.7-0.2,5.4-0.5,8.1-0.7
		c1.9-0.1,3.7-0.1,5.6-0.1c3.6,0,7.2-0.2,10.9,0c2.3,0.1,4.6,0.5,6.8,0.9c0.6,0.1,1.4,0.6,1.9,0.3c3.4-1.8,7.2-0.3,10.5-1.1
		c3.5-0.9,6.7,0.7,10.1,0s7,0.1,10.5,0.2c2.7,0.1,5.5,0.1,8.2,0.1c-0.9,4.8-1.7,9.6-2.6,14.4c-1,5.2-2,10.4-3,15.6c-0.2,1-0.7,2-1,3
		c-2.5,0-5.2,0.6-7.6-0.1c-3.2-1-6.1,1.3-9.4-0.1c-1.8-0.7-4.3,0.5-6.5,0.7c-1,0.1-2-0.5-3-0.8c-0.5-0.2-1.1-0.6-1.6-0.5
		c-3,0.5-6,1.4-9-0.1c-0.2-0.1-0.5,0-0.7,0.1c-2.2,0.3-4.5,1.4-6.7-0.1c-0.3-0.2-0.9,0.1-1.4,0.2c-1.1,0.2-2.2,0.6-3.3,0.7
		c-3.2,0.1-6.5,0.1-9.7,0c-2.3-0.1-4.6-0.9-6.9-0.8c-5.2,0.1-10.3,0.6-15.5,0.9c-1.5,0.1-3.1,0-4.6,0
		C346.8,513.3,348.9,502.2,351.1,491z"/>
	<path class="st12" d="M344.6,524.5c1.5,0,3.1,0.1,4.6,0c5.2-0.3,10.3-0.7,15.5-0.9c2.3-0.1,4.6,0.7,6.9,0.8c3.2,0.2,6.5,0.1,9.7,0
		c1.1,0,2.2-0.4,3.3-0.7c0.5-0.1,1.1-0.4,1.4-0.2c2.3,1.4,4.5,0.4,6.7,0.1c0.2,0,0.5-0.2,0.7-0.1c3,1.4,6,0.5,9,0.1
		c0.5-0.1,1,0.4,1.6,0.5c1,0.3,2,0.8,3,0.8c2.2-0.1,4.8-1.4,6.5-0.7c3.3,1.4,6.2-0.9,9.4,0.1c2.3,0.7,5,0.1,7.6,0.1
		c-0.5,3.4-0.9,6.8-1.5,10.2c-1.1,6.1-2.4,12.1-3.6,18.2c-0.1,0.6-0.4,1.1-0.5,1.6c-7,0.1-14,0.4-20.9,0.4c-5,0-10-0.4-15-0.4
		c-2.8,0-5.6,0.4-8.4,0.5s-5.6-0.1-8.4-0.1c-1.4,0-2.8,0.1-4.1,0c-2.2-0.1-4.4-0.4-6.5-0.3c-4,0.1-8,0.4-12,0.5
		c-1.6,0.1-3.3,0-4.9-0.1c-1.9-0.1-3.8-0.4-5.8-0.5c0.9-5.1,1.9-10.2,2.8-15.3C342.6,534.3,343.6,529.4,344.6,524.5z"/>
	<path class="st1" d="M807.2,664c-2.7-4.7-4.9-9.5-5.2-15c0-0.5-0.4-1-0.6-1.5c-0.1-4.3-0.5-8.7-0.4-13c0.1-4.2,0.6-8.4,0.9-12.5
		c0.9-8.5,1.8-17,2.7-25.5c1-4.8,1.9-9.6,3-14.3c1.1-4.4,2.4-8.8,3.6-13.1c3.5-10.7,6.9-21.4,10.4-32.1c3.9-8.6,7.8-17.2,11.8-25.8
		c0.1-0.3,0.2-0.6,0.3-1c4.2-7.4,8.4-14.8,12.6-22.2c6.2-8.2,12.5-16.3,18.7-24.5c7-6.1,14.1-12.2,21.1-18.3
		c5.1-2.7,10-5.8,15.3-8.1c6.7-2.9,13.8-4.7,21.1-5.2c2.7-0.2,5.4-0.6,8.1-0.7c7.3-0.3,14.2,0.9,20.2,5.3c2.3,2.2,4.9,4.3,6.8,6.8
		c6.1,7.8,7.9,17.2,9.3,26.7c0.1,0.8,0.2,1.6,0.3,2.4c0.1,9.8,0.4,19.7,0.2,29.5c-0.1,5.7-1,11.3-1.5,16.9
		c-2.1,11.2-4.1,22.3-6.2,33.5c-1.3,4.5-2.6,9.1-4.1,13.6c-2.2,6.8-4.5,13.6-6.7,20.4c-3.5,8-6.5,16.3-10.6,24.1
		c-5,9.4-10.9,18.2-16.5,27.3c-0.2,0.4-0.4,0.7-0.6,1.1c-3,3.6-5.9,7.2-8.9,10.7c-8,9.5-17,18-27.4,24.8c-6,3.9-12.5,6.7-19.5,8.8
		c-6.1,1.8-12.3,1.8-18.4,2.8c-5.8,0.9-11.3,0.6-16.5-1.7c-3.9-1.7-7.8-3.8-11-6.6C815.1,673.5,811.3,668.6,807.2,664z M958.2,491.6
		c-0.9-14.5-1.7-26.7-7.1-38c-4-8.3-11.9-12.1-19.2-11.9c-9.5,0.2-18.7,2.5-27.5,6.5c-11.3,5-21.1,12-29.5,20.9
		c-14.3,15-24.8,32.7-33.5,51.4c-5,10.8-9.5,21.9-13.7,33.2c-3.3,8.9-6,18-8.3,27.2c-2.2,8.8-4,17.8-5.2,26.9c-1.4,10-2,20-2.7,30.1
		c-0.2,2.9,0.2,6,0.9,8.9c1.6,6.8,4.5,13,9.4,18.1c8.2,8.5,17.8,12.9,29.8,10.6c10.2-1.9,19.9-5.3,28.7-10.9
		c8.7-5.5,16.1-12.5,22.8-20.3c9.3-10.9,17.3-22.5,23.9-35.2c5.8-11.2,10.9-22.8,14.8-34.8c2.8-8.9,5.8-17.9,8-27s3.8-18.4,5.2-27.7
		C956.4,509.4,957.3,499.3,958.2,491.6z"/>
	<path class="st1" d="M567.5,499c1.2-5.7,2.3-11.3,3.5-17c2-10,4-20,6-30c2.3-11.3,4.6-22.7,6.9-34c1.2-5.7,2.4-11.4,3.6-17.1
		c0.6-2.8,2.6-4.7,5.4-4.7c15.6,0,31.3-0.3,46.9,0.1c9.5,0.2,18.9,1.3,27.6,5.8c4.8,2.5,8.9,5.8,11.5,10.7c2.1,4,1.5,8.4,1.5,12.7
		c0,1.7-0.2,3.3-0.4,5c-3.5,9.5-9.7,17.1-16.5,24.3c-9.8,10.5-21.3,19.1-32.7,27.7c-0.7,0.5-1.3,1-1.9,1.6
		c-6.5,4.1-13,8.3-19.6,12.2c-9.5,5.6-19.3,10.3-30.2,12.3c-2.1,0.4-4.1,0.7-6.2,0.8c-3.7,0.1-5.5-1.8-5.5-5.6
		C567.4,502.2,567.5,500.6,567.5,499z M579,497.5c2.2-0.7,4.1-1.3,6-2c11.9-4.4,22.8-10.5,33.1-17.6c8.7-6,17.1-12.4,25.3-19
		c10.4-8.3,19.5-17.9,25.3-30.1c2.3-4.9,2.1-10.9-1.6-13.6c-3.2-2.4-6.9-4.4-10.7-5.6c-9.2-2.8-18.7-3.7-28.4-3.6
		c-10.1,0.1-20.3,0-30.6,0C591.3,436.6,585.2,466.8,579,497.5z"/>
</g>
</svg>
