<?xml version="1.0" encoding="utf-8"?>
<!-- Generator: Adobe Illustrator 24.1.0, SVG Export Plug-In . SVG Version: 6.00 Build 0)  -->
<svg version="1.1" xmlns="http://www.w3.org/2000/svg" xmlns:xlink="http://www.w3.org/1999/xlink" x="0px" y="0px"
	 viewBox="0 0 1747.6 764.4" style="enable-background:new 0 0 1747.6 764.4;" xml:space="preserve">
<style type="text/css">
	.st0{fill:#19A2B4;}
	.st1{fill:#6C7ED6;}
	.st2{fill:#4F67D2;}
	.st3{fill:#D9EDFF;}
	.st4{fill:#B4DBFF;}
	.st5{fill:#FF656F;}
	.st6{fill:#FF656F;enable-background:new    ;}
	.st7{fill:#FF4756;}
	.st8{fill:#23A8FE;}
	.st9{fill:#0193FA;}
	.st10{fill:none;}
	.st11{fill:#FFFFFF;}
	.st12{font-family:'HelveticaNeue';}
	.st13{font-size:300px;}
</style>
<g id="Capa_1">
	<rect x="0" y="0" class="st0" width="1747.6" height="764.4"/>
	<g>
		<g>
			<path class="st1" d="M186.7,256.1l38.6,71.1l36.2-10.7l10.7-36.2L201,241.7C191.8,236.7,181.7,246.8,186.7,256.1L186.7,256.1z"/>
			<path class="st1" d="M429,327.2l38.6-71.1c5-9.2-5.1-19.3-14.3-14.3l-71.1,38.6l10.7,36.2L429,327.2z"/>
			<path class="st1" d="M225.3,437.2l-38.6,71.1c-5,9.2,5.1,19.3,14.3,14.3l71.1-38.6l-10.7-36.2L225.3,437.2z"/>
			<path class="st1" d="M429,437.2l-36.2,10.7L382.1,484l71.1,38.6c9.3,5,19.3-5.2,14.3-14.3L429,437.2z"/>
		</g>
		<path class="st2" d="M215,256.1c-1.4-2.5-1.6-5-1.1-7.3l-12.9-7c-9.2-5-19.3,5.1-14.3,14.3l38.6,71.1l24.4-7.2L215,256.1z"/>
		<path class="st2" d="M417.3,323.7l-4.7-16c-3.1-10.4,1.5-21.5,11.1-26.7l43.1-23.4l0.9-1.7c5-9.2-5.1-19.3-14.3-14.3l-71.1,38.6
			l10.7,36.2L417.3,323.7z"/>
		<path class="st2" d="M466.5,506.2L423.7,483c-9.5-5.2-14.1-16.3-11.1-26.7l4.6-15.6l-24.4,7.2L382.1,484l71.1,38.6
			c9.3,5,19.3-5.2,14.3-14.3L466.5,506.2z"/>
		<path class="st2" d="M215,508.3l34.7-63.9l-24.4-7.2l-38.6,71.1c-5,9.2,5.1,19.3,14.3,14.3l12.9-7
			C213.4,513.4,213.6,510.8,215,508.3L215,508.3z"/>
		<path class="st3" d="M261.6,315.9l-181,53.7c-5.6,1.7-9.4,6.8-9.4,12.6h256L261.6,315.9z"/>
		<path class="st4" d="M160.8,379.3l126.7-29.9c1.8-0.4,3.4-1.4,4.6-2.7l-30.5-30.8l-181,53.7c-5.6,1.7-9.4,6.8-9.4,12.6h87.4
			C158.5,380.9,159.3,379.7,160.8,379.3L160.8,379.3z"/>
		<path class="st3" d="M327.1,382.2l64.2,66.8l1.9-0.7l180.5-53.5c5.6-1.7,9.4-6.8,9.4-12.6L327.1,382.2L327.1,382.2z"/>
		<path class="st5" d="M393.3,448.3l-66.1-66.1v256c5.8,0,11-3.8,12.6-9.4L393.3,448.3z"/>
		<path class="st6" d="M71.1,126.2"/>
		<path class="st3" d="M259.6,443.4l1.4,4.9l53.5,180.5c1.7,5.6,6.8,9.4,12.6,9.4v-256L259.6,443.4z"/>
		<path class="st4" d="M261,448.3l53.5,180.5c1.7,5.6,6.8,9.4,12.6,9.4L295,421.3c-0.4-2.6-1.9-4.9-4.1-6.3l-31.3,28.3L261,448.3z"
			/>
		<path class="st3" d="M393.9,318l-54.1-182.4c-1.7-5.6-6.8-9.4-12.6-9.4v256L393.9,318z"/>
		<path class="st5" d="M261,316.1l66.1,66.1v-256c-5.8,0-11,3.8-12.6,9.4L261,316.1z"/>
		<path class="st7" d="M314.5,135.6L261,316.1l30.8,30.8c1.3-1.3,2.1-3,2.4-4.9l32.8-215.8C321.3,126.2,316.2,130,314.5,135.6z"/>
		<path class="st4" d="M559.3,340.4c-3.6,0-6.8-2.5-7.5-6.1c-18.8-88.5-88.1-157.9-176.7-176.7c-4.2-0.9-6.8-5-6-9.2
			c0.9-4.2,5-6.8,9.2-6c94.5,20.1,168.5,94.1,188.6,188.6c0.9,4.2-1.8,8.3-6,9.2C560.3,340.4,559.8,340.4,559.3,340.4L559.3,340.4z"
			/>
		<path class="st4" d="M95,340.4c-0.5,0-1.1-0.1-1.6-0.2c-4.2-0.9-6.8-5-6-9.2c20.1-94.5,94.1-168.5,188.6-188.6
			c4.2-0.9,8.3,1.8,9.2,6c0.9,4.2-1.8,8.3-6,9.2c-88.5,18.8-157.9,88.1-176.7,176.7C101.8,337.9,98.6,340.4,95,340.4z"/>
		<path class="st4" d="M376.6,622c-3.6,0-6.8-2.5-7.5-6.1c-0.9-4.2,1.8-8.3,6-9.2c88.5-18.8,157.9-88.1,176.7-176.7
			c0.9-4.2,5-6.8,9.2-6c4.2,0.9,6.8,5,6,9.2c-20.1,94.5-94.1,168.5-188.6,188.6C377.7,622,377.2,622,376.6,622L376.6,622z"/>
		<path class="st4" d="M277.7,622c-0.5,0-1.1-0.1-1.6-0.2c-94.5-20.1-168.5-94.1-188.6-188.6c-0.9-4.2,1.8-8.3,6-9.2
			c4.2-0.9,8.3,1.8,9.2,6c18.8,88.5,88.1,157.9,176.7,176.7c4.2,0.9,6.8,5,6,9.2C284.4,619.5,281.2,622,277.7,622L277.7,622z"/>
		<path class="st8" d="M327.1,382.2h256c0-5.8-3.8-11-9.4-12.6l-180.5-53.5L327.1,382.2z"/>
		<path class="st8" d="M261,448.3l66.1-66.1h-256c0,5.8,3.8,11,9.4,12.6L261,448.3z"/>
		<path class="st9" d="M288.1,413.9l-127.3-28.9c-1.5-0.3-2.2-1.5-2.2-2.7H71.1c0,5.8,3.8,11,9.4,12.6L261,448.3l31.7-31.7
			C291.5,415.3,289.9,414.3,288.1,413.9L288.1,413.9z"/>
	</g>
	<rect x="690.1" y="260.4" class="st10" width="961.6" height="243.5"/>
	<text transform="matrix(1 0 0 1 690.0731 474.6433)" class="st11 st12 st13">Journo</text>
</g>
<g id="Layer_2">
</g>
</svg>
