<?xml version="1.0" encoding="utf-8"?>
<!-- Generator: Adobe Illustrator 24.1.3, SVG Export Plug-In . SVG Version: 6.00 Build 0)  -->
<svg version="1.1" id="Layer_1" xmlns="http://www.w3.org/2000/svg" xmlns:xlink="http://www.w3.org/1999/xlink" x="0px" y="0px"
	 viewBox="0 0 831.4 1276" style="enable-background:new 0 0 831.4 1276;" xml:space="preserve">
<style type="text/css">
	.st0{fill:none;}
	.st1{fill:#2AABDF;}
</style>
<rect x="162.3" y="218.9" class="st0" width="789" height="1028"/>
<g id="UqB6ql.tif">
	<g>
		<path class="st1" d="M480.3,532.7c-0.6,5-1.1,9.9-1.8,14.9c-2,15.7-3.5,31.5-6.1,47.1c-4.2,25.8-8.4,51.6-13.7,77.2
			c-18.2,87.8-46.2,172.7-79.7,255.8c-19.9,49.5-42.2,97.9-66.5,145.4c-8.5,16.6-17.4,33-26.2,49.5c-5.6,10.5-13,19.4-23.4,25.4
			c-28.9,16.9-67.1,2.8-78.8-28.9c-4.9-13.1-5.1-26.2,0.7-38.9c5-10.9,10.7-21.5,16.3-32.1c25.2-47.8,48.4-96.5,69.2-146.3
			c16.8-40.3,32.1-81.2,45.4-122.7c15-46.6,27.7-93.9,37.7-141.9c5.7-27.6,10.5-55.3,13.6-83.3c1.5-13.4,2.6-26.9,3.3-40.3
			c0.7-15.6,0.7-31.3,1.1-47c0.1-2.5,0.5-5,0.6-7.5c0.2-2.8-0.4-5.4-3-6.9c-2.7-1.6-5.1-0.7-7.4,0.9c-32.6,23.3-55,53.8-65.6,92.7
			c-5.7,20.9-19.4,34.3-40.7,39c-30.1,6.7-59-12-66-42.1c-1.9-8.1-1.6-16.2,0.3-24.3c10.9-43.7,30.8-82.5,61.7-115.5
			c18.5-19.7,39.7-36.1,62.9-49.8c26.8-15.8,55.2-28.2,84.8-37.6c12-3.8,24.3-3.9,36.4-0.3c18.2,5.4,30.4,17.3,37.1,34.9
			c3.4,9,6.5,18.2,10.7,26.9c17,35.7,44.7,59.4,81.7,72.9c13.1,4.7,26.6,7.4,40.2,10c11.5,2.2,22.7,5.5,32.3,12.6
			c12.7,9.4,19.2,22.4,20.8,37.8c3.6,33.9-23.1,57.4-51.4,59.7c-12.8,1-25.2-1.4-37.6-3.7c-29.8-5.6-57.5-16.7-83.8-31.6
			c-1.2-0.7-2.3-1.3-3.5-1.9C481.7,532.6,481.1,532.7,480.3,532.7z"/>
		<path class="st1" d="M150.9,1029c-3.3-8.8-6.1-16.4-8.9-24.1c-23.7-64.2-47.5-128.4-71.2-192.6c-17.6-47.8-35.1-95.7-52.6-143.5
			c-4.4-11.9-5.5-24-2.2-36.3c5.6-20.9,23.6-36.2,45-38.6c11.3-1.3,22.3-0.2,32.7,4.5c13.2,6,21.5,16.5,26.5,29.8
			c4.3,11.5,8.7,23.1,12.9,34.6c26.6,71.8,53.2,143.7,79.7,215.5c0.1,0.3,0.2,0.6,0.4,0.9c3.9,7.8,2.9,15-0.6,22.9
			c-18.2,41-37.4,81.5-58.4,121C153.4,1024.8,152.4,1026.3,150.9,1029z"/>
		<path class="st1" d="M666,1018.1c-3.3-9.2-6.3-18.2-9.6-27.1c-7.3-19.7-14.5-39.4-22.1-58.9c-3.2-8.4-7.6-16.3-10.8-24.7
			c-11.2-29.1-10.4-58.4,0.4-87.4c5-13.4,11.2-26.4,16.2-39.8c11.3-29.7,22.3-59.6,33.2-89.5c7.2-19.7,14.3-39.5,21.4-59.2
			c3.6-9.9,8.8-18.7,16.8-25.6c8.8-7.6,19-11.4,30.5-12.2c12.6-0.9,24.6,1,35.4,8c21.2,13.6,30.4,40.9,21.7,65
			c-5.7,15.7-11.5,31.3-17.3,46.9c-29.3,79.4-58.5,158.8-87.8,238.1c-7.4,20.2-15,40.3-22.4,60.5
			C670.7,1014.8,669.6,1017.1,666,1018.1z"/>
		<path class="st1" d="M503.5,732.3c2.3,6,4.6,12.1,6.8,18.1c30.2,81.7,60.4,163.3,90.6,245c10.4,28.1,20.7,56.2,31,84.4
			c4.3,11.9,5.3,23.9,1.7,36.3c-8.1,27.4-38.3,44.4-66,37.2c-19.1-5-32.3-16.5-39.2-35.2c-23.8-64.5-47.7-129-71.5-193.5
			c-1.9-5.2-3.8-10.3-5.7-15.5c-2.8-7.5-2.9-15-0.1-22.5c17.1-45.9,31.5-92.7,46.4-139.3c1.6-5.1,3.3-10.1,4.9-15.2
			C502.8,732.4,503.2,732.4,503.5,732.3z"/>
		<path class="st1" d="M492.6,203.9c0.7,39-30.3,75.8-76.5,75.8c-46.4,0-77.4-36-77.1-76.2c0.3-43.6,33.7-76.9,78-76.4
			C461.7,127.6,493.6,163.9,492.6,203.9z"/>
	</g>
</g>
</svg>
