<?xml version="1.0" encoding="utf-8"?>
<!-- Generator: Adobe Illustrator 24.1.3, SVG Export Plug-In . SVG Version: 6.00 Build 0)  -->
<svg version="1.1" id="Layer_1" xmlns="http://www.w3.org/2000/svg" xmlns:xlink="http://www.w3.org/1999/xlink" x="0px" y="0px"
	 viewBox="0 0 3150.8 1276" style="enable-background:new 0 0 3150.8 1276;" xml:space="preserve">
<style type="text/css">
	.st0{fill:#FFFFFF;}
	.st1{fill:#19A8E0;}
</style>
<rect width="3150.8" height="1276"/>
<path class="st0" d="M835.8,858H718.4l-97.3-332.9H619L521.7,858H403.5L263.8,365.9h127.9l77.8,327.3h2.1l87.6-327.3h123.7
	l88.3,327.3h2.1l79.2-327.3h123.7L835.8,858z M1200.2,707.2h-14.6c-12.5,0-25.2,0.7-38.2,2.1c-12.5,0.9-23.9,3-34.1,6.3
	c-9.7,3.2-17.8,8.1-24.3,14.6c-6.5,6-9.7,14.1-9.7,24.3c0,6.5,1.4,12,4.2,16.7c3.2,4.6,7.2,8.3,11.8,11.1c4.6,2.8,10,4.9,16,6.3
	c6,0.9,11.8,1.4,17.4,1.4c23.2,0,40.8-6.3,52.8-18.8c12.5-13,18.8-30.3,18.8-52.1V707.2z M991,559.2c20.4-19.5,44-34.1,70.9-43.8
	c27.3-9.7,55.1-14.6,83.4-14.6c29.2,0,53.8,3.7,73.7,11.1c20.4,7,36.8,18.1,49.3,33.4c12.5,14.8,21.6,33.8,27.1,57
	c6,22.7,9,49.8,9,81.3V858h-104.3v-36.8h-2.1c-8.8,14.4-22.2,25.5-40.3,33.4c-17.6,7.9-36.8,11.8-57.7,11.8
	c-13.9,0-28.3-1.9-43.1-5.6c-14.8-3.7-28.5-9.7-41-18.1c-12.1-8.3-22-19.5-29.9-33.4c-7.9-13.9-11.8-31-11.8-51.4
	c0-25,6.7-45.2,20.2-60.5c13.9-15.3,31.5-27.1,52.8-35.4c21.8-8.3,45.9-13.9,72.3-16.7c26.4-2.8,52.1-4.2,77.2-4.2v-5.6
	c0-17.1-6-29.7-18.1-37.5c-12.1-8.3-26.9-12.5-44.5-12.5c-16.2,0-32,3.5-47.3,10.4c-14.8,7-27.6,15.3-38.2,25L991,559.2z
	 M1390.9,858V332.6h115.4V858H1390.9z M1968.3,858h-141.1L1714,691.9h-2.1V858h-114.7V332.6h114.7v319.7h2.1l110.5-140.4h138.3
	l-133.4,156.4L1968.3,858z"/>
<path class="st1" d="M2433.1,672.4c0,29.7-5.1,56.8-15.3,81.3c-9.7,24.1-23.9,44.9-42.4,62.5c-18.5,17.1-41,30.6-67.4,40.3
	c-25.9,9.7-54.9,14.6-86.9,14.6c-32.4,0-61.6-4.9-87.6-14.6c-25.9-9.7-48-23.2-66-40.3c-18.1-17.6-32-38.5-41.7-62.5
	c-9.7-24.6-14.6-51.7-14.6-81.3V365.9h118.2v296.8c0,13.4,1.6,26.2,4.9,38.2c3.7,12,9,22.9,16,32.7c7.4,9.3,16.9,16.7,28.5,22.2
	c12.1,5.6,26.4,8.3,43.1,8.3s30.8-2.8,42.4-8.3c12.1-5.6,21.8-13,29.2-22.2c7.4-9.7,12.7-20.6,16-32.7c3.2-12,4.9-24.8,4.9-38.2
	V365.9h118.8V672.4z M2908,683.6c0,24.1-3.7,47.3-11.1,69.5c-7.4,22.2-18.3,41.9-32.7,59.1c-13.9,16.7-31,30.1-51.4,40.3
	c-20.4,10.2-43.6,15.3-69.5,15.3c-21.3,0-41.5-4.2-60.5-12.5c-19-8.8-33.8-20.6-44.5-35.4h-1.4v205h-114V511.9h108.4v42.4h2.1
	c10.7-13.9,25.2-25.9,43.8-36.1c19-10.7,41.2-16,66.7-16c25,0,47.7,4.9,68.1,14.6c20.4,9.7,37.5,22.9,51.4,39.6
	c14.4,16.7,25.3,36.1,32.7,58.4C2904.1,636.5,2908,659.5,2908,683.6z M2797.5,683.6c0-11.1-1.8-22-5.6-32.7
	c-3.2-10.7-8.3-19.9-15.3-27.8c-6.5-8.3-14.8-15.1-25-20.2s-22-7.6-35.4-7.6c-13,0-24.6,2.5-34.8,7.6c-10.2,5.1-19,11.8-26.4,20.2
	c-6.9,8.3-12.5,17.8-16.7,28.5c-3.7,10.7-5.6,21.5-5.6,32.7s1.9,22,5.6,32.7c4.2,10.7,9.7,20.2,16.7,28.5
	c7.4,8.3,16.2,15.1,26.4,20.2c10.2,5.1,21.8,7.6,34.8,7.6c13.4,0,25.3-2.5,35.4-7.6s18.5-11.8,25-20.2c6.9-8.3,12.1-17.8,15.3-28.5
	C2795.6,705.8,2797.5,694.7,2797.5,683.6z"/>
</svg>
